<svg xmlns="http://www.w3.org/2000/svg" xmlns:xlink="http://www.w3.org/1999/xlink" version="1.1" width="3.0972000000" height="2.4720000000" viewBox="0 0 55.7518 44.4971">
  <title><![CDATA[FEX-212F (R)]]></title>
  <g transform=" scale(4.000000) ">
    <!--converted by libvisio2svg-->
    <g transform=" translate(3.412900,0.375000) ">
      <!--emf-blob start-->
      <g transform="translate(-0.0000, -0.0000)">
        <path d="M 45.5096,0.0280 L 3.2207,0.0280 L 3.2207,8.8058 L 45.5096,8.8058 L 45.5096,0.0280 Z" stroke="#000000" stroke-width="0.1195" stroke-linecap="round" stroke-linejoin="round" fill="#EFEFEF"/>
        <path d="M 44.9495,8.8058 L 3.7808,8.8058 L 3.7808,9.8294 L 44.9495,9.8294 L 44.9495,8.8058 Z" stroke="#000000" stroke-width="0.1195" stroke-linecap="round" stroke-linejoin="round" fill="#EFEFEF"/>
        <path d="M 39.8664,9.8294 L 39.8664,10.2080 L 40.1185,10.4604 L 42.8911,10.4604 L 43.1431,10.2080 L 43.1431,9.8294 L 39.8664,9.8294 Z" stroke="#000000" stroke-width="0.1195" stroke-linecap="round" stroke-linejoin="round" fill="#333333"/>
        <path d="M 5.5732,9.8294 L 5.5732,10.2080 L 5.8252,10.4604 L 8.5978,10.4604 L 8.8499,10.2080 L 8.8499,9.8294 L 5.5732,9.8294 Z" stroke="#000000" stroke-width="0.1195" stroke-linecap="round" stroke-linejoin="round" fill="#333333"/>
        <path d="M 33.5371,10.4604 L 33.7892,10.2080 L 33.7892,9.8294 L 30.9746,9.8294 L 30.9746,10.2080 L 31.2266,10.4604 L 33.5371,10.4604 Z" stroke="#000000" stroke-width="0.1195" stroke-linecap="round" stroke-linejoin="round" fill="#333333"/>
        <path d="M 3.2207,0.0280 L 45.5096,0.0280 L 45.5096,0.6170 L 3.2207,0.6170 L 3.2207,0.0280 Z" stroke="#000000" stroke-width="0.1195" stroke-linecap="round" stroke-linejoin="round" fill="none"/>
        <path d="M 41.4208,2.1454 L 41.4208,2.0893 L 41.4068,2.0332 L 41.3928,1.9771 L 41.3788,1.9210 L 41.3508,1.8649 L 41.3227,1.8229 L 41.2947,1.7808 L 41.2527,1.7387 L 41.2107,1.6967 L 41.1687,1.6686 L 41.1267,1.6406 L 41.0707,1.6125 L 41.0147,1.5985 L 40.9587,1.5845 L 40.9027,1.5705 L 40.8466,1.5705 L 7.8837,1.5705 L 7.8277,1.5705 L 7.7716,1.5845 L 7.7156,1.5985 L 7.6596,1.6125 L 7.6036,1.6406 L 7.5616,1.6686 L 7.5196,1.6967 L 7.4776,1.7387 L 7.4356,1.7808 L 7.4076,1.8229 L 7.3796,1.8649 L 7.3516,1.9210 L 7.3376,1.9771 L 7.3235,2.0332 L 7.3095,2.0893 L 7.3095,2.1454 L 7.3095,7.2634 L 7.3095,7.3195 L 7.3235,7.3756 L 7.3376,7.4317 L 7.3516,7.4877 L 7.3796,7.5438 L 7.4076,7.5859 L 7.4356,7.6280 L 7.4776,7.6700 L 7.5196,7.7121 L 7.5616,7.7401 L 7.6036,7.7682 L 7.6596,7.7962 L 7.7156,7.8103 L 7.7716,7.8243 L 7.8277,7.8383 L 7.8837,7.8383 L 40.8466,7.8383 L 40.9027,7.8383 L 40.9587,7.8243 L 41.0147,7.8103 L 41.0707,7.7962 L 41.1267,7.7682 L 41.1687,7.7401 L 41.2107,7.7121 L 41.2527,7.6700 L 41.2947,7.6280 L 41.3227,7.5859 L 41.3508,7.5438 L 41.3788,7.4877 L 41.3928,7.4317 L 41.4068,7.3756 L 41.4208,7.3195 L 41.4208,7.2634 L 41.4208,2.1454 Z" stroke="#7F7F7F" stroke-width="0.1195" stroke-linecap="round" stroke-linejoin="round" fill="#EAEAEA"/>
        <path d="M 12.9387,2.5520 L 8.6818,2.5520 L 8.6818,6.1837 L 12.9387,6.1837 L 12.9387,2.5520 Z" stroke="#000000" stroke-width="0.1195" stroke-linecap="round" stroke-linejoin="round" fill="#1B99E8"/>
        <path d="M 35.8476,2.5520 L 16.4395,2.5520 L 16.4395,6.1837 L 35.8476,6.1837 L 35.8476,2.5520 Z" stroke="#000000" stroke-width="0.1195" stroke-linecap="round" stroke-linejoin="round" fill="#BFBFBF"/>
        <path d="M 39.7824,3.2251 L 37.4019,3.2251 L 37.4019,6.1837 L 39.7824,6.1837 L 39.7824,3.2251 Z" stroke="#000000" stroke-width="0.1195" stroke-linecap="round" stroke-linejoin="round" fill="#494949"/>
        <path d="M 35.0214,1.7387 L 32.6409,1.7387 L 32.6409,2.4118 L 35.0214,2.4118 L 35.0214,1.7387 Z" stroke="#7F7F7F" stroke-width="0.1195" stroke-linecap="round" stroke-linejoin="round" fill="#848484"/>
        <path d="M 35.8476,2.5520 L 16.4395,2.5520 L 16.4395,6.1837 L 35.8476,6.1837 L 35.8476,2.5520 Z" stroke="#000000" stroke-width="0.1195" stroke-linecap="round" stroke-linejoin="round" fill="#BFBFBF"/>
        <text font-family="Arial" fill="#000000" style="white-space:pre;" font-weight="400" text-anchor="start" x="5.7272" y="2.2377" font-size="0.1960"><![CDATA[CONSOLE]]></text>
        <text font-family="Arial" fill="#000000" style="white-space:pre;" font-weight="400" text-anchor="start" x="7.9257" y="2.2377" font-size="0.1960"><![CDATA[WAN]]></text>
        <path d="M 18.9676,6.4657 L 18.2100,6.4657 L 18.2100,6.7773 L 18.9676,6.7773 L 18.9676,6.4657 Z" stroke="#000000" stroke-width="0.1195" stroke-linecap="round" stroke-linejoin="round" fill="#83FF00"/>
        <text font-family="Arial" fill="#000000" style="white-space:pre;" font-weight="400" text-anchor="start" x="23.8515" y="8.5447" font-size="0.1894"><![CDATA[1]]></text>
        <path d="M 22.7827,6.4657 L 22.0251,6.4657 L 22.0251,6.7773 L 22.7827,6.7773 L 22.7827,6.4657 Z" stroke="#000000" stroke-width="0.1195" stroke-linecap="round" stroke-linejoin="round" fill="#83FF00"/>
        <text font-family="Arial" fill="#000000" style="white-space:pre;" font-weight="400" text-anchor="start" x="28.5731" y="8.5447" font-size="0.1894"><![CDATA[2]]></text>
        <path d="M 26.5438,6.4657 L 25.7862,6.4657 L 25.7862,6.7773 L 26.5438,6.7773 L 26.5438,6.4657 Z" stroke="#000000" stroke-width="0.1195" stroke-linecap="round" stroke-linejoin="round" fill="#83FF00"/>
        <text font-family="Arial" fill="#000000" style="white-space:pre;" font-weight="400" text-anchor="start" x="34.1606" y="8.5447" font-size="0.1894"><![CDATA[4]]></text>
        <path d="M 34.1065,6.4657 L 33.3488,6.4657 L 33.3488,6.7773 L 34.1065,6.7773 L 34.1065,6.4657 Z" stroke="#000000" stroke-width="0.1195" stroke-linecap="round" stroke-linejoin="round" fill="#83FF00"/>
        <text font-family="Arial" fill="#000000" style="white-space:pre;" font-weight="400" text-anchor="start" x="40.8168" y="8.5447" font-size="0.1894"><![CDATA[3]]></text>
        <path d="M 30.3454,6.4657 L 29.5878,6.4657 L 29.5878,6.7773 L 30.3454,6.7773 L 30.3454,6.4657 Z" stroke="#000000" stroke-width="0.1195" stroke-linecap="round" stroke-linejoin="round" fill="#83FF00"/>
        <text font-family="Arial" fill="#FFFFFF" style="white-space:pre;" font-weight="400" text-anchor="start" x="37.7863" y="7.3007" font-size="0.1488"><![CDATA[POE PD]]></text>
        <text font-family="Arial" fill="#000000" style="white-space:pre;" font-weight="400" text-anchor="start" x="38.8957" y="8.5447" font-size="0.1894"><![CDATA[12VDC]]></text>
        <ellipse cx="14.0013" cy="7.1906" rx="0.0754" ry="0.0708" fill="#000000" stroke="#000000" stroke-width="0.1195" stroke-linecap="round" stroke-linejoin="round"/>
        <ellipse cx="14.0013" cy="7.1906" rx="0.0754" ry="0.0708" fill="none" stroke="#000000" stroke-width="0.1195" stroke-linecap="round" stroke-linejoin="round"/>
        <path d="M 14.1927,7.2505 L 15.2710,7.2505 " stroke="#000000" stroke-width="0.1195" stroke-linecap="round" stroke-linejoin="round" fill="none"/>
        <path d="M 14.3318,7.2505 L 14.5637,7.0328 L 14.8420,7.0328 " stroke="#000000" stroke-width="0.1195" stroke-linecap="round" stroke-linejoin="round" fill="none"/>
        <path d="M 14.5289,7.2505 L 14.7608,7.4682 L 14.9348,7.4682 " stroke="#000000" stroke-width="0.1195" stroke-linecap="round" stroke-linejoin="round" fill="none"/>
        <ellipse cx="14.8594" cy="6.9729" rx="0.0290" ry="0.0272" fill="#000000" stroke="#000000" stroke-width="0.1195" stroke-linecap="round" stroke-linejoin="round"/>
        <ellipse cx="14.8594" cy="6.9729" rx="0.0290" ry="0.0272" fill="none" stroke="#000000" stroke-width="0.1195" stroke-linecap="round" stroke-linejoin="round"/>
        <path d="M 15.1087,7.3920 L 14.9348,7.3920 L 14.9348,7.5553 L 15.1087,7.5553 L 15.1087,7.3920 Z" stroke="#000000" stroke-width="0.1195" stroke-linecap="round" stroke-linejoin="round" fill="#000000"/>
        <path d="M 15.5377,7.2505 L 15.2710,7.1634 L 15.2710,7.3376 L 15.5377,7.2505 Z" stroke="#000000" stroke-width="0.1195" stroke-linecap="round" stroke-linejoin="round" fill="#000000"/>
        <path d="M 9.1903,5.7133 L 9.1903,3.4381 L 10.0106,3.4381 L 10.0106,3.1347 L 10.3438,3.1347 L 10.3438,2.8693 L 11.3180,2.8693 L 11.3180,3.1347 L 11.6512,3.1347 L 11.6512,3.4381 L 12.4716,3.4381 L 12.4716,5.7133 L 12.0358,5.7133 L 12.0358,5.3215 L 9.6261,5.3215 L 9.6261,5.7133 L 9.1903,5.7133 Z" stroke="#161616" stroke-width="0.1195" stroke-linecap="round" stroke-linejoin="round" fill="#1E82B5"/>
        <path d="M 9.8183,5.2456 L 9.7030,5.2456 L 9.7030,5.3088 L 9.8183,5.3088 L 9.8183,5.2456 Z" stroke="#000000" stroke-width="0.1195" stroke-linecap="round" stroke-linejoin="round" fill="#D6D6B1"/>
        <path d="M 10.1131,5.2456 L 9.9978,5.2456 L 9.9978,5.3088 L 10.1131,5.3088 L 10.1131,5.2456 Z" stroke="#000000" stroke-width="0.1195" stroke-linecap="round" stroke-linejoin="round" fill="#D6D6B1"/>
        <path d="M 10.4207,5.2456 L 10.3054,5.2456 L 10.3054,5.3088 L 10.4207,5.3088 L 10.4207,5.2456 Z" stroke="#000000" stroke-width="0.1195" stroke-linecap="round" stroke-linejoin="round" fill="#D6D6B1"/>
        <path d="M 10.7284,5.2456 L 10.6130,5.2456 L 10.6130,5.3088 L 10.7284,5.3088 L 10.7284,5.2456 Z" stroke="#000000" stroke-width="0.1195" stroke-linecap="round" stroke-linejoin="round" fill="#D6D6B1"/>
        <path d="M 11.0360,5.2456 L 10.9206,5.2456 L 10.9206,5.3088 L 11.0360,5.3088 L 11.0360,5.2456 Z" stroke="#000000" stroke-width="0.1195" stroke-linecap="round" stroke-linejoin="round" fill="#D6D6B1"/>
        <path d="M 11.3436,5.2456 L 11.2283,5.2456 L 11.2283,5.3088 L 11.3436,5.3088 L 11.3436,5.2456 Z" stroke="#000000" stroke-width="0.1195" stroke-linecap="round" stroke-linejoin="round" fill="#D6D6B1"/>
        <path d="M 11.6512,5.2456 L 11.5359,5.2456 L 11.5359,5.3088 L 11.6512,5.3088 L 11.6512,5.2456 Z" stroke="#000000" stroke-width="0.1195" stroke-linecap="round" stroke-linejoin="round" fill="#D6D6B1"/>
        <path d="M 11.9717,5.2456 L 11.8563,5.2456 L 11.8563,5.3088 L 11.9717,5.3088 L 11.9717,5.2456 Z" stroke="#000000" stroke-width="0.1195" stroke-linecap="round" stroke-linejoin="round" fill="#D6D6B1"/>
        <path d="M 13.9681,6.1032 L 13.9681,6.1172 L 13.9681,6.1311 L 13.9681,6.1451 L 13.9818,6.1451 L 13.9818,6.1591 L 13.9818,6.1730 L 13.9954,6.1870 L 13.9954,6.2010 L 14.0091,6.2010 L 14.0091,6.2149 L 14.0228,6.2149 L 14.0228,6.2289 L 14.0365,6.2289 L 14.0502,6.2429 L 14.0638,6.2429 L 14.0775,6.2429 L 14.0775,6.2568 L 14.0912,6.2568 L 14.1049,6.2568 L 14.1186,6.2568 L 14.1323,6.2568 L 14.1459,6.2568 L 14.1733,6.2568 L 14.2007,6.2568 L 14.2280,6.2568 L 14.2691,6.2568 L 14.3101,6.2568 L 14.3648,6.2568 L 14.4059,6.2568 L 14.4606,6.2568 L 14.5153,6.2568 L 14.5700,6.2568 L 14.6248,6.2568 L 14.6932,6.2568 L 14.7479,6.2568 L 14.8026,6.2568 L 14.8710,6.2568 L 14.9257,6.2568 L 14.9805,6.2568 L 15.0352,6.2568 L 15.0899,6.2568 L 15.1309,6.2568 L 15.1857,6.2568 L 15.2267,6.2568 L 15.2678,6.2568 L 15.2951,6.2568 L 15.3225,6.2568 L 15.3498,6.2568 L 15.3635,6.2568 L 15.3772,6.2568 L 15.3909,6.2568 L 15.4046,6.2568 L 15.4182,6.2568 L 15.4182,6.2429 L 15.4319,6.2429 L 15.4456,6.2429 L 15.4593,6.2289 L 15.4730,6.2289 L 15.4730,6.2149 L 15.4866,6.2149 L 15.4866,6.2010 L 15.5003,6.2010 L 15.5003,6.1870 L 15.5140,6.1730 L 15.5140,6.1591 L 15.5140,6.1451 L 15.5277,6.1451 L 15.5277,6.1311 L 15.5277,6.1172 L 15.5277,6.1032 L 15.5277,6.0892 L 15.5277,6.0613 L 15.5277,6.0194 L 15.5277,5.9635 L 15.5277,5.8797 L 15.5277,5.7820 L 15.5277,5.6842 L 15.5277,5.5725 L 15.5277,5.4468 L 15.5277,5.3071 L 15.5277,5.1675 L 15.5277,5.0278 L 15.5277,4.8742 L 15.5277,4.7206 L 15.5277,4.5530 L 15.5277,4.3993 L 15.5277,4.2457 L 15.5277,4.0781 L 15.5277,3.9245 L 15.5277,3.7709 L 15.5277,3.6312 L 15.5277,3.4915 L 15.5277,3.3519 L 15.5277,3.2262 L 15.5277,3.1144 L 15.5277,3.0167 L 15.5277,2.9189 L 15.5277,2.8351 L 15.5277,2.7793 L 15.5277,2.7374 L 15.5277,2.7094 L 15.5277,2.6955 L 15.5277,2.6815 L 15.5277,2.6675 L 15.5277,2.6536 L 15.5140,2.6536 L 15.5140,2.6396 L 15.5140,2.6256 L 15.5003,2.6117 L 15.5003,2.5977 L 15.4866,2.5977 L 15.4866,2.5837 L 15.4730,2.5837 L 15.4730,2.5698 L 15.4593,2.5698 L 15.4456,2.5558 L 15.4319,2.5558 L 15.4182,2.5558 L 15.4182,2.5418 L 15.4046,2.5418 L 15.3909,2.5418 L 15.3772,2.5418 L 15.3635,2.5418 L 15.3498,2.5418 L 15.3225,2.5418 L 15.2951,2.5418 L 15.2678,2.5418 L 15.2267,2.5418 L 15.1857,2.5418 L 15.1309,2.5418 L 15.0899,2.5418 L 15.0352,2.5418 L 14.9805,2.5418 L 14.9257,2.5418 L 14.8710,2.5418 L 14.8026,2.5418 L 14.7479,2.5418 L 14.6932,2.5418 L 14.6248,2.5418 L 14.5700,2.5418 L 14.5153,2.5418 L 14.4606,2.5418 L 14.4059,2.5418 L 14.3648,2.5418 L 14.3101,2.5418 L 14.2691,2.5418 L 14.2280,2.5418 L 14.2007,2.5418 L 14.1733,2.5418 L 14.1459,2.5418 L 14.1323,2.5418 L 14.1186,2.5418 L 14.1049,2.5418 L 14.0912,2.5418 L 14.0775,2.5418 L 14.0775,2.5558 L 14.0638,2.5558 L 14.0502,2.5558 L 14.0365,2.5698 L 14.0228,2.5698 L 14.0228,2.5837 L 14.0091,2.5837 L 14.0091,2.5977 L 13.9954,2.5977 L 13.9954,2.6117 L 13.9818,2.6256 L 13.9818,2.6396 L 13.9818,2.6536 L 13.9681,2.6536 L 13.9681,2.6675 L 13.9681,2.6815 L 13.9681,2.6955 L 13.9681,2.7094 L 13.9681,2.7374 L 13.9681,2.7793 L 13.9681,2.8351 L 13.9681,2.9189 L 13.9681,3.0167 L 13.9681,3.1144 L 13.9681,3.2262 L 13.9681,3.3519 L 13.9681,3.4915 L 13.9681,3.6312 L 13.9681,3.7709 L 13.9681,3.9245 L 13.9681,4.0781 L 13.9681,4.2457 L 13.9681,4.3993 L 13.9681,4.5530 L 13.9681,4.7206 L 13.9681,4.8742 L 13.9681,5.0278 L 13.9681,5.1675 L 13.9681,5.3071 L 13.9681,5.4468 L 13.9681,5.5725 L 13.9681,5.6842 L 13.9681,5.7820 L 13.9681,5.8797 L 13.9681,5.9635 L 13.9681,6.0194 L 13.9681,6.0613 L 13.9681,6.0892 L 13.9681,6.1032 Z" stroke="#7F7F7F" stroke-width="0.1195" stroke-linecap="round" stroke-linejoin="round" fill="#BFBFBF"/>
        <path d="M 14.0912,6.0473 L 14.0912,6.0613 L 14.0912,6.0753 L 14.0912,6.0892 L 14.1049,6.0892 L 14.1049,6.1032 L 14.1186,6.1172 L 14.1323,6.1172 L 14.1323,6.1311 L 14.1459,6.1311 L 14.1596,6.1311 L 14.1733,6.1311 L 14.1870,6.1311 L 14.2007,6.1311 L 14.2280,6.1311 L 14.2554,6.1311 L 14.2827,6.1311 L 14.3101,6.1311 L 14.3511,6.1311 L 14.3922,6.1311 L 14.4469,6.1311 L 14.4880,6.1311 L 14.5427,6.1311 L 14.5974,6.1311 L 14.6521,6.1311 L 14.7068,6.1311 L 14.7616,6.1311 L 14.8026,6.1311 L 14.8573,6.1311 L 14.9121,6.1311 L 14.9668,6.1311 L 15.0215,6.1311 L 15.0625,6.1311 L 15.1173,6.1311 L 15.1583,6.1311 L 15.1994,6.1311 L 15.2267,6.1311 L 15.2541,6.1311 L 15.2814,6.1311 L 15.3088,6.1311 L 15.3225,6.1311 L 15.3362,6.1311 L 15.3498,6.1311 L 15.3635,6.1311 L 15.3772,6.1172 L 15.3909,6.1172 L 15.3909,6.1032 L 15.4046,6.1032 L 15.4046,6.0892 L 15.4182,6.0753 L 15.4182,6.0613 L 15.4182,6.0473 L 15.4182,6.0334 L 15.4182,6.0054 L 15.4182,5.9635 L 15.4182,5.9077 L 15.4182,5.8239 L 15.4182,5.7401 L 15.4182,5.6423 L 15.4182,5.5306 L 15.4182,5.4049 L 15.4182,5.2792 L 15.4182,5.1395 L 15.4182,4.9999 L 15.4182,4.8462 L 15.4182,4.7066 L 15.4182,4.5530 L 15.4182,4.3993 L 15.4182,4.2317 L 15.4182,4.0781 L 15.4182,3.9385 L 15.4182,3.7848 L 15.4182,3.6452 L 15.4182,3.5055 L 15.4182,3.3798 L 15.4182,3.2541 L 15.4182,3.1424 L 15.4182,3.0446 L 15.4182,2.9608 L 15.4182,2.8770 L 15.4182,2.8212 L 15.4182,2.7793 L 15.4182,2.7513 L 15.4182,2.7374 L 15.4182,2.7234 L 15.4182,2.7094 L 15.4046,2.7094 L 15.4046,2.6955 L 15.3909,2.6955 L 15.3909,2.6815 L 15.3772,2.6815 L 15.3635,2.6675 L 15.3498,2.6675 L 15.3362,2.6675 L 15.3225,2.6675 L 15.3088,2.6675 L 15.2814,2.6675 L 15.2541,2.6675 L 15.2267,2.6675 L 15.1994,2.6675 L 15.1583,2.6675 L 15.1173,2.6675 L 15.0625,2.6675 L 15.0215,2.6675 L 14.9668,2.6675 L 14.9121,2.6675 L 14.8573,2.6675 L 14.8026,2.6675 L 14.7616,2.6675 L 14.7068,2.6675 L 14.6521,2.6675 L 14.5974,2.6675 L 14.5427,2.6675 L 14.4880,2.6675 L 14.4469,2.6675 L 14.3922,2.6675 L 14.3511,2.6675 L 14.3101,2.6675 L 14.2827,2.6675 L 14.2554,2.6675 L 14.2280,2.6675 L 14.2007,2.6675 L 14.1870,2.6675 L 14.1733,2.6675 L 14.1596,2.6675 L 14.1459,2.6675 L 14.1323,2.6675 L 14.1323,2.6815 L 14.1186,2.6815 L 14.1049,2.6955 L 14.1049,2.7094 L 14.0912,2.7094 L 14.0912,2.7234 L 14.0912,2.7374 L 14.0912,2.7513 L 14.0912,2.7793 L 14.0912,2.8212 L 14.0912,2.8770 L 14.0912,2.9608 L 14.0912,3.0446 L 14.0912,3.1424 L 14.0912,3.2541 L 14.0912,3.3798 L 14.0912,3.5055 L 14.0912,3.6452 L 14.0912,3.7848 L 14.0912,3.9385 L 14.0912,4.0781 L 14.0912,4.2317 L 14.0912,4.3993 L 14.0912,4.5530 L 14.0912,4.7066 L 14.0912,4.8462 L 14.0912,4.9999 L 14.0912,5.1395 L 14.0912,5.2792 L 14.0912,5.4049 L 14.0912,5.5306 L 14.0912,5.6423 L 14.0912,5.7401 L 14.0912,5.8239 L 14.0912,5.9077 L 14.0912,5.9635 L 14.0912,6.0054 L 14.0912,6.0334 L 14.0912,6.0473 Z" stroke="#BFBFBF" stroke-width="0.1195" stroke-linecap="round" stroke-linejoin="round" fill="#7F7F7F"/>
        <path d="M 14.8300,5.3071 L 14.8300,5.6144 L 14.7616,5.6144 L 14.7616,5.3071 L 14.8300,5.3071 Z" stroke="#BFBFBF" stroke-width="0.1195" stroke-linecap="round" stroke-linejoin="round" fill="#BFBFBF"/>
        <path d="M 14.8300,4.6088 L 14.8300,4.9161 L 14.7616,4.9161 L 14.7616,4.6088 L 14.8300,4.6088 Z" stroke="#BFBFBF" stroke-width="0.1195" stroke-linecap="round" stroke-linejoin="round" fill="#BFBFBF"/>
        <path d="M 14.8300,3.9245 L 14.8300,4.2317 L 14.7616,4.2317 L 14.7616,3.9245 L 14.8300,3.9245 Z" stroke="#BFBFBF" stroke-width="0.1195" stroke-linecap="round" stroke-linejoin="round" fill="#BFBFBF"/>
        <path d="M 14.8300,3.2122 L 14.8300,3.5195 L 14.7616,3.5195 L 14.7616,3.2122 L 14.8300,3.2122 Z" stroke="#BFBFBF" stroke-width="0.1195" stroke-linecap="round" stroke-linejoin="round" fill="#BFBFBF"/>
        <path d="M 14.4059,2.8770 L 14.3785,2.8770 L 14.3511,2.8910 L 14.3375,2.9189 L 14.3375,2.9469 L 14.3375,5.8518 L 14.3375,5.8797 L 14.3511,5.9077 L 14.3785,5.9216 L 14.4059,5.9216 L 14.6932,5.9216 L 14.7205,5.9216 L 14.7479,5.9077 L 14.7616,5.8797 L 14.7616,5.8518 L 14.7616,2.9469 L 14.7616,2.9189 L 14.7479,2.8910 L 14.7205,2.8770 L 14.6932,2.8770 L 14.4059,2.8770 Z" stroke="#BFBFBF" stroke-width="0.1195" stroke-linecap="round" stroke-linejoin="round" fill="#BFBFBF"/>
        <path d="M 14.5427,2.9888 L 14.4880,3.0027 L 14.4606,3.0307 L 14.4332,3.0586 L 14.4195,3.1144 L 14.4195,5.6842 L 14.4332,5.7401 L 14.4606,5.7680 L 14.4880,5.7959 L 14.5427,5.8099 L 14.5974,5.7959 L 14.6248,5.7680 L 14.6521,5.7401 L 14.6658,5.6842 L 14.6658,3.1144 L 14.6521,3.0586 L 14.6248,3.0307 L 14.5974,3.0027 L 14.5427,2.9888 Z" stroke="#BFBFBF" stroke-width="0.1195" stroke-linecap="round" stroke-linejoin="round" fill="#BFBFBF"/>
        <path d="M 14.2143,6.1311 L 14.2143,6.1451 L 14.2143,6.1591 L 14.2143,6.1730 L 14.2143,6.1870 L 14.2143,6.2010 L 14.2143,6.2149 L 14.2143,6.2289 L 14.2143,6.2429 L 14.2143,6.2568 L 14.2143,6.2708 L 14.2143,6.2848 L 14.2280,6.2848 L 14.2280,6.2987 L 14.2417,6.2987 L 14.2417,6.3127 L 14.2554,6.3127 L 14.2691,6.3267 L 14.2827,6.3267 L 14.2964,6.3267 L 14.3101,6.3267 L 14.3238,6.3267 L 14.3375,6.3267 L 14.3511,6.3267 L 14.3785,6.3267 L 14.4059,6.3267 L 14.4332,6.3267 L 14.4743,6.3267 L 14.5016,6.3267 L 14.5427,6.3267 L 14.5837,6.3267 L 14.6248,6.3267 L 14.6658,6.3267 L 14.7068,6.3267 L 14.7479,6.3267 L 14.7889,6.3267 L 14.8300,6.3267 L 14.8710,6.3267 L 14.9121,6.3267 L 14.9531,6.3267 L 14.9941,6.3267 L 15.0215,6.3267 L 15.0625,6.3267 L 15.0899,6.3267 L 15.1173,6.3267 L 15.1446,6.3267 L 15.1583,6.3267 L 15.1720,6.3267 L 15.1857,6.3267 L 15.1994,6.3267 L 15.2130,6.3267 L 15.2267,6.3267 L 15.2404,6.3127 L 15.2541,6.3127 L 15.2541,6.2987 L 15.2678,6.2987 L 15.2678,6.2848 L 15.2814,6.2848 L 15.2814,6.2708 L 15.2814,6.2568 L 15.2814,6.2429 L 15.2814,6.2289 L 15.2814,6.2149 L 15.2814,6.2010 L 15.2814,6.1870 L 15.2814,6.1730 L 15.2814,6.1591 L 15.2814,6.1451 L 15.2814,6.1311 L 15.2678,6.1311 L 15.2541,6.1311 L 15.2404,6.1311 L 15.2130,6.1311 L 15.1857,6.1311 L 15.1446,6.1311 L 15.1173,6.1311 L 15.0762,6.1311 L 15.0352,6.1311 L 14.9941,6.1311 L 14.9394,6.1311 L 14.8984,6.1311 L 14.8437,6.1311 L 14.8026,6.1311 L 14.7479,6.1311 L 14.6932,6.1311 L 14.6521,6.1311 L 14.5974,6.1311 L 14.5564,6.1311 L 14.5016,6.1311 L 14.4606,6.1311 L 14.4195,6.1311 L 14.3785,6.1311 L 14.3511,6.1311 L 14.3101,6.1311 L 14.2827,6.1311 L 14.2554,6.1311 L 14.2417,6.1311 L 14.2280,6.1311 L 14.2143,6.1311 Z" stroke="#7F7F7F" stroke-width="0.1195" stroke-linecap="round" stroke-linejoin="round" fill="#EAEAEA"/>
        <path d="M 14.2143,2.6675 L 14.2143,2.6536 L 14.2143,2.6396 L 14.2143,2.6256 L 14.2143,2.6117 L 14.2143,2.5977 L 14.2143,2.5837 L 14.2143,2.5698 L 14.2143,2.5558 L 14.2143,2.5418 L 14.2143,2.5279 L 14.2143,2.5139 L 14.2280,2.5139 L 14.2280,2.4999 L 14.2417,2.4999 L 14.2417,2.4860 L 14.2554,2.4860 L 14.2691,2.4720 L 14.2827,2.4720 L 14.2964,2.4720 L 14.3101,2.4720 L 14.3238,2.4720 L 14.3375,2.4720 L 14.3511,2.4720 L 14.3785,2.4720 L 14.4059,2.4720 L 14.4332,2.4720 L 14.4743,2.4720 L 14.5016,2.4720 L 14.5427,2.4720 L 14.5837,2.4720 L 14.6248,2.4720 L 14.6658,2.4720 L 14.7068,2.4720 L 14.7479,2.4720 L 14.7889,2.4720 L 14.8300,2.4720 L 14.8710,2.4720 L 14.9121,2.4720 L 14.9531,2.4720 L 14.9941,2.4720 L 15.0215,2.4720 L 15.0625,2.4720 L 15.0899,2.4720 L 15.1173,2.4720 L 15.1446,2.4720 L 15.1583,2.4720 L 15.1720,2.4720 L 15.1857,2.4720 L 15.1994,2.4720 L 15.2130,2.4720 L 15.2267,2.4720 L 15.2404,2.4860 L 15.2541,2.4860 L 15.2541,2.4999 L 15.2678,2.4999 L 15.2678,2.5139 L 15.2814,2.5139 L 15.2814,2.5279 L 15.2814,2.5418 L 15.2814,2.5558 L 15.2814,2.5698 L 15.2814,2.5837 L 15.2814,2.5977 L 15.2814,2.6117 L 15.2814,2.6256 L 15.2814,2.6396 L 15.2814,2.6536 L 15.2814,2.6675 L 15.2678,2.6675 L 15.2541,2.6675 L 15.2404,2.6675 L 15.2130,2.6675 L 15.1857,2.6675 L 15.1446,2.6675 L 15.1173,2.6675 L 15.0762,2.6675 L 15.0352,2.6675 L 14.9941,2.6675 L 14.9394,2.6675 L 14.8984,2.6675 L 14.8437,2.6675 L 14.8026,2.6675 L 14.7479,2.6675 L 14.6932,2.6675 L 14.6521,2.6675 L 14.5974,2.6675 L 14.5564,2.6675 L 14.5016,2.6675 L 14.4606,2.6675 L 14.4195,2.6675 L 14.3785,2.6675 L 14.3511,2.6675 L 14.3101,2.6675 L 14.2827,2.6675 L 14.2554,2.6675 L 14.2417,2.6675 L 14.2280,2.6675 L 14.2143,2.6675 Z" stroke="#7F7F7F" stroke-width="0.1195" stroke-linecap="round" stroke-linejoin="round" fill="#EAEAEA"/>
        <path d="M 14.0912,5.9356 L 14.0775,5.9356 L 14.0638,5.9356 L 14.0502,5.9356 L 14.0365,5.9356 L 14.0228,5.9356 L 14.0091,5.9356 L 13.9954,5.9356 L 13.9818,5.9356 L 13.9681,5.9356 L 13.9544,5.9356 L 13.9407,5.9356 L 13.9407,5.9216 L 13.9270,5.9216 L 13.9134,5.9216 L 13.9134,5.9077 L 13.9134,5.8937 L 13.8997,5.8937 L 13.8997,5.8797 L 13.8997,5.8658 L 13.8997,5.8518 L 13.8997,5.8378 L 13.8997,5.8239 L 13.8997,5.7820 L 13.8997,5.7261 L 13.8997,5.6563 L 13.8997,5.5865 L 13.8997,5.5027 L 13.8997,5.4049 L 13.8997,5.2932 L 13.8997,5.1814 L 13.8997,5.0697 L 13.8997,4.9440 L 13.8997,4.8183 L 13.8997,4.6787 L 13.8997,4.5530 L 13.8997,4.4133 L 13.8997,4.2736 L 13.8997,4.1479 L 13.8997,4.0083 L 13.8997,3.8826 L 13.8997,3.7569 L 13.8997,3.6452 L 13.8997,3.5334 L 13.8997,3.4217 L 13.8997,3.3239 L 13.8997,3.2401 L 13.8997,3.1703 L 13.8997,3.1005 L 13.8997,3.0446 L 13.8997,3.0027 L 13.8997,2.9888 L 13.8997,2.9748 L 13.8997,2.9608 L 13.8997,2.9469 L 13.8997,2.9329 L 13.9134,2.9329 L 13.9134,2.9189 L 13.9270,2.9050 L 13.9407,2.9050 L 13.9407,2.8910 L 13.9544,2.8910 L 13.9681,2.8910 L 13.9818,2.8910 L 13.9954,2.8910 L 14.0091,2.8910 L 14.0228,2.8910 L 14.0365,2.8910 L 14.0502,2.8910 L 14.0638,2.8910 L 14.0775,2.8910 L 14.0912,2.8910 L 14.0912,2.9050 L 14.0912,2.9189 L 14.0912,2.9608 L 14.0912,3.0167 L 14.0912,3.0865 L 14.0912,3.1703 L 14.0912,3.2681 L 14.0912,3.3658 L 14.0912,3.4776 L 14.0912,3.6033 L 14.0912,3.7290 L 14.0912,3.8547 L 14.0912,3.9943 L 14.0912,4.1340 L 14.0912,4.2736 L 14.0912,4.4133 L 14.0912,4.5530 L 14.0912,4.6926 L 14.0912,4.8323 L 14.0912,4.9719 L 14.0912,5.0976 L 14.0912,5.2233 L 14.0912,5.3490 L 14.0912,5.4608 L 14.0912,5.5585 L 14.0912,5.6563 L 14.0912,5.7401 L 14.0912,5.8099 L 14.0912,5.8658 L 14.0912,5.9077 L 14.0912,5.9216 L 14.0912,5.9356 Z" stroke="#7F7F7F" stroke-width="0.1195" stroke-linecap="round" stroke-linejoin="round" fill="#EAEAEA"/>
        <path d="M 15.4182,5.9356 L 15.4319,5.9356 L 15.4456,5.9356 L 15.4593,5.9356 L 15.4730,5.9356 L 15.4866,5.9356 L 15.5003,5.9356 L 15.5140,5.9356 L 15.5277,5.9356 L 15.5414,5.9356 L 15.5551,5.9356 L 15.5687,5.9356 L 15.5687,5.9216 L 15.5824,5.9216 L 15.5961,5.9216 L 15.5961,5.9077 L 15.5961,5.8937 L 15.6098,5.8937 L 15.6098,5.8797 L 15.6098,5.8658 L 15.6098,5.8518 L 15.6098,5.8378 L 15.6098,5.8239 L 15.6098,5.7820 L 15.6098,5.7261 L 15.6098,5.6563 L 15.6098,5.5865 L 15.6098,5.5027 L 15.6098,5.4049 L 15.6098,5.2932 L 15.6098,5.1814 L 15.6098,5.0697 L 15.6098,4.9440 L 15.6098,4.8183 L 15.6098,4.6787 L 15.6098,4.5530 L 15.6098,4.4133 L 15.6098,4.2736 L 15.6098,4.1479 L 15.6098,4.0083 L 15.6098,3.8826 L 15.6098,3.7569 L 15.6098,3.6452 L 15.6098,3.5334 L 15.6098,3.4217 L 15.6098,3.3239 L 15.6098,3.2401 L 15.6098,3.1703 L 15.6098,3.1005 L 15.6098,3.0446 L 15.6098,3.0027 L 15.6098,2.9888 L 15.6098,2.9748 L 15.6098,2.9608 L 15.6098,2.9469 L 15.6098,2.9329 L 15.5961,2.9329 L 15.5961,2.9189 L 15.5824,2.9050 L 15.5687,2.9050 L 15.5687,2.8910 L 15.5551,2.8910 L 15.5414,2.8910 L 15.5277,2.8910 L 15.5140,2.8910 L 15.5003,2.8910 L 15.4866,2.8910 L 15.4730,2.8910 L 15.4593,2.8910 L 15.4456,2.8910 L 15.4319,2.8910 L 15.4182,2.8910 L 15.4182,2.9050 L 15.4182,2.9189 L 15.4182,2.9608 L 15.4182,3.0167 L 15.4182,3.0865 L 15.4182,3.1703 L 15.4182,3.2681 L 15.4182,3.3658 L 15.4182,3.4776 L 15.4182,3.6033 L 15.4182,3.7290 L 15.4182,3.8547 L 15.4182,3.9943 L 15.4182,4.1340 L 15.4182,4.2736 L 15.4182,4.4133 L 15.4182,4.5530 L 15.4182,4.6926 L 15.4182,4.8323 L 15.4182,4.9719 L 15.4182,5.0976 L 15.4182,5.2233 L 15.4182,5.3490 L 15.4182,5.4608 L 15.4182,5.5585 L 15.4182,5.6563 L 15.4182,5.7401 L 15.4182,5.8099 L 15.4182,5.8658 L 15.4182,5.9077 L 15.4182,5.9216 L 15.4182,5.9356 Z" stroke="#7F7F7F" stroke-width="0.1195" stroke-linecap="round" stroke-linejoin="round" fill="#EAEAEA"/>
        <path d="M 16.9840,5.7133 L 16.9840,4.7021 L 16.8172,4.7021 L 16.8172,4.0195 L 16.9840,4.0195 L 16.9840,3.4381 L 17.8049,3.4381 L 17.8049,3.1347 L 18.1385,3.1347 L 18.1385,2.8693 L 19.1134,2.8693 L 19.1134,3.1347 L 19.4469,3.1347 L 19.4469,3.4381 L 20.2679,3.4381 L 20.2679,4.0195 L 20.4346,4.0195 L 20.4346,4.7021 L 20.2679,4.7021 L 20.2679,5.7133 L 19.8317,5.7133 L 19.8317,5.3215 L 17.4201,5.3215 L 17.4201,5.7133 L 16.9840,5.7133 Z" stroke="#161616" stroke-width="0.1195" stroke-linecap="round" stroke-linejoin="round" fill="#7F7F7F"/>
        <path d="M 17.6125,5.2456 L 17.4971,5.2456 L 17.4971,5.3088 L 17.6125,5.3088 L 17.6125,5.2456 Z" stroke="#000000" stroke-width="0.1195" stroke-linecap="round" stroke-linejoin="round" fill="#D6D6B1"/>
        <path d="M 17.9076,5.2456 L 17.7921,5.2456 L 17.7921,5.3088 L 17.9076,5.3088 L 17.9076,5.2456 Z" stroke="#000000" stroke-width="0.1195" stroke-linecap="round" stroke-linejoin="round" fill="#D6D6B1"/>
        <path d="M 18.2154,5.2456 L 18.1000,5.2456 L 18.1000,5.3088 L 18.2154,5.3088 L 18.2154,5.2456 Z" stroke="#000000" stroke-width="0.1195" stroke-linecap="round" stroke-linejoin="round" fill="#D6D6B1"/>
        <path d="M 18.5233,5.2456 L 18.4078,5.2456 L 18.4078,5.3088 L 18.5233,5.3088 L 18.5233,5.2456 Z" stroke="#000000" stroke-width="0.1195" stroke-linecap="round" stroke-linejoin="round" fill="#D6D6B1"/>
        <path d="M 18.8312,5.2456 L 18.7157,5.2456 L 18.7157,5.3088 L 18.8312,5.3088 L 18.8312,5.2456 Z" stroke="#000000" stroke-width="0.1195" stroke-linecap="round" stroke-linejoin="round" fill="#D6D6B1"/>
        <path d="M 19.1390,5.2456 L 19.0236,5.2456 L 19.0236,5.3088 L 19.1390,5.3088 L 19.1390,5.2456 Z" stroke="#000000" stroke-width="0.1195" stroke-linecap="round" stroke-linejoin="round" fill="#D6D6B1"/>
        <path d="M 19.4469,5.2456 L 19.3314,5.2456 L 19.3314,5.3088 L 19.4469,5.3088 L 19.4469,5.2456 Z" stroke="#000000" stroke-width="0.1195" stroke-linecap="round" stroke-linejoin="round" fill="#D6D6B1"/>
        <path d="M 19.7676,5.2456 L 19.6521,5.2456 L 19.6521,5.3088 L 19.7676,5.3088 L 19.7676,5.2456 Z" stroke="#000000" stroke-width="0.1195" stroke-linecap="round" stroke-linejoin="round" fill="#D6D6B1"/>
        <path d="M 20.7938,5.7133 L 20.7938,4.7021 L 20.6270,4.7021 L 20.6270,4.0195 L 20.7938,4.0195 L 20.7938,3.4381 L 21.6148,3.4381 L 21.6148,3.1347 L 21.9483,3.1347 L 21.9483,2.8693 L 22.9232,2.8693 L 22.9232,3.1347 L 23.2567,3.1347 L 23.2567,3.4381 L 24.0777,3.4381 L 24.0777,4.0195 L 24.2445,4.0195 L 24.2445,4.7021 L 24.0777,4.7021 L 24.0777,5.7133 L 23.6416,5.7133 L 23.6416,5.3215 L 21.2299,5.3215 L 21.2299,5.7133 L 20.7938,5.7133 Z" stroke="#161616" stroke-width="0.1195" stroke-linecap="round" stroke-linejoin="round" fill="#7F7F7F"/>
        <path d="M 21.4224,5.2456 L 21.3069,5.2456 L 21.3069,5.3088 L 21.4224,5.3088 L 21.4224,5.2456 Z" stroke="#000000" stroke-width="0.1195" stroke-linecap="round" stroke-linejoin="round" fill="#D6D6B1"/>
        <path d="M 21.7174,5.2456 L 21.6019,5.2456 L 21.6019,5.3088 L 21.7174,5.3088 L 21.7174,5.2456 Z" stroke="#000000" stroke-width="0.1195" stroke-linecap="round" stroke-linejoin="round" fill="#D6D6B1"/>
        <path d="M 22.0253,5.2456 L 21.9098,5.2456 L 21.9098,5.3088 L 22.0253,5.3088 L 22.0253,5.2456 Z" stroke="#000000" stroke-width="0.1195" stroke-linecap="round" stroke-linejoin="round" fill="#D6D6B1"/>
        <path d="M 22.3331,5.2456 L 22.2177,5.2456 L 22.2177,5.3088 L 22.3331,5.3088 L 22.3331,5.2456 Z" stroke="#000000" stroke-width="0.1195" stroke-linecap="round" stroke-linejoin="round" fill="#D6D6B1"/>
        <path d="M 22.6410,5.2456 L 22.5255,5.2456 L 22.5255,5.3088 L 22.6410,5.3088 L 22.6410,5.2456 Z" stroke="#000000" stroke-width="0.1195" stroke-linecap="round" stroke-linejoin="round" fill="#D6D6B1"/>
        <path d="M 22.9489,5.2456 L 22.8334,5.2456 L 22.8334,5.3088 L 22.9489,5.3088 L 22.9489,5.2456 Z" stroke="#000000" stroke-width="0.1195" stroke-linecap="round" stroke-linejoin="round" fill="#D6D6B1"/>
        <path d="M 23.2567,5.2456 L 23.1413,5.2456 L 23.1413,5.3088 L 23.2567,5.3088 L 23.2567,5.2456 Z" stroke="#000000" stroke-width="0.1195" stroke-linecap="round" stroke-linejoin="round" fill="#D6D6B1"/>
        <path d="M 23.5774,5.2456 L 23.4620,5.2456 L 23.4620,5.3088 L 23.5774,5.3088 L 23.5774,5.2456 Z" stroke="#000000" stroke-width="0.1195" stroke-linecap="round" stroke-linejoin="round" fill="#D6D6B1"/>
        <path d="M 24.5523,5.7133 L 24.5523,4.7021 L 24.3856,4.7021 L 24.3856,4.0195 L 24.5523,4.0195 L 24.5523,3.4381 L 25.3733,3.4381 L 25.3733,3.1347 L 25.7068,3.1347 L 25.7068,2.8693 L 26.6817,2.8693 L 26.6817,3.1347 L 27.0153,3.1347 L 27.0153,3.4381 L 27.8362,3.4381 L 27.8362,4.0195 L 28.0030,4.0195 L 28.0030,4.7021 L 27.8362,4.7021 L 27.8362,5.7133 L 27.4001,5.7133 L 27.4001,5.3215 L 24.9885,5.3215 L 24.9885,5.7133 L 24.5523,5.7133 Z" stroke="#161616" stroke-width="0.1195" stroke-linecap="round" stroke-linejoin="round" fill="#7F7F7F"/>
        <path d="M 25.1809,5.2456 L 25.0654,5.2456 L 25.0654,5.3088 L 25.1809,5.3088 L 25.1809,5.2456 Z" stroke="#000000" stroke-width="0.1195" stroke-linecap="round" stroke-linejoin="round" fill="#D6D6B1"/>
        <path d="M 25.4759,5.2456 L 25.3605,5.2456 L 25.3605,5.3088 L 25.4759,5.3088 L 25.4759,5.2456 Z" stroke="#000000" stroke-width="0.1195" stroke-linecap="round" stroke-linejoin="round" fill="#D6D6B1"/>
        <path d="M 25.7838,5.2456 L 25.6683,5.2456 L 25.6683,5.3088 L 25.7838,5.3088 L 25.7838,5.2456 Z" stroke="#000000" stroke-width="0.1195" stroke-linecap="round" stroke-linejoin="round" fill="#D6D6B1"/>
        <path d="M 26.0917,5.2456 L 25.9762,5.2456 L 25.9762,5.3088 L 26.0917,5.3088 L 26.0917,5.2456 Z" stroke="#000000" stroke-width="0.1195" stroke-linecap="round" stroke-linejoin="round" fill="#D6D6B1"/>
        <path d="M 26.3995,5.2456 L 26.2841,5.2456 L 26.2841,5.3088 L 26.3995,5.3088 L 26.3995,5.2456 Z" stroke="#000000" stroke-width="0.1195" stroke-linecap="round" stroke-linejoin="round" fill="#D6D6B1"/>
        <path d="M 26.7074,5.2456 L 26.5919,5.2456 L 26.5919,5.3088 L 26.7074,5.3088 L 26.7074,5.2456 Z" stroke="#000000" stroke-width="0.1195" stroke-linecap="round" stroke-linejoin="round" fill="#D6D6B1"/>
        <path d="M 27.0153,5.2456 L 26.8998,5.2456 L 26.8998,5.3088 L 27.0153,5.3088 L 27.0153,5.2456 Z" stroke="#000000" stroke-width="0.1195" stroke-linecap="round" stroke-linejoin="round" fill="#D6D6B1"/>
        <path d="M 27.3360,5.2456 L 27.2205,5.2456 L 27.2205,5.3088 L 27.3360,5.3088 L 27.3360,5.2456 Z" stroke="#000000" stroke-width="0.1195" stroke-linecap="round" stroke-linejoin="round" fill="#D6D6B1"/>
        <path d="M 28.3622,5.7133 L 28.3622,4.7021 L 28.1954,4.7021 L 28.1954,4.0195 L 28.3622,4.0195 L 28.3622,3.4381 L 29.1832,3.4381 L 29.1832,3.1347 L 29.5167,3.1347 L 29.5167,2.8693 L 30.4916,2.8693 L 30.4916,3.1347 L 30.8251,3.1347 L 30.8251,3.4381 L 31.6461,3.4381 L 31.6461,4.0195 L 31.8128,4.0195 L 31.8128,4.7021 L 31.6461,4.7021 L 31.6461,5.7133 L 31.2099,5.7133 L 31.2099,5.3215 L 28.7983,5.3215 L 28.7983,5.7133 L 28.3622,5.7133 Z" stroke="#161616" stroke-width="0.1195" stroke-linecap="round" stroke-linejoin="round" fill="#7F7F7F"/>
        <path d="M 28.9907,5.2456 L 28.8753,5.2456 L 28.8753,5.3088 L 28.9907,5.3088 L 28.9907,5.2456 Z" stroke="#000000" stroke-width="0.1195" stroke-linecap="round" stroke-linejoin="round" fill="#D6D6B1"/>
        <path d="M 29.2858,5.2456 L 29.1703,5.2456 L 29.1703,5.3088 L 29.2858,5.3088 L 29.2858,5.2456 Z" stroke="#000000" stroke-width="0.1195" stroke-linecap="round" stroke-linejoin="round" fill="#D6D6B1"/>
        <path d="M 29.5936,5.2456 L 29.4782,5.2456 L 29.4782,5.3088 L 29.5936,5.3088 L 29.5936,5.2456 Z" stroke="#000000" stroke-width="0.1195" stroke-linecap="round" stroke-linejoin="round" fill="#D6D6B1"/>
        <path d="M 29.9015,5.2456 L 29.7861,5.2456 L 29.7861,5.3088 L 29.9015,5.3088 L 29.9015,5.2456 Z" stroke="#000000" stroke-width="0.1195" stroke-linecap="round" stroke-linejoin="round" fill="#D6D6B1"/>
        <path d="M 30.2094,5.2456 L 30.0939,5.2456 L 30.0939,5.3088 L 30.2094,5.3088 L 30.2094,5.2456 Z" stroke="#000000" stroke-width="0.1195" stroke-linecap="round" stroke-linejoin="round" fill="#D6D6B1"/>
        <path d="M 30.5172,5.2456 L 30.4018,5.2456 L 30.4018,5.3088 L 30.5172,5.3088 L 30.5172,5.2456 Z" stroke="#000000" stroke-width="0.1195" stroke-linecap="round" stroke-linejoin="round" fill="#D6D6B1"/>
        <path d="M 30.8251,5.2456 L 30.7097,5.2456 L 30.7097,5.3088 L 30.8251,5.3088 L 30.8251,5.2456 Z" stroke="#000000" stroke-width="0.1195" stroke-linecap="round" stroke-linejoin="round" fill="#D6D6B1"/>
        <path d="M 31.1458,5.2456 L 31.0304,5.2456 L 31.0304,5.3088 L 31.1458,5.3088 L 31.1458,5.2456 Z" stroke="#000000" stroke-width="0.1195" stroke-linecap="round" stroke-linejoin="round" fill="#D6D6B1"/>
        <path d="M 32.1079,5.7133 L 32.1079,4.7021 L 31.9411,4.7021 L 31.9411,4.0195 L 32.1079,4.0195 L 32.1079,3.4381 L 32.9289,3.4381 L 32.9289,3.1347 L 33.2624,3.1347 L 33.2624,2.8693 L 34.2373,2.8693 L 34.2373,3.1347 L 34.5708,3.1347 L 34.5708,3.4381 L 35.3918,3.4381 L 35.3918,4.0195 L 35.5586,4.0195 L 35.5586,4.7021 L 35.3918,4.7021 L 35.3918,5.7133 L 34.9556,5.7133 L 34.9556,5.3215 L 32.5440,5.3215 L 32.5440,5.7133 L 32.1079,5.7133 Z" stroke="#161616" stroke-width="0.1195" stroke-linecap="round" stroke-linejoin="round" fill="#7F7F7F"/>
        <path d="M 32.7364,5.2456 L 32.6210,5.2456 L 32.6210,5.3088 L 32.7364,5.3088 L 32.7364,5.2456 Z" stroke="#000000" stroke-width="0.1195" stroke-linecap="round" stroke-linejoin="round" fill="#D6D6B1"/>
        <path d="M 33.0315,5.2456 L 32.9160,5.2456 L 32.9160,5.3088 L 33.0315,5.3088 L 33.0315,5.2456 Z" stroke="#000000" stroke-width="0.1195" stroke-linecap="round" stroke-linejoin="round" fill="#D6D6B1"/>
        <path d="M 33.3393,5.2456 L 33.2239,5.2456 L 33.2239,5.3088 L 33.3393,5.3088 L 33.3393,5.2456 Z" stroke="#000000" stroke-width="0.1195" stroke-linecap="round" stroke-linejoin="round" fill="#D6D6B1"/>
        <path d="M 33.6472,5.2456 L 33.5318,5.2456 L 33.5318,5.3088 L 33.6472,5.3088 L 33.6472,5.2456 Z" stroke="#000000" stroke-width="0.1195" stroke-linecap="round" stroke-linejoin="round" fill="#D6D6B1"/>
        <path d="M 33.9551,5.2456 L 33.8396,5.2456 L 33.8396,5.3088 L 33.9551,5.3088 L 33.9551,5.2456 Z" stroke="#000000" stroke-width="0.1195" stroke-linecap="round" stroke-linejoin="round" fill="#D6D6B1"/>
        <path d="M 34.2629,5.2456 L 34.1475,5.2456 L 34.1475,5.3088 L 34.2629,5.3088 L 34.2629,5.2456 Z" stroke="#000000" stroke-width="0.1195" stroke-linecap="round" stroke-linejoin="round" fill="#D6D6B1"/>
        <path d="M 34.5708,5.2456 L 34.4554,5.2456 L 34.4554,5.3088 L 34.5708,5.3088 L 34.5708,5.2456 Z" stroke="#000000" stroke-width="0.1195" stroke-linecap="round" stroke-linejoin="round" fill="#D6D6B1"/>
        <path d="M 34.8915,5.2456 L 34.7761,5.2456 L 34.7761,5.3088 L 34.8915,5.3088 L 34.8915,5.2456 Z" stroke="#000000" stroke-width="0.1195" stroke-linecap="round" stroke-linejoin="round" fill="#D6D6B1"/>
        <ellipse cx="38.5723" cy="4.5061" rx="0.9668" ry="0.9631" fill="#000000" stroke="#000000" stroke-width="0.1195" stroke-linecap="round" stroke-linejoin="round"/>
        <ellipse cx="38.5723" cy="4.5061" rx="0.9668" ry="0.9631" fill="none" stroke="#000000" stroke-width="0.1195" stroke-linecap="round" stroke-linejoin="round"/>
        <ellipse cx="38.5653" cy="4.5061" rx="0.3573" ry="0.3585" fill="#DDDDDD" stroke="#000000" stroke-width="0.1195" stroke-linecap="round" stroke-linejoin="round"/>
        <ellipse cx="38.5653" cy="4.5061" rx="0.3573" ry="0.3585" fill="none" stroke="#000000" stroke-width="0.1195" stroke-linecap="round" stroke-linejoin="round"/>
        <ellipse cx="38.5653" cy="4.5061" rx="0.2452" ry="0.2460" fill="#000000" stroke="#000000" stroke-width="0.1195" stroke-linecap="round" stroke-linejoin="round"/>
        <ellipse cx="38.5653" cy="4.5061" rx="0.2452" ry="0.2460" fill="none" stroke="#000000" stroke-width="0.1195" stroke-linecap="round" stroke-linejoin="round"/>
        <ellipse cx="38.5653" cy="4.5061" rx="0.2172" ry="0.2179" fill="#DDDDDD" stroke="#000000" stroke-width="0.1195" stroke-linecap="round" stroke-linejoin="round"/>
        <ellipse cx="38.5653" cy="4.5061" rx="0.2172" ry="0.2179" fill="none" stroke="#000000" stroke-width="0.1195" stroke-linecap="round" stroke-linejoin="round"/>
        <path d="M 48.7366,4.0540 L 48.7366,5.7105 L 46.5198,5.7105 L 46.5198,4.0540 L 48.7366,4.0540 Z" stroke="#000000" stroke-width="0.1195" stroke-linecap="round" stroke-linejoin="round" fill="#D6D6B1"/>
        <path d="M 46.0417,3.8252 L 46.0417,3.8143 L 46.0417,3.7925 L 46.0417,3.7816 L 46.0417,3.7707 L 46.0417,3.7489 L 46.0417,3.7380 L 46.0417,3.7271 L 46.0417,3.7162 L 46.0308,3.6944 L 46.0308,3.6835 L 46.0308,3.6726 L 46.0308,3.6617 L 46.0308,3.6508 L 46.0308,3.6399 L 46.0199,3.6181 L 46.0199,3.6072 L 46.0199,3.5963 L 46.0199,3.5854 L 46.0199,3.5745 L 46.0091,3.5636 L 46.0091,3.5527 L 46.0091,3.5418 L 46.0091,3.5309 L 45.9982,3.5200 L 45.9982,3.5091 L 45.9982,3.4982 L 45.9873,3.4982 L 45.9873,3.4873 L 45.9765,3.4873 L 45.9656,3.4873 L 45.9547,3.4873 L 45.9439,3.4873 L 45.9330,3.4873 L 45.9113,3.4873 L 45.9004,3.4873 L 45.8895,3.4873 L 45.8678,3.4873 L 45.8569,3.4873 L 45.8352,3.4873 L 45.8243,3.4873 L 45.8026,3.4873 L 45.7809,3.4873 L 45.7700,3.4873 L 45.7483,3.4873 L 45.7374,3.4873 L 45.7157,3.4873 L 45.7048,3.4873 L 45.6939,3.4873 L 45.6722,3.4873 L 45.6613,3.4873 L 45.6505,3.4873 L 45.6396,3.4873 L 45.6287,3.4873 L 45.6179,3.4873 L 45.6179,3.4982 L 45.6070,3.4982 L 45.6070,3.5091 L 45.6070,3.5200 L 45.5961,3.5309 L 45.5961,3.5418 L 45.5961,3.5527 L 45.5961,3.5636 L 45.5853,3.5745 L 45.5853,3.5854 L 45.5853,3.5963 L 45.5853,3.6072 L 45.5853,3.6181 L 45.5744,3.6399 L 45.5744,3.6508 L 45.5744,3.6617 L 45.5744,3.6726 L 45.5744,3.6835 L 45.5744,3.6944 L 45.5744,3.7162 L 45.5635,3.7271 L 45.5635,3.7380 L 45.5635,3.7489 L 45.5635,3.7707 L 45.5635,3.7816 L 45.5635,3.7925 L 45.5635,3.8143 L 45.5635,3.8252 L 45.5635,3.8361 L 45.5635,3.8470 L 45.5635,3.8797 L 45.5635,3.9124 L 45.5635,3.9668 L 45.5635,4.0213 L 45.5635,4.0867 L 45.5635,4.1521 L 45.5635,4.2284 L 45.5635,4.3156 L 45.5635,4.4028 L 45.5635,4.4899 L 45.5635,4.5880 L 45.5635,4.6861 L 45.5635,4.7842 L 45.5635,4.8823 L 45.5635,4.9804 L 45.5635,5.0784 L 45.5635,5.1765 L 45.5635,5.2746 L 45.5635,5.3618 L 45.5635,5.4490 L 45.5635,5.5361 L 45.5635,5.6124 L 45.5635,5.6778 L 45.5635,5.7432 L 45.5635,5.7977 L 45.5635,5.8522 L 45.5635,5.8849 L 45.5635,5.9176 L 45.5635,5.9285 L 45.5635,5.9394 L 45.5635,5.9503 L 45.5635,5.9721 L 45.5635,5.9830 L 45.5635,5.9939 L 45.5635,6.0157 L 45.5635,6.0266 L 45.5635,6.0375 L 45.5744,6.0483 L 45.5744,6.0701 L 45.5744,6.0810 L 45.5744,6.0919 L 45.5744,6.1028 L 45.5744,6.1137 L 45.5744,6.1246 L 45.5853,6.1464 L 45.5853,6.1573 L 45.5853,6.1682 L 45.5853,6.1791 L 45.5853,6.1900 L 45.5961,6.2009 L 45.5961,6.2118 L 45.5961,6.2227 L 45.5961,6.2336 L 45.6070,6.2445 L 45.6070,6.2554 L 45.6070,6.2663 L 45.6179,6.2663 L 45.6179,6.2772 L 45.6287,6.2772 L 45.6396,6.2772 L 45.6505,6.2772 L 45.6613,6.2772 L 45.6722,6.2772 L 45.6939,6.2772 L 45.7048,6.2772 L 45.7157,6.2772 L 45.7374,6.2772 L 45.7483,6.2772 L 45.7700,6.2772 L 45.7809,6.2772 L 45.8026,6.2772 L 45.8243,6.2772 L 45.8352,6.2772 L 45.8569,6.2772 L 45.8678,6.2772 L 45.8895,6.2772 L 45.9004,6.2772 L 45.9113,6.2772 L 45.9330,6.2772 L 45.9439,6.2772 L 45.9547,6.2772 L 45.9656,6.2772 L 45.9765,6.2772 L 45.9873,6.2772 L 45.9873,6.2663 L 45.9982,6.2663 L 45.9982,6.2554 L 45.9982,6.2445 L 46.0091,6.2336 L 46.0091,6.2227 L 46.0091,6.2118 L 46.0091,6.2009 L 46.0199,6.1900 L 46.0199,6.1791 L 46.0199,6.1682 L 46.0199,6.1573 L 46.0199,6.1464 L 46.0308,6.1246 L 46.0308,6.1137 L 46.0308,6.1028 L 46.0308,6.0919 L 46.0308,6.0810 L 46.0308,6.0701 L 46.0417,6.0483 L 46.0417,6.0375 L 46.0417,6.0266 L 46.0417,6.0157 L 46.0417,5.9939 L 46.0417,5.9830 L 46.0417,5.9721 L 46.0417,5.9503 L 46.0417,5.9394 L 46.0417,5.9285 L 46.0417,5.9176 L 46.0417,5.8849 L 46.0417,5.8522 L 46.0417,5.7977 L 46.0417,5.7432 L 46.0417,5.6778 L 46.0417,5.6124 L 46.0417,5.5361 L 46.0417,5.4490 L 46.0417,5.3618 L 46.0417,5.2746 L 46.0417,5.1765 L 46.0417,5.0784 L 46.0417,4.9804 L 46.0417,4.8823 L 46.0417,4.7842 L 46.0417,4.6861 L 46.0417,4.5880 L 46.0417,4.4899 L 46.0417,4.4028 L 46.0417,4.3156 L 46.0417,4.2284 L 46.0417,4.1521 L 46.0417,4.0867 L 46.0417,4.0213 L 46.0417,3.9668 L 46.0417,3.9124 L 46.0417,3.8797 L 46.0417,3.8470 L 46.0417,3.8361 L 46.0417,3.8252 Z" stroke="#000000" stroke-width="0.1195" stroke-linecap="round" stroke-linejoin="round" fill="#BCBC7E"/>
        <path d="M 45.9873,6.2772 L 45.9873,6.2663 L 45.9982,6.2663 L 45.9982,6.2554 L 45.9982,6.2445 L 46.0091,6.2336 L 46.0091,6.2227 L 46.0091,6.2118 L 46.0091,6.2009 L 46.0199,6.1900 L 46.0199,6.1791 L 46.0199,6.1682 L 46.0199,6.1573 L 46.0199,6.1464 L 46.0308,6.1246 L 46.0308,6.1137 L 46.0308,6.1028 L 46.0308,6.0919 L 46.0308,6.0810 L 46.0308,6.0701 L 46.0417,6.0483 L 46.0417,6.0375 L 46.0417,6.0266 L 46.0417,6.0157 L 46.0417,5.9939 L 46.0417,5.9830 L 46.0417,5.9721 L 46.0417,5.9503 L 46.0417,5.9394 L 46.0417,5.9285 L 46.0417,5.9176 L 46.0308,5.9067 L 46.0308,5.8958 L 46.0308,5.8849 L 46.0308,5.8740 L 46.0308,5.8631 L 46.0308,5.8522 L 46.0308,5.8413 L 46.0308,5.8304 L 46.0199,5.8195 L 46.0199,5.8086 L 46.0199,5.7977 L 46.0199,5.7868 L 46.0199,5.7759 L 46.0199,5.7650 L 46.0199,5.7541 L 46.0199,5.7432 L 46.0199,5.7323 L 46.0091,5.7214 L 46.0091,5.7105 L 46.0091,5.6996 L 46.0091,5.6887 L 46.0091,5.6778 L 46.0091,5.6669 L 45.9982,5.6560 L 45.9982,5.6342 L 45.9982,5.6233 L 45.9982,5.6124 L 45.9982,5.6015 L 45.9873,5.5906 L 45.9873,5.5797 L 45.9873,5.5579 L 45.9982,5.5470 L 45.9982,5.5252 L 45.9982,5.5035 L 45.9982,5.4817 L 46.0091,5.4599 L 46.0091,5.4381 L 46.0091,5.4163 L 46.0091,5.3945 L 46.0091,5.3727 L 46.0199,5.3509 L 46.0199,5.3291 L 46.0199,5.3073 L 46.0199,5.2855 L 46.0199,5.2637 L 46.0308,5.2419 L 46.0308,5.2201 L 46.0308,5.1983 L 46.0308,5.1656 L 46.0308,5.1438 L 46.0308,5.1220 L 46.0308,5.1002 L 46.0417,5.0784 L 46.0417,5.0566 L 46.0417,5.0348 L 46.0417,5.0130 L 46.0417,4.9913 L 46.0417,4.9695 L 46.0417,4.9477 L 46.0417,4.9259 L 46.0417,4.9041 L 46.0417,4.8823 L 46.0417,4.8605 L 46.0417,4.8387 L 46.0417,4.8169 L 46.0417,4.7951 L 46.0417,4.7733 L 46.0417,4.7515 L 46.0417,4.7297 L 46.0417,4.7079 L 46.0417,4.6861 L 46.0308,4.6643 L 46.0308,4.6425 L 46.0308,4.6207 L 46.0308,4.5989 L 46.0308,4.5662 L 46.0308,4.5444 L 46.0308,4.5226 L 46.0199,4.5008 L 46.0199,4.4790 L 46.0199,4.4573 L 46.0199,4.4355 L 46.0199,4.4137 L 46.0091,4.3919 L 46.0091,4.3701 L 46.0091,4.3483 L 46.0091,4.3265 L 46.0091,4.3047 L 45.9982,4.2829 L 45.9982,4.2611 L 45.9982,4.2393 L 45.9982,4.2175 L 45.9873,4.2066 L 45.9873,4.1848 L 45.9873,4.1739 L 45.9982,4.1630 L 45.9982,4.1521 L 45.9982,4.1412 L 45.9982,4.1303 L 45.9982,4.1085 L 46.0091,4.0976 L 46.0091,4.0867 L 46.0091,4.0758 L 46.0091,4.0649 L 46.0091,4.0540 L 46.0091,4.0431 L 46.0199,4.0322 L 46.0199,4.0213 L 46.0199,4.0104 L 46.0199,3.9995 L 46.0199,3.9886 L 46.0199,3.9777 L 46.0199,3.9668 L 46.0199,3.9559 L 46.0199,3.9450 L 46.0308,3.9342 L 46.0308,3.9233 L 46.0308,3.9124 L 46.0308,3.9015 L 46.0308,3.8906 L 46.0308,3.8797 L 46.0308,3.8688 L 46.0308,3.8579 L 46.0417,3.8470 L 46.0417,3.8361 L 46.0417,3.8252 L 46.0417,3.8143 L 46.0417,3.7925 L 46.0417,3.7816 L 46.0417,3.7707 L 46.0417,3.7489 L 46.0417,3.7380 L 46.0417,3.7271 L 46.0417,3.7162 L 46.0308,3.6944 L 46.0308,3.6835 L 46.0308,3.6726 L 46.0308,3.6617 L 46.0308,3.6508 L 46.0308,3.6399 L 46.0199,3.6181 L 46.0199,3.6072 L 46.0199,3.5963 L 46.0199,3.5854 L 46.0199,3.5745 L 46.0091,3.5636 L 46.0091,3.5527 L 46.0091,3.5418 L 46.0091,3.5309 L 45.9982,3.5200 L 45.9982,3.5091 L 45.9982,3.4982 L 45.9873,3.4982 L 45.9873,3.4873 L 45.9765,3.4873 L 45.9656,3.4873 L 45.9547,3.4873 L 45.9439,3.4873 L 45.9330,3.4873 L 45.9113,3.4873 L 45.9004,3.4873 L 45.8895,3.4873 L 45.8678,3.4873 L 45.8569,3.4873 L 45.8352,3.4873 L 45.8243,3.4873 L 45.8026,3.4873 L 45.7809,3.4873 L 45.7700,3.4873 L 45.7483,3.4873 L 45.7374,3.4873 L 45.7157,3.4873 L 45.7048,3.4873 L 45.6939,3.4873 L 45.6722,3.4873 L 45.6613,3.4873 L 45.6505,3.4873 L 45.6396,3.4873 L 45.6287,3.4873 L 45.6179,3.4873 L 45.6179,3.4982 L 45.6070,3.4982 L 45.6070,3.5091 L 45.6070,3.5200 L 45.5961,3.5309 L 45.5961,3.5418 L 45.5961,3.5527 L 45.5961,3.5636 L 45.5853,3.5745 L 45.5853,3.5854 L 45.5853,3.5963 L 45.5853,3.6072 L 45.5853,3.6181 L 45.5744,3.6399 L 45.5744,3.6508 L 45.5744,3.6617 L 45.5744,3.6726 L 45.5744,3.6835 L 45.5744,3.6944 L 45.5744,3.7162 L 45.5635,3.7271 L 45.5635,3.7380 L 45.5635,3.7489 L 45.5635,3.7707 L 45.5635,3.7816 L 45.5635,3.7925 L 45.5635,3.8143 L 45.5635,3.8252 L 45.5635,3.8361 L 45.5635,3.8470 L 45.5744,3.8579 L 45.5744,3.8688 L 45.5744,3.8797 L 45.5744,3.8906 L 45.5744,3.9015 L 45.5744,3.9124 L 45.5744,3.9233 L 45.5744,3.9342 L 45.5853,3.9450 L 45.5853,3.9559 L 45.5853,3.9668 L 45.5853,3.9777 L 45.5853,3.9886 L 45.5853,3.9995 L 45.5853,4.0104 L 45.5853,4.0213 L 45.5853,4.0322 L 45.5961,4.0431 L 45.5961,4.0540 L 45.5961,4.0649 L 45.5961,4.0758 L 45.5961,4.0867 L 45.5961,4.0976 L 45.6070,4.1085 L 45.6070,4.1303 L 45.6070,4.1412 L 45.6070,4.1521 L 45.6070,4.1630 L 45.6179,4.1739 L 45.6179,4.1848 L 45.6179,4.2066 L 45.6070,4.2175 L 45.6070,4.2393 L 45.6070,4.2611 L 45.6070,4.2829 L 45.5961,4.3047 L 45.5961,4.3265 L 45.5961,4.3483 L 45.5961,4.3701 L 45.5961,4.3919 L 45.5853,4.4137 L 45.5853,4.4355 L 45.5853,4.4573 L 45.5853,4.4790 L 45.5853,4.5008 L 45.5744,4.5226 L 45.5744,4.5444 L 45.5744,4.5662 L 45.5744,4.5989 L 45.5744,4.6207 L 45.5744,4.6425 L 45.5744,4.6643 L 45.5635,4.6861 L 45.5635,4.7079 L 45.5635,4.7297 L 45.5635,4.7515 L 45.5635,4.7733 L 45.5635,4.7951 L 45.5635,4.8169 L 45.5635,4.8387 L 45.5635,4.8605 L 45.5635,4.8823 L 45.5635,4.9041 L 45.5635,4.9259 L 45.5635,4.9477 L 45.5635,4.9695 L 45.5635,4.9913 L 45.5635,5.0130 L 45.5635,5.0348 L 45.5635,5.0566 L 45.5635,5.0784 L 45.5744,5.1002 L 45.5744,5.1220 L 45.5744,5.1438 L 45.5744,5.1656 L 45.5744,5.1983 L 45.5744,5.2201 L 45.5744,5.2419 L 45.5853,5.2637 L 45.5853,5.2855 L 45.5853,5.3073 L 45.5853,5.3291 L 45.5853,5.3509 L 45.5961,5.3727 L 45.5961,5.3945 L 45.5961,5.4163 L 45.5961,5.4381 L 45.5961,5.4599 L 45.6070,5.4817 L 45.6070,5.5035 L 45.6070,5.5252 L 45.6070,5.5470 L 45.6179,5.5579 L 45.6179,5.5797 L 45.6179,5.5906 L 45.6070,5.6015 L 45.6070,5.6124 L 45.6070,5.6233 L 45.6070,5.6342 L 45.6070,5.6560 L 45.5961,5.6669 L 45.5961,5.6778 L 45.5961,5.6887 L 45.5961,5.6996 L 45.5961,5.7105 L 45.5961,5.7214 L 45.5853,5.7323 L 45.5853,5.7432 L 45.5853,5.7541 L 45.5853,5.7650 L 45.5853,5.7759 L 45.5853,5.7868 L 45.5853,5.7977 L 45.5853,5.8086 L 45.5853,5.8195 L 45.5744,5.8304 L 45.5744,5.8413 L 45.5744,5.8522 L 45.5744,5.8631 L 45.5744,5.8740 L 45.5744,5.8849 L 45.5744,5.8958 L 45.5744,5.9067 L 45.5635,5.9176 L 45.5635,5.9285 L 45.5635,5.9394 L 45.5635,5.9503 L 45.5635,5.9721 L 45.5635,5.9830 L 45.5635,5.9939 L 45.5635,6.0157 L 45.5635,6.0266 L 45.5635,6.0375 L 45.5744,6.0483 L 45.5744,6.0701 L 45.5744,6.0810 L 45.5744,6.0919 L 45.5744,6.1028 L 45.5744,6.1137 L 45.5744,6.1246 L 45.5853,6.1464 L 45.5853,6.1573 L 45.5853,6.1682 L 45.5853,6.1791 L 45.5853,6.1900 L 45.5961,6.2009 L 45.5961,6.2118 L 45.5961,6.2227 L 45.5961,6.2336 L 45.6070,6.2445 L 45.6070,6.2554 L 45.6070,6.2663 L 45.6179,6.2663 L 45.6179,6.2772 L 45.6287,6.2772 L 45.6396,6.2772 L 45.6505,6.2772 L 45.6613,6.2772 L 45.6722,6.2772 L 45.6939,6.2772 L 45.7048,6.2772 L 45.7157,6.2772 L 45.7374,6.2772 L 45.7483,6.2772 L 45.7700,6.2772 L 45.7809,6.2772 L 45.8026,6.2772 L 45.8243,6.2772 L 45.8352,6.2772 L 45.8569,6.2772 L 45.8678,6.2772 L 45.8895,6.2772 L 45.9004,6.2772 L 45.9113,6.2772 L 45.9330,6.2772 L 45.9439,6.2772 L 45.9547,6.2772 L 45.9656,6.2772 L 45.9765,6.2772 L 45.9873,6.2772 Z" stroke="#A5A54C" stroke-width="0.1195" stroke-linecap="round" stroke-linejoin="round" fill="#CCCC9B"/>
        <path d="M 45.6179,4.1848 L 45.6179,4.2066 L 45.6070,4.2175 L 45.6070,4.2393 L 45.6070,4.2611 L 45.6070,4.2829 L 45.5961,4.3047 L 45.5961,4.3265 L 45.5961,4.3483 L 45.5961,4.3701 L 45.5961,4.3919 L 45.5853,4.4137 L 45.5853,4.4355 L 45.5853,4.4573 L 45.5853,4.4790 L 45.5853,4.5008 L 45.5744,4.5226 L 45.5744,4.5444 L 45.5744,4.5662 L 45.5744,4.5989 L 45.5744,4.6207 L 45.5744,4.6425 L 45.5744,4.6643 L 45.5635,4.6861 L 45.5635,4.7079 L 45.5635,4.7297 L 45.5635,4.7515 L 45.5635,4.7733 L 45.5635,4.7951 L 45.5635,4.8169 L 45.5635,4.8387 L 45.5635,4.8605 L 45.5635,4.8823 L 45.5635,4.9041 L 45.5635,4.9259 L 45.5635,4.9477 L 45.5635,4.9695 L 45.5635,4.9913 L 45.5635,5.0130 L 45.5635,5.0348 L 45.5635,5.0566 L 45.5635,5.0784 L 45.5744,5.1002 L 45.5744,5.1220 L 45.5744,5.1438 L 45.5744,5.1656 L 45.5744,5.1983 L 45.5744,5.2201 L 45.5744,5.2419 L 45.5853,5.2637 L 45.5853,5.2855 L 45.5853,5.3073 L 45.5853,5.3291 L 45.5853,5.3509 L 45.5961,5.3727 L 45.5961,5.3945 L 45.5961,5.4163 L 45.5961,5.4381 L 45.5961,5.4599 L 45.6070,5.4817 L 45.6070,5.5035 L 45.6070,5.5252 L 45.6070,5.5470 L 45.6179,5.5579 L 45.6179,5.5797 L 45.6287,5.5797 L 45.6396,5.5797 L 45.6505,5.5797 L 45.6613,5.5797 L 45.6722,5.5797 L 45.6939,5.5797 L 45.7048,5.5797 L 45.7157,5.5797 L 45.7374,5.5797 L 45.7483,5.5797 L 45.7700,5.5797 L 45.7809,5.5797 L 45.8026,5.5797 L 45.8243,5.5797 L 45.8352,5.5797 L 45.8569,5.5797 L 45.8678,5.5797 L 45.8895,5.5797 L 45.9004,5.5797 L 45.9113,5.5797 L 45.9330,5.5797 L 45.9439,5.5797 L 45.9547,5.5797 L 45.9656,5.5797 L 45.9765,5.5797 L 45.9873,5.5797 L 45.9873,5.5579 L 45.9982,5.5470 L 45.9982,5.5252 L 45.9982,5.5035 L 45.9982,5.4817 L 46.0091,5.4599 L 46.0091,5.4381 L 46.0091,5.4163 L 46.0091,5.3945 L 46.0091,5.3727 L 46.0199,5.3509 L 46.0199,5.3291 L 46.0199,5.3073 L 46.0199,5.2855 L 46.0199,5.2637 L 46.0308,5.2419 L 46.0308,5.2201 L 46.0308,5.1983 L 46.0308,5.1656 L 46.0308,5.1438 L 46.0308,5.1220 L 46.0308,5.1002 L 46.0417,5.0784 L 46.0417,5.0566 L 46.0417,5.0348 L 46.0417,5.0130 L 46.0417,4.9913 L 46.0417,4.9695 L 46.0417,4.9477 L 46.0417,4.9259 L 46.0417,4.9041 L 46.0417,4.8823 L 46.0417,4.8605 L 46.0417,4.8387 L 46.0417,4.8169 L 46.0417,4.7951 L 46.0417,4.7733 L 46.0417,4.7515 L 46.0417,4.7297 L 46.0417,4.7079 L 46.0417,4.6861 L 46.0308,4.6643 L 46.0308,4.6425 L 46.0308,4.6207 L 46.0308,4.5989 L 46.0308,4.5662 L 46.0308,4.5444 L 46.0308,4.5226 L 46.0199,4.5008 L 46.0199,4.4790 L 46.0199,4.4573 L 46.0199,4.4355 L 46.0199,4.4137 L 46.0091,4.3919 L 46.0091,4.3701 L 46.0091,4.3483 L 46.0091,4.3265 L 46.0091,4.3047 L 45.9982,4.2829 L 45.9982,4.2611 L 45.9982,4.2393 L 45.9982,4.2175 L 45.9873,4.2066 L 45.9873,4.1848 L 45.9765,4.1848 L 45.9656,4.1848 L 45.9547,4.1848 L 45.9439,4.1848 L 45.9330,4.1848 L 45.9113,4.1848 L 45.9004,4.1848 L 45.8895,4.1848 L 45.8678,4.1848 L 45.8569,4.1848 L 45.8352,4.1848 L 45.8243,4.1848 L 45.8026,4.1848 L 45.7809,4.1848 L 45.7700,4.1848 L 45.7483,4.1848 L 45.7374,4.1848 L 45.7157,4.1848 L 45.7048,4.1848 L 45.6939,4.1848 L 45.6722,4.1848 L 45.6613,4.1848 L 45.6505,4.1848 L 45.6396,4.1848 L 45.6287,4.1848 L 45.6179,4.1848 Z" stroke="#A5A54C" stroke-width="0.1195" stroke-linecap="round" stroke-linejoin="round" fill="#E2E2CC"/>
        <path d="M 46.0417,3.8252 L 46.0417,3.8143 L 46.0417,3.7925 L 46.0417,3.7816 L 46.0417,3.7707 L 46.0417,3.7489 L 46.0417,3.7380 L 46.0417,3.7271 L 46.0417,3.7162 L 46.0308,3.6944 L 46.0308,3.6835 L 46.0308,3.6726 L 46.0308,3.6617 L 46.0308,3.6508 L 46.0308,3.6399 L 46.0199,3.6181 L 46.0199,3.6072 L 46.0199,3.5963 L 46.0199,3.5854 L 46.0199,3.5745 L 46.0091,3.5636 L 46.0091,3.5527 L 46.0091,3.5418 L 46.0091,3.5309 L 45.9982,3.5200 L 45.9982,3.5091 L 45.9982,3.4982 L 45.9873,3.4982 L 45.9873,3.4873 L 45.9765,3.4873 L 45.9656,3.4873 L 45.9547,3.4873 L 45.9439,3.4873 L 45.9330,3.4873 L 45.9113,3.4873 L 45.9004,3.4873 L 45.8895,3.4873 L 45.8678,3.4873 L 45.8569,3.4873 L 45.8352,3.4873 L 45.8243,3.4873 L 45.8026,3.4873 L 45.7809,3.4873 L 45.7700,3.4873 L 45.7483,3.4873 L 45.7374,3.4873 L 45.7157,3.4873 L 45.7048,3.4873 L 45.6939,3.4873 L 45.6722,3.4873 L 45.6613,3.4873 L 45.6505,3.4873 L 45.6396,3.4873 L 45.6287,3.4873 L 45.6179,3.4873 L 45.6179,3.4982 L 45.6070,3.4982 L 45.6070,3.5091 L 45.6070,3.5200 L 45.5961,3.5309 L 45.5961,3.5418 L 45.5961,3.5527 L 45.5961,3.5636 L 45.5853,3.5745 L 45.5853,3.5854 L 45.5853,3.5963 L 45.5853,3.6072 L 45.5853,3.6181 L 45.5744,3.6399 L 45.5744,3.6508 L 45.5744,3.6617 L 45.5744,3.6726 L 45.5744,3.6835 L 45.5744,3.6944 L 45.5744,3.7162 L 45.5635,3.7271 L 45.5635,3.7380 L 45.5635,3.7489 L 45.5635,3.7707 L 45.5635,3.7816 L 45.5635,3.7925 L 45.5635,3.8143 L 45.5635,3.8252 L 45.5635,3.8361 L 45.5635,3.8470 L 45.5635,3.8797 L 45.5635,3.9124 L 45.5635,3.9668 L 45.5635,4.0213 L 45.5635,4.0867 L 45.5635,4.1521 L 45.5635,4.2284 L 45.5635,4.3156 L 45.5635,4.4028 L 45.5635,4.4899 L 45.5635,4.5880 L 45.5635,4.6861 L 45.5635,4.7842 L 45.5635,4.8823 L 45.5635,4.9804 L 45.5635,5.0784 L 45.5635,5.1765 L 45.5635,5.2746 L 45.5635,5.3618 L 45.5635,5.4490 L 45.5635,5.5361 L 45.5635,5.6124 L 45.5635,5.6778 L 45.5635,5.7432 L 45.5635,5.7977 L 45.5635,5.8522 L 45.5635,5.8849 L 45.5635,5.9176 L 45.5635,5.9285 L 45.5635,5.9394 L 45.5635,5.9503 L 45.5635,5.9721 L 45.5635,5.9830 L 45.5635,5.9939 L 45.5635,6.0157 L 45.5635,6.0266 L 45.5635,6.0375 L 45.5744,6.0483 L 45.5744,6.0701 L 45.5744,6.0810 L 45.5744,6.0919 L 45.5744,6.1028 L 45.5744,6.1137 L 45.5744,6.1246 L 45.5853,6.1464 L 45.5853,6.1573 L 45.5853,6.1682 L 45.5853,6.1791 L 45.5853,6.1900 L 45.5961,6.2009 L 45.5961,6.2118 L 45.5961,6.2227 L 45.5961,6.2336 L 45.6070,6.2445 L 45.6070,6.2554 L 45.6070,6.2663 L 45.6179,6.2663 L 45.6179,6.2772 L 45.6287,6.2772 L 45.6396,6.2772 L 45.6505,6.2772 L 45.6613,6.2772 L 45.6722,6.2772 L 45.6939,6.2772 L 45.7048,6.2772 L 45.7157,6.2772 L 45.7374,6.2772 L 45.7483,6.2772 L 45.7700,6.2772 L 45.7809,6.2772 L 45.8026,6.2772 L 45.8243,6.2772 L 45.8352,6.2772 L 45.8569,6.2772 L 45.8678,6.2772 L 45.8895,6.2772 L 45.9004,6.2772 L 45.9113,6.2772 L 45.9330,6.2772 L 45.9439,6.2772 L 45.9547,6.2772 L 45.9656,6.2772 L 45.9765,6.2772 L 45.9873,6.2772 L 45.9873,6.2663 L 45.9982,6.2663 L 45.9982,6.2554 L 45.9982,6.2445 L 46.0091,6.2336 L 46.0091,6.2227 L 46.0091,6.2118 L 46.0091,6.2009 L 46.0199,6.1900 L 46.0199,6.1791 L 46.0199,6.1682 L 46.0199,6.1573 L 46.0199,6.1464 L 46.0308,6.1246 L 46.0308,6.1137 L 46.0308,6.1028 L 46.0308,6.0919 L 46.0308,6.0810 L 46.0308,6.0701 L 46.0417,6.0483 L 46.0417,6.0375 L 46.0417,6.0266 L 46.0417,6.0157 L 46.0417,5.9939 L 46.0417,5.9830 L 46.0417,5.9721 L 46.0417,5.9503 L 46.0417,5.9394 L 46.0417,5.9285 L 46.0417,5.9176 L 46.0417,5.8849 L 46.0417,5.8522 L 46.0417,5.7977 L 46.0417,5.7432 L 46.0417,5.6778 L 46.0417,5.6124 L 46.0417,5.5361 L 46.0417,5.4490 L 46.0417,5.3618 L 46.0417,5.2746 L 46.0417,5.1765 L 46.0417,5.0784 L 46.0417,4.9804 L 46.0417,4.8823 L 46.0417,4.7842 L 46.0417,4.6861 L 46.0417,4.5880 L 46.0417,4.4899 L 46.0417,4.4028 L 46.0417,4.3156 L 46.0417,4.2284 L 46.0417,4.1521 L 46.0417,4.0867 L 46.0417,4.0213 L 46.0417,3.9668 L 46.0417,3.9124 L 46.0417,3.8797 L 46.0417,3.8470 L 46.0417,3.8361 L 46.0417,3.8252 Z" stroke="#000000" stroke-width="0.1195" stroke-linecap="round" stroke-linejoin="round" fill="none"/>
        <path d="M 46.5959,3.9450 L 46.5850,3.9342 L 46.5741,3.9233 L 46.5633,3.9342 L 46.5524,3.9450 L 46.5524,5.8195 L 46.5633,5.8304 L 46.5741,5.8413 L 46.5850,5.8304 L 46.5959,5.8195 L 46.5959,3.9450 Z" stroke="#000000" stroke-width="0.1195" stroke-linecap="round" stroke-linejoin="round" fill="#CCCC9B"/>
        <path d="M 46.7589,3.9450 L 46.7480,3.9342 L 46.7371,3.9233 L 46.7263,3.9342 L 46.7154,3.9450 L 46.7154,5.8195 L 46.7263,5.8304 L 46.7371,5.8413 L 46.7480,5.8304 L 46.7589,5.8195 L 46.7589,3.9450 Z" stroke="#000000" stroke-width="0.1195" stroke-linecap="round" stroke-linejoin="round" fill="#CCCC9B"/>
        <path d="M 46.9110,3.9450 L 46.9001,3.9342 L 46.8893,3.9233 L 46.8784,3.9342 L 46.8675,3.9450 L 46.8675,5.8195 L 46.8784,5.8304 L 46.8893,5.8413 L 46.9001,5.8304 L 46.9110,5.8195 L 46.9110,3.9450 Z" stroke="#000000" stroke-width="0.1195" stroke-linecap="round" stroke-linejoin="round" fill="#CCCC9B"/>
        <path d="M 47.0631,3.9450 L 47.0523,3.9342 L 47.0414,3.9233 L 47.0305,3.9342 L 47.0197,3.9450 L 47.0197,5.8195 L 47.0305,5.8304 L 47.0414,5.8413 L 47.0523,5.8304 L 47.0631,5.8195 L 47.0631,3.9450 Z" stroke="#000000" stroke-width="0.1195" stroke-linecap="round" stroke-linejoin="round" fill="#CCCC9B"/>
        <path d="M 46.5198,3.6944 L 46.5198,6.0701 L 46.0308,6.0701 L 46.0308,3.6944 L 46.5198,3.6944 Z" stroke="#000000" stroke-width="0.1195" stroke-linecap="round" stroke-linejoin="round" fill="#D6D6B1"/>
        <path d="M 46.5198,5.3509 L 46.5198,5.5252 L 46.0308,5.5252 L 46.0308,5.3509 L 46.5198,5.3509 Z" stroke="#E2E2CC" stroke-width="0.1195" stroke-linecap="round" stroke-linejoin="round" fill="#E2E2CC"/>
        <path d="M 46.5198,4.2393 L 46.5198,4.4137 L 46.0308,4.4137 L 46.0308,4.2393 L 46.5198,4.2393 Z" stroke="#E2E2CC" stroke-width="0.1195" stroke-linecap="round" stroke-linejoin="round" fill="#E2E2CC"/>
        <path d="M 46.5198,3.6944 L 46.5198,6.0701 L 46.0308,6.0701 L 46.0308,3.6944 L 46.5198,3.6944 Z" stroke="#000000" stroke-width="0.1195" stroke-linecap="round" stroke-linejoin="round" fill="none"/>
        <path d="M 47.2153,3.9450 L 47.2044,3.9342 L 47.1935,3.9233 L 47.1827,3.9342 L 47.1718,3.9450 L 47.1718,5.8195 L 47.1827,5.8304 L 47.1935,5.8413 L 47.2044,5.8304 L 47.2153,5.8195 L 47.2153,3.9450 Z" stroke="#000000" stroke-width="0.1195" stroke-linecap="round" stroke-linejoin="round" fill="#CCCC9B"/>
        <path d="M 47.3674,3.9450 L 47.3565,3.9342 L 47.3457,3.9233 L 47.3348,3.9342 L 47.3239,3.9450 L 47.3239,5.8195 L 47.3348,5.8304 L 47.3457,5.8413 L 47.3565,5.8304 L 47.3674,5.8195 L 47.3674,3.9450 Z" stroke="#000000" stroke-width="0.1195" stroke-linecap="round" stroke-linejoin="round" fill="#CCCC9B"/>
        <path d="M 47.5195,3.9450 L 47.5087,3.9342 L 47.4978,3.9233 L 47.4869,3.9342 L 47.4761,3.9450 L 47.4761,5.8195 L 47.4869,5.8304 L 47.4978,5.8413 L 47.5087,5.8304 L 47.5195,5.8195 L 47.5195,3.9450 Z" stroke="#000000" stroke-width="0.1195" stroke-linecap="round" stroke-linejoin="round" fill="#CCCC9B"/>
        <path d="M 47.6717,3.9450 L 47.6608,3.9342 L 47.6499,3.9233 L 47.6391,3.9342 L 47.6282,3.9450 L 47.6282,5.8195 L 47.6391,5.8304 L 47.6499,5.8413 L 47.6608,5.8304 L 47.6717,5.8195 L 47.6717,3.9450 Z" stroke="#000000" stroke-width="0.1195" stroke-linecap="round" stroke-linejoin="round" fill="#CCCC9B"/>
        <path d="M 47.8238,3.9450 L 47.8129,3.9342 L 47.8021,3.9233 L 47.7912,3.9342 L 47.7803,3.9450 L 47.7803,5.8195 L 47.7912,5.8304 L 47.8021,5.8413 L 47.8129,5.8304 L 47.8238,5.8195 L 47.8238,3.9450 Z" stroke="#000000" stroke-width="0.1195" stroke-linecap="round" stroke-linejoin="round" fill="#CCCC9B"/>
        <path d="M 47.9759,3.9450 L 47.9651,3.9342 L 47.9542,3.9233 L 47.9433,3.9342 L 47.9325,3.9450 L 47.9325,5.8195 L 47.9433,5.8304 L 47.9542,5.8413 L 47.9651,5.8304 L 47.9759,5.8195 L 47.9759,3.9450 Z" stroke="#000000" stroke-width="0.1195" stroke-linecap="round" stroke-linejoin="round" fill="#CCCC9B"/>
        <path d="M 48.1172,3.9450 L 48.1063,3.9342 L 48.0955,3.9233 L 48.0846,3.9342 L 48.0737,3.9450 L 48.0737,5.8195 L 48.0846,5.8304 L 48.0955,5.8413 L 48.1063,5.8304 L 48.1172,5.8195 L 48.1172,3.9450 Z" stroke="#000000" stroke-width="0.1195" stroke-linecap="round" stroke-linejoin="round" fill="#CCCC9B"/>
        <path d="M 48.2693,3.9450 L 48.2585,3.9342 L 48.2476,3.9233 L 48.2367,3.9342 L 48.2259,3.9450 L 48.2259,5.8195 L 48.2367,5.8304 L 48.2476,5.8413 L 48.2585,5.8304 L 48.2693,5.8195 L 48.2693,3.9450 Z" stroke="#000000" stroke-width="0.1195" stroke-linecap="round" stroke-linejoin="round" fill="#CCCC9B"/>
        <path d="M 48.4215,3.9450 L 48.4106,3.9342 L 48.3997,3.9233 L 48.3889,3.9342 L 48.3780,3.9450 L 48.3780,5.8195 L 48.3889,5.8304 L 48.3997,5.8413 L 48.4106,5.8304 L 48.4215,5.8195 L 48.4215,3.9450 Z" stroke="#000000" stroke-width="0.1195" stroke-linecap="round" stroke-linejoin="round" fill="#CCCC9B"/>
        <path d="M 48.5736,3.9450 L 48.5627,3.9342 L 48.5519,3.9233 L 48.5410,3.9342 L 48.5301,3.9450 L 48.5301,5.8195 L 48.5410,5.8304 L 48.5519,5.8413 L 48.5627,5.8304 L 48.5736,5.8195 L 48.5736,3.9450 Z" stroke="#000000" stroke-width="0.1195" stroke-linecap="round" stroke-linejoin="round" fill="#CCCC9B"/>
        <path d="M 0.0000,4.0540 L 0.0000,5.7105 L 2.2168,5.7105 L 2.2168,4.0540 L 0.0000,4.0540 Z" stroke="#000000" stroke-width="0.1195" stroke-linecap="round" stroke-linejoin="round" fill="#D6D6B1"/>
        <path d="M 2.6949,3.8252 L 2.6949,3.8143 L 2.6949,3.7925 L 2.6949,3.7816 L 2.6949,3.7707 L 2.6949,3.7489 L 2.6949,3.7380 L 2.6949,3.7271 L 2.7058,3.7162 L 2.7058,3.6944 L 2.7058,3.6835 L 2.7058,3.6726 L 2.7058,3.6617 L 2.7058,3.6508 L 2.7058,3.6399 L 2.7166,3.6181 L 2.7166,3.6072 L 2.7166,3.5963 L 2.7166,3.5854 L 2.7166,3.5745 L 2.7275,3.5636 L 2.7275,3.5527 L 2.7275,3.5418 L 2.7275,3.5309 L 2.7384,3.5200 L 2.7384,3.5091 L 2.7384,3.4982 L 2.7492,3.4982 L 2.7492,3.4873 L 2.7601,3.4873 L 2.7710,3.4873 L 2.7818,3.4873 L 2.7927,3.4873 L 2.8036,3.4873 L 2.8253,3.4873 L 2.8362,3.4873 L 2.8470,3.4873 L 2.8688,3.4873 L 2.8796,3.4873 L 2.9014,3.4873 L 2.9122,3.4873 L 2.9340,3.4873 L 2.9557,3.4873 L 2.9666,3.4873 L 2.9883,3.4873 L 2.9992,3.4873 L 3.0209,3.4873 L 3.0318,3.4873 L 3.0426,3.4873 L 3.0644,3.4873 L 3.0752,3.4873 L 3.0861,3.4873 L 3.0970,3.4873 L 3.1078,3.4873 L 3.1187,3.4873 L 3.1187,3.4982 L 3.1296,3.4982 L 3.1296,3.5091 L 3.1296,3.5200 L 3.1404,3.5309 L 3.1404,3.5418 L 3.1404,3.5527 L 3.1404,3.5636 L 3.1513,3.5745 L 3.1513,3.5854 L 3.1513,3.5963 L 3.1513,3.6072 L 3.1513,3.6181 L 3.1622,3.6399 L 3.1622,3.6508 L 3.1622,3.6617 L 3.1622,3.6726 L 3.1622,3.6835 L 3.1622,3.6944 L 3.1730,3.7162 L 3.1730,3.7271 L 3.1730,3.7380 L 3.1730,3.7489 L 3.1730,3.7707 L 3.1730,3.7816 L 3.1730,3.7925 L 3.1730,3.8143 L 3.1730,3.8252 L 3.1730,3.8361 L 3.1730,3.8470 L 3.1730,3.8797 L 3.1730,3.9124 L 3.1730,3.9668 L 3.1730,4.0213 L 3.1730,4.0867 L 3.1730,4.1521 L 3.1730,4.2284 L 3.1730,4.3156 L 3.1730,4.4028 L 3.1730,4.4899 L 3.1730,4.5880 L 3.1730,4.6861 L 3.1730,4.7842 L 3.1730,4.8823 L 3.1730,4.9804 L 3.1730,5.0784 L 3.1730,5.1765 L 3.1730,5.2746 L 3.1730,5.3618 L 3.1730,5.4490 L 3.1730,5.5361 L 3.1730,5.6124 L 3.1730,5.6778 L 3.1730,5.7432 L 3.1730,5.7977 L 3.1730,5.8522 L 3.1730,5.8849 L 3.1730,5.9176 L 3.1730,5.9285 L 3.1730,5.9394 L 3.1730,5.9503 L 3.1730,5.9721 L 3.1730,5.9830 L 3.1730,5.9939 L 3.1730,6.0157 L 3.1730,6.0266 L 3.1730,6.0375 L 3.1730,6.0483 L 3.1622,6.0701 L 3.1622,6.0810 L 3.1622,6.0919 L 3.1622,6.1028 L 3.1622,6.1137 L 3.1622,6.1246 L 3.1513,6.1464 L 3.1513,6.1573 L 3.1513,6.1682 L 3.1513,6.1791 L 3.1513,6.1900 L 3.1404,6.2009 L 3.1404,6.2118 L 3.1404,6.2227 L 3.1404,6.2336 L 3.1296,6.2445 L 3.1296,6.2554 L 3.1296,6.2663 L 3.1187,6.2663 L 3.1187,6.2772 L 3.1078,6.2772 L 3.0970,6.2772 L 3.0861,6.2772 L 3.0752,6.2772 L 3.0644,6.2772 L 3.0426,6.2772 L 3.0318,6.2772 L 3.0209,6.2772 L 2.9992,6.2772 L 2.9883,6.2772 L 2.9666,6.2772 L 2.9557,6.2772 L 2.9340,6.2772 L 2.9122,6.2772 L 2.9014,6.2772 L 2.8796,6.2772 L 2.8688,6.2772 L 2.8470,6.2772 L 2.8362,6.2772 L 2.8253,6.2772 L 2.8036,6.2772 L 2.7927,6.2772 L 2.7818,6.2772 L 2.7710,6.2772 L 2.7601,6.2772 L 2.7492,6.2772 L 2.7492,6.2663 L 2.7384,6.2663 L 2.7384,6.2554 L 2.7384,6.2445 L 2.7275,6.2336 L 2.7275,6.2227 L 2.7275,6.2118 L 2.7275,6.2009 L 2.7166,6.1900 L 2.7166,6.1791 L 2.7166,6.1682 L 2.7166,6.1573 L 2.7166,6.1464 L 2.7058,6.1246 L 2.7058,6.1137 L 2.7058,6.1028 L 2.7058,6.0919 L 2.7058,6.0810 L 2.7058,6.0701 L 2.7058,6.0483 L 2.6949,6.0375 L 2.6949,6.0266 L 2.6949,6.0157 L 2.6949,5.9939 L 2.6949,5.9830 L 2.6949,5.9721 L 2.6949,5.9503 L 2.6949,5.9394 L 2.6949,5.9285 L 2.6949,5.9176 L 2.6949,5.8849 L 2.6949,5.8522 L 2.6949,5.7977 L 2.6949,5.7432 L 2.6949,5.6778 L 2.6949,5.6124 L 2.6949,5.5361 L 2.6949,5.4490 L 2.6949,5.3618 L 2.6949,5.2746 L 2.6949,5.1765 L 2.6949,5.0784 L 2.6949,4.9804 L 2.6949,4.8823 L 2.6949,4.7842 L 2.6949,4.6861 L 2.6949,4.5880 L 2.6949,4.4899 L 2.6949,4.4028 L 2.6949,4.3156 L 2.6949,4.2284 L 2.6949,4.1521 L 2.6949,4.0867 L 2.6949,4.0213 L 2.6949,3.9668 L 2.6949,3.9124 L 2.6949,3.8797 L 2.6949,3.8470 L 2.6949,3.8361 L 2.6949,3.8252 Z" stroke="#000000" stroke-width="0.1195" stroke-linecap="round" stroke-linejoin="round" fill="#BCBC7E"/>
        <path d="M 2.7492,6.2772 L 2.7492,6.2663 L 2.7384,6.2663 L 2.7384,6.2554 L 2.7384,6.2445 L 2.7275,6.2336 L 2.7275,6.2227 L 2.7275,6.2118 L 2.7275,6.2009 L 2.7166,6.1900 L 2.7166,6.1791 L 2.7166,6.1682 L 2.7166,6.1573 L 2.7166,6.1464 L 2.7058,6.1246 L 2.7058,6.1137 L 2.7058,6.1028 L 2.7058,6.0919 L 2.7058,6.0810 L 2.7058,6.0701 L 2.7058,6.0483 L 2.6949,6.0375 L 2.6949,6.0266 L 2.6949,6.0157 L 2.6949,5.9939 L 2.6949,5.9830 L 2.6949,5.9721 L 2.6949,5.9503 L 2.6949,5.9394 L 2.6949,5.9285 L 2.6949,5.9176 L 2.7058,5.9067 L 2.7058,5.8958 L 2.7058,5.8849 L 2.7058,5.8740 L 2.7058,5.8631 L 2.7058,5.8522 L 2.7058,5.8413 L 2.7058,5.8304 L 2.7166,5.8195 L 2.7166,5.8086 L 2.7166,5.7977 L 2.7166,5.7868 L 2.7166,5.7759 L 2.7166,5.7650 L 2.7166,5.7541 L 2.7166,5.7432 L 2.7166,5.7323 L 2.7275,5.7214 L 2.7275,5.7105 L 2.7275,5.6996 L 2.7275,5.6887 L 2.7275,5.6778 L 2.7275,5.6669 L 2.7384,5.6560 L 2.7384,5.6342 L 2.7384,5.6233 L 2.7384,5.6124 L 2.7384,5.6015 L 2.7492,5.5906 L 2.7492,5.5797 L 2.7492,5.5579 L 2.7384,5.5470 L 2.7384,5.5252 L 2.7384,5.5035 L 2.7384,5.4817 L 2.7275,5.4599 L 2.7275,5.4381 L 2.7275,5.4163 L 2.7275,5.3945 L 2.7275,5.3727 L 2.7166,5.3509 L 2.7166,5.3291 L 2.7166,5.3073 L 2.7166,5.2855 L 2.7166,5.2637 L 2.7058,5.2419 L 2.7058,5.2201 L 2.7058,5.1983 L 2.7058,5.1656 L 2.7058,5.1438 L 2.7058,5.1220 L 2.7058,5.1002 L 2.6949,5.0784 L 2.6949,5.0566 L 2.6949,5.0348 L 2.6949,5.0130 L 2.6949,4.9913 L 2.6949,4.9695 L 2.6949,4.9477 L 2.6949,4.9259 L 2.6949,4.9041 L 2.6949,4.8823 L 2.6949,4.8605 L 2.6949,4.8387 L 2.6949,4.8169 L 2.6949,4.7951 L 2.6949,4.7733 L 2.6949,4.7515 L 2.6949,4.7297 L 2.6949,4.7079 L 2.6949,4.6861 L 2.7058,4.6643 L 2.7058,4.6425 L 2.7058,4.6207 L 2.7058,4.5989 L 2.7058,4.5662 L 2.7058,4.5444 L 2.7058,4.5226 L 2.7166,4.5008 L 2.7166,4.4790 L 2.7166,4.4573 L 2.7166,4.4355 L 2.7166,4.4137 L 2.7275,4.3919 L 2.7275,4.3701 L 2.7275,4.3483 L 2.7275,4.3265 L 2.7275,4.3047 L 2.7384,4.2829 L 2.7384,4.2611 L 2.7384,4.2393 L 2.7384,4.2175 L 2.7492,4.2066 L 2.7492,4.1848 L 2.7492,4.1739 L 2.7384,4.1630 L 2.7384,4.1521 L 2.7384,4.1412 L 2.7384,4.1303 L 2.7384,4.1085 L 2.7275,4.0976 L 2.7275,4.0867 L 2.7275,4.0758 L 2.7275,4.0649 L 2.7275,4.0540 L 2.7275,4.0431 L 2.7166,4.0322 L 2.7166,4.0213 L 2.7166,4.0104 L 2.7166,3.9995 L 2.7166,3.9886 L 2.7166,3.9777 L 2.7166,3.9668 L 2.7166,3.9559 L 2.7166,3.9450 L 2.7058,3.9342 L 2.7058,3.9233 L 2.7058,3.9124 L 2.7058,3.9015 L 2.7058,3.8906 L 2.7058,3.8797 L 2.7058,3.8688 L 2.7058,3.8579 L 2.6949,3.8470 L 2.6949,3.8361 L 2.6949,3.8252 L 2.6949,3.8143 L 2.6949,3.7925 L 2.6949,3.7816 L 2.6949,3.7707 L 2.6949,3.7489 L 2.6949,3.7380 L 2.6949,3.7271 L 2.7058,3.7162 L 2.7058,3.6944 L 2.7058,3.6835 L 2.7058,3.6726 L 2.7058,3.6617 L 2.7058,3.6508 L 2.7058,3.6399 L 2.7166,3.6181 L 2.7166,3.6072 L 2.7166,3.5963 L 2.7166,3.5854 L 2.7166,3.5745 L 2.7275,3.5636 L 2.7275,3.5527 L 2.7275,3.5418 L 2.7275,3.5309 L 2.7384,3.5200 L 2.7384,3.5091 L 2.7384,3.4982 L 2.7492,3.4982 L 2.7492,3.4873 L 2.7601,3.4873 L 2.7710,3.4873 L 2.7818,3.4873 L 2.7927,3.4873 L 2.8036,3.4873 L 2.8253,3.4873 L 2.8362,3.4873 L 2.8470,3.4873 L 2.8688,3.4873 L 2.8796,3.4873 L 2.9014,3.4873 L 2.9122,3.4873 L 2.9340,3.4873 L 2.9557,3.4873 L 2.9666,3.4873 L 2.9883,3.4873 L 2.9992,3.4873 L 3.0209,3.4873 L 3.0318,3.4873 L 3.0426,3.4873 L 3.0644,3.4873 L 3.0752,3.4873 L 3.0861,3.4873 L 3.0970,3.4873 L 3.1078,3.4873 L 3.1187,3.4873 L 3.1187,3.4982 L 3.1296,3.4982 L 3.1296,3.5091 L 3.1296,3.5200 L 3.1404,3.5309 L 3.1404,3.5418 L 3.1404,3.5527 L 3.1404,3.5636 L 3.1513,3.5745 L 3.1513,3.5854 L 3.1513,3.5963 L 3.1513,3.6072 L 3.1513,3.6181 L 3.1622,3.6399 L 3.1622,3.6508 L 3.1622,3.6617 L 3.1622,3.6726 L 3.1622,3.6835 L 3.1622,3.6944 L 3.1730,3.7162 L 3.1730,3.7271 L 3.1730,3.7380 L 3.1730,3.7489 L 3.1730,3.7707 L 3.1730,3.7816 L 3.1730,3.7925 L 3.1730,3.8143 L 3.1730,3.8252 L 3.1730,3.8361 L 3.1730,3.8470 L 3.1622,3.8579 L 3.1622,3.8688 L 3.1622,3.8797 L 3.1622,3.8906 L 3.1622,3.9015 L 3.1622,3.9124 L 3.1622,3.9233 L 3.1622,3.9342 L 3.1513,3.9450 L 3.1513,3.9559 L 3.1513,3.9668 L 3.1513,3.9777 L 3.1513,3.9886 L 3.1513,3.9995 L 3.1513,4.0104 L 3.1513,4.0213 L 3.1513,4.0322 L 3.1404,4.0431 L 3.1404,4.0540 L 3.1404,4.0649 L 3.1404,4.0758 L 3.1404,4.0867 L 3.1404,4.0976 L 3.1296,4.1085 L 3.1296,4.1303 L 3.1296,4.1412 L 3.1296,4.1521 L 3.1296,4.1630 L 3.1187,4.1739 L 3.1187,4.1848 L 3.1187,4.2066 L 3.1296,4.2175 L 3.1296,4.2393 L 3.1296,4.2611 L 3.1296,4.2829 L 3.1404,4.3047 L 3.1404,4.3265 L 3.1404,4.3483 L 3.1404,4.3701 L 3.1404,4.3919 L 3.1513,4.4137 L 3.1513,4.4355 L 3.1513,4.4573 L 3.1513,4.4790 L 3.1513,4.5008 L 3.1622,4.5226 L 3.1622,4.5444 L 3.1622,4.5662 L 3.1622,4.5989 L 3.1622,4.6207 L 3.1622,4.6425 L 3.1622,4.6643 L 3.1730,4.6861 L 3.1730,4.7079 L 3.1730,4.7297 L 3.1730,4.7515 L 3.1730,4.7733 L 3.1730,4.7951 L 3.1730,4.8169 L 3.1730,4.8387 L 3.1730,4.8605 L 3.1730,4.8823 L 3.1730,4.9041 L 3.1730,4.9259 L 3.1730,4.9477 L 3.1730,4.9695 L 3.1730,4.9913 L 3.1730,5.0130 L 3.1730,5.0348 L 3.1730,5.0566 L 3.1730,5.0784 L 3.1622,5.1002 L 3.1622,5.1220 L 3.1622,5.1438 L 3.1622,5.1656 L 3.1622,5.1983 L 3.1622,5.2201 L 3.1622,5.2419 L 3.1513,5.2637 L 3.1513,5.2855 L 3.1513,5.3073 L 3.1513,5.3291 L 3.1513,5.3509 L 3.1404,5.3727 L 3.1404,5.3945 L 3.1404,5.4163 L 3.1404,5.4381 L 3.1404,5.4599 L 3.1296,5.4817 L 3.1296,5.5035 L 3.1296,5.5252 L 3.1296,5.5470 L 3.1187,5.5579 L 3.1187,5.5797 L 3.1187,5.5906 L 3.1296,5.6015 L 3.1296,5.6124 L 3.1296,5.6233 L 3.1296,5.6342 L 3.1296,5.6560 L 3.1404,5.6669 L 3.1404,5.6778 L 3.1404,5.6887 L 3.1404,5.6996 L 3.1404,5.7105 L 3.1404,5.7214 L 3.1513,5.7323 L 3.1513,5.7432 L 3.1513,5.7541 L 3.1513,5.7650 L 3.1513,5.7759 L 3.1513,5.7868 L 3.1513,5.7977 L 3.1513,5.8086 L 3.1513,5.8195 L 3.1622,5.8304 L 3.1622,5.8413 L 3.1622,5.8522 L 3.1622,5.8631 L 3.1622,5.8740 L 3.1622,5.8849 L 3.1622,5.8958 L 3.1622,5.9067 L 3.1730,5.9176 L 3.1730,5.9285 L 3.1730,5.9394 L 3.1730,5.9503 L 3.1730,5.9721 L 3.1730,5.9830 L 3.1730,5.9939 L 3.1730,6.0157 L 3.1730,6.0266 L 3.1730,6.0375 L 3.1730,6.0483 L 3.1622,6.0701 L 3.1622,6.0810 L 3.1622,6.0919 L 3.1622,6.1028 L 3.1622,6.1137 L 3.1622,6.1246 L 3.1513,6.1464 L 3.1513,6.1573 L 3.1513,6.1682 L 3.1513,6.1791 L 3.1513,6.1900 L 3.1404,6.2009 L 3.1404,6.2118 L 3.1404,6.2227 L 3.1404,6.2336 L 3.1296,6.2445 L 3.1296,6.2554 L 3.1296,6.2663 L 3.1187,6.2663 L 3.1187,6.2772 L 3.1078,6.2772 L 3.0970,6.2772 L 3.0861,6.2772 L 3.0752,6.2772 L 3.0644,6.2772 L 3.0426,6.2772 L 3.0318,6.2772 L 3.0209,6.2772 L 2.9992,6.2772 L 2.9883,6.2772 L 2.9666,6.2772 L 2.9557,6.2772 L 2.9340,6.2772 L 2.9122,6.2772 L 2.9014,6.2772 L 2.8796,6.2772 L 2.8688,6.2772 L 2.8470,6.2772 L 2.8362,6.2772 L 2.8253,6.2772 L 2.8036,6.2772 L 2.7927,6.2772 L 2.7818,6.2772 L 2.7710,6.2772 L 2.7601,6.2772 L 2.7492,6.2772 Z" stroke="#A5A54C" stroke-width="0.1195" stroke-linecap="round" stroke-linejoin="round" fill="#CCCC9B"/>
        <path d="M 3.1187,4.1848 L 3.1187,4.2066 L 3.1296,4.2175 L 3.1296,4.2393 L 3.1296,4.2611 L 3.1296,4.2829 L 3.1404,4.3047 L 3.1404,4.3265 L 3.1404,4.3483 L 3.1404,4.3701 L 3.1404,4.3919 L 3.1513,4.4137 L 3.1513,4.4355 L 3.1513,4.4573 L 3.1513,4.4790 L 3.1513,4.5008 L 3.1622,4.5226 L 3.1622,4.5444 L 3.1622,4.5662 L 3.1622,4.5989 L 3.1622,4.6207 L 3.1622,4.6425 L 3.1622,4.6643 L 3.1730,4.6861 L 3.1730,4.7079 L 3.1730,4.7297 L 3.1730,4.7515 L 3.1730,4.7733 L 3.1730,4.7951 L 3.1730,4.8169 L 3.1730,4.8387 L 3.1730,4.8605 L 3.1730,4.8823 L 3.1730,4.9041 L 3.1730,4.9259 L 3.1730,4.9477 L 3.1730,4.9695 L 3.1730,4.9913 L 3.1730,5.0130 L 3.1730,5.0348 L 3.1730,5.0566 L 3.1730,5.0784 L 3.1622,5.1002 L 3.1622,5.1220 L 3.1622,5.1438 L 3.1622,5.1656 L 3.1622,5.1983 L 3.1622,5.2201 L 3.1622,5.2419 L 3.1513,5.2637 L 3.1513,5.2855 L 3.1513,5.3073 L 3.1513,5.3291 L 3.1513,5.3509 L 3.1404,5.3727 L 3.1404,5.3945 L 3.1404,5.4163 L 3.1404,5.4381 L 3.1404,5.4599 L 3.1296,5.4817 L 3.1296,5.5035 L 3.1296,5.5252 L 3.1296,5.5470 L 3.1187,5.5579 L 3.1187,5.5797 L 3.1078,5.5797 L 3.0970,5.5797 L 3.0861,5.5797 L 3.0752,5.5797 L 3.0644,5.5797 L 3.0426,5.5797 L 3.0318,5.5797 L 3.0209,5.5797 L 2.9992,5.5797 L 2.9883,5.5797 L 2.9666,5.5797 L 2.9557,5.5797 L 2.9340,5.5797 L 2.9122,5.5797 L 2.9014,5.5797 L 2.8796,5.5797 L 2.8688,5.5797 L 2.8470,5.5797 L 2.8362,5.5797 L 2.8253,5.5797 L 2.8036,5.5797 L 2.7927,5.5797 L 2.7818,5.5797 L 2.7710,5.5797 L 2.7601,5.5797 L 2.7492,5.5797 L 2.7492,5.5579 L 2.7384,5.5470 L 2.7384,5.5252 L 2.7384,5.5035 L 2.7384,5.4817 L 2.7275,5.4599 L 2.7275,5.4381 L 2.7275,5.4163 L 2.7275,5.3945 L 2.7275,5.3727 L 2.7166,5.3509 L 2.7166,5.3291 L 2.7166,5.3073 L 2.7166,5.2855 L 2.7166,5.2637 L 2.7058,5.2419 L 2.7058,5.2201 L 2.7058,5.1983 L 2.7058,5.1656 L 2.7058,5.1438 L 2.7058,5.1220 L 2.7058,5.1002 L 2.6949,5.0784 L 2.6949,5.0566 L 2.6949,5.0348 L 2.6949,5.0130 L 2.6949,4.9913 L 2.6949,4.9695 L 2.6949,4.9477 L 2.6949,4.9259 L 2.6949,4.9041 L 2.6949,4.8823 L 2.6949,4.8605 L 2.6949,4.8387 L 2.6949,4.8169 L 2.6949,4.7951 L 2.6949,4.7733 L 2.6949,4.7515 L 2.6949,4.7297 L 2.6949,4.7079 L 2.6949,4.6861 L 2.7058,4.6643 L 2.7058,4.6425 L 2.7058,4.6207 L 2.7058,4.5989 L 2.7058,4.5662 L 2.7058,4.5444 L 2.7058,4.5226 L 2.7166,4.5008 L 2.7166,4.4790 L 2.7166,4.4573 L 2.7166,4.4355 L 2.7166,4.4137 L 2.7275,4.3919 L 2.7275,4.3701 L 2.7275,4.3483 L 2.7275,4.3265 L 2.7275,4.3047 L 2.7384,4.2829 L 2.7384,4.2611 L 2.7384,4.2393 L 2.7384,4.2175 L 2.7492,4.2066 L 2.7492,4.1848 L 2.7601,4.1848 L 2.7710,4.1848 L 2.7818,4.1848 L 2.7927,4.1848 L 2.8036,4.1848 L 2.8253,4.1848 L 2.8362,4.1848 L 2.8470,4.1848 L 2.8688,4.1848 L 2.8796,4.1848 L 2.9014,4.1848 L 2.9122,4.1848 L 2.9340,4.1848 L 2.9557,4.1848 L 2.9666,4.1848 L 2.9883,4.1848 L 2.9992,4.1848 L 3.0209,4.1848 L 3.0318,4.1848 L 3.0426,4.1848 L 3.0644,4.1848 L 3.0752,4.1848 L 3.0861,4.1848 L 3.0970,4.1848 L 3.1078,4.1848 L 3.1187,4.1848 Z" stroke="#A5A54C" stroke-width="0.1195" stroke-linecap="round" stroke-linejoin="round" fill="#E2E2CC"/>
        <path d="M 2.6949,3.8252 L 2.6949,3.8143 L 2.6949,3.7925 L 2.6949,3.7816 L 2.6949,3.7707 L 2.6949,3.7489 L 2.6949,3.7380 L 2.6949,3.7271 L 2.7058,3.7162 L 2.7058,3.6944 L 2.7058,3.6835 L 2.7058,3.6726 L 2.7058,3.6617 L 2.7058,3.6508 L 2.7058,3.6399 L 2.7166,3.6181 L 2.7166,3.6072 L 2.7166,3.5963 L 2.7166,3.5854 L 2.7166,3.5745 L 2.7275,3.5636 L 2.7275,3.5527 L 2.7275,3.5418 L 2.7275,3.5309 L 2.7384,3.5200 L 2.7384,3.5091 L 2.7384,3.4982 L 2.7492,3.4982 L 2.7492,3.4873 L 2.7601,3.4873 L 2.7710,3.4873 L 2.7818,3.4873 L 2.7927,3.4873 L 2.8036,3.4873 L 2.8253,3.4873 L 2.8362,3.4873 L 2.8470,3.4873 L 2.8688,3.4873 L 2.8796,3.4873 L 2.9014,3.4873 L 2.9122,3.4873 L 2.9340,3.4873 L 2.9557,3.4873 L 2.9666,3.4873 L 2.9883,3.4873 L 2.9992,3.4873 L 3.0209,3.4873 L 3.0318,3.4873 L 3.0426,3.4873 L 3.0644,3.4873 L 3.0752,3.4873 L 3.0861,3.4873 L 3.0970,3.4873 L 3.1078,3.4873 L 3.1187,3.4873 L 3.1187,3.4982 L 3.1296,3.4982 L 3.1296,3.5091 L 3.1296,3.5200 L 3.1404,3.5309 L 3.1404,3.5418 L 3.1404,3.5527 L 3.1404,3.5636 L 3.1513,3.5745 L 3.1513,3.5854 L 3.1513,3.5963 L 3.1513,3.6072 L 3.1513,3.6181 L 3.1622,3.6399 L 3.1622,3.6508 L 3.1622,3.6617 L 3.1622,3.6726 L 3.1622,3.6835 L 3.1622,3.6944 L 3.1730,3.7162 L 3.1730,3.7271 L 3.1730,3.7380 L 3.1730,3.7489 L 3.1730,3.7707 L 3.1730,3.7816 L 3.1730,3.7925 L 3.1730,3.8143 L 3.1730,3.8252 L 3.1730,3.8361 L 3.1730,3.8470 L 3.1730,3.8797 L 3.1730,3.9124 L 3.1730,3.9668 L 3.1730,4.0213 L 3.1730,4.0867 L 3.1730,4.1521 L 3.1730,4.2284 L 3.1730,4.3156 L 3.1730,4.4028 L 3.1730,4.4899 L 3.1730,4.5880 L 3.1730,4.6861 L 3.1730,4.7842 L 3.1730,4.8823 L 3.1730,4.9804 L 3.1730,5.0784 L 3.1730,5.1765 L 3.1730,5.2746 L 3.1730,5.3618 L 3.1730,5.4490 L 3.1730,5.5361 L 3.1730,5.6124 L 3.1730,5.6778 L 3.1730,5.7432 L 3.1730,5.7977 L 3.1730,5.8522 L 3.1730,5.8849 L 3.1730,5.9176 L 3.1730,5.9285 L 3.1730,5.9394 L 3.1730,5.9503 L 3.1730,5.9721 L 3.1730,5.9830 L 3.1730,5.9939 L 3.1730,6.0157 L 3.1730,6.0266 L 3.1730,6.0375 L 3.1730,6.0483 L 3.1622,6.0701 L 3.1622,6.0810 L 3.1622,6.0919 L 3.1622,6.1028 L 3.1622,6.1137 L 3.1622,6.1246 L 3.1513,6.1464 L 3.1513,6.1573 L 3.1513,6.1682 L 3.1513,6.1791 L 3.1513,6.1900 L 3.1404,6.2009 L 3.1404,6.2118 L 3.1404,6.2227 L 3.1404,6.2336 L 3.1296,6.2445 L 3.1296,6.2554 L 3.1296,6.2663 L 3.1187,6.2663 L 3.1187,6.2772 L 3.1078,6.2772 L 3.0970,6.2772 L 3.0861,6.2772 L 3.0752,6.2772 L 3.0644,6.2772 L 3.0426,6.2772 L 3.0318,6.2772 L 3.0209,6.2772 L 2.9992,6.2772 L 2.9883,6.2772 L 2.9666,6.2772 L 2.9557,6.2772 L 2.9340,6.2772 L 2.9122,6.2772 L 2.9014,6.2772 L 2.8796,6.2772 L 2.8688,6.2772 L 2.8470,6.2772 L 2.8362,6.2772 L 2.8253,6.2772 L 2.8036,6.2772 L 2.7927,6.2772 L 2.7818,6.2772 L 2.7710,6.2772 L 2.7601,6.2772 L 2.7492,6.2772 L 2.7492,6.2663 L 2.7384,6.2663 L 2.7384,6.2554 L 2.7384,6.2445 L 2.7275,6.2336 L 2.7275,6.2227 L 2.7275,6.2118 L 2.7275,6.2009 L 2.7166,6.1900 L 2.7166,6.1791 L 2.7166,6.1682 L 2.7166,6.1573 L 2.7166,6.1464 L 2.7058,6.1246 L 2.7058,6.1137 L 2.7058,6.1028 L 2.7058,6.0919 L 2.7058,6.0810 L 2.7058,6.0701 L 2.7058,6.0483 L 2.6949,6.0375 L 2.6949,6.0266 L 2.6949,6.0157 L 2.6949,5.9939 L 2.6949,5.9830 L 2.6949,5.9721 L 2.6949,5.9503 L 2.6949,5.9394 L 2.6949,5.9285 L 2.6949,5.9176 L 2.6949,5.8849 L 2.6949,5.8522 L 2.6949,5.7977 L 2.6949,5.7432 L 2.6949,5.6778 L 2.6949,5.6124 L 2.6949,5.5361 L 2.6949,5.4490 L 2.6949,5.3618 L 2.6949,5.2746 L 2.6949,5.1765 L 2.6949,5.0784 L 2.6949,4.9804 L 2.6949,4.8823 L 2.6949,4.7842 L 2.6949,4.6861 L 2.6949,4.5880 L 2.6949,4.4899 L 2.6949,4.4028 L 2.6949,4.3156 L 2.6949,4.2284 L 2.6949,4.1521 L 2.6949,4.0867 L 2.6949,4.0213 L 2.6949,3.9668 L 2.6949,3.9124 L 2.6949,3.8797 L 2.6949,3.8470 L 2.6949,3.8361 L 2.6949,3.8252 Z" stroke="#000000" stroke-width="0.1195" stroke-linecap="round" stroke-linejoin="round" fill="none"/>
        <path d="M 2.1842,3.9450 L 2.1733,3.9342 L 2.1624,3.9233 L 2.1516,3.9342 L 2.1407,3.9450 L 2.1407,5.8195 L 2.1516,5.8304 L 2.1624,5.8413 L 2.1733,5.8304 L 2.1842,5.8195 L 2.1842,3.9450 Z" stroke="#000000" stroke-width="0.1195" stroke-linecap="round" stroke-linejoin="round" fill="#CCCC9B"/>
        <path d="M 2.0212,3.9450 L 2.0103,3.9342 L 1.9994,3.9233 L 1.9886,3.9342 L 1.9777,3.9450 L 1.9777,5.8195 L 1.9886,5.8304 L 1.9994,5.8413 L 2.0103,5.8304 L 2.0212,5.8195 L 2.0212,3.9450 Z" stroke="#000000" stroke-width="0.1195" stroke-linecap="round" stroke-linejoin="round" fill="#CCCC9B"/>
        <path d="M 1.8691,3.9450 L 1.8582,3.9342 L 1.8473,3.9233 L 1.8365,3.9342 L 1.8256,3.9450 L 1.8256,5.8195 L 1.8365,5.8304 L 1.8473,5.8413 L 1.8582,5.8304 L 1.8691,5.8195 L 1.8691,3.9450 Z" stroke="#000000" stroke-width="0.1195" stroke-linecap="round" stroke-linejoin="round" fill="#CCCC9B"/>
        <path d="M 1.7169,3.9450 L 1.7061,3.9342 L 1.6952,3.9233 L 1.6843,3.9342 L 1.6735,3.9450 L 1.6735,5.8195 L 1.6843,5.8304 L 1.6952,5.8413 L 1.7061,5.8304 L 1.7169,5.8195 L 1.7169,3.9450 Z" stroke="#000000" stroke-width="0.1195" stroke-linecap="round" stroke-linejoin="round" fill="#CCCC9B"/>
        <path d="M 2.2168,3.6944 L 2.2168,6.0701 L 2.7058,6.0701 L 2.7058,3.6944 L 2.2168,3.6944 Z" stroke="#000000" stroke-width="0.1195" stroke-linecap="round" stroke-linejoin="round" fill="#D6D6B1"/>
        <path d="M 2.2168,5.3509 L 2.2168,5.5252 L 2.7058,5.5252 L 2.7058,5.3509 L 2.2168,5.3509 Z" stroke="#E2E2CC" stroke-width="0.1195" stroke-linecap="round" stroke-linejoin="round" fill="#E2E2CC"/>
        <path d="M 2.2168,4.2393 L 2.2168,4.4137 L 2.7058,4.4137 L 2.7058,4.2393 L 2.2168,4.2393 Z" stroke="#E2E2CC" stroke-width="0.1195" stroke-linecap="round" stroke-linejoin="round" fill="#E2E2CC"/>
        <path d="M 2.2168,3.6944 L 2.2168,6.0701 L 2.7058,6.0701 L 2.7058,3.6944 L 2.2168,3.6944 Z" stroke="#000000" stroke-width="0.1195" stroke-linecap="round" stroke-linejoin="round" fill="none"/>
        <path d="M 1.5648,3.9450 L 1.5539,3.9342 L 1.5431,3.9233 L 1.5322,3.9342 L 1.5213,3.9450 L 1.5213,5.8195 L 1.5322,5.8304 L 1.5431,5.8413 L 1.5539,5.8304 L 1.5648,5.8195 L 1.5648,3.9450 Z" stroke="#000000" stroke-width="0.1195" stroke-linecap="round" stroke-linejoin="round" fill="#CCCC9B"/>
        <path d="M 1.4127,3.9450 L 1.4018,3.9342 L 1.3909,3.9233 L 1.3801,3.9342 L 1.3692,3.9450 L 1.3692,5.8195 L 1.3801,5.8304 L 1.3909,5.8413 L 1.4018,5.8304 L 1.4127,5.8195 L 1.4127,3.9450 Z" stroke="#000000" stroke-width="0.1195" stroke-linecap="round" stroke-linejoin="round" fill="#CCCC9B"/>
        <path d="M 1.2605,3.9450 L 1.2497,3.9342 L 1.2388,3.9233 L 1.2279,3.9342 L 1.2171,3.9450 L 1.2171,5.8195 L 1.2279,5.8304 L 1.2388,5.8413 L 1.2497,5.8304 L 1.2605,5.8195 L 1.2605,3.9450 Z" stroke="#000000" stroke-width="0.1195" stroke-linecap="round" stroke-linejoin="round" fill="#CCCC9B"/>
        <path d="M 1.1084,3.9450 L 1.0975,3.9342 L 1.0867,3.9233 L 1.0758,3.9342 L 1.0649,3.9450 L 1.0649,5.8195 L 1.0758,5.8304 L 1.0867,5.8413 L 1.0975,5.8304 L 1.1084,5.8195 L 1.1084,3.9450 Z" stroke="#000000" stroke-width="0.1195" stroke-linecap="round" stroke-linejoin="round" fill="#CCCC9B"/>
        <path d="M 0.9563,3.9450 L 0.9454,3.9342 L 0.9345,3.9233 L 0.9237,3.9342 L 0.9128,3.9450 L 0.9128,5.8195 L 0.9237,5.8304 L 0.9345,5.8413 L 0.9454,5.8304 L 0.9563,5.8195 L 0.9563,3.9450 Z" stroke="#000000" stroke-width="0.1195" stroke-linecap="round" stroke-linejoin="round" fill="#CCCC9B"/>
        <path d="M 0.8041,3.9450 L 0.7933,3.9342 L 0.7824,3.9233 L 0.7715,3.9342 L 0.7607,3.9450 L 0.7607,5.8195 L 0.7715,5.8304 L 0.7824,5.8413 L 0.7933,5.8304 L 0.8041,5.8195 L 0.8041,3.9450 Z" stroke="#000000" stroke-width="0.1195" stroke-linecap="round" stroke-linejoin="round" fill="#CCCC9B"/>
        <path d="M 0.6629,3.9450 L 0.6520,3.9342 L 0.6411,3.9233 L 0.6303,3.9342 L 0.6194,3.9450 L 0.6194,5.8195 L 0.6303,5.8304 L 0.6411,5.8413 L 0.6520,5.8304 L 0.6629,5.8195 L 0.6629,3.9450 Z" stroke="#000000" stroke-width="0.1195" stroke-linecap="round" stroke-linejoin="round" fill="#CCCC9B"/>
        <path d="M 0.5107,3.9450 L 0.4999,3.9342 L 0.4890,3.9233 L 0.4781,3.9342 L 0.4673,3.9450 L 0.4673,5.8195 L 0.4781,5.8304 L 0.4890,5.8413 L 0.4999,5.8304 L 0.5107,5.8195 L 0.5107,3.9450 Z" stroke="#000000" stroke-width="0.1195" stroke-linecap="round" stroke-linejoin="round" fill="#CCCC9B"/>
        <path d="M 0.3586,3.9450 L 0.3477,3.9342 L 0.3369,3.9233 L 0.3260,3.9342 L 0.3151,3.9450 L 0.3151,5.8195 L 0.3260,5.8304 L 0.3369,5.8413 L 0.3477,5.8304 L 0.3586,5.8195 L 0.3586,3.9450 Z" stroke="#000000" stroke-width="0.1195" stroke-linecap="round" stroke-linejoin="round" fill="#CCCC9B"/>
        <path d="M 0.2065,3.9450 L 0.1956,3.9342 L 0.1847,3.9233 L 0.1739,3.9342 L 0.1630,3.9450 L 0.1630,5.8195 L 0.1739,5.8304 L 0.1847,5.8413 L 0.1956,5.8304 L 0.2065,5.8195 L 0.2065,3.9450 Z" stroke="#000000" stroke-width="0.1195" stroke-linecap="round" stroke-linejoin="round" fill="#CCCC9B"/>
      </g>
      <!--emf-blob end-->
    </g>
  </g>
</svg>
