<svg xmlns="http://www.w3.org/2000/svg" xmlns:xlink="http://www.w3.org/1999/xlink" version="1.1" width="3.3120000000" height="0.6472000000" viewBox="0 0 59.6126 11.6504">
  <title><![CDATA[FML-60D]]></title>
  <g transform=" scale(4.000000) ">
    <!--converted by libvisio2svg-->
    <g transform=" translate(0.000000,0.000000) ">
      <!--emf-blob start-->
      <g transform="translate(-0.0000, -0.0000)">
        <path d="M 4.5841,1.8660 L 4.5841,2.7204 L 5.3317,2.7204 " stroke="#000000" stroke-width="0.1199" stroke-linecap="round" stroke-linejoin="round" fill="none"/>
        <path d="M 5.3317,1.8660 L 6.8072,1.8660 " stroke="#000000" stroke-width="0.1199" stroke-linecap="round" stroke-linejoin="round" fill="none"/>
        <path d="M 6.0596,1.8660 L 6.0596,2.7204 " stroke="#000000" stroke-width="0.1199" stroke-linecap="round" stroke-linejoin="round" fill="none"/>
        <path d="M 7.1811,1.8660 L 7.1811,2.7204 " stroke="#000000" stroke-width="0.1199" stroke-linecap="round" stroke-linejoin="round" fill="none"/>
        <path d="M 7.1811,1.8660 L 7.1811,2.7204 " stroke="#000000" stroke-width="0.1199" stroke-linecap="round" stroke-linejoin="round" fill="none"/>
        <path d="M 7.9090,2.7204 L 7.9090,1.8660 L 8.6566,2.7204 L 9.4042,1.8660 L 9.4042,2.7204 " stroke="#000000" stroke-width="0.1199" stroke-linecap="round" stroke-linejoin="round" fill="none"/>
        <path d="M 9.7584,2.7204 L 10.5060,1.8660 L 11.2536,2.7204 " stroke="#000000" stroke-width="0.1199" stroke-linecap="round" stroke-linejoin="round" fill="none"/>
        <path d="M 9.9551,2.5068 L 11.0569,2.5068 " stroke="#000000" stroke-width="0.1199" stroke-linecap="round" stroke-linejoin="round" fill="none"/>
        <path d="M 2.3609,2.7204 L 3.1085,1.8660 L 3.8561,2.7204 " stroke="#000000" stroke-width="0.1199" stroke-linecap="round" stroke-linejoin="round" fill="none"/>
        <path d="M 2.5576,2.5068 L 3.6594,2.5068 " stroke="#000000" stroke-width="0.1199" stroke-linecap="round" stroke-linejoin="round" fill="none"/>
        <path d="M 59.5564,0.2663 L 59.5564,0.2243 L 59.5423,0.1822 L 59.4861,0.0981 L 59.4018,0.0421 L 59.3596,0.0280 L 0.2248,0.0280 L 0.1827,0.0421 L 0.0984,0.0981 L 0.0422,0.1822 L 0.0281,0.2243 L 0.0281,11.3823 L 0.0422,11.4244 L 0.0984,11.5085 L 0.1827,11.5646 L 0.2248,11.5786 L 59.3596,11.5786 L 59.4018,11.5646 L 59.4861,11.5085 L 59.5423,11.4244 L 59.5564,11.3823 L 59.5564,11.3403 L 59.5564,0.2663 Z" stroke="#000000" stroke-width="0.1199" stroke-linecap="round" stroke-linejoin="round" fill="#EAEAEA"/>
        <path d="M 0.5200,0.6728 L 0.4637,0.6728 L 0.4497,0.6869 L 0.4356,0.6869 L 0.4216,0.7009 L 0.4075,0.7009 L 0.3794,0.7289 L 0.3654,0.7289 L 0.3654,0.7429 L 0.3513,0.7429 L 0.3373,0.7570 L 0.3373,0.7710 L 0.3092,0.7990 L 0.3092,0.8130 L 0.2811,0.8411 L 0.2811,0.8831 L 0.2670,0.8971 L 0.2670,10.7095 L 0.2811,10.7235 L 0.2811,10.7656 L 0.3092,10.7936 L 0.3092,10.8076 L 0.3373,10.8356 L 0.3373,10.8497 L 0.3513,10.8637 L 0.3654,10.8637 L 0.3654,10.8777 L 0.3794,10.8777 L 0.4075,10.9057 L 0.4216,10.9057 L 0.4356,10.9198 L 0.4497,10.9198 L 0.4637,10.9338 L 59.1207,10.9338 L 59.1348,10.9198 L 59.1489,10.9198 L 59.1629,10.9057 L 59.1770,10.9057 L 59.2051,10.8777 L 59.2191,10.8777 L 59.2191,10.8637 L 59.2332,10.8637 L 59.2472,10.8497 L 59.2472,10.8356 L 59.2753,10.8076 L 59.2753,10.7936 L 59.3034,10.7656 L 59.3034,10.7235 L 59.3175,10.7095 L 59.3175,0.8971 L 59.3034,0.8831 L 59.3034,0.8411 L 59.2753,0.8130 L 59.2753,0.7990 L 59.2472,0.7710 L 59.2472,0.7570 L 59.2332,0.7429 L 59.2191,0.7429 L 59.2191,0.7289 L 59.2051,0.7289 L 59.1770,0.7009 L 59.1629,0.7009 L 59.1489,0.6869 L 59.1348,0.6869 L 59.1207,0.6728 L 0.6886,0.6728 L 0.5200,0.6728 Z" stroke="#DDDDDD" stroke-width="0.1199" stroke-linecap="round" stroke-linejoin="round" fill="#BBCCBB"/>
        <path d="M 15.4723,8.3265 L 15.8096,8.2424 L 16.1328,8.1162 L 16.4279,7.9760 L 16.7090,7.8078 L 16.9760,7.6256 L 17.2289,7.4153 L 17.4819,7.1911 L 17.7067,6.9528 L 17.9456,6.7004 L 18.3953,6.1397 L 18.6342,5.8594 L 18.8591,5.5510 L 19.0980,5.2426 L 19.6039,4.6258 L 19.8709,4.3174 L 20.1519,3.9950 L 20.4470,3.6866 L 20.7703,3.3783 L 21.1075,3.0839 L 21.4588,2.7895 L 21.8523,2.5092 L 22.2599,2.2288 L 22.7096,1.9765 L 23.1874,1.7382 L 23.6933,1.4999 L 24.2413,1.2896 L 24.8175,1.1074 L 25.4499,0.9392 L 26.1104,0.7990 L 26.8271,0.6728 L 0.4075,0.6728 L 0.4075,0.6869 L 0.3794,0.6869 L 0.3794,0.7009 L 0.3654,0.7009 L 0.3654,0.7149 L 0.3513,0.7149 L 0.3373,0.7289 L 0.3373,0.7429 L 0.2951,0.7850 L 0.2951,0.7990 L 0.2811,0.8130 L 0.2811,0.8411 L 0.2670,0.8551 L 0.2670,8.3265 L 15.4301,8.3265 L 15.4723,8.3265 Z" stroke="#DDDDDD" stroke-width="0.1199" stroke-linecap="round" stroke-linejoin="round" fill="#EFEFEF"/>
        <path d="M 55.0313,6.5743 L 55.0313,8.2003 L 57.5047,8.2003 L 57.5047,6.5743 L 55.0313,6.5743 Z" stroke="#EDEDED" stroke-width="0.1199" stroke-linecap="round" stroke-linejoin="round" fill="#EFEFEF"/>
        <path d="M 52.2067,4.3875 L 54.2865,4.3875 L 54.2865,5.9855 L 52.2067,5.9855 L 52.2067,4.3875 Z" stroke="#EDEDED" stroke-width="0.1199" stroke-linecap="round" stroke-linejoin="round" fill="#EFEFEF"/>
        <path d="M 58.2354,5.9855 L 59.3315,5.9855 L 59.3315,4.3875 L 58.2354,4.3875 L 58.2354,5.9855 Z" stroke="#EDEDED" stroke-width="0.1199" stroke-linecap="round" stroke-linejoin="round" fill="#EFEFEF"/>
        <path d="M 54.2865,6.5883 L 54.2865,8.2143 L 53.7244,8.2143 L 53.6401,8.2003 L 53.5417,8.1863 L 53.2888,8.1443 L 53.2045,8.1162 L 53.1201,8.1022 L 53.0499,8.0742 L 52.9656,8.0321 L 52.7548,7.9060 L 52.6845,7.8499 L 52.6283,7.7938 L 52.4597,7.5836 L 52.3753,7.4153 L 52.3332,7.3172 L 52.3051,7.2191 L 52.2489,6.9948 L 52.2348,6.8687 L 52.2067,6.5883 L 54.2584,6.5883 L 54.2865,6.5883 Z" stroke="#EDEDED" stroke-width="0.1199" stroke-linecap="round" stroke-linejoin="round" fill="#EFEFEF"/>
        <path d="M 55.0313,2.1587 L 55.0313,3.7848 L 57.5047,3.7848 L 57.5047,2.1587 L 55.0313,2.1587 Z" stroke="#EDEDED" stroke-width="0.1199" stroke-linecap="round" stroke-linejoin="round" fill="#EFEFEF"/>
        <path d="M 54.2865,3.7848 L 54.2865,2.1587 L 53.7244,2.1587 L 53.6401,2.1727 L 53.5417,2.1868 L 53.2888,2.2288 L 53.2045,2.2568 L 53.1201,2.2709 L 53.0499,2.2989 L 52.9656,2.3409 L 52.7548,2.4671 L 52.6845,2.5232 L 52.6283,2.5792 L 52.4597,2.7895 L 52.3753,2.9577 L 52.3332,3.0558 L 52.3051,3.1540 L 52.2489,3.3783 L 52.2348,3.5044 L 52.2067,3.7848 L 54.2584,3.7848 L 54.2865,3.7848 Z" stroke="#EDEDED" stroke-width="0.1199" stroke-linecap="round" stroke-linejoin="round" fill="#EFEFEF"/>
        <path d="M 58.2354,6.5743 L 58.2354,8.2003 L 59.3315,8.2003 L 59.3315,6.5743 L 58.2354,6.5743 Z" stroke="#EDEDED" stroke-width="0.1199" stroke-linecap="round" stroke-linejoin="round" fill="#EFEFEF"/>
        <path d="M 58.2354,2.1587 L 58.2354,3.7848 L 59.3315,3.7848 L 59.3315,2.1587 L 58.2354,2.1587 Z" stroke="#EDEDED" stroke-width="0.1199" stroke-linecap="round" stroke-linejoin="round" fill="#EFEFEF"/>
        <path d="M 2.3109,2.7939 L 2.2955,2.7939 L 2.2877,2.7861 L 2.2800,2.7861 L 2.2568,2.7627 L 2.2568,2.7550 L 2.2491,2.7472 L 2.2491,1.8444 L 2.2568,1.8366 L 2.2568,1.8289 L 2.2646,1.8211 L 2.2723,1.8211 L 2.2723,1.8133 L 2.2800,1.8055 L 2.2877,1.8055 L 2.2955,1.7977 L 3.3466,1.7977 L 3.3543,1.8055 L 3.3620,1.8055 L 3.3852,1.8289 L 3.3852,1.8366 L 3.3930,1.8444 L 3.3930,2.0234 L 3.3852,2.0234 L 3.3852,2.0156 L 3.3775,2.0156 L 3.3775,2.0079 L 3.3698,2.0079 L 3.3698,2.0001 L 3.3543,2.0001 L 3.3543,1.9923 L 2.5041,1.9923 L 2.5041,2.0001 L 2.4887,2.0001 L 2.4887,2.0079 L 2.4810,2.0079 L 2.4810,2.0234 L 2.4732,2.0234 L 2.4732,2.7627 L 2.4810,2.7627 L 2.4810,2.7783 L 2.4887,2.7783 L 2.4887,2.7861 L 2.4964,2.7861 L 2.4964,2.7939 L 2.3187,2.7939 L 2.3109,2.7939 Z" stroke="#000000" stroke-width="0.1199" stroke-linecap="round" stroke-linejoin="round" fill="#000000"/>
        <path d="M 3.3157,2.2180 L 2.5505,2.2180 L 2.5505,2.2102 L 2.5351,2.2102 L 2.5351,2.2024 L 2.5273,2.2024 L 2.5273,2.1868 L 2.5196,2.1868 L 2.5196,2.3814 L 2.5273,2.3814 L 2.5273,2.3970 L 2.5351,2.3970 L 2.5351,2.4048 L 2.5505,2.4048 L 2.5505,2.4125 L 3.3311,2.4125 L 3.3466,2.3970 L 3.3543,2.3970 L 3.3698,2.3814 L 3.3698,2.3736 L 3.3775,2.3658 L 3.3775,2.3581 L 3.3852,2.3503 L 3.3852,2.3347 L 3.3930,2.3269 L 3.3930,2.3036 L 3.3852,2.2958 L 3.3852,2.2725 L 3.3698,2.2569 L 3.3698,2.2491 L 3.3620,2.2413 L 3.3543,2.2413 L 3.3543,2.2335 L 3.3466,2.2335 L 3.3389,2.2258 L 3.3311,2.2258 L 3.3234,2.2180 L 3.3157,2.2180 Z" stroke="#000000" stroke-width="0.1199" stroke-linecap="round" stroke-linejoin="round" fill="#000000"/>
        <path d="M 5.1010,2.4125 L 5.0856,2.4125 L 5.0856,2.4048 L 5.0701,2.4048 L 5.0701,2.3970 L 5.0624,2.3970 L 5.0624,2.3814 L 5.0547,2.3814 L 5.0547,2.1868 L 5.0624,2.1868 L 5.0624,2.2024 L 5.0701,2.2024 L 5.0701,2.2102 L 5.0856,2.2102 L 5.0856,2.2180 L 5.7039,2.2180 L 5.7039,1.9923 L 5.0392,1.9923 L 5.0392,2.0001 L 5.0238,2.0001 L 5.0238,2.0079 L 5.0160,2.0079 L 5.0160,2.0234 L 5.0083,2.0234 L 5.0083,2.7627 L 5.0160,2.7627 L 5.0160,2.7783 L 5.0238,2.7783 L 5.0238,2.7861 L 5.0315,2.7861 L 5.0315,2.7939 L 4.8305,2.7939 L 4.8228,2.7861 L 4.8151,2.7861 L 4.7919,2.7627 L 4.7919,2.7550 L 4.7842,2.7472 L 4.7842,1.8444 L 4.7919,1.8366 L 4.7919,1.8289 L 4.7996,1.8211 L 4.8073,1.8211 L 4.8073,1.8133 L 4.8151,1.8055 L 4.8228,1.8055 L 4.8305,1.7977 L 5.8817,1.7977 L 5.8894,1.8055 L 5.8971,1.8055 L 5.9203,1.8289 L 5.9203,1.8366 L 5.9280,1.8444 L 5.9280,2.3347 L 5.9203,2.3425 L 5.9203,2.3581 L 5.9126,2.3581 L 5.9126,2.3658 L 5.9048,2.3736 L 5.9048,2.3814 L 5.8971,2.3814 L 5.8971,2.3892 L 5.8894,2.3892 L 5.8894,2.3970 L 5.8817,2.3970 L 5.8817,2.4048 L 5.8739,2.4048 L 5.8662,2.4125 L 5.8739,2.4203 L 5.8817,2.4203 L 5.8817,2.4281 L 5.8894,2.4281 L 5.8894,2.4359 L 5.8971,2.4359 L 5.8971,2.4437 L 5.9048,2.4437 L 5.9048,2.4514 L 5.9126,2.4592 L 5.9126,2.4670 L 5.9203,2.4670 L 5.9203,2.4826 L 5.9280,2.4904 L 5.9280,2.7627 L 5.9358,2.7627 L 5.9358,2.7783 L 5.9435,2.7783 L 5.9435,2.7861 L 5.9512,2.7861 L 5.9512,2.7939 L 5.7503,2.7939 L 5.7425,2.7861 L 5.7348,2.7861 L 5.7116,2.7627 L 5.7116,2.7550 L 5.7039,2.7472 L 5.7039,2.4125 L 5.1088,2.4125 L 5.1010,2.4125 Z" stroke="#000000" stroke-width="0.1199" stroke-linecap="round" stroke-linejoin="round" fill="#000000"/>
        <path d="M 6.3299,1.9923 L 6.0981,1.9923 L 6.0903,1.9845 L 6.0826,1.9845 L 6.0594,1.9612 L 6.0594,1.9534 L 6.0517,1.9456 L 6.0517,1.8444 L 6.0594,1.8366 L 6.0594,1.8289 L 6.0671,1.8211 L 6.0749,1.8211 L 6.0749,1.8133 L 6.0826,1.8055 L 6.0903,1.8055 L 6.0981,1.7977 L 7.1492,1.7977 L 7.1569,1.8055 L 7.1646,1.8055 L 7.1878,1.8289 L 7.1878,1.8366 L 7.1956,1.8444 L 7.1956,2.0234 L 7.1878,2.0234 L 7.1878,2.0156 L 7.1801,2.0156 L 7.1801,2.0079 L 7.1724,2.0079 L 7.1724,2.0001 L 7.1569,2.0001 L 7.1569,1.9923 L 6.5850,1.9923 L 6.5850,2.0001 L 6.5695,2.0001 L 6.5695,2.0079 L 6.5618,2.0079 L 6.5618,2.0234 L 6.5541,2.0234 L 6.5541,2.7627 L 6.5618,2.7627 L 6.5618,2.7783 L 6.5695,2.7783 L 6.5695,2.7861 L 6.5772,2.7861 L 6.5772,2.7939 L 6.3763,2.7939 L 6.3686,2.7861 L 6.3608,2.7861 L 6.3377,2.7627 L 6.3377,2.7550 L 6.3299,2.7472 L 6.3299,2.0156 L 6.3299,1.9923 Z" stroke="#000000" stroke-width="0.1199" stroke-linecap="round" stroke-linejoin="round" fill="#000000"/>
        <path d="M 7.5434,2.7394 L 7.5434,2.7627 L 7.5511,2.7627 L 7.5511,2.7783 L 7.5588,2.7783 L 7.5588,2.7861 L 7.5665,2.7861 L 7.5665,2.7939 L 7.3656,2.7939 L 7.3579,2.7861 L 7.3501,2.7861 L 7.3269,2.7627 L 7.3269,2.7550 L 7.3192,2.7472 L 7.3192,1.8289 L 7.3115,1.8289 L 7.3115,1.8133 L 7.3038,1.8133 L 7.3038,1.8055 L 7.2960,1.8055 L 7.2960,1.7977 L 7.4970,1.7977 L 7.5047,1.8055 L 7.5124,1.8055 L 7.5356,1.8289 L 7.5356,1.8366 L 7.5434,1.8444 L 7.5434,2.7316 L 7.5434,2.7394 Z" stroke="#000000" stroke-width="0.1199" stroke-linecap="round" stroke-linejoin="round" fill="#000000"/>
        <path d="M 8.6409,1.9923 L 7.9762,1.9923 L 7.9762,2.0001 L 7.9607,2.0001 L 7.9607,2.0079 L 7.9530,2.0079 L 7.9530,2.0234 L 7.9453,2.0234 L 7.9453,2.7627 L 7.9530,2.7627 L 7.9530,2.7783 L 7.9607,2.7783 L 7.9607,2.7861 L 7.9684,2.7861 L 7.9684,2.7939 L 7.7675,2.7939 L 7.7598,2.7861 L 7.7520,2.7861 L 7.7288,2.7627 L 7.7288,2.7550 L 7.7211,2.7472 L 7.7211,1.8444 L 7.7288,1.8366 L 7.7288,1.8289 L 7.7366,1.8211 L 7.7443,1.8211 L 7.7443,1.8133 L 7.7520,1.8055 L 7.7598,1.8055 L 7.7675,1.7977 L 8.8186,1.7977 L 8.8263,1.8055 L 8.8341,1.8055 L 8.8573,1.8289 L 8.8573,1.8366 L 8.8650,1.8444 L 8.8650,2.7627 L 8.8727,2.7627 L 8.8727,2.7783 L 8.8804,2.7783 L 8.8804,2.7861 L 8.8882,2.7861 L 8.8882,2.7939 L 8.6872,2.7939 L 8.6795,2.7861 L 8.6718,2.7861 L 8.6486,2.7627 L 8.6486,2.7550 L 8.6409,2.7472 L 8.6409,2.0156 L 8.6409,1.9923 Z" stroke="#000000" stroke-width="0.1199" stroke-linecap="round" stroke-linejoin="round" fill="#000000"/>
        <path d="M 10.0011,2.2180 L 9.2901,2.2180 L 9.2823,2.2102 L 9.2746,2.2102 L 9.2746,2.2024 L 9.2669,2.2024 L 9.2669,2.1868 L 9.2592,2.1868 L 9.2592,2.3814 L 9.2669,2.3814 L 9.2669,2.3970 L 9.2746,2.3970 L 9.2746,2.4048 L 9.2823,2.4048 L 9.2901,2.4125 L 10.0089,2.4125 L 10.0243,2.3970 L 10.0320,2.3970 L 10.0475,2.3814 L 10.0475,2.3736 L 10.0552,2.3658 L 10.0552,2.3581 L 10.0630,2.3503 L 10.0630,2.3347 L 10.0707,2.3269 L 10.0707,2.2958 L 10.0630,2.2880 L 10.0630,2.2647 L 10.0552,2.2647 L 10.0552,2.2569 L 10.0320,2.2335 L 10.0243,2.2335 L 10.0243,2.2258 L 10.0166,2.2258 L 10.0089,2.2180 L 10.0011,2.2180 Z" stroke="#000000" stroke-width="0.1199" stroke-linecap="round" stroke-linejoin="round" fill="#000000"/>
        <path d="M 10.5344,1.9923 L 10.3026,1.9923 L 10.2948,1.9845 L 10.2871,1.9845 L 10.2639,1.9612 L 10.2639,1.9534 L 10.2562,1.9456 L 10.2562,1.8444 L 10.2639,1.8366 L 10.2639,1.8289 L 10.2716,1.8211 L 10.2794,1.8211 L 10.2794,1.8133 L 10.2871,1.8055 L 10.2948,1.8055 L 10.3026,1.7977 L 11.3537,1.7977 L 11.3614,1.8055 L 11.3691,1.8055 L 11.3923,1.8289 L 11.3923,1.8366 L 11.4000,1.8444 L 11.4000,2.0234 L 11.3923,2.0234 L 11.3923,2.0156 L 11.3846,2.0156 L 11.3846,2.0079 L 11.3769,2.0079 L 11.3769,2.0001 L 11.3614,2.0001 L 11.3614,1.9923 L 10.7895,1.9923 L 10.7895,2.0001 L 10.7740,2.0001 L 10.7740,2.0079 L 10.7663,2.0079 L 10.7663,2.0234 L 10.7586,2.0234 L 10.7586,2.7627 L 10.7663,2.7627 L 10.7663,2.7783 L 10.7740,2.7783 L 10.7740,2.7861 L 10.7817,2.7861 L 10.7817,2.7939 L 10.5808,2.7939 L 10.5731,2.7861 L 10.5653,2.7861 L 10.5421,2.7627 L 10.5421,2.7550 L 10.5344,2.7472 L 10.5344,2.0156 L 10.5344,1.9923 Z" stroke="#000000" stroke-width="0.1199" stroke-linecap="round" stroke-linejoin="round" fill="#000000"/>
        <path d="M 10.0784,2.5993 L 10.0939,2.5993 L 10.0939,2.5915 L 10.1093,2.5915 L 10.1093,2.5837 L 10.1171,2.5837 L 10.1171,2.5760 L 10.1248,2.5760 L 10.1248,2.5682 L 10.1325,2.5682 L 10.1325,2.7472 L 10.1248,2.7550 L 10.1248,2.7627 L 10.1171,2.7705 L 10.1171,2.7783 L 10.1093,2.7783 L 10.1016,2.7861 L 10.0939,2.7861 L 10.0861,2.7939 L 9.0350,2.7939 L 9.0273,2.7861 L 9.0196,2.7861 L 8.9964,2.7627 L 8.9964,2.7550 L 8.9886,2.7472 L 8.9886,1.8444 L 8.9964,1.8366 L 8.9964,1.8289 L 9.0041,1.8211 L 9.0118,1.8211 L 9.0118,1.8133 L 9.0196,1.8055 L 9.0273,1.8055 L 9.0350,1.7977 L 10.0861,1.7977 L 10.0939,1.8055 L 10.1016,1.8055 L 10.1248,1.8289 L 10.1248,1.8366 L 10.1325,1.8444 L 10.1325,2.0234 L 10.1248,2.0234 L 10.1248,2.0156 L 10.1171,2.0156 L 10.1171,2.0079 L 10.1093,2.0079 L 10.1093,2.0001 L 10.0939,2.0001 L 10.0939,1.9923 L 9.2437,1.9923 L 9.2437,2.0001 L 9.2282,2.0001 L 9.2282,2.0079 L 9.2205,2.0079 L 9.2205,2.0234 L 9.2128,2.0234 L 9.2128,2.5993 L 10.0707,2.5993 L 10.0784,2.5993 Z" stroke="#000000" stroke-width="0.1199" stroke-linecap="round" stroke-linejoin="round" fill="#000000"/>
        <path d="M 3.9031,2.5059 L 3.9031,2.7939 L 4.2741,2.7939 L 4.2741,2.5059 L 3.9031,2.5059 Z" stroke="#ED3440" stroke-width="0.1199" stroke-linecap="round" stroke-linejoin="round" fill="#ED3440"/>
        <path d="M 3.5166,2.1557 L 3.8335,2.1557 L 3.8335,2.4359 L 3.5166,2.4359 L 3.5166,2.1557 Z" stroke="#ED3440" stroke-width="0.1199" stroke-linecap="round" stroke-linejoin="round" fill="#ED3440"/>
        <path d="M 4.3436,2.5059 L 4.3436,2.7939 L 4.4595,2.7939 L 4.4673,2.7861 L 4.4982,2.7861 L 4.5059,2.7783 L 4.5214,2.7783 L 4.5368,2.7705 L 4.5446,2.7627 L 4.5600,2.7550 L 4.5755,2.7394 L 4.5909,2.7316 L 4.5987,2.7238 L 4.6064,2.7083 L 4.6141,2.7005 L 4.6450,2.6382 L 4.6450,2.6227 L 4.6528,2.5993 L 4.6528,2.5760 L 4.6605,2.5526 L 4.6605,2.5059 L 4.3513,2.5059 L 4.3436,2.5059 Z" stroke="#ED3440" stroke-width="0.1199" stroke-linecap="round" stroke-linejoin="round" fill="#ED3440"/>
        <path d="M 4.3436,2.1557 L 4.6605,2.1557 L 4.6605,2.4359 L 4.3436,2.4359 L 4.3436,2.1557 Z" stroke="#ED3440" stroke-width="0.1199" stroke-linecap="round" stroke-linejoin="round" fill="#ED3440"/>
        <path d="M 3.8335,2.5059 L 3.8335,2.7939 L 3.7176,2.7939 L 3.7098,2.7861 L 3.6789,2.7861 L 3.6712,2.7783 L 3.6557,2.7783 L 3.6403,2.7705 L 3.6326,2.7627 L 3.6171,2.7550 L 3.6016,2.7394 L 3.5862,2.7316 L 3.5785,2.7238 L 3.5707,2.7083 L 3.5630,2.7005 L 3.5321,2.6382 L 3.5321,2.6227 L 3.5244,2.5993 L 3.5244,2.5760 L 3.5166,2.5526 L 3.5166,2.5059 L 3.8258,2.5059 L 3.8335,2.5059 Z" stroke="#ED3440" stroke-width="0.1199" stroke-linecap="round" stroke-linejoin="round" fill="#ED3440"/>
        <path d="M 3.9031,1.7977 L 3.9031,2.0857 L 4.2741,2.0857 L 4.2741,1.7977 L 3.9031,1.7977 Z" stroke="#ED3440" stroke-width="0.1199" stroke-linecap="round" stroke-linejoin="round" fill="#ED3440"/>
        <path d="M 4.3436,2.0857 L 4.3436,1.7977 L 4.4595,1.7977 L 4.4673,1.8055 L 4.4982,1.8055 L 4.5059,1.8133 L 4.5214,1.8133 L 4.5368,1.8211 L 4.5446,1.8289 L 4.5600,1.8366 L 4.5755,1.8522 L 4.5909,1.8600 L 4.5987,1.8678 L 4.6064,1.8833 L 4.6141,1.8911 L 4.6450,1.9534 L 4.6450,1.9689 L 4.6528,1.9923 L 4.6528,2.0156 L 4.6605,2.0390 L 4.6605,2.0857 L 4.3513,2.0857 L 4.3436,2.0857 Z" stroke="#ED3440" stroke-width="0.1199" stroke-linecap="round" stroke-linejoin="round" fill="#ED3440"/>
        <path d="M 3.8335,2.0857 L 3.8335,1.7977 L 3.7176,1.7977 L 3.7098,1.8055 L 3.6789,1.8055 L 3.6712,1.8133 L 3.6557,1.8133 L 3.6403,1.8211 L 3.6326,1.8289 L 3.6171,1.8366 L 3.6016,1.8522 L 3.5862,1.8600 L 3.5785,1.8678 L 3.5707,1.8833 L 3.5630,1.8911 L 3.5321,1.9534 L 3.5321,1.9689 L 3.5244,1.9923 L 3.5244,2.0156 L 3.5166,2.0390 L 3.5166,2.0857 L 3.8258,2.0857 L 3.8335,2.0857 Z" stroke="#ED3440" stroke-width="0.1199" stroke-linecap="round" stroke-linejoin="round" fill="#ED3440"/>
        <text font-family="Symbol" fill="#000000" style="white-space:pre;" text-anchor="start" x="10.8528" y="2.8548" font-size="0.4819"><![CDATA[]]></text>
        <text font-family="Arial" fill="#000000" style="white-space:pre;" font-weight="400" text-anchor="start" x="11.6334" y="3.4163" font-size="0.1222"><![CDATA[FortiMail 60D]]></text>
        <ellipse cx="2.4642" cy="7.3996" rx="0.3228" ry="0.3149" fill="#00FF00" stroke="#000000" stroke-width="0.1199" stroke-linecap="round" stroke-linejoin="round"/>
        <ellipse cx="2.4642" cy="7.3996" rx="0.3228" ry="0.3149" fill="none" stroke="#000000" stroke-width="0.1199" stroke-linecap="round" stroke-linejoin="round"/>
        <ellipse cx="2.4642" cy="8.8008" rx="0.3228" ry="0.3149" fill="#00FF00" stroke="#000000" stroke-width="0.1199" stroke-linecap="round" stroke-linejoin="round"/>
        <ellipse cx="2.4642" cy="8.8008" rx="0.3228" ry="0.3149" fill="none" stroke="#000000" stroke-width="0.1199" stroke-linecap="round" stroke-linejoin="round"/>
        <text font-family="Arial" fill="#000000" style="white-space:pre;" font-weight="400" text-anchor="start" x="4.8969" y="12.3573" font-size="0.1732"><![CDATA[CONSOLE]]></text>
        <text font-family="Arial" fill="#000000" style="white-space:pre;" font-weight="400" text-anchor="start" x="9.6048" y="12.3573" font-size="0.1732"><![CDATA[USB]]></text>
        <text font-family="Arial" fill="#000000" style="white-space:pre;" font-weight="400" text-anchor="start" x="4.2041" y="12.1212" font-size="0.1732"><![CDATA[HDD]]></text>
        <text font-family="Arial" fill="#000000" style="white-space:pre;" font-weight="400" text-anchor="start" x="4.2041" y="11.7276" font-size="0.1732"><![CDATA[PWR]]></text>
        <path d="M 9.2607,5.3433 L 4.9488,5.3433 L 4.9488,9.2000 L 9.2607,9.2000 L 9.2607,5.3433 Z" stroke="#0A0A0A" stroke-width="0.1199" stroke-linecap="round" stroke-linejoin="round" fill="#BFBFBF"/>
        <text font-family="Arial" fill="#000000" style="white-space:pre;" font-weight="400" text-anchor="start" x="11.1256" y="7.9758" font-size="0.1001"><![CDATA[1]]></text>
        <path d="M 36.3698,5.3433 L 32.0578,5.3433 L 32.0578,9.2000 L 36.3698,9.2000 L 36.3698,5.3433 Z" stroke="#0A0A0A" stroke-width="0.1199" stroke-linecap="round" stroke-linejoin="round" fill="#EFEFEF"/>
        <text font-family="Arial" fill="#000000" style="white-space:pre;" font-weight="400" text-anchor="start" x="39.1898" y="7.9758" font-size="0.1001"><![CDATA[2]]></text>
        <path d="M 42.2737,5.3433 L 37.9618,5.3433 L 37.9618,9.2000 L 42.2737,9.2000 L 42.2737,5.3433 Z" stroke="#0A0A0A" stroke-width="0.1199" stroke-linecap="round" stroke-linejoin="round" fill="#EFEFEF"/>
        <text font-family="Arial" fill="#000000" style="white-space:pre;" font-weight="400" text-anchor="start" x="46.0581" y="7.9758" font-size="0.1001"><![CDATA[3]]></text>
        <path d="M 48.2323,5.3433 L 43.9203,5.3433 L 43.9203,9.2000 L 48.2323,9.2000 L 48.2323,5.3433 Z" stroke="#0A0A0A" stroke-width="0.1199" stroke-linecap="round" stroke-linejoin="round" fill="#EFEFEF"/>
        <text font-family="Arial" fill="#000000" style="white-space:pre;" font-weight="400" text-anchor="start" x="52.9718" y="7.9758" font-size="0.1001"><![CDATA[4]]></text>
        <path d="M 54.1362,5.3433 L 49.8242,5.3433 L 49.8242,9.2000 L 54.1362,9.2000 L 54.1362,5.3433 Z" stroke="#0A0A0A" stroke-width="0.1199" stroke-linecap="round" stroke-linejoin="round" fill="#EFEFEF"/>
        <path d="M 5.2874,8.4590 L 5.2874,6.3373 L 6.1803,6.3373 L 6.1803,5.8381 L 6.5430,5.8381 L 6.5430,5.3389 L 7.6033,5.3389 L 7.6033,5.8381 L 7.9660,5.8381 L 7.9660,6.3373 L 8.8589,6.3373 L 8.8589,8.4590 L 5.2874,8.4590 Z" stroke="#161616" stroke-width="0.1199" stroke-linecap="round" stroke-linejoin="round" fill="#000000"/>
        <path d="M 21.6688,5.1722 L 21.6335,5.1722 L 21.6335,5.1839 L 21.6100,5.1839 L 21.5983,5.1955 L 21.5865,5.1955 L 21.5865,5.2071 L 21.5748,5.2071 L 21.5748,5.2187 L 21.5630,5.2187 L 21.5630,5.2304 L 21.5513,5.2420 L 21.5513,5.2652 L 21.5395,5.2652 L 21.5395,6.4043 L 21.5513,6.4043 L 21.5513,6.4275 L 21.5630,6.4392 L 21.5630,6.4508 L 21.5748,6.4508 L 21.5748,6.4624 L 21.5865,6.4624 L 21.5865,6.4740 L 21.5983,6.4740 L 21.6100,6.4857 L 21.6335,6.4857 L 21.6335,6.4973 L 24.5712,6.4973 L 24.5712,6.4857 L 24.5948,6.4857 L 24.6065,6.4740 L 24.6183,6.4740 L 24.6183,6.4624 L 24.6300,6.4624 L 24.6300,6.4508 L 24.6418,6.4508 L 24.6418,6.4392 L 24.6535,6.4275 L 24.6535,6.4043 L 24.6653,6.4043 L 24.6653,5.2652 L 24.6535,5.2652 L 24.6535,5.2420 L 24.6418,5.2304 L 24.6418,5.2187 L 24.6300,5.2187 L 24.6300,5.2071 L 24.6183,5.2071 L 24.6183,5.1955 L 24.6065,5.1955 L 24.5948,5.1839 L 24.5712,5.1839 L 24.5712,5.1722 L 21.6805,5.1722 L 21.6688,5.1722 Z" stroke="#000000" stroke-width="0.1199" stroke-linecap="round" stroke-linejoin="round" fill="#BFBFBF"/>
        <path d="M 21.7158,5.2769 L 21.6805,5.2769 L 21.6805,5.2885 L 21.6688,5.2885 L 21.6688,5.3001 L 21.6570,5.3001 L 21.6570,5.3117 L 21.6453,5.3117 L 21.6453,6.3578 L 21.6570,6.3694 L 21.6570,6.3810 L 21.6688,6.3810 L 21.6688,6.3927 L 21.6805,6.3927 L 21.6923,6.4043 L 24.5242,6.4043 L 24.5242,6.3927 L 24.5360,6.3927 L 24.5360,6.3810 L 24.5477,6.3810 L 24.5477,6.3694 L 24.5595,6.3578 L 24.5595,5.3117 L 24.5477,5.3117 L 24.5477,5.3001 L 24.5360,5.2885 L 24.5242,5.2885 L 24.5242,5.2769 L 21.7275,5.2769 L 21.7158,5.2769 Z" stroke="#333333" stroke-width="0.1199" stroke-linecap="round" stroke-linejoin="round" fill="#000000"/>
        <path d="M 22.3386,5.8580 L 22.0800,5.8580 L 22.0800,5.7999 L 22.3386,5.7999 L 22.3386,5.8580 Z" stroke="#000000" stroke-width="0.1199" stroke-linecap="round" stroke-linejoin="round" fill="#E2E2CC"/>
        <path d="M 22.9261,5.8580 L 22.6676,5.8580 L 22.6676,5.7999 L 22.9261,5.7999 L 22.9261,5.8580 Z" stroke="#000000" stroke-width="0.1199" stroke-linecap="round" stroke-linejoin="round" fill="#E2E2CC"/>
        <path d="M 23.5019,5.8580 L 23.2434,5.8580 L 23.2434,5.7999 L 23.5019,5.7999 L 23.5019,5.8580 Z" stroke="#000000" stroke-width="0.1199" stroke-linecap="round" stroke-linejoin="round" fill="#E2E2CC"/>
        <path d="M 24.1012,5.8580 L 23.8427,5.8580 L 23.8427,5.7999 L 24.1012,5.7999 L 24.1012,5.8580 Z" stroke="#000000" stroke-width="0.1199" stroke-linecap="round" stroke-linejoin="round" fill="#E2E2CC"/>
        <path d="M 24.3832,5.4977 L 24.3832,5.4744 L 24.3715,5.4512 L 24.3480,5.4396 L 21.8568,5.4396 L 21.8333,5.4512 L 21.8215,5.4744 L 21.8215,5.7650 L 21.8333,5.7883 L 21.8568,5.7999 L 24.3480,5.7999 L 24.3715,5.7883 L 24.3832,5.7650 L 24.3832,5.7418 L 24.3832,5.4977 Z" stroke="#000000" stroke-width="0.1199" stroke-linecap="round" stroke-linejoin="round" fill="#7F7F7F"/>
        <path d="M 24.2892,5.6139 L 24.2775,5.5674 L 24.2305,5.5209 L 24.1835,5.5093 L 22.0213,5.5093 L 21.9743,5.5209 L 21.9273,5.5674 L 21.9155,5.6139 L 21.9273,5.6604 L 21.9743,5.7069 L 22.0213,5.7185 L 24.1835,5.7185 L 24.2305,5.7069 L 24.2775,5.6604 L 24.2892,5.6139 Z" stroke="#999999" stroke-width="0.1199" stroke-linecap="round" stroke-linejoin="round" fill="#999999"/>
        <path d="M 21.6688,7.1947 L 21.6335,7.1947 L 21.6335,7.2063 L 21.6100,7.2063 L 21.5983,7.2179 L 21.5865,7.2179 L 21.5865,7.2295 L 21.5748,7.2295 L 21.5748,7.2411 L 21.5630,7.2411 L 21.5630,7.2528 L 21.5513,7.2644 L 21.5513,7.2876 L 21.5395,7.2876 L 21.5395,8.4267 L 21.5513,8.4267 L 21.5513,8.4499 L 21.5630,8.4616 L 21.5630,8.4732 L 21.5748,8.4732 L 21.5748,8.4848 L 21.5865,8.4848 L 21.5865,8.4964 L 21.5983,8.4964 L 21.6100,8.5081 L 21.6335,8.5081 L 21.6335,8.5197 L 24.5712,8.5197 L 24.5712,8.5081 L 24.5948,8.5081 L 24.6065,8.4964 L 24.6183,8.4964 L 24.6183,8.4848 L 24.6300,8.4848 L 24.6300,8.4732 L 24.6418,8.4732 L 24.6418,8.4616 L 24.6535,8.4499 L 24.6535,8.4267 L 24.6653,8.4267 L 24.6653,7.2876 L 24.6535,7.2876 L 24.6535,7.2644 L 24.6418,7.2528 L 24.6418,7.2411 L 24.6300,7.2411 L 24.6300,7.2295 L 24.6183,7.2295 L 24.6183,7.2179 L 24.6065,7.2179 L 24.5948,7.2063 L 24.5712,7.2063 L 24.5712,7.1947 L 21.6805,7.1947 L 21.6688,7.1947 Z" stroke="#000000" stroke-width="0.1199" stroke-linecap="round" stroke-linejoin="round" fill="#BFBFBF"/>
        <path d="M 21.7158,7.2993 L 21.6805,7.2993 L 21.6805,7.3109 L 21.6688,7.3109 L 21.6688,7.3225 L 21.6570,7.3225 L 21.6570,7.3341 L 21.6453,7.3341 L 21.6453,8.3802 L 21.6570,8.3918 L 21.6570,8.4035 L 21.6688,8.4035 L 21.6688,8.4151 L 21.6805,8.4151 L 21.6923,8.4267 L 24.5242,8.4267 L 24.5242,8.4151 L 24.5360,8.4151 L 24.5360,8.4035 L 24.5477,8.4035 L 24.5477,8.3918 L 24.5595,8.3802 L 24.5595,7.3341 L 24.5477,7.3341 L 24.5477,7.3225 L 24.5360,7.3109 L 24.5242,7.3109 L 24.5242,7.2993 L 21.7275,7.2993 L 21.7158,7.2993 Z" stroke="#333333" stroke-width="0.1199" stroke-linecap="round" stroke-linejoin="round" fill="#000000"/>
        <path d="M 22.3386,7.8804 L 22.0800,7.8804 L 22.0800,7.8223 L 22.3386,7.8223 L 22.3386,7.8804 Z" stroke="#000000" stroke-width="0.1199" stroke-linecap="round" stroke-linejoin="round" fill="#E2E2CC"/>
        <path d="M 22.9261,7.8804 L 22.6676,7.8804 L 22.6676,7.8223 L 22.9261,7.8223 L 22.9261,7.8804 Z" stroke="#000000" stroke-width="0.1199" stroke-linecap="round" stroke-linejoin="round" fill="#E2E2CC"/>
        <path d="M 23.5019,7.8804 L 23.2434,7.8804 L 23.2434,7.8223 L 23.5019,7.8223 L 23.5019,7.8804 Z" stroke="#000000" stroke-width="0.1199" stroke-linecap="round" stroke-linejoin="round" fill="#E2E2CC"/>
        <path d="M 24.1012,7.8804 L 23.8427,7.8804 L 23.8427,7.8223 L 24.1012,7.8223 L 24.1012,7.8804 Z" stroke="#000000" stroke-width="0.1199" stroke-linecap="round" stroke-linejoin="round" fill="#E2E2CC"/>
        <path d="M 24.3832,7.5201 L 24.3832,7.4969 L 24.3715,7.4736 L 24.3480,7.4620 L 21.8568,7.4620 L 21.8333,7.4736 L 21.8215,7.4969 L 21.8215,7.7874 L 21.8333,7.8107 L 21.8568,7.8223 L 24.3480,7.8223 L 24.3715,7.8107 L 24.3832,7.7874 L 24.3832,7.7642 L 24.3832,7.5201 Z" stroke="#000000" stroke-width="0.1199" stroke-linecap="round" stroke-linejoin="round" fill="#7F7F7F"/>
        <path d="M 24.2892,7.6363 L 24.2775,7.5898 L 24.2305,7.5433 L 24.1835,7.5317 L 22.0213,7.5317 L 21.9743,7.5433 L 21.9273,7.5898 L 21.9155,7.6363 L 21.9273,7.6828 L 21.9743,7.7293 L 22.0213,7.7409 L 24.1835,7.7409 L 24.2305,7.7293 L 24.2775,7.6828 L 24.2892,7.6363 Z" stroke="#999999" stroke-width="0.1199" stroke-linecap="round" stroke-linejoin="round" fill="#999999"/>
        <path d="M 33.5743,5.5053 L 33.5743,5.6579 L 33.3493,5.6579 L 33.3493,6.0877 L 32.4073,6.0877 L 32.4073,6.1293 L 32.1121,6.1293 L 32.1121,5.6579 L 32.1683,5.6579 L 32.1683,6.0877 L 32.4073,6.0877 L 32.4073,7.0446 L 32.5057,7.0446 L 32.5057,7.5438 L 32.4073,7.5438 L 32.4073,8.6255 L 36.0066,8.6255 L 36.0066,7.5438 L 35.9082,7.5438 L 35.9082,7.0446 L 36.0066,7.0446 L 36.0066,6.0877 L 36.2456,6.0877 L 36.2456,5.6579 L 36.3018,5.6579 L 36.3018,6.1293 L 36.0066,6.1293 L 36.0066,6.0877 L 35.0646,6.0877 L 35.0646,5.6579 L 34.8396,5.6579 L 34.8396,5.5053 L 33.5743,5.5053 Z" stroke="#000000" stroke-width="0.1199" stroke-linecap="round" stroke-linejoin="round" fill="#000000"/>
        <path d="M 33.3493,5.6717 L 32.1683,5.6717 L 32.1683,6.1016 L 33.3493,6.1016 L 33.3493,5.6717 Z" stroke="#494949" stroke-width="0.1199" stroke-linecap="round" stroke-linejoin="round" fill="#000000"/>
        <path d="M 36.2456,5.6717 L 35.0646,5.6717 L 35.0646,6.1016 L 36.2456,6.1016 L 36.2456,5.6717 Z" stroke="#494949" stroke-width="0.1199" stroke-linecap="round" stroke-linejoin="round" fill="#000000"/>
        <path d="M 39.4793,5.5053 L 39.4793,5.6579 L 39.2543,5.6579 L 39.2543,6.0877 L 38.3123,6.0877 L 38.3123,6.1293 L 38.0171,6.1293 L 38.0171,5.6579 L 38.0733,5.6579 L 38.0733,6.0877 L 38.3123,6.0877 L 38.3123,7.0446 L 38.4108,7.0446 L 38.4108,7.5438 L 38.3123,7.5438 L 38.3123,8.6255 L 41.9116,8.6255 L 41.9116,7.5438 L 41.8132,7.5438 L 41.8132,7.0446 L 41.9116,7.0446 L 41.9116,6.0877 L 42.1506,6.0877 L 42.1506,5.6579 L 42.2068,5.6579 L 42.2068,6.1293 L 41.9116,6.1293 L 41.9116,6.0877 L 40.9696,6.0877 L 40.9696,5.6579 L 40.7446,5.6579 L 40.7446,5.5053 L 39.4793,5.5053 Z" stroke="#000000" stroke-width="0.1199" stroke-linecap="round" stroke-linejoin="round" fill="#000000"/>
        <path d="M 39.2543,5.6717 L 38.0733,5.6717 L 38.0733,6.1016 L 39.2543,6.1016 L 39.2543,5.6717 Z" stroke="#494949" stroke-width="0.1199" stroke-linecap="round" stroke-linejoin="round" fill="#000000"/>
        <path d="M 42.1506,5.6717 L 40.9696,5.6717 L 40.9696,6.1016 L 42.1506,6.1016 L 42.1506,5.6717 Z" stroke="#494949" stroke-width="0.1199" stroke-linecap="round" stroke-linejoin="round" fill="#000000"/>
        <path d="M 45.4405,5.5053 L 45.4405,5.6579 L 45.2156,5.6579 L 45.2156,6.0877 L 44.2736,6.0877 L 44.2736,6.1293 L 43.9784,6.1293 L 43.9784,5.6579 L 44.0346,5.6579 L 44.0346,6.0877 L 44.2736,6.0877 L 44.2736,7.0446 L 44.3720,7.0446 L 44.3720,7.5438 L 44.2736,7.5438 L 44.2736,8.6255 L 47.8729,8.6255 L 47.8729,7.5438 L 47.7744,7.5438 L 47.7744,7.0446 L 47.8729,7.0446 L 47.8729,6.0877 L 48.1119,6.0877 L 48.1119,5.6579 L 48.1681,5.6579 L 48.1681,6.1293 L 47.8729,6.1293 L 47.8729,6.0877 L 46.9309,6.0877 L 46.9309,5.6579 L 46.7059,5.6579 L 46.7059,5.5053 L 45.4405,5.5053 Z" stroke="#000000" stroke-width="0.1199" stroke-linecap="round" stroke-linejoin="round" fill="#000000"/>
        <path d="M 45.2156,5.6717 L 44.0346,5.6717 L 44.0346,6.1016 L 45.2156,6.1016 L 45.2156,5.6717 Z" stroke="#494949" stroke-width="0.1199" stroke-linecap="round" stroke-linejoin="round" fill="#000000"/>
        <path d="M 48.1119,5.6717 L 46.9309,5.6717 L 46.9309,6.1016 L 48.1119,6.1016 L 48.1119,5.6717 Z" stroke="#494949" stroke-width="0.1199" stroke-linecap="round" stroke-linejoin="round" fill="#000000"/>
        <path d="M 51.3456,5.5053 L 51.3456,5.6579 L 51.1206,5.6579 L 51.1206,6.0877 L 50.1786,6.0877 L 50.1786,6.1293 L 49.8834,6.1293 L 49.8834,5.6579 L 49.9396,5.6579 L 49.9396,6.0877 L 50.1786,6.0877 L 50.1786,7.0446 L 50.2770,7.0446 L 50.2770,7.5438 L 50.1786,7.5438 L 50.1786,8.6255 L 53.7779,8.6255 L 53.7779,7.5438 L 53.6795,7.5438 L 53.6795,7.0446 L 53.7779,7.0446 L 53.7779,6.0877 L 54.0169,6.0877 L 54.0169,5.6579 L 54.0731,5.6579 L 54.0731,6.1293 L 53.7779,6.1293 L 53.7779,6.0877 L 52.8359,6.0877 L 52.8359,5.6579 L 52.6109,5.6579 L 52.6109,5.5053 L 51.3456,5.5053 Z" stroke="#000000" stroke-width="0.1199" stroke-linecap="round" stroke-linejoin="round" fill="#000000"/>
        <path d="M 51.1206,5.6717 L 49.9396,5.6717 L 49.9396,6.1016 L 51.1206,6.1016 L 51.1206,5.6717 Z" stroke="#494949" stroke-width="0.1199" stroke-linecap="round" stroke-linejoin="round" fill="#000000"/>
        <path d="M 54.0169,5.6717 L 52.8359,5.6717 L 52.8359,6.1016 L 54.0169,6.1016 L 54.0169,5.6717 Z" stroke="#494949" stroke-width="0.1199" stroke-linecap="round" stroke-linejoin="round" fill="#000000"/>
        <path d="M 33.0985,5.7330 L 32.3382,5.7330 L 32.3382,6.0443 L 33.0985,6.0443 L 33.0985,5.7330 Z" stroke="#000000" stroke-width="0.1199" stroke-linecap="round" stroke-linejoin="round" fill="#FFFF00"/>
        <path d="M 36.0309,5.7330 L 35.2707,5.7330 L 35.2707,6.0443 L 36.0309,6.0443 L 36.0309,5.7330 Z" stroke="#000000" stroke-width="0.1199" stroke-linecap="round" stroke-linejoin="round" fill="#83FF00"/>
        <path d="M 39.0041,5.7330 L 38.2438,5.7330 L 38.2438,6.0443 L 39.0041,6.0443 L 39.0041,5.7330 Z" stroke="#000000" stroke-width="0.1199" stroke-linecap="round" stroke-linejoin="round" fill="#FFFF00"/>
        <path d="M 41.9365,5.7330 L 41.1763,5.7330 L 41.1763,6.0443 L 41.9365,6.0443 L 41.9365,5.7330 Z" stroke="#000000" stroke-width="0.1199" stroke-linecap="round" stroke-linejoin="round" fill="#83FF00"/>
        <path d="M 44.9640,5.7330 L 44.2037,5.7330 L 44.2037,6.0443 L 44.9640,6.0443 L 44.9640,5.7330 Z" stroke="#000000" stroke-width="0.1199" stroke-linecap="round" stroke-linejoin="round" fill="#FFFF00"/>
        <path d="M 47.8964,5.7330 L 47.1362,5.7330 L 47.1362,6.0443 L 47.8964,6.0443 L 47.8964,5.7330 Z" stroke="#000000" stroke-width="0.1199" stroke-linecap="round" stroke-linejoin="round" fill="#83FF00"/>
        <path d="M 50.8696,5.7330 L 50.1093,5.7330 L 50.1093,6.0443 L 50.8696,6.0443 L 50.8696,5.7330 Z" stroke="#000000" stroke-width="0.1199" stroke-linecap="round" stroke-linejoin="round" fill="#FFFF00"/>
        <path d="M 53.8020,5.7330 L 53.0418,5.7330 L 53.0418,6.0443 L 53.8020,6.0443 L 53.8020,5.7330 Z" stroke="#000000" stroke-width="0.1199" stroke-linecap="round" stroke-linejoin="round" fill="#83FF00"/>
      </g>
      <!--emf-blob end-->
    </g>
  </g>
</svg>
