<svg xmlns="http://www.w3.org/2000/svg" xmlns:xlink="http://www.w3.org/1999/xlink" version="1.1" width="3.5612000000" height="6.5544000000" viewBox="0 0 64.1014 117.9760">
  <title><![CDATA[FON-860i (F)]]></title>
  <g transform=" scale(4.000000) ">
    <!--converted by libvisio2svg-->
    <g transform=" translate(17.027100,0.720000) ">
      <!--emf-blob start-->
      <g transform="translate(-0.0000, -0.0000)">
        <path d="M 29.9047,0.6468 L 29.9047,0.5906 L 29.8906,0.5484 L 29.8906,0.4921 L 29.8626,0.4359 L 29.8626,0.4078 L 29.8205,0.3234 L 29.7925,0.3093 L 29.7645,0.2531 L 29.7364,0.2390 L 29.7224,0.2109 L 29.6944,0.1969 L 29.6803,0.1687 L 29.6243,0.1406 L 29.6102,0.1125 L 29.5542,0.0844 L 29.5261,0.0844 L 29.4420,0.0422 L 29.3859,0.0422 L 29.3439,0.0281 L 0.5888,0.0281 L 0.5468,0.0422 L 0.4907,0.0422 L 0.4066,0.0844 L 0.3785,0.0844 L 0.3225,0.1125 L 0.3084,0.1406 L 0.2524,0.1687 L 0.2383,0.1969 L 0.2103,0.2109 L 0.1963,0.2390 L 0.1682,0.2531 L 0.1402,0.3093 L 0.1122,0.3234 L 0.0841,0.3797 L 0.0841,0.4078 L 0.0421,0.4921 L 0.0421,0.5484 L 0.0280,0.5906 L 0.0280,83.0317 L 0.0421,83.0739 L 0.0421,83.1301 L 0.0841,83.2145 L 0.0841,83.2426 L 0.1122,83.2989 L 0.1402,83.3129 L 0.1682,83.3692 L 0.1963,83.3832 L 0.2103,83.4114 L 0.2383,83.4254 L 0.2524,83.4535 L 0.3084,83.4817 L 0.3225,83.5098 L 0.4066,83.5520 L 0.4346,83.5520 L 0.4907,83.5801 L 0.5468,83.5801 L 0.5888,83.5942 L 29.3439,83.5942 L 29.3859,83.5801 L 29.4420,83.5801 L 29.4981,83.5520 L 29.5261,83.5520 L 29.6102,83.5098 L 29.6243,83.4817 L 29.6803,83.4535 L 29.6944,83.4254 L 29.7224,83.4114 L 29.7364,83.3832 L 29.7645,83.3692 L 29.7925,83.3129 L 29.8205,83.2989 L 29.8626,83.2145 L 29.8626,83.1864 L 29.8906,83.1301 L 29.8906,83.0739 L 29.9047,83.0317 L 29.9047,0.8859 L 29.9047,0.6468 Z" stroke="#000000" stroke-width="0.1198" stroke-linecap="round" stroke-linejoin="round" fill="#494949"/>
        <path d="M 0.0280,82.9755 L 0.0280,83.0317 L 0.0421,83.0739 L 0.0421,83.1301 L 0.0841,83.2145 L 0.0841,83.2426 L 0.1122,83.2989 L 0.1402,83.3129 L 0.1682,83.3692 L 0.1963,83.3832 L 0.2103,83.4114 L 0.2383,83.4254 L 0.2524,83.4535 L 0.3084,83.4817 L 0.3225,83.5098 L 0.4066,83.5520 L 0.4346,83.5520 L 0.4907,83.5801 L 0.5468,83.5801 L 0.5888,83.5942 L 29.3439,83.5942 L 29.3859,83.5801 L 29.4420,83.5801 L 29.4981,83.5520 L 29.5261,83.5520 L 29.6102,83.5098 L 29.6243,83.4817 L 29.6803,83.4535 L 29.6944,83.4254 L 29.7224,83.4114 L 29.7364,83.3832 L 29.7645,83.3692 L 29.7925,83.3129 L 29.8205,83.2989 L 29.8626,83.2145 L 29.8626,83.1864 L 29.8906,83.1301 L 29.8906,83.0739 L 29.9047,83.0317 L 29.9047,82.9755 L 0.1122,82.9755 L 0.0280,82.9755 Z" stroke-width="1px" stroke="#282828" fill="#282828"/>
        <path d="M 29.9047,82.3146 L 0.0280,82.3146 L 0.0280,82.9755 L 29.9047,82.9755 L 29.9047,82.3146 Z" stroke-width="1px" stroke="#2D2D2D" fill="#2D2D2D"/>
        <path d="M 29.9047,81.6537 L 0.0280,81.6537 L 0.0280,82.3146 L 29.9047,82.3146 L 29.9047,81.6537 Z" stroke-width="1px" stroke="#333333" fill="#333333"/>
        <path d="M 29.9047,80.9928 L 0.0280,80.9928 L 0.0280,81.6537 L 29.9047,81.6537 L 29.9047,80.9928 Z" stroke-width="1px" stroke="#383838" fill="#383838"/>
        <path d="M 29.9047,80.3319 L 0.0280,80.3319 L 0.0280,80.9928 L 29.9047,80.9928 L 29.9047,80.3319 Z" stroke-width="1px" stroke="#3D3D3D" fill="#3D3D3D"/>
        <path d="M 25.3201,18.7015 L 4.5986,18.7015 L 4.5986,39.3996 L 25.3201,39.3996 L 25.3201,18.7015 Z" stroke="#000000" stroke-width="0.1198" stroke-linecap="round" stroke-linejoin="round" fill="#BFBFBF"/>
        <path d="M 29.9047,3.8528 L 29.3018,3.8528 L 29.3018,48.9613 L 29.9047,48.9613 L 29.9047,3.8528 Z" stroke="#666666" stroke-width="0.1198" stroke-linecap="round" stroke-linejoin="round" fill="#666666"/>
        <path d="M 0.6309,3.8528 L 0.0280,3.8528 L 0.0280,48.9613 L 0.6309,48.9613 L 0.6309,3.8528 Z" stroke="#666666" stroke-width="0.1198" stroke-linecap="round" stroke-linejoin="round" fill="#666666"/>
        <path d="M 2.9442,48.9613 L 2.9442,78.2087 L 2.9582,78.2509 L 2.9582,78.2931 L 2.9722,78.3212 L 3.0143,78.4477 L 3.0283,78.4759 L 3.0423,78.5180 L 3.0564,78.5462 L 3.0844,78.5743 L 3.1124,78.6165 L 3.1265,78.6446 L 3.2386,78.7571 L 3.2667,78.7711 L 3.3087,78.7993 L 3.3368,78.8274 L 3.3648,78.8415 L 3.4069,78.8555 L 3.4349,78.8696 L 3.5611,78.9118 L 3.5891,78.9258 L 3.6312,78.9258 L 3.6732,78.9399 L 3.7574,78.9399 L 3.7293,78.9539 L 3.7153,78.9821 L 3.7994,79.0242 L 3.8695,79.0383 L 3.9677,79.0524 L 4.0938,79.0805 L 4.2340,79.0946 L 4.5986,79.1227 L 4.8089,79.1367 L 5.0472,79.1508 L 5.2996,79.1649 L 5.5659,79.1789 L 5.8463,79.1930 L 6.1548,79.2070 L 6.4772,79.2211 L 6.8137,79.2352 L 7.1642,79.2492 L 7.5287,79.2492 L 7.9073,79.2633 L 8.2998,79.2774 L 8.6924,79.2774 L 9.5336,79.3055 L 10.4028,79.3055 L 10.8375,79.3195 L 11.3001,79.3195 L 11.7488,79.3336 L 12.7722,79.3336 L 12.7722,78.7149 L 17.1465,78.7149 L 17.1465,79.3195 L 17.7353,79.3195 L 18.1419,79.3055 L 18.9550,79.3055 L 19.3476,79.2914 L 19.7402,79.2914 L 20.1327,79.2774 L 20.5113,79.2774 L 21.2403,79.2492 L 21.5908,79.2492 L 21.9413,79.2352 L 22.2778,79.2211 L 22.6002,79.2211 L 22.9227,79.2070 L 23.2311,79.1930 L 23.5256,79.1789 L 23.8060,79.1649 L 24.0723,79.1508 L 24.3247,79.1367 L 24.5630,79.1227 L 25.0117,79.0946 L 25.2080,79.0805 L 25.3902,79.0664 L 25.6987,79.0383 L 25.8248,79.0102 L 25.9370,78.9961 L 26.0351,78.9821 L 26.1052,78.9539 L 26.1613,78.9399 L 26.2454,78.9399 L 26.2875,78.9258 L 26.3296,78.9258 L 26.3576,78.9118 L 26.4838,78.8696 L 26.5118,78.8555 L 26.5539,78.8415 L 26.5819,78.8274 L 26.6100,78.7993 L 26.6520,78.7711 L 26.6801,78.7571 L 26.7922,78.6446 L 26.8062,78.6165 L 26.8343,78.5743 L 26.8623,78.5462 L 26.8763,78.5180 L 26.8904,78.4759 L 26.9044,78.4477 L 26.9464,78.3212 L 26.9605,78.2931 L 26.9605,78.2509 L 26.9745,78.2087 L 26.9745,49.0457 L 26.9745,48.9613 " stroke="#000000" stroke-width="0.1198" stroke-linecap="round" stroke-linejoin="round" fill="none"/>
        <ellipse cx="14.9033" cy="53.1234" rx="5.6641" ry="5.6807" fill="#333333" stroke="#000000" stroke-width="0.1198" stroke-linecap="round" stroke-linejoin="round"/>
        <ellipse cx="14.9033" cy="53.1234" rx="5.6641" ry="5.6807" fill="none" stroke="#333333" stroke-width="0.1198" stroke-linecap="round" stroke-linejoin="round"/>
        <path d="M 8.5522,53.8968 L 8.5802,54.0374 L 8.5943,54.1921 L 8.6223,54.3327 L 8.6644,54.4874 L 8.6924,54.6280 L 8.9027,55.3310 L 8.9588,55.4576 L 9.0709,55.7388 L 9.1831,55.9919 L 9.2532,56.1325 L 9.3093,56.2591 L 9.5196,56.6387 L 9.6037,56.7512 L 9.6738,56.8778 L 9.7579,56.9903 L 9.8420,57.1168 L 10.0944,57.4543 L 10.1925,57.5668 L 10.2767,57.6793 L 10.3748,57.7777 L 10.4729,57.8902 L 10.5711,57.9886 L 10.5711,58.7901 L 3.7293,58.7901 L 3.7293,53.8968 L 8.5382,53.8968 L 8.5522,53.8968 Z" stroke="#000000" stroke-width="0.1198" stroke-linecap="round" stroke-linejoin="round" fill="#333333"/>
        <path d="M 10.5711,60.3931 L 3.7293,60.3931 L 3.7293,63.6553 L 9.2392,63.6553 L 10.0103,62.8819 L 10.5711,62.8819 L 10.5711,60.3931 Z" stroke="#000000" stroke-width="0.1198" stroke-linecap="round" stroke-linejoin="round" fill="#333333"/>
        <path d="M 18.3802,60.4353 L 11.5385,60.4353 L 11.5385,62.9101 L 18.3802,62.9101 L 18.3802,60.4353 Z" stroke="#000000" stroke-width="0.1198" stroke-linecap="round" stroke-linejoin="round" fill="#333333"/>
        <path d="M 10.5711,64.4287 L 3.7293,64.4287 L 3.7293,67.6909 L 10.5711,67.6909 L 10.5711,64.4287 Z" stroke="#000000" stroke-width="0.1198" stroke-linecap="round" stroke-linejoin="round" fill="#333333"/>
        <path d="M 18.3802,64.4287 L 11.5385,64.4287 L 11.5385,67.6909 L 18.3802,67.6909 L 18.3802,64.4287 Z" stroke="#000000" stroke-width="0.1198" stroke-linecap="round" stroke-linejoin="round" fill="#333333"/>
        <path d="M 26.1894,64.4287 L 19.3476,64.4287 L 19.3476,67.6909 L 26.1894,67.6909 L 26.1894,64.4287 Z" stroke="#000000" stroke-width="0.1198" stroke-linecap="round" stroke-linejoin="round" fill="#333333"/>
        <path d="M 10.5711,68.4783 L 3.7293,68.4783 L 3.7293,71.7405 L 10.5711,71.7405 L 10.5711,68.4783 Z" stroke="#000000" stroke-width="0.1198" stroke-linecap="round" stroke-linejoin="round" fill="#333333"/>
        <path d="M 18.3802,68.4783 L 11.5385,68.4783 L 11.5385,71.7405 L 18.3802,71.7405 L 18.3802,68.4783 Z" stroke="#000000" stroke-width="0.1198" stroke-linecap="round" stroke-linejoin="round" fill="#333333"/>
        <path d="M 26.1894,68.4783 L 19.3476,68.4783 L 19.3476,71.7405 L 26.1894,71.7405 L 26.1894,68.4783 Z" stroke="#000000" stroke-width="0.1198" stroke-linecap="round" stroke-linejoin="round" fill="#333333"/>
        <path d="M 10.5711,72.5139 L 3.7293,72.5139 L 3.7293,75.7761 L 10.5711,75.7761 L 10.5711,72.5139 Z" stroke="#000000" stroke-width="0.1198" stroke-linecap="round" stroke-linejoin="round" fill="#333333"/>
        <path d="M 18.3802,72.5139 L 11.5385,72.5139 L 11.5385,75.7761 L 18.3802,75.7761 L 18.3802,72.5139 Z" stroke="#000000" stroke-width="0.1198" stroke-linecap="round" stroke-linejoin="round" fill="#333333"/>
        <path d="M 26.1894,72.5139 L 19.3476,72.5139 L 19.3476,75.7761 L 26.1894,75.7761 L 26.1894,72.5139 Z" stroke="#000000" stroke-width="0.1198" stroke-linecap="round" stroke-linejoin="round" fill="#333333"/>
        <path d="M 8.5382,52.9687 L 3.7714,52.9687 L 3.7714,49.7065 L 9.5056,49.7065 L 9.4495,49.8050 L 9.4074,49.8893 L 9.3513,49.9878 L 9.3093,50.0862 L 9.2532,50.1706 L 9.0429,50.6627 L 9.0149,50.7611 L 8.9728,50.8596 L 8.9307,50.9720 L 8.8747,51.1689 L 8.8326,51.2673 L 8.8046,51.3798 L 8.7485,51.5767 L 8.7204,51.6892 L 8.7064,51.7876 L 8.6784,51.9001 L 8.6644,51.9985 L 8.6363,52.1110 L 8.6223,52.2235 L 8.6083,52.3219 L 8.5662,52.6594 L 8.5522,52.7578 L 8.5522,52.8703 L 8.5382,52.9828 L 8.5382,52.9687 Z" stroke="#000000" stroke-width="0.1198" stroke-linecap="round" stroke-linejoin="round" fill="#333333"/>
        <path d="M 21.3665,53.8968 L 21.3384,54.0374 L 21.3244,54.1921 L 21.2964,54.3327 L 21.2543,54.4874 L 21.2263,54.6280 L 21.0160,55.3310 L 20.9599,55.4576 L 20.8477,55.7388 L 20.7356,55.9919 L 20.6795,56.1325 L 20.3991,56.6387 L 20.3150,56.7512 L 20.2449,56.8778 L 20.1608,56.9903 L 20.0766,57.1168 L 19.8243,57.4543 L 19.7261,57.5668 L 19.6420,57.6793 L 19.5439,57.7777 L 19.4457,57.8902 L 19.3476,57.9886 L 19.3476,58.7901 L 26.1894,58.7901 L 26.1894,53.8968 L 21.3805,53.8968 L 21.3665,53.8968 Z" stroke="#000000" stroke-width="0.1198" stroke-linecap="round" stroke-linejoin="round" fill="#333333"/>
        <path d="M 21.3805,52.9687 L 26.1473,52.9687 L 26.1473,49.7065 L 20.4131,49.7065 L 20.4692,49.8050 L 20.5113,49.8893 L 20.5673,49.9878 L 20.6094,50.0862 L 20.6655,50.1706 L 20.8758,50.6627 L 20.9038,50.7611 L 20.9459,50.8596 L 20.9879,50.9720 L 21.0440,51.1689 L 21.0861,51.2673 L 21.1141,51.3798 L 21.1702,51.5767 L 21.1982,51.6892 L 21.2123,51.7876 L 21.2403,51.9001 L 21.2543,51.9985 L 21.2824,52.1110 L 21.2964,52.2235 L 21.3104,52.3219 L 21.3525,52.6594 L 21.3665,52.7578 L 21.3665,52.8703 L 21.3805,52.9828 L 21.3805,52.9687 Z" stroke="#000000" stroke-width="0.1198" stroke-linecap="round" stroke-linejoin="round" fill="#333333"/>
        <path d="M 20.0626,48.9613 L 19.9505,48.8207 L 19.8243,48.6941 L 19.7121,48.5535 L 19.4598,48.3004 L 19.1794,48.0754 L 19.0532,47.9629 L 18.8990,47.8504 L 18.7588,47.7380 L 18.6186,47.6395 L 18.4643,47.5411 L 18.3101,47.4567 L 18.1559,47.3583 L 17.9877,47.2739 L 17.8334,47.2036 L 17.6652,47.1193 L 17.4970,47.0490 L 17.3287,46.9927 L 17.1605,46.9224 L 16.9922,46.8662 L 16.8100,46.8099 L 16.6417,46.7677 L 16.2772,46.6834 L 15.9127,46.6271 L 15.7164,46.5990 L 15.5342,46.5849 L 15.3379,46.5709 L 15.1556,46.5568 L 14.7631,46.5568 L 14.5808,46.5709 L 14.3845,46.5849 L 14.2023,46.5990 L 13.6555,46.6834 L 13.2910,46.7677 L 13.1087,46.8240 L 12.9405,46.8662 L 12.7582,46.9224 L 12.0852,47.2036 L 11.9310,47.2880 L 11.7628,47.3724 L 11.6086,47.4567 L 11.3001,47.6536 L 11.1599,47.7520 L 11.0057,47.8504 L 10.5851,48.1879 L 9.9542,48.8207 L 9.8420,48.9613 L 0.0280,48.9613 L 0.0280,3.8528 L 29.9047,3.8528 L 29.9047,48.9613 L 20.0907,48.9613 L 20.0626,48.9613 " stroke="#000000" stroke-width="0.1198" stroke-linecap="round" stroke-linejoin="round" fill="none"/>
        <path d="M 19.3476,60.3931 L 26.1894,60.3931 L 26.1894,63.6553 L 20.6795,63.6553 L 19.9084,62.8819 L 19.3476,62.8819 L 19.3476,60.3931 Z" stroke="#000000" stroke-width="0.1198" stroke-linecap="round" stroke-linejoin="round" fill="#333333"/>
        <path d="M 8.4541,54.0233 L 8.4821,54.1640 L 8.4961,54.3046 L 8.5242,54.4452 L 8.5522,54.5717 L 8.5943,54.7123 L 8.6223,54.8530 L 8.6644,54.9795 L 8.7064,55.1201 L 8.7905,55.3732 L 8.8326,55.5138 L 9.0569,56.0200 L 9.1130,56.1325 L 9.1831,56.2591 L 9.2392,56.3856 L 9.3093,56.4981 L 9.3794,56.6247 L 9.5196,56.8496 L 9.6037,56.9621 L 9.6738,57.0746 L 9.8420,57.2996 L 9.9262,57.3980 L 10.0103,57.5105 L 10.0944,57.6090 L 10.1925,57.7074 L 10.2767,57.8058 L 10.3748,57.9042 L 10.3748,58.6636 L 3.8695,58.6636 L 3.8695,54.0233 L 8.4400,54.0233 L 8.4541,54.0233 Z" stroke="#666666" stroke-width="0.1198" stroke-linecap="round" stroke-linejoin="round" fill="#494949"/>
        <path d="M 10.4028,60.5618 L 3.8976,60.5618 L 3.8976,63.4866 L 9.1410,63.4866 L 9.8701,62.7976 L 10.4028,62.7976 L 10.4028,60.5618 Z" stroke="#666666" stroke-width="0.1198" stroke-linecap="round" stroke-linejoin="round" fill="#494949"/>
        <path d="M 18.2120,60.5478 L 11.7067,60.5478 L 11.7067,62.7976 L 18.2120,62.7976 L 18.2120,60.5478 Z" stroke="#666666" stroke-width="0.1198" stroke-linecap="round" stroke-linejoin="round" fill="#494949"/>
        <path d="M 10.4028,64.5974 L 3.8976,64.5974 L 3.8976,67.5221 L 10.4028,67.5221 L 10.4028,64.5974 Z" stroke="#666666" stroke-width="0.1198" stroke-linecap="round" stroke-linejoin="round" fill="#494949"/>
        <path d="M 18.2120,64.5974 L 11.7067,64.5974 L 11.7067,67.5221 L 18.2120,67.5221 L 18.2120,64.5974 Z" stroke="#666666" stroke-width="0.1198" stroke-linecap="round" stroke-linejoin="round" fill="#494949"/>
        <path d="M 26.0211,64.5974 L 19.5158,64.5974 L 19.5158,67.5221 L 26.0211,67.5221 L 26.0211,64.5974 Z" stroke="#666666" stroke-width="0.1198" stroke-linecap="round" stroke-linejoin="round" fill="#494949"/>
        <path d="M 10.4028,68.6470 L 3.8976,68.6470 L 3.8976,71.5718 L 10.4028,71.5718 L 10.4028,68.6470 Z" stroke="#666666" stroke-width="0.1198" stroke-linecap="round" stroke-linejoin="round" fill="#494949"/>
        <path d="M 18.2120,68.6470 L 11.7067,68.6470 L 11.7067,71.5718 L 18.2120,71.5718 L 18.2120,68.6470 Z" stroke="#666666" stroke-width="0.1198" stroke-linecap="round" stroke-linejoin="round" fill="#494949"/>
        <path d="M 26.0211,68.6470 L 19.5158,68.6470 L 19.5158,71.5718 L 26.0211,71.5718 L 26.0211,68.6470 Z" stroke="#666666" stroke-width="0.1198" stroke-linecap="round" stroke-linejoin="round" fill="#494949"/>
        <path d="M 10.4028,72.6826 L 3.8976,72.6826 L 3.8976,75.6074 L 10.4028,75.6074 L 10.4028,72.6826 Z" stroke="#666666" stroke-width="0.1198" stroke-linecap="round" stroke-linejoin="round" fill="#494949"/>
        <path d="M 18.2120,72.6826 L 11.7067,72.6826 L 11.7067,75.6074 L 18.2120,75.6074 L 18.2120,72.6826 Z" stroke="#666666" stroke-width="0.1198" stroke-linecap="round" stroke-linejoin="round" fill="#494949"/>
        <path d="M 26.0211,72.6826 L 19.5158,72.6826 L 19.5158,75.6074 L 26.0211,75.6074 L 26.0211,72.6826 Z" stroke="#666666" stroke-width="0.1198" stroke-linecap="round" stroke-linejoin="round" fill="#494949"/>
        <path d="M 8.4120,52.8844 L 3.8835,52.8844 L 3.8835,49.7909 L 9.3373,49.7909 L 9.2812,49.8753 L 9.2392,49.9596 L 9.1971,50.0581 L 9.1410,50.1424 L 9.0990,50.2409 L 9.0569,50.3252 L 9.0149,50.4237 L 8.9728,50.5080 L 8.9448,50.6065 L 8.9027,50.6908 L 8.8606,50.7892 L 8.8326,50.8877 L 8.7905,50.9861 L 8.7625,51.0705 L 8.5662,51.7595 L 8.5522,51.8720 L 8.5242,51.9704 L 8.4961,52.1673 L 8.4821,52.2797 L 8.4541,52.4766 L 8.4400,52.5891 L 8.4260,52.6875 L 8.4260,52.8000 L 8.4120,52.8984 L 8.4120,52.8844 Z" stroke="#666666" stroke-width="0.1198" stroke-linecap="round" stroke-linejoin="round" fill="#494949"/>
        <path d="M 21.4646,54.0233 L 21.4366,54.1640 L 21.4226,54.3046 L 21.3945,54.4452 L 21.3665,54.5717 L 21.3244,54.7123 L 21.2964,54.8530 L 21.2543,54.9795 L 21.2123,55.1201 L 21.1281,55.3732 L 21.0861,55.5138 L 20.8618,56.0200 L 20.8057,56.1325 L 20.7356,56.2591 L 20.6795,56.3856 L 20.6094,56.4981 L 20.5393,56.6247 L 20.3991,56.8496 L 20.3150,56.9621 L 20.2449,57.0746 L 20.0766,57.2996 L 19.9925,57.3980 L 19.9084,57.5105 L 19.8243,57.6090 L 19.7261,57.7074 L 19.6420,57.8058 L 19.5439,57.9042 L 19.5439,58.6636 L 26.0492,58.6636 L 26.0492,54.0233 L 21.4786,54.0233 L 21.4646,54.0233 Z" stroke="#666666" stroke-width="0.1198" stroke-linecap="round" stroke-linejoin="round" fill="#494949"/>
        <path d="M 21.5067,52.8844 L 26.0351,52.8844 L 26.0351,49.7909 L 20.5814,49.7909 L 20.6374,49.8753 L 20.6795,49.9596 L 20.7216,50.0581 L 20.7776,50.1424 L 20.8197,50.2409 L 20.8618,50.3252 L 20.9038,50.4237 L 20.9459,50.5080 L 20.9739,50.6065 L 21.0160,50.6908 L 21.0580,50.7892 L 21.0861,50.8877 L 21.1281,50.9861 L 21.1562,51.0705 L 21.3525,51.7595 L 21.3665,51.8720 L 21.3945,51.9704 L 21.4226,52.1673 L 21.4366,52.2797 L 21.4646,52.4766 L 21.4786,52.5891 L 21.4927,52.6875 L 21.4927,52.8000 L 21.5067,52.8984 L 21.5067,52.8844 Z" stroke="#666666" stroke-width="0.1198" stroke-linecap="round" stroke-linejoin="round" fill="#494949"/>
        <path d="M 19.5158,60.5618 L 26.0211,60.5618 L 26.0211,63.4866 L 20.7776,63.4866 L 20.0486,62.7976 L 19.5158,62.7976 L 19.5158,60.5618 Z" stroke="#666666" stroke-width="0.1198" stroke-linecap="round" stroke-linejoin="round" fill="#494949"/>
        <path d="M 25.5585,12.1770 L 25.5585,5.8495 L 25.5444,5.7651 L 25.5444,5.6667 L 25.5164,5.5823 L 25.5024,5.4980 L 25.4183,5.2448 L 25.3762,5.1605 L 25.3482,5.0902 L 25.3061,5.0058 L 25.2500,4.9355 L 25.2080,4.8652 L 25.1519,4.7949 L 25.0958,4.7386 L 25.0397,4.6683 L 24.9696,4.6121 L 24.9135,4.5558 L 24.8434,4.4996 L 24.7733,4.4574 L 24.7032,4.4012 L 24.6191,4.3590 L 24.5490,4.3309 L 24.4649,4.2887 L 24.2125,4.2043 L 24.1284,4.1903 L 24.0443,4.1621 L 23.9462,4.1621 L 23.8620,4.1481 L 6.0566,4.1481 L 5.9725,4.1621 L 5.8744,4.1621 L 5.7903,4.1903 L 5.7061,4.2043 L 5.4538,4.2887 L 5.3697,4.3309 L 5.2996,4.3590 L 5.2154,4.4012 L 5.1453,4.4574 L 5.0752,4.4996 L 5.0051,4.5558 L 4.9491,4.6121 L 4.8790,4.6683 L 4.8229,4.7386 L 4.7668,4.7949 L 4.7107,4.8652 L 4.6687,4.9355 L 4.6126,5.0058 L 4.5705,5.0902 L 4.5425,5.1605 L 4.5004,5.2448 L 4.4163,5.4980 L 4.4023,5.5823 L 4.3742,5.6667 L 4.3742,5.7651 L 4.3602,5.8495 L 4.3602,12.1770 L 0.0280,12.1770 L 0.0280,0.5906 L 0.0421,0.5484 L 0.0421,0.4921 L 0.0841,0.4078 L 0.0841,0.3797 L 0.1122,0.3234 L 0.1402,0.3093 L 0.1682,0.2531 L 0.1963,0.2390 L 0.2103,0.2109 L 0.2383,0.1969 L 0.2524,0.1687 L 0.3084,0.1406 L 0.3225,0.1125 L 0.3785,0.0844 L 0.4066,0.0844 L 0.4907,0.0422 L 0.5468,0.0422 L 0.5888,0.0281 L 29.3439,0.0281 L 29.3859,0.0422 L 29.4420,0.0422 L 29.5261,0.0844 L 29.5542,0.0844 L 29.6102,0.1125 L 29.6243,0.1406 L 29.6803,0.1687 L 29.6944,0.1969 L 29.7224,0.2109 L 29.7364,0.2390 L 29.7645,0.2531 L 29.7925,0.3093 L 29.8205,0.3234 L 29.8626,0.4078 L 29.8626,0.4359 L 29.8906,0.4921 L 29.8906,0.5484 L 29.9047,0.5906 L 29.9047,12.1770 L 25.5725,12.1770 L 25.5585,12.1770 Z" stroke="#000000" stroke-width="0.1198" stroke-linecap="round" stroke-linejoin="round" fill="#3D3D3D"/>
        <path d="M 19.1794,5.4698 L 19.1653,5.4698 L 19.1653,5.4558 L 19.1513,5.4558 L 19.1233,5.4276 L 19.0952,5.4136 L 19.0812,5.3995 L 19.0532,5.3855 L 19.0251,5.3573 L 18.9691,5.3292 L 18.9410,5.3011 L 18.8990,5.2870 L 18.8709,5.2589 L 18.8429,5.2448 L 18.7868,5.1886 L 18.7447,5.1745 L 18.7167,5.1464 L 18.6606,5.1183 L 18.6186,5.0761 L 18.5625,5.0480 L 18.5344,5.0199 L 18.5204,5.0199 L 18.5204,5.0058 L 11.3983,5.0058 L 11.3983,5.0199 L 11.3842,5.0199 L 11.3562,5.0480 L 11.3282,5.0621 L 11.3141,5.0761 L 11.2861,5.0902 L 11.2581,5.1183 L 11.2020,5.1464 L 11.1739,5.1745 L 11.1319,5.1886 L 11.0758,5.2448 L 11.0478,5.2589 L 11.0197,5.2870 L 10.9777,5.3011 L 10.9496,5.3292 L 10.8935,5.3573 L 10.8515,5.3995 L 10.7954,5.4276 L 10.7674,5.4558 L 10.7533,5.4558 L 10.7533,5.4698 L 7.2904,5.4698 L 7.2483,5.4839 L 7.2203,5.4839 L 7.1923,5.4980 L 7.1502,5.4980 L 7.1222,5.5120 L 7.0941,5.5120 L 6.9539,5.5823 L 6.9399,5.5964 L 6.8838,5.6245 L 6.8137,5.6948 L 6.7997,5.7229 L 6.7857,5.7370 L 6.7717,5.7651 L 6.7576,5.7792 L 6.7436,5.8073 L 6.7296,5.8214 L 6.7296,5.8776 L 6.7156,5.8917 L 6.7156,6.0042 L 6.7296,6.0182 L 6.7296,6.0745 L 6.7436,6.0885 L 6.7576,6.1166 L 6.7717,6.1307 L 6.7857,6.1588 L 6.8137,6.1870 L 6.8277,6.2151 L 6.8418,6.2291 L 6.8698,6.2432 L 6.9119,6.2854 L 6.9399,6.2994 L 6.9539,6.3135 L 7.0100,6.3416 L 7.0380,6.3416 L 7.1222,6.3838 L 7.1502,6.3838 L 7.1923,6.3979 L 7.2483,6.3979 L 7.2904,6.4119 L 22.6283,6.4119 L 22.6703,6.3979 L 22.7264,6.3979 L 22.7685,6.3838 L 22.7965,6.3838 L 22.8806,6.3416 L 22.9087,6.3416 L 22.9648,6.3135 L 22.9788,6.2994 L 23.0068,6.2854 L 23.0489,6.2432 L 23.0769,6.2291 L 23.0909,6.2151 L 23.1050,6.1870 L 23.1330,6.1588 L 23.1470,6.1307 L 23.1610,6.1166 L 23.1751,6.0885 L 23.1891,6.0745 L 23.1891,6.0182 L 23.2031,6.0042 L 23.2031,5.8917 L 23.1891,5.8776 L 23.1891,5.8214 L 23.1751,5.8073 L 23.1610,5.7792 L 23.1470,5.7651 L 23.1330,5.7370 L 23.1190,5.7229 L 23.1050,5.6948 L 23.0349,5.6245 L 22.9788,5.5964 L 22.9648,5.5823 L 22.8246,5.5120 L 22.7965,5.5120 L 22.7685,5.4980 L 22.7264,5.4980 L 22.6984,5.4839 L 22.6703,5.4839 L 22.6283,5.4698 L 19.1934,5.4698 L 19.1794,5.4698 Z" stroke="#161616" stroke-width="0.1198" stroke-linecap="round" stroke-linejoin="round" fill="#333333"/>
        <path d="M 19.1794,8.0852 L 19.1653,8.0852 L 19.1653,8.0712 L 19.1513,8.0712 L 19.1233,8.0430 L 19.0952,8.0290 L 19.0812,8.0149 L 19.0532,8.0009 L 19.0251,7.9727 L 18.9691,7.9446 L 18.9410,7.9165 L 18.8990,7.9024 L 18.8709,7.8743 L 18.8429,7.8602 L 18.7868,7.8040 L 18.7447,7.7899 L 18.7167,7.7618 L 18.6606,7.7337 L 18.6186,7.6915 L 18.5625,7.6634 L 18.5344,7.6353 L 18.5204,7.6353 L 18.5204,7.6212 L 11.3983,7.6212 L 11.3983,7.6353 L 11.3842,7.6353 L 11.3562,7.6634 L 11.3282,7.6774 L 11.3141,7.6915 L 11.2861,7.7056 L 11.2581,7.7337 L 11.2020,7.7618 L 11.1739,7.7899 L 11.1319,7.8040 L 11.0758,7.8602 L 11.0478,7.8743 L 11.0197,7.9024 L 10.9777,7.9165 L 10.9496,7.9446 L 10.8935,7.9727 L 10.8515,8.0149 L 10.7954,8.0430 L 10.7674,8.0712 L 10.7533,8.0712 L 10.7533,8.0852 L 7.2904,8.0852 L 7.2483,8.0993 L 7.2203,8.0993 L 7.1923,8.1133 L 7.1502,8.1133 L 7.1222,8.1274 L 7.0941,8.1274 L 6.9539,8.1977 L 6.9399,8.2118 L 6.8838,8.2399 L 6.8137,8.3102 L 6.7997,8.3383 L 6.7857,8.3524 L 6.7717,8.3805 L 6.7576,8.3946 L 6.7436,8.4227 L 6.7296,8.4368 L 6.7296,8.4930 L 6.7156,8.5071 L 6.7156,8.6195 L 6.7296,8.6336 L 6.7296,8.6899 L 6.7436,8.7039 L 6.7576,8.7320 L 6.7717,8.7461 L 6.7857,8.7742 L 6.8137,8.8023 L 6.8277,8.8305 L 6.8418,8.8445 L 6.8698,8.8586 L 6.9119,8.9008 L 6.9399,8.9148 L 6.9539,8.9289 L 7.0100,8.9570 L 7.0380,8.9570 L 7.1222,8.9992 L 7.1502,8.9992 L 7.1923,9.0133 L 7.2483,9.0133 L 7.2904,9.0273 L 22.6283,9.0273 L 22.6703,9.0133 L 22.7264,9.0133 L 22.7685,8.9992 L 22.7965,8.9992 L 22.8806,8.9570 L 22.9087,8.9570 L 22.9648,8.9289 L 22.9788,8.9148 L 23.0068,8.9008 L 23.0489,8.8586 L 23.0769,8.8445 L 23.0909,8.8305 L 23.1050,8.8023 L 23.1330,8.7742 L 23.1470,8.7461 L 23.1610,8.7320 L 23.1751,8.7039 L 23.1891,8.6899 L 23.1891,8.6336 L 23.2031,8.6195 L 23.2031,8.5071 L 23.1891,8.4930 L 23.1891,8.4368 L 23.1751,8.4227 L 23.1610,8.3946 L 23.1470,8.3805 L 23.1330,8.3524 L 23.1190,8.3383 L 23.1050,8.3102 L 23.0349,8.2399 L 22.9788,8.2118 L 22.9648,8.1977 L 22.8246,8.1274 L 22.7965,8.1274 L 22.7685,8.1133 L 22.7264,8.1133 L 22.6984,8.0993 L 22.6703,8.0993 L 22.6283,8.0852 L 19.1934,8.0852 L 19.1794,8.0852 Z" stroke="#161616" stroke-width="0.1198" stroke-linecap="round" stroke-linejoin="round" fill="#333333"/>
        <path d="M 19.1794,10.7006 L 19.1653,10.7006 L 19.1653,10.6866 L 19.1513,10.6866 L 19.1233,10.6584 L 19.0952,10.6444 L 19.0812,10.6303 L 19.0532,10.6162 L 19.0251,10.5881 L 18.9691,10.5600 L 18.9410,10.5319 L 18.8990,10.5178 L 18.8709,10.4897 L 18.8429,10.4756 L 18.7868,10.4194 L 18.7447,10.4053 L 18.7167,10.3772 L 18.6606,10.3491 L 18.6186,10.3069 L 18.5625,10.2788 L 18.5344,10.2507 L 18.5204,10.2507 L 18.5204,10.2366 L 11.3983,10.2366 L 11.3983,10.2507 L 11.3842,10.2507 L 11.3562,10.2788 L 11.3282,10.2928 L 11.3141,10.3069 L 11.2861,10.3210 L 11.2581,10.3491 L 11.2020,10.3772 L 11.1739,10.4053 L 11.1319,10.4194 L 11.0758,10.4756 L 11.0478,10.4897 L 11.0197,10.5178 L 10.9777,10.5319 L 10.9496,10.5600 L 10.8935,10.5881 L 10.8515,10.6303 L 10.7954,10.6584 L 10.7674,10.6866 L 10.7533,10.6866 L 10.7533,10.7006 L 7.2904,10.7006 L 7.2483,10.7147 L 7.2203,10.7147 L 7.1923,10.7287 L 7.1502,10.7287 L 7.1222,10.7428 L 7.0941,10.7428 L 6.9539,10.8131 L 6.9399,10.8272 L 6.8838,10.8553 L 6.8137,10.9256 L 6.7997,10.9537 L 6.7857,10.9678 L 6.7717,10.9959 L 6.7576,11.0100 L 6.7436,11.0381 L 6.7296,11.0521 L 6.7296,11.1084 L 6.7156,11.1225 L 6.7156,11.2349 L 6.7296,11.2490 L 6.7296,11.3052 L 6.7436,11.3193 L 6.7576,11.3474 L 6.7717,11.3615 L 6.7857,11.3896 L 6.8137,11.4177 L 6.8277,11.4459 L 6.8418,11.4599 L 6.8698,11.4740 L 6.9119,11.5162 L 6.9399,11.5302 L 6.9539,11.5443 L 7.0100,11.5724 L 7.0380,11.5724 L 7.1222,11.6146 L 7.1502,11.6146 L 7.1923,11.6287 L 7.2483,11.6287 L 7.2904,11.6427 L 22.6283,11.6427 L 22.6703,11.6287 L 22.7264,11.6287 L 22.7685,11.6146 L 22.7965,11.6146 L 22.8806,11.5724 L 22.9087,11.5724 L 22.9648,11.5443 L 22.9788,11.5302 L 23.0068,11.5162 L 23.0489,11.4740 L 23.0769,11.4599 L 23.0909,11.4459 L 23.1050,11.4177 L 23.1330,11.3896 L 23.1470,11.3615 L 23.1610,11.3474 L 23.1751,11.3193 L 23.1891,11.3052 L 23.1891,11.2490 L 23.2031,11.2349 L 23.2031,11.1225 L 23.1891,11.1084 L 23.1891,11.0521 L 23.1751,11.0381 L 23.1610,11.0100 L 23.1470,10.9959 L 23.1330,10.9678 L 23.1190,10.9537 L 23.1050,10.9256 L 23.0349,10.8553 L 22.9788,10.8272 L 22.9648,10.8131 L 22.8246,10.7428 L 22.7965,10.7428 L 22.7685,10.7287 L 22.7264,10.7287 L 22.6984,10.7147 L 22.6703,10.7147 L 22.6283,10.7006 L 19.1934,10.7006 L 19.1794,10.7006 Z" stroke="#161616" stroke-width="0.1198" stroke-linecap="round" stroke-linejoin="round" fill="#333333"/>
        <ellipse cx="14.8963" cy="53.1164" rx="5.3767" ry="5.3925" fill="#494949" stroke="#000000" stroke-width="0.1198" stroke-linecap="round" stroke-linejoin="round"/>
        <ellipse cx="14.8963" cy="53.1164" rx="5.3767" ry="5.3925" fill="none" stroke="#666666" stroke-width="0.1198" stroke-linecap="round" stroke-linejoin="round"/>
        <path d="M 11.0758,49.1300 L 10.9216,49.2847 L 18.8429,57.2293 L 18.9971,57.0746 L 11.0758,49.1300 Z" stroke="#333333" stroke-width="0.1198" stroke-linecap="round" stroke-linejoin="round" fill="#333333"/>
        <path d="M 10.9216,57.0746 L 11.0758,57.2293 L 18.9971,49.2847 L 18.8429,49.1300 L 10.9216,57.0746 Z" stroke="#333333" stroke-width="0.1198" stroke-linecap="round" stroke-linejoin="round" fill="#333333"/>
        <ellipse cx="14.8963" cy="53.1164" rx="2.6568" ry="2.6646" fill="#333333" stroke="#000000" stroke-width="0.1198" stroke-linecap="round" stroke-linejoin="round"/>
        <ellipse cx="14.8963" cy="53.1164" rx="2.6568" ry="2.6646" fill="none" stroke="#333333" stroke-width="0.1198" stroke-linecap="round" stroke-linejoin="round"/>
        <ellipse cx="14.9033" cy="53.1164" rx="2.3974" ry="2.3974" fill="#494949" stroke="#000000" stroke-width="0.1198" stroke-linecap="round" stroke-linejoin="round"/>
        <ellipse cx="14.9033" cy="53.1164" rx="2.3974" ry="2.3974" fill="none" stroke="#666666" stroke-width="0.1198" stroke-linecap="round" stroke-linejoin="round"/>
        <path d="M 8.3139,50.1424 L 4.3182,50.1424 L 4.3182,50.3955 L 8.3139,50.3955 L 8.3139,50.1424 Z" stroke="#FFFFFF" stroke-width="0.1198" stroke-linecap="round" stroke-linejoin="round" fill="#FFFFFF"/>
        <path d="M 25.5304,50.1424 L 21.5347,50.1424 L 21.5347,50.3955 L 25.5304,50.3955 L 25.5304,50.1424 Z" stroke="#FFFFFF" stroke-width="0.1198" stroke-linecap="round" stroke-linejoin="round" fill="#FFFFFF"/>
        <path d="M 23.0769,57.4402 L 22.2217,57.4402 L 22.2217,57.6230 L 22.2357,57.6371 L 22.2357,57.8621 L 22.2077,57.8761 L 22.1516,57.8761 L 22.1236,57.8902 L 22.0535,57.8902 L 22.0254,57.9042 L 21.8572,57.9042 L 21.8291,57.9183 L 21.7310,57.9183 L 21.7030,57.9042 L 21.4927,57.9042 L 21.4646,57.8902 L 21.3805,57.8902 L 21.3525,57.8761 L 21.3244,57.8761 L 21.3104,57.8621 L 21.3104,57.8480 L 21.2964,57.8480 L 21.2964,57.8058 L 21.2824,57.7918 L 21.2824,57.6371 L 21.2964,57.6230 L 21.2964,57.5668 L 21.3104,57.5668 L 21.3104,57.5387 L 21.3244,57.5246 L 21.3244,57.5105 L 21.3525,57.4543 L 21.4085,57.3980 L 21.4506,57.3840 L 21.4786,57.3559 L 21.5207,57.3418 L 21.5628,57.3137 L 21.6188,57.2996 L 21.6609,57.2855 L 21.7170,57.2574 L 21.8291,57.2293 L 21.8992,57.2152 L 21.9553,57.2012 L 22.0254,57.1871 L 22.0815,57.1731 L 22.1516,57.1731 L 22.2918,57.1449 L 22.3619,57.1449 L 22.4320,57.1309 L 22.5021,57.1309 L 22.5722,57.1168 L 22.7685,57.1168 L 22.8386,57.1028 L 23.3433,57.1028 L 23.4134,57.1168 L 23.5536,57.1168 L 23.6237,57.1309 L 23.6938,57.1309 L 23.7639,57.1449 L 23.8480,57.1449 L 23.9181,57.1590 L 23.9882,57.1590 L 24.1985,57.2012 L 24.2686,57.2012 L 24.3387,57.2152 L 24.3948,57.2293 L 24.4649,57.2434 L 24.5210,57.2574 L 24.5911,57.2715 L 24.6472,57.2996 L 24.6892,57.3137 L 24.7453,57.3277 L 24.7874,57.3418 L 24.8715,57.3840 L 24.9135,57.3980 L 24.9416,57.4262 L 24.9696,57.4402 L 24.9977,57.4683 L 24.9977,57.6652 L 25.0117,57.6793 L 25.0117,57.8058 L 24.9977,57.8199 L 24.9977,57.8902 L 24.9836,57.8902 L 24.9836,57.9042 L 24.9696,57.9042 L 24.9416,57.9183 L 24.9135,57.9183 L 24.8995,57.9324 L 24.8154,57.9324 L 24.7874,57.9464 L 24.3387,57.9464 L 24.2967,57.9324 L 24.2125,57.9324 L 24.1845,57.9183 L 24.1284,57.9183 L 24.1004,57.9042 L 24.0723,57.9042 L 24.0583,57.8902 L 24.0583,57.8621 L 24.0443,57.8480 L 24.0443,57.8339 L 24.0303,57.8199 L 24.0303,57.7636 L 24.0163,57.7496 L 24.0163,57.6652 L 24.0303,57.6511 L 24.0303,57.5808 L 24.0443,57.5668 L 24.0443,57.5387 L 24.0583,57.5246 L 24.0583,57.4965 L 24.0723,57.4824 L 24.0723,57.4683 L 24.0303,57.4683 L 24.0163,57.4543 L 23.9181,57.4543 L 23.8761,57.4402 L 23.7639,57.4402 L 23.7359,57.4262 L 23.6097,57.4262 L 23.5676,57.4121 L 23.2311,57.4121 L 23.2171,57.4262 L 23.1891,57.4262 L 23.1751,57.4402 L 23.0909,57.4402 L 23.0769,57.4402 Z" stroke="#FF0000" stroke-width="0.1198" stroke-linecap="round" stroke-linejoin="round" fill="#FF0000"/>
        <path d="M 24.9977,58.1573 L 21.2964,58.1573 L 21.2964,58.2698 L 24.9977,58.2698 L 24.9977,58.1573 Z" stroke="#FF0000" stroke-width="0.1198" stroke-linecap="round" stroke-linejoin="round" fill="#FF0000"/>
        <ellipse cx="25.0117" cy="54.8670" rx="0.3926" ry="0.3937" fill="none" stroke="#FF0000" stroke-width="0.1198" stroke-linecap="round" stroke-linejoin="round"/>
        <path d="M 25.1098,54.5295 L 25.0257,54.5295 L 25.0257,55.3451 L 25.1098,55.3451 L 25.1098,54.5295 Z" stroke="#FF0000" stroke-width="0.1198" stroke-linecap="round" stroke-linejoin="round" fill="#FF0000"/>
        <path d="M 5.5099,57.4683 L 5.4958,57.4683 L 5.4958,57.4543 L 5.4818,57.4543 L 5.4678,57.4402 L 5.4398,57.4402 L 5.4117,57.4121 L 5.3837,57.3980 L 5.3697,57.3840 L 5.2575,57.3277 L 5.2435,57.3137 L 5.1033,57.2434 L 5.0893,57.2293 L 5.0612,57.2152 L 5.0472,57.2012 L 5.0192,57.1871 L 5.0051,57.1871 L 4.9771,57.1590 L 4.9491,57.1590 L 4.9350,57.1449 L 4.9350,57.1590 L 4.9210,57.1731 L 4.9210,57.1871 L 4.9070,57.2012 L 4.9070,57.2152 L 4.8930,57.2152 L 4.8930,57.2434 L 4.8790,57.2574 L 4.8790,57.2715 L 4.8649,57.2855 L 4.8649,57.3137 L 4.8509,57.3277 L 4.8509,57.3418 L 4.8369,57.3559 L 4.8369,57.3699 L 4.8229,57.3840 L 4.8229,57.3980 L 4.8089,57.4121 L 4.8089,57.4262 L 4.7808,57.4262 L 4.7528,57.4121 L 4.7388,57.4121 L 4.7107,57.3980 L 4.6967,57.3980 L 4.6687,57.3840 L 4.6546,57.3840 L 4.5986,57.3559 L 4.5845,57.3418 L 4.5565,57.3418 L 4.5425,57.3277 L 4.5144,57.3137 L 4.5004,57.2996 L 4.4724,57.2855 L 4.4584,57.2715 L 4.4303,57.2574 L 4.4163,57.2434 L 4.3883,57.2434 L 4.3602,57.2152 L 4.3322,57.2012 L 4.2901,57.1590 L 4.2761,57.1590 L 4.2481,57.1309 L 4.2340,57.1309 L 4.2200,57.1168 L 4.2200,57.1028 L 4.2060,57.1028 L 4.2060,57.0324 L 4.2200,57.0184 L 4.2200,57.0043 L 4.2340,56.9903 L 4.2340,56.9762 L 4.2621,56.9481 L 4.2621,56.9340 L 4.3182,56.8778 L 4.3322,56.8778 L 4.3322,56.8637 L 4.3462,56.8637 L 4.3602,56.8496 L 4.3883,56.8356 L 4.4163,56.8356 L 4.4443,56.8215 L 4.6126,56.8215 L 4.6546,56.8356 L 4.6967,56.8356 L 4.8649,56.8918 L 4.9210,56.9059 L 4.9631,56.9200 L 5.0051,56.9481 L 5.0612,56.9621 L 5.1033,56.9903 L 5.1453,57.0043 L 5.2014,57.0324 L 5.2435,57.0465 L 5.2855,57.0746 L 5.3416,57.0887 L 5.4257,57.1449 L 5.4678,57.1590 L 5.5519,57.2152 L 5.5800,57.2293 L 5.6641,57.2855 L 5.7061,57.2996 L 5.7903,57.3559 L 5.8463,57.3840 L 5.9725,57.4683 L 6.0286,57.5105 L 6.1127,57.5668 L 6.1548,57.6090 L 6.2389,57.6652 L 6.2810,57.7074 L 6.3651,57.7636 L 6.4352,57.8339 L 6.4772,57.8621 L 6.5053,57.9042 L 6.5473,57.9324 L 6.5754,57.9605 L 6.6034,58.0027 L 6.6595,58.0589 L 6.6875,58.1152 L 6.7156,58.1433 L 6.7296,58.1714 L 6.7296,58.1855 L 6.7436,58.2136 L 6.7436,58.2277 L 6.7156,58.2558 L 6.7156,58.2698 L 6.7016,58.2839 L 6.7016,58.2980 L 6.6875,58.3120 L 6.6875,58.3261 L 6.6735,58.3261 L 6.6735,58.3542 L 6.6595,58.3542 L 6.6595,58.3683 L 6.6455,58.3823 L 6.6455,58.3964 L 6.6315,58.4104 L 6.6315,58.4245 L 6.6174,58.4245 L 6.6174,58.4386 L 6.6034,58.4526 L 6.5894,58.4526 L 6.5894,58.4667 L 6.5754,58.4808 L 6.5473,58.4808 L 6.5333,58.4667 L 6.4913,58.4667 L 6.4772,58.4526 L 6.4632,58.4526 L 6.4352,58.4386 L 6.4212,58.4386 L 6.4071,58.4245 L 6.3791,58.4104 L 6.3651,58.4104 L 6.3511,58.3964 L 6.3230,58.3823 L 6.3090,58.3683 L 6.2810,58.3683 L 6.2669,58.3542 L 6.2389,58.3401 L 6.2249,58.3261 L 6.1968,58.3120 L 6.1688,58.2839 L 6.1408,58.2698 L 6.1267,58.2558 L 6.0987,58.2417 L 6.0847,58.2277 L 6.0566,58.2136 L 6.0426,58.2136 L 6.0146,58.1855 L 5.9865,58.1714 L 5.9725,58.1573 L 5.9725,58.1292 L 5.9865,58.1152 L 5.9865,58.0730 L 6.0006,58.0589 L 6.0006,58.0308 L 6.0146,58.0308 L 6.0146,58.0027 L 6.0286,58.0027 L 6.0286,57.9886 L 6.0426,57.9746 L 6.0426,57.9605 L 6.0707,57.9324 L 6.0707,57.9183 L 6.0847,57.9183 L 6.0847,57.9042 L 6.0987,57.9042 L 6.1548,57.8480 L 6.1408,57.8339 L 6.1267,57.8339 L 6.1267,57.8199 L 6.1127,57.8199 L 6.0987,57.8058 L 6.0707,57.7918 L 6.0566,57.7777 L 6.0286,57.7636 L 6.0146,57.7496 L 5.9865,57.7355 L 5.9725,57.7074 L 5.8604,57.6511 L 5.8183,57.6090 L 5.7061,57.5527 L 5.6921,57.5387 L 5.6641,57.5246 L 5.6501,57.5246 L 5.6220,57.5105 L 5.6080,57.5105 L 5.5940,57.4965 L 5.5379,57.4965 L 5.5379,57.4824 L 5.5239,57.4824 L 5.5239,57.4683 L 5.5099,57.4683 Z" stroke="#007F00" stroke-width="0.1198" stroke-linecap="round" stroke-linejoin="round" fill="#007F00"/>
        <text font-family="Arial" fill="#007F00" style="white-space:pre;" text-anchor="start" x="4.1920" y="55.9638" font-size="1.4861"><![CDATA[R]]></text>
        <text font-family="Arial" fill="#FFFFFF" style="white-space:pre;" text-anchor="start" x="4.5004" y="62.7132" font-size="2.0890"><![CDATA[1]]></text>
        <text font-family="Arial" fill="#FFFFFF" style="white-space:pre;" text-anchor="start" x="4.5004" y="66.8050" font-size="2.0890"><![CDATA[4]]></text>
        <text font-family="Arial" fill="#FFFFFF" style="white-space:pre;" text-anchor="start" x="4.5004" y="70.7984" font-size="2.0890"><![CDATA[7]]></text>
        <text font-family="Arial" fill="#FFFFFF" style="white-space:pre;" text-anchor="start" x="12.2955" y="62.3617" font-size="2.0890"><![CDATA[2]]></text>
        <text font-family="Arial" fill="#FFFFFF" style="white-space:pre;" text-anchor="start" x="12.2955" y="66.8050" font-size="2.0890"><![CDATA[5]]></text>
        <text font-family="Arial" fill="#FFFFFF" style="white-space:pre;" text-anchor="start" x="12.2955" y="70.7984" font-size="2.0890"><![CDATA[8]]></text>
        <text font-family="Arial" fill="#FFFFFF" style="white-space:pre;" text-anchor="start" x="20.7216" y="62.7132" font-size="2.0890"><![CDATA[3]]></text>
        <text font-family="Arial" fill="#FFFFFF" style="white-space:pre;" text-anchor="start" x="20.7216" y="66.8050" font-size="2.0890"><![CDATA[6]]></text>
        <text font-family="Arial" fill="#FFFFFF" style="white-space:pre;" text-anchor="start" x="20.7216" y="70.7984" font-size="2.0890"><![CDATA[9]]></text>
        <text font-family="Arial" fill="#FFFFFF" style="white-space:pre;" text-anchor="start" x="14.0340" y="74.7356" font-size="2.0890"><![CDATA[0]]></text>
        <text font-family="Arial" fill="#FFFFFF" style="white-space:pre;" text-anchor="start" x="20.4271" y="74.7356" font-size="2.0890"><![CDATA[#]]></text>
        <text font-family="Arial" fill="#FFFFFF" style="white-space:pre;" text-anchor="start" x="4.4584" y="75.7620" font-size="3.1405"><![CDATA[*]]></text>
        <text font-family="Arial" fill="#FFFFFF" style="white-space:pre;" text-anchor="start" x="6.1828" y="66.7207" font-size="1.0375"><![CDATA[g]]></text>
        <text font-family="Arial" fill="#FFFFFF" style="white-space:pre;" text-anchor="start" x="6.7717" y="66.7207" font-size="1.0375"><![CDATA[h]]></text>
        <text font-family="Arial" fill="#FFFFFF" style="white-space:pre;" text-anchor="start" x="7.3605" y="66.7207" font-size="1.0375"><![CDATA[i]]></text>
        <text font-family="Arial" fill="#FFFFFF" style="white-space:pre;" text-anchor="start" x="6.1828" y="70.7844" font-size="1.0375"><![CDATA[p]]></text>
        <text font-family="Arial" fill="#FFFFFF" style="white-space:pre;" text-anchor="start" x="6.7717" y="70.7844" font-size="1.0375"><![CDATA[q]]></text>
        <text font-family="Arial" fill="#FFFFFF" style="white-space:pre;" text-anchor="start" x="7.3605" y="70.7844" font-size="1.0375"><![CDATA[r]]></text>
        <text font-family="Arial" fill="#FFFFFF" style="white-space:pre;" text-anchor="start" x="7.7110" y="70.7844" font-size="1.0375"><![CDATA[s]]></text>
        <text font-family="Arial" fill="#FFFFFF" style="white-space:pre;" text-anchor="start" x="13.8938" y="66.7207" font-size="1.0375"><![CDATA[j]]></text>
        <text font-family="Arial" fill="#FFFFFF" style="white-space:pre;" text-anchor="start" x="14.1322" y="66.7207" font-size="1.0375"><![CDATA[k]]></text>
        <text font-family="Arial" fill="#FFFFFF" style="white-space:pre;" text-anchor="start" x="14.6509" y="66.7207" font-size="1.0375"><![CDATA[l]]></text>
        <text font-family="Arial" fill="#FFFFFF" style="white-space:pre;" text-anchor="start" x="13.8938" y="70.7844" font-size="1.0375"><![CDATA[t]]></text>
        <text font-family="Arial" fill="#FFFFFF" style="white-space:pre;" text-anchor="start" x="14.1882" y="70.7844" font-size="1.0375"><![CDATA[u]]></text>
        <text font-family="Arial" fill="#FFFFFF" style="white-space:pre;" text-anchor="start" x="14.7771" y="70.7844" font-size="1.0375"><![CDATA[v]]></text>
        <text font-family="Arial" fill="#FFFFFF" style="white-space:pre;" text-anchor="start" x="22.4460" y="66.7207" font-size="1.0375"><![CDATA[m]]></text>
        <text font-family="Arial" fill="#FFFFFF" style="white-space:pre;" text-anchor="start" x="23.3153" y="66.7207" font-size="1.0375"><![CDATA[n]]></text>
        <text font-family="Arial" fill="#FFFFFF" style="white-space:pre;" text-anchor="start" x="23.9041" y="66.7207" font-size="1.0375"><![CDATA[o]]></text>
        <text font-family="Arial" fill="#FFFFFF" style="white-space:pre;" text-anchor="start" x="22.4460" y="70.7844" font-size="1.0375"><![CDATA[w]]></text>
        <text font-family="Arial" fill="#FFFFFF" style="white-space:pre;" text-anchor="start" x="23.2031" y="70.7844" font-size="1.0375"><![CDATA[x]]></text>
        <text font-family="Arial" fill="#FFFFFF" style="white-space:pre;" text-anchor="start" x="23.7218" y="70.7844" font-size="1.0375"><![CDATA[y]]></text>
        <text font-family="Arial" fill="#FFFFFF" style="white-space:pre;" text-anchor="start" x="24.2406" y="70.7844" font-size="1.0375"><![CDATA[z]]></text>
        <text font-family="Arial" fill="#FFFFFF" style="white-space:pre;" text-anchor="start" x="13.8938" y="62.1929" font-size="1.0375"><![CDATA[a]]></text>
        <text font-family="Arial" fill="#FFFFFF" style="white-space:pre;" text-anchor="start" x="14.4827" y="62.1929" font-size="1.0375"><![CDATA[b]]></text>
        <text font-family="Arial" fill="#FFFFFF" style="white-space:pre;" text-anchor="start" x="15.0715" y="62.1929" font-size="1.0375"><![CDATA[c]]></text>
        <text font-family="Arial" fill="#FFFFFF" style="white-space:pre;" text-anchor="start" x="22.4460" y="62.6991" font-size="1.0375"><![CDATA[d]]></text>
        <text font-family="Arial" fill="#FFFFFF" style="white-space:pre;" text-anchor="start" x="23.0349" y="62.6991" font-size="1.0375"><![CDATA[e]]></text>
        <text font-family="Arial" fill="#FFFFFF" style="white-space:pre;" text-anchor="start" x="23.6237" y="62.6991" font-size="1.0375"><![CDATA[f]]></text>
        <text font-family="Arial" fill="#FFFFFF" style="white-space:pre;" text-anchor="start" x="6.4352" y="75.1012" font-size="1.0375"><![CDATA[a]]></text>
        <text font-family="Arial" fill="#FFFFFF" style="white-space:pre;" text-anchor="start" x="7.0240" y="75.1012" font-size="1.0375"><![CDATA[/]]></text>
        <text font-family="Arial" fill="#FFFFFF" style="white-space:pre;" text-anchor="start" x="7.3184" y="75.1012" font-size="1.0375"><![CDATA[A]]></text>
        <path d="M 6.7576,73.5825 L 6.7576,73.5404 L 6.7436,73.4982 L 6.7156,73.4419 L 6.6875,73.4138 L 6.6315,73.3857 L 6.5754,73.3857 L 6.5193,73.4138 L 6.4913,73.4419 L 6.4632,73.4982 L 6.4492,73.5404 L 6.4492,73.6247 L 6.4632,73.6669 L 6.4913,73.7232 L 6.5193,73.7513 L 6.5754,73.7794 L 6.6315,73.7794 L 6.6875,73.7513 L 6.7156,73.7232 L 6.7436,73.6669 L 6.7576,73.6247 L 6.7576,73.5825 " stroke="#FFFFFF" stroke-width="0.1198" stroke-linecap="round" stroke-linejoin="round" fill="none"/>
        <path d="M 6.8277,73.6528 L 6.7997,73.6528 L 6.7997,73.6810 L 6.7857,73.6950 L 6.7857,73.7232 L 6.7717,73.7372 L 6.7717,73.7513 L 6.7576,73.7653 L 6.7576,73.7794 L 6.7016,73.8356 L 6.6875,73.8356 L 6.6875,73.8497 L 6.6595,73.8497 L 6.6455,73.8638 L 6.5614,73.8638 L 6.5473,73.8497 L 6.5193,73.8497 L 6.5193,73.8356 L 6.5053,73.8356 L 6.5053,73.8216 L 6.4913,73.8216 L 6.4913,73.8075 L 6.4772,73.8075 L 6.4632,73.7935 L 6.4632,73.7794 L 6.4352,73.7513 L 6.4352,73.7232 L 6.4212,73.7091 L 6.4212,73.6810 L 6.4071,73.6669 L 6.4071,73.5263 L 6.4212,73.5122 L 6.4212,73.4701 L 6.4352,73.4560 L 6.4352,73.4419 L 6.4492,73.4279 L 6.4492,73.4138 L 6.4632,73.4138 L 6.4632,73.3857 L 6.4772,73.3857 L 6.4913,73.3716 L 6.4913,73.3576 L 6.5053,73.3576 L 6.5053,73.3435 L 6.5193,73.3435 L 6.5333,73.3294 L 6.5473,73.3294 L 6.5614,73.3154 L 6.6455,73.3154 L 6.6595,73.3294 L 6.6875,73.3294 L 6.6875,73.3435 L 6.7016,73.3435 L 6.7436,73.3857 L 6.7436,73.3997 L 6.7576,73.3997 L 6.7576,73.4138 L 6.7717,73.4279 L 6.7717,73.4560 L 6.7857,73.4701 L 6.7857,73.4982 L 6.7997,73.4982 L 6.7997,73.5122 L 6.8137,73.5122 L 6.8137,73.5263 L 6.8277,73.5263 L 6.8277,73.5404 L 7.8652,73.5404 L 7.8652,73.9341 L 7.7671,73.9341 L 7.7671,73.6528 L 7.6269,73.6528 L 7.6269,73.8497 L 7.5287,73.8497 L 7.5287,73.6528 L 7.4166,73.6528 L 7.4166,73.9341 L 7.3044,73.9341 L 7.3044,73.6528 L 6.8418,73.6528 L 6.8277,73.6528 " stroke="#FFFFFF" stroke-width="0.1198" stroke-linecap="round" stroke-linejoin="round" fill="none"/>
        <path d="M 23.7499,74.3559 L 24.0723,74.6793 L 24.0303,74.7215 L 24.0303,74.7356 L 24.0163,74.7356 L 23.9742,74.7777 L 23.8480,74.6512 L 23.8200,74.6371 L 23.8060,74.6090 L 23.7779,74.5950 L 23.7639,74.5809 L 23.7499,74.5528 L 23.7218,74.5387 L 23.7078,74.5106 L 23.6798,74.4965 L 23.5536,74.3700 L 23.2732,74.3700 L 23.2452,74.3559 L 22.9788,74.3559 L 22.9788,74.3981 L 22.9648,74.4122 L 22.9648,74.4403 L 22.9507,74.4543 L 22.9507,74.4684 L 22.9367,74.4684 L 22.9367,74.4825 L 22.9227,74.4825 L 22.9227,74.4965 L 22.9087,74.4965 L 22.9087,74.5106 L 22.8947,74.5106 L 22.8806,74.5246 L 22.8666,74.5246 L 22.8526,74.5387 L 22.8105,74.5387 L 22.7965,74.5528 L 22.6423,74.5528 L 22.6283,74.5387 L 22.5862,74.5387 L 22.5722,74.5246 L 22.5582,74.5246 L 22.5301,74.4965 L 22.5161,74.4965 L 22.5161,74.4825 L 22.4881,74.4543 L 22.4881,74.4262 L 22.4741,74.4122 L 22.4741,74.3700 L 22.3899,74.3700 L 22.3759,74.3559 L 22.2918,74.3559 L 22.3058,74.3418 L 22.3198,74.3418 L 22.3759,74.2856 L 22.3899,74.2575 L 22.4040,74.2434 L 22.4040,74.2294 L 22.4180,74.2153 L 22.4180,74.1872 L 22.4320,74.1731 L 22.4320,74.1450 L 22.4460,74.1309 L 22.4460,74.0887 L 22.4600,74.0606 L 22.4600,73.9763 L 22.4741,73.9622 L 22.4741,73.7513 L 22.4881,73.7372 L 22.4881,73.7232 L 22.5021,73.7232 L 22.5021,73.7091 L 22.5722,73.6388 L 22.5862,73.6388 L 22.5862,73.6247 L 22.6002,73.6247 L 22.6143,73.6107 L 22.6283,73.6107 L 22.6563,73.5825 L 22.6844,73.5825 L 22.7124,73.5544 L 22.7264,73.5544 L 22.6703,73.4982 L 22.6703,73.4841 L 22.4600,73.2732 L 22.4600,73.2591 L 22.4040,73.2029 L 22.4460,73.1607 L 22.4600,73.1607 L 22.4600,73.1466 L 22.5021,73.1045 L 22.6283,73.2310 L 22.6423,73.2591 L 22.6703,73.2732 L 22.6844,73.3013 L 22.7124,73.3154 L 22.7264,73.3294 L 22.7404,73.3576 L 22.7685,73.3716 L 22.7825,73.3997 L 22.9087,73.5263 L 22.9087,73.5122 L 22.9367,73.5122 L 22.9367,73.4982 L 23.0068,73.4982 L 23.0208,73.4841 L 23.1050,73.4841 L 23.1190,73.4701 L 23.3573,73.4701 L 23.3854,73.4841 L 23.4695,73.4841 L 23.4975,73.4982 L 23.5536,73.4982 L 23.5816,73.5122 L 23.6237,73.5122 L 23.6798,73.5404 L 23.7078,73.5404 L 23.7639,73.5685 L 23.7919,73.5685 L 23.8060,73.5825 L 23.8620,73.6107 L 23.8761,73.6247 L 23.9041,73.6388 L 23.9181,73.6528 L 23.9462,73.6669 L 24.0022,73.7232 L 24.0022,73.7513 L 24.0163,73.7653 L 24.0163,73.8497 L 24.0303,73.8638 L 24.0303,73.9763 L 24.0443,73.9903 L 24.0443,74.0606 L 24.0583,74.0747 L 24.0583,74.1169 L 24.0723,74.1450 L 24.0723,74.1591 L 24.0864,74.1731 L 24.0864,74.2012 L 24.1004,74.2153 L 24.1004,74.2294 L 24.1144,74.2434 L 24.1284,74.2715 L 24.1284,74.2856 L 24.1565,74.3137 L 24.1565,74.3278 L 24.1705,74.3418 L 24.1845,74.3418 L 24.1985,74.3559 L 23.7639,74.3559 L 23.7499,74.3559 " stroke="#FFFFFF" stroke-width="0.1198" stroke-linecap="round" stroke-linejoin="round" fill="none"/>
        <path d="M 22.8105,73.6388 L 22.7965,73.6388 L 22.7965,73.6528 L 22.7685,73.6528 L 22.7545,73.6669 L 22.7404,73.6669 L 22.7404,73.6810 L 22.7264,73.6810 L 22.6984,73.7091 L 22.6844,73.7091 L 22.6844,73.7232 L 22.6703,73.7232 L 22.6563,73.7372 L 22.6563,73.7513 L 22.6423,73.7513 L 22.6423,73.7653 L 22.6283,73.7653 L 22.6283,73.7935 L 22.6143,73.7935 L 22.6143,73.9763 L 22.6002,74.0044 L 22.6002,74.0887 L 22.5862,74.1028 L 22.5862,74.1309 L 22.5722,74.1450 L 22.5722,74.1591 L 22.5582,74.1872 L 22.5582,74.2012 L 22.5161,74.2434 L 22.5161,74.2575 L 22.5021,74.2715 L 22.4881,74.2715 L 22.4741,74.2856 L 23.4555,74.2856 L 22.8246,73.6528 L 22.8105,73.6388 " stroke="#FFFFFF" stroke-width="0.1198" stroke-linecap="round" stroke-linejoin="round" fill="none"/>
        <path d="M 23.6798,74.2856 L 24.0022,74.2856 L 23.9602,74.2434 L 23.9602,74.2294 L 23.9462,74.2294 L 23.9462,74.2153 L 23.9321,74.2012 L 23.9321,74.1872 L 23.9181,74.1731 L 23.9181,74.1309 L 23.9041,74.1169 L 23.9041,74.0887 L 23.8901,74.0747 L 23.8901,74.0184 L 23.8761,74.0044 L 23.8761,73.8919 L 23.8620,73.8778 L 23.8620,73.7794 L 23.8340,73.7513 L 23.8340,73.7372 L 23.8060,73.7091 L 23.7919,73.7091 L 23.7779,73.6950 L 23.7499,73.6810 L 23.7218,73.6528 L 23.6938,73.6528 L 23.6798,73.6388 L 23.6517,73.6388 L 23.6377,73.6247 L 23.6097,73.6107 L 23.5816,73.6107 L 23.5676,73.5966 L 23.5396,73.5966 L 23.5115,73.5825 L 23.4695,73.5825 L 23.4414,73.5685 L 23.3713,73.5685 L 23.3573,73.5544 L 23.1330,73.5544 L 23.1190,73.5685 L 23.0208,73.5685 L 23.0068,73.5825 L 22.9648,73.5825 L 23.2171,73.8356 L 23.2592,73.8638 L 23.2872,73.9060 L 23.3293,73.9341 L 23.3573,73.9622 L 23.3854,74.0044 L 23.4274,74.0325 L 23.6658,74.2715 L 23.6798,74.2856 " stroke="#FFFFFF" stroke-width="0.1198" stroke-linecap="round" stroke-linejoin="round" fill="none"/>
        <text font-family="Arial" fill="#FFFFFF" style="white-space:pre;" text-anchor="start" x="13.4171" y="53.7140" font-size="1.4581"><![CDATA[O]]></text>
        <text font-family="Arial" fill="#FFFFFF" style="white-space:pre;" text-anchor="start" x="14.5668" y="53.7140" font-size="1.4581"><![CDATA[K]]></text>
        <path d="M 29.9047,0.6468 L 29.9047,0.5906 L 29.8906,0.5484 L 29.8906,0.4921 L 29.8626,0.4359 L 29.8626,0.4078 L 29.8205,0.3234 L 29.7925,0.3093 L 29.7645,0.2531 L 29.7364,0.2390 L 29.7224,0.2109 L 29.6944,0.1969 L 29.6803,0.1687 L 29.6243,0.1406 L 29.6102,0.1125 L 29.5542,0.0844 L 29.5261,0.0844 L 29.4420,0.0422 L 29.3859,0.0422 L 29.3439,0.0281 L 0.5888,0.0281 L 0.5468,0.0422 L 0.4907,0.0422 L 0.4066,0.0844 L 0.3785,0.0844 L 0.3225,0.1125 L 0.3084,0.1406 L 0.2524,0.1687 L 0.2383,0.1969 L 0.2103,0.2109 L 0.1963,0.2390 L 0.1682,0.2531 L 0.1402,0.3093 L 0.1122,0.3234 L 0.0841,0.3797 L 0.0841,0.4078 L 0.0421,0.4921 L 0.0421,0.5484 L 0.0280,0.5906 L 0.0280,83.0317 L 0.0421,83.0739 L 0.0421,83.1301 L 0.0841,83.2145 L 0.0841,83.2426 L 0.1122,83.2989 L 0.1402,83.3129 L 0.1682,83.3692 L 0.1963,83.3832 L 0.2103,83.4114 L 0.2383,83.4254 L 0.2524,83.4535 L 0.3084,83.4817 L 0.3225,83.5098 L 0.4066,83.5520 L 0.4346,83.5520 L 0.4907,83.5801 L 0.5468,83.5801 L 0.5888,83.5942 L 29.3439,83.5942 L 29.3859,83.5801 L 29.4420,83.5801 L 29.4981,83.5520 L 29.5261,83.5520 L 29.6102,83.5098 L 29.6243,83.4817 L 29.6803,83.4535 L 29.6944,83.4254 L 29.7224,83.4114 L 29.7364,83.3832 L 29.7645,83.3692 L 29.7925,83.3129 L 29.8205,83.2989 L 29.8626,83.2145 L 29.8626,83.1864 L 29.8906,83.1301 L 29.8906,83.0739 L 29.9047,83.0317 L 29.9047,0.8859 L 29.9047,0.6468 Z" stroke="#000000" stroke-width="0.1198" stroke-linecap="round" stroke-linejoin="round" fill="none"/>
        <path d="M 14.0761,53.9249 L 15.0154,55.0076 L 16.8520,52.0407 L 16.9782,52.0688 L 15.0435,55.2467 L 13.9499,53.9952 L 14.0761,53.9249 Z" stroke="#FFFFFF" stroke-width="0.1198" stroke-linecap="round" stroke-linejoin="round" fill="#FFFFFF"/>
        <path d="M 0.2123,69.7543 L 0.0000,69.7543 L 0.0000,69.9671 L 0.2123,69.9671 L 0.2123,69.7543 Z" stroke="#000000" stroke-width="0.1198" stroke-linecap="round" stroke-linejoin="round" fill="none"/>
        <path d="M 5.3735,83.4254 L 5.1613,83.4254 L 5.1613,83.6382 L 5.3735,83.6382 L 5.3735,83.4254 Z" stroke="#000000" stroke-width="0.1198" stroke-linecap="round" stroke-linejoin="round" fill="none"/>
      </g>
      <!--emf-blob end-->
    </g>
  </g>
</svg>
