<svg xmlns="http://www.w3.org/2000/svg" xmlns:xlink="http://www.w3.org/1999/xlink" version="1.1" width="8.0452000000" height="3.0536000000" viewBox="0 0 144.8100 54.9618">
  <title><![CDATA[FortiFone Cordless Base (F)]]></title>
  <g transform=" scale(4.000000) ">
    <!--converted by libvisio2svg-->
    <g transform=" translate(39.353000,0.720000) ">
      <!--emf-blob start-->
      <g transform="translate(-0.0000, -0.0000)">
        <path d="M 0.0281,10.3456 L 0.7595,10.8235 L 1.1111,11.0765 L 1.4627,11.3436 L 1.8003,11.6107 L 2.1378,11.8918 L 2.4613,12.1870 L 2.7707,12.4681 L 3.0802,12.7774 L 3.3896,13.0726 L 3.6709,13.3959 L 3.9522,13.7051 L 4.2335,14.0284 L 4.5007,14.3517 L 4.7539,14.6891 L 5.2321,15.3638 L 5.4430,15.7011 L 5.6681,16.0385 L 5.8650,16.3899 L 6.0478,16.7413 L 6.2306,17.0787 L 6.3994,17.4301 L 6.5541,17.7815 L 6.8354,18.4843 L 6.9479,18.8357 L 7.1448,19.5386 L 7.2292,19.8900 L 7.2855,20.2414 L 7.3418,20.5787 L 58.7340,20.5787 L 58.7903,20.2414 L 58.8465,19.8900 L 58.9309,19.5386 L 59.1278,18.8357 L 59.2403,18.4843 L 59.5216,17.7815 L 59.6764,17.4301 L 59.8451,17.0787 L 60.0280,16.7413 L 60.2108,16.3899 L 60.4077,16.0385 L 60.6327,15.7011 L 60.8437,15.3638 L 61.3219,14.6891 L 61.5751,14.3517 L 61.8423,14.0284 L 62.1236,13.7051 L 62.4049,13.3959 L 62.6862,13.0726 L 62.9956,12.7774 L 63.3050,12.4681 L 63.6145,12.1870 L 63.9379,11.8918 L 64.2755,11.6107 L 64.6130,11.3436 L 64.9647,11.0765 L 65.3163,10.8235 L 66.0476,10.3456 L 0.2110,10.3456 L 0.0281,10.3456 Z" stroke="#000000" stroke-width="0.1200" stroke-linecap="round" stroke-linejoin="round" fill="#EAEAEA"/>
        <path d="M 66.0476,10.3456 L 66.0476,9.8396 L 0.0281,9.8396 L 0.0281,10.3456 L 0.0844,10.3878 L 0.1406,10.4159 L 0.2532,10.5002 L 0.3094,10.5283 L 0.3657,10.5705 L 0.4219,10.5986 L 0.4782,10.6408 L 0.5345,10.6689 L 0.5767,10.7111 L 0.6329,10.7392 L 0.6892,10.7814 L 0.7314,10.8095 L 0.7876,10.8376 L 0.8298,10.8797 L 1.0830,11.0484 L 1.1111,11.0765 L 1.1533,11.1047 L 1.1814,11.1187 L 1.2096,11.1468 L 1.2377,11.1609 L 1.2799,11.2030 L 1.3080,11.2171 L 1.3502,11.2593 L 1.4487,11.3296 L 1.5612,11.4139 L 1.6596,11.4982 L 1.8847,11.6669 L 1.9831,11.7513 L 2.0956,11.8356 L 2.2082,11.9340 L 2.3066,12.0324 L 2.4191,12.1167 L 2.5316,12.2151 L 2.7426,12.4260 L 2.8551,12.5244 L 3.0802,12.7493 L 3.1786,12.8617 L 3.4036,13.0866 L 3.5021,13.1991 L 3.7271,13.4240 L 3.8256,13.5505 L 3.9381,13.6770 L 4.0366,13.7894 L 4.1350,13.9160 L 4.2475,14.0425 L 4.7398,14.6750 L 61.3360,14.6750 L 61.4063,14.5766 L 61.4907,14.4782 L 61.5610,14.3798 L 61.6454,14.2674 L 61.8142,14.0706 L 61.8986,13.9581 L 62.0673,13.7613 L 62.1658,13.6489 L 62.2642,13.5505 L 62.3486,13.4380 L 62.4471,13.3256 L 62.5455,13.2272 L 62.6440,13.1147 L 62.7565,13.0163 L 62.8550,12.9039 L 63.0800,12.6790 L 63.1925,12.5806 L 63.5301,12.2432 L 63.6566,12.1308 L 63.7832,12.0324 L 63.8957,11.9199 L 64.0223,11.8075 L 64.1630,11.6950 L 64.2896,11.5826 L 64.4161,11.4842 L 64.6974,11.2593 L 64.7256,11.2452 L 64.7678,11.2171 L 64.7959,11.1890 L 64.8381,11.1749 L 64.8803,11.1328 L 64.9365,11.1047 L 64.9787,11.0765 L 65.0350,11.0484 L 65.0772,11.0063 L 65.1334,10.9641 L 65.1897,10.9360 L 65.2319,10.8938 L 65.3444,10.8095 L 65.4007,10.7814 L 65.4569,10.7392 L 65.4991,10.6970 L 65.5554,10.6689 L 65.6116,10.6267 L 65.6538,10.5986 L 65.7101,10.5564 L 65.8789,10.4440 L 65.9070,10.4159 L 65.9351,10.4018 L 65.9773,10.3878 L 65.9914,10.3737 L 66.0195,10.3597 L 66.0336,10.3456 L 66.0476,10.3456 Z" stroke="#000000" stroke-width="0.1200" stroke-linecap="round" stroke-linejoin="round" fill="#BFBFBF"/>
        <path d="M 15.3727,3.3736 L 15.2883,3.3736 L 15.1898,3.3876 L 15.0492,3.3876 L 14.8804,3.4017 L 14.6835,3.4157 L 14.4585,3.4298 L 14.2194,3.4438 L 13.6568,3.4720 L 13.3474,3.5001 L 13.0239,3.5141 L 12.6863,3.5422 L 12.3488,3.5563 L 12.0112,3.5844 L 11.3080,3.6125 L 10.9704,3.6406 L 10.6329,3.6547 L 10.2953,3.6828 L 9.9718,3.6969 L 9.6624,3.7250 L 9.3811,3.7390 L 9.1139,3.7531 L 8.8607,3.7671 L 8.6357,3.7812 L 8.4388,3.7953 L 8.2700,3.8093 L 8.1294,3.8093 L 8.0309,3.8234 L 7.9465,3.8234 L 7.9184,3.8374 L 7.8621,3.8796 L 7.7496,3.9499 L 7.6090,4.0483 L 7.4261,4.1607 L 7.2152,4.3013 L 6.9761,4.4559 L 6.7088,4.6246 L 6.4135,4.8214 L 6.1041,5.0182 L 5.7806,5.2290 L 5.4430,5.4539 L 5.0914,5.6788 L 4.3600,6.1568 L 3.9944,6.4098 L 3.6146,6.6487 L 2.8833,7.1267 L 2.5316,7.3516 L 2.1941,7.5765 L 1.8706,7.7873 L 1.5612,7.9841 L 1.2658,8.1809 L 0.9986,8.3496 L 0.7595,8.5042 L 0.5485,8.6448 L 0.3657,8.7572 L 0.2250,8.8556 L 0.1125,8.9259 L 0.0563,8.9681 L 0.0281,8.9821 L 0.0281,9.8396 L 0.1969,10.0504 L 0.7314,10.2331 L 1.6034,10.4159 L 2.7989,10.5846 L 4.2757,10.7392 L 6.0197,10.8797 L 8.0169,11.0063 L 10.2250,11.1328 L 12.6301,11.2312 L 15.2039,11.3155 L 17.9184,11.3998 L 20.7594,11.4561 L 23.6990,11.5123 L 26.7229,11.5545 L 29.7749,11.5685 L 32.8691,11.5826 L 35.9633,11.5826 L 39.0294,11.5685 L 42.0533,11.5404 L 44.9928,11.4842 L 47.8480,11.4280 L 50.5906,11.3577 L 53.1785,11.2733 L 55.5976,11.1749 L 57.8339,11.0484 L 59.8451,10.9219 L 61.6173,10.7814 L 63.1363,10.6267 L 64.3599,10.4440 L 65.2600,10.2613 L 65.8367,10.0504 L 66.0476,9.8396 L 66.0476,8.9821 L 66.0195,8.9681 L 65.9633,8.9259 L 65.8507,8.8556 L 65.7101,8.7572 L 65.5272,8.6448 L 65.3163,8.5042 L 65.0772,8.3496 L 64.8100,8.1809 L 64.5146,7.9841 L 64.2052,7.7873 L 63.8817,7.5765 L 63.5441,7.3516 L 63.1925,7.1267 L 62.0955,6.4098 L 61.7157,6.1568 L 60.9844,5.6788 L 60.6327,5.4539 L 60.2952,5.2290 L 59.9717,5.0182 L 59.6623,4.8214 L 59.3669,4.6246 L 59.0997,4.4559 L 58.8606,4.3013 L 58.6496,4.1607 L 58.4668,4.0483 L 58.3261,3.9499 L 58.2136,3.8796 L 58.1574,3.8374 L 58.1292,3.8234 L 58.0449,3.8234 L 57.9464,3.8093 L 57.8058,3.8093 L 57.6370,3.7953 L 57.4401,3.7812 L 57.2150,3.7671 L 56.9759,3.7531 L 56.4133,3.7250 L 56.1039,3.6969 L 55.7804,3.6828 L 55.4429,3.6547 L 55.1053,3.6406 L 54.7678,3.6125 L 54.0646,3.5844 L 53.7270,3.5563 L 53.3894,3.5422 L 53.0519,3.5141 L 52.7284,3.5001 L 52.4190,3.4720 L 52.1377,3.4579 L 51.8705,3.4438 L 51.6173,3.4298 L 51.3923,3.4157 L 51.1954,3.4017 L 51.0266,3.3876 L 50.8859,3.3876 L 50.7875,3.3736 L 15.4711,3.3736 L 15.3727,3.3736 Z" stroke="#000000" stroke-width="0.1200" stroke-linecap="round" stroke-linejoin="round" fill="#BFBFBF"/>
        <path d="M 23.0379,3.3736 L 23.3614,3.8655 L 23.6708,4.3294 L 23.9943,4.7652 L 24.3037,5.1728 L 24.6132,5.5523 L 24.9226,5.9178 L 25.2320,6.2692 L 25.5414,6.5925 L 25.8508,6.8877 L 26.1462,7.1688 L 26.4556,7.4359 L 26.7650,7.6749 L 27.0604,7.8998 L 27.3698,8.0966 L 27.6652,8.2933 L 27.9746,8.4761 L 28.2840,8.6307 L 28.5794,8.7713 L 28.8888,8.9118 L 29.5077,9.1367 L 29.8171,9.2351 L 30.1265,9.3195 L 30.4359,9.3898 L 30.7594,9.4600 L 31.0688,9.5163 L 31.3923,9.5584 L 31.7158,9.6147 L 32.0393,9.6428 L 32.3768,9.6709 L 32.7003,9.6990 L 33.0379,9.7271 L 33.3332,9.7271 L 33.6286,9.7131 L 33.9380,9.6849 L 34.5569,9.6006 L 34.8804,9.5444 L 35.2179,9.4741 L 35.5414,9.4038 L 36.2165,9.2070 L 36.5541,9.0946 L 36.9057,8.9681 L 37.2432,8.8275 L 37.5948,8.6729 L 37.9324,8.5042 L 38.2699,8.3215 L 38.6216,8.1247 L 39.2967,7.7030 L 39.6342,7.4640 L 39.9577,7.2110 L 40.2812,6.9439 L 40.6047,6.6628 L 41.2235,6.0443 L 41.5329,5.7069 L 41.8283,5.3696 L 42.1096,5.0041 L 42.3909,4.6246 L 42.6581,4.2170 L 42.9113,3.8093 L 43.1644,3.3736 L 23.0942,3.3736 L 23.0379,3.3736 Z" stroke="#AFAFAF" stroke-width="0.1200" stroke-linecap="round" stroke-linejoin="round" fill="#AFAFAF"/>
        <text font-family="Arial" fill="#FFFFFF" transform="rotate(-40, 28.5935, 11.6560) translate(0, 0.6076)" style="white-space:pre;" text-anchor="start" x="28.5935" y="11.0484" font-size="0.6751"><![CDATA[I]]></text>
        <text font-family="Arial" fill="#FFFFFF" transform="rotate(-40, 28.7341, 11.5436) translate(0, 0.6076)" style="white-space:pre;" text-anchor="start" x="28.7341" y="10.9360" font-size="0.6751"><![CDATA[-]]></text>
        <text font-family="Arial" fill="#FFFFFF" transform="rotate(-40, 28.9029, 11.3889) translate(0, 0.6076)" style="white-space:pre;" text-anchor="start" x="28.9029" y="10.7814" font-size="0.6751"><![CDATA[N]]></text>
        <text font-family="Arial" fill="#FFFFFF" transform="rotate(-40, 29.2826, 11.0797) translate(0, 0.6076)" style="white-space:pre;" text-anchor="start" x="29.2826" y="10.4721" font-size="0.6751"><![CDATA[E]]></text>
        <text font-family="Arial" fill="#FFFFFF" transform="rotate(-40, 29.6342, 10.7845) translate(0, 0.6076)" style="white-space:pre;" text-anchor="start" x="29.6342" y="10.1769" font-size="0.6751"><![CDATA[T]]></text>
        <text font-family="Arial" fill="#FFFFFF" transform="rotate(-40, 26.7791, 11.5998) translate(0, 0.6076)" style="white-space:pre;" text-anchor="start" x="26.7791" y="10.9922" font-size="0.6751"><![CDATA[P]]></text>
        <text font-family="Arial" fill="#FFFFFF" transform="rotate(-40, 27.1307, 11.3046) translate(0, 0.6076)" style="white-space:pre;" text-anchor="start" x="27.1307" y="10.6970" font-size="0.6751"><![CDATA[O]]></text>
        <text font-family="Arial" fill="#FFFFFF" transform="rotate(-40, 27.5245, 10.9813) translate(0, 0.6076)" style="white-space:pre;" text-anchor="start" x="27.5245" y="10.3737" font-size="0.6751"><![CDATA[W]]></text>
        <text font-family="Arial" fill="#FFFFFF" transform="rotate(-40, 28.0027, 10.5737) translate(0, 0.6076)" style="white-space:pre;" text-anchor="start" x="28.0027" y="9.9661" font-size="0.6751"><![CDATA[E]]></text>
        <text font-family="Arial" fill="#FFFFFF" transform="rotate(-40, 28.3544, 10.2785) translate(0, 0.6076)" style="white-space:pre;" text-anchor="start" x="28.3544" y="9.6709" font-size="0.6751"><![CDATA[R]]></text>
        <path d="M 15.3727,3.3736 L 15.2883,3.3736 L 15.1898,3.3876 L 15.0492,3.3876 L 14.8804,3.4017 L 14.6835,3.4157 L 14.4585,3.4298 L 14.2194,3.4438 L 13.6568,3.4720 L 13.3474,3.5001 L 13.0239,3.5141 L 12.6863,3.5422 L 12.3488,3.5563 L 12.0112,3.5844 L 11.3080,3.6125 L 10.9704,3.6406 L 10.6329,3.6547 L 10.2953,3.6828 L 9.9718,3.6969 L 9.6624,3.7250 L 9.3811,3.7390 L 9.1139,3.7531 L 8.8607,3.7671 L 8.6357,3.7812 L 8.4388,3.7953 L 8.2700,3.8093 L 8.1294,3.8093 L 8.0309,3.8234 L 7.9465,3.8234 L 7.9184,3.8374 L 7.8621,3.8796 L 7.7496,3.9499 L 7.6090,4.0483 L 7.4261,4.1607 L 7.2152,4.3013 L 6.9761,4.4559 L 6.7088,4.6246 L 6.4135,4.8214 L 6.1041,5.0182 L 5.7806,5.2290 L 5.4430,5.4539 L 5.0914,5.6788 L 4.3600,6.1568 L 3.9944,6.4098 L 3.6146,6.6487 L 2.8833,7.1267 L 2.5316,7.3516 L 2.1941,7.5765 L 1.8706,7.7873 L 1.5612,7.9841 L 1.2658,8.1809 L 0.9986,8.3496 L 0.7595,8.5042 L 0.5485,8.6448 L 0.3657,8.7572 L 0.2250,8.8556 L 0.1125,8.9259 L 0.0563,8.9681 L 0.0281,8.9821 L 0.0281,9.8396 L 0.1969,10.0504 L 0.7314,10.2331 L 1.6034,10.4159 L 2.7989,10.5846 L 4.2757,10.7392 L 6.0197,10.8797 L 8.0169,11.0063 L 10.2250,11.1328 L 12.6301,11.2312 L 15.2039,11.3155 L 17.9184,11.3998 L 20.7594,11.4561 L 23.6990,11.5123 L 26.7229,11.5545 L 29.7749,11.5685 L 32.8691,11.5826 L 35.9633,11.5826 L 39.0294,11.5685 L 42.0533,11.5404 L 44.9928,11.4842 L 47.8480,11.4280 L 50.5906,11.3577 L 53.1785,11.2733 L 55.5976,11.1749 L 57.8339,11.0484 L 59.8451,10.9219 L 61.6173,10.7814 L 63.1363,10.6267 L 64.3599,10.4440 L 65.2600,10.2613 L 65.8367,10.0504 L 66.0476,9.8396 L 66.0476,8.9821 L 66.0195,8.9681 L 65.9633,8.9259 L 65.8507,8.8556 L 65.7101,8.7572 L 65.5272,8.6448 L 65.3163,8.5042 L 65.0772,8.3496 L 64.8100,8.1809 L 64.5146,7.9841 L 64.2052,7.7873 L 63.8817,7.5765 L 63.5441,7.3516 L 63.1925,7.1267 L 62.0955,6.4098 L 61.7157,6.1568 L 60.9844,5.6788 L 60.6327,5.4539 L 60.2952,5.2290 L 59.9717,5.0182 L 59.6623,4.8214 L 59.3669,4.6246 L 59.0997,4.4559 L 58.8606,4.3013 L 58.6496,4.1607 L 58.4668,4.0483 L 58.3261,3.9499 L 58.2136,3.8796 L 58.1574,3.8374 L 58.1292,3.8234 L 58.0449,3.8234 L 57.9464,3.8093 L 57.8058,3.8093 L 57.6370,3.7953 L 57.4401,3.7812 L 57.2150,3.7671 L 56.9759,3.7531 L 56.4133,3.7250 L 56.1039,3.6969 L 55.7804,3.6828 L 55.4429,3.6547 L 55.1053,3.6406 L 54.7678,3.6125 L 54.0646,3.5844 L 53.7270,3.5563 L 53.3894,3.5422 L 53.0519,3.5141 L 52.7284,3.5001 L 52.4190,3.4720 L 52.1377,3.4579 L 51.8705,3.4438 L 51.6173,3.4298 L 51.3923,3.4157 L 51.1954,3.4017 L 51.0266,3.3876 L 50.8859,3.3876 L 50.7875,3.3736 L 15.4711,3.3736 L 15.3727,3.3736 Z" stroke="#000000" stroke-width="0.1200" stroke-linecap="round" stroke-linejoin="round" fill="none"/>
        <path d="M 30.8860,3.3736 L 30.8860,3.4157 L 30.8719,3.4298 L 30.8719,3.6547 L 30.8860,3.6688 L 30.8860,4.0061 L 30.9001,4.1888 L 30.9141,4.3856 L 30.9704,4.8073 L 30.9985,5.0322 L 31.0829,5.4820 L 31.1392,5.7210 L 31.1814,5.9600 L 31.2517,6.1989 L 31.3079,6.4238 L 31.4486,6.9018 L 31.5189,7.1267 L 31.6877,7.5765 L 31.7721,7.7873 L 31.8705,7.9982 L 31.9549,8.1950 L 32.1518,8.5604 L 32.3487,8.8697 L 32.4612,9.0102 L 32.5597,9.1367 L 32.6722,9.2492 L 32.7707,9.3335 L 32.8832,9.4038 L 32.9957,9.4600 L 33.1082,9.4882 L 33.2207,9.5022 L 33.3332,9.4882 L 33.4458,9.4600 L 33.5442,9.4038 L 33.6567,9.3335 L 33.7552,9.2492 L 33.8536,9.1367 L 33.9521,9.0102 L 34.0365,8.8697 L 34.1349,8.7150 L 34.2193,8.5604 L 34.3881,8.1950 L 34.4584,7.9982 L 34.5991,7.5765 L 34.7397,7.1267 L 34.7960,6.9018 L 34.9085,6.4238 L 34.9507,6.1989 L 35.0773,5.4820 L 35.1616,4.8073 L 35.1757,4.5965 L 35.2038,4.3856 L 35.2038,4.1888 L 35.2179,4.0061 L 35.2179,3.5282 L 35.2038,3.5141 L 35.2038,3.4157 L 35.1898,3.4017 L 35.1898,3.3736 L 30.9001,3.3736 L 30.8860,3.3736 Z" stroke="#000000" stroke-width="0.1200" stroke-linecap="round" stroke-linejoin="round" fill="#E2E2E2"/>
        <ellipse cx="35.0632" cy="8.7361" rx="0.2954" ry="0.2882" fill="#00FF00" stroke="#000000" stroke-width="0.1200" stroke-linecap="round" stroke-linejoin="round"/>
        <ellipse cx="35.0632" cy="8.7361" rx="0.2954" ry="0.2882" fill="none" stroke="#000000" stroke-width="0.1200" stroke-linecap="round" stroke-linejoin="round"/>
        <ellipse cx="36.4908" cy="8.2652" rx="0.2883" ry="0.2952" fill="#00FF00" stroke="#000000" stroke-width="0.1200" stroke-linecap="round" stroke-linejoin="round"/>
        <ellipse cx="36.4908" cy="8.2652" rx="0.2883" ry="0.2952" fill="none" stroke="#000000" stroke-width="0.1200" stroke-linecap="round" stroke-linejoin="round"/>
        <ellipse cx="30.4711" cy="8.7150" rx="0.2883" ry="0.2952" fill="#00FF00" stroke="#000000" stroke-width="0.1200" stroke-linecap="round" stroke-linejoin="round"/>
        <ellipse cx="30.4711" cy="8.7150" rx="0.2883" ry="0.2952" fill="none" stroke="#000000" stroke-width="0.1200" stroke-linecap="round" stroke-linejoin="round"/>
        <ellipse cx="29.1912" cy="8.3004" rx="0.2883" ry="0.2882" fill="#00FF00" stroke="#000000" stroke-width="0.1200" stroke-linecap="round" stroke-linejoin="round"/>
        <ellipse cx="29.1912" cy="8.3004" rx="0.2883" ry="0.2882" fill="none" stroke="#000000" stroke-width="0.1200" stroke-linecap="round" stroke-linejoin="round"/>
        <path d="M 32.0815,5.2290 L 34.0224,5.2290 L 34.0224,5.4399 L 34.0083,5.6367 L 34.0083,5.8194 L 33.9802,6.1849 L 33.9662,6.3535 L 33.9380,6.6628 L 33.9099,6.8174 L 33.8958,6.9580 L 33.8818,7.0845 L 33.8255,7.3375 L 33.7692,7.5624 L 33.7130,7.7592 L 33.6567,7.9279 L 33.6145,8.0122 L 33.5864,8.0825 L 33.5442,8.1528 L 33.5161,8.2090 L 33.4739,8.2652 L 33.3473,8.3917 L 33.2207,8.4761 L 33.1645,8.4901 L 33.1223,8.5042 L 33.0801,8.4901 L 32.9535,8.4058 L 32.8269,8.2793 L 32.7847,8.2231 L 32.7566,8.1668 L 32.7144,8.1106 L 32.6722,8.0403 L 32.6441,7.9700 L 32.6019,7.8998 L 32.5597,7.8154 L 32.5316,7.7311 L 32.5034,7.6327 L 32.4612,7.5343 L 32.4050,7.3094 L 32.3628,7.1969 L 32.3347,7.0704 L 32.3065,6.9299 L 32.2784,6.8034 L 32.2503,6.6487 L 32.2362,6.4941 L 32.2081,6.3395 L 32.1799,6.1708 L 32.1659,6.0021 L 32.1377,5.8194 L 32.1237,5.6367 L 32.0956,5.4399 L 32.0815,5.2290 Z" stroke="#000000" stroke-width="0.1200" stroke-linecap="round" stroke-linejoin="round" fill="#333333"/>
        <path d="M 33.9521,4.5262 L 33.9521,4.1888 L 33.9380,4.0061 L 33.9380,3.8234 L 33.9099,3.4579 L 33.8958,3.2611 L 33.8818,3.0784 L 33.8536,2.8816 L 33.8396,2.6989 L 33.8114,2.5021 L 33.6989,1.7711 L 33.6427,1.4338 L 33.6005,1.2791 L 33.5723,1.1245 L 33.5301,0.9699 L 33.4880,0.8293 L 33.4458,0.7028 L 33.4176,0.5763 L 33.3332,0.3514 L 33.2910,0.2671 L 33.2348,0.1827 L 33.1504,0.0703 L 33.1082,0.0281 L 33.0519,0.0141 L 33.0098,0.0000 L 32.9676,0.0141 L 32.9113,0.0281 L 32.8691,0.0703 L 32.7847,0.1827 L 32.7003,0.3514 L 32.6159,0.5763 L 32.5738,0.7028 L 32.5456,0.8293 L 32.5034,0.9699 L 32.4753,1.1245 L 32.4331,1.2791 L 32.4050,1.4338 L 32.3487,1.7711 L 32.3206,1.9539 L 32.3065,2.1366 L 32.2503,2.5021 L 32.2362,2.6989 L 32.2221,2.8816 L 32.1940,3.0784 L 32.1799,3.2611 L 32.1799,3.4579 L 32.1518,3.8234 L 32.1518,4.0061 L 32.1377,4.1888 L 32.1377,4.5262 L 32.1518,4.9338 L 32.1799,5.3274 L 32.2221,5.6929 L 32.2643,6.0443 L 32.3065,6.3676 L 32.3628,6.6628 L 32.4190,6.9439 L 32.4753,7.2110 L 32.5456,7.4359 L 32.6019,7.6467 L 32.6722,7.8295 L 32.7566,7.9841 L 32.8269,8.1106 L 32.8972,8.2090 L 32.9816,8.2793 L 33.0519,8.3215 L 33.1363,8.3355 L 33.2067,8.3215 L 33.2910,8.2793 L 33.3614,8.1950 L 33.4317,8.0825 L 33.5020,7.9419 L 33.5723,7.7592 L 33.6286,7.5484 L 33.6849,7.2953 L 33.7411,7.0142 L 33.7974,6.6909 L 33.8396,6.3395 L 33.8818,5.9459 L 33.9099,5.5102 L 33.9380,5.0322 L 33.9521,4.5262 Z" stroke="#000000" stroke-width="0.1200" stroke-linecap="round" stroke-linejoin="round" fill="#BFBFBF"/>
        <text font-family="Arial" fill="#FFFFFF" transform="rotate(-122, 36.7791, 11.4311) translate(0, 0.6076)" style="white-space:pre;" text-anchor="start" x="36.7791" y="10.8235" font-size="0.6751"><![CDATA[V]]></text>
        <text font-family="Arial" fill="#FFFFFF" transform="rotate(-122, 36.5400, 11.0516) translate(0, 0.6076)" style="white-space:pre;" text-anchor="start" x="36.5400" y="10.4440" font-size="0.6751"><![CDATA[O]]></text>
        <text font-family="Arial" fill="#FFFFFF" transform="rotate(-122, 36.2587, 10.6018) translate(0, 0.6076)" style="white-space:pre;" text-anchor="start" x="36.2587" y="9.9942" font-size="0.6751"><![CDATA[I]]></text>
        <text font-family="Arial" fill="#FFFFFF" transform="rotate(-122, 36.1743, 10.4472) translate(0, 0.6076)" style="white-space:pre;" text-anchor="start" x="36.1743" y="9.8396" font-size="0.6751"><![CDATA[P]]></text>
        <text font-family="Arial" fill="#FFFFFF" transform="rotate(-122, 38.1996, 11.1640) translate(0, 0.6076)" style="white-space:pre;" text-anchor="start" x="38.1996" y="10.5564" font-size="0.6751"><![CDATA[C]]></text>
        <text font-family="Arial" fill="#FFFFFF" transform="rotate(-122, 37.9324, 10.7423) translate(0, 0.6076)" style="white-space:pre;" text-anchor="start" x="37.9324" y="10.1348" font-size="0.6751"><![CDATA[A]]></text>
        <text font-family="Arial" fill="#FFFFFF" transform="rotate(-122, 37.6933, 10.3628) translate(0, 0.6076)" style="white-space:pre;" text-anchor="start" x="37.6933" y="9.7552" font-size="0.6751"><![CDATA[L]]></text>
        <text font-family="Arial" fill="#FFFFFF" transform="rotate(-122, 37.4964, 10.0395) translate(0, 0.6076)" style="white-space:pre;" text-anchor="start" x="37.4964" y="9.4319" font-size="0.6751"><![CDATA[L]]></text>
      </g>
      <!--emf-blob end-->
    </g>
  </g>
</svg>
