<svg xmlns="http://www.w3.org/2000/svg" xmlns:xlink="http://www.w3.org/1999/xlink" version="1.1" width="7.6832000000" height="2.6284000000" viewBox="0 0 138.2967 47.3082">
  <title><![CDATA[FVC-180DT (F)]]></title>
  <g transform=" scale(4.000000) ">
    <!--converted by libvisio2svg-->
    <g transform=" translate(0.720000,0.720000) ">
      <!--emf-blob start-->
      <g transform="translate(-0.0000, -0.0000)">
        <path d="M 13.6857,1.7553 L 13.6857,3.2713 L 15.0435,3.2713 " stroke="#000000" stroke-width="0.1200" stroke-linecap="round" stroke-linejoin="round" fill="none"/>
        <path d="M 15.0435,1.7553 L 17.7235,1.7553 " stroke="#000000" stroke-width="0.1200" stroke-linecap="round" stroke-linejoin="round" fill="none"/>
        <path d="M 16.3656,1.7553 L 16.3656,3.2713 " stroke="#000000" stroke-width="0.1200" stroke-linecap="round" stroke-linejoin="round" fill="none"/>
        <path d="M 18.4024,1.7553 L 18.4024,3.2713 " stroke="#000000" stroke-width="0.1200" stroke-linecap="round" stroke-linejoin="round" fill="none"/>
        <path d="M 18.4024,1.7553 L 18.4024,3.2713 " stroke="#000000" stroke-width="0.1200" stroke-linecap="round" stroke-linejoin="round" fill="none"/>
        <path d="M 19.7245,3.2713 L 19.7245,1.7553 L 21.0824,3.2713 L 22.4402,1.7553 L 22.4402,3.2713 " stroke="#000000" stroke-width="0.1200" stroke-linecap="round" stroke-linejoin="round" fill="none"/>
        <path d="M 23.0834,3.2713 L 24.4412,1.7553 L 25.7991,3.2713 " stroke="#000000" stroke-width="0.1200" stroke-linecap="round" stroke-linejoin="round" fill="none"/>
        <path d="M 23.4407,2.8923 L 25.4418,2.8923 " stroke="#000000" stroke-width="0.1200" stroke-linecap="round" stroke-linejoin="round" fill="none"/>
        <path d="M 9.6479,3.2713 L 11.0057,1.7553 L 12.3636,3.2713 " stroke="#000000" stroke-width="0.1200" stroke-linecap="round" stroke-linejoin="round" fill="none"/>
        <path d="M 10.0052,2.8923 L 12.0062,2.8923 " stroke="#000000" stroke-width="0.1200" stroke-linecap="round" stroke-linejoin="round" fill="none"/>
        <path d="M 136.8005,0.0280 L 0.0281,0.0280 L 0.0281,12.9094 L 136.8005,12.9094 L 136.8005,0.0280 Z" stroke="#000000" stroke-width="0.1200" stroke-linecap="round" stroke-linejoin="round" fill="#EAEAEA"/>
        <path d="M 129.6019,0.4340 L 129.5879,0.3500 L 129.5738,0.2800 L 129.5316,0.2100 L 129.4894,0.1540 L 129.4191,0.0980 L 129.3488,0.0560 L 129.2785,0.0420 L 129.1942,0.0280 L 7.6344,0.0280 L 7.5500,0.0420 L 7.4797,0.0560 L 7.4094,0.0980 L 7.2970,0.2100 L 7.2548,0.2800 L 7.2407,0.3500 L 7.2267,0.4340 L 7.2267,12.5033 L 7.2407,12.5873 L 7.2548,12.6573 L 7.2970,12.7273 L 7.3532,12.7974 L 7.4094,12.8394 L 7.4797,12.8814 L 7.5500,12.8954 L 7.6344,12.9094 L 129.1942,12.9094 L 129.2785,12.8954 L 129.3488,12.8814 L 129.4894,12.7974 L 129.5738,12.6573 L 129.5879,12.5873 L 129.6019,12.5033 L 129.6019,0.4340 Z" stroke="#000000" stroke-width="0.1200" stroke-linecap="round" stroke-linejoin="round" fill="#EAEAEA"/>
        <path d="M 129.0817,0.8541 L 129.0677,0.7841 L 129.0536,0.7001 L 128.9692,0.5881 L 128.8568,0.5041 L 128.7724,0.4901 L 128.7021,0.4761 L 8.1265,0.4761 L 8.0562,0.4901 L 7.9718,0.5041 L 7.8593,0.5881 L 7.7750,0.7001 L 7.7609,0.7841 L 7.7469,0.8541 L 7.7469,12.0973 L 7.7609,12.1673 L 7.7750,12.2513 L 7.8593,12.3633 L 7.9718,12.4473 L 8.0562,12.4613 L 8.1265,12.4753 L 128.7021,12.4753 L 128.7724,12.4613 L 128.8568,12.4473 L 128.9692,12.3633 L 129.0536,12.2513 L 129.0677,12.1673 L 129.0817,12.0973 L 129.0817,0.8541 Z" stroke="#BFBFBF" stroke-width="0.1200" stroke-linecap="round" stroke-linejoin="round" fill="#EAEAEA"/>
        <path d="M 4.4569,1.6662 L 4.4569,1.5822 L 4.4429,1.5122 L 4.4147,1.4282 L 4.3585,1.2881 L 4.3163,1.2181 L 4.2741,1.1621 L 4.1617,1.0501 L 4.1054,1.0081 L 4.0351,0.9661 L 3.8945,0.9101 L 3.8102,0.8821 L 3.7399,0.8681 L 1.5747,0.8681 L 1.5044,0.8821 L 1.4200,0.9101 L 1.2794,0.9661 L 1.2091,1.0081 L 1.1529,1.0501 L 1.0404,1.1621 L 0.9982,1.2181 L 0.9561,1.2881 L 0.8998,1.4282 L 0.8717,1.5122 L 0.8576,1.5822 L 0.8576,1.7502 L 0.8717,1.8202 L 0.8998,1.9042 L 0.9561,2.0442 L 0.9982,2.1142 L 1.0404,2.1702 L 1.1529,2.2822 L 1.2091,2.3242 L 1.2794,2.3663 L 1.4200,2.4223 L 1.5044,2.4503 L 1.5747,2.4643 L 3.7399,2.4643 L 3.8102,2.4503 L 3.8945,2.4223 L 4.0351,2.3663 L 4.1054,2.3242 L 4.1617,2.2822 L 4.2741,2.1702 L 4.3163,2.1142 L 4.3585,2.0442 L 4.4147,1.9042 L 4.4429,1.8202 L 4.4569,1.7502 L 4.4569,1.6662 Z" stroke="#000000" stroke-width="0.1200" stroke-linecap="round" stroke-linejoin="round" fill="#FFFFFF"/>
        <path d="M 4.4569,11.2712 L 4.4569,11.1872 L 4.4429,11.1172 L 4.4147,11.0332 L 4.3585,10.8932 L 4.3163,10.8231 L 4.2741,10.7671 L 4.1617,10.6551 L 4.1054,10.6131 L 4.0351,10.5711 L 3.8945,10.5151 L 3.8102,10.4871 L 3.7399,10.4731 L 1.5747,10.4731 L 1.5044,10.4871 L 1.4200,10.5151 L 1.2794,10.5711 L 1.2091,10.6131 L 1.1529,10.6551 L 1.0404,10.7671 L 0.9982,10.8231 L 0.9561,10.8932 L 0.8998,11.0332 L 0.8717,11.1172 L 0.8576,11.1872 L 0.8576,11.3552 L 0.8717,11.4252 L 0.8998,11.5092 L 0.9561,11.6492 L 0.9982,11.7192 L 1.0404,11.7752 L 1.1529,11.8873 L 1.2091,11.9293 L 1.2794,11.9713 L 1.4200,12.0273 L 1.5044,12.0553 L 1.5747,12.0693 L 3.7399,12.0693 L 3.8102,12.0553 L 3.8945,12.0273 L 4.0351,11.9713 L 4.1054,11.9293 L 4.1617,11.8873 L 4.2741,11.7752 L 4.3163,11.7192 L 4.3585,11.6492 L 4.4147,11.5092 L 4.4429,11.4252 L 4.4569,11.3552 L 4.4569,11.2712 Z" stroke="#000000" stroke-width="0.1200" stroke-linecap="round" stroke-linejoin="round" fill="#FFFFFF"/>
        <path d="M 135.9850,1.6662 L 135.9850,1.5822 L 135.9709,1.5122 L 135.9428,1.4282 L 135.8866,1.2881 L 135.8444,1.2181 L 135.8022,1.1621 L 135.6897,1.0501 L 135.6335,1.0081 L 135.5632,0.9661 L 135.4226,0.9101 L 135.3383,0.8821 L 135.2680,0.8681 L 133.1028,0.8681 L 133.0325,0.8821 L 132.9481,0.9101 L 132.8075,0.9661 L 132.7372,1.0081 L 132.6810,1.0501 L 132.5685,1.1621 L 132.5263,1.2181 L 132.4841,1.2881 L 132.4279,1.4282 L 132.3998,1.5122 L 132.3857,1.5822 L 132.3857,1.7502 L 132.3998,1.8202 L 132.4279,1.9042 L 132.4841,2.0442 L 132.5263,2.1142 L 132.5685,2.1702 L 132.6810,2.2822 L 132.7372,2.3242 L 132.8075,2.3663 L 132.9481,2.4223 L 133.0325,2.4503 L 133.1028,2.4643 L 135.2680,2.4643 L 135.3383,2.4503 L 135.4226,2.4223 L 135.5632,2.3663 L 135.6335,2.3242 L 135.6897,2.2822 L 135.8022,2.1702 L 135.8444,2.1142 L 135.8866,2.0442 L 135.9428,1.9042 L 135.9709,1.8202 L 135.9850,1.7502 L 135.9850,1.6662 Z" stroke="#000000" stroke-width="0.1200" stroke-linecap="round" stroke-linejoin="round" fill="#FFFFFF"/>
        <path d="M 135.9850,11.2712 L 135.9850,11.1872 L 135.9709,11.1172 L 135.9428,11.0332 L 135.8866,10.8932 L 135.8444,10.8231 L 135.8022,10.7671 L 135.6897,10.6551 L 135.6335,10.6131 L 135.5632,10.5711 L 135.4226,10.5151 L 135.3383,10.4871 L 135.2680,10.4731 L 133.1028,10.4731 L 133.0325,10.4871 L 132.9481,10.5151 L 132.8075,10.5711 L 132.7372,10.6131 L 132.6810,10.6551 L 132.5685,10.7671 L 132.5263,10.8231 L 132.4841,10.8932 L 132.4279,11.0332 L 132.3998,11.1172 L 132.3857,11.1872 L 132.3857,11.3552 L 132.3998,11.4252 L 132.4279,11.5092 L 132.4841,11.6492 L 132.5263,11.7192 L 132.5685,11.7752 L 132.6810,11.8873 L 132.7372,11.9293 L 132.8075,11.9713 L 132.9481,12.0273 L 133.0325,12.0553 L 133.1028,12.0693 L 135.2680,12.0693 L 135.3383,12.0553 L 135.4226,12.0273 L 135.5632,11.9713 L 135.6335,11.9293 L 135.6897,11.8873 L 135.8022,11.7752 L 135.8444,11.7192 L 135.8866,11.6492 L 135.9428,11.5092 L 135.9709,11.4252 L 135.9850,11.3552 L 135.9850,11.2712 Z" stroke="#000000" stroke-width="0.1200" stroke-linecap="round" stroke-linejoin="round" fill="#FFFFFF"/>
        <path d="M 9.5609,3.4003 L 9.5328,3.4003 L 9.5188,3.3865 L 9.5047,3.3865 L 9.4626,3.3450 L 9.4626,3.3312 L 9.4486,3.3174 L 9.4486,1.7140 L 9.4626,1.7002 L 9.4626,1.6863 L 9.4766,1.6725 L 9.4907,1.6725 L 9.4907,1.6587 L 9.5047,1.6449 L 9.5188,1.6449 L 9.5328,1.6310 L 11.4422,1.6310 L 11.4562,1.6449 L 11.4702,1.6449 L 11.5124,1.6863 L 11.5124,1.7002 L 11.5264,1.7140 L 11.5264,2.0319 L 11.5124,2.0319 L 11.5124,2.0181 L 11.4983,2.0181 L 11.4983,2.0042 L 11.4843,2.0042 L 11.4843,1.9904 L 11.4562,1.9904 L 11.4562,1.9766 L 9.9119,1.9766 L 9.9119,1.9904 L 9.8838,1.9904 L 9.8838,2.0042 L 9.8697,2.0042 L 9.8697,2.0319 L 9.8557,2.0319 L 9.8557,3.3450 L 9.8697,3.3450 L 9.8697,3.3727 L 9.8838,3.3727 L 9.8838,3.3865 L 9.8978,3.3865 L 9.8978,3.4003 L 9.5749,3.4003 L 9.5609,3.4003 Z" stroke="#000000" stroke-width="0.1200" stroke-linecap="round" stroke-linejoin="round" fill="#000000"/>
        <path d="M 11.3860,2.3774 L 9.9961,2.3774 L 9.9961,2.3636 L 9.9680,2.3636 L 9.9680,2.3498 L 9.9540,2.3498 L 9.9540,2.3222 L 9.9399,2.3222 L 9.9399,2.6677 L 9.9540,2.6677 L 9.9540,2.6954 L 9.9680,2.6954 L 9.9680,2.7092 L 9.9961,2.7092 L 9.9961,2.7230 L 11.4141,2.7230 L 11.4422,2.6954 L 11.4562,2.6954 L 11.4843,2.6677 L 11.4843,2.6539 L 11.4983,2.6401 L 11.4983,2.6262 L 11.5124,2.6124 L 11.5124,2.5848 L 11.5264,2.5710 L 11.5264,2.5295 L 11.5124,2.5157 L 11.5124,2.4742 L 11.4843,2.4466 L 11.4843,2.4327 L 11.4702,2.4189 L 11.4562,2.4189 L 11.4562,2.4051 L 11.4422,2.4051 L 11.4281,2.3913 L 11.4141,2.3913 L 11.4000,2.3774 L 11.3860,2.3774 Z" stroke="#000000" stroke-width="0.1200" stroke-linecap="round" stroke-linejoin="round" fill="#000000"/>
        <path d="M 14.6291,2.7230 L 14.6010,2.7230 L 14.6010,2.7092 L 14.5730,2.7092 L 14.5730,2.6954 L 14.5589,2.6954 L 14.5589,2.6677 L 14.5449,2.6677 L 14.5449,2.3222 L 14.5589,2.3222 L 14.5589,2.3498 L 14.5730,2.3498 L 14.5730,2.3636 L 14.6010,2.3636 L 14.6010,2.3774 L 15.7242,2.3774 L 15.7242,1.9766 L 14.5168,1.9766 L 14.5168,1.9904 L 14.4887,1.9904 L 14.4887,2.0042 L 14.4747,2.0042 L 14.4747,2.0319 L 14.4606,2.0319 L 14.4606,3.3450 L 14.4747,3.3450 L 14.4747,3.3727 L 14.4887,3.3727 L 14.4887,3.3865 L 14.5028,3.3865 L 14.5028,3.4003 L 14.1377,3.4003 L 14.1237,3.3865 L 14.1097,3.3865 L 14.0675,3.3450 L 14.0675,3.3312 L 14.0535,3.3174 L 14.0535,1.7140 L 14.0675,1.7002 L 14.0675,1.6863 L 14.0816,1.6725 L 14.0956,1.6725 L 14.0956,1.6587 L 14.1097,1.6449 L 14.1237,1.6449 L 14.1377,1.6310 L 16.0471,1.6310 L 16.0611,1.6449 L 16.0752,1.6449 L 16.1173,1.6863 L 16.1173,1.7002 L 16.1313,1.7140 L 16.1313,2.5848 L 16.1173,2.5986 L 16.1173,2.6262 L 16.1033,2.6262 L 16.1033,2.6401 L 16.0892,2.6539 L 16.0892,2.6677 L 16.0752,2.6677 L 16.0752,2.6815 L 16.0611,2.6815 L 16.0611,2.6954 L 16.0471,2.6954 L 16.0471,2.7092 L 16.0331,2.7092 L 16.0190,2.7230 L 16.0331,2.7368 L 16.0471,2.7368 L 16.0471,2.7506 L 16.0611,2.7506 L 16.0611,2.7645 L 16.0752,2.7645 L 16.0752,2.7783 L 16.0892,2.7783 L 16.0892,2.7921 L 16.1033,2.8059 L 16.1033,2.8198 L 16.1173,2.8198 L 16.1173,2.8474 L 16.1313,2.8612 L 16.1313,3.3450 L 16.1454,3.3450 L 16.1454,3.3727 L 16.1594,3.3727 L 16.1594,3.3865 L 16.1735,3.3865 L 16.1735,3.4003 L 15.8084,3.4003 L 15.7944,3.3865 L 15.7804,3.3865 L 15.7382,3.3450 L 15.7382,3.3312 L 15.7242,3.3174 L 15.7242,2.7230 L 14.6432,2.7230 L 14.6291,2.7230 Z" stroke="#000000" stroke-width="0.1200" stroke-linecap="round" stroke-linejoin="round" fill="#000000"/>
        <path d="M 16.8614,1.9766 L 16.4402,1.9766 L 16.4262,1.9628 L 16.4121,1.9628 L 16.3700,1.9213 L 16.3700,1.9075 L 16.3560,1.8937 L 16.3560,1.7140 L 16.3700,1.7002 L 16.3700,1.6863 L 16.3841,1.6725 L 16.3981,1.6725 L 16.3981,1.6587 L 16.4121,1.6449 L 16.4262,1.6449 L 16.4402,1.6310 L 18.3496,1.6310 L 18.3636,1.6449 L 18.3777,1.6449 L 18.4198,1.6863 L 18.4198,1.7002 L 18.4338,1.7140 L 18.4338,2.0319 L 18.4198,2.0319 L 18.4198,2.0181 L 18.4057,2.0181 L 18.4057,2.0042 L 18.3917,2.0042 L 18.3917,1.9904 L 18.3636,1.9904 L 18.3636,1.9766 L 17.3247,1.9766 L 17.3247,1.9904 L 17.2966,1.9904 L 17.2966,2.0042 L 17.2826,2.0042 L 17.2826,2.0319 L 17.2685,2.0319 L 17.2685,3.3450 L 17.2826,3.3450 L 17.2826,3.3727 L 17.2966,3.3727 L 17.2966,3.3865 L 17.3107,3.3865 L 17.3107,3.4003 L 16.9456,3.4003 L 16.9316,3.3865 L 16.9176,3.3865 L 16.8754,3.3450 L 16.8754,3.3312 L 16.8614,3.3174 L 16.8614,2.0181 L 16.8614,1.9766 Z" stroke="#000000" stroke-width="0.1200" stroke-linecap="round" stroke-linejoin="round" fill="#000000"/>
        <path d="M 19.0656,3.3035 L 19.0656,3.3450 L 19.0796,3.3450 L 19.0796,3.3727 L 19.0937,3.3727 L 19.0937,3.3865 L 19.1077,3.3865 L 19.1077,3.4003 L 18.7427,3.4003 L 18.7286,3.3865 L 18.7146,3.3865 L 18.6725,3.3450 L 18.6725,3.3312 L 18.6584,3.3174 L 18.6584,1.6863 L 18.6444,1.6863 L 18.6444,1.6587 L 18.6304,1.6587 L 18.6304,1.6449 L 18.6163,1.6449 L 18.6163,1.6310 L 18.9814,1.6310 L 18.9954,1.6449 L 19.0094,1.6449 L 19.0516,1.6863 L 19.0516,1.7002 L 19.0656,1.7140 L 19.0656,3.2897 L 19.0656,3.3035 Z" stroke="#000000" stroke-width="0.1200" stroke-linecap="round" stroke-linejoin="round" fill="#000000"/>
        <path d="M 21.0592,1.9766 L 19.8518,1.9766 L 19.8518,1.9904 L 19.8237,1.9904 L 19.8237,2.0042 L 19.8097,2.0042 L 19.8097,2.0319 L 19.7956,2.0319 L 19.7956,3.3450 L 19.8097,3.3450 L 19.8097,3.3727 L 19.8237,3.3727 L 19.8237,3.3865 L 19.8378,3.3865 L 19.8378,3.4003 L 19.4727,3.4003 L 19.4587,3.3865 L 19.4447,3.3865 L 19.4025,3.3450 L 19.4025,3.3312 L 19.3885,3.3174 L 19.3885,1.7140 L 19.4025,1.7002 L 19.4025,1.6863 L 19.4166,1.6725 L 19.4306,1.6725 L 19.4306,1.6587 L 19.4447,1.6449 L 19.4587,1.6449 L 19.4727,1.6310 L 21.3821,1.6310 L 21.3961,1.6449 L 21.4102,1.6449 L 21.4523,1.6863 L 21.4523,1.7002 L 21.4663,1.7140 L 21.4663,3.3450 L 21.4804,3.3450 L 21.4804,3.3727 L 21.4944,3.3727 L 21.4944,3.3865 L 21.5085,3.3865 L 21.5085,3.4003 L 21.1434,3.4003 L 21.1294,3.3865 L 21.1154,3.3865 L 21.0732,3.3450 L 21.0732,3.3312 L 21.0592,3.3174 L 21.0592,2.0181 L 21.0592,1.9766 Z" stroke="#000000" stroke-width="0.1200" stroke-linecap="round" stroke-linejoin="round" fill="#000000"/>
        <path d="M 23.5301,2.3774 L 22.2385,2.3774 L 22.2245,2.3636 L 22.2104,2.3636 L 22.2104,2.3498 L 22.1964,2.3498 L 22.1964,2.3222 L 22.1824,2.3222 L 22.1824,2.6677 L 22.1964,2.6677 L 22.1964,2.6954 L 22.2104,2.6954 L 22.2104,2.7092 L 22.2245,2.7092 L 22.2385,2.7230 L 23.5442,2.7230 L 23.5723,2.6954 L 23.5863,2.6954 L 23.6144,2.6677 L 23.6144,2.6539 L 23.6284,2.6401 L 23.6284,2.6262 L 23.6425,2.6124 L 23.6425,2.5848 L 23.6565,2.5710 L 23.6565,2.5157 L 23.6425,2.5018 L 23.6425,2.4604 L 23.6284,2.4604 L 23.6284,2.4466 L 23.5863,2.4051 L 23.5723,2.4051 L 23.5723,2.3913 L 23.5582,2.3913 L 23.5442,2.3774 L 23.5301,2.3774 Z" stroke="#000000" stroke-width="0.1200" stroke-linecap="round" stroke-linejoin="round" fill="#000000"/>
        <path d="M 24.4989,1.9766 L 24.0777,1.9766 L 24.0636,1.9628 L 24.0496,1.9628 L 24.0075,1.9213 L 24.0075,1.9075 L 23.9934,1.8937 L 23.9934,1.7140 L 24.0075,1.7002 L 24.0075,1.6863 L 24.0215,1.6725 L 24.0356,1.6725 L 24.0356,1.6587 L 24.0496,1.6449 L 24.0636,1.6449 L 24.0777,1.6310 L 25.9870,1.6310 L 26.0011,1.6449 L 26.0151,1.6449 L 26.0572,1.6863 L 26.0572,1.7002 L 26.0713,1.7140 L 26.0713,2.0319 L 26.0572,2.0319 L 26.0572,2.0181 L 26.0432,2.0181 L 26.0432,2.0042 L 26.0292,2.0042 L 26.0292,1.9904 L 26.0011,1.9904 L 26.0011,1.9766 L 24.9622,1.9766 L 24.9622,1.9904 L 24.9341,1.9904 L 24.9341,2.0042 L 24.9200,2.0042 L 24.9200,2.0319 L 24.9060,2.0319 L 24.9060,3.3450 L 24.9200,3.3450 L 24.9200,3.3727 L 24.9341,3.3727 L 24.9341,3.3865 L 24.9481,3.3865 L 24.9481,3.4003 L 24.5831,3.4003 L 24.5691,3.3865 L 24.5550,3.3865 L 24.5129,3.3450 L 24.5129,3.3312 L 24.4989,3.3174 L 24.4989,2.0181 L 24.4989,1.9766 Z" stroke="#000000" stroke-width="0.1200" stroke-linecap="round" stroke-linejoin="round" fill="#000000"/>
        <path d="M 23.6705,3.0547 L 23.6986,3.0547 L 23.6986,3.0409 L 23.7267,3.0409 L 23.7267,3.0271 L 23.7407,3.0271 L 23.7407,3.0133 L 23.7548,3.0133 L 23.7548,2.9995 L 23.7688,2.9995 L 23.7688,3.3174 L 23.7548,3.3312 L 23.7548,3.3450 L 23.7407,3.3588 L 23.7407,3.3727 L 23.7267,3.3727 L 23.7127,3.3865 L 23.6986,3.3865 L 23.6846,3.4003 L 21.7752,3.4003 L 21.7612,3.3865 L 21.7471,3.3865 L 21.7050,3.3450 L 21.7050,3.3312 L 21.6910,3.3174 L 21.6910,1.7140 L 21.7050,1.7002 L 21.7050,1.6863 L 21.7191,1.6725 L 21.7331,1.6725 L 21.7331,1.6587 L 21.7471,1.6449 L 21.7612,1.6449 L 21.7752,1.6310 L 23.6846,1.6310 L 23.6986,1.6449 L 23.7127,1.6449 L 23.7548,1.6863 L 23.7548,1.7002 L 23.7688,1.7140 L 23.7688,2.0319 L 23.7548,2.0319 L 23.7548,2.0181 L 23.7407,2.0181 L 23.7407,2.0042 L 23.7267,2.0042 L 23.7267,1.9904 L 23.6986,1.9904 L 23.6986,1.9766 L 22.1543,1.9766 L 22.1543,1.9904 L 22.1262,1.9904 L 22.1262,2.0042 L 22.1122,2.0042 L 22.1122,2.0319 L 22.0981,2.0319 L 22.0981,3.0547 L 23.6565,3.0547 L 23.6705,3.0547 Z" stroke="#000000" stroke-width="0.1200" stroke-linecap="round" stroke-linejoin="round" fill="#000000"/>
        <path d="M 12.4530,2.8889 L 12.4530,3.4003 L 13.1269,3.4003 L 13.1269,2.8889 L 12.4530,2.8889 Z" stroke="#ED3440" stroke-width="0.1200" stroke-linecap="round" stroke-linejoin="round" fill="#ED3440"/>
        <path d="M 11.7510,2.2669 L 12.3266,2.2669 L 12.3266,2.7645 L 11.7510,2.7645 L 11.7510,2.2669 Z" stroke="#ED3440" stroke-width="0.1200" stroke-linecap="round" stroke-linejoin="round" fill="#ED3440"/>
        <path d="M 13.2533,2.8889 L 13.2533,3.4003 L 13.4638,3.4003 L 13.4779,3.3865 L 13.5340,3.3865 L 13.5481,3.3727 L 13.5762,3.3727 L 13.6042,3.3588 L 13.6183,3.3450 L 13.6464,3.3312 L 13.6744,3.3035 L 13.7025,3.2897 L 13.7166,3.2759 L 13.7306,3.2483 L 13.7446,3.2344 L 13.8008,3.1239 L 13.8008,3.0962 L 13.8148,3.0547 L 13.8148,3.0133 L 13.8289,2.9718 L 13.8289,2.8889 L 13.2673,2.8889 L 13.2533,2.8889 Z" stroke="#ED3440" stroke-width="0.1200" stroke-linecap="round" stroke-linejoin="round" fill="#ED3440"/>
        <path d="M 13.2533,2.2669 L 13.8289,2.2669 L 13.8289,2.7645 L 13.2533,2.7645 L 13.2533,2.2669 Z" stroke="#ED3440" stroke-width="0.1200" stroke-linecap="round" stroke-linejoin="round" fill="#ED3440"/>
        <path d="M 12.3266,2.8889 L 12.3266,3.4003 L 12.1161,3.4003 L 12.1020,3.3865 L 12.0459,3.3865 L 12.0318,3.3727 L 12.0037,3.3727 L 11.9757,3.3588 L 11.9616,3.3450 L 11.9335,3.3312 L 11.9055,3.3035 L 11.8774,3.2897 L 11.8633,3.2759 L 11.8493,3.2483 L 11.8353,3.2344 L 11.7791,3.1239 L 11.7791,3.0962 L 11.7651,3.0547 L 11.7651,3.0133 L 11.7510,2.9718 L 11.7510,2.8889 L 12.3126,2.8889 L 12.3266,2.8889 Z" stroke="#ED3440" stroke-width="0.1200" stroke-linecap="round" stroke-linejoin="round" fill="#ED3440"/>
        <path d="M 12.4530,1.6310 L 12.4530,2.1425 L 13.1269,2.1425 L 13.1269,1.6310 L 12.4530,1.6310 Z" stroke="#ED3440" stroke-width="0.1200" stroke-linecap="round" stroke-linejoin="round" fill="#ED3440"/>
        <path d="M 13.2533,2.1425 L 13.2533,1.6310 L 13.4638,1.6310 L 13.4779,1.6449 L 13.5340,1.6449 L 13.5481,1.6587 L 13.5762,1.6587 L 13.6042,1.6725 L 13.6183,1.6863 L 13.6464,1.7002 L 13.6744,1.7278 L 13.7025,1.7416 L 13.7166,1.7554 L 13.7306,1.7831 L 13.7446,1.7969 L 13.8008,1.9075 L 13.8008,1.9351 L 13.8148,1.9766 L 13.8148,2.0181 L 13.8289,2.0595 L 13.8289,2.1425 L 13.2673,2.1425 L 13.2533,2.1425 Z" stroke="#ED3440" stroke-width="0.1200" stroke-linecap="round" stroke-linejoin="round" fill="#ED3440"/>
        <path d="M 12.3266,2.1425 L 12.3266,1.6310 L 12.1161,1.6310 L 12.1020,1.6449 L 12.0459,1.6449 L 12.0318,1.6587 L 12.0037,1.6587 L 11.9757,1.6725 L 11.9616,1.6863 L 11.9335,1.7002 L 11.9055,1.7278 L 11.8774,1.7416 L 11.8633,1.7554 L 11.8493,1.7831 L 11.8353,1.7969 L 11.7791,1.9075 L 11.7791,1.9351 L 11.7651,1.9766 L 11.7651,2.0181 L 11.7510,2.0595 L 11.7510,2.1425 L 12.3126,2.1425 L 12.3266,2.1425 Z" stroke="#ED3440" stroke-width="0.1200" stroke-linecap="round" stroke-linejoin="round" fill="#ED3440"/>
        <text font-family="Arial" fill="#000000" style="white-space:pre;" font-weight="400" text-anchor="start" x="13.5762" y="3.3876" font-size="0.4773"><![CDATA[FortiVoice 180DT]]></text>
        <path d="M 22.6876,6.7434 L 21.9911,6.7434 L 21.9911,7.4386 L 22.6876,7.4386 L 22.6876,6.7434 Z" stroke="#000000" stroke-width="0.1200" stroke-linecap="round" stroke-linejoin="round" fill="#00FF00"/>
        <path d="M 22.6876,8.1338 L 21.9911,8.1338 L 21.9911,8.8290 L 22.6876,8.8290 L 22.6876,8.1338 Z" stroke="#000000" stroke-width="0.1200" stroke-linecap="round" stroke-linejoin="round" fill="#FFFF00"/>
        <path d="M 22.6876,9.5415 L 21.9911,9.5415 L 21.9911,10.2367 L 22.6876,10.2367 L 22.6876,9.5415 Z" stroke="#000000" stroke-width="0.1200" stroke-linecap="round" stroke-linejoin="round" fill="#00FF00"/>
        <text font-family="Arial" fill="#000000" style="white-space:pre;" font-weight="400" text-anchor="start" x="31.4109" y="12.2861" font-size="0.1915"><![CDATA[POWER]]></text>
        <text font-family="Arial" fill="#000000" style="white-space:pre;" font-weight="400" text-anchor="start" x="31.4109" y="12.7206" font-size="0.1915"><![CDATA[STATUS]]></text>
        <text font-family="Arial" fill="#000000" style="white-space:pre;" font-weight="400" text-anchor="start" x="31.4109" y="13.1551" font-size="0.1915"><![CDATA[ALARM]]></text>
        <text font-family="Arial" fill="#000000" style="white-space:pre;" font-weight="400" text-anchor="start" x="27.6673" y="13.6418" font-size="0.1915"><![CDATA[USB MGMT]]></text>
        <path d="M 127.3932,7.0207 L 122.4639,7.0207 L 122.4639,10.7609 L 127.3932,10.7609 L 127.3932,7.0207 Z" stroke="#0A0A0A" stroke-width="0.1200" stroke-linecap="round" stroke-linejoin="round" fill="#FFFFFF"/>
        <path d="M 107.6987,2.1369 L 102.8814,2.1369 L 102.8814,10.7324 L 107.6987,10.7324 L 107.6987,2.1369 Z" stroke="#0A0A0A" stroke-width="0.1200" stroke-linecap="round" stroke-linejoin="round" fill="#FFFFFF"/>
        <path d="M 99.2627,6.9077 L 94.3334,6.9077 L 94.3334,10.7596 L 99.2627,10.7596 L 99.2627,6.9077 Z" stroke="#0A0A0A" stroke-width="0.1200" stroke-linecap="round" stroke-linejoin="round" fill="#FFFFFF"/>
        <text font-family="Arial" fill="#000000" style="white-space:pre;" font-weight="400" text-anchor="start" x="113.3228" y="7.5337" font-size="0.1456"><![CDATA[LAN 1]]></text>
        <text font-family="Arial" fill="#000000" style="white-space:pre;" font-weight="400" text-anchor="start" x="114.8931" y="7.5337" font-size="0.1456"><![CDATA[EXT 1]]></text>
        <text font-family="Arial" fill="#000000" style="white-space:pre;" font-weight="400" text-anchor="start" x="116.0370" y="7.5337" font-size="0.1456"><![CDATA[LINE 3]]></text>
        <text font-family="Arial" fill="#000000" style="white-space:pre;" font-weight="400" text-anchor="start" x="117.1913" y="7.5337" font-size="0.1456"><![CDATA[LINE 1]]></text>
        <text font-family="Arial" fill="#000000" style="white-space:pre;" font-weight="400" text-anchor="start" x="117.1913" y="9.4812" font-size="0.1456"><![CDATA[LINE 2]]></text>
        <text font-family="Arial" fill="#000000" style="white-space:pre;" font-weight="400" text-anchor="start" x="116.0370" y="9.4812" font-size="0.1456"><![CDATA[LINE 4]]></text>
        <text font-family="Arial" fill="#000000" style="white-space:pre;" font-weight="400" text-anchor="start" x="114.8931" y="9.4812" font-size="0.1456"><![CDATA[EXT 2]]></text>
        <text font-family="Arial" fill="#000000" style="white-space:pre;" font-weight="400" text-anchor="start" x="113.3228" y="9.4812" font-size="0.1456"><![CDATA[LAN 2]]></text>
        <text font-family="Symbol" fill="#000000" style="white-space:pre;" text-anchor="start" x="25.3146" y="3.4968" font-size="0.7574"><![CDATA[]]></text>
        <text font-family="Arial" fill="#000000" style="white-space:pre;" font-weight="400" text-anchor="start" x="50.2131" y="5.4023" font-size="0.1493"><![CDATA[PRI]]></text>
        <path d="M 99.2627,2.2488 L 94.3334,2.2488 L 94.3334,6.1007 L 99.2627,6.1007 L 99.2627,2.2488 Z" stroke="#0A0A0A" stroke-width="0.1200" stroke-linecap="round" stroke-linejoin="round" fill="#FFFFFF"/>
        <path d="M 120.1892,2.1369 L 115.3718,2.1369 L 115.3718,10.7324 L 120.1892,10.7324 L 120.1892,2.1369 Z" stroke="#0A0A0A" stroke-width="0.1200" stroke-linecap="round" stroke-linejoin="round" fill="#FFFFFF"/>
        <path d="M 113.9490,2.1369 L 109.1317,2.1369 L 109.1317,10.7324 L 113.9490,10.7324 L 113.9490,2.1369 Z" stroke="#0A0A0A" stroke-width="0.1200" stroke-linecap="round" stroke-linejoin="round" fill="#FFFFFF"/>
        <path d="M 11.8639,9.5543 L 11.8639,9.5046 L 11.8801,9.5046 L 11.8801,9.4715 L 11.8964,9.4550 L 11.8964,9.4384 L 11.9126,9.4384 L 11.9126,9.4218 L 11.9288,9.4218 L 11.9288,9.4053 L 11.9450,9.4053 L 11.9612,9.3887 L 11.9774,9.3887 L 11.9936,9.3722 L 13.6144,9.3722 L 13.6306,9.3887 L 13.6468,9.3887 L 13.6630,9.4053 L 13.6792,9.4053 L 13.6792,9.4218 L 13.6954,9.4218 L 13.6954,9.4384 L 13.7116,9.4384 L 13.7116,9.4550 L 13.7278,9.4715 L 13.7278,9.5046 L 13.7440,9.5046 L 13.7440,9.8524 L 13.6144,9.9848 L 13.6144,10.2498 L 13.5981,10.2663 L 13.5981,10.2829 L 13.5819,10.2829 L 13.5819,10.2994 L 13.5657,10.2994 L 13.5657,10.3160 L 13.5495,10.3160 L 13.5495,10.3326 L 13.5171,10.3326 L 13.5171,10.3491 L 12.0908,10.3491 L 12.0908,10.3326 L 12.0584,10.3326 L 12.0584,10.3160 L 12.0422,10.3160 L 12.0422,10.2994 L 12.0260,10.2994 L 12.0260,10.2829 L 12.0098,10.2829 L 12.0098,10.2663 L 11.9936,10.2498 L 11.9936,9.9848 L 11.8639,9.8524 L 11.8639,9.5709 L 11.8639,9.5543 Z" stroke="#7F7F7F" stroke-width="0.1200" stroke-linecap="round" stroke-linejoin="round" fill="#BFBFBF"/>
        <path d="M 13.6792,9.8358 L 13.5495,9.9683 L 13.5495,10.2166 L 13.5333,10.2332 L 13.5333,10.2498 L 13.5171,10.2498 L 13.5009,10.2663 L 13.4847,10.2663 L 13.4685,10.2829 L 12.1395,10.2829 L 12.1395,10.2663 L 12.1071,10.2663 L 12.0908,10.2498 L 12.0746,10.2498 L 12.0746,10.2332 L 12.0584,10.2166 L 12.0584,9.9683 L 11.9288,9.8358 L 11.9288,9.5543 L 11.9450,9.5543 L 11.9450,9.5212 L 11.9612,9.5212 L 11.9612,9.4881 L 11.9774,9.4881 L 11.9774,9.4715 L 12.0098,9.4715 L 12.0098,9.4550 L 12.0260,9.4550 L 12.0422,9.4384 L 13.5657,9.4384 L 13.5819,9.4550 L 13.5981,9.4550 L 13.5981,9.4715 L 13.6306,9.4715 L 13.6306,9.4881 L 13.6468,9.4881 L 13.6468,9.5212 L 13.6630,9.5212 L 13.6630,9.5543 L 13.6792,9.5543 L 13.6792,9.8192 L 13.6792,9.8358 Z" stroke="#000000" stroke-width="0.1200" stroke-linecap="round" stroke-linejoin="round" fill="#161616"/>
        <path d="M 13.4361,9.9020 L 13.4361,9.8689 L 13.4199,9.8358 L 13.3875,9.8192 L 12.2367,9.8192 L 12.2043,9.8358 L 12.1881,9.8689 L 12.1881,10.1339 L 12.2043,10.1670 L 12.2367,10.1835 L 13.3875,10.1835 L 13.4199,10.1670 L 13.4361,10.1339 L 13.4361,10.1007 L 13.4361,9.9020 Z" stroke="#000000" stroke-width="0.1200" stroke-linecap="round" stroke-linejoin="round" fill="#CCCCCC"/>
        <path d="M 12.4798,9.7696 L 12.3178,9.7696 L 12.3178,9.8192 L 12.4798,9.8192 L 12.4798,9.7696 Z" stroke="#000000" stroke-width="0.1200" stroke-linecap="round" stroke-linejoin="round" fill="#D6D6B1"/>
        <path d="M 12.7391,9.7696 L 12.5771,9.7696 L 12.5771,9.8192 L 12.7391,9.8192 L 12.7391,9.7696 Z" stroke="#000000" stroke-width="0.1200" stroke-linecap="round" stroke-linejoin="round" fill="#D6D6B1"/>
        <path d="M 13.0147,9.7696 L 12.8526,9.7696 L 12.8526,9.8192 L 13.0147,9.8192 L 13.0147,9.7696 Z" stroke="#000000" stroke-width="0.1200" stroke-linecap="round" stroke-linejoin="round" fill="#D6D6B1"/>
        <path d="M 13.2740,9.7696 L 13.1119,9.7696 L 13.1119,9.8192 L 13.2740,9.8192 L 13.2740,9.7696 Z" stroke="#000000" stroke-width="0.1200" stroke-linecap="round" stroke-linejoin="round" fill="#D6D6B1"/>
        <path d="M 96.1878,6.0948 L 96.1878,5.9425 L 95.9628,5.9425 L 95.9628,5.5131 L 95.0206,5.5131 L 95.0206,5.4715 L 94.7253,5.4715 L 94.7253,5.9425 L 94.7816,5.9425 L 94.7816,5.5131 L 95.0206,5.5131 L 95.0206,4.5573 L 95.1191,4.5573 L 95.1191,4.0586 L 95.0206,4.0586 L 95.0206,2.9782 L 98.6206,2.9782 L 98.6206,4.0586 L 98.5222,4.0586 L 98.5222,4.5573 L 98.6206,4.5573 L 98.6206,5.5131 L 98.8597,5.5131 L 98.8597,5.9425 L 98.9160,5.9425 L 98.9160,5.4715 L 98.6206,5.4715 L 98.6206,5.5131 L 97.6784,5.5131 L 97.6784,5.9425 L 97.4534,5.9425 L 97.4534,6.0948 L 96.1878,6.0948 Z" stroke="#000000" stroke-width="0.1200" stroke-linecap="round" stroke-linejoin="round" fill="#000000"/>
        <path d="M 95.9628,5.5131 L 94.7816,5.5131 L 94.7816,5.9425 L 95.9628,5.9425 L 95.9628,5.5131 Z" stroke="#494949" stroke-width="0.1200" stroke-linecap="round" stroke-linejoin="round" fill="#000000"/>
        <path d="M 98.8597,5.5131 L 97.6784,5.5131 L 97.6784,5.9425 L 98.8597,5.9425 L 98.8597,5.5131 Z" stroke="#494949" stroke-width="0.1200" stroke-linecap="round" stroke-linejoin="round" fill="#000000"/>
        <path d="M 96.1878,10.6383 L 96.1878,10.4859 L 95.9628,10.4859 L 95.9628,10.0565 L 95.0206,10.0565 L 95.0206,10.0149 L 94.7253,10.0149 L 94.7253,10.4859 L 94.7816,10.4859 L 94.7816,10.0565 L 95.0206,10.0565 L 95.0206,9.1007 L 95.1191,9.1007 L 95.1191,8.6020 L 95.0206,8.6020 L 95.0206,7.5216 L 98.6206,7.5216 L 98.6206,8.6020 L 98.5222,8.6020 L 98.5222,9.1007 L 98.6206,9.1007 L 98.6206,10.0565 L 98.8597,10.0565 L 98.8597,10.4859 L 98.9160,10.4859 L 98.9160,10.0149 L 98.6206,10.0149 L 98.6206,10.0565 L 97.6784,10.0565 L 97.6784,10.4859 L 97.4534,10.4859 L 97.4534,10.6383 L 96.1878,10.6383 Z" stroke="#000000" stroke-width="0.1200" stroke-linecap="round" stroke-linejoin="round" fill="#000000"/>
        <path d="M 95.9628,10.0565 L 94.7816,10.0565 L 94.7816,10.4859 L 95.9628,10.4859 L 95.9628,10.0565 Z" stroke="#494949" stroke-width="0.1200" stroke-linecap="round" stroke-linejoin="round" fill="#000000"/>
        <path d="M 98.8597,10.0565 L 97.6784,10.0565 L 97.6784,10.4859 L 98.8597,10.4859 L 98.8597,10.0565 Z" stroke="#494949" stroke-width="0.1200" stroke-linecap="round" stroke-linejoin="round" fill="#000000"/>
        <path d="M 104.6816,2.2440 L 104.6816,2.3964 L 104.4566,2.3964 L 104.4566,2.8258 L 103.5144,2.8258 L 103.5144,2.8673 L 103.2191,2.8673 L 103.2191,2.3964 L 103.2753,2.3964 L 103.2753,2.8258 L 103.5144,2.8258 L 103.5144,3.7816 L 103.6128,3.7816 L 103.6128,4.2802 L 103.5144,4.2802 L 103.5144,5.3607 L 107.1144,5.3607 L 107.1144,4.2802 L 107.0160,4.2802 L 107.0160,3.7816 L 107.1144,3.7816 L 107.1144,2.8258 L 107.3535,2.8258 L 107.3535,2.3964 L 107.4097,2.3964 L 107.4097,2.8673 L 107.1144,2.8673 L 107.1144,2.8258 L 106.1722,2.8258 L 106.1722,2.3964 L 105.9472,2.3964 L 105.9472,2.2440 L 104.6816,2.2440 Z" stroke="#000000" stroke-width="0.1200" stroke-linecap="round" stroke-linejoin="round" fill="#000000"/>
        <path d="M 104.4566,2.4102 L 103.2753,2.4102 L 103.2753,2.8396 L 104.4566,2.8396 L 104.4566,2.4102 Z" stroke="#494949" stroke-width="0.1200" stroke-linecap="round" stroke-linejoin="round" fill="#000000"/>
        <path d="M 107.3535,2.4102 L 106.1722,2.4102 L 106.1722,2.8396 L 107.3535,2.8396 L 107.3535,2.4102 Z" stroke="#494949" stroke-width="0.1200" stroke-linecap="round" stroke-linejoin="round" fill="#000000"/>
        <path d="M 104.6816,10.6383 L 104.6816,10.4859 L 104.4566,10.4859 L 104.4566,10.0565 L 103.5144,10.0565 L 103.5144,10.0149 L 103.2191,10.0149 L 103.2191,10.4859 L 103.2753,10.4859 L 103.2753,10.0565 L 103.5144,10.0565 L 103.5144,9.1007 L 103.6128,9.1007 L 103.6128,8.6020 L 103.5144,8.6020 L 103.5144,7.5216 L 107.1144,7.5216 L 107.1144,8.6020 L 107.0160,8.6020 L 107.0160,9.1007 L 107.1144,9.1007 L 107.1144,10.0565 L 107.3535,10.0565 L 107.3535,10.4859 L 107.4097,10.4859 L 107.4097,10.0149 L 107.1144,10.0149 L 107.1144,10.0565 L 106.1722,10.0565 L 106.1722,10.4859 L 105.9472,10.4859 L 105.9472,10.6383 L 104.6816,10.6383 Z" stroke="#000000" stroke-width="0.1200" stroke-linecap="round" stroke-linejoin="round" fill="#000000"/>
        <path d="M 104.4566,10.0565 L 103.2753,10.0565 L 103.2753,10.4859 L 104.4566,10.4859 L 104.4566,10.0565 Z" stroke="#494949" stroke-width="0.1200" stroke-linecap="round" stroke-linejoin="round" fill="#000000"/>
        <path d="M 107.3535,10.0565 L 106.1722,10.0565 L 106.1722,10.4859 L 107.3535,10.4859 L 107.3535,10.0565 Z" stroke="#494949" stroke-width="0.1200" stroke-linecap="round" stroke-linejoin="round" fill="#000000"/>
        <path d="M 117.1691,2.2440 L 117.1691,2.3964 L 116.9441,2.3964 L 116.9441,2.8258 L 116.0019,2.8258 L 116.0019,2.8673 L 115.7066,2.8673 L 115.7066,2.3964 L 115.7629,2.3964 L 115.7629,2.8258 L 116.0019,2.8258 L 116.0019,3.7816 L 116.1004,3.7816 L 116.1004,4.2802 L 116.0019,4.2802 L 116.0019,5.3607 L 119.6020,5.3607 L 119.6020,4.2802 L 119.5035,4.2802 L 119.5035,3.7816 L 119.6020,3.7816 L 119.6020,2.8258 L 119.8410,2.8258 L 119.8410,2.3964 L 119.8973,2.3964 L 119.8973,2.8673 L 119.6020,2.8673 L 119.6020,2.8258 L 118.6598,2.8258 L 118.6598,2.3964 L 118.4348,2.3964 L 118.4348,2.2440 L 117.1691,2.2440 Z" stroke="#000000" stroke-width="0.1200" stroke-linecap="round" stroke-linejoin="round" fill="#000000"/>
        <path d="M 116.9441,2.4102 L 115.7629,2.4102 L 115.7629,2.8396 L 116.9441,2.8396 L 116.9441,2.4102 Z" stroke="#494949" stroke-width="0.1200" stroke-linecap="round" stroke-linejoin="round" fill="#000000"/>
        <path d="M 119.8410,2.4102 L 118.6598,2.4102 L 118.6598,2.8396 L 119.8410,2.8396 L 119.8410,2.4102 Z" stroke="#494949" stroke-width="0.1200" stroke-linecap="round" stroke-linejoin="round" fill="#000000"/>
        <path d="M 117.1691,10.6383 L 117.1691,10.4859 L 116.9441,10.4859 L 116.9441,10.0565 L 116.0019,10.0565 L 116.0019,10.0149 L 115.7066,10.0149 L 115.7066,10.4859 L 115.7629,10.4859 L 115.7629,10.0565 L 116.0019,10.0565 L 116.0019,9.1007 L 116.1004,9.1007 L 116.1004,8.6020 L 116.0019,8.6020 L 116.0019,7.5216 L 119.6020,7.5216 L 119.6020,8.6020 L 119.5035,8.6020 L 119.5035,9.1007 L 119.6020,9.1007 L 119.6020,10.0565 L 119.8410,10.0565 L 119.8410,10.4859 L 119.8973,10.4859 L 119.8973,10.0149 L 119.6020,10.0149 L 119.6020,10.0565 L 118.6598,10.0565 L 118.6598,10.4859 L 118.4348,10.4859 L 118.4348,10.6383 L 117.1691,10.6383 Z" stroke="#000000" stroke-width="0.1200" stroke-linecap="round" stroke-linejoin="round" fill="#000000"/>
        <path d="M 116.9441,10.0565 L 115.7629,10.0565 L 115.7629,10.4859 L 116.9441,10.4859 L 116.9441,10.0565 Z" stroke="#494949" stroke-width="0.1200" stroke-linecap="round" stroke-linejoin="round" fill="#000000"/>
        <path d="M 119.8410,10.0565 L 118.6598,10.0565 L 118.6598,10.4859 L 119.8410,10.4859 L 119.8410,10.0565 Z" stroke="#494949" stroke-width="0.1200" stroke-linecap="round" stroke-linejoin="round" fill="#000000"/>
        <path d="M 110.9254,2.2440 L 110.9254,2.3964 L 110.7004,2.3964 L 110.7004,2.8258 L 109.7582,2.8258 L 109.7582,2.8673 L 109.4629,2.8673 L 109.4629,2.3964 L 109.5191,2.3964 L 109.5191,2.8258 L 109.7582,2.8258 L 109.7582,3.7816 L 109.8566,3.7816 L 109.8566,4.2802 L 109.7582,4.2802 L 109.7582,5.3607 L 113.3582,5.3607 L 113.3582,4.2802 L 113.2597,4.2802 L 113.2597,3.7816 L 113.3582,3.7816 L 113.3582,2.8258 L 113.5972,2.8258 L 113.5972,2.3964 L 113.6535,2.3964 L 113.6535,2.8673 L 113.3582,2.8673 L 113.3582,2.8258 L 112.4160,2.8258 L 112.4160,2.3964 L 112.1910,2.3964 L 112.1910,2.2440 L 110.9254,2.2440 Z" stroke="#000000" stroke-width="0.1200" stroke-linecap="round" stroke-linejoin="round" fill="#000000"/>
        <path d="M 110.7004,2.4102 L 109.5191,2.4102 L 109.5191,2.8396 L 110.7004,2.8396 L 110.7004,2.4102 Z" stroke="#494949" stroke-width="0.1200" stroke-linecap="round" stroke-linejoin="round" fill="#000000"/>
        <path d="M 113.5972,2.4102 L 112.4160,2.4102 L 112.4160,2.8396 L 113.5972,2.8396 L 113.5972,2.4102 Z" stroke="#494949" stroke-width="0.1200" stroke-linecap="round" stroke-linejoin="round" fill="#000000"/>
        <path d="M 110.9254,10.6383 L 110.9254,10.4859 L 110.7004,10.4859 L 110.7004,10.0565 L 109.7582,10.0565 L 109.7582,10.0149 L 109.4629,10.0149 L 109.4629,10.4859 L 109.5191,10.4859 L 109.5191,10.0565 L 109.7582,10.0565 L 109.7582,9.1007 L 109.8566,9.1007 L 109.8566,8.6020 L 109.7582,8.6020 L 109.7582,7.5216 L 113.3582,7.5216 L 113.3582,8.6020 L 113.2597,8.6020 L 113.2597,9.1007 L 113.3582,9.1007 L 113.3582,10.0565 L 113.5972,10.0565 L 113.5972,10.4859 L 113.6535,10.4859 L 113.6535,10.0149 L 113.3582,10.0149 L 113.3582,10.0565 L 112.4160,10.0565 L 112.4160,10.4859 L 112.1910,10.4859 L 112.1910,10.6383 L 110.9254,10.6383 Z" stroke="#000000" stroke-width="0.1200" stroke-linecap="round" stroke-linejoin="round" fill="#000000"/>
        <path d="M 110.7004,10.0565 L 109.5191,10.0565 L 109.5191,10.4859 L 110.7004,10.4859 L 110.7004,10.0565 Z" stroke="#494949" stroke-width="0.1200" stroke-linecap="round" stroke-linejoin="round" fill="#000000"/>
        <path d="M 113.5972,10.0565 L 112.4160,10.0565 L 112.4160,10.4859 L 113.5972,10.4859 L 113.5972,10.0565 Z" stroke="#494949" stroke-width="0.1200" stroke-linecap="round" stroke-linejoin="round" fill="#000000"/>
        <path d="M 124.3129,7.0229 L 124.3129,7.1753 L 124.0879,7.1753 L 124.0879,7.6047 L 123.1457,7.6047 L 123.1457,7.6462 L 122.8504,7.6462 L 122.8504,7.1753 L 122.9067,7.1753 L 122.9067,7.6047 L 123.1457,7.6047 L 123.1457,8.5605 L 123.2442,8.5605 L 123.2442,9.0591 L 123.1457,9.0591 L 123.1457,10.1396 L 126.7457,10.1396 L 126.7457,9.0591 L 126.6473,9.0591 L 126.6473,8.5605 L 126.7457,8.5605 L 126.7457,7.6047 L 126.9848,7.6047 L 126.9848,7.1753 L 127.0410,7.1753 L 127.0410,7.6462 L 126.7457,7.6462 L 126.7457,7.6047 L 125.8035,7.6047 L 125.8035,7.1753 L 125.5785,7.1753 L 125.5785,7.0229 L 124.3129,7.0229 Z" stroke="#000000" stroke-width="0.1200" stroke-linecap="round" stroke-linejoin="round" fill="#000000"/>
        <path d="M 124.0879,7.1891 L 122.9067,7.1891 L 122.9067,7.6185 L 124.0879,7.6185 L 124.0879,7.1891 Z" stroke="#494949" stroke-width="0.1200" stroke-linecap="round" stroke-linejoin="round" fill="#000000"/>
        <path d="M 126.9848,7.1891 L 125.8035,7.1891 L 125.8035,7.6185 L 126.9848,7.6185 L 126.9848,7.1891 Z" stroke="#494949" stroke-width="0.1200" stroke-linecap="round" stroke-linejoin="round" fill="#000000"/>
        <path d="M 123.8363,7.2404 L 123.0760,7.2404 L 123.0760,7.5513 L 123.8363,7.5513 L 123.8363,7.2404 Z" stroke="#000000" stroke-width="0.1200" stroke-linecap="round" stroke-linejoin="round" fill="#83FF00"/>
        <path d="M 126.7554,7.2404 L 125.9951,7.2404 L 125.9951,7.5513 L 126.7554,7.5513 L 126.7554,7.2404 Z" stroke="#000000" stroke-width="0.1200" stroke-linecap="round" stroke-linejoin="round" fill="#83FF00"/>
        <path d="M 104.2039,2.4739 L 103.4436,2.4739 L 103.4436,2.7848 L 104.2039,2.7848 L 104.2039,2.4739 Z" stroke="#000000" stroke-width="0.1200" stroke-linecap="round" stroke-linejoin="round" fill="#83FF00"/>
        <path d="M 107.1230,2.4739 L 106.3626,2.4739 L 106.3626,2.7848 L 107.1230,2.7848 L 107.1230,2.4739 Z" stroke="#000000" stroke-width="0.1200" stroke-linecap="round" stroke-linejoin="round" fill="#FFFF00"/>
        <path d="M 116.6812,2.4739 L 115.9209,2.4739 L 115.9209,2.7848 L 116.6812,2.7848 L 116.6812,2.4739 Z" stroke="#000000" stroke-width="0.1200" stroke-linecap="round" stroke-linejoin="round" fill="#83FF00"/>
        <path d="M 119.6138,2.4739 L 118.8535,2.4739 L 118.8535,2.7848 L 119.6138,2.7848 L 119.6138,2.4739 Z" stroke="#000000" stroke-width="0.1200" stroke-linecap="round" stroke-linejoin="round" fill="#FFFF00"/>
        <path d="M 110.4493,2.4739 L 109.6890,2.4739 L 109.6890,2.7848 L 110.4493,2.7848 L 110.4493,2.4739 Z" stroke="#000000" stroke-width="0.1200" stroke-linecap="round" stroke-linejoin="round" fill="#83FF00"/>
        <path d="M 113.3684,2.4739 L 112.6081,2.4739 L 112.6081,2.7848 L 113.3684,2.7848 L 113.3684,2.4739 Z" stroke="#000000" stroke-width="0.1200" stroke-linecap="round" stroke-linejoin="round" fill="#FFFF00"/>
        <path d="M 95.7047,5.5566 L 94.9443,5.5566 L 94.9443,5.8674 L 95.7047,5.8674 L 95.7047,5.5566 Z" stroke="#000000" stroke-width="0.1200" stroke-linecap="round" stroke-linejoin="round" fill="#83FF00"/>
        <path d="M 98.6373,5.5566 L 97.8770,5.5566 L 97.8770,5.8674 L 98.6373,5.8674 L 98.6373,5.5566 Z" stroke="#000000" stroke-width="0.1200" stroke-linecap="round" stroke-linejoin="round" fill="#FFFF00"/>
        <path d="M 95.7047,10.1029 L 94.9443,10.1029 L 94.9443,10.4137 L 95.7047,10.4137 L 95.7047,10.1029 Z" stroke="#000000" stroke-width="0.1200" stroke-linecap="round" stroke-linejoin="round" fill="#83FF00"/>
        <path d="M 98.6373,10.1029 L 97.8770,10.1029 L 97.8770,10.4137 L 98.6373,10.4137 L 98.6373,10.1029 Z" stroke="#000000" stroke-width="0.1200" stroke-linecap="round" stroke-linejoin="round" fill="#FFFF00"/>
        <path d="M 104.2039,10.1029 L 103.4436,10.1029 L 103.4436,10.4137 L 104.2039,10.4137 L 104.2039,10.1029 Z" stroke="#000000" stroke-width="0.1200" stroke-linecap="round" stroke-linejoin="round" fill="#83FF00"/>
        <path d="M 107.1230,10.1029 L 106.3626,10.1029 L 106.3626,10.4137 L 107.1230,10.4137 L 107.1230,10.1029 Z" stroke="#000000" stroke-width="0.1200" stroke-linecap="round" stroke-linejoin="round" fill="#FFFF00"/>
        <path d="M 116.6812,10.1029 L 115.9209,10.1029 L 115.9209,10.4137 L 116.6812,10.4137 L 116.6812,10.1029 Z" stroke="#000000" stroke-width="0.1200" stroke-linecap="round" stroke-linejoin="round" fill="#83FF00"/>
        <path d="M 119.6138,10.1029 L 118.8535,10.1029 L 118.8535,10.4137 L 119.6138,10.4137 L 119.6138,10.1029 Z" stroke="#000000" stroke-width="0.1200" stroke-linecap="round" stroke-linejoin="round" fill="#FFFF00"/>
        <path d="M 110.4493,10.1029 L 109.6890,10.1029 L 109.6890,10.4137 L 110.4493,10.4137 L 110.4493,10.1029 Z" stroke="#000000" stroke-width="0.1200" stroke-linecap="round" stroke-linejoin="round" fill="#83FF00"/>
        <path d="M 113.3684,10.1029 L 112.6081,10.1029 L 112.6081,10.4137 L 113.3684,10.4137 L 113.3684,10.1029 Z" stroke="#000000" stroke-width="0.1200" stroke-linecap="round" stroke-linejoin="round" fill="#FFFF00"/>
      </g>
      <!--emf-blob end-->
    </g>
  </g>
</svg>
