<svg xmlns="http://www.w3.org/2000/svg" xmlns:xlink="http://www.w3.org/1999/xlink" version="1.1" width="7.6832000000" height="2.6284000000" viewBox="0 0 138.2967 47.3082">
  <title><![CDATA[FVC-180D8 (F)]]></title>
  <g transform=" scale(4.000000) ">
    <!--converted by libvisio2svg-->
    <g transform=" translate(0.720000,0.720000) ">
      <!--emf-blob start-->
      <g transform="translate(-0.0000, -0.0000)">
        <path d="M 13.6857,1.7553 L 13.6857,3.2713 L 15.0435,3.2713 " stroke="#000000" stroke-width="0.1200" stroke-linecap="round" stroke-linejoin="round" fill="none"/>
        <path d="M 15.0435,1.7553 L 17.7235,1.7553 " stroke="#000000" stroke-width="0.1200" stroke-linecap="round" stroke-linejoin="round" fill="none"/>
        <path d="M 16.3656,1.7553 L 16.3656,3.2713 " stroke="#000000" stroke-width="0.1200" stroke-linecap="round" stroke-linejoin="round" fill="none"/>
        <path d="M 18.4024,1.7553 L 18.4024,3.2713 " stroke="#000000" stroke-width="0.1200" stroke-linecap="round" stroke-linejoin="round" fill="none"/>
        <path d="M 18.4024,1.7553 L 18.4024,3.2713 " stroke="#000000" stroke-width="0.1200" stroke-linecap="round" stroke-linejoin="round" fill="none"/>
        <path d="M 19.7245,3.2713 L 19.7245,1.7553 L 21.0824,3.2713 L 22.4402,1.7553 L 22.4402,3.2713 " stroke="#000000" stroke-width="0.1200" stroke-linecap="round" stroke-linejoin="round" fill="none"/>
        <path d="M 23.0834,3.2713 L 24.4412,1.7553 L 25.7991,3.2713 " stroke="#000000" stroke-width="0.1200" stroke-linecap="round" stroke-linejoin="round" fill="none"/>
        <path d="M 23.4407,2.8923 L 25.4418,2.8923 " stroke="#000000" stroke-width="0.1200" stroke-linecap="round" stroke-linejoin="round" fill="none"/>
        <path d="M 9.6479,3.2713 L 11.0057,1.7553 L 12.3636,3.2713 " stroke="#000000" stroke-width="0.1200" stroke-linecap="round" stroke-linejoin="round" fill="none"/>
        <path d="M 10.0052,2.8923 L 12.0062,2.8923 " stroke="#000000" stroke-width="0.1200" stroke-linecap="round" stroke-linejoin="round" fill="none"/>
        <path d="M 136.8005,0.0280 L 0.0281,0.0280 L 0.0281,12.9094 L 136.8005,12.9094 L 136.8005,0.0280 Z" stroke="#000000" stroke-width="0.1200" stroke-linecap="round" stroke-linejoin="round" fill="#EAEAEA"/>
        <path d="M 129.6019,0.4340 L 129.5879,0.3500 L 129.5738,0.2800 L 129.5316,0.2100 L 129.4894,0.1540 L 129.4191,0.0980 L 129.3488,0.0560 L 129.2785,0.0420 L 129.1942,0.0280 L 7.6344,0.0280 L 7.5500,0.0420 L 7.4797,0.0560 L 7.4094,0.0980 L 7.2970,0.2100 L 7.2548,0.2800 L 7.2407,0.3500 L 7.2267,0.4340 L 7.2267,12.5033 L 7.2407,12.5873 L 7.2548,12.6573 L 7.2970,12.7273 L 7.3532,12.7974 L 7.4094,12.8394 L 7.4797,12.8814 L 7.5500,12.8954 L 7.6344,12.9094 L 129.1942,12.9094 L 129.2785,12.8954 L 129.3488,12.8814 L 129.4894,12.7974 L 129.5738,12.6573 L 129.5879,12.5873 L 129.6019,12.5033 L 129.6019,0.4340 Z" stroke="#000000" stroke-width="0.1200" stroke-linecap="round" stroke-linejoin="round" fill="#EAEAEA"/>
        <path d="M 129.0817,0.8541 L 129.0677,0.7841 L 129.0536,0.7001 L 128.9692,0.5881 L 128.8568,0.5041 L 128.7724,0.4901 L 128.7021,0.4761 L 8.1265,0.4761 L 8.0562,0.4901 L 7.9718,0.5041 L 7.8593,0.5881 L 7.7750,0.7001 L 7.7609,0.7841 L 7.7469,0.8541 L 7.7469,12.0973 L 7.7609,12.1673 L 7.7750,12.2513 L 7.8593,12.3633 L 7.9718,12.4473 L 8.0562,12.4613 L 8.1265,12.4753 L 128.7021,12.4753 L 128.7724,12.4613 L 128.8568,12.4473 L 128.9692,12.3633 L 129.0536,12.2513 L 129.0677,12.1673 L 129.0817,12.0973 L 129.0817,0.8541 Z" stroke="#BFBFBF" stroke-width="0.1200" stroke-linecap="round" stroke-linejoin="round" fill="#EAEAEA"/>
        <path d="M 4.4569,1.6662 L 4.4569,1.5822 L 4.4429,1.5122 L 4.4147,1.4282 L 4.3585,1.2881 L 4.3163,1.2181 L 4.2741,1.1621 L 4.1617,1.0501 L 4.1054,1.0081 L 4.0351,0.9661 L 3.8945,0.9101 L 3.8102,0.8821 L 3.7399,0.8681 L 1.5747,0.8681 L 1.5044,0.8821 L 1.4200,0.9101 L 1.2794,0.9661 L 1.2091,1.0081 L 1.1529,1.0501 L 1.0404,1.1621 L 0.9982,1.2181 L 0.9561,1.2881 L 0.8998,1.4282 L 0.8717,1.5122 L 0.8576,1.5822 L 0.8576,1.7502 L 0.8717,1.8202 L 0.8998,1.9042 L 0.9561,2.0442 L 0.9982,2.1142 L 1.0404,2.1702 L 1.1529,2.2822 L 1.2091,2.3242 L 1.2794,2.3663 L 1.4200,2.4223 L 1.5044,2.4503 L 1.5747,2.4643 L 3.7399,2.4643 L 3.8102,2.4503 L 3.8945,2.4223 L 4.0351,2.3663 L 4.1054,2.3242 L 4.1617,2.2822 L 4.2741,2.1702 L 4.3163,2.1142 L 4.3585,2.0442 L 4.4147,1.9042 L 4.4429,1.8202 L 4.4569,1.7502 L 4.4569,1.6662 Z" stroke="#000000" stroke-width="0.1200" stroke-linecap="round" stroke-linejoin="round" fill="#FFFFFF"/>
        <path d="M 4.4569,11.2712 L 4.4569,11.1872 L 4.4429,11.1172 L 4.4147,11.0332 L 4.3585,10.8932 L 4.3163,10.8231 L 4.2741,10.7671 L 4.1617,10.6551 L 4.1054,10.6131 L 4.0351,10.5711 L 3.8945,10.5151 L 3.8102,10.4871 L 3.7399,10.4731 L 1.5747,10.4731 L 1.5044,10.4871 L 1.4200,10.5151 L 1.2794,10.5711 L 1.2091,10.6131 L 1.1529,10.6551 L 1.0404,10.7671 L 0.9982,10.8231 L 0.9561,10.8932 L 0.8998,11.0332 L 0.8717,11.1172 L 0.8576,11.1872 L 0.8576,11.3552 L 0.8717,11.4252 L 0.8998,11.5092 L 0.9561,11.6492 L 0.9982,11.7192 L 1.0404,11.7752 L 1.1529,11.8873 L 1.2091,11.9293 L 1.2794,11.9713 L 1.4200,12.0273 L 1.5044,12.0553 L 1.5747,12.0693 L 3.7399,12.0693 L 3.8102,12.0553 L 3.8945,12.0273 L 4.0351,11.9713 L 4.1054,11.9293 L 4.1617,11.8873 L 4.2741,11.7752 L 4.3163,11.7192 L 4.3585,11.6492 L 4.4147,11.5092 L 4.4429,11.4252 L 4.4569,11.3552 L 4.4569,11.2712 Z" stroke="#000000" stroke-width="0.1200" stroke-linecap="round" stroke-linejoin="round" fill="#FFFFFF"/>
        <path d="M 135.9850,1.6662 L 135.9850,1.5822 L 135.9709,1.5122 L 135.9428,1.4282 L 135.8866,1.2881 L 135.8444,1.2181 L 135.8022,1.1621 L 135.6897,1.0501 L 135.6335,1.0081 L 135.5632,0.9661 L 135.4226,0.9101 L 135.3383,0.8821 L 135.2680,0.8681 L 133.1028,0.8681 L 133.0325,0.8821 L 132.9481,0.9101 L 132.8075,0.9661 L 132.7372,1.0081 L 132.6810,1.0501 L 132.5685,1.1621 L 132.5263,1.2181 L 132.4841,1.2881 L 132.4279,1.4282 L 132.3998,1.5122 L 132.3857,1.5822 L 132.3857,1.7502 L 132.3998,1.8202 L 132.4279,1.9042 L 132.4841,2.0442 L 132.5263,2.1142 L 132.5685,2.1702 L 132.6810,2.2822 L 132.7372,2.3242 L 132.8075,2.3663 L 132.9481,2.4223 L 133.0325,2.4503 L 133.1028,2.4643 L 135.2680,2.4643 L 135.3383,2.4503 L 135.4226,2.4223 L 135.5632,2.3663 L 135.6335,2.3242 L 135.6897,2.2822 L 135.8022,2.1702 L 135.8444,2.1142 L 135.8866,2.0442 L 135.9428,1.9042 L 135.9709,1.8202 L 135.9850,1.7502 L 135.9850,1.6662 Z" stroke="#000000" stroke-width="0.1200" stroke-linecap="round" stroke-linejoin="round" fill="#FFFFFF"/>
        <path d="M 135.9850,11.2712 L 135.9850,11.1872 L 135.9709,11.1172 L 135.9428,11.0332 L 135.8866,10.8932 L 135.8444,10.8231 L 135.8022,10.7671 L 135.6897,10.6551 L 135.6335,10.6131 L 135.5632,10.5711 L 135.4226,10.5151 L 135.3383,10.4871 L 135.2680,10.4731 L 133.1028,10.4731 L 133.0325,10.4871 L 132.9481,10.5151 L 132.8075,10.5711 L 132.7372,10.6131 L 132.6810,10.6551 L 132.5685,10.7671 L 132.5263,10.8231 L 132.4841,10.8932 L 132.4279,11.0332 L 132.3998,11.1172 L 132.3857,11.1872 L 132.3857,11.3552 L 132.3998,11.4252 L 132.4279,11.5092 L 132.4841,11.6492 L 132.5263,11.7192 L 132.5685,11.7752 L 132.6810,11.8873 L 132.7372,11.9293 L 132.8075,11.9713 L 132.9481,12.0273 L 133.0325,12.0553 L 133.1028,12.0693 L 135.2680,12.0693 L 135.3383,12.0553 L 135.4226,12.0273 L 135.5632,11.9713 L 135.6335,11.9293 L 135.6897,11.8873 L 135.8022,11.7752 L 135.8444,11.7192 L 135.8866,11.6492 L 135.9428,11.5092 L 135.9709,11.4252 L 135.9850,11.3552 L 135.9850,11.2712 Z" stroke="#000000" stroke-width="0.1200" stroke-linecap="round" stroke-linejoin="round" fill="#FFFFFF"/>
        <path d="M 70.9691,2.5210 L 66.1518,2.5210 L 66.1518,11.1166 L 70.9691,11.1166 L 70.9691,2.5210 Z" stroke="#0A0A0A" stroke-width="0.1200" stroke-linecap="round" stroke-linejoin="round" fill="#FFFFFF"/>
        <path d="M 9.5609,3.4003 L 9.5328,3.4003 L 9.5188,3.3865 L 9.5047,3.3865 L 9.4626,3.3450 L 9.4626,3.3312 L 9.4486,3.3174 L 9.4486,1.7140 L 9.4626,1.7002 L 9.4626,1.6863 L 9.4766,1.6725 L 9.4907,1.6725 L 9.4907,1.6587 L 9.5047,1.6449 L 9.5188,1.6449 L 9.5328,1.6310 L 11.4422,1.6310 L 11.4562,1.6449 L 11.4702,1.6449 L 11.5124,1.6863 L 11.5124,1.7002 L 11.5264,1.7140 L 11.5264,2.0319 L 11.5124,2.0319 L 11.5124,2.0181 L 11.4983,2.0181 L 11.4983,2.0042 L 11.4843,2.0042 L 11.4843,1.9904 L 11.4562,1.9904 L 11.4562,1.9766 L 9.9119,1.9766 L 9.9119,1.9904 L 9.8838,1.9904 L 9.8838,2.0042 L 9.8697,2.0042 L 9.8697,2.0319 L 9.8557,2.0319 L 9.8557,3.3450 L 9.8697,3.3450 L 9.8697,3.3727 L 9.8838,3.3727 L 9.8838,3.3865 L 9.8978,3.3865 L 9.8978,3.4003 L 9.5749,3.4003 L 9.5609,3.4003 Z" stroke="#000000" stroke-width="0.1200" stroke-linecap="round" stroke-linejoin="round" fill="#000000"/>
        <path d="M 11.3860,2.3774 L 9.9961,2.3774 L 9.9961,2.3636 L 9.9680,2.3636 L 9.9680,2.3498 L 9.9540,2.3498 L 9.9540,2.3222 L 9.9399,2.3222 L 9.9399,2.6677 L 9.9540,2.6677 L 9.9540,2.6954 L 9.9680,2.6954 L 9.9680,2.7092 L 9.9961,2.7092 L 9.9961,2.7230 L 11.4141,2.7230 L 11.4422,2.6954 L 11.4562,2.6954 L 11.4843,2.6677 L 11.4843,2.6539 L 11.4983,2.6401 L 11.4983,2.6262 L 11.5124,2.6124 L 11.5124,2.5848 L 11.5264,2.5710 L 11.5264,2.5295 L 11.5124,2.5157 L 11.5124,2.4742 L 11.4843,2.4466 L 11.4843,2.4327 L 11.4702,2.4189 L 11.4562,2.4189 L 11.4562,2.4051 L 11.4422,2.4051 L 11.4281,2.3913 L 11.4141,2.3913 L 11.4000,2.3774 L 11.3860,2.3774 Z" stroke="#000000" stroke-width="0.1200" stroke-linecap="round" stroke-linejoin="round" fill="#000000"/>
        <path d="M 14.6291,2.7230 L 14.6010,2.7230 L 14.6010,2.7092 L 14.5730,2.7092 L 14.5730,2.6954 L 14.5589,2.6954 L 14.5589,2.6677 L 14.5449,2.6677 L 14.5449,2.3222 L 14.5589,2.3222 L 14.5589,2.3498 L 14.5730,2.3498 L 14.5730,2.3636 L 14.6010,2.3636 L 14.6010,2.3774 L 15.7242,2.3774 L 15.7242,1.9766 L 14.5168,1.9766 L 14.5168,1.9904 L 14.4887,1.9904 L 14.4887,2.0042 L 14.4747,2.0042 L 14.4747,2.0319 L 14.4606,2.0319 L 14.4606,3.3450 L 14.4747,3.3450 L 14.4747,3.3727 L 14.4887,3.3727 L 14.4887,3.3865 L 14.5028,3.3865 L 14.5028,3.4003 L 14.1377,3.4003 L 14.1237,3.3865 L 14.1097,3.3865 L 14.0675,3.3450 L 14.0675,3.3312 L 14.0535,3.3174 L 14.0535,1.7140 L 14.0675,1.7002 L 14.0675,1.6863 L 14.0816,1.6725 L 14.0956,1.6725 L 14.0956,1.6587 L 14.1097,1.6449 L 14.1237,1.6449 L 14.1377,1.6310 L 16.0471,1.6310 L 16.0611,1.6449 L 16.0752,1.6449 L 16.1173,1.6863 L 16.1173,1.7002 L 16.1313,1.7140 L 16.1313,2.5848 L 16.1173,2.5986 L 16.1173,2.6262 L 16.1033,2.6262 L 16.1033,2.6401 L 16.0892,2.6539 L 16.0892,2.6677 L 16.0752,2.6677 L 16.0752,2.6815 L 16.0611,2.6815 L 16.0611,2.6954 L 16.0471,2.6954 L 16.0471,2.7092 L 16.0331,2.7092 L 16.0190,2.7230 L 16.0331,2.7368 L 16.0471,2.7368 L 16.0471,2.7506 L 16.0611,2.7506 L 16.0611,2.7645 L 16.0752,2.7645 L 16.0752,2.7783 L 16.0892,2.7783 L 16.0892,2.7921 L 16.1033,2.8059 L 16.1033,2.8198 L 16.1173,2.8198 L 16.1173,2.8474 L 16.1313,2.8612 L 16.1313,3.3450 L 16.1454,3.3450 L 16.1454,3.3727 L 16.1594,3.3727 L 16.1594,3.3865 L 16.1735,3.3865 L 16.1735,3.4003 L 15.8084,3.4003 L 15.7944,3.3865 L 15.7804,3.3865 L 15.7382,3.3450 L 15.7382,3.3312 L 15.7242,3.3174 L 15.7242,2.7230 L 14.6432,2.7230 L 14.6291,2.7230 Z" stroke="#000000" stroke-width="0.1200" stroke-linecap="round" stroke-linejoin="round" fill="#000000"/>
        <path d="M 16.8614,1.9766 L 16.4402,1.9766 L 16.4262,1.9628 L 16.4121,1.9628 L 16.3700,1.9213 L 16.3700,1.9075 L 16.3560,1.8937 L 16.3560,1.7140 L 16.3700,1.7002 L 16.3700,1.6863 L 16.3841,1.6725 L 16.3981,1.6725 L 16.3981,1.6587 L 16.4121,1.6449 L 16.4262,1.6449 L 16.4402,1.6310 L 18.3496,1.6310 L 18.3636,1.6449 L 18.3777,1.6449 L 18.4198,1.6863 L 18.4198,1.7002 L 18.4338,1.7140 L 18.4338,2.0319 L 18.4198,2.0319 L 18.4198,2.0181 L 18.4057,2.0181 L 18.4057,2.0042 L 18.3917,2.0042 L 18.3917,1.9904 L 18.3636,1.9904 L 18.3636,1.9766 L 17.3247,1.9766 L 17.3247,1.9904 L 17.2966,1.9904 L 17.2966,2.0042 L 17.2826,2.0042 L 17.2826,2.0319 L 17.2685,2.0319 L 17.2685,3.3450 L 17.2826,3.3450 L 17.2826,3.3727 L 17.2966,3.3727 L 17.2966,3.3865 L 17.3107,3.3865 L 17.3107,3.4003 L 16.9456,3.4003 L 16.9316,3.3865 L 16.9176,3.3865 L 16.8754,3.3450 L 16.8754,3.3312 L 16.8614,3.3174 L 16.8614,2.0181 L 16.8614,1.9766 Z" stroke="#000000" stroke-width="0.1200" stroke-linecap="round" stroke-linejoin="round" fill="#000000"/>
        <path d="M 19.0656,3.3035 L 19.0656,3.3450 L 19.0796,3.3450 L 19.0796,3.3727 L 19.0937,3.3727 L 19.0937,3.3865 L 19.1077,3.3865 L 19.1077,3.4003 L 18.7427,3.4003 L 18.7286,3.3865 L 18.7146,3.3865 L 18.6725,3.3450 L 18.6725,3.3312 L 18.6584,3.3174 L 18.6584,1.6863 L 18.6444,1.6863 L 18.6444,1.6587 L 18.6304,1.6587 L 18.6304,1.6449 L 18.6163,1.6449 L 18.6163,1.6310 L 18.9814,1.6310 L 18.9954,1.6449 L 19.0094,1.6449 L 19.0516,1.6863 L 19.0516,1.7002 L 19.0656,1.7140 L 19.0656,3.2897 L 19.0656,3.3035 Z" stroke="#000000" stroke-width="0.1200" stroke-linecap="round" stroke-linejoin="round" fill="#000000"/>
        <path d="M 21.0592,1.9766 L 19.8518,1.9766 L 19.8518,1.9904 L 19.8237,1.9904 L 19.8237,2.0042 L 19.8097,2.0042 L 19.8097,2.0319 L 19.7956,2.0319 L 19.7956,3.3450 L 19.8097,3.3450 L 19.8097,3.3727 L 19.8237,3.3727 L 19.8237,3.3865 L 19.8378,3.3865 L 19.8378,3.4003 L 19.4727,3.4003 L 19.4587,3.3865 L 19.4447,3.3865 L 19.4025,3.3450 L 19.4025,3.3312 L 19.3885,3.3174 L 19.3885,1.7140 L 19.4025,1.7002 L 19.4025,1.6863 L 19.4166,1.6725 L 19.4306,1.6725 L 19.4306,1.6587 L 19.4447,1.6449 L 19.4587,1.6449 L 19.4727,1.6310 L 21.3821,1.6310 L 21.3961,1.6449 L 21.4102,1.6449 L 21.4523,1.6863 L 21.4523,1.7002 L 21.4663,1.7140 L 21.4663,3.3450 L 21.4804,3.3450 L 21.4804,3.3727 L 21.4944,3.3727 L 21.4944,3.3865 L 21.5085,3.3865 L 21.5085,3.4003 L 21.1434,3.4003 L 21.1294,3.3865 L 21.1154,3.3865 L 21.0732,3.3450 L 21.0732,3.3312 L 21.0592,3.3174 L 21.0592,2.0181 L 21.0592,1.9766 Z" stroke="#000000" stroke-width="0.1200" stroke-linecap="round" stroke-linejoin="round" fill="#000000"/>
        <path d="M 23.5301,2.3774 L 22.2385,2.3774 L 22.2245,2.3636 L 22.2104,2.3636 L 22.2104,2.3498 L 22.1964,2.3498 L 22.1964,2.3222 L 22.1824,2.3222 L 22.1824,2.6677 L 22.1964,2.6677 L 22.1964,2.6954 L 22.2104,2.6954 L 22.2104,2.7092 L 22.2245,2.7092 L 22.2385,2.7230 L 23.5442,2.7230 L 23.5723,2.6954 L 23.5863,2.6954 L 23.6144,2.6677 L 23.6144,2.6539 L 23.6284,2.6401 L 23.6284,2.6262 L 23.6425,2.6124 L 23.6425,2.5848 L 23.6565,2.5710 L 23.6565,2.5157 L 23.6425,2.5018 L 23.6425,2.4604 L 23.6284,2.4604 L 23.6284,2.4466 L 23.5863,2.4051 L 23.5723,2.4051 L 23.5723,2.3913 L 23.5582,2.3913 L 23.5442,2.3774 L 23.5301,2.3774 Z" stroke="#000000" stroke-width="0.1200" stroke-linecap="round" stroke-linejoin="round" fill="#000000"/>
        <path d="M 24.4989,1.9766 L 24.0777,1.9766 L 24.0636,1.9628 L 24.0496,1.9628 L 24.0075,1.9213 L 24.0075,1.9075 L 23.9934,1.8937 L 23.9934,1.7140 L 24.0075,1.7002 L 24.0075,1.6863 L 24.0215,1.6725 L 24.0356,1.6725 L 24.0356,1.6587 L 24.0496,1.6449 L 24.0636,1.6449 L 24.0777,1.6310 L 25.9870,1.6310 L 26.0011,1.6449 L 26.0151,1.6449 L 26.0572,1.6863 L 26.0572,1.7002 L 26.0713,1.7140 L 26.0713,2.0319 L 26.0572,2.0319 L 26.0572,2.0181 L 26.0432,2.0181 L 26.0432,2.0042 L 26.0292,2.0042 L 26.0292,1.9904 L 26.0011,1.9904 L 26.0011,1.9766 L 24.9622,1.9766 L 24.9622,1.9904 L 24.9341,1.9904 L 24.9341,2.0042 L 24.9200,2.0042 L 24.9200,2.0319 L 24.9060,2.0319 L 24.9060,3.3450 L 24.9200,3.3450 L 24.9200,3.3727 L 24.9341,3.3727 L 24.9341,3.3865 L 24.9481,3.3865 L 24.9481,3.4003 L 24.5831,3.4003 L 24.5691,3.3865 L 24.5550,3.3865 L 24.5129,3.3450 L 24.5129,3.3312 L 24.4989,3.3174 L 24.4989,2.0181 L 24.4989,1.9766 Z" stroke="#000000" stroke-width="0.1200" stroke-linecap="round" stroke-linejoin="round" fill="#000000"/>
        <path d="M 23.6705,3.0547 L 23.6986,3.0547 L 23.6986,3.0409 L 23.7267,3.0409 L 23.7267,3.0271 L 23.7407,3.0271 L 23.7407,3.0133 L 23.7548,3.0133 L 23.7548,2.9995 L 23.7688,2.9995 L 23.7688,3.3174 L 23.7548,3.3312 L 23.7548,3.3450 L 23.7407,3.3588 L 23.7407,3.3727 L 23.7267,3.3727 L 23.7127,3.3865 L 23.6986,3.3865 L 23.6846,3.4003 L 21.7752,3.4003 L 21.7612,3.3865 L 21.7471,3.3865 L 21.7050,3.3450 L 21.7050,3.3312 L 21.6910,3.3174 L 21.6910,1.7140 L 21.7050,1.7002 L 21.7050,1.6863 L 21.7191,1.6725 L 21.7331,1.6725 L 21.7331,1.6587 L 21.7471,1.6449 L 21.7612,1.6449 L 21.7752,1.6310 L 23.6846,1.6310 L 23.6986,1.6449 L 23.7127,1.6449 L 23.7548,1.6863 L 23.7548,1.7002 L 23.7688,1.7140 L 23.7688,2.0319 L 23.7548,2.0319 L 23.7548,2.0181 L 23.7407,2.0181 L 23.7407,2.0042 L 23.7267,2.0042 L 23.7267,1.9904 L 23.6986,1.9904 L 23.6986,1.9766 L 22.1543,1.9766 L 22.1543,1.9904 L 22.1262,1.9904 L 22.1262,2.0042 L 22.1122,2.0042 L 22.1122,2.0319 L 22.0981,2.0319 L 22.0981,3.0547 L 23.6565,3.0547 L 23.6705,3.0547 Z" stroke="#000000" stroke-width="0.1200" stroke-linecap="round" stroke-linejoin="round" fill="#000000"/>
        <path d="M 12.4530,2.8889 L 12.4530,3.4003 L 13.1269,3.4003 L 13.1269,2.8889 L 12.4530,2.8889 Z" stroke="#ED3440" stroke-width="0.1200" stroke-linecap="round" stroke-linejoin="round" fill="#ED3440"/>
        <path d="M 11.7510,2.2669 L 12.3266,2.2669 L 12.3266,2.7645 L 11.7510,2.7645 L 11.7510,2.2669 Z" stroke="#ED3440" stroke-width="0.1200" stroke-linecap="round" stroke-linejoin="round" fill="#ED3440"/>
        <path d="M 13.2533,2.8889 L 13.2533,3.4003 L 13.4638,3.4003 L 13.4779,3.3865 L 13.5340,3.3865 L 13.5481,3.3727 L 13.5762,3.3727 L 13.6042,3.3588 L 13.6183,3.3450 L 13.6464,3.3312 L 13.6744,3.3035 L 13.7025,3.2897 L 13.7166,3.2759 L 13.7306,3.2483 L 13.7446,3.2344 L 13.8008,3.1239 L 13.8008,3.0962 L 13.8148,3.0547 L 13.8148,3.0133 L 13.8289,2.9718 L 13.8289,2.8889 L 13.2673,2.8889 L 13.2533,2.8889 Z" stroke="#ED3440" stroke-width="0.1200" stroke-linecap="round" stroke-linejoin="round" fill="#ED3440"/>
        <path d="M 13.2533,2.2669 L 13.8289,2.2669 L 13.8289,2.7645 L 13.2533,2.7645 L 13.2533,2.2669 Z" stroke="#ED3440" stroke-width="0.1200" stroke-linecap="round" stroke-linejoin="round" fill="#ED3440"/>
        <path d="M 12.3266,2.8889 L 12.3266,3.4003 L 12.1161,3.4003 L 12.1020,3.3865 L 12.0459,3.3865 L 12.0318,3.3727 L 12.0037,3.3727 L 11.9757,3.3588 L 11.9616,3.3450 L 11.9335,3.3312 L 11.9055,3.3035 L 11.8774,3.2897 L 11.8633,3.2759 L 11.8493,3.2483 L 11.8353,3.2344 L 11.7791,3.1239 L 11.7791,3.0962 L 11.7651,3.0547 L 11.7651,3.0133 L 11.7510,2.9718 L 11.7510,2.8889 L 12.3126,2.8889 L 12.3266,2.8889 Z" stroke="#ED3440" stroke-width="0.1200" stroke-linecap="round" stroke-linejoin="round" fill="#ED3440"/>
        <path d="M 12.4530,1.6310 L 12.4530,2.1425 L 13.1269,2.1425 L 13.1269,1.6310 L 12.4530,1.6310 Z" stroke="#ED3440" stroke-width="0.1200" stroke-linecap="round" stroke-linejoin="round" fill="#ED3440"/>
        <path d="M 13.2533,2.1425 L 13.2533,1.6310 L 13.4638,1.6310 L 13.4779,1.6449 L 13.5340,1.6449 L 13.5481,1.6587 L 13.5762,1.6587 L 13.6042,1.6725 L 13.6183,1.6863 L 13.6464,1.7002 L 13.6744,1.7278 L 13.7025,1.7416 L 13.7166,1.7554 L 13.7306,1.7831 L 13.7446,1.7969 L 13.8008,1.9075 L 13.8008,1.9351 L 13.8148,1.9766 L 13.8148,2.0181 L 13.8289,2.0595 L 13.8289,2.1425 L 13.2673,2.1425 L 13.2533,2.1425 Z" stroke="#ED3440" stroke-width="0.1200" stroke-linecap="round" stroke-linejoin="round" fill="#ED3440"/>
        <path d="M 12.3266,2.1425 L 12.3266,1.6310 L 12.1161,1.6310 L 12.1020,1.6449 L 12.0459,1.6449 L 12.0318,1.6587 L 12.0037,1.6587 L 11.9757,1.6725 L 11.9616,1.6863 L 11.9335,1.7002 L 11.9055,1.7278 L 11.8774,1.7416 L 11.8633,1.7554 L 11.8493,1.7831 L 11.8353,1.7969 L 11.7791,1.9075 L 11.7791,1.9351 L 11.7651,1.9766 L 11.7651,2.0181 L 11.7510,2.0595 L 11.7510,2.1425 L 12.3126,2.1425 L 12.3266,2.1425 Z" stroke="#ED3440" stroke-width="0.1200" stroke-linecap="round" stroke-linejoin="round" fill="#ED3440"/>
        <text font-family="Arial" fill="#000000" style="white-space:pre;" font-weight="400" text-anchor="start" x="13.5762" y="3.3876" font-size="0.4773"><![CDATA[FortiVoice 180D8]]></text>
        <path d="M 34.1097,6.7434 L 33.4132,6.7434 L 33.4132,7.4386 L 34.1097,7.4386 L 34.1097,6.7434 Z" stroke="#000000" stroke-width="0.1200" stroke-linecap="round" stroke-linejoin="round" fill="#00FF00"/>
        <path d="M 34.1097,8.1338 L 33.4132,8.1338 L 33.4132,8.8290 L 34.1097,8.8290 L 34.1097,8.1338 Z" stroke="#000000" stroke-width="0.1200" stroke-linecap="round" stroke-linejoin="round" fill="#00FF00"/>
        <path d="M 34.1097,9.5415 L 33.4132,9.5415 L 33.4132,10.2367 L 34.1097,10.2367 L 34.1097,9.5415 Z" stroke="#000000" stroke-width="0.1200" stroke-linecap="round" stroke-linejoin="round" fill="#00FF00"/>
        <text font-family="Arial" fill="#000000" style="white-space:pre;" font-weight="400" text-anchor="start" x="45.0269" y="13.1551" font-size="0.1915"><![CDATA[POWER]]></text>
        <text font-family="Arial" fill="#000000" style="white-space:pre;" font-weight="400" text-anchor="start" x="44.9573" y="12.2861" font-size="0.1915"><![CDATA[STATUS]]></text>
        <text font-family="Arial" fill="#000000" style="white-space:pre;" font-weight="400" text-anchor="start" x="45.0269" y="12.7206" font-size="0.1915"><![CDATA[ALARM]]></text>
        <text font-family="Arial" fill="#000000" style="white-space:pre;" font-weight="400" text-anchor="start" x="46.6810" y="13.6418" font-size="0.1915"><![CDATA[USB MGMT]]></text>
        <text font-family="Arial" fill="#000000" style="white-space:pre;" font-weight="400" text-anchor="start" x="56.4664" y="10.6821" font-size="0.2438"><![CDATA[LAN 1]]></text>
        <text font-family="Arial" fill="#000000" style="white-space:pre;" font-weight="400" text-anchor="start" x="56.4664" y="13.8278" font-size="0.2438"><![CDATA[LAN 2]]></text>
        <text font-family="Symbol" fill="#000000" style="white-space:pre;" text-anchor="start" x="25.3146" y="3.4968" font-size="0.7574"><![CDATA[]]></text>
        <ellipse cx="33.7081" cy="11.4081" rx="0.2943" ry="0.2937" fill="#494949" stroke="#000000" stroke-width="0.1200" stroke-linecap="round" stroke-linejoin="round"/>
        <ellipse cx="33.7081" cy="11.4081" rx="0.2943" ry="0.2937" fill="none" stroke="#000000" stroke-width="0.1200" stroke-linecap="round" stroke-linejoin="round"/>
        <ellipse cx="33.7081" cy="11.4081" rx="0.2586" ry="0.2581" fill="#7F7F7F" stroke="#000000" stroke-width="0.1200" stroke-linecap="round" stroke-linejoin="round"/>
        <ellipse cx="33.7081" cy="11.4081" rx="0.2586" ry="0.2581" fill="none" stroke="#000000" stroke-width="0.1200" stroke-linecap="round" stroke-linejoin="round"/>
        <text font-family="Arial" fill="#000000" style="white-space:pre;" font-weight="400" text-anchor="start" x="47.7175" y="11.6984" font-size="0.1248"><![CDATA[7]]></text>
        <text font-family="Arial" fill="#000000" style="white-space:pre;" font-weight="400" text-anchor="start" x="47.7175" y="13.3091" font-size="0.1248"><![CDATA[8]]></text>
        <path d="M 85.8784,2.5210 L 81.0611,2.5210 L 81.0611,11.1166 L 85.8784,11.1166 L 85.8784,2.5210 Z" stroke="#0A0A0A" stroke-width="0.1200" stroke-linecap="round" stroke-linejoin="round" fill="#FFFFFF"/>
        <text font-family="Arial" fill="#000000" style="white-space:pre;" font-weight="400" text-anchor="start" x="98.4807" y="3.9216" font-size="0.1423"><![CDATA[5]]></text>
        <text font-family="Arial" fill="#000000" style="white-space:pre;" font-weight="400" text-anchor="start" x="98.4807" y="8.2674" font-size="0.1423"><![CDATA[6]]></text>
        <path d="M 92.0678,2.5210 L 87.2505,2.5210 L 87.2505,11.1166 L 92.0678,11.1166 L 92.0678,2.5210 Z" stroke="#0A0A0A" stroke-width="0.1200" stroke-linecap="round" stroke-linejoin="round" fill="#FFFFFF"/>
        <text font-family="Arial" fill="#000000" style="white-space:pre;" font-weight="400" text-anchor="start" x="105.7779" y="3.9216" font-size="0.1423"><![CDATA[3]]></text>
        <text font-family="Arial" fill="#000000" style="white-space:pre;" font-weight="400" text-anchor="start" x="105.7779" y="8.2674" font-size="0.1423"><![CDATA[4]]></text>
        <path d="M 98.1962,2.5210 L 93.3788,2.5210 L 93.3788,11.1166 L 98.1962,11.1166 L 98.1962,2.5210 Z" stroke="#0A0A0A" stroke-width="0.1200" stroke-linecap="round" stroke-linejoin="round" fill="#FFFFFF"/>
        <text font-family="Arial" fill="#000000" style="white-space:pre;" font-weight="400" text-anchor="start" x="113.0140" y="3.9216" font-size="0.1423"><![CDATA[1]]></text>
        <text font-family="Arial" fill="#000000" style="white-space:pre;" font-weight="400" text-anchor="start" x="113.0140" y="8.2674" font-size="0.1423"><![CDATA[2]]></text>
        <path d="M 104.3245,2.5210 L 99.5072,2.5210 L 99.5072,11.1166 L 104.3245,11.1166 L 104.3245,2.5210 Z" stroke="#0A0A0A" stroke-width="0.1200" stroke-linecap="round" stroke-linejoin="round" fill="#FFFFFF"/>
        <path d="M 79.7399,2.5210 L 74.9226,2.5210 L 74.9226,11.1166 L 79.7399,11.1166 L 79.7399,2.5210 Z" stroke="#0A0A0A" stroke-width="0.1200" stroke-linecap="round" stroke-linejoin="round" fill="#FFFFFF"/>
        <text font-family="Arial" fill="#000000" style="white-space:pre;" font-weight="400" text-anchor="start" x="89.9640" y="3.9216" font-size="0.1423"><![CDATA[EXT 1]]></text>
        <text font-family="Arial" fill="#000000" style="white-space:pre;" font-weight="400" text-anchor="start" x="89.9640" y="8.2674" font-size="0.1423"><![CDATA[EXT 2]]></text>
        <text font-family="Arial" fill="#000000" style="white-space:pre;" font-weight="400" text-anchor="start" x="92.7894" y="3.6335" font-size="0.1423"><![CDATA[LINE]]></text>
        <path d="M 91.3016,0.9512 L 81.0506,0.9512 L 81.0506,2.0885 " stroke="#000000" stroke-width="0.1200" stroke-linecap="round" stroke-linejoin="round" fill="none"/>
        <path d="M 94.0451,0.9512 L 104.2961,0.9512 L 104.2961,2.0885 " stroke="#000000" stroke-width="0.1200" stroke-linecap="round" stroke-linejoin="round" fill="none"/>
        <path d="M 36.3860,9.5543 L 36.3860,9.5046 L 36.4022,9.5046 L 36.4022,9.4715 L 36.4184,9.4550 L 36.4184,9.4384 L 36.4346,9.4384 L 36.4346,9.4218 L 36.4508,9.4218 L 36.4508,9.4053 L 36.4670,9.4053 L 36.4832,9.3887 L 36.4994,9.3887 L 36.5156,9.3722 L 38.1364,9.3722 L 38.1526,9.3887 L 38.1688,9.3887 L 38.1850,9.4053 L 38.2012,9.4053 L 38.2012,9.4218 L 38.2174,9.4218 L 38.2174,9.4384 L 38.2337,9.4384 L 38.2337,9.4550 L 38.2499,9.4715 L 38.2499,9.5046 L 38.2661,9.5046 L 38.2661,9.8524 L 38.1364,9.9848 L 38.1364,10.2498 L 38.1202,10.2663 L 38.1202,10.2829 L 38.1040,10.2829 L 38.1040,10.2994 L 38.0878,10.2994 L 38.0878,10.3160 L 38.0716,10.3160 L 38.0716,10.3326 L 38.0392,10.3326 L 38.0392,10.3491 L 36.6129,10.3491 L 36.6129,10.3326 L 36.5805,10.3326 L 36.5805,10.3160 L 36.5643,10.3160 L 36.5643,10.2994 L 36.5481,10.2994 L 36.5481,10.2829 L 36.5319,10.2829 L 36.5319,10.2663 L 36.5156,10.2498 L 36.5156,9.9848 L 36.3860,9.8524 L 36.3860,9.5709 L 36.3860,9.5543 Z" stroke="#7F7F7F" stroke-width="0.1200" stroke-linecap="round" stroke-linejoin="round" fill="#BFBFBF"/>
        <path d="M 38.2012,9.8358 L 38.0716,9.9683 L 38.0716,10.2166 L 38.0554,10.2332 L 38.0554,10.2498 L 38.0392,10.2498 L 38.0230,10.2663 L 38.0067,10.2663 L 37.9905,10.2829 L 36.6615,10.2829 L 36.6615,10.2663 L 36.6291,10.2663 L 36.6129,10.2498 L 36.5967,10.2498 L 36.5967,10.2332 L 36.5805,10.2166 L 36.5805,9.9683 L 36.4508,9.8358 L 36.4508,9.5543 L 36.4670,9.5543 L 36.4670,9.5212 L 36.4832,9.5212 L 36.4832,9.4881 L 36.4994,9.4881 L 36.4994,9.4715 L 36.5319,9.4715 L 36.5319,9.4550 L 36.5481,9.4550 L 36.5643,9.4384 L 38.0878,9.4384 L 38.1040,9.4550 L 38.1202,9.4550 L 38.1202,9.4715 L 38.1526,9.4715 L 38.1526,9.4881 L 38.1688,9.4881 L 38.1688,9.5212 L 38.1850,9.5212 L 38.1850,9.5543 L 38.2012,9.5543 L 38.2012,9.8192 L 38.2012,9.8358 Z" stroke="#000000" stroke-width="0.1200" stroke-linecap="round" stroke-linejoin="round" fill="#161616"/>
        <path d="M 37.9581,9.9020 L 37.9581,9.8689 L 37.9419,9.8358 L 37.9095,9.8192 L 36.7588,9.8192 L 36.7263,9.8358 L 36.7101,9.8689 L 36.7101,10.1339 L 36.7263,10.1670 L 36.7588,10.1835 L 37.9095,10.1835 L 37.9419,10.1670 L 37.9581,10.1339 L 37.9581,10.1007 L 37.9581,9.9020 Z" stroke="#000000" stroke-width="0.1200" stroke-linecap="round" stroke-linejoin="round" fill="#CCCCCC"/>
        <path d="M 37.0019,9.7696 L 36.8398,9.7696 L 36.8398,9.8192 L 37.0019,9.8192 L 37.0019,9.7696 Z" stroke="#000000" stroke-width="0.1200" stroke-linecap="round" stroke-linejoin="round" fill="#D6D6B1"/>
        <path d="M 37.2612,9.7696 L 37.0991,9.7696 L 37.0991,9.8192 L 37.2612,9.8192 L 37.2612,9.7696 Z" stroke="#000000" stroke-width="0.1200" stroke-linecap="round" stroke-linejoin="round" fill="#D6D6B1"/>
        <path d="M 37.5367,9.7696 L 37.3747,9.7696 L 37.3747,9.8192 L 37.5367,9.8192 L 37.5367,9.7696 Z" stroke="#000000" stroke-width="0.1200" stroke-linecap="round" stroke-linejoin="round" fill="#D6D6B1"/>
        <path d="M 37.7960,9.7696 L 37.6340,9.7696 L 37.6340,9.8192 L 37.7960,9.8192 L 37.7960,9.7696 Z" stroke="#000000" stroke-width="0.1200" stroke-linecap="round" stroke-linejoin="round" fill="#D6D6B1"/>
        <path d="M 67.9502,2.7011 L 67.9502,2.8535 L 67.7252,2.8535 L 67.7252,3.2829 L 66.7830,3.2829 L 66.7830,3.3245 L 66.4877,3.3245 L 66.4877,2.8535 L 66.5440,2.8535 L 66.5440,3.2829 L 66.7830,3.2829 L 66.7830,4.2387 L 66.8815,4.2387 L 66.8815,4.7373 L 66.7830,4.7373 L 66.7830,5.8178 L 70.3830,5.8178 L 70.3830,4.7373 L 70.2846,4.7373 L 70.2846,4.2387 L 70.3830,4.2387 L 70.3830,3.2829 L 70.6221,3.2829 L 70.6221,2.8535 L 70.6784,2.8535 L 70.6784,3.3245 L 70.3830,3.3245 L 70.3830,3.2829 L 69.4409,3.2829 L 69.4409,2.8535 L 69.2159,2.8535 L 69.2159,2.7011 L 67.9502,2.7011 Z" stroke="#000000" stroke-width="0.1200" stroke-linecap="round" stroke-linejoin="round" fill="#000000"/>
        <path d="M 67.7252,2.8673 L 66.5440,2.8673 L 66.5440,3.2968 L 67.7252,3.2968 L 67.7252,2.8673 Z" stroke="#494949" stroke-width="0.1200" stroke-linecap="round" stroke-linejoin="round" fill="#000000"/>
        <path d="M 70.6221,2.8673 L 69.4409,2.8673 L 69.4409,3.2968 L 70.6221,3.2968 L 70.6221,2.8673 Z" stroke="#494949" stroke-width="0.1200" stroke-linecap="round" stroke-linejoin="round" fill="#000000"/>
        <path d="M 67.9502,11.0400 L 67.9502,10.8876 L 67.7252,10.8876 L 67.7252,10.4582 L 66.7830,10.4582 L 66.7830,10.4166 L 66.4877,10.4166 L 66.4877,10.8876 L 66.5440,10.8876 L 66.5440,10.4582 L 66.7830,10.4582 L 66.7830,9.5024 L 66.8815,9.5024 L 66.8815,9.0037 L 66.7830,9.0037 L 66.7830,7.9233 L 70.3830,7.9233 L 70.3830,9.0037 L 70.2846,9.0037 L 70.2846,9.5024 L 70.3830,9.5024 L 70.3830,10.4582 L 70.6221,10.4582 L 70.6221,10.8876 L 70.6784,10.8876 L 70.6784,10.4166 L 70.3830,10.4166 L 70.3830,10.4582 L 69.4409,10.4582 L 69.4409,10.8876 L 69.2159,10.8876 L 69.2159,11.0400 L 67.9502,11.0400 Z" stroke="#000000" stroke-width="0.1200" stroke-linecap="round" stroke-linejoin="round" fill="#000000"/>
        <path d="M 67.7252,10.4582 L 66.5440,10.4582 L 66.5440,10.8876 L 67.7252,10.8876 L 67.7252,10.4582 Z" stroke="#494949" stroke-width="0.1200" stroke-linecap="round" stroke-linejoin="round" fill="#000000"/>
        <path d="M 70.6221,10.4582 L 69.4409,10.4582 L 69.4409,10.8876 L 70.6221,10.8876 L 70.6221,10.4582 Z" stroke="#494949" stroke-width="0.1200" stroke-linecap="round" stroke-linejoin="round" fill="#000000"/>
        <path d="M 76.7253,2.6457 L 76.7253,2.7981 L 76.5003,2.7981 L 76.5003,3.2275 L 75.5581,3.2275 L 75.5581,3.2690 L 75.2627,3.2690 L 75.2627,2.7981 L 75.3190,2.7981 L 75.3190,3.2275 L 75.5581,3.2275 L 75.5581,4.1833 L 75.6565,4.1833 L 75.6565,4.6819 L 75.5581,4.6819 L 75.5581,5.7624 L 79.1581,5.7624 L 79.1581,4.6819 L 79.0596,4.6819 L 79.0596,4.1833 L 79.1581,4.1833 L 79.1581,3.2275 L 79.3971,3.2275 L 79.3971,2.7981 L 79.4534,2.7981 L 79.4534,3.2690 L 79.1581,3.2690 L 79.1581,3.2275 L 78.2159,3.2275 L 78.2159,2.7981 L 77.9909,2.7981 L 77.9909,2.6457 L 76.7253,2.6457 Z" stroke="#000000" stroke-width="0.1200" stroke-linecap="round" stroke-linejoin="round" fill="#000000"/>
        <path d="M 76.5003,2.8119 L 75.3190,2.8119 L 75.3190,3.2413 L 76.5003,3.2413 L 76.5003,2.8119 Z" stroke="#494949" stroke-width="0.1200" stroke-linecap="round" stroke-linejoin="round" fill="#000000"/>
        <path d="M 79.3971,2.8119 L 78.2159,2.8119 L 78.2159,3.2413 L 79.3971,3.2413 L 79.3971,2.8119 Z" stroke="#494949" stroke-width="0.1200" stroke-linecap="round" stroke-linejoin="round" fill="#000000"/>
        <path d="M 76.7253,11.0400 L 76.7253,10.8876 L 76.5003,10.8876 L 76.5003,10.4582 L 75.5581,10.4582 L 75.5581,10.4166 L 75.2627,10.4166 L 75.2627,10.8876 L 75.3190,10.8876 L 75.3190,10.4582 L 75.5581,10.4582 L 75.5581,9.5024 L 75.6565,9.5024 L 75.6565,9.0037 L 75.5581,9.0037 L 75.5581,7.9233 L 79.1581,7.9233 L 79.1581,9.0037 L 79.0596,9.0037 L 79.0596,9.5024 L 79.1581,9.5024 L 79.1581,10.4582 L 79.3971,10.4582 L 79.3971,10.8876 L 79.4534,10.8876 L 79.4534,10.4166 L 79.1581,10.4166 L 79.1581,10.4582 L 78.2159,10.4582 L 78.2159,10.8876 L 77.9909,10.8876 L 77.9909,11.0400 L 76.7253,11.0400 Z" stroke="#000000" stroke-width="0.1200" stroke-linecap="round" stroke-linejoin="round" fill="#000000"/>
        <path d="M 76.5003,10.4582 L 75.3190,10.4582 L 75.3190,10.8876 L 76.5003,10.8876 L 76.5003,10.4582 Z" stroke="#494949" stroke-width="0.1200" stroke-linecap="round" stroke-linejoin="round" fill="#000000"/>
        <path d="M 79.3971,10.4582 L 78.2159,10.4582 L 78.2159,10.8876 L 79.3971,10.8876 L 79.3971,10.4582 Z" stroke="#494949" stroke-width="0.1200" stroke-linecap="round" stroke-linejoin="round" fill="#000000"/>
        <path d="M 101.3066,2.6457 L 101.3066,2.7981 L 101.0816,2.7981 L 101.0816,3.2275 L 100.1394,3.2275 L 100.1394,3.2690 L 99.8441,3.2690 L 99.8441,2.7981 L 99.9003,2.7981 L 99.9003,3.2275 L 100.1394,3.2275 L 100.1394,4.1833 L 100.2378,4.1833 L 100.2378,4.6819 L 100.1394,4.6819 L 100.1394,5.7624 L 103.7394,5.7624 L 103.7394,4.6819 L 103.6410,4.6819 L 103.6410,4.1833 L 103.7394,4.1833 L 103.7394,3.2275 L 103.9785,3.2275 L 103.9785,2.7981 L 104.0347,2.7981 L 104.0347,3.2690 L 103.7394,3.2690 L 103.7394,3.2275 L 102.7972,3.2275 L 102.7972,2.7981 L 102.5722,2.7981 L 102.5722,2.6457 L 101.3066,2.6457 Z" stroke="#000000" stroke-width="0.1200" stroke-linecap="round" stroke-linejoin="round" fill="#000000"/>
        <path d="M 101.0816,2.8119 L 99.9003,2.8119 L 99.9003,3.2413 L 101.0816,3.2413 L 101.0816,2.8119 Z" stroke="#494949" stroke-width="0.1200" stroke-linecap="round" stroke-linejoin="round" fill="#000000"/>
        <path d="M 103.9785,2.8119 L 102.7972,2.8119 L 102.7972,3.2413 L 103.9785,3.2413 L 103.9785,2.8119 Z" stroke="#494949" stroke-width="0.1200" stroke-linecap="round" stroke-linejoin="round" fill="#000000"/>
        <path d="M 101.3066,11.0400 L 101.3066,10.8876 L 101.0816,10.8876 L 101.0816,10.4582 L 100.1394,10.4582 L 100.1394,10.4166 L 99.8441,10.4166 L 99.8441,10.8876 L 99.9003,10.8876 L 99.9003,10.4582 L 100.1394,10.4582 L 100.1394,9.5024 L 100.2378,9.5024 L 100.2378,9.0037 L 100.1394,9.0037 L 100.1394,7.9233 L 103.7394,7.9233 L 103.7394,9.0037 L 103.6410,9.0037 L 103.6410,9.5024 L 103.7394,9.5024 L 103.7394,10.4582 L 103.9785,10.4582 L 103.9785,10.8876 L 104.0347,10.8876 L 104.0347,10.4166 L 103.7394,10.4166 L 103.7394,10.4582 L 102.7972,10.4582 L 102.7972,10.8876 L 102.5722,10.8876 L 102.5722,11.0400 L 101.3066,11.0400 Z" stroke="#000000" stroke-width="0.1200" stroke-linecap="round" stroke-linejoin="round" fill="#000000"/>
        <path d="M 101.0816,10.4582 L 99.9003,10.4582 L 99.9003,10.8876 L 101.0816,10.8876 L 101.0816,10.4582 Z" stroke="#494949" stroke-width="0.1200" stroke-linecap="round" stroke-linejoin="round" fill="#000000"/>
        <path d="M 103.9785,10.4582 L 102.7972,10.4582 L 102.7972,10.8876 L 103.9785,10.8876 L 103.9785,10.4582 Z" stroke="#494949" stroke-width="0.1200" stroke-linecap="round" stroke-linejoin="round" fill="#000000"/>
        <path d="M 95.1753,2.6457 L 95.1753,2.7981 L 94.9503,2.7981 L 94.9503,3.2275 L 94.0081,3.2275 L 94.0081,3.2690 L 93.7128,3.2690 L 93.7128,2.7981 L 93.7691,2.7981 L 93.7691,3.2275 L 94.0081,3.2275 L 94.0081,4.1833 L 94.1066,4.1833 L 94.1066,4.6819 L 94.0081,4.6819 L 94.0081,5.7624 L 97.6081,5.7624 L 97.6081,4.6819 L 97.5097,4.6819 L 97.5097,4.1833 L 97.6081,4.1833 L 97.6081,3.2275 L 97.8472,3.2275 L 97.8472,2.7981 L 97.9034,2.7981 L 97.9034,3.2690 L 97.6081,3.2690 L 97.6081,3.2275 L 96.6659,3.2275 L 96.6659,2.7981 L 96.4409,2.7981 L 96.4409,2.6457 L 95.1753,2.6457 Z" stroke="#000000" stroke-width="0.1200" stroke-linecap="round" stroke-linejoin="round" fill="#000000"/>
        <path d="M 94.9503,2.8119 L 93.7691,2.8119 L 93.7691,3.2413 L 94.9503,3.2413 L 94.9503,2.8119 Z" stroke="#494949" stroke-width="0.1200" stroke-linecap="round" stroke-linejoin="round" fill="#000000"/>
        <path d="M 97.8472,2.8119 L 96.6659,2.8119 L 96.6659,3.2413 L 97.8472,3.2413 L 97.8472,2.8119 Z" stroke="#494949" stroke-width="0.1200" stroke-linecap="round" stroke-linejoin="round" fill="#000000"/>
        <path d="M 95.1753,11.0400 L 95.1753,10.8876 L 94.9503,10.8876 L 94.9503,10.4582 L 94.0081,10.4582 L 94.0081,10.4166 L 93.7128,10.4166 L 93.7128,10.8876 L 93.7691,10.8876 L 93.7691,10.4582 L 94.0081,10.4582 L 94.0081,9.5024 L 94.1066,9.5024 L 94.1066,9.0037 L 94.0081,9.0037 L 94.0081,7.9233 L 97.6081,7.9233 L 97.6081,9.0037 L 97.5097,9.0037 L 97.5097,9.5024 L 97.6081,9.5024 L 97.6081,10.4582 L 97.8472,10.4582 L 97.8472,10.8876 L 97.9034,10.8876 L 97.9034,10.4166 L 97.6081,10.4166 L 97.6081,10.4582 L 96.6659,10.4582 L 96.6659,10.8876 L 96.4409,10.8876 L 96.4409,11.0400 L 95.1753,11.0400 Z" stroke="#000000" stroke-width="0.1200" stroke-linecap="round" stroke-linejoin="round" fill="#000000"/>
        <path d="M 94.9503,10.4582 L 93.7691,10.4582 L 93.7691,10.8876 L 94.9503,10.8876 L 94.9503,10.4582 Z" stroke="#494949" stroke-width="0.1200" stroke-linecap="round" stroke-linejoin="round" fill="#000000"/>
        <path d="M 97.8472,10.4582 L 96.6659,10.4582 L 96.6659,10.8876 L 97.8472,10.8876 L 97.8472,10.4582 Z" stroke="#494949" stroke-width="0.1200" stroke-linecap="round" stroke-linejoin="round" fill="#000000"/>
        <path d="M 89.0440,2.6457 L 89.0440,2.7981 L 88.8190,2.7981 L 88.8190,3.2275 L 87.8769,3.2275 L 87.8769,3.2690 L 87.5815,3.2690 L 87.5815,2.7981 L 87.6378,2.7981 L 87.6378,3.2275 L 87.8769,3.2275 L 87.8769,4.1833 L 87.9753,4.1833 L 87.9753,4.6819 L 87.8769,4.6819 L 87.8769,5.7624 L 91.4769,5.7624 L 91.4769,4.6819 L 91.3784,4.6819 L 91.3784,4.1833 L 91.4769,4.1833 L 91.4769,3.2275 L 91.7159,3.2275 L 91.7159,2.7981 L 91.7722,2.7981 L 91.7722,3.2690 L 91.4769,3.2690 L 91.4769,3.2275 L 90.5347,3.2275 L 90.5347,2.7981 L 90.3097,2.7981 L 90.3097,2.6457 L 89.0440,2.6457 Z" stroke="#000000" stroke-width="0.1200" stroke-linecap="round" stroke-linejoin="round" fill="#000000"/>
        <path d="M 88.8190,2.8119 L 87.6378,2.8119 L 87.6378,3.2413 L 88.8190,3.2413 L 88.8190,2.8119 Z" stroke="#494949" stroke-width="0.1200" stroke-linecap="round" stroke-linejoin="round" fill="#000000"/>
        <path d="M 91.7159,2.8119 L 90.5347,2.8119 L 90.5347,3.2413 L 91.7159,3.2413 L 91.7159,2.8119 Z" stroke="#494949" stroke-width="0.1200" stroke-linecap="round" stroke-linejoin="round" fill="#000000"/>
        <path d="M 89.0440,11.0400 L 89.0440,10.8876 L 88.8190,10.8876 L 88.8190,10.4582 L 87.8769,10.4582 L 87.8769,10.4166 L 87.5815,10.4166 L 87.5815,10.8876 L 87.6378,10.8876 L 87.6378,10.4582 L 87.8769,10.4582 L 87.8769,9.5024 L 87.9753,9.5024 L 87.9753,9.0037 L 87.8769,9.0037 L 87.8769,7.9233 L 91.4769,7.9233 L 91.4769,9.0037 L 91.3784,9.0037 L 91.3784,9.5024 L 91.4769,9.5024 L 91.4769,10.4582 L 91.7159,10.4582 L 91.7159,10.8876 L 91.7722,10.8876 L 91.7722,10.4166 L 91.4769,10.4166 L 91.4769,10.4582 L 90.5347,10.4582 L 90.5347,10.8876 L 90.3097,10.8876 L 90.3097,11.0400 L 89.0440,11.0400 Z" stroke="#000000" stroke-width="0.1200" stroke-linecap="round" stroke-linejoin="round" fill="#000000"/>
        <path d="M 88.8190,10.4582 L 87.6378,10.4582 L 87.6378,10.8876 L 88.8190,10.8876 L 88.8190,10.4582 Z" stroke="#494949" stroke-width="0.1200" stroke-linecap="round" stroke-linejoin="round" fill="#000000"/>
        <path d="M 91.7159,10.4582 L 90.5347,10.4582 L 90.5347,10.8876 L 91.7159,10.8876 L 91.7159,10.4582 Z" stroke="#494949" stroke-width="0.1200" stroke-linecap="round" stroke-linejoin="round" fill="#000000"/>
        <path d="M 82.8565,2.6457 L 82.8565,2.7981 L 82.6315,2.7981 L 82.6315,3.2275 L 81.6893,3.2275 L 81.6893,3.2690 L 81.3940,3.2690 L 81.3940,2.7981 L 81.4503,2.7981 L 81.4503,3.2275 L 81.6893,3.2275 L 81.6893,4.1833 L 81.7878,4.1833 L 81.7878,4.6819 L 81.6893,4.6819 L 81.6893,5.7624 L 85.2893,5.7624 L 85.2893,4.6819 L 85.1909,4.6819 L 85.1909,4.1833 L 85.2893,4.1833 L 85.2893,3.2275 L 85.5284,3.2275 L 85.5284,2.7981 L 85.5847,2.7981 L 85.5847,3.2690 L 85.2893,3.2690 L 85.2893,3.2275 L 84.3472,3.2275 L 84.3472,2.7981 L 84.1222,2.7981 L 84.1222,2.6457 L 82.8565,2.6457 Z" stroke="#000000" stroke-width="0.1200" stroke-linecap="round" stroke-linejoin="round" fill="#000000"/>
        <path d="M 82.6315,2.8119 L 81.4503,2.8119 L 81.4503,3.2413 L 82.6315,3.2413 L 82.6315,2.8119 Z" stroke="#494949" stroke-width="0.1200" stroke-linecap="round" stroke-linejoin="round" fill="#000000"/>
        <path d="M 85.5284,2.8119 L 84.3472,2.8119 L 84.3472,3.2413 L 85.5284,3.2413 L 85.5284,2.8119 Z" stroke="#494949" stroke-width="0.1200" stroke-linecap="round" stroke-linejoin="round" fill="#000000"/>
        <path d="M 82.8565,11.0400 L 82.8565,10.8876 L 82.6315,10.8876 L 82.6315,10.4582 L 81.6893,10.4582 L 81.6893,10.4166 L 81.3940,10.4166 L 81.3940,10.8876 L 81.4503,10.8876 L 81.4503,10.4582 L 81.6893,10.4582 L 81.6893,9.5024 L 81.7878,9.5024 L 81.7878,9.0037 L 81.6893,9.0037 L 81.6893,7.9233 L 85.2893,7.9233 L 85.2893,9.0037 L 85.1909,9.0037 L 85.1909,9.5024 L 85.2893,9.5024 L 85.2893,10.4582 L 85.5284,10.4582 L 85.5284,10.8876 L 85.5847,10.8876 L 85.5847,10.4166 L 85.2893,10.4166 L 85.2893,10.4582 L 84.3472,10.4582 L 84.3472,10.8876 L 84.1222,10.8876 L 84.1222,11.0400 L 82.8565,11.0400 Z" stroke="#000000" stroke-width="0.1200" stroke-linecap="round" stroke-linejoin="round" fill="#000000"/>
        <path d="M 82.6315,10.4582 L 81.4503,10.4582 L 81.4503,10.8876 L 82.6315,10.8876 L 82.6315,10.4582 Z" stroke="#494949" stroke-width="0.1200" stroke-linecap="round" stroke-linejoin="round" fill="#000000"/>
        <path d="M 85.5284,10.4582 L 84.3472,10.4582 L 84.3472,10.8876 L 85.5284,10.8876 L 85.5284,10.4582 Z" stroke="#494949" stroke-width="0.1200" stroke-linecap="round" stroke-linejoin="round" fill="#000000"/>
        <path d="M 67.4644,2.9143 L 66.7041,2.9143 L 66.7041,3.2252 L 67.4644,3.2252 L 67.4644,2.9143 Z" stroke="#000000" stroke-width="0.1200" stroke-linecap="round" stroke-linejoin="round" fill="#83FF00"/>
        <path d="M 70.3970,2.9143 L 69.6367,2.9143 L 69.6367,3.2252 L 70.3970,3.2252 L 70.3970,2.9143 Z" stroke="#000000" stroke-width="0.1200" stroke-linecap="round" stroke-linejoin="round" fill="#FFFF00"/>
        <path d="M 82.3720,2.8625 L 81.6117,2.8625 L 81.6117,3.1733 L 82.3720,3.1733 L 82.3720,2.8625 Z" stroke="#000000" stroke-width="0.1200" stroke-linecap="round" stroke-linejoin="round" fill="#83FF00"/>
        <path d="M 85.3046,2.8625 L 84.5443,2.8625 L 84.5443,3.1733 L 85.3046,3.1733 L 85.3046,2.8625 Z" stroke="#000000" stroke-width="0.1200" stroke-linecap="round" stroke-linejoin="round" fill="#FFFF00"/>
        <path d="M 88.5631,2.8625 L 87.8028,2.8625 L 87.8028,3.1733 L 88.5631,3.1733 L 88.5631,2.8625 Z" stroke="#000000" stroke-width="0.1200" stroke-linecap="round" stroke-linejoin="round" fill="#83FF00"/>
        <path d="M 91.4822,2.8625 L 90.7219,2.8625 L 90.7219,3.1733 L 91.4822,3.1733 L 91.4822,2.8625 Z" stroke="#000000" stroke-width="0.1200" stroke-linecap="round" stroke-linejoin="round" fill="#FFFF00"/>
        <path d="M 94.6999,2.8625 L 93.9396,2.8625 L 93.9396,3.1733 L 94.6999,3.1733 L 94.6999,2.8625 Z" stroke="#000000" stroke-width="0.1200" stroke-linecap="round" stroke-linejoin="round" fill="#83FF00"/>
        <path d="M 97.6190,2.8625 L 96.8587,2.8625 L 96.8587,3.1733 L 97.6190,3.1733 L 97.6190,2.8625 Z" stroke="#000000" stroke-width="0.1200" stroke-linecap="round" stroke-linejoin="round" fill="#FFFF00"/>
        <path d="M 100.8232,2.8625 L 100.0629,2.8625 L 100.0629,3.1733 L 100.8232,3.1733 L 100.8232,2.8625 Z" stroke="#000000" stroke-width="0.1200" stroke-linecap="round" stroke-linejoin="round" fill="#83FF00"/>
        <path d="M 103.7558,2.8625 L 102.9955,2.8625 L 102.9955,3.1733 L 103.7558,3.1733 L 103.7558,2.8625 Z" stroke="#000000" stroke-width="0.1200" stroke-linecap="round" stroke-linejoin="round" fill="#FFFF00"/>
        <path d="M 76.2487,2.8625 L 75.4884,2.8625 L 75.4884,3.1733 L 76.2487,3.1733 L 76.2487,2.8625 Z" stroke="#000000" stroke-width="0.1200" stroke-linecap="round" stroke-linejoin="round" fill="#83FF00"/>
        <path d="M 79.1678,2.8625 L 78.4075,2.8625 L 78.4075,3.1733 L 79.1678,3.1733 L 79.1678,2.8625 Z" stroke="#000000" stroke-width="0.1200" stroke-linecap="round" stroke-linejoin="round" fill="#FFFF00"/>
        <path d="M 67.4644,10.4915 L 66.7041,10.4915 L 66.7041,10.8023 L 67.4644,10.8023 L 67.4644,10.4915 Z" stroke="#000000" stroke-width="0.1200" stroke-linecap="round" stroke-linejoin="round" fill="#83FF00"/>
        <path d="M 70.3970,10.4915 L 69.6367,10.4915 L 69.6367,10.8023 L 70.3970,10.8023 L 70.3970,10.4915 Z" stroke="#000000" stroke-width="0.1200" stroke-linecap="round" stroke-linejoin="round" fill="#FFFF00"/>
        <path d="M 82.3720,10.4915 L 81.6117,10.4915 L 81.6117,10.8023 L 82.3720,10.8023 L 82.3720,10.4915 Z" stroke="#000000" stroke-width="0.1200" stroke-linecap="round" stroke-linejoin="round" fill="#83FF00"/>
        <path d="M 85.3046,10.4915 L 84.5443,10.4915 L 84.5443,10.8023 L 85.3046,10.8023 L 85.3046,10.4915 Z" stroke="#000000" stroke-width="0.1200" stroke-linecap="round" stroke-linejoin="round" fill="#FFFF00"/>
        <path d="M 88.5631,10.4915 L 87.8028,10.4915 L 87.8028,10.8023 L 88.5631,10.8023 L 88.5631,10.4915 Z" stroke="#000000" stroke-width="0.1200" stroke-linecap="round" stroke-linejoin="round" fill="#83FF00"/>
        <path d="M 91.4822,10.4915 L 90.7219,10.4915 L 90.7219,10.8023 L 91.4822,10.8023 L 91.4822,10.4915 Z" stroke="#000000" stroke-width="0.1200" stroke-linecap="round" stroke-linejoin="round" fill="#FFFF00"/>
        <path d="M 94.6999,10.4915 L 93.9396,10.4915 L 93.9396,10.8023 L 94.6999,10.8023 L 94.6999,10.4915 Z" stroke="#000000" stroke-width="0.1200" stroke-linecap="round" stroke-linejoin="round" fill="#83FF00"/>
        <path d="M 97.6190,10.4915 L 96.8587,10.4915 L 96.8587,10.8023 L 97.6190,10.8023 L 97.6190,10.4915 Z" stroke="#000000" stroke-width="0.1200" stroke-linecap="round" stroke-linejoin="round" fill="#FFFF00"/>
        <path d="M 100.8232,10.4915 L 100.0629,10.4915 L 100.0629,10.8023 L 100.8232,10.8023 L 100.8232,10.4915 Z" stroke="#000000" stroke-width="0.1200" stroke-linecap="round" stroke-linejoin="round" fill="#83FF00"/>
        <path d="M 103.7558,10.4915 L 102.9955,10.4915 L 102.9955,10.8023 L 103.7558,10.8023 L 103.7558,10.4915 Z" stroke="#000000" stroke-width="0.1200" stroke-linecap="round" stroke-linejoin="round" fill="#FFFF00"/>
        <path d="M 76.2487,10.4915 L 75.4884,10.4915 L 75.4884,10.8023 L 76.2487,10.8023 L 76.2487,10.4915 Z" stroke="#000000" stroke-width="0.1200" stroke-linecap="round" stroke-linejoin="round" fill="#83FF00"/>
        <path d="M 79.1678,10.4915 L 78.4075,10.4915 L 78.4075,10.8023 L 79.1678,10.8023 L 79.1678,10.4915 Z" stroke="#000000" stroke-width="0.1200" stroke-linecap="round" stroke-linejoin="round" fill="#FFFF00"/>
      </g>
      <!--emf-blob end-->
    </g>
  </g>
</svg>
