<svg xmlns="http://www.w3.org/2000/svg" xmlns:xlink="http://www.w3.org/1999/xlink" version="1.1" width="2.8032000000" height="4.4944000000" viewBox="0 0 50.4567 80.9008">
  <title><![CDATA[FEX-40D (F)]]></title>
  <g transform=" scale(4.000000) ">
    <!--converted by libvisio2svg-->
    <g transform=" translate(0.000000,0.000000) ">
      <!--emf-blob start-->
      <g transform="translate(-0.0000, -0.0000)">
        <path d="M 21.0693,54.8741 L 21.0693,56.3945 L 22.4241,56.3945 " stroke="#000000" stroke-width="0.1199" stroke-linecap="round" stroke-linejoin="round" fill="none"/>
        <path d="M 22.4241,54.8741 L 25.0978,54.8741 " stroke="#000000" stroke-width="0.1199" stroke-linecap="round" stroke-linejoin="round" fill="none"/>
        <path d="M 23.7431,54.8741 L 23.7431,56.3945 " stroke="#000000" stroke-width="0.1199" stroke-linecap="round" stroke-linejoin="round" fill="none"/>
        <path d="M 25.7752,54.8741 L 25.7752,56.3945 " stroke="#000000" stroke-width="0.1199" stroke-linecap="round" stroke-linejoin="round" fill="none"/>
        <path d="M 25.7752,54.8741 L 25.7752,56.3945 " stroke="#000000" stroke-width="0.1199" stroke-linecap="round" stroke-linejoin="round" fill="none"/>
        <path d="M 27.0943,56.3945 L 27.0943,54.8741 L 28.4490,56.3945 L 29.8037,54.8741 L 29.8037,56.3945 " stroke="#000000" stroke-width="0.1199" stroke-linecap="round" stroke-linejoin="round" fill="none"/>
        <path d="M 30.4454,56.3945 L 31.8001,54.8741 L 33.1548,56.3945 " stroke="#000000" stroke-width="0.1199" stroke-linecap="round" stroke-linejoin="round" fill="none"/>
        <path d="M 30.8019,56.0144 L 32.7983,56.0144 " stroke="#000000" stroke-width="0.1199" stroke-linecap="round" stroke-linejoin="round" fill="none"/>
        <path d="M 17.0409,56.3945 L 18.3956,54.8741 L 19.7503,56.3945 " stroke="#000000" stroke-width="0.1199" stroke-linecap="round" stroke-linejoin="round" fill="none"/>
        <path d="M 17.3974,56.0144 L 19.3938,56.0144 " stroke="#000000" stroke-width="0.1199" stroke-linecap="round" stroke-linejoin="round" fill="none"/>
        <path d="M 50.2822,38.1719 L 50.2822,38.1156 L 50.2682,38.0594 L 50.2541,38.0172 L 50.2401,37.9609 L 50.2121,37.9187 L 50.1981,37.8765 L 50.1560,37.8343 L 50.1279,37.7922 L 50.0859,37.7640 L 50.0438,37.7218 L 50.0018,37.7078 L 49.9597,37.6796 L 49.9036,37.6656 L 49.8615,37.6515 L 49.8054,37.6374 L 0.5048,37.6374 L 0.4487,37.6515 L 0.4066,37.6656 L 0.3505,37.6796 L 0.3085,37.7078 L 0.2664,37.7218 L 0.2243,37.7640 L 0.1823,37.7922 L 0.1542,37.8343 L 0.1122,37.8765 L 0.0982,37.9187 L 0.0701,37.9609 L 0.0561,38.0172 L 0.0421,38.0594 L 0.0280,38.1156 L 0.0280,80.3663 L 0.0421,80.4226 L 0.0561,80.4648 L 0.0701,80.5211 L 0.0982,80.5632 L 0.1122,80.6054 L 0.1542,80.6476 L 0.1823,80.6898 L 0.2243,80.7180 L 0.2664,80.7602 L 0.3085,80.7742 L 0.3505,80.8023 L 0.4066,80.8164 L 0.4487,80.8305 L 0.5048,80.8445 L 49.8054,80.8445 L 49.8615,80.8305 L 49.9036,80.8164 L 49.9597,80.8023 L 50.0018,80.7742 L 50.0438,80.7602 L 50.0859,80.7180 L 50.1279,80.6898 L 50.1560,80.6476 L 50.1981,80.6054 L 50.2121,80.5632 L 50.2401,80.5211 L 50.2541,80.4648 L 50.2682,80.4226 L 50.2822,80.3663 L 50.2822,80.3101 L 50.2822,38.1719 Z" stroke="#000000" stroke-width="0.1199" stroke-linecap="round" stroke-linejoin="round" fill="#EFEFEF"/>
        <path d="M 50.2822,41.6178 L 0.0280,41.6178 L 0.0280,41.8147 L 50.2822,41.8147 L 50.2822,41.6178 Z" stroke="#000000" stroke-width="0.1199" stroke-linecap="round" stroke-linejoin="round" fill="#000000"/>
        <path d="M 50.2822,47.5813 L 0.0280,47.5813 L 0.0280,47.7782 L 50.2822,47.7782 L 50.2822,47.5813 Z" stroke="#000000" stroke-width="0.1199" stroke-linecap="round" stroke-linejoin="round" fill="#000000"/>
        <path d="M 39.0928,44.6980 L 39.0788,44.6276 L 39.0647,44.5433 L 38.9806,44.4307 L 38.8684,44.3464 L 38.7843,44.3323 L 38.7142,44.3182 L 11.5960,44.3182 L 11.5259,44.3323 L 11.4418,44.3464 L 11.3296,44.4307 L 11.2455,44.5433 L 11.2315,44.6276 L 11.2174,44.6980 L 11.2315,44.7683 L 11.2455,44.8527 L 11.3296,44.9652 L 11.4418,45.0496 L 11.5259,45.0637 L 11.5960,45.0777 L 38.7142,45.0777 L 38.7843,45.0637 L 38.8684,45.0496 L 38.9806,44.9652 L 39.0647,44.8527 L 39.0788,44.7683 L 39.0928,44.6980 Z" stroke="#000000" stroke-width="0.1199" stroke-linecap="round" stroke-linejoin="round" fill="#0A0A0A"/>
        <path d="M 46.4963,37.1733 L 44.0986,37.1733 L 44.0986,37.6374 L 46.4963,37.6374 L 46.4963,37.1733 Z" stroke="#000000" stroke-width="0.1199" stroke-linecap="round" stroke-linejoin="round" fill="#DDDDDD"/>
        <path d="M 46.4402,37.1733 L 44.1547,37.1733 L 44.1547,36.8920 L 46.4402,36.8920 L 46.4402,37.1733 Z" stroke="#000000" stroke-width="0.1199" stroke-linecap="round" stroke-linejoin="round" fill="#BFBFBF"/>
        <path d="M 46.4963,33.8681 L 44.0986,33.8681 L 44.0986,36.8920 L 46.4963,36.8920 L 46.4963,33.8681 Z" stroke="#000000" stroke-width="0.1199" stroke-linecap="round" stroke-linejoin="round" fill="#DDDDDD"/>
        <path d="M 44.2388,37.1733 L 44.2388,37.6374 " stroke="#000000" stroke-width="0.1199" stroke-linecap="round" stroke-linejoin="round" fill="none"/>
        <path d="M 44.3650,37.1733 L 44.3650,37.6374 " stroke="#000000" stroke-width="0.1199" stroke-linecap="round" stroke-linejoin="round" fill="none"/>
        <path d="M 44.5052,37.1733 L 44.5052,37.6374 " stroke="#000000" stroke-width="0.1199" stroke-linecap="round" stroke-linejoin="round" fill="none"/>
        <path d="M 44.6314,37.1733 L 44.6314,37.6374 " stroke="#000000" stroke-width="0.1199" stroke-linecap="round" stroke-linejoin="round" fill="none"/>
        <path d="M 44.7716,37.1733 L 44.7716,37.6374 " stroke="#000000" stroke-width="0.1199" stroke-linecap="round" stroke-linejoin="round" fill="none"/>
        <path d="M 44.8978,37.1733 L 44.8978,37.6374 " stroke="#000000" stroke-width="0.1199" stroke-linecap="round" stroke-linejoin="round" fill="none"/>
        <path d="M 45.0380,37.1733 L 45.0380,37.6374 " stroke="#000000" stroke-width="0.1199" stroke-linecap="round" stroke-linejoin="round" fill="none"/>
        <path d="M 45.1642,37.1733 L 45.1642,37.6374 " stroke="#000000" stroke-width="0.1199" stroke-linecap="round" stroke-linejoin="round" fill="none"/>
        <path d="M 45.3044,37.1733 L 45.3044,37.6374 " stroke="#000000" stroke-width="0.1199" stroke-linecap="round" stroke-linejoin="round" fill="none"/>
        <path d="M 45.4306,37.1733 L 45.4306,37.6374 " stroke="#000000" stroke-width="0.1199" stroke-linecap="round" stroke-linejoin="round" fill="none"/>
        <path d="M 45.5709,37.1733 L 45.5709,37.6374 " stroke="#000000" stroke-width="0.1199" stroke-linecap="round" stroke-linejoin="round" fill="none"/>
        <path d="M 45.6971,37.1733 L 45.6971,37.6374 " stroke="#000000" stroke-width="0.1199" stroke-linecap="round" stroke-linejoin="round" fill="none"/>
        <path d="M 45.8373,37.1733 L 45.8373,37.6374 " stroke="#000000" stroke-width="0.1199" stroke-linecap="round" stroke-linejoin="round" fill="none"/>
        <path d="M 45.9635,37.1733 L 45.9635,37.6374 " stroke="#000000" stroke-width="0.1199" stroke-linecap="round" stroke-linejoin="round" fill="none"/>
        <path d="M 46.1037,37.1733 L 46.1037,37.6374 " stroke="#000000" stroke-width="0.1199" stroke-linecap="round" stroke-linejoin="round" fill="none"/>
        <path d="M 46.2299,37.1733 L 46.2299,37.6374 " stroke="#000000" stroke-width="0.1199" stroke-linecap="round" stroke-linejoin="round" fill="none"/>
        <path d="M 46.3701,37.1733 L 46.3701,37.6374 " stroke="#000000" stroke-width="0.1199" stroke-linecap="round" stroke-linejoin="round" fill="none"/>
        <path d="M 46.4963,33.8681 L 44.0986,33.8681 L 44.0986,31.2661 L 46.4963,31.2661 L 46.4963,33.8681 Z" stroke="#000000" stroke-width="0.1199" stroke-linecap="round" stroke-linejoin="round" fill="#DDDDDD"/>
        <path d="M 46.2579,33.8681 L 44.3650,33.8681 L 44.3650,31.8568 L 46.2579,31.8568 L 46.2579,33.8681 Z" stroke="#000000" stroke-width="0.1199" stroke-linecap="round" stroke-linejoin="round" fill="#7F7F7F"/>
        <path d="M 46.0616,33.8681 L 44.5473,33.8681 L 44.5473,32.0396 L 46.0616,32.0396 L 46.0616,33.8681 Z" stroke="#000000" stroke-width="0.1199" stroke-linecap="round" stroke-linejoin="round" fill="#A5A5A5"/>
        <path d="M 45.6129,33.0242 L 44.9960,33.0242 L 44.9960,32.0396 L 45.6129,32.0396 L 45.6129,33.0242 Z" stroke="#000000" stroke-width="0.1199" stroke-linecap="round" stroke-linejoin="round" fill="#7F7F7F"/>
        <path d="M 46.3000,28.4672 L 46.2860,28.4391 L 46.2579,28.4109 L 46.2439,28.3828 L 46.2159,28.3406 L 46.2018,28.3125 L 46.1738,28.2703 L 46.1598,28.2421 L 46.1317,28.1999 L 46.1177,28.1578 L 46.0897,28.1156 L 46.0756,28.0734 L 46.0476,28.0312 L 46.0336,27.9890 L 46.0055,27.9468 L 45.9915,27.8905 L 45.9775,27.8483 L 45.9495,27.7921 L 45.9354,27.7499 L 45.8233,27.2998 L 45.8233,27.2435 L 45.8092,27.1732 L 45.8092,27.1170 L 45.7952,27.0466 L 45.7952,0.4219 L 45.7812,0.4079 L 45.7812,0.3797 L 45.7672,0.3516 L 45.7672,0.3376 L 45.7391,0.2813 L 45.7391,0.2672 L 45.7251,0.2391 L 45.7111,0.2250 L 45.6971,0.1969 L 45.5989,0.0985 L 45.5709,0.0844 L 45.5568,0.0703 L 45.5288,0.0563 L 45.5148,0.0563 L 45.4587,0.0281 L 45.4447,0.0281 L 45.4166,0.0141 L 45.3886,0.0141 L 45.3746,0.0000 L 45.2063,0.0000 L 45.1923,0.0141 L 45.1642,0.0141 L 45.1362,0.0281 L 45.1222,0.0281 L 45.0661,0.0563 L 45.0521,0.0563 L 45.0240,0.0703 L 45.0100,0.0844 L 44.9819,0.0985 L 44.9539,0.1266 L 44.9399,0.1547 L 44.9118,0.1688 L 44.8838,0.1969 L 44.8698,0.2250 L 44.8558,0.2391 L 44.8417,0.2672 L 44.8417,0.2813 L 44.8137,0.3376 L 44.8137,0.3516 L 44.7997,0.3797 L 44.7997,0.4079 L 44.7856,0.4219 L 44.7856,27.0607 L 44.7716,27.1310 L 44.7716,27.2013 L 44.7436,27.3420 L 44.7296,27.3983 L 44.7155,27.4686 L 44.6875,27.5811 L 44.6735,27.6514 L 44.6454,27.7639 L 44.6174,27.8202 L 44.6034,27.8765 L 44.5753,27.9327 L 44.5613,27.9749 L 44.5332,28.0312 L 44.5192,28.0734 L 44.4912,28.1296 L 44.4772,28.1718 L 44.4211,28.2562 L 44.4071,28.2984 L 44.3790,28.3406 L 44.3650,28.3687 L 44.3369,28.4109 L 44.3229,28.4391 L 44.2949,28.4812 L 44.2809,28.5094 L 44.2528,28.5375 L 44.2388,28.5656 L 44.2248,28.5797 L 44.2248,28.5938 L 44.2107,28.6078 L 44.2107,28.6219 L 44.1967,28.6360 L 44.1967,28.6500 L 44.1827,28.6641 L 44.1827,28.6782 L 44.1687,28.6922 L 44.1687,28.7203 L 44.1547,28.7344 L 44.1547,28.7625 L 44.1406,28.7766 L 44.1406,28.8188 L 44.1266,28.8329 L 44.1266,28.8891 L 44.1126,28.9032 L 44.1126,28.9876 L 44.0986,29.0157 L 44.0986,31.2661 L 46.4963,31.2661 L 46.4963,28.9454 L 46.4823,28.9313 L 46.4823,28.8751 L 46.4683,28.8610 L 46.4683,28.8188 L 46.4542,28.8047 L 46.4542,28.7766 L 46.4402,28.7625 L 46.4402,28.7203 L 46.4122,28.6922 L 46.4122,28.6782 L 46.3981,28.6500 L 46.3981,28.6360 L 46.3841,28.6219 L 46.3841,28.6078 L 46.3701,28.5797 L 46.3561,28.5656 L 46.3561,28.5516 L 46.3421,28.5375 L 46.3280,28.5094 L 46.3140,28.4953 L 46.3140,28.4812 L 46.3000,28.4672 Z" stroke="#000000" stroke-width="0.1199" stroke-linecap="round" stroke-linejoin="round" fill="#EFEFEF"/>
        <path d="M 45.3185,0.0141 L 45.2764,0.0141 L 45.2764,31.2661 L 45.3185,31.2661 L 45.3185,0.0141 Z" stroke="#000000" stroke-width="0.1199" stroke-linecap="round" stroke-linejoin="round" fill="#000000"/>
        <path d="M 6.2257,37.1733 L 3.8280,37.1733 L 3.8280,37.6374 L 6.2257,37.6374 L 6.2257,37.1733 Z" stroke="#000000" stroke-width="0.1199" stroke-linecap="round" stroke-linejoin="round" fill="#DDDDDD"/>
        <path d="M 6.1696,37.1733 L 3.8840,37.1733 L 3.8840,36.8920 L 6.1696,36.8920 L 6.1696,37.1733 Z" stroke="#000000" stroke-width="0.1199" stroke-linecap="round" stroke-linejoin="round" fill="#BFBFBF"/>
        <path d="M 6.2257,33.8681 L 3.8280,33.8681 L 3.8280,36.8920 L 6.2257,36.8920 L 6.2257,33.8681 Z" stroke="#000000" stroke-width="0.1199" stroke-linecap="round" stroke-linejoin="round" fill="#DDDDDD"/>
        <path d="M 3.9682,37.1733 L 3.9682,37.6374 " stroke="#000000" stroke-width="0.1199" stroke-linecap="round" stroke-linejoin="round" fill="none"/>
        <path d="M 4.0944,37.1733 L 4.0944,37.6374 " stroke="#000000" stroke-width="0.1199" stroke-linecap="round" stroke-linejoin="round" fill="none"/>
        <path d="M 4.2346,37.1733 L 4.2346,37.6374 " stroke="#000000" stroke-width="0.1199" stroke-linecap="round" stroke-linejoin="round" fill="none"/>
        <path d="M 4.3608,37.1733 L 4.3608,37.6374 " stroke="#000000" stroke-width="0.1199" stroke-linecap="round" stroke-linejoin="round" fill="none"/>
        <path d="M 4.5010,37.1733 L 4.5010,37.6374 " stroke="#000000" stroke-width="0.1199" stroke-linecap="round" stroke-linejoin="round" fill="none"/>
        <path d="M 4.6272,37.1733 L 4.6272,37.6374 " stroke="#000000" stroke-width="0.1199" stroke-linecap="round" stroke-linejoin="round" fill="none"/>
        <path d="M 4.7674,37.1733 L 4.7674,37.6374 " stroke="#000000" stroke-width="0.1199" stroke-linecap="round" stroke-linejoin="round" fill="none"/>
        <path d="M 4.8936,37.1733 L 4.8936,37.6374 " stroke="#000000" stroke-width="0.1199" stroke-linecap="round" stroke-linejoin="round" fill="none"/>
        <path d="M 5.0338,37.1733 L 5.0338,37.6374 " stroke="#000000" stroke-width="0.1199" stroke-linecap="round" stroke-linejoin="round" fill="none"/>
        <path d="M 5.1600,37.1733 L 5.1600,37.6374 " stroke="#000000" stroke-width="0.1199" stroke-linecap="round" stroke-linejoin="round" fill="none"/>
        <path d="M 5.3002,37.1733 L 5.3002,37.6374 " stroke="#000000" stroke-width="0.1199" stroke-linecap="round" stroke-linejoin="round" fill="none"/>
        <path d="M 5.4264,37.1733 L 5.4264,37.6374 " stroke="#000000" stroke-width="0.1199" stroke-linecap="round" stroke-linejoin="round" fill="none"/>
        <path d="M 5.5667,37.1733 L 5.5667,37.6374 " stroke="#000000" stroke-width="0.1199" stroke-linecap="round" stroke-linejoin="round" fill="none"/>
        <path d="M 5.6929,37.1733 L 5.6929,37.6374 " stroke="#000000" stroke-width="0.1199" stroke-linecap="round" stroke-linejoin="round" fill="none"/>
        <path d="M 5.8331,37.1733 L 5.8331,37.6374 " stroke="#000000" stroke-width="0.1199" stroke-linecap="round" stroke-linejoin="round" fill="none"/>
        <path d="M 5.9593,37.1733 L 5.9593,37.6374 " stroke="#000000" stroke-width="0.1199" stroke-linecap="round" stroke-linejoin="round" fill="none"/>
        <path d="M 6.0995,37.1733 L 6.0995,37.6374 " stroke="#000000" stroke-width="0.1199" stroke-linecap="round" stroke-linejoin="round" fill="none"/>
        <path d="M 6.2257,33.8681 L 3.8280,33.8681 L 3.8280,31.2661 L 6.2257,31.2661 L 6.2257,33.8681 Z" stroke="#000000" stroke-width="0.1199" stroke-linecap="round" stroke-linejoin="round" fill="#DDDDDD"/>
        <path d="M 5.9873,33.8681 L 4.0944,33.8681 L 4.0944,31.8568 L 5.9873,31.8568 L 5.9873,33.8681 Z" stroke="#000000" stroke-width="0.1199" stroke-linecap="round" stroke-linejoin="round" fill="#7F7F7F"/>
        <path d="M 5.7910,33.8681 L 4.2767,33.8681 L 4.2767,32.0396 L 5.7910,32.0396 L 5.7910,33.8681 Z" stroke="#000000" stroke-width="0.1199" stroke-linecap="round" stroke-linejoin="round" fill="#A5A5A5"/>
        <path d="M 5.3423,33.0242 L 4.7253,33.0242 L 4.7253,32.0396 L 5.3423,32.0396 L 5.3423,33.0242 Z" stroke="#000000" stroke-width="0.1199" stroke-linecap="round" stroke-linejoin="round" fill="#7F7F7F"/>
        <path d="M 6.0294,28.4672 L 6.0154,28.4391 L 5.9873,28.4109 L 5.9733,28.3828 L 5.9452,28.3406 L 5.9312,28.3125 L 5.9032,28.2703 L 5.8892,28.2421 L 5.8611,28.1999 L 5.8471,28.1578 L 5.8190,28.1156 L 5.8050,28.0734 L 5.7770,28.0312 L 5.7630,27.9890 L 5.7349,27.9468 L 5.7209,27.8905 L 5.7069,27.8483 L 5.6788,27.7921 L 5.6648,27.7499 L 5.5526,27.2998 L 5.5526,27.2435 L 5.5386,27.1732 L 5.5386,27.1170 L 5.5246,27.0466 L 5.5246,0.4219 L 5.5106,0.4079 L 5.5106,0.3797 L 5.4965,0.3516 L 5.4965,0.3376 L 5.4685,0.2813 L 5.4685,0.2672 L 5.4545,0.2391 L 5.4405,0.2250 L 5.4264,0.1969 L 5.3283,0.0985 L 5.3002,0.0844 L 5.2862,0.0703 L 5.2582,0.0563 L 5.2442,0.0563 L 5.1881,0.0281 L 5.1740,0.0281 L 5.1460,0.0141 L 5.1180,0.0141 L 5.1039,0.0000 L 4.9357,0.0000 L 4.9217,0.0141 L 4.8936,0.0141 L 4.8656,0.0281 L 4.8515,0.0281 L 4.7955,0.0563 L 4.7814,0.0563 L 4.7534,0.0703 L 4.7394,0.0844 L 4.7113,0.0985 L 4.6833,0.1266 L 4.6693,0.1547 L 4.6412,0.1688 L 4.6132,0.1969 L 4.5992,0.2250 L 4.5851,0.2391 L 4.5711,0.2672 L 4.5711,0.2813 L 4.5431,0.3376 L 4.5431,0.3516 L 4.5290,0.3797 L 4.5290,0.4079 L 4.5150,0.4219 L 4.5150,27.0607 L 4.5010,27.1310 L 4.5010,27.2013 L 4.4730,27.3420 L 4.4589,27.3983 L 4.4449,27.4686 L 4.4169,27.5811 L 4.4028,27.6514 L 4.3748,27.7639 L 4.3468,27.8202 L 4.3327,27.8765 L 4.3047,27.9327 L 4.2907,27.9749 L 4.2626,28.0312 L 4.2486,28.0734 L 4.2206,28.1296 L 4.2065,28.1718 L 4.1505,28.2562 L 4.1364,28.2984 L 4.1084,28.3406 L 4.0944,28.3687 L 4.0663,28.4109 L 4.0523,28.4391 L 4.0243,28.4812 L 4.0102,28.5094 L 3.9822,28.5375 L 3.9682,28.5656 L 3.9541,28.5797 L 3.9541,28.5938 L 3.9401,28.6078 L 3.9401,28.6219 L 3.9261,28.6360 L 3.9261,28.6500 L 3.9121,28.6641 L 3.9121,28.6782 L 3.8981,28.6922 L 3.8981,28.7203 L 3.8840,28.7344 L 3.8840,28.7625 L 3.8700,28.7766 L 3.8700,28.8188 L 3.8560,28.8329 L 3.8560,28.8891 L 3.8420,28.9032 L 3.8420,28.9876 L 3.8280,29.0157 L 3.8280,31.2661 L 6.2257,31.2661 L 6.2257,28.9454 L 6.2117,28.9313 L 6.2117,28.8751 L 6.1976,28.8610 L 6.1976,28.8188 L 6.1836,28.8047 L 6.1836,28.7766 L 6.1696,28.7625 L 6.1696,28.7203 L 6.1416,28.6922 L 6.1416,28.6782 L 6.1275,28.6500 L 6.1275,28.6360 L 6.1135,28.6219 L 6.1135,28.6078 L 6.0995,28.5797 L 6.0855,28.5656 L 6.0855,28.5516 L 6.0714,28.5375 L 6.0574,28.5094 L 6.0434,28.4953 L 6.0434,28.4812 L 6.0294,28.4672 Z" stroke="#000000" stroke-width="0.1199" stroke-linecap="round" stroke-linejoin="round" fill="#EFEFEF"/>
        <path d="M 5.0478,0.0141 L 5.0058,0.0141 L 5.0058,31.2661 L 5.0478,31.2661 L 5.0478,0.0141 Z" stroke="#000000" stroke-width="0.1199" stroke-linecap="round" stroke-linejoin="round" fill="#000000"/>
        <path d="M 37.5504,42.8133 L 36.4567,42.9117 L 36.4567,43.9103 L 37.5504,43.9103 L 37.5504,42.8133 Z" stroke="#7F7F7F" stroke-width="0.1199" stroke-linecap="round" stroke-linejoin="round" fill="#7F7F7F"/>
        <path d="M 34.1852,43.0665 L 33.3158,43.1368 L 33.3158,43.9103 L 34.1852,43.9103 L 34.1852,43.0665 Z" stroke="#7F7F7F" stroke-width="0.1199" stroke-linecap="round" stroke-linejoin="round" fill="#7F7F7F"/>
        <path d="M 31.0583,43.3056 L 30.1889,43.3759 L 30.1889,43.9103 L 31.0583,43.9103 L 31.0583,43.3056 Z" stroke="#7F7F7F" stroke-width="0.1199" stroke-linecap="round" stroke-linejoin="round" fill="#7F7F7F"/>
        <path d="M 27.9174,43.5587 L 27.0481,43.6290 L 27.0481,43.9103 L 27.9174,43.9103 L 27.9174,43.5587 Z" stroke="#7F7F7F" stroke-width="0.1199" stroke-linecap="round" stroke-linejoin="round" fill="#7F7F7F"/>
        <path d="M 24.8466,43.3196 L 24.8326,43.3056 L 24.8186,43.3056 L 24.8186,43.2915 L 24.8046,43.2915 L 24.8046,43.2774 L 24.7905,43.2774 L 24.7905,43.2634 L 24.7765,43.2634 L 24.7485,43.2352 L 24.7345,43.2352 L 24.7204,43.2212 L 24.7064,43.2212 L 24.6924,43.2071 L 24.6644,43.2071 L 24.6644,43.1930 L 24.6363,43.1930 L 24.6223,43.1790 L 24.5802,43.1790 L 24.5802,43.1649 L 24.4400,43.1649 L 24.4260,43.1790 L 24.3979,43.1790 L 24.3839,43.1930 L 24.3559,43.1930 L 24.3419,43.2071 L 24.3278,43.2071 L 24.3138,43.2212 L 24.2998,43.2212 L 24.2717,43.2493 L 24.2577,43.2493 L 24.2577,43.2634 L 24.2437,43.2634 L 24.1876,43.3196 L 24.1876,43.3478 L 24.1736,43.3478 L 24.1736,43.3618 " stroke="#7F7F7F" stroke-width="0.1199" stroke-linecap="round" stroke-linejoin="round" fill="none"/>
        <path d="M 24.7345,43.4321 L 24.7204,43.4321 L 24.7204,43.4181 L 24.7064,43.4181 L 24.7064,43.4040 L 24.6784,43.4040 L 24.6784,43.3899 L 24.6503,43.3899 L 24.6363,43.3759 L 24.5942,43.3759 L 24.5802,43.3618 L 24.4400,43.3618 L 24.4260,43.3759 L 24.3839,43.3759 L 24.3699,43.3899 L 24.3419,43.3899 L 24.3419,43.4040 L 24.3278,43.4040 L 24.3278,43.4181 L 24.3138,43.4181 L 24.3138,43.4321 L 24.2998,43.4321 L 24.2998,43.4462 L 24.2858,43.4603 L 24.2858,43.4743 " stroke="#7F7F7F" stroke-width="0.1199" stroke-linecap="round" stroke-linejoin="round" fill="none"/>
        <path d="M 24.6503,43.5869 L 24.6503,43.5728 L 24.6363,43.5728 L 24.6363,43.5587 L 24.6083,43.5306 L 24.5942,43.5306 L 24.5942,43.5165 L 24.5662,43.5165 L 24.5662,43.5025 L 24.4540,43.5025 L 24.4540,43.5165 L 24.4260,43.5165 L 24.4260,43.5306 L 24.3979,43.5306 L 24.3979,43.5447 L 24.3839,43.5447 L 24.3839,43.5728 L 24.3699,43.5728 L 24.3699,43.5869 " stroke="#7F7F7F" stroke-width="0.1199" stroke-linecap="round" stroke-linejoin="round" fill="none"/>
        <path d="M 19.0837,43.3759 L 18.1582,43.3759 " stroke="#7F7F7F" stroke-width="0.1199" stroke-linecap="round" stroke-linejoin="round" fill="none"/>
        <path d="M 18.6210,43.2212 L 18.6210,43.3618 " stroke="#7F7F7F" stroke-width="0.1199" stroke-linecap="round" stroke-linejoin="round" fill="none"/>
        <path d="M 18.7331,42.9961 L 18.5088,42.9961 L 18.5088,43.2212 L 18.7331,43.2212 L 18.7331,42.9961 Z" stroke="#7F7F7F" stroke-width="0.1199" stroke-linecap="round" stroke-linejoin="round" fill="#7F7F7F"/>
        <path d="M 18.8874,43.3618 L 18.8874,43.5165 " stroke="#7F7F7F" stroke-width="0.1199" stroke-linecap="round" stroke-linejoin="round" fill="none"/>
        <path d="M 18.8874,43.3618 L 18.8874,43.5165 " stroke="#7F7F7F" stroke-width="0.1199" stroke-linecap="round" stroke-linejoin="round" fill="none"/>
        <path d="M 18.7892,43.5025 L 19.0136,43.5025 L 19.0136,43.7275 L 18.7892,43.7275 L 18.7892,43.5025 Z" stroke="#7F7F7F" stroke-width="0.1199" stroke-linecap="round" stroke-linejoin="round" fill="#7F7F7F"/>
        <path d="M 18.3265,43.3618 L 18.3265,43.5165 " stroke="#7F7F7F" stroke-width="0.1199" stroke-linecap="round" stroke-linejoin="round" fill="none"/>
        <path d="M 18.4527,43.5025 L 18.2283,43.5025 L 18.2283,43.7275 L 18.4527,43.7275 L 18.4527,43.5025 Z" stroke="#7F7F7F" stroke-width="0.1199" stroke-linecap="round" stroke-linejoin="round" fill="#7F7F7F"/>
        <path d="M 12.9141,43.1930 L 12.9281,43.1930 L 12.9281,43.2071 L 12.9421,43.2071 L 12.9561,43.2212 L 12.9702,43.2212 L 12.9702,43.2352 L 12.9842,43.2352 L 12.9842,43.2493 L 12.9982,43.2634 L 12.9982,43.2774 L 13.0122,43.2774 L 13.0122,43.2915 L 13.0263,43.2915 L 13.0263,43.3337 L 13.0403,43.3478 L 13.0403,43.4603 L 13.0263,43.4743 L 13.0263,43.5025 L 13.0122,43.5165 L 13.0122,43.5306 L 12.9842,43.5587 L 12.9842,43.5728 L 12.9702,43.5728 L 12.9702,43.5869 L 12.9561,43.5869 L 12.9281,43.6150 L 12.9141,43.6150 L 12.9001,43.6290 L 12.8720,43.6290 L 12.8580,43.6431 L 12.7458,43.6431 L 12.7318,43.6290 L 12.7038,43.6290 L 12.6897,43.6150 L 12.6757,43.6150 L 12.6477,43.5869 L 12.6336,43.5869 L 12.6336,43.5728 L 12.6196,43.5728 L 12.6196,43.5587 L 12.5916,43.5306 L 12.5916,43.5165 L 12.5776,43.5025 L 12.5776,43.4743 L 12.5635,43.4603 L 12.5635,43.3478 L 12.5776,43.3478 L 12.5776,43.3056 L 12.5916,43.3056 L 12.5916,43.2774 L 12.6056,43.2774 L 12.6056,43.2634 L 12.6617,43.2071 L 12.6617,43.2212 L 12.6757,43.2212 L 12.6757,43.2352 L 12.6897,43.2352 L 12.6897,43.2493 L 12.6757,43.2493 L 12.6757,43.2634 L 12.6617,43.2634 L 12.6617,43.2774 L 12.6477,43.2774 L 12.6477,43.2915 L 12.6336,43.3056 L 12.6336,43.3196 L 12.6196,43.3196 L 12.6196,43.3478 L 12.6056,43.3618 L 12.6056,43.4603 L 12.6196,43.4603 L 12.6196,43.4884 L 12.6336,43.5025 L 12.6336,43.5165 L 12.6477,43.5165 L 12.6477,43.5306 L 12.6757,43.5587 L 12.6897,43.5587 L 12.6897,43.5728 L 12.7038,43.5728 L 12.7178,43.5869 L 12.7458,43.5869 L 12.7458,43.6009 L 12.8580,43.6009 L 12.8580,43.5869 L 12.8860,43.5869 L 12.9001,43.5728 L 12.9141,43.5728 L 12.9141,43.5587 L 12.9281,43.5587 L 12.9561,43.5306 L 12.9561,43.5165 L 12.9702,43.5165 L 12.9702,43.5025 L 12.9842,43.4884 L 12.9842,43.4603 L 12.9982,43.4603 L 12.9982,43.3618 L 12.9842,43.3478 L 12.9842,43.3196 L 12.9702,43.3196 L 12.9702,43.2915 L 12.9561,43.2915 L 12.9561,43.2774 L 12.9421,43.2774 L 12.9421,43.2634 L 12.9281,43.2634 L 12.9281,43.2493 L 12.9141,43.2493 L 12.9141,43.2352 L 12.9001,43.2352 L 12.9001,43.2212 L 12.9141,43.2212 L 12.9141,43.2071 L 12.9141,43.1930 Z" stroke="#7F7F7F" stroke-width="0.1199" stroke-linecap="round" stroke-linejoin="round" fill="#7F7F7F"/>
        <path d="M 12.8159,43.0805 L 12.7598,43.0805 L 12.7598,43.4181 L 12.8159,43.4181 L 12.8159,43.0805 Z" stroke="#7F7F7F" stroke-width="0.1199" stroke-linecap="round" stroke-linejoin="round" fill="#7F7F7F"/>
        <ellipse cx="15.5432" cy="43.3056" rx="0.1613" ry="0.1688" fill="#7F7F7F" stroke="#000000" stroke-width="0.1199" stroke-linecap="round" stroke-linejoin="round"/>
        <ellipse cx="15.5432" cy="43.3056" rx="0.1613" ry="0.1688" fill="none" stroke="#7F7F7F" stroke-width="0.1199" stroke-linecap="round" stroke-linejoin="round"/>
        <path d="M 15.6483,43.0665 L 15.5642,43.0665 L 15.5642,43.6572 L 15.6483,43.6572 L 15.6483,43.0665 Z" stroke="#7F7F7F" stroke-width="0.1199" stroke-linecap="round" stroke-linejoin="round" fill="#7F7F7F"/>
        <path d="M 15.4240,43.1227 L 15.3679,43.1790 L 15.7886,43.6009 L 15.8446,43.5447 L 15.4240,43.1227 Z" stroke="#7F7F7F" stroke-width="0.1199" stroke-linecap="round" stroke-linejoin="round" fill="#7F7F7F"/>
        <path d="M 15.3118,43.3196 L 15.3118,43.4040 L 15.9007,43.4040 L 15.9007,43.3196 L 15.3118,43.3196 Z" stroke="#7F7F7F" stroke-width="0.1199" stroke-linecap="round" stroke-linejoin="round" fill="#7F7F7F"/>
        <path d="M 15.3679,43.5447 L 15.4240,43.6009 L 15.8446,43.1790 L 15.7886,43.1227 L 15.3679,43.5447 Z" stroke="#7F7F7F" stroke-width="0.1199" stroke-linecap="round" stroke-linejoin="round" fill="#7F7F7F"/>
        <ellipse cx="15.5432" cy="43.3056" rx="0.0491" ry="0.0563" fill="#EFEFEF" stroke="#000000" stroke-width="0.1199" stroke-linecap="round" stroke-linejoin="round"/>
        <ellipse cx="15.5432" cy="43.3056" rx="0.0491" ry="0.0563" fill="none" stroke="#EFEFEF" stroke-width="0.1199" stroke-linecap="round" stroke-linejoin="round"/>
        <path d="M 21.5655,43.2915 L 21.3552,43.7275 L 21.4534,43.7275 L 21.6637,43.5306 L 21.6497,43.5306 L 21.8460,43.7275 L 21.9581,43.7275 L 21.7198,43.2915 L 21.5655,43.2915 Z" stroke="#7F7F7F" stroke-width="0.1199" stroke-linecap="round" stroke-linejoin="round" fill="#7F7F7F"/>
        <ellipse cx="21.5866" cy="43.1016" rx="0.0491" ry="0.0492" fill="#7F7F7F" stroke="#000000" stroke-width="0.1199" stroke-linecap="round" stroke-linejoin="round"/>
        <ellipse cx="21.5866" cy="43.1016" rx="0.0491" ry="0.0492" fill="none" stroke="#7F7F7F" stroke-width="0.1199" stroke-linecap="round" stroke-linejoin="round"/>
        <path d="M 14.1480,44.5011 L 12.0447,44.5011 L 12.0447,44.8949 L 14.1480,44.8949 L 14.1480,44.5011 Z" stroke="#494949" stroke-width="0.1199" stroke-linecap="round" stroke-linejoin="round" fill="#494949"/>
        <path d="M 17.2048,44.5011 L 15.1015,44.5011 L 15.1015,44.8949 L 17.2048,44.8949 L 17.2048,44.5011 Z" stroke="#494949" stroke-width="0.1199" stroke-linecap="round" stroke-linejoin="round" fill="#494949"/>
        <path d="M 20.2755,44.5011 L 18.1723,44.5011 L 18.1723,44.8949 L 20.2755,44.8949 L 20.2755,44.5011 Z" stroke="#494949" stroke-width="0.1199" stroke-linecap="round" stroke-linejoin="round" fill="#494949"/>
        <path d="M 28.9130,44.5011 L 21.2290,44.5011 L 21.2290,44.8949 L 28.9130,44.8949 L 28.9130,44.5011 Z" stroke="#494949" stroke-width="0.1199" stroke-linecap="round" stroke-linejoin="round" fill="#494949"/>
        <path d="M 31.9697,44.5011 L 29.8664,44.5011 L 29.8664,44.8949 L 31.9697,44.8949 L 31.9697,44.5011 Z" stroke="#494949" stroke-width="0.1199" stroke-linecap="round" stroke-linejoin="round" fill="#494949"/>
        <path d="M 35.0405,44.5011 L 32.9372,44.5011 L 32.9372,44.8949 L 35.0405,44.8949 L 35.0405,44.5011 Z" stroke="#494949" stroke-width="0.1199" stroke-linecap="round" stroke-linejoin="round" fill="#494949"/>
        <path d="M 38.0972,44.5011 L 35.9940,44.5011 L 35.9940,44.8949 L 38.0972,44.8949 L 38.0972,44.5011 Z" stroke="#494949" stroke-width="0.1199" stroke-linecap="round" stroke-linejoin="round" fill="#494949"/>
        <path d="M 22.0142,43.3337 L 22.0283,43.3337 L 22.0283,43.3196 L 22.0423,43.3196 L 22.0423,43.3056 L 22.0563,43.2915 L 22.0563,43.2774 L 22.0703,43.2774 L 22.0703,43.2634 L 22.0843,43.2493 L 22.0843,43.2212 L 22.0984,43.2071 L 22.0984,43.1227 L 22.0843,43.1086 L 22.0843,43.0805 L 22.0703,43.0665 L 22.0703,43.0524 L 22.0563,43.0524 L 22.0563,43.0383 L 22.0423,43.0383 L 22.0423,43.0243 L 22.0283,43.0243 L 22.0283,43.0102 L 22.0142,43.0102 L 22.0002,42.9961 L 21.9862,42.9961 " stroke="#7F7F7F" stroke-width="0.1199" stroke-linecap="round" stroke-linejoin="round" fill="none"/>
        <path d="M 21.9441,43.2774 L 21.9581,43.2774 L 21.9581,43.2634 L 21.9722,43.2634 L 21.9722,43.2352 L 21.9862,43.2352 L 21.9862,43.0946 L 21.9722,43.0946 L 21.9722,43.0665 L 21.9581,43.0665 L 21.9581,43.0524 L 21.9441,43.0524 L 21.9301,43.0524 " stroke="#7F7F7F" stroke-width="0.1199" stroke-linecap="round" stroke-linejoin="round" fill="none"/>
        <path d="M 21.8600,43.2352 L 21.8740,43.2352 L 21.8740,43.2212 L 21.9021,43.2212 L 21.9021,43.2071 L 21.9161,43.2071 L 21.9161,43.1227 L 21.9021,43.1227 L 21.9021,43.1086 L 21.8880,43.1086 L 21.8880,43.0946 L 21.8740,43.0946 L 21.8600,43.0946 " stroke="#7F7F7F" stroke-width="0.1199" stroke-linecap="round" stroke-linejoin="round" fill="none"/>
        <path d="M 21.2991,43.3337 L 21.2851,43.3337 L 21.2851,43.3196 L 21.2711,43.3196 L 21.2711,43.3056 L 21.2571,43.2915 L 21.2571,43.2774 L 21.2430,43.2774 L 21.2430,43.2634 L 21.2290,43.2493 L 21.2290,43.2212 L 21.2150,43.2071 L 21.2150,43.1227 L 21.2290,43.1086 L 21.2290,43.0805 L 21.2430,43.0665 L 21.2430,43.0524 L 21.2571,43.0524 L 21.2571,43.0383 L 21.2711,43.0383 L 21.2711,43.0243 L 21.2851,43.0243 L 21.2851,43.0102 L 21.2991,43.0102 L 21.3131,42.9961 L 21.3272,42.9961 " stroke="#7F7F7F" stroke-width="0.1199" stroke-linecap="round" stroke-linejoin="round" fill="none"/>
        <path d="M 21.3692,43.2774 L 21.3552,43.2774 L 21.3552,43.2634 L 21.3412,43.2634 L 21.3412,43.2352 L 21.3272,43.2352 L 21.3272,43.0946 L 21.3412,43.0946 L 21.3412,43.0665 L 21.3552,43.0665 L 21.3552,43.0524 L 21.3692,43.0524 L 21.3833,43.0524 " stroke="#7F7F7F" stroke-width="0.1199" stroke-linecap="round" stroke-linejoin="round" fill="none"/>
        <path d="M 21.4534,43.2352 L 21.4393,43.2352 L 21.4393,43.2212 L 21.4113,43.2212 L 21.4113,43.2071 L 21.3973,43.2071 L 21.3973,43.1227 L 21.4113,43.1227 L 21.4113,43.1086 L 21.4253,43.1086 L 21.4253,43.0946 L 21.4393,43.0946 L 21.4534,43.0946 " stroke="#7F7F7F" stroke-width="0.1199" stroke-linecap="round" stroke-linejoin="round" fill="none"/>
        <path d="M 16.9475,56.5142 L 16.9195,56.5142 L 16.9055,56.5004 L 16.8915,56.5004 L 16.8495,56.4588 L 16.8495,56.4450 L 16.8354,56.4311 L 16.8354,54.8248 L 16.8495,54.8109 L 16.8495,54.7971 L 16.8635,54.7832 L 16.8775,54.7832 L 16.8775,54.7694 L 16.8915,54.7555 L 16.9055,54.7555 L 16.9195,54.7417 L 18.8243,54.7417 L 18.8383,54.7555 L 18.8523,54.7555 L 18.8944,54.7971 L 18.8944,54.8109 L 18.9084,54.8248 L 18.9084,55.1433 L 18.8944,55.1433 L 18.8944,55.1294 L 18.8804,55.1294 L 18.8804,55.1156 L 18.8663,55.1156 L 18.8663,55.1017 L 18.8383,55.1017 L 18.8383,55.0879 L 17.2977,55.0879 L 17.2977,55.1017 L 17.2696,55.1017 L 17.2696,55.1156 L 17.2556,55.1156 L 17.2556,55.1433 L 17.2416,55.1433 L 17.2416,56.4588 L 17.2556,56.4588 L 17.2556,56.4865 L 17.2696,56.4865 L 17.2696,56.5004 L 17.2836,56.5004 L 17.2836,56.5142 L 16.9615,56.5142 L 16.9475,56.5142 Z" stroke="#7F7F7F" stroke-width="0.1199" stroke-linecap="round" stroke-linejoin="round" fill="#7F7F7F"/>
        <path d="M 18.7683,55.4895 L 17.3817,55.4895 L 17.3817,55.4756 L 17.3537,55.4756 L 17.3537,55.4618 L 17.3397,55.4618 L 17.3397,55.4341 L 17.3257,55.4341 L 17.3257,55.7803 L 17.3397,55.7803 L 17.3397,55.8080 L 17.3537,55.8080 L 17.3537,55.8218 L 17.3817,55.8218 L 17.3817,55.8357 L 18.7963,55.8357 L 18.8243,55.8080 L 18.8383,55.8080 L 18.8663,55.7803 L 18.8663,55.7664 L 18.8804,55.7526 L 18.8804,55.7387 L 18.8944,55.7249 L 18.8944,55.6972 L 18.9084,55.6833 L 18.9084,55.6418 L 18.8944,55.6280 L 18.8944,55.5864 L 18.8663,55.5587 L 18.8663,55.5449 L 18.8523,55.5310 L 18.8383,55.5310 L 18.8383,55.5172 L 18.8243,55.5172 L 18.8103,55.5033 L 18.7963,55.5033 L 18.7823,55.4895 L 18.7683,55.4895 Z" stroke="#7F7F7F" stroke-width="0.1199" stroke-linecap="round" stroke-linejoin="round" fill="#7F7F7F"/>
        <path d="M 22.0037,55.8357 L 21.9757,55.8357 L 21.9757,55.8218 L 21.9477,55.8218 L 21.9477,55.8080 L 21.9337,55.8080 L 21.9337,55.7803 L 21.9197,55.7803 L 21.9197,55.4341 L 21.9337,55.4341 L 21.9337,55.4618 L 21.9477,55.4618 L 21.9477,55.4756 L 21.9757,55.4756 L 21.9757,55.4895 L 23.0962,55.4895 L 23.0962,55.0879 L 21.8917,55.0879 L 21.8917,55.1017 L 21.8637,55.1017 L 21.8637,55.1156 L 21.8497,55.1156 L 21.8497,55.1433 L 21.8357,55.1433 L 21.8357,56.4588 L 21.8497,56.4588 L 21.8497,56.4865 L 21.8637,56.4865 L 21.8637,56.5004 L 21.8777,56.5004 L 21.8777,56.5142 L 21.5135,56.5142 L 21.4995,56.5004 L 21.4855,56.5004 L 21.4435,56.4588 L 21.4435,56.4450 L 21.4295,56.4311 L 21.4295,54.8248 L 21.4435,54.8109 L 21.4435,54.7971 L 21.4575,54.7832 L 21.4715,54.7832 L 21.4715,54.7694 L 21.4855,54.7555 L 21.4995,54.7555 L 21.5135,54.7417 L 23.4184,54.7417 L 23.4324,54.7555 L 23.4464,54.7555 L 23.4884,54.7971 L 23.4884,54.8109 L 23.5024,54.8248 L 23.5024,55.6972 L 23.4884,55.7110 L 23.4884,55.7387 L 23.4744,55.7387 L 23.4744,55.7526 L 23.4604,55.7664 L 23.4604,55.7803 L 23.4464,55.7803 L 23.4464,55.7941 L 23.4324,55.7941 L 23.4324,55.8080 L 23.4184,55.8080 L 23.4184,55.8218 L 23.4044,55.8218 L 23.3904,55.8357 L 23.4044,55.8495 L 23.4184,55.8495 L 23.4184,55.8634 L 23.4324,55.8634 L 23.4324,55.8772 L 23.4464,55.8772 L 23.4464,55.8911 L 23.4604,55.8911 L 23.4604,55.9049 L 23.4744,55.9188 L 23.4744,55.9326 L 23.4884,55.9326 L 23.4884,55.9603 L 23.5024,55.9742 L 23.5024,56.4588 L 23.5164,56.4588 L 23.5164,56.4865 L 23.5304,56.4865 L 23.5304,56.5004 L 23.5444,56.5004 L 23.5444,56.5142 L 23.1803,56.5142 L 23.1663,56.5004 L 23.1522,56.5004 L 23.1102,56.4588 L 23.1102,56.4450 L 23.0962,56.4311 L 23.0962,55.8357 L 22.0177,55.8357 L 22.0037,55.8357 Z" stroke="#7F7F7F" stroke-width="0.1199" stroke-linecap="round" stroke-linejoin="round" fill="#7F7F7F"/>
        <path d="M 24.2307,55.0879 L 23.8105,55.0879 L 23.7965,55.0740 L 23.7825,55.0740 L 23.7405,55.0325 L 23.7405,55.0186 L 23.7265,55.0048 L 23.7265,54.8248 L 23.7405,54.8109 L 23.7405,54.7971 L 23.7545,54.7832 L 23.7685,54.7832 L 23.7685,54.7694 L 23.7825,54.7555 L 23.7965,54.7555 L 23.8105,54.7417 L 25.7154,54.7417 L 25.7294,54.7555 L 25.7434,54.7555 L 25.7854,54.7971 L 25.7854,54.8109 L 25.7994,54.8248 L 25.7994,55.1433 L 25.7854,55.1433 L 25.7854,55.1294 L 25.7714,55.1294 L 25.7714,55.1156 L 25.7574,55.1156 L 25.7574,55.1017 L 25.7294,55.1017 L 25.7294,55.0879 L 24.6929,55.0879 L 24.6929,55.1017 L 24.6649,55.1017 L 24.6649,55.1156 L 24.6509,55.1156 L 24.6509,55.1433 L 24.6369,55.1433 L 24.6369,56.4588 L 24.6509,56.4588 L 24.6509,56.4865 L 24.6649,56.4865 L 24.6649,56.5004 L 24.6789,56.5004 L 24.6789,56.5142 L 24.3148,56.5142 L 24.3008,56.5004 L 24.2867,56.5004 L 24.2447,56.4588 L 24.2447,56.4450 L 24.2307,56.4311 L 24.2307,55.1294 L 24.2307,55.0879 Z" stroke="#7F7F7F" stroke-width="0.1199" stroke-linecap="round" stroke-linejoin="round" fill="#7F7F7F"/>
        <path d="M 26.4297,56.4173 L 26.4297,56.4588 L 26.4437,56.4588 L 26.4437,56.4865 L 26.4577,56.4865 L 26.4577,56.5004 L 26.4717,56.5004 L 26.4717,56.5142 L 26.1076,56.5142 L 26.0935,56.5004 L 26.0795,56.5004 L 26.0375,56.4588 L 26.0375,56.4450 L 26.0235,56.4311 L 26.0235,54.7971 L 26.0095,54.7971 L 26.0095,54.7694 L 25.9955,54.7694 L 25.9955,54.7555 L 25.9815,54.7555 L 25.9815,54.7417 L 26.3457,54.7417 L 26.3597,54.7555 L 26.3737,54.7555 L 26.4157,54.7971 L 26.4157,54.8109 L 26.4297,54.8248 L 26.4297,56.4035 L 26.4297,56.4173 Z" stroke="#7F7F7F" stroke-width="0.1199" stroke-linecap="round" stroke-linejoin="round" fill="#7F7F7F"/>
        <path d="M 28.4186,55.0879 L 27.2140,55.0879 L 27.2140,55.1017 L 27.1860,55.1017 L 27.1860,55.1156 L 27.1720,55.1156 L 27.1720,55.1433 L 27.1580,55.1433 L 27.1580,56.4588 L 27.1720,56.4588 L 27.1720,56.4865 L 27.1860,56.4865 L 27.1860,56.5004 L 27.2000,56.5004 L 27.2000,56.5142 L 26.8359,56.5142 L 26.8219,56.5004 L 26.8079,56.5004 L 26.7658,56.4588 L 26.7658,56.4450 L 26.7518,56.4311 L 26.7518,54.8248 L 26.7658,54.8109 L 26.7658,54.7971 L 26.7799,54.7832 L 26.7939,54.7832 L 26.7939,54.7694 L 26.8079,54.7555 L 26.8219,54.7555 L 26.8359,54.7417 L 28.7407,54.7417 L 28.7547,54.7555 L 28.7687,54.7555 L 28.8107,54.7971 L 28.8107,54.8109 L 28.8248,54.8248 L 28.8248,56.4588 L 28.8388,56.4588 L 28.8388,56.4865 L 28.8528,56.4865 L 28.8528,56.5004 L 28.8668,56.5004 L 28.8668,56.5142 L 28.5026,56.5142 L 28.4886,56.5004 L 28.4746,56.5004 L 28.4326,56.4588 L 28.4326,56.4450 L 28.4186,56.4311 L 28.4186,55.1294 L 28.4186,55.0879 Z" stroke="#7F7F7F" stroke-width="0.1199" stroke-linecap="round" stroke-linejoin="round" fill="#7F7F7F"/>
        <path d="M 30.8837,55.4895 L 29.5951,55.4895 L 29.5811,55.4756 L 29.5671,55.4756 L 29.5671,55.4618 L 29.5531,55.4618 L 29.5531,55.4341 L 29.5391,55.4341 L 29.5391,55.7803 L 29.5531,55.7803 L 29.5531,55.8080 L 29.5671,55.8080 L 29.5671,55.8218 L 29.5811,55.8218 L 29.5951,55.8357 L 30.8977,55.8357 L 30.9257,55.8080 L 30.9397,55.8080 L 30.9677,55.7803 L 30.9677,55.7664 L 30.9817,55.7526 L 30.9817,55.7387 L 30.9957,55.7249 L 30.9957,55.6972 L 31.0097,55.6833 L 31.0097,55.6280 L 30.9957,55.6141 L 30.9957,55.5726 L 30.9817,55.5726 L 30.9817,55.5587 L 30.9397,55.5172 L 30.9257,55.5172 L 30.9257,55.5033 L 30.9117,55.5033 L 30.8977,55.4895 L 30.8837,55.4895 Z" stroke="#7F7F7F" stroke-width="0.1199" stroke-linecap="round" stroke-linejoin="round" fill="#7F7F7F"/>
        <path d="M 31.8501,55.0879 L 31.4299,55.0879 L 31.4159,55.0740 L 31.4019,55.0740 L 31.3599,55.0325 L 31.3599,55.0186 L 31.3459,55.0048 L 31.3459,54.8248 L 31.3599,54.8109 L 31.3599,54.7971 L 31.3739,54.7832 L 31.3879,54.7832 L 31.3879,54.7694 L 31.4019,54.7555 L 31.4159,54.7555 L 31.4299,54.7417 L 33.3348,54.7417 L 33.3488,54.7555 L 33.3628,54.7555 L 33.4048,54.7971 L 33.4048,54.8109 L 33.4188,54.8248 L 33.4188,55.1433 L 33.4048,55.1433 L 33.4048,55.1294 L 33.3908,55.1294 L 33.3908,55.1156 L 33.3768,55.1156 L 33.3768,55.1017 L 33.3488,55.1017 L 33.3488,55.0879 L 32.3123,55.0879 L 32.3123,55.1017 L 32.2843,55.1017 L 32.2843,55.1156 L 32.2703,55.1156 L 32.2703,55.1433 L 32.2563,55.1433 L 32.2563,56.4588 L 32.2703,56.4588 L 32.2703,56.4865 L 32.2843,56.4865 L 32.2843,56.5004 L 32.2983,56.5004 L 32.2983,56.5142 L 31.9341,56.5142 L 31.9201,56.5004 L 31.9061,56.5004 L 31.8641,56.4588 L 31.8641,56.4450 L 31.8501,56.4311 L 31.8501,55.1294 L 31.8501,55.0879 Z" stroke="#7F7F7F" stroke-width="0.1199" stroke-linecap="round" stroke-linejoin="round" fill="#7F7F7F"/>
        <path d="M 31.0237,56.1680 L 31.0517,56.1680 L 31.0517,56.1542 L 31.0798,56.1542 L 31.0798,56.1403 L 31.0938,56.1403 L 31.0938,56.1265 L 31.1078,56.1265 L 31.1078,56.1126 L 31.1218,56.1126 L 31.1218,56.4311 L 31.1078,56.4450 L 31.1078,56.4588 L 31.0938,56.4727 L 31.0938,56.4865 L 31.0798,56.4865 L 31.0657,56.5004 L 31.0517,56.5004 L 31.0377,56.5142 L 29.1329,56.5142 L 29.1189,56.5004 L 29.1049,56.5004 L 29.0629,56.4588 L 29.0629,56.4450 L 29.0489,56.4311 L 29.0489,54.8248 L 29.0629,54.8109 L 29.0629,54.7971 L 29.0769,54.7832 L 29.0909,54.7832 L 29.0909,54.7694 L 29.1049,54.7555 L 29.1189,54.7555 L 29.1329,54.7417 L 31.0377,54.7417 L 31.0517,54.7555 L 31.0657,54.7555 L 31.1078,54.7971 L 31.1078,54.8109 L 31.1218,54.8248 L 31.1218,55.1433 L 31.1078,55.1433 L 31.1078,55.1294 L 31.0938,55.1294 L 31.0938,55.1156 L 31.0798,55.1156 L 31.0798,55.1017 L 31.0517,55.1017 L 31.0517,55.0879 L 29.5111,55.0879 L 29.5111,55.1017 L 29.4830,55.1017 L 29.4830,55.1156 L 29.4690,55.1156 L 29.4690,55.1433 L 29.4550,55.1433 L 29.4550,56.1680 L 31.0097,56.1680 L 31.0237,56.1680 Z" stroke="#7F7F7F" stroke-width="0.1199" stroke-linecap="round" stroke-linejoin="round" fill="#7F7F7F"/>
        <path d="M 19.8328,56.0019 L 19.8328,56.5142 L 20.5051,56.5142 L 20.5051,56.0019 L 19.8328,56.0019 Z" stroke="#FF0000" stroke-width="0.1199" stroke-linecap="round" stroke-linejoin="round" fill="#FF0000"/>
        <path d="M 19.1325,55.3787 L 19.7067,55.3787 L 19.7067,55.8772 L 19.1325,55.8772 L 19.1325,55.3787 Z" stroke="#FF0000" stroke-width="0.1199" stroke-linecap="round" stroke-linejoin="round" fill="#FF0000"/>
        <path d="M 20.6311,56.0019 L 20.6311,56.5142 L 20.8412,56.5142 L 20.8552,56.5004 L 20.9113,56.5004 L 20.9253,56.4865 L 20.9533,56.4865 L 20.9813,56.4727 L 20.9953,56.4588 L 21.0233,56.4450 L 21.0513,56.4173 L 21.0793,56.4035 L 21.0933,56.3896 L 21.1073,56.3619 L 21.1213,56.3481 L 21.1774,56.2373 L 21.1774,56.2096 L 21.1914,56.1680 L 21.1914,56.1265 L 21.2054,56.0849 L 21.2054,56.0019 L 20.6451,56.0019 L 20.6311,56.0019 Z" stroke="#FF0000" stroke-width="0.1199" stroke-linecap="round" stroke-linejoin="round" fill="#FF0000"/>
        <path d="M 20.6311,55.3787 L 21.2054,55.3787 L 21.2054,55.8772 L 20.6311,55.8772 L 20.6311,55.3787 Z" stroke="#FF0000" stroke-width="0.1199" stroke-linecap="round" stroke-linejoin="round" fill="#FF0000"/>
        <path d="M 19.7067,56.0019 L 19.7067,56.5142 L 19.4966,56.5142 L 19.4826,56.5004 L 19.4266,56.5004 L 19.4126,56.4865 L 19.3846,56.4865 L 19.3566,56.4727 L 19.3426,56.4588 L 19.3145,56.4450 L 19.2865,56.4173 L 19.2585,56.4035 L 19.2445,56.3896 L 19.2305,56.3619 L 19.2165,56.3481 L 19.1605,56.2373 L 19.1605,56.2096 L 19.1465,56.1680 L 19.1465,56.1265 L 19.1325,56.0849 L 19.1325,56.0019 L 19.6927,56.0019 L 19.7067,56.0019 Z" stroke="#FF0000" stroke-width="0.1199" stroke-linecap="round" stroke-linejoin="round" fill="#FF0000"/>
        <path d="M 19.8328,54.7417 L 19.8328,55.2541 L 20.5051,55.2541 L 20.5051,54.7417 L 19.8328,54.7417 Z" stroke="#FF0000" stroke-width="0.1199" stroke-linecap="round" stroke-linejoin="round" fill="#FF0000"/>
        <path d="M 20.6311,55.2541 L 20.6311,54.7417 L 20.8412,54.7417 L 20.8552,54.7555 L 20.9113,54.7555 L 20.9253,54.7694 L 20.9533,54.7694 L 20.9813,54.7832 L 20.9953,54.7971 L 21.0233,54.8109 L 21.0513,54.8386 L 21.0793,54.8525 L 21.0933,54.8663 L 21.1073,54.8940 L 21.1213,54.9079 L 21.1774,55.0186 L 21.1774,55.0463 L 21.1914,55.0879 L 21.1914,55.1294 L 21.2054,55.1710 L 21.2054,55.2541 L 20.6451,55.2541 L 20.6311,55.2541 Z" stroke="#FF0000" stroke-width="0.1199" stroke-linecap="round" stroke-linejoin="round" fill="#FF0000"/>
        <path d="M 19.7067,55.2541 L 19.7067,54.7417 L 19.4966,54.7417 L 19.4826,54.7555 L 19.4266,54.7555 L 19.4126,54.7694 L 19.3846,54.7694 L 19.3566,54.7832 L 19.3426,54.7971 L 19.3145,54.8109 L 19.2865,54.8386 L 19.2585,54.8525 L 19.2445,54.8663 L 19.2305,54.8940 L 19.2165,54.9079 L 19.1605,55.0186 L 19.1605,55.0463 L 19.1465,55.0879 L 19.1465,55.1294 L 19.1325,55.1710 L 19.1325,55.2541 L 19.6927,55.2541 L 19.7067,55.2541 Z" stroke="#FF0000" stroke-width="0.1199" stroke-linecap="round" stroke-linejoin="round" fill="#FF0000"/>
        <text font-family="Symbol" fill="#7F7F7F" style="white-space:pre;" text-anchor="start" x="32.6661" y="56.5032" font-size="0.5496"><![CDATA[]]></text>
        <text font-family="Arial" fill="#808080" style="white-space:pre;" font-weight="400" text-anchor="start" x="36.4745" y="64.9011" font-size="0.1548"><![CDATA[FEX-40D]]></text>
      </g>
      <!--emf-blob end-->
    </g>
  </g>
</svg>
