<svg xmlns="http://www.w3.org/2000/svg" xmlns:xlink="http://www.w3.org/1999/xlink" version="1.1" width="3.4448000000" height="2.4908000000" viewBox="0 0 62.0067 44.8373">
  <title><![CDATA[FDC-100G (F)]]></title>
  <g transform=" scale(4.000000) ">
    <!--converted by libvisio2svg-->
    <g transform=" translate(0.375000,0.375000) ">
      <!--emf-blob start-->
      <g transform="translate(-0.0000, -0.0000)">
        <path d="M 61.2005,0.2226 L 61.2005,0.1809 L 61.1864,0.1391 L 61.1724,0.1113 L 61.1443,0.0835 L 61.1161,0.0556 L 61.0880,0.0417 L 61.0459,0.0278 L 61.0037,0.0278 L 0.2249,0.0278 L 0.1827,0.0278 L 0.1406,0.0417 L 0.1124,0.0556 L 0.0843,0.0835 L 0.0562,0.1113 L 0.0422,0.1391 L 0.0281,0.1809 L 0.0281,0.2226 L 0.0281,10.5174 L 0.0281,10.5591 L 0.0422,10.6008 L 0.0562,10.6287 L 0.0843,10.6565 L 0.1124,10.6843 L 0.1406,10.6982 L 0.1827,10.7121 L 0.2249,10.7121 L 61.0037,10.7121 L 61.0459,10.7121 L 61.0880,10.6982 L 61.1161,10.6843 L 61.1443,10.6565 L 61.1724,10.6287 L 61.1864,10.6008 L 61.2005,10.5591 L 61.2005,10.5174 L 61.2005,0.2226 Z" stroke="#000000" stroke-width="0.1196" stroke-linecap="round" stroke-linejoin="round" fill="#EDEDED"/>
        <path d="M 0.8434,0.9460 L 0.8293,0.9460 L 0.8153,0.9460 L 0.8012,0.9460 L 0.7871,0.9460 L 0.7731,0.9599 L 0.7590,0.9599 L 0.7450,0.9599 L 0.7309,0.9738 L 0.7169,0.9738 L 0.7169,0.9877 L 0.7028,0.9877 L 0.6888,0.9877 L 0.6888,1.0017 L 0.6747,1.0017 L 0.6606,1.0156 L 0.6606,1.0295 L 0.6466,1.0295 L 0.6466,1.0434 L 0.6325,1.0434 L 0.6325,1.0573 L 0.6185,1.0712 L 0.6044,1.0851 L 0.6044,1.0990 L 0.6044,1.1129 L 0.5904,1.1269 L 0.5904,1.1408 L 0.5904,1.1547 L 0.5904,1.1686 L 0.5904,1.1964 L 0.5904,1.2660 L 0.5904,1.3773 L 0.5904,1.5303 L 0.5904,1.7251 L 0.5904,1.9477 L 0.5904,2.1981 L 0.5904,2.4763 L 0.5904,2.7824 L 0.5904,3.1163 L 0.5904,3.4641 L 0.5904,3.8258 L 0.5904,4.2014 L 0.5904,4.5909 L 0.5904,4.9804 L 0.5904,5.3700 L 0.5904,5.7595 L 0.5904,6.1490 L 0.5904,6.5386 L 0.5904,6.9142 L 0.5904,7.2759 L 0.5904,7.6237 L 0.5904,7.9576 L 0.5904,8.2636 L 0.5904,8.5419 L 0.5904,8.7923 L 0.5904,9.0149 L 0.5904,9.2097 L 0.5904,9.3627 L 0.5904,9.4740 L 0.5904,9.5435 L 0.5904,9.5714 L 0.5904,9.5853 L 0.5904,9.5992 L 0.5904,9.6131 L 0.6044,9.6270 L 0.6044,9.6409 L 0.6044,9.6548 L 0.6185,9.6687 L 0.6325,9.6827 L 0.6325,9.6966 L 0.6466,9.6966 L 0.6466,9.7105 L 0.6606,9.7105 L 0.6606,9.7244 L 0.6747,9.7383 L 0.6888,9.7383 L 0.6888,9.7522 L 0.7028,9.7522 L 0.7169,9.7522 L 0.7169,9.7661 L 0.7309,9.7661 L 0.7450,9.7800 L 0.7590,9.7800 L 0.7731,9.7800 L 0.7871,9.7939 L 0.8012,9.7939 L 0.8153,9.7939 L 0.8293,9.7939 L 0.8434,9.7939 L 1.0120,9.7939 L 1.5181,9.7939 L 2.3193,9.7939 L 3.4016,9.7939 L 4.7510,9.7939 L 6.3393,9.7939 L 8.1385,9.7939 L 10.1485,9.7939 L 12.3272,9.7939 L 14.6465,9.7939 L 17.1204,9.7939 L 19.6786,9.7939 L 22.3352,9.7939 L 25.0621,9.7939 L 27.8312,9.7939 L 30.6143,9.7939 L 33.3974,9.7939 L 36.1665,9.7939 L 38.8934,9.7939 L 41.5500,9.7939 L 44.1082,9.7939 L 46.5821,9.7939 L 48.9013,9.7939 L 51.0800,9.7939 L 53.0901,9.7939 L 54.8893,9.7939 L 56.4776,9.7939 L 57.8270,9.7939 L 58.9093,9.7939 L 59.7105,9.7939 L 60.2165,9.7939 L 60.3852,9.7939 L 60.3993,9.7939 L 60.4133,9.7939 L 60.4274,9.7939 L 60.4414,9.7939 L 60.4555,9.7800 L 60.4696,9.7800 L 60.4836,9.7800 L 60.4977,9.7661 L 60.5117,9.7661 L 60.5117,9.7522 L 60.5258,9.7522 L 60.5398,9.7522 L 60.5398,9.7383 L 60.5539,9.7383 L 60.5679,9.7244 L 60.5679,9.7105 L 60.5820,9.7105 L 60.5820,9.6966 L 60.5961,9.6966 L 60.5961,9.6827 L 60.6101,9.6687 L 60.6242,9.6548 L 60.6242,9.6409 L 60.6242,9.6270 L 60.6382,9.6131 L 60.6382,9.5992 L 60.6382,9.5853 L 60.6382,9.5714 L 60.6382,9.5435 L 60.6382,9.4740 L 60.6382,9.3627 L 60.6382,9.2097 L 60.6382,9.0149 L 60.6382,8.7923 L 60.6382,8.5419 L 60.6382,8.2636 L 60.6382,7.9576 L 60.6382,7.6237 L 60.6382,7.2759 L 60.6382,6.9142 L 60.6382,6.5386 L 60.6382,6.1490 L 60.6382,5.7595 L 60.6382,5.3700 L 60.6382,4.9804 L 60.6382,4.5909 L 60.6382,4.2014 L 60.6382,3.8258 L 60.6382,3.4641 L 60.6382,3.1163 L 60.6382,2.7824 L 60.6382,2.4763 L 60.6382,2.1981 L 60.6382,1.9477 L 60.6382,1.7251 L 60.6382,1.5303 L 60.6382,1.3773 L 60.6382,1.2660 L 60.6382,1.1964 L 60.6382,1.1686 L 60.6382,1.1547 L 60.6382,1.1408 L 60.6382,1.1269 L 60.6242,1.1129 L 60.6242,1.0990 L 60.6242,1.0851 L 60.6101,1.0712 L 60.5961,1.0573 L 60.5961,1.0434 L 60.5820,1.0434 L 60.5820,1.0295 L 60.5679,1.0295 L 60.5679,1.0156 L 60.5539,1.0017 L 60.5398,1.0017 L 60.5398,0.9877 L 60.5258,0.9877 L 60.5117,0.9877 L 60.5117,0.9738 L 60.4977,0.9738 L 60.4836,0.9599 L 60.4696,0.9599 L 60.4555,0.9599 L 60.4414,0.9460 L 60.4274,0.9460 L 60.4133,0.9460 L 60.3993,0.9460 L 60.3852,0.9460 L 60.2165,0.9460 L 59.7105,0.9460 L 58.9093,0.9460 L 57.8270,0.9460 L 56.4776,0.9460 L 54.8893,0.9460 L 53.0901,0.9460 L 51.0800,0.9460 L 48.9013,0.9460 L 46.5821,0.9460 L 44.1082,0.9460 L 41.5500,0.9460 L 38.8934,0.9460 L 36.1665,0.9460 L 33.3974,0.9460 L 30.6143,0.9460 L 27.8312,0.9460 L 25.0621,0.9460 L 22.3352,0.9460 L 19.6786,0.9460 L 17.1204,0.9460 L 14.6465,0.9460 L 12.3272,0.9460 L 10.1485,0.9460 L 8.1385,0.9460 L 6.3393,0.9460 L 4.7510,0.9460 L 3.4016,0.9460 L 2.3193,0.9460 L 1.5181,0.9460 L 1.0120,0.9460 L 0.8434,0.9460 Z" stroke="#7F7F7F" stroke-width="0.1196" stroke-linecap="round" stroke-linejoin="round" fill="#F7F7F7"/>
        <path d="M 3.9638,4.4657 L 3.9638,4.4379 L 3.9498,4.4101 L 3.9217,4.3961 L 3.8936,4.3961 L 3.8795,4.3961 L 3.8514,4.3961 L 3.8233,4.4101 L 3.8092,4.4379 L 3.8092,4.4657 L 3.8092,5.4813 L 3.8092,5.5091 L 3.8233,5.5369 L 3.8514,5.5508 L 3.8795,5.5508 L 3.8936,5.5508 L 3.9217,5.5508 L 3.9498,5.5369 L 3.9638,5.5091 L 3.9638,5.4813 L 3.9638,4.4657 Z" stroke="#CAE88B" stroke-width="0.1196" stroke-linecap="round" stroke-linejoin="round" fill="#CBEA8C"/>
        <path d="M 3.5000,4.4657 L 3.5000,4.4379 L 3.4859,4.4101 L 3.4578,4.3961 L 3.4297,4.3961 L 3.4156,4.3961 L 3.3875,4.3961 L 3.3594,4.4101 L 3.3454,4.4379 L 3.3454,4.4657 L 3.3454,5.4813 L 3.3454,5.5091 L 3.3594,5.5369 L 3.3875,5.5508 L 3.4156,5.5508 L 3.4297,5.5508 L 3.4578,5.5508 L 3.4859,5.5369 L 3.5000,5.5091 L 3.5000,5.4813 L 3.5000,4.4657 Z" stroke="#CAE88B" stroke-width="0.1196" stroke-linecap="round" stroke-linejoin="round" fill="#CBEA8C"/>
        <path d="M 3.0361,4.4657 L 3.0361,4.4379 L 3.0221,4.4101 L 2.9940,4.3961 L 2.9658,4.3961 L 2.9518,4.3961 L 2.9237,4.3961 L 2.8956,4.4101 L 2.8815,4.4379 L 2.8815,4.4657 L 2.8815,5.4813 L 2.8815,5.5091 L 2.8956,5.5369 L 2.9237,5.5508 L 2.9518,5.5508 L 2.9658,5.5508 L 2.9940,5.5508 L 3.0221,5.5369 L 3.0361,5.5091 L 3.0361,5.4813 L 3.0361,4.4657 Z" stroke="#CAE88B" stroke-width="0.1196" stroke-linecap="round" stroke-linejoin="round" fill="#CBEA8C"/>
        <path d="M 44.6564,4.4101 L 44.4315,4.4101 L 44.4315,4.6605 " stroke="#000000" stroke-width="0.1196" stroke-linecap="round" stroke-linejoin="round" fill="none"/>
        <path d="M 45.8512,4.4101 L 46.0761,4.4101 L 46.0761,4.6605 " stroke="#000000" stroke-width="0.1196" stroke-linecap="round" stroke-linejoin="round" fill="none"/>
        <text font-family="Arial" fill="#000000" style="white-space:pre;" font-weight="400" text-anchor="start" x="6.3393" y="2.1728" font-size="0.1265"><![CDATA[PWR]]></text>
        <text font-family="Arial" fill="#000000" style="white-space:pre;" font-weight="400" text-anchor="start" x="7.2108" y="2.1728" font-size="0.1265"><![CDATA[MGR]]></text>
        <text font-family="Arial" fill="#000000" style="white-space:pre;" font-weight="400" text-anchor="start" x="6.6907" y="2.1728" font-size="0.1265"><![CDATA[STATUS]]></text>
        <text font-family="Arial" fill="#000000" style="white-space:pre;" font-weight="400" text-anchor="start" x="2.4598" y="1.8744" font-size="0.1968"><![CDATA[FortiDeceptor 100G]]></text>
        <path d="M 25.2848,7.0236 L 24.7491,7.0236 L 24.7491,7.5547 L 25.2848,7.5547 L 25.2848,7.0236 Z" stroke="#000000" stroke-width="0.1196" stroke-linecap="round" stroke-linejoin="round" fill="#00FF00"/>
        <path d="M 23.5974,7.0236 L 23.0617,7.0236 L 23.0617,7.5547 L 23.5974,7.5547 L 23.5974,7.0236 Z" stroke="#000000" stroke-width="0.1196" stroke-linecap="round" stroke-linejoin="round" fill="#00FF00"/>
        <path d="M 21.9099,7.0236 L 21.3742,7.0236 L 21.3742,7.5547 L 21.9099,7.5547 L 21.9099,7.0236 Z" stroke="#000000" stroke-width="0.1196" stroke-linecap="round" stroke-linejoin="round" fill="#00FF00"/>
        <path d="M 2.9376,3.8295 L 2.9286,3.8295 L 2.9196,3.8295 L 2.9105,3.8205 L 2.9015,3.8205 L 2.8925,3.8115 L 2.8835,3.8025 L 2.8745,3.7935 L 2.8745,3.7845 L 2.8655,3.7755 L 2.8655,3.7665 L 2.8655,3.7575 L 2.8655,3.7484 L 2.8655,3.7304 L 2.8655,3.7124 L 2.8655,3.6944 L 2.8655,3.6674 L 2.8655,3.6313 L 2.8655,3.6043 L 2.8655,3.5592 L 2.8655,3.5232 L 2.8655,3.4781 L 2.8655,3.4421 L 2.8655,3.3970 L 2.8655,3.3430 L 2.8655,3.2979 L 2.8655,3.2529 L 2.8655,3.2078 L 2.8655,3.1628 L 2.8655,3.1087 L 2.8655,3.0636 L 2.8655,3.0276 L 2.8655,2.9825 L 2.8655,2.9465 L 2.8655,2.9105 L 2.8655,2.8744 L 2.8655,2.8384 L 2.8655,2.8113 L 2.8655,2.7933 L 2.8655,2.7753 L 2.8655,2.7573 L 2.8655,2.7483 L 2.8655,2.7393 L 2.8655,2.7302 L 2.8745,2.7212 L 2.8745,2.7122 L 2.8835,2.7032 L 2.8925,2.7032 L 2.8925,2.6942 L 2.9015,2.6852 L 2.9105,2.6852 L 2.9196,2.6762 L 2.9286,2.6762 L 2.9376,2.6762 L 2.9466,2.6762 L 2.9646,2.6762 L 2.9916,2.6762 L 3.0187,2.6762 L 3.0457,2.6762 L 3.0818,2.6762 L 3.1268,2.6762 L 3.1629,2.6762 L 3.2169,2.6762 L 3.2620,2.6762 L 3.3160,2.6762 L 3.3701,2.6762 L 3.4242,2.6762 L 3.4782,2.6762 L 3.5323,2.6762 L 3.5864,2.6762 L 3.6404,2.6762 L 3.6945,2.6762 L 3.7486,2.6762 L 3.8026,2.6762 L 3.8477,2.6762 L 3.9018,2.6762 L 3.9378,2.6762 L 3.9829,2.6762 L 4.0189,2.6762 L 4.0459,2.6762 L 4.0730,2.6762 L 4.1000,2.6762 L 4.1180,2.6762 L 4.1270,2.6762 L 4.1360,2.6762 L 4.1451,2.6762 L 4.1541,2.6852 L 4.1631,2.6852 L 4.1721,2.6942 L 4.1811,2.7032 L 4.1901,2.7122 L 4.1901,2.7212 L 4.1991,2.7302 L 4.1991,2.7393 L 4.1991,2.7483 L 4.1991,2.7573 L 4.1991,2.7663 L 4.1991,2.7753 L 4.1991,2.7843 L 4.1991,2.7933 L 4.1991,2.8023 L 4.1991,2.8113 L 4.1991,2.8203 L 4.1991,2.8294 L 4.1991,2.8384 L 4.1991,2.8564 L 4.1991,2.8654 L 4.1991,2.8744 L 4.1991,2.8834 L 4.1991,2.8924 L 4.1991,2.9014 L 4.1991,2.9105 L 4.1991,2.9195 L 4.1991,2.9285 L 4.1991,2.9375 L 4.1991,2.9465 L 4.1991,2.9555 L 4.1991,2.9465 L 4.1991,2.9375 L 4.1901,2.9375 L 4.1901,2.9285 L 4.1811,2.9285 L 4.1811,2.9195 L 4.1721,2.9195 L 4.1721,2.9105 L 4.1631,2.9105 L 4.1541,2.9105 L 4.1541,2.9014 L 4.1451,2.9014 L 4.1360,2.9014 L 4.1270,2.9014 L 4.1090,2.9014 L 4.0910,2.9014 L 4.0730,2.9014 L 4.0459,2.9014 L 4.0189,2.9014 L 3.9829,2.9014 L 3.9558,2.9014 L 3.9108,2.9014 L 3.8747,2.9014 L 3.8297,2.9014 L 3.7936,2.9014 L 3.7486,2.9014 L 3.7035,2.9014 L 3.6585,2.9014 L 3.6134,2.9014 L 3.5684,2.9014 L 3.5233,2.9014 L 3.4873,2.9014 L 3.4422,2.9014 L 3.4062,2.9014 L 3.3611,2.9014 L 3.3341,2.9014 L 3.2980,2.9014 L 3.2710,2.9014 L 3.2440,2.9014 L 3.2259,2.9014 L 3.2079,2.9014 L 3.1899,2.9014 L 3.1809,2.9014 L 3.1719,2.9014 L 3.1629,2.9014 L 3.1629,2.9105 L 3.1538,2.9105 L 3.1448,2.9105 L 3.1448,2.9195 L 3.1358,2.9195 L 3.1358,2.9285 L 3.1358,2.9375 L 3.1268,2.9375 L 3.1268,2.9465 L 3.1268,2.9555 L 3.1268,2.9645 L 3.1268,2.9735 L 3.1268,2.9916 L 3.1268,3.0096 L 3.1268,3.0276 L 3.1268,3.0546 L 3.1268,3.0817 L 3.1268,3.1087 L 3.1268,3.1447 L 3.1268,3.1808 L 3.1268,3.2078 L 3.1268,3.2438 L 3.1268,3.2889 L 3.1268,3.3249 L 3.1268,3.3610 L 3.1268,3.3970 L 3.1268,3.4331 L 3.1268,3.4781 L 3.1268,3.5142 L 3.1268,3.5412 L 3.1268,3.5772 L 3.1268,3.6133 L 3.1268,3.6403 L 3.1268,3.6674 L 3.1268,3.6944 L 3.1268,3.7124 L 3.1268,3.7304 L 3.1268,3.7484 L 3.1268,3.7575 L 3.1268,3.7665 L 3.1268,3.7755 L 3.1268,3.7845 L 3.1268,3.7935 L 3.1358,3.7935 L 3.1358,3.8025 L 3.1358,3.8115 L 3.1448,3.8115 L 3.1448,3.8205 L 3.1538,3.8205 L 3.1538,3.8295 L 3.1629,3.8295 L 3.1719,3.8295 L 3.1629,3.8295 L 3.1538,3.8295 L 3.1448,3.8295 L 3.1358,3.8295 L 3.1268,3.8295 L 3.1178,3.8295 L 3.1088,3.8295 L 3.0998,3.8295 L 3.0908,3.8295 L 3.0727,3.8295 L 3.0637,3.8295 L 3.0547,3.8295 L 3.0457,3.8295 L 3.0367,3.8295 L 3.0187,3.8295 L 3.0097,3.8295 L 3.0007,3.8295 L 2.9916,3.8295 L 2.9826,3.8295 L 2.9736,3.8295 L 2.9646,3.8295 L 2.9556,3.8295 L 2.9466,3.8295 L 2.9376,3.8295 Z" stroke="#161616" stroke-width="0.1196" stroke-linecap="round" stroke-linejoin="round" fill="#161616"/>
        <path d="M 4.1090,3.1628 L 4.0820,3.1628 L 4.0549,3.1628 L 4.0279,3.1628 L 4.0009,3.1628 L 3.9738,3.1628 L 3.9378,3.1628 L 3.9018,3.1628 L 3.8657,3.1628 L 3.8387,3.1628 L 3.8026,3.1628 L 3.7666,3.1628 L 3.7215,3.1628 L 3.6855,3.1628 L 3.6495,3.1628 L 3.6134,3.1628 L 3.5774,3.1628 L 3.5503,3.1628 L 3.5143,3.1628 L 3.4782,3.1628 L 3.4512,3.1628 L 3.4152,3.1628 L 3.3881,3.1628 L 3.3611,3.1628 L 3.3341,3.1628 L 3.3160,3.1628 L 3.2980,3.1628 L 3.2800,3.1628 L 3.2620,3.1628 L 3.2530,3.1628 L 3.2440,3.1628 L 3.2349,3.1628 L 3.2259,3.1628 L 3.2169,3.1628 L 3.2169,3.1537 L 3.2079,3.1537 L 3.1989,3.1537 L 3.1989,3.1447 L 3.1899,3.1447 L 3.1899,3.1357 L 3.1899,3.1267 L 3.1809,3.1267 L 3.1809,3.1177 L 3.1809,3.1087 L 3.1809,3.1177 L 3.1809,3.1267 L 3.1809,3.1357 L 3.1809,3.1447 L 3.1809,3.1537 L 3.1809,3.1628 L 3.1809,3.1718 L 3.1809,3.1808 L 3.1809,3.1898 L 3.1809,3.1988 L 3.1809,3.2078 L 3.1809,3.2258 L 3.1809,3.2348 L 3.1809,3.2438 L 3.1809,3.2529 L 3.1809,3.2619 L 3.1809,3.2709 L 3.1809,3.2799 L 3.1809,3.2889 L 3.1809,3.2979 L 3.1809,3.3069 L 3.1809,3.3159 L 3.1809,3.3249 L 3.1809,3.3340 L 3.1809,3.3430 L 3.1809,3.3520 L 3.1899,3.3520 L 3.1899,3.3610 L 3.1899,3.3700 L 3.1989,3.3700 L 3.1989,3.3790 L 3.2079,3.3790 L 3.2169,3.3790 L 3.2169,3.3880 L 3.2259,3.3880 L 3.2349,3.3880 L 3.2440,3.3880 L 3.2530,3.3880 L 3.2620,3.3880 L 3.2800,3.3880 L 3.2980,3.3880 L 3.3251,3.3880 L 3.3431,3.3880 L 3.3701,3.3880 L 3.3971,3.3880 L 3.4332,3.3880 L 3.4602,3.3880 L 3.4963,3.3880 L 3.5323,3.3880 L 3.5684,3.3880 L 3.6044,3.3880 L 3.6404,3.3880 L 3.6765,3.3880 L 3.7125,3.3880 L 3.7576,3.3880 L 3.7936,3.3880 L 3.8297,3.3880 L 3.8657,3.3880 L 3.9018,3.3880 L 3.9378,3.3880 L 3.9648,3.3880 L 4.0009,3.3880 L 4.0279,3.3880 L 4.0549,3.3880 L 4.0820,3.3880 L 4.1090,3.3880 L 4.1270,3.3880 L 4.1360,3.3790 L 4.1451,3.3700 L 4.1541,3.3700 L 4.1631,3.3610 L 4.1721,3.3520 L 4.1721,3.3430 L 4.1811,3.3340 L 4.1811,3.3249 L 4.1901,3.3159 L 4.1901,3.3069 L 4.1901,3.2979 L 4.1991,3.2889 L 4.1991,3.2799 L 4.1991,3.2709 L 4.1991,3.2619 L 4.1901,3.2529 L 4.1901,3.2438 L 4.1901,3.2348 L 4.1901,3.2258 L 4.1811,3.2168 L 4.1721,3.2078 L 4.1721,3.1988 L 4.1631,3.1898 L 4.1541,3.1898 L 4.1541,3.1808 L 4.1451,3.1808 L 4.1360,3.1718 L 4.1270,3.1718 L 4.1180,3.1628 L 4.1090,3.1628 Z" stroke="#161616" stroke-width="0.1196" stroke-linecap="round" stroke-linejoin="round" fill="#161616"/>
        <path d="M 6.1905,3.3880 L 6.1815,3.3880 L 6.1725,3.3880 L 6.1725,3.3790 L 6.1635,3.3790 L 6.1545,3.3790 L 6.1545,3.3700 L 6.1455,3.3700 L 6.1455,3.3610 L 6.1455,3.3520 L 6.1365,3.3520 L 6.1365,3.3430 L 6.1365,3.3340 L 6.1365,3.3249 L 6.1365,3.3159 L 6.1365,3.3069 L 6.1365,3.2979 L 6.1365,3.2889 L 6.1365,3.2799 L 6.1365,3.2709 L 6.1365,3.2619 L 6.1365,3.2529 L 6.1365,3.2438 L 6.1365,3.2348 L 6.1365,3.2258 L 6.1365,3.2078 L 6.1365,3.1988 L 6.1365,3.1898 L 6.1365,3.1808 L 6.1365,3.1718 L 6.1365,3.1628 L 6.1365,3.1537 L 6.1365,3.1447 L 6.1365,3.1357 L 6.1365,3.1267 L 6.1365,3.1177 L 6.1365,3.1087 L 6.1365,3.1177 L 6.1365,3.1267 L 6.1455,3.1267 L 6.1455,3.1357 L 6.1455,3.1447 L 6.1545,3.1447 L 6.1545,3.1537 L 6.1635,3.1537 L 6.1725,3.1537 L 6.1725,3.1628 L 6.1815,3.1628 L 6.1905,3.1628 L 6.1996,3.1628 L 6.2086,3.1628 L 6.2176,3.1628 L 6.2356,3.1628 L 6.2536,3.1628 L 6.2807,3.1628 L 6.2987,3.1628 L 6.3257,3.1628 L 6.3527,3.1628 L 6.3798,3.1628 L 6.4158,3.1628 L 6.4429,3.1628 L 6.4789,3.1628 L 6.5059,3.1628 L 6.5420,3.1628 L 6.5780,3.1628 L 6.6051,3.1628 L 6.6411,3.1628 L 6.6681,3.1628 L 6.7042,3.1628 L 6.7312,3.1628 L 6.7582,3.1628 L 6.7853,3.1628 L 6.8033,3.1628 L 6.8303,3.1628 L 6.8484,3.1628 L 6.8664,3.1628 L 6.8754,3.1628 L 6.8844,3.1628 L 6.8934,3.1628 L 6.8934,3.1537 L 6.8934,3.1447 L 6.8934,3.1357 L 6.8934,3.1267 L 6.8934,3.1177 L 6.8934,3.1087 L 6.8934,3.0997 L 6.8934,3.0907 L 6.8934,3.0817 L 6.8934,3.0726 L 6.8934,3.0546 L 6.8934,3.0456 L 6.8934,3.0366 L 6.8934,3.0186 L 6.8934,3.0096 L 6.8934,2.9916 L 6.8934,2.9825 L 6.8934,2.9735 L 6.8934,2.9645 L 6.8934,2.9555 L 6.8934,2.9465 L 6.8934,2.9375 L 6.8934,2.9285 L 6.8934,2.9195 L 6.8934,2.9105 L 6.8934,2.9014 L 6.8844,2.9014 L 6.8754,2.9014 L 6.8574,2.9014 L 6.8393,2.9014 L 6.8213,2.9014 L 6.8033,2.9014 L 6.7763,2.9014 L 6.7492,2.9014 L 6.7222,2.9014 L 6.6862,2.9014 L 6.6501,2.9014 L 6.6231,2.9014 L 6.5870,2.9014 L 6.5510,2.9014 L 6.5149,2.9014 L 6.4789,2.9014 L 6.4429,2.9014 L 6.4068,2.9014 L 6.3798,2.9014 L 6.3437,2.9014 L 6.3077,2.9014 L 6.2807,2.9014 L 6.2536,2.9014 L 6.2266,2.9014 L 6.2086,2.9014 L 6.1905,2.9014 L 6.1725,2.9014 L 6.1545,2.9014 L 6.1455,2.9014 L 6.1365,2.9014 L 6.1275,2.9014 L 6.1185,2.9014 L 6.1185,2.9105 L 6.1095,2.9105 L 6.1004,2.9105 L 6.1004,2.9195 L 6.0914,2.9195 L 6.0914,2.9285 L 6.0914,2.9375 L 6.0824,2.9375 L 6.0824,2.9465 L 6.0824,2.9555 L 6.0824,2.9645 L 6.0824,2.9735 L 6.0824,2.9916 L 6.0824,3.0096 L 6.0824,3.0276 L 6.0824,3.0546 L 6.0824,3.0817 L 6.0824,3.1087 L 6.0824,3.1447 L 6.0824,3.1808 L 6.0824,3.2078 L 6.0824,3.2438 L 6.0824,3.2889 L 6.0824,3.3249 L 6.0824,3.3610 L 6.0824,3.3970 L 6.0824,3.4331 L 6.0824,3.4781 L 6.0824,3.5142 L 6.0824,3.5412 L 6.0824,3.5772 L 6.0824,3.6133 L 6.0824,3.6403 L 6.0824,3.6674 L 6.0824,3.6944 L 6.0824,3.7124 L 6.0824,3.7304 L 6.0824,3.7484 L 6.0824,3.7575 L 6.0824,3.7665 L 6.0824,3.7755 L 6.0824,3.7845 L 6.0824,3.7935 L 6.0914,3.7935 L 6.0914,3.8025 L 6.0914,3.8115 L 6.1004,3.8115 L 6.1004,3.8205 L 6.1095,3.8205 L 6.1095,3.8295 L 6.1185,3.8295 L 6.1275,3.8295 L 6.1185,3.8295 L 6.1095,3.8295 L 6.1004,3.8295 L 6.0914,3.8295 L 6.0824,3.8295 L 6.0734,3.8295 L 6.0644,3.8295 L 6.0554,3.8295 L 6.0464,3.8295 L 6.0284,3.8295 L 6.0193,3.8295 L 6.0103,3.8295 L 6.0013,3.8295 L 5.9923,3.8295 L 5.9743,3.8295 L 5.9653,3.8295 L 5.9563,3.8295 L 5.9473,3.8295 L 5.9382,3.8295 L 5.9292,3.8295 L 5.9202,3.8295 L 5.9112,3.8295 L 5.9022,3.8295 L 5.8932,3.8295 L 5.8842,3.8295 L 5.8752,3.8295 L 5.8662,3.8205 L 5.8571,3.8205 L 5.8481,3.8115 L 5.8391,3.8025 L 5.8301,3.7935 L 5.8301,3.7845 L 5.8211,3.7755 L 5.8211,3.7665 L 5.8211,3.7575 L 5.8211,3.7484 L 5.8211,3.7304 L 5.8211,3.7124 L 5.8211,3.6944 L 5.8211,3.6674 L 5.8211,3.6313 L 5.8211,3.6043 L 5.8211,3.5592 L 5.8211,3.5232 L 5.8211,3.4781 L 5.8211,3.4421 L 5.8211,3.3970 L 5.8211,3.3430 L 5.8211,3.2979 L 5.8211,3.2529 L 5.8211,3.2078 L 5.8211,3.1628 L 5.8211,3.1087 L 5.8211,3.0636 L 5.8211,3.0276 L 5.8211,2.9825 L 5.8211,2.9465 L 5.8211,2.9105 L 5.8211,2.8744 L 5.8211,2.8384 L 5.8211,2.8113 L 5.8211,2.7933 L 5.8211,2.7753 L 5.8211,2.7573 L 5.8211,2.7483 L 5.8211,2.7393 L 5.8211,2.7302 L 5.8301,2.7212 L 5.8301,2.7122 L 5.8391,2.7032 L 5.8481,2.7032 L 5.8481,2.6942 L 5.8571,2.6852 L 5.8662,2.6852 L 5.8752,2.6762 L 5.8842,2.6762 L 5.8932,2.6762 L 5.9022,2.6762 L 5.9202,2.6762 L 5.9473,2.6762 L 5.9743,2.6762 L 6.0013,2.6762 L 6.0374,2.6762 L 6.0824,2.6762 L 6.1185,2.6762 L 6.1725,2.6762 L 6.2176,2.6762 L 6.2716,2.6762 L 6.3257,2.6762 L 6.3798,2.6762 L 6.4338,2.6762 L 6.4879,2.6762 L 6.5420,2.6762 L 6.5960,2.6762 L 6.6501,2.6762 L 6.7042,2.6762 L 6.7582,2.6762 L 6.8033,2.6762 L 6.8574,2.6762 L 6.8934,2.6762 L 6.9385,2.6762 L 6.9745,2.6762 L 7.0015,2.6762 L 7.0286,2.6762 L 7.0556,2.6762 L 7.0736,2.6762 L 7.0826,2.6762 L 7.0916,2.6762 L 7.1007,2.6762 L 7.1097,2.6852 L 7.1187,2.6852 L 7.1277,2.6942 L 7.1367,2.7032 L 7.1457,2.7122 L 7.1457,2.7212 L 7.1547,2.7302 L 7.1547,2.7393 L 7.1547,2.7483 L 7.1547,2.7573 L 7.1547,2.7753 L 7.1547,2.7843 L 7.1547,2.8023 L 7.1547,2.8113 L 7.1547,2.8294 L 7.1547,2.8564 L 7.1547,2.8744 L 7.1547,2.8924 L 7.1547,2.9195 L 7.1547,2.9465 L 7.1547,2.9645 L 7.1547,2.9916 L 7.1547,3.0186 L 7.1547,3.0456 L 7.1547,3.0726 L 7.1547,3.0907 L 7.1547,3.1177 L 7.1547,3.1447 L 7.1547,3.1628 L 7.1547,3.1808 L 7.1547,3.2078 L 7.1547,3.2258 L 7.1547,3.2348 L 7.1547,3.2529 L 7.1547,3.2619 L 7.1547,3.2799 L 7.1547,3.2889 L 7.1547,3.2979 L 7.1457,3.3069 L 7.1457,3.3159 L 7.1457,3.3249 L 7.1367,3.3249 L 7.1367,3.3340 L 7.1277,3.3430 L 7.1277,3.3520 L 7.1187,3.3520 L 7.1187,3.3610 L 7.1097,3.3610 L 7.1097,3.3700 L 7.1007,3.3700 L 7.1007,3.3790 L 7.0916,3.3790 L 7.0826,3.3880 L 7.0916,3.3970 L 7.1007,3.3970 L 7.1007,3.4060 L 7.1097,3.4060 L 7.1097,3.4151 L 7.1187,3.4151 L 7.1187,3.4241 L 7.1277,3.4241 L 7.1277,3.4331 L 7.1367,3.4421 L 7.1367,3.4511 L 7.1457,3.4511 L 7.1457,3.4601 L 7.1457,3.4691 L 7.1547,3.4781 L 7.1547,3.4871 L 7.1547,3.4961 L 7.1547,3.5052 L 7.1547,3.5142 L 7.1547,3.5232 L 7.1547,3.5322 L 7.1547,3.5412 L 7.1547,3.5502 L 7.1547,3.5592 L 7.1547,3.5772 L 7.1547,3.5863 L 7.1547,3.6043 L 7.1547,3.6133 L 7.1547,3.6313 L 7.1547,3.6403 L 7.1547,3.6493 L 7.1547,3.6674 L 7.1547,3.6764 L 7.1547,3.6944 L 7.1547,3.7034 L 7.1547,3.7124 L 7.1547,3.7214 L 7.1547,3.7304 L 7.1547,3.7394 L 7.1547,3.7484 L 7.1547,3.7575 L 7.1547,3.7665 L 7.1547,3.7755 L 7.1547,3.7845 L 7.1547,3.7935 L 7.1637,3.7935 L 7.1637,3.8025 L 7.1637,3.8115 L 7.1727,3.8115 L 7.1727,3.8205 L 7.1818,3.8205 L 7.1818,3.8295 L 7.1908,3.8295 L 7.1998,3.8295 L 7.1908,3.8295 L 7.1818,3.8295 L 7.1727,3.8295 L 7.1637,3.8295 L 7.1547,3.8295 L 7.1457,3.8295 L 7.1367,3.8295 L 7.1277,3.8295 L 7.1187,3.8295 L 7.1007,3.8295 L 7.0916,3.8295 L 7.0826,3.8295 L 7.0736,3.8295 L 7.0646,3.8295 L 7.0466,3.8295 L 7.0376,3.8295 L 7.0286,3.8295 L 7.0196,3.8295 L 7.0105,3.8295 L 7.0015,3.8295 L 6.9925,3.8295 L 6.9835,3.8295 L 6.9745,3.8295 L 6.9655,3.8295 L 6.9565,3.8295 L 6.9475,3.8295 L 6.9385,3.8205 L 6.9295,3.8205 L 6.9204,3.8115 L 6.9114,3.8025 L 6.9024,3.7935 L 6.9024,3.7845 L 6.8934,3.7755 L 6.8934,3.7665 L 6.8934,3.7575 L 6.8934,3.7484 L 6.8934,3.7394 L 6.8934,3.7304 L 6.8934,3.7214 L 6.8934,3.7124 L 6.8934,3.7034 L 6.8934,3.6944 L 6.8934,3.6854 L 6.8934,3.6764 L 6.8934,3.6674 L 6.8934,3.6583 L 6.8934,3.6403 L 6.8934,3.6313 L 6.8934,3.6133 L 6.8934,3.6043 L 6.8934,3.5863 L 6.8934,3.5682 L 6.8934,3.5502 L 6.8934,3.5412 L 6.8934,3.5232 L 6.8934,3.5052 L 6.8934,3.4871 L 6.8934,3.4691 L 6.8934,3.4511 L 6.8934,3.4241 L 6.8934,3.4060 L 6.8934,3.3880 L 6.8844,3.3880 L 6.8754,3.3880 L 6.8664,3.3880 L 6.8484,3.3880 L 6.8303,3.3880 L 6.8033,3.3880 L 6.7853,3.3880 L 6.7582,3.3880 L 6.7312,3.3880 L 6.7042,3.3880 L 6.6681,3.3880 L 6.6411,3.3880 L 6.6051,3.3880 L 6.5780,3.3880 L 6.5420,3.3880 L 6.5059,3.3880 L 6.4789,3.3880 L 6.4429,3.3880 L 6.4158,3.3880 L 6.3798,3.3880 L 6.3527,3.3880 L 6.3257,3.3880 L 6.2987,3.3880 L 6.2807,3.3880 L 6.2536,3.3880 L 6.2356,3.3880 L 6.2176,3.3880 L 6.2086,3.3880 L 6.1996,3.3880 L 6.1905,3.3880 Z" stroke="#161616" stroke-width="0.1196" stroke-linecap="round" stroke-linejoin="round" fill="#161616"/>
        <path d="M 7.6233,2.9014 L 7.6053,2.9014 L 7.5963,2.9014 L 7.5782,2.9014 L 7.5692,2.9014 L 7.5512,2.9014 L 7.5422,2.9014 L 7.5242,2.9014 L 7.5152,2.9014 L 7.5062,2.9014 L 7.4971,2.9014 L 7.4791,2.9014 L 7.4701,2.9014 L 7.4611,2.9014 L 7.4521,2.9014 L 7.4431,2.9014 L 7.4341,2.9014 L 7.4251,2.9014 L 7.4160,2.9014 L 7.4070,2.9014 L 7.3980,2.9014 L 7.3890,2.9014 L 7.3800,2.9014 L 7.3710,2.9014 L 7.3620,2.9014 L 7.3530,2.9014 L 7.3440,2.8924 L 7.3349,2.8924 L 7.3259,2.8834 L 7.3169,2.8744 L 7.3079,2.8654 L 7.3079,2.8564 L 7.2989,2.8474 L 7.2989,2.8384 L 7.2989,2.8294 L 7.2989,2.8203 L 7.2989,2.8113 L 7.2989,2.8023 L 7.2989,2.7933 L 7.2989,2.7843 L 7.2989,2.7753 L 7.2989,2.7663 L 7.2989,2.7573 L 7.2989,2.7483 L 7.2989,2.7393 L 7.2989,2.7302 L 7.3079,2.7212 L 7.3079,2.7122 L 7.3169,2.7032 L 7.3259,2.7032 L 7.3259,2.6942 L 7.3349,2.6852 L 7.3440,2.6852 L 7.3530,2.6762 L 7.3620,2.6762 L 7.3710,2.6762 L 7.3800,2.6762 L 7.3980,2.6762 L 7.4251,2.6762 L 7.4521,2.6762 L 7.4791,2.6762 L 7.5152,2.6762 L 7.5602,2.6762 L 7.5963,2.6762 L 7.6503,2.6762 L 7.6954,2.6762 L 7.7495,2.6762 L 7.8035,2.6762 L 7.8576,2.6762 L 7.9116,2.6762 L 7.9657,2.6762 L 8.0198,2.6762 L 8.0738,2.6762 L 8.1279,2.6762 L 8.1820,2.6762 L 8.2360,2.6762 L 8.2811,2.6762 L 8.3352,2.6762 L 8.3712,2.6762 L 8.4163,2.6762 L 8.4523,2.6762 L 8.4793,2.6762 L 8.5064,2.6762 L 8.5334,2.6762 L 8.5514,2.6762 L 8.5604,2.6762 L 8.5695,2.6762 L 8.5785,2.6762 L 8.5875,2.6852 L 8.5965,2.6852 L 8.6055,2.6942 L 8.6145,2.7032 L 8.6235,2.7122 L 8.6235,2.7212 L 8.6325,2.7302 L 8.6325,2.7393 L 8.6325,2.7483 L 8.6325,2.7573 L 8.6325,2.7663 L 8.6325,2.7753 L 8.6325,2.7843 L 8.6325,2.7933 L 8.6325,2.8023 L 8.6325,2.8113 L 8.6325,2.8203 L 8.6325,2.8294 L 8.6325,2.8384 L 8.6325,2.8564 L 8.6325,2.8654 L 8.6325,2.8744 L 8.6325,2.8834 L 8.6325,2.8924 L 8.6325,2.9014 L 8.6325,2.9105 L 8.6325,2.9195 L 8.6325,2.9285 L 8.6325,2.9375 L 8.6325,2.9465 L 8.6325,2.9555 L 8.6325,2.9465 L 8.6325,2.9375 L 8.6235,2.9375 L 8.6235,2.9285 L 8.6145,2.9285 L 8.6145,2.9195 L 8.6055,2.9195 L 8.6055,2.9105 L 8.5965,2.9105 L 8.5875,2.9105 L 8.5875,2.9014 L 8.5785,2.9014 L 8.5695,2.9014 L 8.5604,2.9014 L 8.5514,2.9014 L 8.5424,2.9014 L 8.5334,2.9014 L 8.5244,2.9014 L 8.5064,2.9014 L 8.4974,2.9014 L 8.4793,2.9014 L 8.4613,2.9014 L 8.4433,2.9014 L 8.4253,2.9014 L 8.4073,2.9014 L 8.3802,2.9014 L 8.3622,2.9014 L 8.3352,2.9014 L 8.3081,2.9014 L 8.2901,2.9014 L 8.2631,2.9014 L 8.2360,2.9014 L 8.2090,2.9014 L 8.1820,2.9014 L 8.1549,2.9014 L 8.1279,2.9014 L 8.1009,2.9014 L 8.0738,2.9014 L 8.0468,2.9014 L 8.0198,2.9014 L 7.9927,2.9014 L 7.9657,2.9014 L 7.9387,2.9014 L 7.9297,2.9014 L 7.9207,2.9014 L 7.9207,2.9105 L 7.9116,2.9105 L 7.9026,2.9105 L 7.9026,2.9195 L 7.8936,2.9195 L 7.8936,2.9285 L 7.8936,2.9375 L 7.8846,2.9375 L 7.8846,2.9465 L 7.8846,2.9555 L 7.8846,2.9645 L 7.8846,2.9735 L 7.8846,2.9916 L 7.8846,3.0096 L 7.8846,3.0276 L 7.8846,3.0546 L 7.8846,3.0817 L 7.8846,3.1087 L 7.8846,3.1447 L 7.8846,3.1808 L 7.8846,3.2078 L 7.8846,3.2438 L 7.8846,3.2889 L 7.8846,3.3249 L 7.8846,3.3610 L 7.8846,3.3970 L 7.8846,3.4331 L 7.8846,3.4781 L 7.8846,3.5142 L 7.8846,3.5412 L 7.8846,3.5772 L 7.8846,3.6133 L 7.8846,3.6403 L 7.8846,3.6674 L 7.8846,3.6944 L 7.8846,3.7124 L 7.8846,3.7304 L 7.8846,3.7484 L 7.8846,3.7575 L 7.8846,3.7665 L 7.8846,3.7755 L 7.8846,3.7845 L 7.8846,3.7935 L 7.8936,3.7935 L 7.8936,3.8025 L 7.8936,3.8115 L 7.9026,3.8115 L 7.9026,3.8205 L 7.9116,3.8205 L 7.9116,3.8295 L 7.9207,3.8295 L 7.9297,3.8295 L 7.9207,3.8295 L 7.9116,3.8295 L 7.9026,3.8295 L 7.8936,3.8295 L 7.8846,3.8295 L 7.8756,3.8295 L 7.8666,3.8295 L 7.8576,3.8295 L 7.8486,3.8295 L 7.8305,3.8295 L 7.8215,3.8295 L 7.8125,3.8295 L 7.8035,3.8295 L 7.7945,3.8295 L 7.7765,3.8295 L 7.7675,3.8295 L 7.7585,3.8295 L 7.7495,3.8295 L 7.7404,3.8295 L 7.7314,3.8295 L 7.7224,3.8295 L 7.7134,3.8295 L 7.7044,3.8295 L 7.6954,3.8295 L 7.6864,3.8295 L 7.6774,3.8295 L 7.6684,3.8205 L 7.6593,3.8205 L 7.6503,3.8115 L 7.6413,3.8025 L 7.6323,3.7935 L 7.6323,3.7845 L 7.6233,3.7755 L 7.6233,3.7665 L 7.6233,3.7575 L 7.6233,3.7484 L 7.6233,3.7394 L 7.6233,3.7304 L 7.6233,3.7214 L 7.6233,3.7034 L 7.6233,3.6854 L 7.6233,3.6583 L 7.6233,3.6403 L 7.6233,3.6133 L 7.6233,3.5863 L 7.6233,3.5592 L 7.6233,3.5232 L 7.6233,3.4961 L 7.6233,3.4601 L 7.6233,3.4241 L 7.6233,3.3970 L 7.6233,3.3610 L 7.6233,3.3249 L 7.6233,3.2889 L 7.6233,3.2529 L 7.6233,3.2168 L 7.6233,3.1808 L 7.6233,3.1447 L 7.6233,3.1087 L 7.6233,3.0817 L 7.6233,3.0456 L 7.6233,3.0096 L 7.6233,2.9825 L 7.6233,2.9555 L 7.6233,2.9285 L 7.6233,2.9014 Z" stroke="#161616" stroke-width="0.1196" stroke-linecap="round" stroke-linejoin="round" fill="#161616"/>
        <path d="M 9.0380,3.7665 L 9.0380,3.7755 L 9.0380,3.7845 L 9.0380,3.7935 L 9.0470,3.7935 L 9.0470,3.8025 L 9.0470,3.8115 L 9.0560,3.8115 L 9.0560,3.8205 L 9.0651,3.8205 L 9.0651,3.8295 L 9.0741,3.8295 L 9.0831,3.8295 L 9.0741,3.8295 L 9.0651,3.8295 L 9.0560,3.8295 L 9.0470,3.8295 L 9.0380,3.8295 L 9.0290,3.8295 L 9.0200,3.8295 L 9.0110,3.8295 L 9.0020,3.8295 L 8.9840,3.8295 L 8.9749,3.8295 L 8.9659,3.8295 L 8.9569,3.8295 L 8.9479,3.8295 L 8.9299,3.8295 L 8.9209,3.8295 L 8.9119,3.8295 L 8.9029,3.8295 L 8.8938,3.8295 L 8.8848,3.8295 L 8.8758,3.8295 L 8.8668,3.8295 L 8.8578,3.8295 L 8.8488,3.8295 L 8.8398,3.8295 L 8.8308,3.8295 L 8.8218,3.8205 L 8.8127,3.8205 L 8.8037,3.8115 L 8.7947,3.8025 L 8.7857,3.7935 L 8.7857,3.7845 L 8.7767,3.7755 L 8.7767,3.7665 L 8.7767,3.7575 L 8.7767,3.7484 L 8.7767,3.7304 L 8.7767,3.7124 L 8.7767,3.6944 L 8.7767,3.6674 L 8.7767,3.6313 L 8.7767,3.5953 L 8.7767,3.5592 L 8.7767,3.5232 L 8.7767,3.4781 L 8.7767,3.4331 L 8.7767,3.3880 L 8.7767,3.3430 L 8.7767,3.2979 L 8.7767,3.2529 L 8.7767,3.1988 L 8.7767,3.1537 L 8.7767,3.1087 L 8.7767,3.0636 L 8.7767,3.0186 L 8.7767,2.9735 L 8.7767,2.9375 L 8.7767,2.9014 L 8.7767,2.8654 L 8.7767,2.8294 L 8.7767,2.8023 L 8.7767,2.7843 L 8.7767,2.7663 L 8.7767,2.7483 L 8.7767,2.7393 L 8.7767,2.7302 L 8.7767,2.7212 L 8.7767,2.7122 L 8.7677,2.7122 L 8.7677,2.7032 L 8.7677,2.6942 L 8.7587,2.6942 L 8.7587,2.6852 L 8.7497,2.6852 L 8.7497,2.6762 L 8.7407,2.6762 L 8.7316,2.6762 L 8.7407,2.6762 L 8.7497,2.6762 L 8.7587,2.6762 L 8.7677,2.6762 L 8.7767,2.6762 L 8.7857,2.6762 L 8.7947,2.6762 L 8.8037,2.6762 L 8.8127,2.6762 L 8.8308,2.6762 L 8.8398,2.6762 L 8.8488,2.6762 L 8.8578,2.6762 L 8.8668,2.6762 L 8.8848,2.6762 L 8.8938,2.6762 L 8.9029,2.6762 L 8.9119,2.6762 L 8.9209,2.6762 L 8.9299,2.6762 L 8.9389,2.6762 L 8.9479,2.6762 L 8.9569,2.6762 L 8.9659,2.6762 L 8.9749,2.6762 L 8.9840,2.6762 L 8.9930,2.6852 L 9.0020,2.6852 L 9.0110,2.6942 L 9.0200,2.7032 L 9.0290,2.7122 L 9.0290,2.7212 L 9.0380,2.7302 L 9.0380,2.7393 L 9.0380,2.7483 L 9.0380,2.7573 L 9.0380,2.7753 L 9.0380,2.7933 L 9.0380,2.8113 L 9.0380,2.8384 L 9.0380,2.8744 L 9.0380,2.9105 L 9.0380,2.9465 L 9.0380,2.9825 L 9.0380,3.0276 L 9.0380,3.0726 L 9.0380,3.1177 L 9.0380,3.1628 L 9.0380,3.2078 L 9.0380,3.2619 L 9.0380,3.3069 L 9.0380,3.3520 L 9.0380,3.3970 L 9.0380,3.4421 L 9.0380,3.4871 L 9.0380,3.5322 L 9.0380,3.5682 L 9.0380,3.6043 L 9.0380,3.6403 L 9.0380,3.6764 L 9.0380,3.7034 L 9.0380,3.7214 L 9.0380,3.7394 L 9.0380,3.7575 L 9.0380,3.7665 Z" stroke="#161616" stroke-width="0.1196" stroke-linecap="round" stroke-linejoin="round" fill="#161616"/>
        <path d="M 10.3176,2.9014 L 10.2905,2.9014 L 10.2635,2.9014 L 10.2365,2.9014 L 10.2004,2.9014 L 10.1734,2.9014 L 10.1374,2.9014 L 10.1103,2.9014 L 10.0743,2.9014 L 10.0473,2.9014 L 10.0112,2.9014 L 9.9842,2.9014 L 9.9481,2.9014 L 9.9211,2.9014 L 9.8941,2.9014 L 9.8580,2.9014 L 9.8310,2.9014 L 9.8040,2.9014 L 9.7769,2.9014 L 9.7499,2.9014 L 9.7229,2.9014 L 9.7048,2.9014 L 9.6778,2.9014 L 9.6598,2.9014 L 9.6418,2.9014 L 9.6237,2.9014 L 9.6057,2.9014 L 9.5967,2.9014 L 9.5787,2.9014 L 9.5697,2.9014 L 9.5607,2.9014 L 9.5516,2.9014 L 9.5426,2.9014 L 9.5426,2.9105 L 9.5336,2.9105 L 9.5246,2.9105 L 9.5246,2.9195 L 9.5156,2.9195 L 9.5156,2.9285 L 9.5156,2.9375 L 9.5066,2.9375 L 9.5066,2.9465 L 9.5066,2.9555 L 9.5066,2.9645 L 9.5066,2.9735 L 9.5066,2.9916 L 9.5066,3.0096 L 9.5066,3.0276 L 9.5066,3.0546 L 9.5066,3.0817 L 9.5066,3.1087 L 9.5066,3.1447 L 9.5066,3.1808 L 9.5066,3.2078 L 9.5066,3.2438 L 9.5066,3.2889 L 9.5066,3.3249 L 9.5066,3.3610 L 9.5066,3.3970 L 9.5066,3.4331 L 9.5066,3.4781 L 9.5066,3.5142 L 9.5066,3.5412 L 9.5066,3.5772 L 9.5066,3.6133 L 9.5066,3.6403 L 9.5066,3.6674 L 9.5066,3.6944 L 9.5066,3.7124 L 9.5066,3.7304 L 9.5066,3.7484 L 9.5066,3.7575 L 9.5066,3.7665 L 9.5066,3.7755 L 9.5066,3.7845 L 9.5066,3.7935 L 9.5156,3.7935 L 9.5156,3.8025 L 9.5156,3.8115 L 9.5246,3.8115 L 9.5246,3.8205 L 9.5336,3.8205 L 9.5336,3.8295 L 9.5426,3.8295 L 9.5516,3.8295 L 9.5426,3.8295 L 9.5336,3.8295 L 9.5246,3.8295 L 9.5156,3.8295 L 9.5066,3.8295 L 9.4976,3.8295 L 9.4886,3.8295 L 9.4796,3.8295 L 9.4705,3.8295 L 9.4525,3.8295 L 9.4435,3.8295 L 9.4345,3.8295 L 9.4255,3.8295 L 9.4165,3.8295 L 9.3985,3.8295 L 9.3895,3.8295 L 9.3804,3.8295 L 9.3714,3.8295 L 9.3624,3.8295 L 9.3534,3.8295 L 9.3444,3.8295 L 9.3354,3.8295 L 9.3264,3.8295 L 9.3174,3.8295 L 9.3084,3.8295 L 9.2993,3.8295 L 9.2903,3.8205 L 9.2813,3.8205 L 9.2723,3.8115 L 9.2633,3.8025 L 9.2543,3.7935 L 9.2543,3.7845 L 9.2453,3.7755 L 9.2453,3.7665 L 9.2453,3.7575 L 9.2453,3.7484 L 9.2453,3.7304 L 9.2453,3.7124 L 9.2453,3.6944 L 9.2453,3.6674 L 9.2453,3.6313 L 9.2453,3.6043 L 9.2453,3.5592 L 9.2453,3.5232 L 9.2453,3.4781 L 9.2453,3.4421 L 9.2453,3.3970 L 9.2453,3.3430 L 9.2453,3.2979 L 9.2453,3.2529 L 9.2453,3.2078 L 9.2453,3.1628 L 9.2453,3.1087 L 9.2453,3.0636 L 9.2453,3.0276 L 9.2453,2.9825 L 9.2453,2.9465 L 9.2453,2.9105 L 9.2453,2.8744 L 9.2453,2.8384 L 9.2453,2.8113 L 9.2453,2.7933 L 9.2453,2.7753 L 9.2453,2.7573 L 9.2453,2.7483 L 9.2453,2.7393 L 9.2453,2.7302 L 9.2543,2.7212 L 9.2543,2.7122 L 9.2633,2.7032 L 9.2723,2.7032 L 9.2723,2.6942 L 9.2813,2.6852 L 9.2903,2.6852 L 9.2993,2.6762 L 9.3084,2.6762 L 9.3174,2.6762 L 9.3264,2.6762 L 9.3444,2.6762 L 9.3714,2.6762 L 9.3985,2.6762 L 9.4255,2.6762 L 9.4615,2.6762 L 9.5066,2.6762 L 9.5426,2.6762 L 9.5967,2.6762 L 9.6418,2.6762 L 9.6958,2.6762 L 9.7499,2.6762 L 9.8040,2.6762 L 9.8580,2.6762 L 9.9121,2.6762 L 9.9662,2.6762 L 10.0202,2.6762 L 10.0743,2.6762 L 10.1284,2.6762 L 10.1824,2.6762 L 10.2275,2.6762 L 10.2815,2.6762 L 10.3176,2.6762 L 10.3626,2.6762 L 10.3987,2.6762 L 10.4257,2.6762 L 10.4527,2.6762 L 10.4798,2.6762 L 10.4978,2.6762 L 10.5068,2.6762 L 10.5158,2.6762 L 10.5248,2.6762 L 10.5338,2.6852 L 10.5429,2.6852 L 10.5519,2.6942 L 10.5609,2.7032 L 10.5699,2.7122 L 10.5699,2.7212 L 10.5789,2.7302 L 10.5789,2.7393 L 10.5789,2.7483 L 10.5789,2.7573 L 10.5789,2.7753 L 10.5789,2.7933 L 10.5789,2.8113 L 10.5789,2.8384 L 10.5789,2.8744 L 10.5789,2.9105 L 10.5789,2.9465 L 10.5789,2.9825 L 10.5789,3.0276 L 10.5789,3.0726 L 10.5789,3.1177 L 10.5789,3.1628 L 10.5789,3.2078 L 10.5789,3.2619 L 10.5789,3.3069 L 10.5789,3.3520 L 10.5789,3.3970 L 10.5789,3.4421 L 10.5789,3.4871 L 10.5789,3.5322 L 10.5789,3.5682 L 10.5789,3.6043 L 10.5789,3.6403 L 10.5789,3.6764 L 10.5789,3.7034 L 10.5789,3.7214 L 10.5789,3.7394 L 10.5789,3.7575 L 10.5789,3.7665 L 10.5789,3.7755 L 10.5789,3.7845 L 10.5789,3.7935 L 10.5879,3.7935 L 10.5879,3.8025 L 10.5879,3.8115 L 10.5969,3.8115 L 10.5969,3.8205 L 10.6059,3.8205 L 10.6059,3.8295 L 10.6149,3.8295 L 10.6240,3.8295 L 10.6149,3.8295 L 10.6059,3.8295 L 10.5969,3.8295 L 10.5879,3.8295 L 10.5789,3.8295 L 10.5699,3.8295 L 10.5609,3.8295 L 10.5519,3.8295 L 10.5429,3.8295 L 10.5248,3.8295 L 10.5158,3.8295 L 10.5068,3.8295 L 10.4978,3.8295 L 10.4888,3.8295 L 10.4708,3.8295 L 10.4618,3.8295 L 10.4527,3.8295 L 10.4437,3.8295 L 10.4347,3.8295 L 10.4257,3.8295 L 10.4167,3.8295 L 10.4077,3.8295 L 10.3987,3.8295 L 10.3897,3.8295 L 10.3807,3.8295 L 10.3716,3.8295 L 10.3626,3.8205 L 10.3536,3.8205 L 10.3446,3.8115 L 10.3356,3.8025 L 10.3266,3.7935 L 10.3266,3.7845 L 10.3176,3.7755 L 10.3176,3.7665 L 10.3176,3.7575 L 10.3176,3.7484 L 10.3176,3.7394 L 10.3176,3.7304 L 10.3176,3.7214 L 10.3176,3.7034 L 10.3176,3.6854 L 10.3176,3.6583 L 10.3176,3.6403 L 10.3176,3.6133 L 10.3176,3.5863 L 10.3176,3.5592 L 10.3176,3.5232 L 10.3176,3.4961 L 10.3176,3.4601 L 10.3176,3.4241 L 10.3176,3.3970 L 10.3176,3.3610 L 10.3176,3.3249 L 10.3176,3.2889 L 10.3176,3.2529 L 10.3176,3.2168 L 10.3176,3.1808 L 10.3176,3.1447 L 10.3176,3.1087 L 10.3176,3.0817 L 10.3176,3.0456 L 10.3176,3.0096 L 10.3176,2.9825 L 10.3176,2.9555 L 10.3176,2.9285 L 10.3176,2.9014 Z" stroke="#161616" stroke-width="0.1196" stroke-linecap="round" stroke-linejoin="round" fill="#161616"/>
        <path d="M 11.9035,3.1628 L 11.8855,3.1628 L 11.8585,3.1628 L 11.8314,3.1628 L 11.8044,3.1628 L 11.7774,3.1628 L 11.7413,3.1628 L 11.7143,3.1628 L 11.6782,3.1628 L 11.6512,3.1628 L 11.6152,3.1628 L 11.5791,3.1628 L 11.5431,3.1628 L 11.5070,3.1628 L 11.4800,3.1628 L 11.4440,3.1628 L 11.4079,3.1628 L 11.3719,3.1628 L 11.3448,3.1628 L 11.3178,3.1628 L 11.2818,3.1628 L 11.2547,3.1628 L 11.2277,3.1628 L 11.2007,3.1628 L 11.1826,3.1628 L 11.1556,3.1628 L 11.1376,3.1628 L 11.1196,3.1628 L 11.1105,3.1628 L 11.1015,3.1628 L 11.0925,3.1628 L 11.0835,3.1628 L 11.0745,3.1628 L 11.0655,3.1537 L 11.0565,3.1537 L 11.0565,3.1447 L 11.0475,3.1447 L 11.0475,3.1357 L 11.0475,3.1267 L 11.0385,3.1267 L 11.0385,3.1177 L 11.0385,3.1087 L 11.0385,3.1177 L 11.0385,3.1267 L 11.0385,3.1357 L 11.0385,3.1447 L 11.0385,3.1537 L 11.0385,3.1628 L 11.0385,3.1718 L 11.0385,3.1808 L 11.0385,3.1898 L 11.0385,3.1988 L 11.0385,3.2078 L 11.0385,3.2258 L 11.0385,3.2348 L 11.0385,3.2438 L 11.0385,3.2529 L 11.0385,3.2619 L 11.0385,3.2709 L 11.0385,3.2799 L 11.0385,3.2889 L 11.0385,3.2979 L 11.0385,3.3069 L 11.0385,3.3159 L 11.0385,3.3249 L 11.0385,3.3340 L 11.0385,3.3430 L 11.0385,3.3520 L 11.0475,3.3520 L 11.0475,3.3610 L 11.0475,3.3700 L 11.0565,3.3700 L 11.0565,3.3790 L 11.0655,3.3790 L 11.0745,3.3880 L 11.0835,3.3880 L 11.0925,3.3880 L 11.1015,3.3880 L 11.1105,3.3880 L 11.1286,3.3880 L 11.1466,3.3880 L 11.1646,3.3880 L 11.1826,3.3880 L 11.2097,3.3880 L 11.2367,3.3880 L 11.2637,3.3880 L 11.2998,3.3880 L 11.3268,3.3880 L 11.3629,3.3880 L 11.3899,3.3880 L 11.4259,3.3880 L 11.4620,3.3880 L 11.4980,3.3880 L 11.5341,3.3880 L 11.5701,3.3880 L 11.6062,3.3880 L 11.6332,3.3880 L 11.6692,3.3880 L 11.7053,3.3880 L 11.7323,3.3880 L 11.7684,3.3880 L 11.7954,3.3880 L 11.8224,3.3880 L 11.8494,3.3880 L 11.8765,3.3880 L 11.8945,3.3880 L 11.9125,3.3880 L 11.9215,3.3790 L 11.9305,3.3700 L 11.9396,3.3700 L 11.9486,3.3610 L 11.9576,3.3520 L 11.9576,3.3430 L 11.9666,3.3340 L 11.9666,3.3249 L 11.9756,3.3159 L 11.9756,3.3069 L 11.9756,3.2979 L 11.9846,3.2889 L 11.9846,3.2799 L 11.9846,3.2709 L 11.9846,3.2619 L 11.9846,3.2529 L 11.9756,3.2438 L 11.9756,3.2348 L 11.9756,3.2258 L 11.9756,3.2168 L 11.9666,3.2168 L 11.9666,3.2078 L 11.9576,3.1988 L 11.9486,3.1898 L 11.9396,3.1808 L 11.9305,3.1808 L 11.9305,3.1718 L 11.9215,3.1718 L 11.9125,3.1628 L 11.9035,3.1628 Z" stroke="#161616" stroke-width="0.1196" stroke-linecap="round" stroke-linejoin="round" fill="#161616"/>
        <path d="M 12.5253,2.9014 L 12.5073,2.9014 L 12.4982,2.9014 L 12.4802,2.9014 L 12.4712,2.9014 L 12.4532,2.9014 L 12.4442,2.9014 L 12.4262,2.9014 L 12.4171,2.9014 L 12.4081,2.9014 L 12.3991,2.9014 L 12.3811,2.9014 L 12.3721,2.9014 L 12.3631,2.9014 L 12.3541,2.9014 L 12.3451,2.9014 L 12.3360,2.9014 L 12.3270,2.9014 L 12.3180,2.9014 L 12.3090,2.9014 L 12.3000,2.9014 L 12.2910,2.9014 L 12.2820,2.9014 L 12.2730,2.9014 L 12.2640,2.9014 L 12.2549,2.9014 L 12.2459,2.8924 L 12.2369,2.8924 L 12.2279,2.8834 L 12.2189,2.8744 L 12.2099,2.8654 L 12.2099,2.8564 L 12.2009,2.8474 L 12.2009,2.8384 L 12.2009,2.8294 L 12.2009,2.8203 L 12.2009,2.8113 L 12.2009,2.8023 L 12.2009,2.7933 L 12.2009,2.7843 L 12.2009,2.7753 L 12.2009,2.7663 L 12.2009,2.7573 L 12.2009,2.7483 L 12.2009,2.7393 L 12.2009,2.7302 L 12.2099,2.7212 L 12.2099,2.7122 L 12.2189,2.7032 L 12.2279,2.7032 L 12.2279,2.6942 L 12.2369,2.6852 L 12.2459,2.6852 L 12.2549,2.6762 L 12.2640,2.6762 L 12.2730,2.6762 L 12.2820,2.6762 L 12.3000,2.6762 L 12.3270,2.6762 L 12.3541,2.6762 L 12.3811,2.6762 L 12.4171,2.6762 L 12.4622,2.6762 L 12.4982,2.6762 L 12.5523,2.6762 L 12.5974,2.6762 L 12.6514,2.6762 L 12.7055,2.6762 L 12.7596,2.6762 L 12.8136,2.6762 L 12.8677,2.6762 L 12.9218,2.6762 L 12.9758,2.6762 L 13.0299,2.6762 L 13.0840,2.6762 L 13.1380,2.6762 L 13.1831,2.6762 L 13.2371,2.6762 L 13.2732,2.6762 L 13.3182,2.6762 L 13.3543,2.6762 L 13.3813,2.6762 L 13.4084,2.6762 L 13.4354,2.6762 L 13.4534,2.6762 L 13.4624,2.6762 L 13.4714,2.6762 L 13.4804,2.6762 L 13.4894,2.6852 L 13.4985,2.6852 L 13.5075,2.6942 L 13.5165,2.7032 L 13.5255,2.7122 L 13.5255,2.7212 L 13.5345,2.7302 L 13.5345,2.7393 L 13.5345,2.7483 L 13.5345,2.7573 L 13.5345,2.7663 L 13.5345,2.7753 L 13.5345,2.7843 L 13.5345,2.7933 L 13.5345,2.8023 L 13.5345,2.8113 L 13.5345,2.8203 L 13.5345,2.8294 L 13.5345,2.8384 L 13.5345,2.8564 L 13.5345,2.8654 L 13.5345,2.8744 L 13.5345,2.8834 L 13.5345,2.8924 L 13.5345,2.9014 L 13.5345,2.9105 L 13.5345,2.9195 L 13.5345,2.9285 L 13.5345,2.9375 L 13.5345,2.9465 L 13.5345,2.9555 L 13.5345,2.9465 L 13.5345,2.9375 L 13.5255,2.9375 L 13.5255,2.9285 L 13.5165,2.9285 L 13.5165,2.9195 L 13.5075,2.9195 L 13.5075,2.9105 L 13.4985,2.9105 L 13.4894,2.9105 L 13.4894,2.9014 L 13.4804,2.9014 L 13.4714,2.9014 L 13.4624,2.9014 L 13.4534,2.9014 L 13.4444,2.9014 L 13.4354,2.9014 L 13.4264,2.9014 L 13.4084,2.9014 L 13.3993,2.9014 L 13.3813,2.9014 L 13.3633,2.9014 L 13.3453,2.9014 L 13.3273,2.9014 L 13.3092,2.9014 L 13.2822,2.9014 L 13.2642,2.9014 L 13.2371,2.9014 L 13.2101,2.9014 L 13.1921,2.9014 L 13.1651,2.9014 L 13.1380,2.9014 L 13.1110,2.9014 L 13.0840,2.9014 L 13.0569,2.9014 L 13.0299,2.9014 L 13.0029,2.9014 L 12.9758,2.9014 L 12.9488,2.9014 L 12.9218,2.9014 L 12.8947,2.9014 L 12.8677,2.9014 L 12.8407,2.9014 L 12.8316,2.9014 L 12.8226,2.9014 L 12.8226,2.9105 L 12.8136,2.9105 L 12.8046,2.9105 L 12.8046,2.9195 L 12.7956,2.9195 L 12.7956,2.9285 L 12.7956,2.9375 L 12.7866,2.9375 L 12.7866,2.9465 L 12.7866,2.9555 L 12.7866,2.9645 L 12.7866,2.9735 L 12.7866,2.9916 L 12.7866,3.0096 L 12.7866,3.0276 L 12.7866,3.0546 L 12.7866,3.0817 L 12.7866,3.1087 L 12.7866,3.1447 L 12.7866,3.1808 L 12.7866,3.2078 L 12.7866,3.2438 L 12.7866,3.2889 L 12.7866,3.3249 L 12.7866,3.3610 L 12.7866,3.3970 L 12.7866,3.4331 L 12.7866,3.4781 L 12.7866,3.5142 L 12.7866,3.5412 L 12.7866,3.5772 L 12.7866,3.6133 L 12.7866,3.6403 L 12.7866,3.6674 L 12.7866,3.6944 L 12.7866,3.7124 L 12.7866,3.7304 L 12.7866,3.7484 L 12.7866,3.7575 L 12.7866,3.7665 L 12.7866,3.7755 L 12.7866,3.7845 L 12.7866,3.7935 L 12.7956,3.7935 L 12.7956,3.8025 L 12.7956,3.8115 L 12.8046,3.8115 L 12.8046,3.8205 L 12.8136,3.8205 L 12.8136,3.8295 L 12.8226,3.8295 L 12.8316,3.8295 L 12.8226,3.8295 L 12.8136,3.8295 L 12.8046,3.8295 L 12.7956,3.8295 L 12.7866,3.8295 L 12.7776,3.8295 L 12.7686,3.8295 L 12.7596,3.8295 L 12.7505,3.8295 L 12.7325,3.8295 L 12.7235,3.8295 L 12.7145,3.8295 L 12.7055,3.8295 L 12.6965,3.8295 L 12.6785,3.8295 L 12.6694,3.8295 L 12.6604,3.8295 L 12.6514,3.8295 L 12.6424,3.8295 L 12.6334,3.8295 L 12.6244,3.8295 L 12.6154,3.8295 L 12.6064,3.8295 L 12.5974,3.8295 L 12.5884,3.8295 L 12.5793,3.8295 L 12.5703,3.8205 L 12.5613,3.8205 L 12.5523,3.8115 L 12.5433,3.8025 L 12.5343,3.7935 L 12.5343,3.7845 L 12.5253,3.7755 L 12.5253,3.7665 L 12.5253,3.7575 L 12.5253,3.7484 L 12.5253,3.7394 L 12.5253,3.7304 L 12.5253,3.7214 L 12.5253,3.7034 L 12.5253,3.6854 L 12.5253,3.6583 L 12.5253,3.6403 L 12.5253,3.6133 L 12.5253,3.5863 L 12.5253,3.5592 L 12.5253,3.5232 L 12.5253,3.4961 L 12.5253,3.4601 L 12.5253,3.4241 L 12.5253,3.3970 L 12.5253,3.3610 L 12.5253,3.3249 L 12.5253,3.2889 L 12.5253,3.2529 L 12.5253,3.2168 L 12.5253,3.1808 L 12.5253,3.1447 L 12.5253,3.1087 L 12.5253,3.0817 L 12.5253,3.0456 L 12.5253,3.0096 L 12.5253,2.9825 L 12.5253,2.9555 L 12.5253,2.9285 L 12.5253,2.9014 Z" stroke="#161616" stroke-width="0.1196" stroke-linecap="round" stroke-linejoin="round" fill="#161616"/>
        <path d="M 11.9936,3.6043 L 12.0026,3.6043 L 12.0116,3.6043 L 12.0116,3.5953 L 12.0207,3.5953 L 12.0297,3.5953 L 12.0297,3.5863 L 12.0387,3.5863 L 12.0387,3.5772 L 12.0477,3.5772 L 12.0477,3.5682 L 12.0567,3.5682 L 12.0567,3.5592 L 12.0567,3.5502 L 12.0567,3.5592 L 12.0567,3.5682 L 12.0567,3.5772 L 12.0567,3.5863 L 12.0567,3.5953 L 12.0567,3.6043 L 12.0567,3.6133 L 12.0567,3.6223 L 12.0567,3.6313 L 12.0567,3.6403 L 12.0567,3.6583 L 12.0567,3.6674 L 12.0567,3.6764 L 12.0567,3.6854 L 12.0567,3.6944 L 12.0567,3.7034 L 12.0567,3.7124 L 12.0567,3.7214 L 12.0567,3.7304 L 12.0567,3.7394 L 12.0567,3.7484 L 12.0567,3.7575 L 12.0567,3.7665 L 12.0567,3.7755 L 12.0477,3.7845 L 12.0477,3.7935 L 12.0387,3.8025 L 12.0387,3.8115 L 12.0297,3.8115 L 12.0207,3.8205 L 12.0116,3.8205 L 12.0026,3.8295 L 11.9936,3.8295 L 11.9846,3.8295 L 11.9756,3.8295 L 11.9576,3.8295 L 11.9305,3.8295 L 11.9035,3.8295 L 11.8765,3.8295 L 11.8404,3.8295 L 11.7954,3.8295 L 11.7593,3.8295 L 11.7053,3.8295 L 11.6602,3.8295 L 11.6062,3.8295 L 11.5521,3.8295 L 11.4980,3.8295 L 11.4440,3.8295 L 11.3899,3.8295 L 11.3358,3.8295 L 11.2818,3.8295 L 11.2277,3.8295 L 11.1736,3.8295 L 11.1196,3.8295 L 11.0745,3.8295 L 11.0204,3.8295 L 10.9844,3.8295 L 10.9393,3.8295 L 10.9033,3.8295 L 10.8763,3.8295 L 10.8492,3.8295 L 10.8222,3.8295 L 10.8042,3.8295 L 10.7952,3.8295 L 10.7862,3.8295 L 10.7771,3.8295 L 10.7681,3.8205 L 10.7591,3.8205 L 10.7501,3.8115 L 10.7411,3.8025 L 10.7321,3.7935 L 10.7321,3.7845 L 10.7231,3.7755 L 10.7231,3.7665 L 10.7231,3.7575 L 10.7231,3.7484 L 10.7231,3.7304 L 10.7231,3.7124 L 10.7231,3.6944 L 10.7231,3.6674 L 10.7231,3.6313 L 10.7231,3.6043 L 10.7231,3.5592 L 10.7231,3.5232 L 10.7231,3.4781 L 10.7231,3.4421 L 10.7231,3.3970 L 10.7231,3.3430 L 10.7231,3.2979 L 10.7231,3.2529 L 10.7231,3.2078 L 10.7231,3.1628 L 10.7231,3.1087 L 10.7231,3.0636 L 10.7231,3.0276 L 10.7231,2.9825 L 10.7231,2.9465 L 10.7231,2.9105 L 10.7231,2.8744 L 10.7231,2.8384 L 10.7231,2.8113 L 10.7231,2.7933 L 10.7231,2.7753 L 10.7231,2.7573 L 10.7231,2.7483 L 10.7231,2.7393 L 10.7231,2.7302 L 10.7321,2.7212 L 10.7321,2.7122 L 10.7411,2.7032 L 10.7501,2.7032 L 10.7501,2.6942 L 10.7591,2.6852 L 10.7681,2.6852 L 10.7771,2.6762 L 10.7862,2.6762 L 10.7952,2.6762 L 10.8042,2.6762 L 10.8222,2.6762 L 10.8492,2.6762 L 10.8763,2.6762 L 10.9033,2.6762 L 10.9393,2.6762 L 10.9844,2.6762 L 11.0204,2.6762 L 11.0745,2.6762 L 11.1196,2.6762 L 11.1736,2.6762 L 11.2277,2.6762 L 11.2818,2.6762 L 11.3358,2.6762 L 11.3899,2.6762 L 11.4440,2.6762 L 11.4980,2.6762 L 11.5521,2.6762 L 11.6062,2.6762 L 11.6602,2.6762 L 11.7053,2.6762 L 11.7593,2.6762 L 11.7954,2.6762 L 11.8404,2.6762 L 11.8765,2.6762 L 11.9035,2.6762 L 11.9305,2.6762 L 11.9576,2.6762 L 11.9756,2.6762 L 11.9846,2.6762 L 11.9936,2.6762 L 12.0026,2.6762 L 12.0116,2.6852 L 12.0207,2.6852 L 12.0297,2.6942 L 12.0387,2.7032 L 12.0477,2.7122 L 12.0477,2.7212 L 12.0567,2.7302 L 12.0567,2.7393 L 12.0567,2.7483 L 12.0567,2.7573 L 12.0567,2.7663 L 12.0567,2.7753 L 12.0567,2.7843 L 12.0567,2.7933 L 12.0567,2.8023 L 12.0567,2.8113 L 12.0567,2.8203 L 12.0567,2.8294 L 12.0567,2.8384 L 12.0567,2.8564 L 12.0567,2.8654 L 12.0567,2.8744 L 12.0567,2.8834 L 12.0567,2.8924 L 12.0567,2.9014 L 12.0567,2.9105 L 12.0567,2.9195 L 12.0567,2.9285 L 12.0567,2.9375 L 12.0567,2.9465 L 12.0567,2.9555 L 12.0567,2.9465 L 12.0567,2.9375 L 12.0477,2.9375 L 12.0477,2.9285 L 12.0387,2.9285 L 12.0387,2.9195 L 12.0297,2.9195 L 12.0297,2.9105 L 12.0207,2.9105 L 12.0116,2.9105 L 12.0116,2.9014 L 12.0026,2.9014 L 11.9936,2.9014 L 11.9846,2.9014 L 11.9666,2.9014 L 11.9486,2.9014 L 11.9305,2.9014 L 11.9035,2.9014 L 11.8765,2.9014 L 11.8404,2.9014 L 11.8134,2.9014 L 11.7684,2.9014 L 11.7323,2.9014 L 11.6873,2.9014 L 11.6512,2.9014 L 11.6062,2.9014 L 11.5611,2.9014 L 11.5160,2.9014 L 11.4710,2.9014 L 11.4259,2.9014 L 11.3809,2.9014 L 11.3448,2.9014 L 11.2998,2.9014 L 11.2637,2.9014 L 11.2187,2.9014 L 11.1916,2.9014 L 11.1556,2.9014 L 11.1286,2.9014 L 11.1015,2.9014 L 11.0835,2.9014 L 11.0655,2.9014 L 11.0475,2.9014 L 11.0385,2.9014 L 11.0294,2.9014 L 11.0204,2.9014 L 11.0204,2.9105 L 11.0114,2.9105 L 11.0024,2.9105 L 11.0024,2.9195 L 10.9934,2.9195 L 10.9934,2.9285 L 10.9934,2.9375 L 10.9844,2.9375 L 10.9844,2.9465 L 10.9844,2.9555 L 10.9844,2.9645 L 10.9844,2.9735 L 10.9844,2.9825 L 10.9844,2.9916 L 10.9844,3.0096 L 10.9844,3.0276 L 10.9844,3.0366 L 10.9844,3.0546 L 10.9844,3.0817 L 10.9844,3.0997 L 10.9844,3.1177 L 10.9844,3.1447 L 10.9844,3.1718 L 10.9844,3.1898 L 10.9844,3.2168 L 10.9844,3.2438 L 10.9844,3.2709 L 10.9844,3.2979 L 10.9844,3.3249 L 10.9844,3.3520 L 10.9844,3.3790 L 10.9844,3.4060 L 10.9844,3.4331 L 10.9844,3.4601 L 10.9844,3.4871 L 10.9844,3.5052 L 10.9844,3.5322 L 10.9844,3.5592 L 10.9844,3.5863 L 10.9844,3.6043 L 10.9934,3.6043 L 11.0114,3.6043 L 11.0294,3.6043 L 11.0475,3.6043 L 11.0745,3.6043 L 11.1105,3.6043 L 11.1466,3.6043 L 11.1826,3.6043 L 11.2187,3.6043 L 11.2637,3.6043 L 11.2998,3.6043 L 11.3448,3.6043 L 11.3989,3.6043 L 11.4440,3.6043 L 11.4890,3.6043 L 11.5341,3.6043 L 11.5791,3.6043 L 11.6332,3.6043 L 11.6782,3.6043 L 11.7143,3.6043 L 11.7593,3.6043 L 11.7954,3.6043 L 11.8404,3.6043 L 11.8675,3.6043 L 11.9035,3.6043 L 11.9305,3.6043 L 11.9486,3.6043 L 11.9666,3.6043 L 11.9846,3.6043 L 11.9936,3.6043 Z" stroke="#161616" stroke-width="0.1196" stroke-linecap="round" stroke-linejoin="round" fill="#161616"/>
        <path d="M 4.7938,3.4961 L 4.7938,3.8295 L 5.2264,3.8295 L 5.2264,3.4961 L 4.7938,3.4961 Z" stroke="#ED3440" stroke-width="0.1196" stroke-linecap="round" stroke-linejoin="round" fill="#ED3440"/>
        <path d="M 4.3433,3.0907 L 4.7127,3.0907 L 4.7127,3.4151 L 4.3433,3.4151 L 4.3433,3.0907 Z" stroke="#ED3440" stroke-width="0.1196" stroke-linecap="round" stroke-linejoin="round" fill="#ED3440"/>
        <path d="M 5.3075,3.4961 L 5.3075,3.5052 L 5.3075,3.5142 L 5.3075,3.5232 L 5.3075,3.5412 L 5.3075,3.5502 L 5.3075,3.5592 L 5.3075,3.5772 L 5.3075,3.5863 L 5.3075,3.6043 L 5.3075,3.6133 L 5.3075,3.6313 L 5.3075,3.6493 L 5.3075,3.6674 L 5.3075,3.6764 L 5.3075,3.6944 L 5.3075,3.7124 L 5.3075,3.7214 L 5.3075,3.7394 L 5.3075,3.7484 L 5.3075,3.7665 L 5.3075,3.7755 L 5.3075,3.7845 L 5.3075,3.8025 L 5.3075,3.8115 L 5.3075,3.8205 L 5.3075,3.8295 L 5.3255,3.8295 L 5.3435,3.8295 L 5.3615,3.8295 L 5.3705,3.8295 L 5.3886,3.8295 L 5.4066,3.8295 L 5.4246,3.8295 L 5.4426,3.8295 L 5.4516,3.8205 L 5.4697,3.8205 L 5.4877,3.8205 L 5.4967,3.8115 L 5.5147,3.8115 L 5.5327,3.8025 L 5.5418,3.7935 L 5.5598,3.7845 L 5.5688,3.7755 L 5.5778,3.7665 L 5.5958,3.7575 L 5.6048,3.7484 L 5.6138,3.7304 L 5.6229,3.7214 L 5.6319,3.7034 L 5.6409,3.6854 L 5.6499,3.6674 L 5.6589,3.6493 L 5.6589,3.6313 L 5.6679,3.6043 L 5.6679,3.5772 L 5.6769,3.5502 L 5.6769,3.5232 L 5.6769,3.4961 L 5.6679,3.4961 L 5.6589,3.4961 L 5.6499,3.4961 L 5.6409,3.4961 L 5.6319,3.4961 L 5.6229,3.4961 L 5.6048,3.4961 L 5.5868,3.4961 L 5.5778,3.4961 L 5.5598,3.4961 L 5.5418,3.4961 L 5.5237,3.4961 L 5.5057,3.4961 L 5.4967,3.4961 L 5.4787,3.4961 L 5.4607,3.4961 L 5.4426,3.4961 L 5.4246,3.4961 L 5.4066,3.4961 L 5.3976,3.4961 L 5.3796,3.4961 L 5.3615,3.4961 L 5.3525,3.4961 L 5.3435,3.4961 L 5.3345,3.4961 L 5.3255,3.4961 L 5.3165,3.4961 L 5.3075,3.4961 Z" stroke="#ED3440" stroke-width="0.1196" stroke-linecap="round" stroke-linejoin="round" fill="#ED3440"/>
        <path d="M 5.3075,3.0907 L 5.6769,3.0907 L 5.6769,3.4151 L 5.3075,3.4151 L 5.3075,3.0907 Z" stroke="#ED3440" stroke-width="0.1196" stroke-linecap="round" stroke-linejoin="round" fill="#ED3440"/>
        <path d="M 4.7127,3.4961 L 4.7127,3.5052 L 4.7127,3.5142 L 4.7127,3.5232 L 4.7127,3.5412 L 4.7127,3.5502 L 4.7127,3.5592 L 4.7127,3.5772 L 4.7127,3.5863 L 4.7127,3.6043 L 4.7127,3.6133 L 4.7127,3.6313 L 4.7127,3.6493 L 4.7127,3.6674 L 4.7127,3.6764 L 4.7127,3.6944 L 4.7127,3.7124 L 4.7127,3.7214 L 4.7127,3.7394 L 4.7127,3.7484 L 4.7127,3.7665 L 4.7127,3.7755 L 4.7127,3.7845 L 4.7127,3.8025 L 4.7127,3.8115 L 4.7127,3.8205 L 4.7127,3.8295 L 4.6947,3.8295 L 4.6767,3.8295 L 4.6587,3.8295 L 4.6497,3.8295 L 4.6316,3.8295 L 4.6136,3.8295 L 4.5956,3.8295 L 4.5776,3.8295 L 4.5686,3.8205 L 4.5505,3.8205 L 4.5325,3.8205 L 4.5235,3.8115 L 4.5055,3.8115 L 4.4875,3.8025 L 4.4785,3.7935 L 4.4604,3.7845 L 4.4514,3.7755 L 4.4424,3.7665 L 4.4244,3.7575 L 4.4154,3.7484 L 4.4064,3.7304 L 4.3974,3.7214 L 4.3884,3.7034 L 4.3793,3.6854 L 4.3703,3.6674 L 4.3613,3.6493 L 4.3613,3.6313 L 4.3523,3.6043 L 4.3523,3.5772 L 4.3433,3.5502 L 4.3433,3.5232 L 4.3433,3.4961 L 4.3523,3.4961 L 4.3613,3.4961 L 4.3703,3.4961 L 4.3793,3.4961 L 4.3884,3.4961 L 4.3974,3.4961 L 4.4154,3.4961 L 4.4334,3.4961 L 4.4424,3.4961 L 4.4604,3.4961 L 4.4785,3.4961 L 4.4965,3.4961 L 4.5145,3.4961 L 4.5325,3.4961 L 4.5415,3.4961 L 4.5596,3.4961 L 4.5776,3.4961 L 4.5956,3.4961 L 4.6136,3.4961 L 4.6226,3.4961 L 4.6407,3.4961 L 4.6587,3.4961 L 4.6677,3.4961 L 4.6767,3.4961 L 4.6857,3.4961 L 4.6947,3.4961 L 4.7037,3.4961 L 4.7127,3.4961 Z" stroke="#ED3440" stroke-width="0.1196" stroke-linecap="round" stroke-linejoin="round" fill="#ED3440"/>
        <path d="M 4.7938,2.6762 L 4.7938,3.0096 L 5.2264,3.0096 L 5.2264,2.6762 L 4.7938,2.6762 Z" stroke="#ED3440" stroke-width="0.1196" stroke-linecap="round" stroke-linejoin="round" fill="#ED3440"/>
        <path d="M 5.3075,3.0096 L 5.3075,3.0006 L 5.3075,2.9916 L 5.3075,2.9825 L 5.3075,2.9645 L 5.3075,2.9555 L 5.3075,2.9465 L 5.3075,2.9285 L 5.3075,2.9195 L 5.3075,2.9014 L 5.3075,2.8924 L 5.3075,2.8744 L 5.3075,2.8564 L 5.3075,2.8474 L 5.3075,2.8294 L 5.3075,2.8113 L 5.3075,2.7933 L 5.3075,2.7843 L 5.3075,2.7663 L 5.3075,2.7573 L 5.3075,2.7393 L 5.3075,2.7302 L 5.3075,2.7212 L 5.3075,2.7032 L 5.3075,2.6942 L 5.3075,2.6852 L 5.3075,2.6762 L 5.3255,2.6762 L 5.3435,2.6762 L 5.3615,2.6762 L 5.3705,2.6762 L 5.3886,2.6762 L 5.4066,2.6762 L 5.4246,2.6762 L 5.4426,2.6762 L 5.4516,2.6852 L 5.4697,2.6852 L 5.4877,2.6852 L 5.4967,2.6942 L 5.5147,2.6942 L 5.5327,2.7032 L 5.5418,2.7122 L 5.5598,2.7212 L 5.5688,2.7302 L 5.5778,2.7393 L 5.5958,2.7483 L 5.6048,2.7573 L 5.6138,2.7753 L 5.6229,2.7843 L 5.6319,2.8023 L 5.6409,2.8203 L 5.6499,2.8384 L 5.6589,2.8564 L 5.6589,2.8744 L 5.6679,2.9014 L 5.6679,2.9285 L 5.6769,2.9555 L 5.6769,2.9825 L 5.6769,3.0096 L 5.6679,3.0096 L 5.6589,3.0096 L 5.6499,3.0096 L 5.6409,3.0096 L 5.6319,3.0096 L 5.6229,3.0096 L 5.6048,3.0096 L 5.5868,3.0096 L 5.5778,3.0096 L 5.5598,3.0096 L 5.5418,3.0096 L 5.5237,3.0096 L 5.5057,3.0096 L 5.4967,3.0096 L 5.4787,3.0096 L 5.4607,3.0096 L 5.4426,3.0096 L 5.4246,3.0096 L 5.4066,3.0096 L 5.3976,3.0096 L 5.3796,3.0096 L 5.3615,3.0096 L 5.3525,3.0096 L 5.3435,3.0096 L 5.3345,3.0096 L 5.3255,3.0096 L 5.3165,3.0096 L 5.3075,3.0096 Z" stroke="#ED3440" stroke-width="0.1196" stroke-linecap="round" stroke-linejoin="round" fill="#ED3440"/>
        <path d="M 4.7127,3.0096 L 4.7127,3.0006 L 4.7127,2.9916 L 4.7127,2.9825 L 4.7127,2.9645 L 4.7127,2.9555 L 4.7127,2.9465 L 4.7127,2.9285 L 4.7127,2.9195 L 4.7127,2.9014 L 4.7127,2.8924 L 4.7127,2.8744 L 4.7127,2.8564 L 4.7127,2.8474 L 4.7127,2.8294 L 4.7127,2.8113 L 4.7127,2.7933 L 4.7127,2.7843 L 4.7127,2.7663 L 4.7127,2.7573 L 4.7127,2.7393 L 4.7127,2.7302 L 4.7127,2.7212 L 4.7127,2.7032 L 4.7127,2.6942 L 4.7127,2.6852 L 4.7127,2.6762 L 4.6947,2.6762 L 4.6767,2.6762 L 4.6587,2.6762 L 4.6497,2.6762 L 4.6316,2.6762 L 4.6136,2.6762 L 4.5956,2.6762 L 4.5776,2.6762 L 4.5686,2.6852 L 4.5505,2.6852 L 4.5325,2.6852 L 4.5235,2.6942 L 4.5055,2.6942 L 4.4875,2.7032 L 4.4785,2.7122 L 4.4604,2.7212 L 4.4514,2.7302 L 4.4424,2.7393 L 4.4244,2.7483 L 4.4154,2.7573 L 4.4064,2.7753 L 4.3974,2.7843 L 4.3884,2.8023 L 4.3793,2.8203 L 4.3703,2.8384 L 4.3613,2.8564 L 4.3613,2.8744 L 4.3523,2.9014 L 4.3523,2.9285 L 4.3433,2.9555 L 4.3433,2.9825 L 4.3433,3.0096 L 4.3523,3.0096 L 4.3613,3.0096 L 4.3703,3.0096 L 4.3793,3.0096 L 4.3884,3.0096 L 4.3974,3.0096 L 4.4154,3.0096 L 4.4334,3.0096 L 4.4424,3.0096 L 4.4604,3.0096 L 4.4785,3.0096 L 4.4965,3.0096 L 4.5145,3.0096 L 4.5325,3.0096 L 4.5415,3.0096 L 4.5596,3.0096 L 4.5776,3.0096 L 4.5956,3.0096 L 4.6136,3.0096 L 4.6226,3.0096 L 4.6407,3.0096 L 4.6587,3.0096 L 4.6677,3.0096 L 4.6767,3.0096 L 4.6857,3.0096 L 4.6947,3.0096 L 4.7037,3.0096 L 4.7127,3.0096 Z" stroke="#ED3440" stroke-width="0.1196" stroke-linecap="round" stroke-linejoin="round" fill="#ED3440"/>
        <text font-family="Symbol" fill="#000000" style="white-space:pre;" text-anchor="start" x="13.1048" y="3.8300" font-size="0.5509"><![CDATA[]]></text>
        <path d="M 46.1906,3.9054 L 44.2057,3.9054 L 44.2057,4.7144 L 46.1906,4.7144 L 46.1906,3.9054 Z" stroke="#F7F7F7" stroke-width="0.1196" stroke-linecap="round" stroke-linejoin="round" fill="#F7F7F7"/>
        <path d="M 50.9848,7.0236 L 50.4491,7.0236 L 50.4491,7.5547 L 50.9848,7.5547 L 50.9848,7.0236 Z" stroke="#000000" stroke-width="0.1196" stroke-linecap="round" stroke-linejoin="round" fill="#00FF00"/>
        <path d="M 49.4178,7.0236 L 48.8822,7.0236 L 48.8822,7.5547 L 49.4178,7.5547 L 49.4178,7.0236 Z" stroke="#000000" stroke-width="0.1196" stroke-linecap="round" stroke-linejoin="round" fill="#00FF00"/>
        <path d="M 47.8375,7.0236 L 47.3019,7.0236 L 47.3019,7.5547 L 47.8375,7.5547 L 47.8375,7.0236 Z" stroke="#000000" stroke-width="0.1196" stroke-linecap="round" stroke-linejoin="round" fill="#00FF00"/>
        <path d="M 46.2706,7.0236 L 45.7349,7.0236 L 45.7349,7.5547 L 46.2706,7.5547 L 46.2706,7.0236 Z" stroke="#000000" stroke-width="0.1196" stroke-linecap="round" stroke-linejoin="round" fill="#00FF00"/>
        <path d="M 44.6903,7.0236 L 44.1546,7.0236 L 44.1546,7.5547 L 44.6903,7.5547 L 44.6903,7.0236 Z" stroke="#000000" stroke-width="0.1196" stroke-linecap="round" stroke-linejoin="round" fill="#00FF00"/>
        <path d="M 43.1100,7.0236 L 42.5743,7.0236 L 42.5743,7.5547 L 43.1100,7.5547 L 43.1100,7.0236 Z" stroke="#000000" stroke-width="0.1196" stroke-linecap="round" stroke-linejoin="round" fill="#00FF00"/>
        <path d="M 41.5431,7.0236 L 41.0074,7.0236 L 41.0074,7.5547 L 41.5431,7.5547 L 41.5431,7.0236 Z" stroke="#000000" stroke-width="0.1196" stroke-linecap="round" stroke-linejoin="round" fill="#00FF00"/>
        <path d="M 39.9628,7.0236 L 39.4271,7.0236 L 39.4271,7.5547 L 39.9628,7.5547 L 39.9628,7.0236 Z" stroke="#000000" stroke-width="0.1196" stroke-linecap="round" stroke-linejoin="round" fill="#00FF00"/>
        <path d="M 38.3959,7.0236 L 37.8602,7.0236 L 37.8602,7.5547 L 38.3959,7.5547 L 38.3959,7.0236 Z" stroke="#000000" stroke-width="0.1196" stroke-linecap="round" stroke-linejoin="round" fill="#00FF00"/>
        <path d="M 36.8156,7.0236 L 36.2799,7.0236 L 36.2799,7.5547 L 36.8156,7.5547 L 36.8156,7.0236 Z" stroke="#000000" stroke-width="0.1196" stroke-linecap="round" stroke-linejoin="round" fill="#00FF00"/>
        <path d="M 50.9848,5.5764 L 50.4491,5.5764 L 50.4491,6.1075 L 50.9848,6.1075 L 50.9848,5.5764 Z" stroke="#000000" stroke-width="0.1196" stroke-linecap="round" stroke-linejoin="round" fill="#00FF00"/>
        <path d="M 49.4178,5.5764 L 48.8822,5.5764 L 48.8822,6.1075 L 49.4178,6.1075 L 49.4178,5.5764 Z" stroke="#000000" stroke-width="0.1196" stroke-linecap="round" stroke-linejoin="round" fill="#00FF00"/>
        <path d="M 47.8375,5.5764 L 47.3019,5.5764 L 47.3019,6.1075 L 47.8375,6.1075 L 47.8375,5.5764 Z" stroke="#000000" stroke-width="0.1196" stroke-linecap="round" stroke-linejoin="round" fill="#00FF00"/>
        <path d="M 46.2706,5.5764 L 45.7349,5.5764 L 45.7349,6.1075 L 46.2706,6.1075 L 46.2706,5.5764 Z" stroke="#000000" stroke-width="0.1196" stroke-linecap="round" stroke-linejoin="round" fill="#00FF00"/>
        <path d="M 44.6903,5.5764 L 44.1546,5.5764 L 44.1546,6.1075 L 44.6903,6.1075 L 44.6903,5.5764 Z" stroke="#000000" stroke-width="0.1196" stroke-linecap="round" stroke-linejoin="round" fill="#00FF00"/>
        <path d="M 43.1100,5.5764 L 42.5743,5.5764 L 42.5743,6.1075 L 43.1100,6.1075 L 43.1100,5.5764 Z" stroke="#000000" stroke-width="0.1196" stroke-linecap="round" stroke-linejoin="round" fill="#00FF00"/>
        <path d="M 41.5431,5.5764 L 41.0074,5.5764 L 41.0074,6.1075 L 41.5431,6.1075 L 41.5431,5.5764 Z" stroke="#000000" stroke-width="0.1196" stroke-linecap="round" stroke-linejoin="round" fill="#00FF00"/>
        <path d="M 39.9628,5.5764 L 39.4271,5.5764 L 39.4271,6.1075 L 39.9628,6.1075 L 39.9628,5.5764 Z" stroke="#000000" stroke-width="0.1196" stroke-linecap="round" stroke-linejoin="round" fill="#00FF00"/>
        <path d="M 38.3959,5.5764 L 37.8602,5.5764 L 37.8602,6.1075 L 38.3959,6.1075 L 38.3959,5.5764 Z" stroke="#000000" stroke-width="0.1196" stroke-linecap="round" stroke-linejoin="round" fill="#00FF00"/>
        <path d="M 36.8156,5.5764 L 36.2799,5.5764 L 36.2799,6.1075 L 36.8156,6.1075 L 36.8156,5.5764 Z" stroke="#000000" stroke-width="0.1196" stroke-linecap="round" stroke-linejoin="round" fill="#00FF00"/>
        <text font-family="Arial" fill="#000000" style="white-space:pre;" font-weight="400" text-anchor="start" x="49.5518" y="7.8623" font-size="0.1205"><![CDATA[SPEED]]></text>
        <text font-family="Arial" fill="#000000" style="white-space:pre;" font-weight="400" text-anchor="start" x="49.5518" y="7.5171" font-size="0.1205"><![CDATA[LINK/ACT]]></text>
        <text font-family="Arial" fill="#000000" style="white-space:pre;" font-weight="400" text-anchor="start" x="45.9760" y="7.3313" font-size="0.1205"><![CDATA[10]]></text>
        <text font-family="Arial" fill="#000000" style="white-space:pre;" font-weight="400" text-anchor="start" x="46.3778" y="7.3313" font-size="0.1205"><![CDATA[9]]></text>
        <text font-family="Arial" fill="#000000" style="white-space:pre;" font-weight="400" text-anchor="start" x="46.7528" y="7.3313" font-size="0.1205"><![CDATA[8]]></text>
        <text font-family="Arial" fill="#000000" style="white-space:pre;" font-weight="400" text-anchor="start" x="47.1277" y="7.3313" font-size="0.1205"><![CDATA[7]]></text>
        <text font-family="Arial" fill="#000000" style="white-space:pre;" font-weight="400" text-anchor="start" x="47.5027" y="7.3313" font-size="0.1205"><![CDATA[6]]></text>
        <text font-family="Arial" fill="#000000" style="white-space:pre;" font-weight="400" text-anchor="start" x="47.8643" y="7.3180" font-size="0.1205"><![CDATA[5]]></text>
        <text font-family="Arial" fill="#000000" style="white-space:pre;" font-weight="400" text-anchor="start" x="48.2527" y="7.3313" font-size="0.1205"><![CDATA[4]]></text>
        <text font-family="Arial" fill="#000000" style="white-space:pre;" font-weight="400" text-anchor="start" x="48.6277" y="7.3313" font-size="0.1205"><![CDATA[3]]></text>
        <text font-family="Arial" fill="#000000" style="white-space:pre;" font-weight="400" text-anchor="start" x="49.0161" y="7.3313" font-size="0.1205"><![CDATA[2]]></text>
        <text font-family="Arial" fill="#000000" style="white-space:pre;" font-weight="400" text-anchor="start" x="49.4045" y="7.3313" font-size="0.1205"><![CDATA[1]]></text>
      </g>
      <!--emf-blob end-->
    </g>
  </g>
</svg>
