<svg xmlns="http://www.w3.org/2000/svg" xmlns:xlink="http://www.w3.org/1999/xlink" version="1.1" width="7.6032000000" height="4.0000000000" viewBox="0 0 136.8567 72.0000">
  <title><![CDATA[FWN-200B]]></title>
  <g transform=" scale(4.000000) ">
    <!--converted by libvisio2svg-->
    <g transform=" translate(0.000000,23.357500) ">
      <!--emf-blob start-->
      <g transform="translate(-0.0000, -0.0000)">
        <path d="M 10.6529,2.0340 L 10.6529,2.8881 L 11.3957,2.8881 " stroke="#000000" stroke-width="0.1193" stroke-linecap="round" stroke-linejoin="round" fill="none"/>
        <path d="M 11.3957,2.0340 L 12.8617,2.0340 " stroke="#000000" stroke-width="0.1193" stroke-linecap="round" stroke-linejoin="round" fill="none"/>
        <path d="M 12.1189,2.0340 L 12.1189,2.8881 " stroke="#000000" stroke-width="0.1193" stroke-linecap="round" stroke-linejoin="round" fill="none"/>
        <path d="M 13.2331,2.0340 L 13.2331,2.8881 " stroke="#000000" stroke-width="0.1193" stroke-linecap="round" stroke-linejoin="round" fill="none"/>
        <path d="M 13.2331,2.0340 L 13.2331,2.8881 " stroke="#000000" stroke-width="0.1193" stroke-linecap="round" stroke-linejoin="round" fill="none"/>
        <path d="M 13.9563,2.8881 L 13.9563,2.0340 L 14.6991,2.8881 L 15.4419,2.0340 L 15.4419,2.8881 " stroke="#000000" stroke-width="0.1193" stroke-linecap="round" stroke-linejoin="round" fill="none"/>
        <path d="M 15.7937,2.8881 L 16.5365,2.0340 L 17.2792,2.8881 " stroke="#000000" stroke-width="0.1193" stroke-linecap="round" stroke-linejoin="round" fill="none"/>
        <path d="M 15.9892,2.6746 L 17.0838,2.6746 " stroke="#000000" stroke-width="0.1193" stroke-linecap="round" stroke-linejoin="round" fill="none"/>
        <path d="M 8.4442,2.8881 L 9.1869,2.0340 L 9.9297,2.8881 " stroke="#000000" stroke-width="0.1193" stroke-linecap="round" stroke-linejoin="round" fill="none"/>
        <path d="M 8.6396,2.6746 L 9.7342,2.6746 " stroke="#000000" stroke-width="0.1193" stroke-linecap="round" stroke-linejoin="round" fill="none"/>
        <path d="M 135.9106,0.0280 L 0.0279,0.0280 L 0.0279,12.5864 L 135.9106,12.5864 L 135.9106,0.0280 Z" stroke="#000000" stroke-width="0.1193" stroke-linecap="round" stroke-linejoin="round" fill="#EFEFEF"/>
        <path d="M 129.8205,0.0280 L 6.1181,0.0280 L 6.1181,12.5864 L 129.8205,12.5864 L 129.8205,0.0280 Z" stroke="#000000" stroke-width="0.1193" stroke-linecap="round" stroke-linejoin="round" fill="#EFEFEF"/>
        <path d="M 4.2743,1.7380 L 4.2743,1.6539 L 4.2603,1.5698 L 4.2324,1.4857 L 4.2044,1.4156 L 4.1765,1.3315 L 4.1346,1.2755 L 4.0787,1.2054 L 3.9670,1.0933 L 3.8971,1.0372 L 3.8413,0.9951 L 3.7574,0.9671 L 3.6876,0.9391 L 3.6038,0.9110 L 3.5200,0.8970 L 1.8159,0.8970 L 1.7321,0.9110 L 1.6482,0.9391 L 1.5784,0.9671 L 1.4946,0.9951 L 1.4387,1.0372 L 1.3689,1.0933 L 1.2571,1.2054 L 1.2013,1.2755 L 1.1594,1.3315 L 1.1314,1.4156 L 1.1035,1.4857 L 1.0756,1.5698 L 1.0616,1.6539 L 1.0616,1.8221 L 1.0756,1.9062 L 1.1035,1.9903 L 1.1314,2.0604 L 1.1594,2.1445 L 1.2013,2.2005 L 1.2571,2.2706 L 1.3689,2.3827 L 1.4387,2.4388 L 1.4946,2.4808 L 1.5784,2.5089 L 1.6482,2.5369 L 1.7321,2.5649 L 1.8159,2.5790 L 3.5200,2.5790 L 3.6038,2.5649 L 3.6876,2.5369 L 3.7574,2.5089 L 3.8413,2.4808 L 3.8971,2.4388 L 3.9670,2.3827 L 4.0787,2.2706 L 4.1346,2.2005 L 4.1765,2.1445 L 4.2044,2.0604 L 4.2324,1.9903 L 4.2603,1.9062 L 4.2743,1.8221 L 4.2743,1.7380 Z" stroke="#000000" stroke-width="0.1193" stroke-linecap="round" stroke-linejoin="round" fill="#FFFFFF"/>
        <path d="M 4.2743,10.8765 L 4.2743,10.7924 L 4.2603,10.7083 L 4.2324,10.6242 L 4.2044,10.5541 L 4.1765,10.4700 L 4.1346,10.4139 L 4.0787,10.3439 L 3.9670,10.2317 L 3.8971,10.1757 L 3.8413,10.1336 L 3.7574,10.1056 L 3.6876,10.0776 L 3.6038,10.0495 L 3.5200,10.0355 L 1.8159,10.0355 L 1.7321,10.0495 L 1.6482,10.0776 L 1.5784,10.1056 L 1.4946,10.1336 L 1.4387,10.1757 L 1.3689,10.2317 L 1.2571,10.3439 L 1.2013,10.4139 L 1.1594,10.4700 L 1.1314,10.5541 L 1.1035,10.6242 L 1.0756,10.7083 L 1.0616,10.7924 L 1.0616,10.9606 L 1.0756,11.0447 L 1.1035,11.1288 L 1.1314,11.1988 L 1.1594,11.2829 L 1.2013,11.3390 L 1.2571,11.4091 L 1.3689,11.5212 L 1.4387,11.5773 L 1.4946,11.6193 L 1.5784,11.6474 L 1.6482,11.6754 L 1.7321,11.7034 L 1.8159,11.7174 L 3.5200,11.7174 L 3.6038,11.7034 L 3.6876,11.6754 L 3.7574,11.6474 L 3.8413,11.6193 L 3.8971,11.5773 L 3.9670,11.5212 L 4.0787,11.4091 L 4.1346,11.3390 L 4.1765,11.2829 L 4.2044,11.1988 L 4.2324,11.1288 L 4.2603,11.0447 L 4.2743,10.9606 L 4.2743,10.8765 Z" stroke="#000000" stroke-width="0.1193" stroke-linecap="round" stroke-linejoin="round" fill="#FFFFFF"/>
        <path d="M 134.8770,1.7380 L 134.8770,1.6539 L 134.8630,1.5698 L 134.8351,1.4857 L 134.8071,1.4156 L 134.7792,1.3315 L 134.7373,1.2755 L 134.6814,1.2054 L 134.5697,1.0933 L 134.4998,1.0372 L 134.4440,0.9951 L 134.3602,0.9671 L 134.2903,0.9391 L 134.2065,0.9110 L 134.1227,0.8970 L 132.4186,0.8970 L 132.3348,0.9110 L 132.2510,0.9391 L 132.1811,0.9671 L 132.0973,0.9951 L 132.0414,1.0372 L 131.9716,1.0933 L 131.8599,1.2054 L 131.8040,1.2755 L 131.7621,1.3315 L 131.7341,1.4156 L 131.7062,1.4857 L 131.6783,1.5698 L 131.6643,1.6539 L 131.6643,1.8221 L 131.6783,1.9062 L 131.7062,1.9903 L 131.7341,2.0604 L 131.7621,2.1445 L 131.8040,2.2005 L 131.8599,2.2706 L 131.9716,2.3827 L 132.0414,2.4388 L 132.0973,2.4808 L 132.1811,2.5089 L 132.2510,2.5369 L 132.3348,2.5649 L 132.4186,2.5790 L 134.1227,2.5790 L 134.2065,2.5649 L 134.2903,2.5369 L 134.3602,2.5089 L 134.4440,2.4808 L 134.4998,2.4388 L 134.5697,2.3827 L 134.6814,2.2706 L 134.7373,2.2005 L 134.7792,2.1445 L 134.8071,2.0604 L 134.8351,1.9903 L 134.8630,1.9062 L 134.8770,1.8221 L 134.8770,1.7380 Z" stroke="#000000" stroke-width="0.1193" stroke-linecap="round" stroke-linejoin="round" fill="#FFFFFF"/>
        <path d="M 134.8770,10.8765 L 134.8770,10.7924 L 134.8630,10.7083 L 134.8351,10.6242 L 134.8071,10.5541 L 134.7792,10.4700 L 134.7373,10.4139 L 134.6814,10.3439 L 134.5697,10.2317 L 134.4998,10.1757 L 134.4440,10.1336 L 134.3602,10.1056 L 134.2903,10.0776 L 134.2065,10.0495 L 134.1227,10.0355 L 132.4186,10.0355 L 132.3348,10.0495 L 132.2510,10.0776 L 132.1811,10.1056 L 132.0973,10.1336 L 132.0414,10.1757 L 131.9716,10.2317 L 131.8599,10.3439 L 131.8040,10.4139 L 131.7621,10.4700 L 131.7341,10.5541 L 131.7062,10.6242 L 131.6783,10.7083 L 131.6643,10.7924 L 131.6643,10.9606 L 131.6783,11.0447 L 131.7062,11.1288 L 131.7341,11.1988 L 131.7621,11.2829 L 131.8040,11.3390 L 131.8599,11.4091 L 131.9716,11.5212 L 132.0414,11.5773 L 132.0973,11.6193 L 132.1811,11.6474 L 132.2510,11.6754 L 132.3348,11.7034 L 132.4186,11.7174 L 134.1227,11.7174 L 134.2065,11.7034 L 134.2903,11.6754 L 134.3602,11.6474 L 134.4440,11.6193 L 134.4998,11.5773 L 134.5697,11.5212 L 134.6814,11.4091 L 134.7373,11.3390 L 134.7792,11.2829 L 134.8071,11.1988 L 134.8351,11.1288 L 134.8630,11.0447 L 134.8770,10.9606 L 134.8770,10.8765 Z" stroke="#000000" stroke-width="0.1193" stroke-linecap="round" stroke-linejoin="round" fill="#FFFFFF"/>
        <path d="M 128.7030,1.6959 L 128.7030,1.6118 L 128.6891,1.5418 L 128.6611,1.4717 L 128.6472,1.4016 L 128.6053,1.3315 L 128.5773,1.2614 L 128.5215,1.2054 L 128.4796,1.1493 L 128.4237,1.1073 L 128.3678,1.0512 L 128.2980,1.0232 L 128.2281,0.9811 L 128.1583,0.9671 L 128.0884,0.9391 L 128.0186,0.9251 L 7.9200,0.9251 L 7.8501,0.9391 L 7.7803,0.9671 L 7.7104,0.9811 L 7.6406,1.0232 L 7.5708,1.0512 L 7.5149,1.1073 L 7.4590,1.1493 L 7.4171,1.2054 L 7.3612,1.2614 L 7.3333,1.3315 L 7.2914,1.4016 L 7.2774,1.4717 L 7.2495,1.5418 L 7.2355,1.6118 L 7.2355,11.0026 L 7.2495,11.0727 L 7.2774,11.1428 L 7.2914,11.2129 L 7.3333,11.2829 L 7.3612,11.3530 L 7.4171,11.4091 L 7.4590,11.4651 L 7.5149,11.5072 L 7.5708,11.5633 L 7.6406,11.5913 L 7.7104,11.6333 L 7.7803,11.6474 L 7.8501,11.6754 L 7.9200,11.6894 L 128.0186,11.6894 L 128.0884,11.6754 L 128.1583,11.6474 L 128.2281,11.6333 L 128.2980,11.5913 L 128.3678,11.5633 L 128.4237,11.5072 L 128.4796,11.4651 L 128.5215,11.4091 L 128.5773,11.3530 L 128.6053,11.2829 L 128.6472,11.2129 L 128.6611,11.1428 L 128.6891,11.0727 L 128.7030,11.0026 L 128.7030,10.9185 L 128.7030,1.6959 Z" stroke="#BFBFBF" stroke-width="0.1193" stroke-linecap="round" stroke-linejoin="round" fill="#F7F7F7"/>
        <ellipse cx="55.1116" cy="1.8711" rx="0.4400" ry="0.4415" fill="#000000" stroke="#000000" stroke-width="0.1193" stroke-linecap="round" stroke-linejoin="round"/>
        <ellipse cx="55.1116" cy="1.8711" rx="0.4400" ry="0.4415" fill="none" stroke="#000000" stroke-width="0.1193" stroke-linecap="round" stroke-linejoin="round"/>
        <ellipse cx="58.0379" cy="1.8711" rx="0.4470" ry="0.4415" fill="#000000" stroke="#000000" stroke-width="0.1193" stroke-linecap="round" stroke-linejoin="round"/>
        <ellipse cx="58.0379" cy="1.8711" rx="0.4470" ry="0.4415" fill="none" stroke="#000000" stroke-width="0.1193" stroke-linecap="round" stroke-linejoin="round"/>
        <ellipse cx="60.9433" cy="1.8711" rx="0.4470" ry="0.4415" fill="#000000" stroke="#000000" stroke-width="0.1193" stroke-linecap="round" stroke-linejoin="round"/>
        <ellipse cx="60.9433" cy="1.8711" rx="0.4470" ry="0.4415" fill="none" stroke="#000000" stroke-width="0.1193" stroke-linecap="round" stroke-linejoin="round"/>
        <ellipse cx="63.8557" cy="1.8711" rx="0.4400" ry="0.4415" fill="#000000" stroke="#000000" stroke-width="0.1193" stroke-linecap="round" stroke-linejoin="round"/>
        <ellipse cx="63.8557" cy="1.8711" rx="0.4400" ry="0.4415" fill="none" stroke="#000000" stroke-width="0.1193" stroke-linecap="round" stroke-linejoin="round"/>
        <ellipse cx="66.7820" cy="1.8711" rx="0.4470" ry="0.4415" fill="#000000" stroke="#000000" stroke-width="0.1193" stroke-linecap="round" stroke-linejoin="round"/>
        <ellipse cx="66.7820" cy="1.8711" rx="0.4470" ry="0.4415" fill="none" stroke="#000000" stroke-width="0.1193" stroke-linecap="round" stroke-linejoin="round"/>
        <ellipse cx="69.6874" cy="1.8711" rx="0.4470" ry="0.4415" fill="#000000" stroke="#000000" stroke-width="0.1193" stroke-linecap="round" stroke-linejoin="round"/>
        <ellipse cx="69.6874" cy="1.8711" rx="0.4470" ry="0.4415" fill="none" stroke="#000000" stroke-width="0.1193" stroke-linecap="round" stroke-linejoin="round"/>
        <ellipse cx="72.5997" cy="1.8711" rx="0.4400" ry="0.4415" fill="#000000" stroke="#000000" stroke-width="0.1193" stroke-linecap="round" stroke-linejoin="round"/>
        <ellipse cx="72.5997" cy="1.8711" rx="0.4400" ry="0.4415" fill="none" stroke="#000000" stroke-width="0.1193" stroke-linecap="round" stroke-linejoin="round"/>
        <ellipse cx="75.5261" cy="1.8711" rx="0.4470" ry="0.4415" fill="#000000" stroke="#000000" stroke-width="0.1193" stroke-linecap="round" stroke-linejoin="round"/>
        <ellipse cx="75.5261" cy="1.8711" rx="0.4470" ry="0.4415" fill="none" stroke="#000000" stroke-width="0.1193" stroke-linecap="round" stroke-linejoin="round"/>
        <ellipse cx="78.4315" cy="1.8711" rx="0.4470" ry="0.4415" fill="#000000" stroke="#000000" stroke-width="0.1193" stroke-linecap="round" stroke-linejoin="round"/>
        <ellipse cx="78.4315" cy="1.8711" rx="0.4470" ry="0.4415" fill="none" stroke="#000000" stroke-width="0.1193" stroke-linecap="round" stroke-linejoin="round"/>
        <ellipse cx="81.3438" cy="1.8711" rx="0.4400" ry="0.4415" fill="#000000" stroke="#000000" stroke-width="0.1193" stroke-linecap="round" stroke-linejoin="round"/>
        <ellipse cx="81.3438" cy="1.8711" rx="0.4400" ry="0.4415" fill="none" stroke="#000000" stroke-width="0.1193" stroke-linecap="round" stroke-linejoin="round"/>
        <ellipse cx="84.2702" cy="1.8711" rx="0.4470" ry="0.4415" fill="#000000" stroke="#000000" stroke-width="0.1193" stroke-linecap="round" stroke-linejoin="round"/>
        <ellipse cx="84.2702" cy="1.8711" rx="0.4470" ry="0.4415" fill="none" stroke="#000000" stroke-width="0.1193" stroke-linecap="round" stroke-linejoin="round"/>
        <ellipse cx="87.1756" cy="1.8711" rx="0.4470" ry="0.4415" fill="#000000" stroke="#000000" stroke-width="0.1193" stroke-linecap="round" stroke-linejoin="round"/>
        <ellipse cx="87.1756" cy="1.8711" rx="0.4470" ry="0.4415" fill="none" stroke="#000000" stroke-width="0.1193" stroke-linecap="round" stroke-linejoin="round"/>
        <ellipse cx="90.0879" cy="1.8711" rx="0.4400" ry="0.4415" fill="#000000" stroke="#000000" stroke-width="0.1193" stroke-linecap="round" stroke-linejoin="round"/>
        <ellipse cx="90.0879" cy="1.8711" rx="0.4400" ry="0.4415" fill="none" stroke="#000000" stroke-width="0.1193" stroke-linecap="round" stroke-linejoin="round"/>
        <ellipse cx="56.7738" cy="3.4760" rx="0.4400" ry="0.4485" fill="#000000" stroke="#000000" stroke-width="0.1193" stroke-linecap="round" stroke-linejoin="round"/>
        <ellipse cx="56.7738" cy="3.4760" rx="0.4400" ry="0.4485" fill="none" stroke="#000000" stroke-width="0.1193" stroke-linecap="round" stroke-linejoin="round"/>
        <ellipse cx="59.6512" cy="3.4760" rx="0.4400" ry="0.4485" fill="#000000" stroke="#000000" stroke-width="0.1193" stroke-linecap="round" stroke-linejoin="round"/>
        <ellipse cx="59.6512" cy="3.4760" rx="0.4400" ry="0.4485" fill="none" stroke="#000000" stroke-width="0.1193" stroke-linecap="round" stroke-linejoin="round"/>
        <ellipse cx="62.5287" cy="3.4760" rx="0.4400" ry="0.4485" fill="#000000" stroke="#000000" stroke-width="0.1193" stroke-linecap="round" stroke-linejoin="round"/>
        <ellipse cx="62.5287" cy="3.4760" rx="0.4400" ry="0.4485" fill="none" stroke="#000000" stroke-width="0.1193" stroke-linecap="round" stroke-linejoin="round"/>
        <ellipse cx="65.4061" cy="3.4760" rx="0.4400" ry="0.4485" fill="#000000" stroke="#000000" stroke-width="0.1193" stroke-linecap="round" stroke-linejoin="round"/>
        <ellipse cx="65.4061" cy="3.4760" rx="0.4400" ry="0.4485" fill="none" stroke="#000000" stroke-width="0.1193" stroke-linecap="round" stroke-linejoin="round"/>
        <ellipse cx="68.2836" cy="3.4760" rx="0.4400" ry="0.4485" fill="#000000" stroke="#000000" stroke-width="0.1193" stroke-linecap="round" stroke-linejoin="round"/>
        <ellipse cx="68.2836" cy="3.4760" rx="0.4400" ry="0.4485" fill="none" stroke="#000000" stroke-width="0.1193" stroke-linecap="round" stroke-linejoin="round"/>
        <ellipse cx="71.1610" cy="3.4760" rx="0.4400" ry="0.4485" fill="#000000" stroke="#000000" stroke-width="0.1193" stroke-linecap="round" stroke-linejoin="round"/>
        <ellipse cx="71.1610" cy="3.4760" rx="0.4400" ry="0.4485" fill="none" stroke="#000000" stroke-width="0.1193" stroke-linecap="round" stroke-linejoin="round"/>
        <ellipse cx="74.0385" cy="3.4760" rx="0.4400" ry="0.4485" fill="#000000" stroke="#000000" stroke-width="0.1193" stroke-linecap="round" stroke-linejoin="round"/>
        <ellipse cx="74.0385" cy="3.4760" rx="0.4400" ry="0.4485" fill="none" stroke="#000000" stroke-width="0.1193" stroke-linecap="round" stroke-linejoin="round"/>
        <ellipse cx="76.9159" cy="3.4760" rx="0.4400" ry="0.4485" fill="#000000" stroke="#000000" stroke-width="0.1193" stroke-linecap="round" stroke-linejoin="round"/>
        <ellipse cx="76.9159" cy="3.4760" rx="0.4400" ry="0.4485" fill="none" stroke="#000000" stroke-width="0.1193" stroke-linecap="round" stroke-linejoin="round"/>
        <ellipse cx="79.7934" cy="3.4760" rx="0.4400" ry="0.4485" fill="#000000" stroke="#000000" stroke-width="0.1193" stroke-linecap="round" stroke-linejoin="round"/>
        <ellipse cx="79.7934" cy="3.4760" rx="0.4400" ry="0.4485" fill="none" stroke="#000000" stroke-width="0.1193" stroke-linecap="round" stroke-linejoin="round"/>
        <ellipse cx="82.6708" cy="3.4760" rx="0.4400" ry="0.4485" fill="#000000" stroke="#000000" stroke-width="0.1193" stroke-linecap="round" stroke-linejoin="round"/>
        <ellipse cx="82.6708" cy="3.4760" rx="0.4400" ry="0.4485" fill="none" stroke="#000000" stroke-width="0.1193" stroke-linecap="round" stroke-linejoin="round"/>
        <ellipse cx="85.5483" cy="3.4760" rx="0.4400" ry="0.4485" fill="#000000" stroke="#000000" stroke-width="0.1193" stroke-linecap="round" stroke-linejoin="round"/>
        <ellipse cx="85.5483" cy="3.4760" rx="0.4400" ry="0.4485" fill="none" stroke="#000000" stroke-width="0.1193" stroke-linecap="round" stroke-linejoin="round"/>
        <ellipse cx="88.4257" cy="3.4760" rx="0.4400" ry="0.4485" fill="#000000" stroke="#000000" stroke-width="0.1193" stroke-linecap="round" stroke-linejoin="round"/>
        <ellipse cx="88.4257" cy="3.4760" rx="0.4400" ry="0.4485" fill="none" stroke="#000000" stroke-width="0.1193" stroke-linecap="round" stroke-linejoin="round"/>
        <ellipse cx="42.1169" cy="6.7773" rx="0.3208" ry="0.3145" fill="#00FF00" stroke="#000000" stroke-width="0.1193" stroke-linecap="round" stroke-linejoin="round"/>
        <ellipse cx="42.1169" cy="6.7773" rx="0.3208" ry="0.3145" fill="none" stroke="#000000" stroke-width="0.1193" stroke-linecap="round" stroke-linejoin="round"/>
        <ellipse cx="42.1169" cy="8.1767" rx="0.3208" ry="0.3145" fill="#00FF00" stroke="#000000" stroke-width="0.1193" stroke-linecap="round" stroke-linejoin="round"/>
        <ellipse cx="42.1169" cy="8.1767" rx="0.3208" ry="0.3145" fill="none" stroke="#000000" stroke-width="0.1193" stroke-linecap="round" stroke-linejoin="round"/>
        <ellipse cx="42.1169" cy="9.5762" rx="0.3208" ry="0.3145" fill="#00FF00" stroke="#000000" stroke-width="0.1193" stroke-linecap="round" stroke-linejoin="round"/>
        <ellipse cx="42.1169" cy="9.5762" rx="0.3208" ry="0.3145" fill="none" stroke="#000000" stroke-width="0.1193" stroke-linecap="round" stroke-linejoin="round"/>
        <text font-family="Arial" fill="#000000" style="white-space:pre;" font-weight="400" text-anchor="start" x="54.5337" y="13.0018" font-size="0.1721"><![CDATA[CONSOLE]]></text>
        <text font-family="Arial" fill="#000000" style="white-space:pre;" font-weight="400" text-anchor="start" x="56.0985" y="13.0018" font-size="0.1721"><![CDATA[USB]]></text>
        <text font-family="Arial" fill="#000000" style="white-space:pre;" font-weight="400" text-anchor="start" x="53.0471" y="11.8382" font-size="0.1721"><![CDATA[POWER]]></text>
        <text font-family="Arial" fill="#000000" style="white-space:pre;" font-weight="400" text-anchor="start" x="53.0471" y="12.6244" font-size="0.1721"><![CDATA[STATUS]]></text>
        <text font-family="Arial" fill="#000000" style="white-space:pre;" font-weight="400" text-anchor="start" x="53.0471" y="12.2313" font-size="0.1721"><![CDATA[HDD]]></text>
        <path d="M 8.3870,2.9642 L 8.3717,2.9642 L 8.3640,2.9564 L 8.3563,2.9564 L 8.3333,2.9331 L 8.3333,2.9253 L 8.3256,2.9175 L 8.3256,2.0150 L 8.3333,2.0072 L 8.3333,1.9995 L 8.3409,1.9917 L 8.3486,1.9917 L 8.3486,1.9839 L 8.3563,1.9761 L 8.3640,1.9761 L 8.3717,1.9683 L 9.4162,1.9683 L 9.4239,1.9761 L 9.4316,1.9761 L 9.4546,1.9995 L 9.4546,2.0072 L 9.4623,2.0150 L 9.4623,2.1940 L 9.4546,2.1940 L 9.4546,2.1862 L 9.4469,2.1862 L 9.4469,2.1784 L 9.4392,2.1784 L 9.4392,2.1706 L 9.4239,2.1706 L 9.4239,2.1628 L 8.5790,2.1628 L 8.5790,2.1706 L 8.5637,2.1706 L 8.5637,2.1784 L 8.5560,2.1784 L 8.5560,2.1940 L 8.5483,2.1940 L 8.5483,2.9331 L 8.5560,2.9331 L 8.5560,2.9486 L 8.5637,2.9486 L 8.5637,2.9564 L 8.5714,2.9564 L 8.5714,2.9642 L 8.3947,2.9642 L 8.3870,2.9642 Z" stroke="#000000" stroke-width="0.1193" stroke-linecap="round" stroke-linejoin="round" fill="#000000"/>
        <path d="M 9.3855,2.3885 L 8.6251,2.3885 L 8.6251,2.3807 L 8.6098,2.3807 L 8.6098,2.3729 L 8.6021,2.3729 L 8.6021,2.3573 L 8.5944,2.3573 L 8.5944,2.5518 L 8.6021,2.5518 L 8.6021,2.5674 L 8.6098,2.5674 L 8.6098,2.5752 L 8.6251,2.5752 L 8.6251,2.5830 L 9.4008,2.5830 L 9.4162,2.5674 L 9.4239,2.5674 L 9.4392,2.5518 L 9.4392,2.5441 L 9.4469,2.5363 L 9.4469,2.5285 L 9.4546,2.5207 L 9.4546,2.5052 L 9.4623,2.4974 L 9.4623,2.4740 L 9.4546,2.4663 L 9.4546,2.4429 L 9.4392,2.4274 L 9.4392,2.4196 L 9.4316,2.4118 L 9.4239,2.4118 L 9.4239,2.4040 L 9.4162,2.4040 L 9.4085,2.3962 L 9.4008,2.3962 L 9.3932,2.3885 L 9.3855,2.3885 Z" stroke="#000000" stroke-width="0.1193" stroke-linecap="round" stroke-linejoin="round" fill="#000000"/>
        <path d="M 11.1597,2.5830 L 11.1443,2.5830 L 11.1443,2.5752 L 11.1289,2.5752 L 11.1289,2.5674 L 11.1213,2.5674 L 11.1213,2.5518 L 11.1136,2.5518 L 11.1136,2.3573 L 11.1213,2.3573 L 11.1213,2.3729 L 11.1289,2.3729 L 11.1289,2.3807 L 11.1443,2.3807 L 11.1443,2.3885 L 11.7587,2.3885 L 11.7587,2.1628 L 11.0982,2.1628 L 11.0982,2.1706 L 11.0828,2.1706 L 11.0828,2.1784 L 11.0752,2.1784 L 11.0752,2.1940 L 11.0675,2.1940 L 11.0675,2.9331 L 11.0752,2.9331 L 11.0752,2.9486 L 11.0828,2.9486 L 11.0828,2.9564 L 11.0905,2.9564 L 11.0905,2.9642 L 10.8908,2.9642 L 10.8832,2.9564 L 10.8755,2.9564 L 10.8524,2.9331 L 10.8524,2.9253 L 10.8448,2.9175 L 10.8448,2.0150 L 10.8524,2.0072 L 10.8524,1.9995 L 10.8601,1.9917 L 10.8678,1.9917 L 10.8678,1.9839 L 10.8755,1.9761 L 10.8832,1.9761 L 10.8908,1.9683 L 11.9354,1.9683 L 11.9431,1.9761 L 11.9507,1.9761 L 11.9738,1.9995 L 11.9738,2.0072 L 11.9815,2.0150 L 11.9815,2.5052 L 11.9738,2.5129 L 11.9738,2.5285 L 11.9661,2.5285 L 11.9661,2.5363 L 11.9584,2.5441 L 11.9584,2.5518 L 11.9507,2.5518 L 11.9507,2.5596 L 11.9431,2.5596 L 11.9431,2.5674 L 11.9354,2.5674 L 11.9354,2.5752 L 11.9277,2.5752 L 11.9200,2.5830 L 11.9277,2.5907 L 11.9354,2.5907 L 11.9354,2.5985 L 11.9431,2.5985 L 11.9431,2.6063 L 11.9507,2.6063 L 11.9507,2.6141 L 11.9584,2.6141 L 11.9584,2.6219 L 11.9661,2.6296 L 11.9661,2.6374 L 11.9738,2.6374 L 11.9738,2.6530 L 11.9815,2.6608 L 11.9815,2.9331 L 11.9891,2.9331 L 11.9891,2.9486 L 11.9968,2.9486 L 11.9968,2.9564 L 12.0045,2.9564 L 12.0045,2.9642 L 11.8048,2.9642 L 11.7971,2.9564 L 11.7894,2.9564 L 11.7664,2.9331 L 11.7664,2.9253 L 11.7587,2.9175 L 11.7587,2.5830 L 11.1673,2.5830 L 11.1597,2.5830 Z" stroke="#000000" stroke-width="0.1193" stroke-linecap="round" stroke-linejoin="round" fill="#000000"/>
        <path d="M 12.3808,2.1628 L 12.1504,2.1628 L 12.1427,2.1551 L 12.1351,2.1551 L 12.1120,2.1317 L 12.1120,2.1239 L 12.1043,2.1162 L 12.1043,2.0150 L 12.1120,2.0072 L 12.1120,1.9995 L 12.1197,1.9917 L 12.1274,1.9917 L 12.1274,1.9839 L 12.1351,1.9761 L 12.1427,1.9761 L 12.1504,1.9683 L 13.1950,1.9683 L 13.2026,1.9761 L 13.2103,1.9761 L 13.2334,1.9995 L 13.2334,2.0072 L 13.2410,2.0150 L 13.2410,2.1940 L 13.2334,2.1940 L 13.2334,2.1862 L 13.2257,2.1862 L 13.2257,2.1784 L 13.2180,2.1784 L 13.2180,2.1706 L 13.2026,2.1706 L 13.2026,2.1628 L 12.6343,2.1628 L 12.6343,2.1706 L 12.6189,2.1706 L 12.6189,2.1784 L 12.6113,2.1784 L 12.6113,2.1940 L 12.6036,2.1940 L 12.6036,2.9331 L 12.6113,2.9331 L 12.6113,2.9486 L 12.6189,2.9486 L 12.6189,2.9564 L 12.6266,2.9564 L 12.6266,2.9642 L 12.4269,2.9642 L 12.4192,2.9564 L 12.4116,2.9564 L 12.3885,2.9331 L 12.3885,2.9253 L 12.3808,2.9175 L 12.3808,2.1862 L 12.3808,2.1628 Z" stroke="#000000" stroke-width="0.1193" stroke-linecap="round" stroke-linejoin="round" fill="#000000"/>
        <path d="M 13.5867,2.9097 L 13.5867,2.9331 L 13.5943,2.9331 L 13.5943,2.9486 L 13.6020,2.9486 L 13.6020,2.9564 L 13.6097,2.9564 L 13.6097,2.9642 L 13.4100,2.9642 L 13.4023,2.9564 L 13.3947,2.9564 L 13.3716,2.9331 L 13.3716,2.9253 L 13.3639,2.9175 L 13.3639,1.9995 L 13.3563,1.9995 L 13.3563,1.9839 L 13.3486,1.9839 L 13.3486,1.9761 L 13.3409,1.9761 L 13.3409,1.9683 L 13.5406,1.9683 L 13.5483,1.9761 L 13.5559,1.9761 L 13.5790,1.9995 L 13.5790,2.0072 L 13.5867,2.0150 L 13.5867,2.9019 L 13.5867,2.9097 Z" stroke="#000000" stroke-width="0.1193" stroke-linecap="round" stroke-linejoin="round" fill="#000000"/>
        <path d="M 14.6773,2.1628 L 14.0168,2.1628 L 14.0168,2.1706 L 14.0014,2.1706 L 14.0014,2.1784 L 13.9937,2.1784 L 13.9937,2.1940 L 13.9860,2.1940 L 13.9860,2.9331 L 13.9937,2.9331 L 13.9937,2.9486 L 14.0014,2.9486 L 14.0014,2.9564 L 14.0091,2.9564 L 14.0091,2.9642 L 13.8094,2.9642 L 13.8017,2.9564 L 13.7940,2.9564 L 13.7710,2.9331 L 13.7710,2.9253 L 13.7633,2.9175 L 13.7633,2.0150 L 13.7710,2.0072 L 13.7710,1.9995 L 13.7787,1.9917 L 13.7864,1.9917 L 13.7864,1.9839 L 13.7940,1.9761 L 13.8017,1.9761 L 13.8094,1.9683 L 14.8539,1.9683 L 14.8616,1.9761 L 14.8693,1.9761 L 14.8923,1.9995 L 14.8923,2.0072 L 14.9000,2.0150 L 14.9000,2.9331 L 14.9077,2.9331 L 14.9077,2.9486 L 14.9154,2.9486 L 14.9154,2.9564 L 14.9231,2.9564 L 14.9231,2.9642 L 14.7234,2.9642 L 14.7157,2.9564 L 14.7080,2.9564 L 14.6850,2.9331 L 14.6850,2.9253 L 14.6773,2.9175 L 14.6773,2.1862 L 14.6773,2.1628 Z" stroke="#000000" stroke-width="0.1193" stroke-linecap="round" stroke-linejoin="round" fill="#000000"/>
        <path d="M 16.0290,2.3885 L 15.3224,2.3885 L 15.3148,2.3807 L 15.3071,2.3807 L 15.3071,2.3729 L 15.2994,2.3729 L 15.2994,2.3573 L 15.2917,2.3573 L 15.2917,2.5518 L 15.2994,2.5518 L 15.2994,2.5674 L 15.3071,2.5674 L 15.3071,2.5752 L 15.3148,2.5752 L 15.3224,2.5830 L 16.0367,2.5830 L 16.0521,2.5674 L 16.0598,2.5674 L 16.0751,2.5518 L 16.0751,2.5441 L 16.0828,2.5363 L 16.0828,2.5285 L 16.0905,2.5207 L 16.0905,2.5052 L 16.0982,2.4974 L 16.0982,2.4663 L 16.0905,2.4585 L 16.0905,2.4351 L 16.0828,2.4351 L 16.0828,2.4274 L 16.0598,2.4040 L 16.0521,2.4040 L 16.0521,2.3962 L 16.0444,2.3962 L 16.0367,2.3885 L 16.0290,2.3885 Z" stroke="#000000" stroke-width="0.1193" stroke-linecap="round" stroke-linejoin="round" fill="#000000"/>
        <path d="M 16.5590,2.1628 L 16.3286,2.1628 L 16.3209,2.1551 L 16.3132,2.1551 L 16.2902,2.1317 L 16.2902,2.1239 L 16.2825,2.1162 L 16.2825,2.0150 L 16.2902,2.0072 L 16.2902,1.9995 L 16.2979,1.9917 L 16.3055,1.9917 L 16.3055,1.9839 L 16.3132,1.9761 L 16.3209,1.9761 L 16.3286,1.9683 L 17.3731,1.9683 L 17.3808,1.9761 L 17.3885,1.9761 L 17.4115,1.9995 L 17.4115,2.0072 L 17.4192,2.0150 L 17.4192,2.1940 L 17.4115,2.1940 L 17.4115,2.1862 L 17.4038,2.1862 L 17.4038,2.1784 L 17.3962,2.1784 L 17.3962,2.1706 L 17.3808,2.1706 L 17.3808,2.1628 L 16.8124,2.1628 L 16.8124,2.1706 L 16.7971,2.1706 L 16.7971,2.1784 L 16.7894,2.1784 L 16.7894,2.1940 L 16.7817,2.1940 L 16.7817,2.9331 L 16.7894,2.9331 L 16.7894,2.9486 L 16.7971,2.9486 L 16.7971,2.9564 L 16.8048,2.9564 L 16.8048,2.9642 L 16.6051,2.9642 L 16.5974,2.9564 L 16.5897,2.9564 L 16.5667,2.9331 L 16.5667,2.9253 L 16.5590,2.9175 L 16.5590,2.1862 L 16.5590,2.1628 Z" stroke="#000000" stroke-width="0.1193" stroke-linecap="round" stroke-linejoin="round" fill="#000000"/>
        <path d="M 16.1058,2.7697 L 16.1212,2.7697 L 16.1212,2.7619 L 16.1366,2.7619 L 16.1366,2.7541 L 16.1442,2.7541 L 16.1442,2.7463 L 16.1519,2.7463 L 16.1519,2.7386 L 16.1596,2.7386 L 16.1596,2.9175 L 16.1519,2.9253 L 16.1519,2.9331 L 16.1442,2.9408 L 16.1442,2.9486 L 16.1366,2.9486 L 16.1289,2.9564 L 16.1212,2.9564 L 16.1135,2.9642 L 15.0690,2.9642 L 15.0613,2.9564 L 15.0536,2.9564 L 15.0306,2.9331 L 15.0306,2.9253 L 15.0229,2.9175 L 15.0229,2.0150 L 15.0306,2.0072 L 15.0306,1.9995 L 15.0383,1.9917 L 15.0459,1.9917 L 15.0459,1.9839 L 15.0536,1.9761 L 15.0613,1.9761 L 15.0690,1.9683 L 16.1135,1.9683 L 16.1212,1.9761 L 16.1289,1.9761 L 16.1519,1.9995 L 16.1519,2.0072 L 16.1596,2.0150 L 16.1596,2.1940 L 16.1519,2.1940 L 16.1519,2.1862 L 16.1442,2.1862 L 16.1442,2.1784 L 16.1366,2.1784 L 16.1366,2.1706 L 16.1212,2.1706 L 16.1212,2.1628 L 15.2764,2.1628 L 15.2764,2.1706 L 15.2610,2.1706 L 15.2610,2.1784 L 15.2533,2.1784 L 15.2533,2.1940 L 15.2456,2.1940 L 15.2456,2.7697 L 16.0982,2.7697 L 16.1058,2.7697 Z" stroke="#000000" stroke-width="0.1193" stroke-linecap="round" stroke-linejoin="round" fill="#000000"/>
        <path d="M 9.9692,2.6763 L 9.9692,2.9642 L 10.3378,2.9642 L 10.3378,2.6763 L 9.9692,2.6763 Z" stroke="#ED3440" stroke-width="0.1193" stroke-linecap="round" stroke-linejoin="round" fill="#ED3440"/>
        <path d="M 9.5852,2.3262 L 9.9001,2.3262 L 9.9001,2.6063 L 9.5852,2.6063 L 9.5852,2.3262 Z" stroke="#ED3440" stroke-width="0.1193" stroke-linecap="round" stroke-linejoin="round" fill="#ED3440"/>
        <path d="M 10.4070,2.6763 L 10.4070,2.9642 L 10.5222,2.9642 L 10.5299,2.9564 L 10.5606,2.9564 L 10.5683,2.9486 L 10.5836,2.9486 L 10.5990,2.9408 L 10.6067,2.9331 L 10.6220,2.9253 L 10.6374,2.9097 L 10.6527,2.9019 L 10.6604,2.8942 L 10.6681,2.8786 L 10.6758,2.8708 L 10.7065,2.8086 L 10.7065,2.7930 L 10.7142,2.7697 L 10.7142,2.7463 L 10.7219,2.7230 L 10.7219,2.6763 L 10.4147,2.6763 L 10.4070,2.6763 Z" stroke="#ED3440" stroke-width="0.1193" stroke-linecap="round" stroke-linejoin="round" fill="#ED3440"/>
        <path d="M 10.4070,2.3262 L 10.7219,2.3262 L 10.7219,2.6063 L 10.4070,2.6063 L 10.4070,2.3262 Z" stroke="#ED3440" stroke-width="0.1193" stroke-linecap="round" stroke-linejoin="round" fill="#ED3440"/>
        <path d="M 9.9001,2.6763 L 9.9001,2.9642 L 9.7849,2.9642 L 9.7772,2.9564 L 9.7465,2.9564 L 9.7388,2.9486 L 9.7234,2.9486 L 9.7081,2.9408 L 9.7004,2.9331 L 9.6850,2.9253 L 9.6697,2.9097 L 9.6543,2.9019 L 9.6466,2.8942 L 9.6389,2.8786 L 9.6312,2.8708 L 9.6005,2.8086 L 9.6005,2.7930 L 9.5928,2.7697 L 9.5928,2.7463 L 9.5852,2.7230 L 9.5852,2.6763 L 9.8924,2.6763 L 9.9001,2.6763 Z" stroke="#ED3440" stroke-width="0.1193" stroke-linecap="round" stroke-linejoin="round" fill="#ED3440"/>
        <path d="M 9.9692,1.9683 L 9.9692,2.2562 L 10.3378,2.2562 L 10.3378,1.9683 L 9.9692,1.9683 Z" stroke="#ED3440" stroke-width="0.1193" stroke-linecap="round" stroke-linejoin="round" fill="#ED3440"/>
        <path d="M 10.4070,2.2562 L 10.4070,1.9683 L 10.5222,1.9683 L 10.5299,1.9761 L 10.5606,1.9761 L 10.5683,1.9839 L 10.5836,1.9839 L 10.5990,1.9917 L 10.6067,1.9995 L 10.6220,2.0072 L 10.6374,2.0228 L 10.6527,2.0306 L 10.6604,2.0384 L 10.6681,2.0539 L 10.6758,2.0617 L 10.7065,2.1239 L 10.7065,2.1395 L 10.7142,2.1628 L 10.7142,2.1862 L 10.7219,2.2095 L 10.7219,2.2562 L 10.4147,2.2562 L 10.4070,2.2562 Z" stroke="#ED3440" stroke-width="0.1193" stroke-linecap="round" stroke-linejoin="round" fill="#ED3440"/>
        <path d="M 9.9001,2.2562 L 9.9001,1.9683 L 9.7849,1.9683 L 9.7772,1.9761 L 9.7465,1.9761 L 9.7388,1.9839 L 9.7234,1.9839 L 9.7081,1.9917 L 9.7004,1.9995 L 9.6850,2.0072 L 9.6697,2.0228 L 9.6543,2.0306 L 9.6466,2.0384 L 9.6389,2.0539 L 9.6312,2.0617 L 9.6005,2.1239 L 9.6005,2.1395 L 9.5928,2.1628 L 9.5928,2.1862 L 9.5852,2.2095 L 9.5852,2.2562 L 9.8924,2.2562 L 9.9001,2.2562 Z" stroke="#ED3440" stroke-width="0.1193" stroke-linecap="round" stroke-linejoin="round" fill="#ED3440"/>
        <text font-family="Symbol" fill="#000000" style="white-space:pre;" text-anchor="start" x="16.8753" y="3.0217" font-size="0.4789"><![CDATA[]]></text>
        <text font-family="Arial" fill="#000000" style="white-space:pre;" font-weight="400" text-anchor="start" x="18.0421" y="3.3793" font-size="0.1349"><![CDATA[FortiWAN 200B]]></text>
        <path d="M 47.8201,6.5737 L 43.4240,6.5737 L 43.4240,10.2624 L 47.8201,10.2624 L 47.8201,6.5737 Z" stroke="#0A0A0A" stroke-width="0.1193" stroke-linecap="round" stroke-linejoin="round" fill="#BFBFBF"/>
        <ellipse cx="53.7982" cy="9.1831" rx="0.3130" ry="0.3145" fill="#00FF00" stroke="#000000" stroke-width="0.1193" stroke-linecap="round" stroke-linejoin="round"/>
        <ellipse cx="53.7982" cy="9.1831" rx="0.3130" ry="0.3145" fill="none" stroke="#000000" stroke-width="0.1193" stroke-linecap="round" stroke-linejoin="round"/>
        <text font-family="Arial" fill="#000000" style="white-space:pre;" font-weight="400" text-anchor="start" x="69.8845" y="12.6087" font-size="0.1721"><![CDATA[HA]]></text>
        <path d="M 59.9421,6.5737 L 55.5459,6.5737 L 55.5459,10.2624 L 59.9421,10.2624 L 59.9421,6.5737 Z" stroke="#0A0A0A" stroke-width="0.1193" stroke-linecap="round" stroke-linejoin="round" fill="#BFBFBF"/>
        <text font-family="Arial" fill="#000000" style="white-space:pre;" font-weight="400" text-anchor="start" x="66.2953" y="9.0147" font-size="0.1020"><![CDATA[1]]></text>
        <path d="M 65.8686,6.5737 L 61.4724,6.5737 L 61.4724,10.2624 L 65.8686,10.2624 L 65.8686,6.5737 Z" stroke="#0A0A0A" stroke-width="0.1193" stroke-linecap="round" stroke-linejoin="round" fill="#BFBFBF"/>
        <text font-family="Arial" fill="#000000" style="white-space:pre;" font-weight="400" text-anchor="start" x="73.1956" y="9.0147" font-size="0.1020"><![CDATA[2]]></text>
        <path d="M 71.7395,6.5737 L 67.3433,6.5737 L 67.3433,10.2624 L 71.7395,10.2624 L 71.7395,6.5737 Z" stroke="#0A0A0A" stroke-width="0.1193" stroke-linecap="round" stroke-linejoin="round" fill="#BFBFBF"/>
        <text font-family="Arial" fill="#000000" style="white-space:pre;" font-weight="400" text-anchor="start" x="80.0403" y="9.0147" font-size="0.1020"><![CDATA[3]]></text>
        <path d="M 77.6011,6.5737 L 73.2049,6.5737 L 73.2049,10.2624 L 77.6011,10.2624 L 77.6011,6.5737 Z" stroke="#0A0A0A" stroke-width="0.1193" stroke-linecap="round" stroke-linejoin="round" fill="#BFBFBF"/>
        <text font-family="Arial" fill="#000000" style="white-space:pre;" font-weight="400" text-anchor="start" x="86.8757" y="9.0147" font-size="0.1020"><![CDATA[4]]></text>
        <path d="M 83.4719,6.5737 L 79.0757,6.5737 L 79.0757,10.2624 L 83.4719,10.2624 L 83.4719,6.5737 Z" stroke="#0A0A0A" stroke-width="0.1193" stroke-linecap="round" stroke-linejoin="round" fill="#BFBFBF"/>
        <text font-family="Arial" fill="#000000" style="white-space:pre;" font-weight="400" text-anchor="start" x="93.7204" y="9.0147" font-size="0.1020"><![CDATA[5]]></text>
        <path d="M 89.3335,6.5737 L 84.9373,6.5737 L 84.9373,10.2624 L 89.3335,10.2624 L 89.3335,6.5737 Z" stroke="#0A0A0A" stroke-width="0.1193" stroke-linecap="round" stroke-linejoin="round" fill="#BFBFBF"/>
        <path d="M 52.1222,6.3530 L 48.6704,6.3530 L 48.6704,10.0378 L 52.1222,10.0378 L 52.1222,6.3530 Z" stroke="#000000" stroke-width="0.1193" stroke-linecap="round" stroke-linejoin="round" fill="#000000"/>
        <path d="M 43.8204,9.6898 L 43.8204,7.5689 L 44.7076,7.5689 L 44.7076,7.0698 L 45.0680,7.0698 L 45.0680,6.5708 L 46.1216,6.5708 L 46.1216,7.0698 L 46.4820,7.0698 L 46.4820,7.5689 L 47.3692,7.5689 L 47.3692,9.6898 L 43.8204,9.6898 Z" stroke="#161616" stroke-width="0.1193" stroke-linecap="round" stroke-linejoin="round" fill="#000000"/>
        <path d="M 48.9732,8.5988 L 48.9381,8.5988 L 48.9381,8.6104 L 48.9148,8.6104 L 48.9031,8.6220 L 48.8914,8.6220 L 48.8914,8.6336 L 48.8797,8.6336 L 48.8797,8.6452 L 48.8681,8.6452 L 48.8681,8.6569 L 48.8564,8.6685 L 48.8564,8.6917 L 48.8447,8.6917 L 48.8447,9.8305 L 48.8564,9.8305 L 48.8564,9.8537 L 48.8681,9.8653 L 48.8681,9.8770 L 48.8797,9.8770 L 48.8797,9.8886 L 48.8914,9.8886 L 48.8914,9.9002 L 48.9031,9.9002 L 48.9148,9.9118 L 48.9381,9.9118 L 48.9381,9.9234 L 51.8574,9.9234 L 51.8574,9.9118 L 51.8807,9.9118 L 51.8924,9.9002 L 51.9041,9.9002 L 51.9041,9.8886 L 51.9158,9.8886 L 51.9158,9.8770 L 51.9274,9.8770 L 51.9274,9.8653 L 51.9391,9.8537 L 51.9391,9.8305 L 51.9508,9.8305 L 51.9508,8.6917 L 51.9391,8.6917 L 51.9391,8.6685 L 51.9274,8.6569 L 51.9274,8.6452 L 51.9158,8.6452 L 51.9158,8.6336 L 51.9041,8.6336 L 51.9041,8.6220 L 51.8924,8.6220 L 51.8807,8.6104 L 51.8574,8.6104 L 51.8574,8.5988 L 48.9848,8.5988 L 48.9732,8.5988 Z" stroke="#000000" stroke-width="0.1193" stroke-linecap="round" stroke-linejoin="round" fill="#BFBFBF"/>
        <path d="M 49.0199,8.7033 L 48.9848,8.7033 L 48.9848,8.7150 L 48.9732,8.7150 L 48.9732,8.7266 L 48.9615,8.7266 L 48.9615,8.7382 L 48.9498,8.7382 L 48.9498,9.7840 L 48.9615,9.7956 L 48.9615,9.8072 L 48.9732,9.8072 L 48.9732,9.8189 L 48.9848,9.8189 L 48.9965,9.8305 L 51.8107,9.8305 L 51.8107,9.8189 L 51.8223,9.8189 L 51.8223,9.8072 L 51.8340,9.8072 L 51.8340,9.7956 L 51.8457,9.7840 L 51.8457,8.7382 L 51.8340,8.7382 L 51.8340,8.7266 L 51.8223,8.7150 L 51.8107,8.7150 L 51.8107,8.7033 L 49.0316,8.7033 L 49.0199,8.7033 Z" stroke="#333333" stroke-width="0.1193" stroke-linecap="round" stroke-linejoin="round" fill="#000000"/>
        <path d="M 49.6388,9.2843 L 49.3819,9.2843 L 49.3819,9.2262 L 49.6388,9.2262 L 49.6388,9.2843 Z" stroke="#000000" stroke-width="0.1193" stroke-linecap="round" stroke-linejoin="round" fill="#E2E2CC"/>
        <path d="M 50.2226,9.2843 L 49.9657,9.2843 L 49.9657,9.2262 L 50.2226,9.2262 L 50.2226,9.2843 Z" stroke="#000000" stroke-width="0.1193" stroke-linecap="round" stroke-linejoin="round" fill="#E2E2CC"/>
        <path d="M 50.7948,9.2843 L 50.5379,9.2843 L 50.5379,9.2262 L 50.7948,9.2262 L 50.7948,9.2843 Z" stroke="#000000" stroke-width="0.1193" stroke-linecap="round" stroke-linejoin="round" fill="#E2E2CC"/>
        <path d="M 51.3903,9.2843 L 51.1334,9.2843 L 51.1334,9.2262 L 51.3903,9.2262 L 51.3903,9.2843 Z" stroke="#000000" stroke-width="0.1193" stroke-linecap="round" stroke-linejoin="round" fill="#E2E2CC"/>
        <path d="M 51.6705,8.9241 L 51.6705,8.9009 L 51.6589,8.8776 L 51.6355,8.8660 L 49.1600,8.8660 L 49.1366,8.8776 L 49.1250,8.9009 L 49.1250,9.1914 L 49.1366,9.2146 L 49.1600,9.2262 L 51.6355,9.2262 L 51.6589,9.2146 L 51.6705,9.1914 L 51.6705,9.1681 L 51.6705,8.9241 Z" stroke="#000000" stroke-width="0.1193" stroke-linecap="round" stroke-linejoin="round" fill="#7F7F7F"/>
        <path d="M 51.5771,9.0403 L 51.5655,8.9938 L 51.5187,8.9474 L 51.4720,8.9357 L 49.3235,8.9357 L 49.2768,8.9474 L 49.2301,8.9938 L 49.2184,9.0403 L 49.2301,9.0868 L 49.2768,9.1333 L 49.3235,9.1449 L 51.4720,9.1449 L 51.5187,9.1333 L 51.5655,9.0868 L 51.5771,9.0403 Z" stroke="#999999" stroke-width="0.1193" stroke-linecap="round" stroke-linejoin="round" fill="#999999"/>
        <path d="M 57.1138,6.5708 L 57.1138,6.7233 L 56.8902,6.7233 L 56.8902,7.1530 L 55.9542,7.1530 L 55.9542,7.1946 L 55.6608,7.1946 L 55.6608,6.7233 L 55.7167,6.7233 L 55.7167,7.1530 L 55.9542,7.1530 L 55.9542,8.1095 L 56.0520,8.1095 L 56.0520,8.6085 L 55.9542,8.6085 L 55.9542,9.6898 L 59.5308,9.6898 L 59.5308,8.6085 L 59.4330,8.6085 L 59.4330,8.1095 L 59.5308,8.1095 L 59.5308,7.1530 L 59.7683,7.1530 L 59.7683,6.7233 L 59.8241,6.7233 L 59.8241,7.1946 L 59.5308,7.1946 L 59.5308,7.1530 L 58.5947,7.1530 L 58.5947,6.7233 L 58.3712,6.7233 L 58.3712,6.5708 L 57.1138,6.5708 Z" stroke="#000000" stroke-width="0.1193" stroke-linecap="round" stroke-linejoin="round" fill="#000000"/>
        <path d="M 56.8902,6.7371 L 55.7167,6.7371 L 55.7167,7.1669 L 56.8902,7.1669 L 56.8902,6.7371 Z" stroke="#494949" stroke-width="0.1193" stroke-linecap="round" stroke-linejoin="round" fill="#000000"/>
        <path d="M 59.7683,6.7371 L 58.5947,6.7371 L 58.5947,7.1669 L 59.7683,7.1669 L 59.7683,6.7371 Z" stroke="#494949" stroke-width="0.1193" stroke-linecap="round" stroke-linejoin="round" fill="#000000"/>
        <path d="M 63.0375,6.5708 L 63.0375,6.7233 L 62.8140,6.7233 L 62.8140,7.1530 L 61.8779,7.1530 L 61.8779,7.1946 L 61.5845,7.1946 L 61.5845,6.7233 L 61.6404,6.7233 L 61.6404,7.1530 L 61.8779,7.1530 L 61.8779,8.1095 L 61.9757,8.1095 L 61.9757,8.6085 L 61.8779,8.6085 L 61.8779,9.6898 L 65.4545,9.6898 L 65.4545,8.6085 L 65.3567,8.6085 L 65.3567,8.1095 L 65.4545,8.1095 L 65.4545,7.1530 L 65.6920,7.1530 L 65.6920,6.7233 L 65.7479,6.7233 L 65.7479,7.1946 L 65.4545,7.1946 L 65.4545,7.1530 L 64.5184,7.1530 L 64.5184,6.7233 L 64.2949,6.7233 L 64.2949,6.5708 L 63.0375,6.5708 Z" stroke="#000000" stroke-width="0.1193" stroke-linecap="round" stroke-linejoin="round" fill="#000000"/>
        <path d="M 62.8140,6.7371 L 61.6404,6.7371 L 61.6404,7.1669 L 62.8140,7.1669 L 62.8140,6.7371 Z" stroke="#494949" stroke-width="0.1193" stroke-linecap="round" stroke-linejoin="round" fill="#000000"/>
        <path d="M 65.6920,6.7371 L 64.5184,6.7371 L 64.5184,7.1669 L 65.6920,7.1669 L 65.6920,6.7371 Z" stroke="#494949" stroke-width="0.1193" stroke-linecap="round" stroke-linejoin="round" fill="#000000"/>
        <path d="M 68.9053,6.5708 L 68.9053,6.7233 L 68.6818,6.7233 L 68.6818,7.1530 L 67.7457,7.1530 L 67.7457,7.1946 L 67.4524,7.1946 L 67.4524,6.7233 L 67.5082,6.7233 L 67.5082,7.1530 L 67.7457,7.1530 L 67.7457,8.1095 L 67.8435,8.1095 L 67.8435,8.6085 L 67.7457,8.6085 L 67.7457,9.6898 L 71.3223,9.6898 L 71.3223,8.6085 L 71.2245,8.6085 L 71.2245,8.1095 L 71.3223,8.1095 L 71.3223,7.1530 L 71.5599,7.1530 L 71.5599,6.7233 L 71.6157,6.7233 L 71.6157,7.1946 L 71.3223,7.1946 L 71.3223,7.1530 L 70.3863,7.1530 L 70.3863,6.7233 L 70.1627,6.7233 L 70.1627,6.5708 L 68.9053,6.5708 Z" stroke="#000000" stroke-width="0.1193" stroke-linecap="round" stroke-linejoin="round" fill="#000000"/>
        <path d="M 68.6818,6.7371 L 67.5082,6.7371 L 67.5082,7.1669 L 68.6818,7.1669 L 68.6818,6.7371 Z" stroke="#494949" stroke-width="0.1193" stroke-linecap="round" stroke-linejoin="round" fill="#000000"/>
        <path d="M 71.5599,6.7371 L 70.3863,6.7371 L 70.3863,7.1669 L 71.5599,7.1669 L 71.5599,6.7371 Z" stroke="#494949" stroke-width="0.1193" stroke-linecap="round" stroke-linejoin="round" fill="#000000"/>
        <path d="M 74.7732,6.5708 L 74.7732,6.7233 L 74.5497,6.7233 L 74.5497,7.1530 L 73.6136,7.1530 L 73.6136,7.1946 L 73.3202,7.1946 L 73.3202,6.7233 L 73.3761,6.7233 L 73.3761,7.1530 L 73.6136,7.1530 L 73.6136,8.1095 L 73.7114,8.1095 L 73.7114,8.6085 L 73.6136,8.6085 L 73.6136,9.6898 L 77.1902,9.6898 L 77.1902,8.6085 L 77.0924,8.6085 L 77.0924,8.1095 L 77.1902,8.1095 L 77.1902,7.1530 L 77.4277,7.1530 L 77.4277,6.7233 L 77.4836,6.7233 L 77.4836,7.1946 L 77.1902,7.1946 L 77.1902,7.1530 L 76.2541,7.1530 L 76.2541,6.7233 L 76.0306,6.7233 L 76.0306,6.5708 L 74.7732,6.5708 Z" stroke="#000000" stroke-width="0.1193" stroke-linecap="round" stroke-linejoin="round" fill="#000000"/>
        <path d="M 74.5497,6.7371 L 73.3761,6.7371 L 73.3761,7.1669 L 74.5497,7.1669 L 74.5497,6.7371 Z" stroke="#494949" stroke-width="0.1193" stroke-linecap="round" stroke-linejoin="round" fill="#000000"/>
        <path d="M 77.4277,6.7371 L 76.2541,6.7371 L 76.2541,7.1669 L 77.4277,7.1669 L 77.4277,6.7371 Z" stroke="#494949" stroke-width="0.1193" stroke-linecap="round" stroke-linejoin="round" fill="#000000"/>
        <path d="M 80.6410,6.5708 L 80.6410,6.7233 L 80.4175,6.7233 L 80.4175,7.1530 L 79.4815,7.1530 L 79.4815,7.1946 L 79.1881,7.1946 L 79.1881,6.7233 L 79.2439,6.7233 L 79.2439,7.1530 L 79.4815,7.1530 L 79.4815,8.1095 L 79.5792,8.1095 L 79.5792,8.6085 L 79.4815,8.6085 L 79.4815,9.6898 L 83.0580,9.6898 L 83.0580,8.6085 L 82.9602,8.6085 L 82.9602,8.1095 L 83.0580,8.1095 L 83.0580,7.1530 L 83.2956,7.1530 L 83.2956,6.7233 L 83.3514,6.7233 L 83.3514,7.1946 L 83.0580,7.1946 L 83.0580,7.1530 L 82.1220,7.1530 L 82.1220,6.7233 L 81.8984,6.7233 L 81.8984,6.5708 L 80.6410,6.5708 Z" stroke="#000000" stroke-width="0.1193" stroke-linecap="round" stroke-linejoin="round" fill="#000000"/>
        <path d="M 80.4175,6.7371 L 79.2439,6.7371 L 79.2439,7.1669 L 80.4175,7.1669 L 80.4175,6.7371 Z" stroke="#494949" stroke-width="0.1193" stroke-linecap="round" stroke-linejoin="round" fill="#000000"/>
        <path d="M 83.2956,6.7371 L 82.1220,6.7371 L 82.1220,7.1669 L 83.2956,7.1669 L 83.2956,6.7371 Z" stroke="#494949" stroke-width="0.1193" stroke-linecap="round" stroke-linejoin="round" fill="#000000"/>
        <path d="M 86.5089,6.5708 L 86.5089,6.7233 L 86.2854,6.7233 L 86.2854,7.1530 L 85.3493,7.1530 L 85.3493,7.1946 L 85.0559,7.1946 L 85.0559,6.7233 L 85.1118,6.7233 L 85.1118,7.1530 L 85.3493,7.1530 L 85.3493,8.1095 L 85.4471,8.1095 L 85.4471,8.6085 L 85.3493,8.6085 L 85.3493,9.6898 L 88.9259,9.6898 L 88.9259,8.6085 L 88.8281,8.6085 L 88.8281,8.1095 L 88.9259,8.1095 L 88.9259,7.1530 L 89.1634,7.1530 L 89.1634,6.7233 L 89.2193,6.7233 L 89.2193,7.1946 L 88.9259,7.1946 L 88.9259,7.1530 L 87.9898,7.1530 L 87.9898,6.7233 L 87.7663,6.7233 L 87.7663,6.5708 L 86.5089,6.5708 Z" stroke="#000000" stroke-width="0.1193" stroke-linecap="round" stroke-linejoin="round" fill="#000000"/>
        <path d="M 86.2854,6.7371 L 85.1118,6.7371 L 85.1118,7.1669 L 86.2854,7.1669 L 86.2854,6.7371 Z" stroke="#494949" stroke-width="0.1193" stroke-linecap="round" stroke-linejoin="round" fill="#000000"/>
        <path d="M 89.1634,6.7371 L 87.9898,6.7371 L 87.9898,7.1669 L 89.1634,7.1669 L 89.1634,6.7371 Z" stroke="#494949" stroke-width="0.1193" stroke-linecap="round" stroke-linejoin="round" fill="#000000"/>
        <path d="M 56.6932,6.7945 L 55.9378,6.7945 L 55.9378,7.1057 L 56.6932,7.1057 L 56.6932,6.7945 Z" stroke="#000000" stroke-width="0.1193" stroke-linecap="round" stroke-linejoin="round" fill="#FFFF00"/>
        <path d="M 59.5933,6.7945 L 58.8379,6.7945 L 58.8379,7.1057 L 59.5933,7.1057 L 59.5933,6.7945 Z" stroke="#000000" stroke-width="0.1193" stroke-linecap="round" stroke-linejoin="round" fill="#83FF00"/>
        <path d="M 65.5823,6.7945 L 64.8269,6.7945 L 64.8269,7.1057 L 65.5823,7.1057 L 65.5823,6.7945 Z" stroke="#000000" stroke-width="0.1193" stroke-linecap="round" stroke-linejoin="round" fill="#83FF00"/>
        <path d="M 62.6687,6.7945 L 61.9133,6.7945 L 61.9133,7.1057 L 62.6687,7.1057 L 62.6687,6.7945 Z" stroke="#000000" stroke-width="0.1193" stroke-linecap="round" stroke-linejoin="round" fill="#FFFF00"/>
        <path d="M 71.4499,6.7945 L 70.6945,6.7945 L 70.6945,7.1057 L 71.4499,7.1057 L 71.4499,6.7945 Z" stroke="#000000" stroke-width="0.1193" stroke-linecap="round" stroke-linejoin="round" fill="#83FF00"/>
        <path d="M 68.5363,6.7945 L 67.7809,6.7945 L 67.7809,7.1057 L 68.5363,7.1057 L 68.5363,6.7945 Z" stroke="#000000" stroke-width="0.1193" stroke-linecap="round" stroke-linejoin="round" fill="#FFFF00"/>
        <path d="M 77.3175,6.7945 L 76.5621,6.7945 L 76.5621,7.1057 L 77.3175,7.1057 L 77.3175,6.7945 Z" stroke="#000000" stroke-width="0.1193" stroke-linecap="round" stroke-linejoin="round" fill="#83FF00"/>
        <path d="M 74.4039,6.7945 L 73.6485,6.7945 L 73.6485,7.1057 L 74.4039,7.1057 L 74.4039,6.7945 Z" stroke="#000000" stroke-width="0.1193" stroke-linecap="round" stroke-linejoin="round" fill="#FFFF00"/>
        <path d="M 83.1851,6.7945 L 82.4297,6.7945 L 82.4297,7.1057 L 83.1851,7.1057 L 83.1851,6.7945 Z" stroke="#000000" stroke-width="0.1193" stroke-linecap="round" stroke-linejoin="round" fill="#83FF00"/>
        <path d="M 80.2715,6.7945 L 79.5161,6.7945 L 79.5161,7.1057 L 80.2715,7.1057 L 80.2715,6.7945 Z" stroke="#000000" stroke-width="0.1193" stroke-linecap="round" stroke-linejoin="round" fill="#FFFF00"/>
        <path d="M 89.0527,6.7945 L 88.2973,6.7945 L 88.2973,7.1057 L 89.0527,7.1057 L 89.0527,6.7945 Z" stroke="#000000" stroke-width="0.1193" stroke-linecap="round" stroke-linejoin="round" fill="#83FF00"/>
        <path d="M 86.1391,6.7945 L 85.3837,6.7945 L 85.3837,7.1057 L 86.1391,7.1057 L 86.1391,6.7945 Z" stroke="#000000" stroke-width="0.1193" stroke-linecap="round" stroke-linejoin="round" fill="#FFFF00"/>
      </g>
      <!--emf-blob end-->
    </g>
  </g>
</svg>
