<svg xmlns="http://www.w3.org/2000/svg" xmlns:xlink="http://www.w3.org/1999/xlink" version="1.1" width="8.4876000000" height="2.5384000000" viewBox="0 0 152.7735 45.6925">
  <title><![CDATA[FEX-201/211E/202E/212E (R)]]></title>
  <g transform=" scale(4.000000) ">
    <!--converted by libvisio2svg-->
    <g transform=" translate(49.982000,0.720000) ">
      <!--emf-blob start-->
      <g transform="translate(-0.0000, -0.0000)">
        <path d="M 0.0000,3.5364 L 3.7265,3.5364 L 3.7265,5.6133 L 0.0000,5.6133 L 0.0000,3.5364 Z" stroke="#000000" stroke-width="0.1197" stroke-linecap="round" stroke-linejoin="round" fill="#BCBC7E"/>
        <path d="M 0.0000,3.8451 L 3.7265,3.8451 L 3.7265,5.3046 L 0.0000,5.3046 L 0.0000,3.8451 Z" stroke="#CCCC9B" stroke-width="0.1197" stroke-linecap="round" stroke-linejoin="round" fill="#CCCC9B"/>
        <path d="M 0.0000,4.2100 L 3.7265,4.2100 L 3.7265,4.9397 L 0.0000,4.9397 L 0.0000,4.2100 Z" stroke="#D6D6B1" stroke-width="0.1197" stroke-linecap="round" stroke-linejoin="round" fill="#D6D6B1"/>
        <path d="M 0.0000,4.4766 L 3.7265,4.4766 L 3.7265,4.6731 L 0.0000,4.6731 L 0.0000,4.4766 Z" stroke="#E2E2CC" stroke-width="0.1197" stroke-linecap="round" stroke-linejoin="round" fill="#E2E2CC"/>
        <path d="M 0.2942,3.5364 L 1.5971,3.5364 L 1.5971,5.6133 L 0.2942,5.6133 L 0.2942,3.5364 Z" stroke="#000000" stroke-width="0.1197" stroke-linecap="round" stroke-linejoin="round" fill="#BCBC7E"/>
        <path d="M 1.4710,3.5364 L 1.5971,3.5364 L 1.5971,5.6133 L 1.4710,5.6133 L 1.4710,3.5364 Z" stroke="#000000" stroke-width="0.1197" stroke-linecap="round" stroke-linejoin="round" fill="#CCCC9B"/>
        <path d="M 1.2468,3.5364 L 1.3729,3.5364 L 1.3729,5.6133 L 1.2468,5.6133 L 1.2468,3.5364 Z" stroke="#000000" stroke-width="0.1197" stroke-linecap="round" stroke-linejoin="round" fill="#CCCC9B"/>
        <path d="M 1.0087,3.5364 L 1.1347,3.5364 L 1.1347,5.6133 L 1.0087,5.6133 L 1.0087,3.5364 Z" stroke="#000000" stroke-width="0.1197" stroke-linecap="round" stroke-linejoin="round" fill="#CCCC9B"/>
        <path d="M 0.7845,3.5364 L 0.9106,3.5364 L 0.9106,5.6133 L 0.7845,5.6133 L 0.7845,3.5364 Z" stroke="#000000" stroke-width="0.1197" stroke-linecap="round" stroke-linejoin="round" fill="#CCCC9B"/>
        <path d="M 0.5464,3.5364 L 0.6724,3.5364 L 0.6724,5.6133 L 0.5464,5.6133 L 0.5464,3.5364 Z" stroke="#000000" stroke-width="0.1197" stroke-linecap="round" stroke-linejoin="round" fill="#CCCC9B"/>
        <path d="M 0.2942,3.5364 L 0.4203,3.5364 L 0.4203,5.6133 L 0.2942,5.6133 L 0.2942,3.5364 Z" stroke="#000000" stroke-width="0.1197" stroke-linecap="round" stroke-linejoin="round" fill="#CCCC9B"/>
        <path d="M 0.0000,3.5364 L 3.7265,3.5364 L 3.7265,5.6133 L 0.0000,5.6133 L 0.0000,3.5364 Z" stroke="#000000" stroke-width="0.1197" stroke-linecap="round" stroke-linejoin="round" fill="none"/>
        <path d="M 52.6187,3.5364 L 48.8922,3.5364 L 48.8922,5.6133 L 52.6187,5.6133 L 52.6187,3.5364 Z" stroke="#000000" stroke-width="0.1197" stroke-linecap="round" stroke-linejoin="round" fill="#BCBC7E"/>
        <path d="M 52.6187,3.8451 L 48.8922,3.8451 L 48.8922,5.3046 L 52.6187,5.3046 L 52.6187,3.8451 Z" stroke="#CCCC9B" stroke-width="0.1197" stroke-linecap="round" stroke-linejoin="round" fill="#CCCC9B"/>
        <path d="M 52.6187,4.2100 L 48.8922,4.2100 L 48.8922,4.9397 L 52.6187,4.9397 L 52.6187,4.2100 Z" stroke="#D6D6B1" stroke-width="0.1197" stroke-linecap="round" stroke-linejoin="round" fill="#D6D6B1"/>
        <path d="M 52.6187,4.4766 L 48.8922,4.4766 L 48.8922,4.6731 L 52.6187,4.6731 L 52.6187,4.4766 Z" stroke="#E2E2CC" stroke-width="0.1197" stroke-linecap="round" stroke-linejoin="round" fill="#E2E2CC"/>
        <path d="M 52.3245,3.5364 L 51.0216,3.5364 L 51.0216,5.6133 L 52.3245,5.6133 L 52.3245,3.5364 Z" stroke="#000000" stroke-width="0.1197" stroke-linecap="round" stroke-linejoin="round" fill="#BCBC7E"/>
        <path d="M 51.1477,3.5364 L 51.0216,3.5364 L 51.0216,5.6133 L 51.1477,5.6133 L 51.1477,3.5364 Z" stroke="#000000" stroke-width="0.1197" stroke-linecap="round" stroke-linejoin="round" fill="#CCCC9B"/>
        <path d="M 51.3719,3.5364 L 51.2458,3.5364 L 51.2458,5.6133 L 51.3719,5.6133 L 51.3719,3.5364 Z" stroke="#000000" stroke-width="0.1197" stroke-linecap="round" stroke-linejoin="round" fill="#CCCC9B"/>
        <path d="M 51.6100,3.5364 L 51.4839,3.5364 L 51.4839,5.6133 L 51.6100,5.6133 L 51.6100,3.5364 Z" stroke="#000000" stroke-width="0.1197" stroke-linecap="round" stroke-linejoin="round" fill="#CCCC9B"/>
        <path d="M 51.8342,3.5364 L 51.7081,3.5364 L 51.7081,5.6133 L 51.8342,5.6133 L 51.8342,3.5364 Z" stroke="#000000" stroke-width="0.1197" stroke-linecap="round" stroke-linejoin="round" fill="#CCCC9B"/>
        <path d="M 52.0723,3.5364 L 51.9462,3.5364 L 51.9462,5.6133 L 52.0723,5.6133 L 52.0723,3.5364 Z" stroke="#000000" stroke-width="0.1197" stroke-linecap="round" stroke-linejoin="round" fill="#CCCC9B"/>
        <path d="M 52.3245,3.5364 L 52.1984,3.5364 L 52.1984,5.6133 L 52.3245,5.6133 L 52.3245,3.5364 Z" stroke="#000000" stroke-width="0.1197" stroke-linecap="round" stroke-linejoin="round" fill="#CCCC9B"/>
        <path d="M 52.6187,3.5364 L 48.8922,3.5364 L 48.8922,5.6133 L 52.6187,5.6133 L 52.6187,3.5364 Z" stroke="#000000" stroke-width="0.1197" stroke-linecap="round" stroke-linejoin="round" fill="none"/>
        <path d="M 48.8922,0.0281 L 3.7265,0.0281 L 3.7265,11.3108 L 48.8922,11.3108 L 48.8922,0.0281 Z" stroke="#000000" stroke-width="0.1197" stroke-linecap="round" stroke-linejoin="round" fill="#F7F7F7"/>
        <path d="M 7.6210,0.0281 L 3.7265,0.0281 L 3.7265,11.3108 L 7.6210,11.3108 L 7.6210,0.0281 Z" stroke="#EFEFEF" stroke-width="0.1197" stroke-linecap="round" stroke-linejoin="round" fill="#EFEFEF"/>
        <path d="M 6.5003,0.0281 L 3.7265,0.0281 L 3.7265,11.3108 L 6.5003,11.3108 L 6.5003,0.0281 Z" stroke="#EAEAEA" stroke-width="0.1197" stroke-linecap="round" stroke-linejoin="round" fill="#EAEAEA"/>
        <path d="M 5.4216,0.0281 L 3.7265,0.0281 L 3.7265,11.3108 L 5.4216,11.3108 L 5.4216,0.0281 Z" stroke="#E2E2E2" stroke-width="0.1197" stroke-linecap="round" stroke-linejoin="round" fill="#E2E2E2"/>
        <path d="M 4.5390,0.0281 L 3.7265,0.0281 L 3.7265,11.3108 L 4.5390,11.3108 L 4.5390,0.0281 Z" stroke="#DDDDDD" stroke-width="0.1197" stroke-linecap="round" stroke-linejoin="round" fill="#DDDDDD"/>
        <path d="M 48.8922,0.0281 L 44.9977,0.0281 L 44.9977,11.3108 L 48.8922,11.3108 L 48.8922,0.0281 Z" stroke="#EFEFEF" stroke-width="0.1197" stroke-linecap="round" stroke-linejoin="round" fill="#EFEFEF"/>
        <path d="M 48.8922,0.0281 L 46.1184,0.0281 L 46.1184,11.3108 L 48.8922,11.3108 L 48.8922,0.0281 Z" stroke="#EAEAEA" stroke-width="0.1197" stroke-linecap="round" stroke-linejoin="round" fill="#EAEAEA"/>
        <path d="M 48.8922,0.0281 L 47.1971,0.0281 L 47.1971,11.3108 L 48.8922,11.3108 L 48.8922,0.0281 Z" stroke="#E2E2E2" stroke-width="0.1197" stroke-linecap="round" stroke-linejoin="round" fill="#E2E2E2"/>
        <path d="M 48.8922,0.0281 L 48.0797,0.0281 L 48.0797,11.3108 L 48.8922,11.3108 L 48.8922,0.0281 Z" stroke="#DDDDDD" stroke-width="0.1197" stroke-linecap="round" stroke-linejoin="round" fill="#DDDDDD"/>
        <path d="M 10.2548,1.1788 L 10.1427,1.1788 L 9.8065,1.2630 L 9.7644,1.2911 L 9.7084,1.3191 L 9.6664,1.3472 L 9.6103,1.3753 L 9.5683,1.4033 L 9.5263,1.4454 L 9.4843,1.4735 L 9.4002,1.5577 L 9.3722,1.5998 L 9.3301,1.6419 L 9.3021,1.6840 L 9.2741,1.7401 L 9.2461,1.7822 L 9.2181,1.8384 L 9.1901,1.8805 L 9.1060,2.2172 L 9.1060,11.3108 L 43.5127,11.3108 L 43.5127,2.2172 L 43.4286,1.8805 L 43.4006,1.8384 L 43.3726,1.7822 L 43.3446,1.7401 L 43.3165,1.6840 L 43.2885,1.6419 L 43.2465,1.5998 L 43.2185,1.5577 L 43.1344,1.4735 L 43.0924,1.4454 L 43.0504,1.4033 L 43.0083,1.3753 L 42.9523,1.3472 L 42.9103,1.3191 L 42.8542,1.2911 L 42.8122,1.2630 L 42.4760,1.1788 L 10.3528,1.1788 L 10.2548,1.1788 Z" stroke="#000000" stroke-width="0.1197" stroke-linecap="round" stroke-linejoin="round" fill="#EFEFEF"/>
        <path d="M 9.1620,8.8690 L 43.4566,8.8690 " stroke="#000000" stroke-width="0.1197" stroke-linecap="round" stroke-linejoin="round" fill="none"/>
        <path d="M 11.1513,9.4864 L 11.1513,9.4444 L 11.1233,9.3882 L 11.0673,9.3321 L 11.0113,9.3040 L 9.5963,9.3040 L 9.5403,9.3321 L 9.4843,9.3882 L 9.4562,9.4444 L 9.4562,9.5285 L 9.4843,9.5847 L 9.5403,9.6408 L 9.5963,9.6689 L 11.0113,9.6689 L 11.0673,9.6408 L 11.1233,9.5847 L 11.1513,9.5285 L 11.1513,9.4864 Z" stroke="#000000" stroke-width="0.1197" stroke-linecap="round" stroke-linejoin="round" fill="#000000"/>
        <path d="M 11.1513,10.2442 L 11.1513,10.2021 L 11.1233,10.1460 L 11.0673,10.0899 L 11.0113,10.0618 L 9.5963,10.0618 L 9.5403,10.0899 L 9.4843,10.1460 L 9.4562,10.2021 L 9.4562,10.2863 L 9.4843,10.3425 L 9.5403,10.3986 L 9.5963,10.4267 L 11.0113,10.4267 L 11.0673,10.3986 L 11.1233,10.3425 L 11.1513,10.2863 L 11.1513,10.2442 Z" stroke="#000000" stroke-width="0.1197" stroke-linecap="round" stroke-linejoin="round" fill="#000000"/>
        <path d="M 13.4068,9.4864 L 13.4068,9.4444 L 13.3788,9.3882 L 13.3228,9.3321 L 13.2667,9.3040 L 11.8518,9.3040 L 11.7958,9.3321 L 11.7397,9.3882 L 11.7117,9.4444 L 11.7117,9.5285 L 11.7397,9.5847 L 11.7958,9.6408 L 11.8518,9.6689 L 13.2667,9.6689 L 13.3228,9.6408 L 13.3788,9.5847 L 13.4068,9.5285 L 13.4068,9.4864 Z" stroke="#000000" stroke-width="0.1197" stroke-linecap="round" stroke-linejoin="round" fill="#000000"/>
        <path d="M 13.4068,10.2442 L 13.4068,10.2021 L 13.3788,10.1460 L 13.3228,10.0899 L 13.2667,10.0618 L 11.8518,10.0618 L 11.7958,10.0899 L 11.7397,10.1460 L 11.7117,10.2021 L 11.7117,10.2863 L 11.7397,10.3425 L 11.7958,10.3986 L 11.8518,10.4267 L 13.2667,10.4267 L 13.3228,10.3986 L 13.3788,10.3425 L 13.4068,10.2863 L 13.4068,10.2442 Z" stroke="#000000" stroke-width="0.1197" stroke-linecap="round" stroke-linejoin="round" fill="#000000"/>
        <path d="M 15.6903,9.4864 L 15.6903,9.4444 L 15.6623,9.3882 L 15.6063,9.3321 L 15.5502,9.3040 L 14.1353,9.3040 L 14.0793,9.3321 L 14.0232,9.3882 L 13.9952,9.4444 L 13.9952,9.5285 L 14.0232,9.5847 L 14.0793,9.6408 L 14.1353,9.6689 L 15.5502,9.6689 L 15.6063,9.6408 L 15.6623,9.5847 L 15.6903,9.5285 L 15.6903,9.4864 Z" stroke="#000000" stroke-width="0.1197" stroke-linecap="round" stroke-linejoin="round" fill="#000000"/>
        <path d="M 15.6903,10.2442 L 15.6903,10.2021 L 15.6623,10.1460 L 15.6063,10.0899 L 15.5502,10.0618 L 14.1353,10.0618 L 14.0793,10.0899 L 14.0232,10.1460 L 13.9952,10.2021 L 13.9952,10.2863 L 14.0232,10.3425 L 14.0793,10.3986 L 14.1353,10.4267 L 15.5502,10.4267 L 15.6063,10.3986 L 15.6623,10.3425 L 15.6903,10.2863 L 15.6903,10.2442 Z" stroke="#000000" stroke-width="0.1197" stroke-linecap="round" stroke-linejoin="round" fill="#000000"/>
        <path d="M 17.9598,9.4864 L 17.9598,9.4444 L 17.9318,9.3882 L 17.8758,9.3321 L 17.8197,9.3040 L 16.4048,9.3040 L 16.3488,9.3321 L 16.2927,9.3882 L 16.2647,9.4444 L 16.2647,9.5285 L 16.2927,9.5847 L 16.3488,9.6408 L 16.4048,9.6689 L 17.8197,9.6689 L 17.8758,9.6408 L 17.9318,9.5847 L 17.9598,9.5285 L 17.9598,9.4864 Z" stroke="#000000" stroke-width="0.1197" stroke-linecap="round" stroke-linejoin="round" fill="#000000"/>
        <path d="M 17.9598,10.2442 L 17.9598,10.2021 L 17.9318,10.1460 L 17.8758,10.0899 L 17.8197,10.0618 L 16.4048,10.0618 L 16.3488,10.0899 L 16.2927,10.1460 L 16.2647,10.2021 L 16.2647,10.2863 L 16.2927,10.3425 L 16.3488,10.3986 L 16.4048,10.4267 L 17.8197,10.4267 L 17.8758,10.3986 L 17.9318,10.3425 L 17.9598,10.2863 L 17.9598,10.2442 Z" stroke="#000000" stroke-width="0.1197" stroke-linecap="round" stroke-linejoin="round" fill="#000000"/>
        <path d="M 20.2293,9.4864 L 20.2293,9.4444 L 20.2013,9.3882 L 20.1453,9.3321 L 20.0892,9.3040 L 18.6743,9.3040 L 18.6183,9.3321 L 18.5622,9.3882 L 18.5342,9.4444 L 18.5342,9.5285 L 18.5622,9.5847 L 18.6183,9.6408 L 18.6743,9.6689 L 20.0892,9.6689 L 20.1453,9.6408 L 20.2013,9.5847 L 20.2293,9.5285 L 20.2293,9.4864 Z" stroke="#000000" stroke-width="0.1197" stroke-linecap="round" stroke-linejoin="round" fill="#000000"/>
        <path d="M 20.2293,10.2442 L 20.2293,10.2021 L 20.2013,10.1460 L 20.1453,10.0899 L 20.0892,10.0618 L 18.6743,10.0618 L 18.6183,10.0899 L 18.5622,10.1460 L 18.5342,10.2021 L 18.5342,10.2863 L 18.5622,10.3425 L 18.6183,10.3986 L 18.6743,10.4267 L 20.0892,10.4267 L 20.1453,10.3986 L 20.2013,10.3425 L 20.2293,10.2863 L 20.2293,10.2442 Z" stroke="#000000" stroke-width="0.1197" stroke-linecap="round" stroke-linejoin="round" fill="#000000"/>
        <path d="M 22.4988,9.4864 L 22.4988,9.4444 L 22.4708,9.3882 L 22.4148,9.3321 L 22.3587,9.3040 L 20.9438,9.3040 L 20.8878,9.3321 L 20.8317,9.3882 L 20.8037,9.4444 L 20.8037,9.5285 L 20.8317,9.5847 L 20.8878,9.6408 L 20.9438,9.6689 L 22.3587,9.6689 L 22.4148,9.6408 L 22.4708,9.5847 L 22.4988,9.5285 L 22.4988,9.4864 Z" stroke="#000000" stroke-width="0.1197" stroke-linecap="round" stroke-linejoin="round" fill="#000000"/>
        <path d="M 22.4988,10.2442 L 22.4988,10.2021 L 22.4708,10.1460 L 22.4148,10.0899 L 22.3587,10.0618 L 20.9438,10.0618 L 20.8878,10.0899 L 20.8317,10.1460 L 20.8037,10.2021 L 20.8037,10.2863 L 20.8317,10.3425 L 20.8878,10.3986 L 20.9438,10.4267 L 22.3587,10.4267 L 22.4148,10.3986 L 22.4708,10.3425 L 22.4988,10.2863 L 22.4988,10.2442 Z" stroke="#000000" stroke-width="0.1197" stroke-linecap="round" stroke-linejoin="round" fill="#000000"/>
        <path d="M 24.7823,9.4864 L 24.7823,9.4444 L 24.7543,9.3882 L 24.6983,9.3321 L 24.6422,9.3040 L 23.2273,9.3040 L 23.1713,9.3321 L 23.1152,9.3882 L 23.0872,9.4444 L 23.0872,9.5285 L 23.1152,9.5847 L 23.1713,9.6408 L 23.2273,9.6689 L 24.6422,9.6689 L 24.6983,9.6408 L 24.7543,9.5847 L 24.7823,9.5285 L 24.7823,9.4864 Z" stroke="#000000" stroke-width="0.1197" stroke-linecap="round" stroke-linejoin="round" fill="#000000"/>
        <path d="M 24.7823,10.2442 L 24.7823,10.2021 L 24.7543,10.1460 L 24.6983,10.0899 L 24.6422,10.0618 L 23.2273,10.0618 L 23.1713,10.0899 L 23.1152,10.1460 L 23.0872,10.2021 L 23.0872,10.2863 L 23.1152,10.3425 L 23.1713,10.3986 L 23.2273,10.4267 L 24.6422,10.4267 L 24.6983,10.3986 L 24.7543,10.3425 L 24.7823,10.2863 L 24.7823,10.2442 Z" stroke="#000000" stroke-width="0.1197" stroke-linecap="round" stroke-linejoin="round" fill="#000000"/>
        <path d="M 27.0518,9.4864 L 27.0518,9.4444 L 27.0238,9.3882 L 26.9678,9.3321 L 26.9117,9.3040 L 25.4968,9.3040 L 25.4408,9.3321 L 25.3847,9.3882 L 25.3567,9.4444 L 25.3567,9.5285 L 25.3847,9.5847 L 25.4408,9.6408 L 25.4968,9.6689 L 26.9117,9.6689 L 26.9678,9.6408 L 27.0238,9.5847 L 27.0518,9.5285 L 27.0518,9.4864 Z" stroke="#000000" stroke-width="0.1197" stroke-linecap="round" stroke-linejoin="round" fill="#000000"/>
        <path d="M 27.0518,10.2442 L 27.0518,10.2021 L 27.0238,10.1460 L 26.9678,10.0899 L 26.9117,10.0618 L 25.4968,10.0618 L 25.4408,10.0899 L 25.3847,10.1460 L 25.3567,10.2021 L 25.3567,10.2863 L 25.3847,10.3425 L 25.4408,10.3986 L 25.4968,10.4267 L 26.9117,10.4267 L 26.9678,10.3986 L 27.0238,10.3425 L 27.0518,10.2863 L 27.0518,10.2442 Z" stroke="#000000" stroke-width="0.1197" stroke-linecap="round" stroke-linejoin="round" fill="#000000"/>
        <path d="M 29.3213,9.4864 L 29.3213,9.4444 L 29.2933,9.3882 L 29.2373,9.3321 L 29.1812,9.3040 L 27.7663,9.3040 L 27.7103,9.3321 L 27.6542,9.3882 L 27.6262,9.4444 L 27.6262,9.5285 L 27.6542,9.5847 L 27.7103,9.6408 L 27.7663,9.6689 L 29.1812,9.6689 L 29.2373,9.6408 L 29.2933,9.5847 L 29.3213,9.5285 L 29.3213,9.4864 Z" stroke="#000000" stroke-width="0.1197" stroke-linecap="round" stroke-linejoin="round" fill="#000000"/>
        <path d="M 29.3213,10.2442 L 29.3213,10.2021 L 29.2933,10.1460 L 29.2373,10.0899 L 29.1812,10.0618 L 27.7663,10.0618 L 27.7103,10.0899 L 27.6542,10.1460 L 27.6262,10.2021 L 27.6262,10.2863 L 27.6542,10.3425 L 27.7103,10.3986 L 27.7663,10.4267 L 29.1812,10.4267 L 29.2373,10.3986 L 29.2933,10.3425 L 29.3213,10.2863 L 29.3213,10.2442 Z" stroke="#000000" stroke-width="0.1197" stroke-linecap="round" stroke-linejoin="round" fill="#000000"/>
        <path d="M 31.6048,9.4864 L 31.6048,9.4444 L 31.5768,9.3882 L 31.5208,9.3321 L 31.4647,9.3040 L 30.0498,9.3040 L 29.9938,9.3321 L 29.9377,9.3882 L 29.9097,9.4444 L 29.9097,9.5285 L 29.9377,9.5847 L 29.9938,9.6408 L 30.0498,9.6689 L 31.4647,9.6689 L 31.5208,9.6408 L 31.5768,9.5847 L 31.6048,9.5285 L 31.6048,9.4864 Z" stroke="#000000" stroke-width="0.1197" stroke-linecap="round" stroke-linejoin="round" fill="#000000"/>
        <path d="M 31.6048,10.2442 L 31.6048,10.2021 L 31.5768,10.1460 L 31.5208,10.0899 L 31.4647,10.0618 L 30.0498,10.0618 L 29.9938,10.0899 L 29.9377,10.1460 L 29.9097,10.2021 L 29.9097,10.2863 L 29.9377,10.3425 L 29.9938,10.3986 L 30.0498,10.4267 L 31.4647,10.4267 L 31.5208,10.3986 L 31.5768,10.3425 L 31.6048,10.2863 L 31.6048,10.2442 Z" stroke="#000000" stroke-width="0.1197" stroke-linecap="round" stroke-linejoin="round" fill="#000000"/>
        <path d="M 33.8743,9.4864 L 33.8743,9.4444 L 33.8463,9.3882 L 33.7903,9.3321 L 33.7342,9.3040 L 32.3193,9.3040 L 32.2633,9.3321 L 32.2072,9.3882 L 32.1792,9.4444 L 32.1792,9.5285 L 32.2072,9.5847 L 32.2633,9.6408 L 32.3193,9.6689 L 33.7342,9.6689 L 33.7903,9.6408 L 33.8463,9.5847 L 33.8743,9.5285 L 33.8743,9.4864 Z" stroke="#000000" stroke-width="0.1197" stroke-linecap="round" stroke-linejoin="round" fill="#000000"/>
        <path d="M 33.8743,10.2442 L 33.8743,10.2021 L 33.8463,10.1460 L 33.7903,10.0899 L 33.7342,10.0618 L 32.3193,10.0618 L 32.2633,10.0899 L 32.2072,10.1460 L 32.1792,10.2021 L 32.1792,10.2863 L 32.2072,10.3425 L 32.2633,10.3986 L 32.3193,10.4267 L 33.7342,10.4267 L 33.7903,10.3986 L 33.8463,10.3425 L 33.8743,10.2863 L 33.8743,10.2442 Z" stroke="#000000" stroke-width="0.1197" stroke-linecap="round" stroke-linejoin="round" fill="#000000"/>
        <path d="M 36.1438,9.4864 L 36.1438,9.4444 L 36.1158,9.3882 L 36.0598,9.3321 L 36.0037,9.3040 L 34.5888,9.3040 L 34.5328,9.3321 L 34.4767,9.3882 L 34.4487,9.4444 L 34.4487,9.5285 L 34.4767,9.5847 L 34.5328,9.6408 L 34.5888,9.6689 L 36.0037,9.6689 L 36.0598,9.6408 L 36.1158,9.5847 L 36.1438,9.5285 L 36.1438,9.4864 Z" stroke="#000000" stroke-width="0.1197" stroke-linecap="round" stroke-linejoin="round" fill="#000000"/>
        <path d="M 36.1438,10.2442 L 36.1438,10.2021 L 36.1158,10.1460 L 36.0598,10.0899 L 36.0037,10.0618 L 34.5888,10.0618 L 34.5328,10.0899 L 34.4767,10.1460 L 34.4487,10.2021 L 34.4487,10.2863 L 34.4767,10.3425 L 34.5328,10.3986 L 34.5888,10.4267 L 36.0037,10.4267 L 36.0598,10.3986 L 36.1158,10.3425 L 36.1438,10.2863 L 36.1438,10.2442 Z" stroke="#000000" stroke-width="0.1197" stroke-linecap="round" stroke-linejoin="round" fill="#000000"/>
        <path d="M 38.4133,9.4864 L 38.4133,9.4444 L 38.3853,9.3882 L 38.3293,9.3321 L 38.2732,9.3040 L 36.8583,9.3040 L 36.8023,9.3321 L 36.7462,9.3882 L 36.7182,9.4444 L 36.7182,9.5285 L 36.7462,9.5847 L 36.8023,9.6408 L 36.8583,9.6689 L 38.2732,9.6689 L 38.3293,9.6408 L 38.3853,9.5847 L 38.4133,9.5285 L 38.4133,9.4864 Z" stroke="#000000" stroke-width="0.1197" stroke-linecap="round" stroke-linejoin="round" fill="#000000"/>
        <path d="M 38.4133,10.2442 L 38.4133,10.2021 L 38.3853,10.1460 L 38.3293,10.0899 L 38.2732,10.0618 L 36.8583,10.0618 L 36.8023,10.0899 L 36.7462,10.1460 L 36.7182,10.2021 L 36.7182,10.2863 L 36.7462,10.3425 L 36.8023,10.3986 L 36.8583,10.4267 L 38.2732,10.4267 L 38.3293,10.3986 L 38.3853,10.3425 L 38.4133,10.2863 L 38.4133,10.2442 Z" stroke="#000000" stroke-width="0.1197" stroke-linecap="round" stroke-linejoin="round" fill="#000000"/>
        <path d="M 40.6968,9.4864 L 40.6968,9.4444 L 40.6688,9.3882 L 40.6128,9.3321 L 40.5567,9.3040 L 39.1418,9.3040 L 39.0858,9.3321 L 39.0297,9.3882 L 39.0017,9.4444 L 39.0017,9.5285 L 39.0297,9.5847 L 39.0858,9.6408 L 39.1418,9.6689 L 40.5567,9.6689 L 40.6128,9.6408 L 40.6688,9.5847 L 40.6968,9.5285 L 40.6968,9.4864 Z" stroke="#000000" stroke-width="0.1197" stroke-linecap="round" stroke-linejoin="round" fill="#000000"/>
        <path d="M 40.6968,10.2442 L 40.6968,10.2021 L 40.6688,10.1460 L 40.6128,10.0899 L 40.5567,10.0618 L 39.1418,10.0618 L 39.0858,10.0899 L 39.0297,10.1460 L 39.0017,10.2021 L 39.0017,10.2863 L 39.0297,10.3425 L 39.0858,10.3986 L 39.1418,10.4267 L 40.5567,10.4267 L 40.6128,10.3986 L 40.6688,10.3425 L 40.6968,10.2863 L 40.6968,10.2442 Z" stroke="#000000" stroke-width="0.1197" stroke-linecap="round" stroke-linejoin="round" fill="#000000"/>
        <path d="M 42.9803,9.4864 L 42.9803,9.4444 L 42.9523,9.3882 L 42.8963,9.3321 L 42.8402,9.3040 L 41.4253,9.3040 L 41.3693,9.3321 L 41.3132,9.3882 L 41.2852,9.4444 L 41.2852,9.5285 L 41.3132,9.5847 L 41.3693,9.6408 L 41.4253,9.6689 L 42.8402,9.6689 L 42.8963,9.6408 L 42.9523,9.5847 L 42.9803,9.5285 L 42.9803,9.4864 Z" stroke="#000000" stroke-width="0.1197" stroke-linecap="round" stroke-linejoin="round" fill="#000000"/>
        <path d="M 42.9803,10.2442 L 42.9803,10.2021 L 42.9523,10.1460 L 42.8963,10.0899 L 42.8402,10.0618 L 41.4253,10.0618 L 41.3693,10.0899 L 41.3132,10.1460 L 41.2852,10.2021 L 41.2852,10.2863 L 41.3132,10.3425 L 41.3693,10.3986 L 41.4253,10.4267 L 42.8402,10.4267 L 42.8963,10.3986 L 42.9523,10.3425 L 42.9803,10.2863 L 42.9803,10.2442 Z" stroke="#000000" stroke-width="0.1197" stroke-linecap="round" stroke-linejoin="round" fill="#000000"/>
        <path d="M 14.3174,2.4698 L 9.3862,2.4698 L 9.3862,6.7359 L 14.3174,6.7359 L 14.3174,2.4698 Z" stroke="#000000" stroke-width="0.1197" stroke-linecap="round" stroke-linejoin="round" fill="#2399D3"/>
        <path d="M 43.2045,3.4943 L 40.6268,3.4943 L 40.6268,6.7359 L 43.2045,6.7359 L 43.2045,3.4943 Z" stroke="#000000" stroke-width="0.1197" stroke-linecap="round" stroke-linejoin="round" fill="#494949"/>
        <path d="M 40.3186,2.4698 L 19.0806,2.4698 L 19.0806,6.7359 L 40.3186,6.7359 L 40.3186,2.4698 Z" stroke="#000000" stroke-width="0.1197" stroke-linecap="round" stroke-linejoin="round" fill="#E2E2E2"/>
        <path d="M 20.4395,8.4199 L 38.5674,8.4199 " stroke="#000000" stroke-width="0.1197" stroke-linecap="round" stroke-linejoin="round" fill="none"/>
        <path d="M 48.8922,0.0281 L 3.7265,0.0281 L 3.7265,11.3108 L 48.8922,11.3108 L 48.8922,0.0281 Z" stroke="#000000" stroke-width="0.1197" stroke-linecap="round" stroke-linejoin="round" fill="none"/>
        <path d="M 39.2259,1.5016 L 36.6902,1.5016 L 36.6902,2.3295 L 39.2259,2.3295 L 39.2259,1.5016 Z" stroke="#494949" stroke-width="0.1197" stroke-linecap="round" stroke-linejoin="round" fill="#494949"/>
        <path d="M 52.6346,3.9957 L 52.4224,3.9957 L 52.4224,4.2086 L 52.6346,4.2086 L 52.6346,3.9957 Z" stroke="#000000" stroke-width="0.1197" stroke-linecap="round" stroke-linejoin="round" fill="none"/>
        <path d="M 0.2121,3.9957 L 0.0000,3.9957 L 0.0000,4.2086 L 0.2121,4.2086 L 0.2121,3.9957 Z" stroke="#000000" stroke-width="0.1197" stroke-linecap="round" stroke-linejoin="round" fill="none"/>
        <path d="M 52.6346,4.5005 L 52.4224,4.5005 L 52.4224,4.7134 L 52.6346,4.7134 L 52.6346,4.5005 Z" stroke="#000000" stroke-width="0.1197" stroke-linecap="round" stroke-linejoin="round" fill="none"/>
        <path d="M 0.2121,4.5005 L 0.0000,4.5005 L 0.0000,4.7134 L 0.2121,4.7134 L 0.2121,4.5005 Z" stroke="#000000" stroke-width="0.1197" stroke-linecap="round" stroke-linejoin="round" fill="none"/>
        <path d="M 52.6346,5.0053 L 52.4224,5.0053 L 52.4224,5.2182 L 52.6346,5.2182 L 52.6346,5.0053 Z" stroke="#000000" stroke-width="0.1197" stroke-linecap="round" stroke-linejoin="round" fill="none"/>
        <path d="M 0.2121,5.0053 L 0.0000,5.0053 L 0.0000,5.2182 L 0.2121,5.2182 L 0.2121,5.0053 Z" stroke="#000000" stroke-width="0.1197" stroke-linecap="round" stroke-linejoin="round" fill="none"/>
        <text font-family="Arial" fill="#000000" style="white-space:pre;" font-weight="400" text-anchor="start" x="1.3031" y="6.0640" font-size="0.0545"><![CDATA[CONSOLE]]></text>
        <text font-family="Arial" fill="#000000" style="white-space:pre;" font-weight="400" text-anchor="start" x="2.4184" y="6.0640" font-size="0.0545"><![CDATA[WAN]]></text>
        <text font-family="Arial" fill="#000000" style="white-space:pre;" font-weight="400" text-anchor="start" x="2.9154" y="6.0640" font-size="0.0545"><![CDATA[1]]></text>
        <text font-family="Arial" fill="#000000" style="white-space:pre;" font-weight="400" text-anchor="start" x="3.3639" y="6.0640" font-size="0.0545"><![CDATA[2]]></text>
        <text font-family="Arial" fill="#000000" style="white-space:pre;" font-weight="400" text-anchor="start" x="3.8124" y="6.0640" font-size="0.0545"><![CDATA[3]]></text>
        <text font-family="Arial" fill="#000000" style="white-space:pre;" font-weight="400" text-anchor="start" x="4.2610" y="6.0640" font-size="0.0545"><![CDATA[4]]></text>
        <text font-family="Arial" fill="#000000" style="white-space:pre;" font-weight="400" text-anchor="start" x="4.6004" y="6.0640" font-size="0.0545"><![CDATA[12VDC]]></text>
        <path d="M 21.8436,7.0410 L 21.0857,7.0410 L 21.0857,7.3528 L 21.8436,7.3528 L 21.8436,7.0410 Z" stroke="#000000" stroke-width="0.1197" stroke-linecap="round" stroke-linejoin="round" fill="#83FF00"/>
        <path d="M 25.9850,7.0410 L 25.2271,7.0410 L 25.2271,7.3528 L 25.9850,7.3528 L 25.9850,7.0410 Z" stroke="#000000" stroke-width="0.1197" stroke-linecap="round" stroke-linejoin="round" fill="#83FF00"/>
        <path d="M 30.1399,7.0410 L 29.3820,7.0410 L 29.3820,7.3528 L 30.1399,7.3528 L 30.1399,7.0410 Z" stroke="#000000" stroke-width="0.1197" stroke-linecap="round" stroke-linejoin="round" fill="#83FF00"/>
        <path d="M 34.2813,7.0410 L 33.5234,7.0410 L 33.5234,7.3528 L 34.2813,7.3528 L 34.2813,7.0410 Z" stroke="#000000" stroke-width="0.1197" stroke-linecap="round" stroke-linejoin="round" fill="#83FF00"/>
        <path d="M 38.4361,7.0410 L 37.6783,7.0410 L 37.6783,7.3528 L 38.4361,7.3528 L 38.4361,7.0410 Z" stroke="#000000" stroke-width="0.1197" stroke-linecap="round" stroke-linejoin="round" fill="#83FF00"/>
        <ellipse cx="15.3319" cy="7.8624" rx="0.0580" ry="0.0454" fill="#000000" stroke="#000000" stroke-width="0.1197" stroke-linecap="round" stroke-linejoin="round"/>
        <ellipse cx="15.3319" cy="7.8624" rx="0.0580" ry="0.0454" fill="none" stroke="#000000" stroke-width="0.1197" stroke-linecap="round" stroke-linejoin="round"/>
        <path d="M 15.4963,7.9260 L 16.3953,7.9260 " stroke="#000000" stroke-width="0.1197" stroke-linecap="round" stroke-linejoin="round" fill="none"/>
        <path d="M 15.6123,7.9260 L 15.8056,7.7444 L 16.0376,7.7444 " stroke="#000000" stroke-width="0.1197" stroke-linecap="round" stroke-linejoin="round" fill="none"/>
        <path d="M 15.7766,7.9260 L 15.9699,8.1075 L 16.1150,8.1075 " stroke="#000000" stroke-width="0.1197" stroke-linecap="round" stroke-linejoin="round" fill="none"/>
        <ellipse cx="16.0473" cy="7.6808" rx="0.0193" ry="0.0182" fill="#000000" stroke="#000000" stroke-width="0.1197" stroke-linecap="round" stroke-linejoin="round"/>
        <ellipse cx="16.0473" cy="7.6808" rx="0.0193" ry="0.0182" fill="none" stroke="#000000" stroke-width="0.1197" stroke-linecap="round" stroke-linejoin="round"/>
        <path d="M 16.2600,8.0440 L 16.1150,8.0440 L 16.1150,8.1802 L 16.2600,8.1802 L 16.2600,8.0440 Z" stroke="#000000" stroke-width="0.1197" stroke-linecap="round" stroke-linejoin="round" fill="#000000"/>
        <path d="M 16.6176,7.9260 L 16.3953,7.8533 L 16.3953,7.9986 L 16.6176,7.9260 Z" stroke="#000000" stroke-width="0.1197" stroke-linecap="round" stroke-linejoin="round" fill="#000000"/>
        <text font-family="Arial" fill="#FFFFFF" style="white-space:pre;" font-weight="400" text-anchor="start" x="21.9055" y="8.2676" font-size="0.0870"><![CDATA[POE PD]]></text>
        <path d="M 10.0425,5.9957 L 10.0425,3.4975 L 10.9327,3.4975 L 10.9327,3.1644 L 11.2944,3.1644 L 11.2944,2.8730 L 12.3515,2.8730 L 12.3515,3.1644 L 12.7131,3.1644 L 12.7131,3.4975 L 13.6033,3.4975 L 13.6033,5.9957 L 13.1304,5.9957 L 13.1304,5.5655 L 10.5154,5.5655 L 10.5154,5.9957 L 10.0425,5.9957 Z" stroke="#161616" stroke-width="0.1197" stroke-linecap="round" stroke-linejoin="round" fill="#1E82B5"/>
        <path d="M 10.7241,5.4822 L 10.5989,5.4822 L 10.5989,5.5516 L 10.7241,5.5516 L 10.7241,5.4822 Z" stroke="#000000" stroke-width="0.1197" stroke-linecap="round" stroke-linejoin="round" fill="#D6D6B1"/>
        <path d="M 11.0440,5.4822 L 10.9188,5.4822 L 10.9188,5.5516 L 11.0440,5.5516 L 11.0440,5.4822 Z" stroke="#000000" stroke-width="0.1197" stroke-linecap="round" stroke-linejoin="round" fill="#D6D6B1"/>
        <path d="M 11.3778,5.4822 L 11.2526,5.4822 L 11.2526,5.5516 L 11.3778,5.5516 L 11.3778,5.4822 Z" stroke="#000000" stroke-width="0.1197" stroke-linecap="round" stroke-linejoin="round" fill="#D6D6B1"/>
        <path d="M 11.7116,5.4822 L 11.5864,5.4822 L 11.5864,5.5516 L 11.7116,5.5516 L 11.7116,5.4822 Z" stroke="#000000" stroke-width="0.1197" stroke-linecap="round" stroke-linejoin="round" fill="#D6D6B1"/>
        <path d="M 12.0455,5.4822 L 11.9203,5.4822 L 11.9203,5.5516 L 12.0455,5.5516 L 12.0455,5.4822 Z" stroke="#000000" stroke-width="0.1197" stroke-linecap="round" stroke-linejoin="round" fill="#D6D6B1"/>
        <path d="M 12.3793,5.4822 L 12.2541,5.4822 L 12.2541,5.5516 L 12.3793,5.5516 L 12.3793,5.4822 Z" stroke="#000000" stroke-width="0.1197" stroke-linecap="round" stroke-linejoin="round" fill="#D6D6B1"/>
        <path d="M 12.7131,5.4822 L 12.5879,5.4822 L 12.5879,5.5516 L 12.7131,5.5516 L 12.7131,5.4822 Z" stroke="#000000" stroke-width="0.1197" stroke-linecap="round" stroke-linejoin="round" fill="#D6D6B1"/>
        <path d="M 13.0608,5.4822 L 12.9356,5.4822 L 12.9356,5.5516 L 13.0608,5.5516 L 13.0608,5.4822 Z" stroke="#000000" stroke-width="0.1197" stroke-linecap="round" stroke-linejoin="round" fill="#D6D6B1"/>
        <path d="M 15.1494,6.3258 L 15.1494,6.3677 L 15.1631,6.3677 L 15.1631,6.3956 L 15.1768,6.4096 L 15.1768,6.4236 L 15.1905,6.4236 L 15.1905,6.4375 L 15.2042,6.4375 L 15.2042,6.4515 L 15.2179,6.4515 L 15.2315,6.4654 L 15.2589,6.4654 L 15.2589,6.4794 L 16.6001,6.4794 L 16.6001,6.4654 L 16.6274,6.4654 L 16.6411,6.4515 L 16.6548,6.4515 L 16.6548,6.4375 L 16.6685,6.4375 L 16.6685,6.4236 L 16.6822,6.4236 L 16.6822,6.4096 L 16.6959,6.3956 L 16.6959,6.3677 L 16.7095,6.3677 L 16.7095,2.8766 L 16.6959,2.8766 L 16.6959,2.8487 L 16.6822,2.8347 L 16.6822,2.8208 L 16.6685,2.8208 L 16.6685,2.8068 L 16.6548,2.8068 L 16.6548,2.7929 L 16.6411,2.7929 L 16.6274,2.7789 L 16.6001,2.7789 L 16.6001,2.7649 L 15.2589,2.7649 L 15.2589,2.7789 L 15.2315,2.7789 L 15.2179,2.7929 L 15.2042,2.7929 L 15.2042,2.8068 L 15.1905,2.8068 L 15.1905,2.8208 L 15.1768,2.8208 L 15.1768,2.8347 L 15.1631,2.8487 L 15.1631,2.8766 L 15.1494,2.8766 L 15.1494,6.3118 L 15.1494,6.3258 Z" stroke="#000000" stroke-width="0.1197" stroke-linecap="round" stroke-linejoin="round" fill="#494949"/>
        <path d="M 15.2726,6.2699 L 15.2726,6.3118 L 15.2863,6.3118 L 15.2863,6.3258 L 15.3000,6.3398 L 15.3137,6.3398 L 15.3137,6.3537 L 16.5453,6.3537 L 16.5590,6.3398 L 16.5727,6.3398 L 16.5727,6.3258 L 16.5864,6.3258 L 16.5864,6.3118 L 16.6001,6.2979 L 16.6001,2.9325 L 16.5864,2.9325 L 16.5864,2.9185 L 16.5727,2.9185 L 16.5727,2.9046 L 16.5590,2.9046 L 16.5453,2.8906 L 15.3137,2.8906 L 15.3137,2.9046 L 15.3000,2.9046 L 15.2863,2.9185 L 15.2863,2.9325 L 15.2726,2.9325 L 15.2726,6.2560 L 15.2726,6.2699 Z" stroke="#494949" stroke-width="0.1197" stroke-linecap="round" stroke-linejoin="round" fill="#000000"/>
        <path d="M 16.0116,5.5298 L 16.0116,5.8371 L 15.9432,5.8371 L 15.9432,5.5298 L 16.0116,5.5298 Z" stroke="#494949" stroke-width="0.1197" stroke-linecap="round" stroke-linejoin="round" fill="#494949"/>
        <path d="M 16.0116,4.8316 L 16.0116,5.1388 L 15.9432,5.1388 L 15.9432,4.8316 L 16.0116,4.8316 Z" stroke="#494949" stroke-width="0.1197" stroke-linecap="round" stroke-linejoin="round" fill="#494949"/>
        <path d="M 16.0116,4.1474 L 16.0116,4.4546 L 15.9432,4.4546 L 15.9432,4.1474 L 16.0116,4.1474 Z" stroke="#494949" stroke-width="0.1197" stroke-linecap="round" stroke-linejoin="round" fill="#494949"/>
        <path d="M 16.0116,3.4352 L 16.0116,3.7424 L 15.9432,3.7424 L 15.9432,3.4352 L 16.0116,3.4352 Z" stroke="#494949" stroke-width="0.1197" stroke-linecap="round" stroke-linejoin="round" fill="#494949"/>
        <path d="M 15.5874,3.1001 L 15.5600,3.1001 L 15.5326,3.1140 L 15.5189,3.1420 L 15.5189,6.1024 L 15.5326,6.1303 L 15.5600,6.1443 L 15.9021,6.1443 L 15.9295,6.1303 L 15.9432,6.1024 L 15.9432,3.1420 L 15.9295,3.1140 L 15.9021,3.1001 L 15.8748,3.1001 L 15.5874,3.1001 Z" stroke="#494949" stroke-width="0.1197" stroke-linecap="round" stroke-linejoin="round" fill="#494949"/>
        <path d="M 15.7242,3.2118 L 15.6695,3.2257 L 15.6147,3.2816 L 15.6010,3.3375 L 15.6010,5.9069 L 15.6147,5.9627 L 15.6695,6.0186 L 15.7242,6.0326 L 15.7790,6.0186 L 15.8337,5.9627 L 15.8474,5.9069 L 15.8474,3.3375 L 15.8337,3.2816 L 15.7790,3.2257 L 15.7242,3.2118 Z" stroke="#333333" stroke-width="0.1197" stroke-linecap="round" stroke-linejoin="round" fill="#333333"/>
        <path d="M 15.3958,6.3537 L 15.3958,6.5073 L 15.4095,6.5073 L 15.4095,6.5213 L 15.4231,6.5213 L 15.4231,6.5353 L 15.4368,6.5353 L 15.4505,6.5492 L 16.4085,6.5492 L 16.4222,6.5353 L 16.4358,6.5353 L 16.4358,6.5213 L 16.4495,6.5213 L 16.4495,6.5073 L 16.4632,6.5073 L 16.4632,6.3537 L 15.4095,6.3537 L 15.3958,6.3537 Z" stroke="#000000" stroke-width="0.1197" stroke-linecap="round" stroke-linejoin="round" fill="#EAEAEA"/>
        <path d="M 15.3958,2.8906 L 15.3958,2.7370 L 15.4095,2.7370 L 15.4095,2.7230 L 15.4231,2.7230 L 15.4231,2.7091 L 15.4368,2.7091 L 15.4505,2.6951 L 16.4085,2.6951 L 16.4222,2.7091 L 16.4358,2.7091 L 16.4358,2.7230 L 16.4495,2.7230 L 16.4495,2.7370 L 16.4632,2.7370 L 16.4632,2.8906 L 15.4095,2.8906 L 15.3958,2.8906 Z" stroke="#000000" stroke-width="0.1197" stroke-linecap="round" stroke-linejoin="round" fill="#EAEAEA"/>
        <path d="M 15.2726,6.1582 L 15.1221,6.1582 L 15.1221,6.1443 L 15.0947,6.1443 L 15.0947,6.1163 L 15.0810,6.1163 L 15.0810,3.1559 L 15.0947,3.1559 L 15.0947,3.1420 L 15.1084,3.1280 L 15.1221,3.1280 L 15.1221,3.1140 L 15.2726,3.1140 L 15.2726,6.1443 L 15.2726,6.1582 Z" stroke="#000000" stroke-width="0.1197" stroke-linecap="round" stroke-linejoin="round" fill="#EAEAEA"/>
        <path d="M 16.6001,6.1582 L 16.7506,6.1582 L 16.7506,6.1443 L 16.7780,6.1443 L 16.7780,6.1163 L 16.7917,6.1163 L 16.7917,3.1559 L 16.7780,3.1559 L 16.7780,3.1420 L 16.7643,3.1280 L 16.7506,3.1280 L 16.7506,3.1140 L 16.6001,3.1140 L 16.6001,6.1443 L 16.6001,6.1582 Z" stroke="#000000" stroke-width="0.1197" stroke-linecap="round" stroke-linejoin="round" fill="#EAEAEA"/>
        <path d="M 19.6935,5.9957 L 19.6935,4.8854 L 19.5112,4.8854 L 19.5112,4.1359 L 19.6935,4.1359 L 19.6935,3.4975 L 20.5905,3.4975 L 20.5905,3.1644 L 20.9550,3.1644 L 20.9550,2.8730 L 22.0202,2.8730 L 22.0202,3.1644 L 22.3847,3.1644 L 22.3847,3.4975 L 23.2817,3.4975 L 23.2817,4.1359 L 23.4639,4.1359 L 23.4639,4.8854 L 23.2817,4.8854 L 23.2817,5.9957 L 22.8052,5.9957 L 22.8052,5.5655 L 20.1700,5.5655 L 20.1700,5.9957 L 19.6935,5.9957 Z" stroke="#161616" stroke-width="0.1197" stroke-linecap="round" stroke-linejoin="round" fill="#BFBFBF"/>
        <path d="M 20.3803,5.4822 L 20.2541,5.4822 L 20.2541,5.5516 L 20.3803,5.5516 L 20.3803,5.4822 Z" stroke="#000000" stroke-width="0.1197" stroke-linecap="round" stroke-linejoin="round" fill="#D6D6B1"/>
        <path d="M 20.7027,5.4822 L 20.5765,5.4822 L 20.5765,5.5516 L 20.7027,5.5516 L 20.7027,5.4822 Z" stroke="#000000" stroke-width="0.1197" stroke-linecap="round" stroke-linejoin="round" fill="#D6D6B1"/>
        <path d="M 21.0391,5.4822 L 20.9129,5.4822 L 20.9129,5.5516 L 21.0391,5.5516 L 21.0391,5.4822 Z" stroke="#000000" stroke-width="0.1197" stroke-linecap="round" stroke-linejoin="round" fill="#D6D6B1"/>
        <path d="M 21.3755,5.4822 L 21.2493,5.4822 L 21.2493,5.5516 L 21.3755,5.5516 L 21.3755,5.4822 Z" stroke="#000000" stroke-width="0.1197" stroke-linecap="round" stroke-linejoin="round" fill="#D6D6B1"/>
        <path d="M 21.7119,5.4822 L 21.5857,5.4822 L 21.5857,5.5516 L 21.7119,5.5516 L 21.7119,5.4822 Z" stroke="#000000" stroke-width="0.1197" stroke-linecap="round" stroke-linejoin="round" fill="#D6D6B1"/>
        <path d="M 22.0483,5.4822 L 21.9221,5.4822 L 21.9221,5.5516 L 22.0483,5.5516 L 22.0483,5.4822 Z" stroke="#000000" stroke-width="0.1197" stroke-linecap="round" stroke-linejoin="round" fill="#D6D6B1"/>
        <path d="M 22.3847,5.4822 L 22.2585,5.4822 L 22.2585,5.5516 L 22.3847,5.5516 L 22.3847,5.4822 Z" stroke="#000000" stroke-width="0.1197" stroke-linecap="round" stroke-linejoin="round" fill="#D6D6B1"/>
        <path d="M 22.7351,5.4822 L 22.6089,5.4822 L 22.6089,5.5516 L 22.7351,5.5516 L 22.7351,5.4822 Z" stroke="#000000" stroke-width="0.1197" stroke-linecap="round" stroke-linejoin="round" fill="#D6D6B1"/>
        <path d="M 23.8424,5.9957 L 23.8424,4.8854 L 23.6602,4.8854 L 23.6602,4.1359 L 23.8424,4.1359 L 23.8424,3.4975 L 24.7395,3.4975 L 24.7395,3.1644 L 25.1039,3.1644 L 25.1039,2.8730 L 26.1692,2.8730 L 26.1692,3.1644 L 26.5336,3.1644 L 26.5336,3.4975 L 27.4307,3.4975 L 27.4307,4.1359 L 27.6129,4.1359 L 27.6129,4.8854 L 27.4307,4.8854 L 27.4307,5.9957 L 26.9541,5.9957 L 26.9541,5.5655 L 24.3190,5.5655 L 24.3190,5.9957 L 23.8424,5.9957 Z" stroke="#161616" stroke-width="0.1197" stroke-linecap="round" stroke-linejoin="round" fill="#BFBFBF"/>
        <path d="M 24.5292,5.4822 L 24.4031,5.4822 L 24.4031,5.5516 L 24.5292,5.5516 L 24.5292,5.4822 Z" stroke="#000000" stroke-width="0.1197" stroke-linecap="round" stroke-linejoin="round" fill="#D6D6B1"/>
        <path d="M 24.8516,5.4822 L 24.7254,5.4822 L 24.7254,5.5516 L 24.8516,5.5516 L 24.8516,5.4822 Z" stroke="#000000" stroke-width="0.1197" stroke-linecap="round" stroke-linejoin="round" fill="#D6D6B1"/>
        <path d="M 25.1880,5.4822 L 25.0618,5.4822 L 25.0618,5.5516 L 25.1880,5.5516 L 25.1880,5.4822 Z" stroke="#000000" stroke-width="0.1197" stroke-linecap="round" stroke-linejoin="round" fill="#D6D6B1"/>
        <path d="M 25.5244,5.4822 L 25.3982,5.4822 L 25.3982,5.5516 L 25.5244,5.5516 L 25.5244,5.4822 Z" stroke="#000000" stroke-width="0.1197" stroke-linecap="round" stroke-linejoin="round" fill="#D6D6B1"/>
        <path d="M 25.8608,5.4822 L 25.7346,5.4822 L 25.7346,5.5516 L 25.8608,5.5516 L 25.8608,5.4822 Z" stroke="#000000" stroke-width="0.1197" stroke-linecap="round" stroke-linejoin="round" fill="#D6D6B1"/>
        <path d="M 26.1972,5.4822 L 26.0710,5.4822 L 26.0710,5.5516 L 26.1972,5.5516 L 26.1972,5.4822 Z" stroke="#000000" stroke-width="0.1197" stroke-linecap="round" stroke-linejoin="round" fill="#D6D6B1"/>
        <path d="M 26.5336,5.4822 L 26.4074,5.4822 L 26.4074,5.5516 L 26.5336,5.5516 L 26.5336,5.4822 Z" stroke="#000000" stroke-width="0.1197" stroke-linecap="round" stroke-linejoin="round" fill="#D6D6B1"/>
        <path d="M 26.8840,5.4822 L 26.7579,5.4822 L 26.7579,5.5516 L 26.8840,5.5516 L 26.8840,5.4822 Z" stroke="#000000" stroke-width="0.1197" stroke-linecap="round" stroke-linejoin="round" fill="#D6D6B1"/>
        <path d="M 27.9913,5.9957 L 27.9913,4.8854 L 27.8091,4.8854 L 27.8091,4.1359 L 27.9913,4.1359 L 27.9913,3.4975 L 28.8884,3.4975 L 28.8884,3.1644 L 29.2528,3.1644 L 29.2528,2.8730 L 30.3181,2.8730 L 30.3181,3.1644 L 30.6825,3.1644 L 30.6825,3.4975 L 31.5796,3.4975 L 31.5796,4.1359 L 31.7618,4.1359 L 31.7618,4.8854 L 31.5796,4.8854 L 31.5796,5.9957 L 31.1030,5.9957 L 31.1030,5.5655 L 28.4679,5.5655 L 28.4679,5.9957 L 27.9913,5.9957 Z" stroke="#161616" stroke-width="0.1197" stroke-linecap="round" stroke-linejoin="round" fill="#BFBFBF"/>
        <path d="M 28.6782,5.4822 L 28.5520,5.4822 L 28.5520,5.5516 L 28.6782,5.5516 L 28.6782,5.4822 Z" stroke="#000000" stroke-width="0.1197" stroke-linecap="round" stroke-linejoin="round" fill="#D6D6B1"/>
        <path d="M 29.0005,5.4822 L 28.8744,5.4822 L 28.8744,5.5516 L 29.0005,5.5516 L 29.0005,5.4822 Z" stroke="#000000" stroke-width="0.1197" stroke-linecap="round" stroke-linejoin="round" fill="#D6D6B1"/>
        <path d="M 29.3369,5.4822 L 29.2108,5.4822 L 29.2108,5.5516 L 29.3369,5.5516 L 29.3369,5.4822 Z" stroke="#000000" stroke-width="0.1197" stroke-linecap="round" stroke-linejoin="round" fill="#D6D6B1"/>
        <path d="M 29.6733,5.4822 L 29.5472,5.4822 L 29.5472,5.5516 L 29.6733,5.5516 L 29.6733,5.4822 Z" stroke="#000000" stroke-width="0.1197" stroke-linecap="round" stroke-linejoin="round" fill="#D6D6B1"/>
        <path d="M 30.0097,5.4822 L 29.8836,5.4822 L 29.8836,5.5516 L 30.0097,5.5516 L 30.0097,5.4822 Z" stroke="#000000" stroke-width="0.1197" stroke-linecap="round" stroke-linejoin="round" fill="#D6D6B1"/>
        <path d="M 30.3461,5.4822 L 30.2200,5.4822 L 30.2200,5.5516 L 30.3461,5.5516 L 30.3461,5.4822 Z" stroke="#000000" stroke-width="0.1197" stroke-linecap="round" stroke-linejoin="round" fill="#D6D6B1"/>
        <path d="M 30.6825,5.4822 L 30.5564,5.4822 L 30.5564,5.5516 L 30.6825,5.5516 L 30.6825,5.4822 Z" stroke="#000000" stroke-width="0.1197" stroke-linecap="round" stroke-linejoin="round" fill="#D6D6B1"/>
        <path d="M 31.0330,5.4822 L 30.9068,5.4822 L 30.9068,5.5516 L 31.0330,5.5516 L 31.0330,5.4822 Z" stroke="#000000" stroke-width="0.1197" stroke-linecap="round" stroke-linejoin="round" fill="#D6D6B1"/>
        <path d="M 32.1403,5.9957 L 32.1403,4.8854 L 31.9581,4.8854 L 31.9581,4.1359 L 32.1403,4.1359 L 32.1403,3.4975 L 33.0373,3.4975 L 33.0373,3.1644 L 33.4018,3.1644 L 33.4018,2.8730 L 34.4670,2.8730 L 34.4670,3.1644 L 34.8315,3.1644 L 34.8315,3.4975 L 35.7285,3.4975 L 35.7285,4.1359 L 35.9108,4.1359 L 35.9108,4.8854 L 35.7285,4.8854 L 35.7285,5.9957 L 35.2520,5.9957 L 35.2520,5.5655 L 32.6168,5.5655 L 32.6168,5.9957 L 32.1403,5.9957 Z" stroke="#161616" stroke-width="0.1197" stroke-linecap="round" stroke-linejoin="round" fill="#BFBFBF"/>
        <path d="M 32.8271,5.4822 L 32.7009,5.4822 L 32.7009,5.5516 L 32.8271,5.5516 L 32.8271,5.4822 Z" stroke="#000000" stroke-width="0.1197" stroke-linecap="round" stroke-linejoin="round" fill="#D6D6B1"/>
        <path d="M 33.1495,5.4822 L 33.0233,5.4822 L 33.0233,5.5516 L 33.1495,5.5516 L 33.1495,5.4822 Z" stroke="#000000" stroke-width="0.1197" stroke-linecap="round" stroke-linejoin="round" fill="#D6D6B1"/>
        <path d="M 33.4859,5.4822 L 33.3597,5.4822 L 33.3597,5.5516 L 33.4859,5.5516 L 33.4859,5.4822 Z" stroke="#000000" stroke-width="0.1197" stroke-linecap="round" stroke-linejoin="round" fill="#D6D6B1"/>
        <path d="M 33.8223,5.4822 L 33.6961,5.4822 L 33.6961,5.5516 L 33.8223,5.5516 L 33.8223,5.4822 Z" stroke="#000000" stroke-width="0.1197" stroke-linecap="round" stroke-linejoin="round" fill="#D6D6B1"/>
        <path d="M 34.1587,5.4822 L 34.0325,5.4822 L 34.0325,5.5516 L 34.1587,5.5516 L 34.1587,5.4822 Z" stroke="#000000" stroke-width="0.1197" stroke-linecap="round" stroke-linejoin="round" fill="#D6D6B1"/>
        <path d="M 34.4951,5.4822 L 34.3689,5.4822 L 34.3689,5.5516 L 34.4951,5.5516 L 34.4951,5.4822 Z" stroke="#000000" stroke-width="0.1197" stroke-linecap="round" stroke-linejoin="round" fill="#D6D6B1"/>
        <path d="M 34.8315,5.4822 L 34.7053,5.4822 L 34.7053,5.5516 L 34.8315,5.5516 L 34.8315,5.4822 Z" stroke="#000000" stroke-width="0.1197" stroke-linecap="round" stroke-linejoin="round" fill="#D6D6B1"/>
        <path d="M 35.1819,5.4822 L 35.0557,5.4822 L 35.0557,5.5516 L 35.1819,5.5516 L 35.1819,5.4822 Z" stroke="#000000" stroke-width="0.1197" stroke-linecap="round" stroke-linejoin="round" fill="#D6D6B1"/>
        <path d="M 36.2892,5.9957 L 36.2892,4.8854 L 36.1070,4.8854 L 36.1070,4.1359 L 36.2892,4.1359 L 36.2892,3.4975 L 37.1863,3.4975 L 37.1863,3.1644 L 37.5507,3.1644 L 37.5507,2.8730 L 38.6160,2.8730 L 38.6160,3.1644 L 38.9804,3.1644 L 38.9804,3.4975 L 39.8775,3.4975 L 39.8775,4.1359 L 40.0597,4.1359 L 40.0597,4.8854 L 39.8775,4.8854 L 39.8775,5.9957 L 39.4009,5.9957 L 39.4009,5.5655 L 36.7658,5.5655 L 36.7658,5.9957 L 36.2892,5.9957 Z" stroke="#161616" stroke-width="0.1197" stroke-linecap="round" stroke-linejoin="round" fill="#BFBFBF"/>
        <path d="M 36.9760,5.4822 L 36.8499,5.4822 L 36.8499,5.5516 L 36.9760,5.5516 L 36.9760,5.4822 Z" stroke="#000000" stroke-width="0.1197" stroke-linecap="round" stroke-linejoin="round" fill="#D6D6B1"/>
        <path d="M 37.2984,5.4822 L 37.1723,5.4822 L 37.1723,5.5516 L 37.2984,5.5516 L 37.2984,5.4822 Z" stroke="#000000" stroke-width="0.1197" stroke-linecap="round" stroke-linejoin="round" fill="#D6D6B1"/>
        <path d="M 37.6348,5.4822 L 37.5087,5.4822 L 37.5087,5.5516 L 37.6348,5.5516 L 37.6348,5.4822 Z" stroke="#000000" stroke-width="0.1197" stroke-linecap="round" stroke-linejoin="round" fill="#D6D6B1"/>
        <path d="M 37.9712,5.4822 L 37.8451,5.4822 L 37.8451,5.5516 L 37.9712,5.5516 L 37.9712,5.4822 Z" stroke="#000000" stroke-width="0.1197" stroke-linecap="round" stroke-linejoin="round" fill="#D6D6B1"/>
        <path d="M 38.3076,5.4822 L 38.1815,5.4822 L 38.1815,5.5516 L 38.3076,5.5516 L 38.3076,5.4822 Z" stroke="#000000" stroke-width="0.1197" stroke-linecap="round" stroke-linejoin="round" fill="#D6D6B1"/>
        <path d="M 38.6440,5.4822 L 38.5179,5.4822 L 38.5179,5.5516 L 38.6440,5.5516 L 38.6440,5.4822 Z" stroke="#000000" stroke-width="0.1197" stroke-linecap="round" stroke-linejoin="round" fill="#D6D6B1"/>
        <path d="M 38.9804,5.4822 L 38.8543,5.4822 L 38.8543,5.5516 L 38.9804,5.5516 L 38.9804,5.4822 Z" stroke="#000000" stroke-width="0.1197" stroke-linecap="round" stroke-linejoin="round" fill="#D6D6B1"/>
        <path d="M 39.3308,5.4822 L 39.2047,5.4822 L 39.2047,5.5516 L 39.3308,5.5516 L 39.3308,5.4822 Z" stroke="#000000" stroke-width="0.1197" stroke-linecap="round" stroke-linejoin="round" fill="#D6D6B1"/>
        <ellipse cx="41.8093" cy="4.7087" rx="0.7672" ry="0.7753" fill="#000000" stroke="#000000" stroke-width="0.1197" stroke-linecap="round" stroke-linejoin="round"/>
        <ellipse cx="41.8093" cy="4.7087" rx="0.7672" ry="0.7753" fill="none" stroke="#000000" stroke-width="0.1197" stroke-linecap="round" stroke-linejoin="round"/>
        <ellipse cx="41.8150" cy="4.7030" rx="0.2841" ry="0.2793" fill="#DDDDDD" stroke="#000000" stroke-width="0.1197" stroke-linecap="round" stroke-linejoin="round"/>
        <ellipse cx="41.8150" cy="4.7030" rx="0.2841" ry="0.2793" fill="none" stroke="#000000" stroke-width="0.1197" stroke-linecap="round" stroke-linejoin="round"/>
        <ellipse cx="41.8093" cy="4.7087" rx="0.1875" ry="0.1938" fill="#000000" stroke="#000000" stroke-width="0.1197" stroke-linecap="round" stroke-linejoin="round"/>
        <ellipse cx="41.8093" cy="4.7087" rx="0.1875" ry="0.1938" fill="none" stroke="#000000" stroke-width="0.1197" stroke-linecap="round" stroke-linejoin="round"/>
        <ellipse cx="41.8093" cy="4.7087" rx="0.1648" ry="0.1710" fill="#DDDDDD" stroke="#000000" stroke-width="0.1197" stroke-linecap="round" stroke-linejoin="round"/>
        <ellipse cx="41.8093" cy="4.7087" rx="0.1648" ry="0.1710" fill="none" stroke="#000000" stroke-width="0.1197" stroke-linecap="round" stroke-linejoin="round"/>
      </g>
      <!--emf-blob end-->
    </g>
  </g>
</svg>
