<svg xmlns="http://www.w3.org/2000/svg" xmlns:xlink="http://www.w3.org/1999/xlink" version="1.1" width="2.8032000000" height="4.5624000000" viewBox="0 0 50.4567 82.1197">
  <title><![CDATA[FEX-20D (F)]]></title>
  <g transform=" scale(4.000000) ">
    <!--converted by libvisio2svg-->
    <g transform=" translate(0.000000,0.000000) ">
      <!--emf-blob start-->
      <g transform="translate(-0.0000, -0.0000)">
        <path d="M 21.0746,56.0798 L 21.0746,57.5998 L 22.4296,57.5998 " stroke="#000000" stroke-width="0.1199" stroke-linecap="round" stroke-linejoin="round" fill="none"/>
        <path d="M 22.4296,56.0798 L 25.1041,56.0798 " stroke="#000000" stroke-width="0.1199" stroke-linecap="round" stroke-linejoin="round" fill="none"/>
        <path d="M 23.7490,56.0798 L 23.7490,57.5998 " stroke="#000000" stroke-width="0.1199" stroke-linecap="round" stroke-linejoin="round" fill="none"/>
        <path d="M 25.7816,56.0798 L 25.7816,57.5998 " stroke="#000000" stroke-width="0.1199" stroke-linecap="round" stroke-linejoin="round" fill="none"/>
        <path d="M 25.7816,56.0798 L 25.7816,57.5998 " stroke="#000000" stroke-width="0.1199" stroke-linecap="round" stroke-linejoin="round" fill="none"/>
        <path d="M 27.1010,57.5998 L 27.1010,56.0798 L 28.4560,57.5998 L 29.8111,56.0798 L 29.8111,57.5998 " stroke="#000000" stroke-width="0.1199" stroke-linecap="round" stroke-linejoin="round" fill="none"/>
        <path d="M 30.4529,57.5998 L 31.8080,56.0798 L 33.1630,57.5998 " stroke="#000000" stroke-width="0.1199" stroke-linecap="round" stroke-linejoin="round" fill="none"/>
        <path d="M 30.8095,57.2198 L 32.8064,57.2198 " stroke="#000000" stroke-width="0.1199" stroke-linecap="round" stroke-linejoin="round" fill="none"/>
        <path d="M 17.0451,57.5998 L 18.4001,56.0798 L 19.7552,57.5998 " stroke="#000000" stroke-width="0.1199" stroke-linecap="round" stroke-linejoin="round" fill="none"/>
        <path d="M 17.4017,57.2198 L 19.3986,57.2198 " stroke="#000000" stroke-width="0.1199" stroke-linecap="round" stroke-linejoin="round" fill="none"/>
        <path d="M 50.2947,0.5342 L 50.2806,0.4358 L 50.2526,0.3374 L 50.2105,0.2530 L 50.1544,0.1827 L 50.0703,0.1125 L 49.9861,0.0703 L 49.8879,0.0422 L 49.7898,0.0281 L 0.5330,0.0281 L 0.4348,0.0422 L 0.3366,0.0703 L 0.2525,0.1125 L 0.1122,0.2530 L 0.0701,0.3374 L 0.0421,0.4358 L 0.0281,0.5342 L 0.0281,81.5574 L 0.0421,81.6558 L 0.0701,81.7542 L 0.1122,81.8386 L 0.1823,81.9229 L 0.2525,81.9791 L 0.3366,82.0213 L 0.4348,82.0494 L 0.5330,82.0635 L 49.7898,82.0635 L 49.8879,82.0494 L 49.9861,82.0213 L 50.0703,81.9791 L 50.1544,81.9229 L 50.2105,81.8386 L 50.2526,81.7542 L 50.2806,81.6558 L 50.2947,81.5574 L 50.2947,0.5342 Z" stroke="#000000" stroke-width="0.1199" stroke-linecap="round" stroke-linejoin="round" fill="#EFEFEF"/>
        <path d="M 50.2947,42.8591 L 0.0281,42.8591 L 0.0281,43.0559 L 50.2947,43.0559 L 50.2947,42.8591 Z" stroke="#000000" stroke-width="0.1199" stroke-linecap="round" stroke-linejoin="round" fill="#000000"/>
        <path d="M 50.2947,48.8192 L 0.0281,48.8192 L 0.0281,49.0160 L 50.2947,49.0160 L 50.2947,48.8192 Z" stroke="#000000" stroke-width="0.1199" stroke-linecap="round" stroke-linejoin="round" fill="#000000"/>
        <path d="M 39.1025,45.9376 L 39.0885,45.8673 L 39.0744,45.7829 L 38.9903,45.6705 L 38.8781,45.5861 L 38.7939,45.5721 L 38.7238,45.5580 L 11.5989,45.5580 L 11.5288,45.5721 L 11.4446,45.5861 L 11.3324,45.6705 L 11.2483,45.7829 L 11.2343,45.8673 L 11.2202,45.9376 L 11.2343,46.0078 L 11.2483,46.0922 L 11.3324,46.2046 L 11.4446,46.2890 L 11.5288,46.3030 L 11.5989,46.3171 L 38.7238,46.3171 L 38.7939,46.3030 L 38.8781,46.2890 L 38.9903,46.2046 L 39.0744,46.0922 L 39.0885,46.0078 L 39.1025,45.9376 Z" stroke="#000000" stroke-width="0.1199" stroke-linecap="round" stroke-linejoin="round" fill="#0A0A0A"/>
        <path d="M 37.5597,44.0539 L 36.4657,44.1523 L 36.4657,45.1504 L 37.5597,45.1504 L 37.5597,44.0539 Z" stroke="#7F7F7F" stroke-width="0.1199" stroke-linecap="round" stroke-linejoin="round" fill="#7F7F7F"/>
        <path d="M 34.1936,44.3070 L 33.3241,44.3772 L 33.3241,45.1504 L 34.1936,45.1504 L 34.1936,44.3070 Z" stroke="#7F7F7F" stroke-width="0.1199" stroke-linecap="round" stroke-linejoin="round" fill="#7F7F7F"/>
        <path d="M 31.0660,44.5459 L 30.1964,44.6162 L 30.1964,45.1504 L 31.0660,45.1504 L 31.0660,44.5459 Z" stroke="#7F7F7F" stroke-width="0.1199" stroke-linecap="round" stroke-linejoin="round" fill="#7F7F7F"/>
        <path d="M 27.9243,44.7990 L 27.0548,44.8692 L 27.0548,45.1504 L 27.9243,45.1504 L 27.9243,44.7990 Z" stroke="#7F7F7F" stroke-width="0.1199" stroke-linecap="round" stroke-linejoin="round" fill="#7F7F7F"/>
        <path d="M 24.8528,44.5600 L 24.8388,44.5459 L 24.8248,44.5459 L 24.8248,44.5319 L 24.8107,44.5319 L 24.8107,44.5178 L 24.7967,44.5178 L 24.7967,44.5038 L 24.7827,44.5038 L 24.7546,44.4756 L 24.7406,44.4756 L 24.7266,44.4616 L 24.7125,44.4616 L 24.6985,44.4475 L 24.6705,44.4475 L 24.6705,44.4335 L 24.6424,44.4335 L 24.6284,44.4194 L 24.5863,44.4194 L 24.5863,44.4054 L 24.4461,44.4054 L 24.4320,44.4194 L 24.4040,44.4194 L 24.3900,44.4335 L 24.3619,44.4335 L 24.3479,44.4475 L 24.3339,44.4475 L 24.3198,44.4616 L 24.3058,44.4616 L 24.2778,44.4897 L 24.2637,44.4897 L 24.2637,44.5038 L 24.2497,44.5038 L 24.1936,44.5600 L 24.1936,44.5881 L 24.1796,44.5881 L 24.1796,44.6022 " stroke="#7F7F7F" stroke-width="0.1199" stroke-linecap="round" stroke-linejoin="round" fill="none"/>
        <path d="M 24.7406,44.6724 L 24.7266,44.6724 L 24.7266,44.6584 L 24.7125,44.6584 L 24.7125,44.6443 L 24.6845,44.6443 L 24.6845,44.6303 L 24.6564,44.6303 L 24.6424,44.6162 L 24.6003,44.6162 L 24.5863,44.6022 L 24.4461,44.6022 L 24.4320,44.6162 L 24.3900,44.6162 L 24.3759,44.6303 L 24.3479,44.6303 L 24.3479,44.6443 L 24.3339,44.6443 L 24.3339,44.6584 L 24.3198,44.6584 L 24.3198,44.6724 L 24.3058,44.6724 L 24.3058,44.6865 L 24.2918,44.7006 L 24.2918,44.7146 " stroke="#7F7F7F" stroke-width="0.1199" stroke-linecap="round" stroke-linejoin="round" fill="none"/>
        <path d="M 24.6564,44.8271 L 24.6564,44.8130 L 24.6424,44.8130 L 24.6424,44.7990 L 24.6144,44.7708 L 24.6003,44.7708 L 24.6003,44.7568 L 24.5723,44.7568 L 24.5723,44.7427 L 24.4601,44.7427 L 24.4601,44.7568 L 24.4320,44.7568 L 24.4320,44.7708 L 24.4040,44.7708 L 24.4040,44.7849 L 24.3900,44.7849 L 24.3900,44.8130 L 24.3759,44.8130 L 24.3759,44.8271 " stroke="#7F7F7F" stroke-width="0.1199" stroke-linecap="round" stroke-linejoin="round" fill="none"/>
        <path d="M 19.0884,44.6162 L 18.1627,44.6162 " stroke="#7F7F7F" stroke-width="0.1199" stroke-linecap="round" stroke-linejoin="round" fill="none"/>
        <path d="M 18.6256,44.4616 L 18.6256,44.6022 " stroke="#7F7F7F" stroke-width="0.1199" stroke-linecap="round" stroke-linejoin="round" fill="none"/>
        <path d="M 18.7378,44.2367 L 18.5134,44.2367 L 18.5134,44.4616 L 18.7378,44.4616 L 18.7378,44.2367 Z" stroke="#7F7F7F" stroke-width="0.1199" stroke-linecap="round" stroke-linejoin="round" fill="#7F7F7F"/>
        <path d="M 18.8921,44.6022 L 18.8921,44.7568 " stroke="#7F7F7F" stroke-width="0.1199" stroke-linecap="round" stroke-linejoin="round" fill="none"/>
        <path d="M 18.8921,44.6022 L 18.8921,44.7568 " stroke="#7F7F7F" stroke-width="0.1199" stroke-linecap="round" stroke-linejoin="round" fill="none"/>
        <path d="M 18.7939,44.7427 L 19.0183,44.7427 L 19.0183,44.9676 L 18.7939,44.9676 L 18.7939,44.7427 Z" stroke="#7F7F7F" stroke-width="0.1199" stroke-linecap="round" stroke-linejoin="round" fill="#7F7F7F"/>
        <path d="M 18.3310,44.6022 L 18.3310,44.7568 " stroke="#7F7F7F" stroke-width="0.1199" stroke-linecap="round" stroke-linejoin="round" fill="none"/>
        <path d="M 18.4573,44.7427 L 18.2329,44.7427 L 18.2329,44.9676 L 18.4573,44.9676 L 18.4573,44.7427 Z" stroke="#7F7F7F" stroke-width="0.1199" stroke-linecap="round" stroke-linejoin="round" fill="#7F7F7F"/>
        <path d="M 12.9173,44.4335 L 12.9313,44.4335 L 12.9313,44.4475 L 12.9453,44.4475 L 12.9594,44.4616 L 12.9734,44.4616 L 12.9734,44.4756 L 12.9874,44.4756 L 12.9874,44.4897 L 13.0014,44.5038 L 13.0014,44.5178 L 13.0155,44.5178 L 13.0155,44.5319 L 13.0295,44.5319 L 13.0295,44.5740 L 13.0435,44.5881 L 13.0435,44.7006 L 13.0295,44.7146 L 13.0295,44.7427 L 13.0155,44.7568 L 13.0155,44.7708 L 12.9874,44.7990 L 12.9874,44.8130 L 12.9734,44.8130 L 12.9734,44.8271 L 12.9594,44.8271 L 12.9313,44.8552 L 12.9173,44.8552 L 12.9033,44.8692 L 12.8752,44.8692 L 12.8612,44.8833 L 12.7490,44.8833 L 12.7350,44.8692 L 12.7069,44.8692 L 12.6929,44.8552 L 12.6789,44.8552 L 12.6508,44.8271 L 12.6368,44.8271 L 12.6368,44.8130 L 12.6228,44.8130 L 12.6228,44.7990 L 12.5947,44.7708 L 12.5947,44.7568 L 12.5807,44.7427 L 12.5807,44.7146 L 12.5667,44.7006 L 12.5667,44.5881 L 12.5807,44.5881 L 12.5807,44.5459 L 12.5947,44.5459 L 12.5947,44.5178 L 12.6087,44.5178 L 12.6087,44.5038 L 12.6648,44.4475 L 12.6648,44.4616 L 12.6789,44.4616 L 12.6789,44.4756 L 12.6929,44.4756 L 12.6929,44.4897 L 12.6789,44.4897 L 12.6789,44.5038 L 12.6648,44.5038 L 12.6648,44.5178 L 12.6508,44.5178 L 12.6508,44.5319 L 12.6368,44.5459 L 12.6368,44.5600 L 12.6228,44.5600 L 12.6228,44.5881 L 12.6087,44.6022 L 12.6087,44.7006 L 12.6228,44.7006 L 12.6228,44.7287 L 12.6368,44.7427 L 12.6368,44.7568 L 12.6508,44.7568 L 12.6508,44.7708 L 12.6789,44.7990 L 12.6929,44.7990 L 12.6929,44.8130 L 12.7069,44.8130 L 12.7209,44.8271 L 12.7490,44.8271 L 12.7490,44.8411 L 12.8612,44.8411 L 12.8612,44.8271 L 12.8892,44.8271 L 12.9033,44.8130 L 12.9173,44.8130 L 12.9173,44.7990 L 12.9313,44.7990 L 12.9594,44.7708 L 12.9594,44.7568 L 12.9734,44.7568 L 12.9734,44.7427 L 12.9874,44.7287 L 12.9874,44.7006 L 13.0014,44.7006 L 13.0014,44.6022 L 12.9874,44.5881 L 12.9874,44.5600 L 12.9734,44.5600 L 12.9734,44.5319 L 12.9594,44.5319 L 12.9594,44.5178 L 12.9453,44.5178 L 12.9453,44.5038 L 12.9313,44.5038 L 12.9313,44.4897 L 12.9173,44.4897 L 12.9173,44.4756 L 12.9033,44.4756 L 12.9033,44.4616 L 12.9173,44.4616 L 12.9173,44.4475 L 12.9173,44.4335 Z" stroke="#7F7F7F" stroke-width="0.1199" stroke-linecap="round" stroke-linejoin="round" fill="#7F7F7F"/>
        <path d="M 12.8191,44.3210 L 12.7630,44.3210 L 12.7630,44.6584 L 12.8191,44.6584 L 12.8191,44.3210 Z" stroke="#7F7F7F" stroke-width="0.1199" stroke-linecap="round" stroke-linejoin="round" fill="#7F7F7F"/>
        <ellipse cx="15.5470" cy="44.5459" rx="0.1613" ry="0.1687" fill="#7F7F7F" stroke="#000000" stroke-width="0.1199" stroke-linecap="round" stroke-linejoin="round"/>
        <ellipse cx="15.5470" cy="44.5459" rx="0.1613" ry="0.1687" fill="none" stroke="#7F7F7F" stroke-width="0.1199" stroke-linecap="round" stroke-linejoin="round"/>
        <path d="M 15.6522,44.3070 L 15.5681,44.3070 L 15.5681,44.8974 L 15.6522,44.8974 L 15.6522,44.3070 Z" stroke="#7F7F7F" stroke-width="0.1199" stroke-linecap="round" stroke-linejoin="round" fill="#7F7F7F"/>
        <path d="M 15.4278,44.3632 L 15.3717,44.4194 L 15.7925,44.8411 L 15.8486,44.7849 L 15.4278,44.3632 Z" stroke="#7F7F7F" stroke-width="0.1199" stroke-linecap="round" stroke-linejoin="round" fill="#7F7F7F"/>
        <path d="M 15.3156,44.5600 L 15.3156,44.6443 L 15.9047,44.6443 L 15.9047,44.5600 L 15.3156,44.5600 Z" stroke="#7F7F7F" stroke-width="0.1199" stroke-linecap="round" stroke-linejoin="round" fill="#7F7F7F"/>
        <path d="M 15.3717,44.7849 L 15.4278,44.8411 L 15.8486,44.4194 L 15.7925,44.3632 L 15.3717,44.7849 Z" stroke="#7F7F7F" stroke-width="0.1199" stroke-linecap="round" stroke-linejoin="round" fill="#7F7F7F"/>
        <ellipse cx="15.5470" cy="44.5459" rx="0.0491" ry="0.0562" fill="#EFEFEF" stroke="#000000" stroke-width="0.1199" stroke-linecap="round" stroke-linejoin="round"/>
        <ellipse cx="15.5470" cy="44.5459" rx="0.0491" ry="0.0562" fill="none" stroke="#EFEFEF" stroke-width="0.1199" stroke-linecap="round" stroke-linejoin="round"/>
        <path d="M 21.5709,44.5319 L 21.3605,44.9676 L 21.4587,44.9676 L 21.6691,44.7708 L 21.6550,44.7708 L 21.8514,44.9676 L 21.9636,44.9676 L 21.7252,44.5319 L 21.5709,44.5319 Z" stroke="#7F7F7F" stroke-width="0.1199" stroke-linecap="round" stroke-linejoin="round" fill="#7F7F7F"/>
        <ellipse cx="21.5919" cy="44.3491" rx="0.0491" ry="0.0562" fill="#7F7F7F" stroke="#000000" stroke-width="0.1199" stroke-linecap="round" stroke-linejoin="round"/>
        <ellipse cx="21.5919" cy="44.3491" rx="0.0491" ry="0.0562" fill="none" stroke="#7F7F7F" stroke-width="0.1199" stroke-linecap="round" stroke-linejoin="round"/>
        <path d="M 14.1515,45.7408 L 12.0477,45.7408 L 12.0477,46.1343 L 14.1515,46.1343 L 14.1515,45.7408 Z" stroke="#494949" stroke-width="0.1199" stroke-linecap="round" stroke-linejoin="round" fill="#494949"/>
        <path d="M 17.2090,45.7408 L 15.1052,45.7408 L 15.1052,46.1343 L 17.2090,46.1343 L 17.2090,45.7408 Z" stroke="#494949" stroke-width="0.1199" stroke-linecap="round" stroke-linejoin="round" fill="#494949"/>
        <path d="M 20.2806,45.7408 L 18.1768,45.7408 L 18.1768,46.1343 L 20.2806,46.1343 L 20.2806,45.7408 Z" stroke="#494949" stroke-width="0.1199" stroke-linecap="round" stroke-linejoin="round" fill="#494949"/>
        <path d="M 28.9201,45.7408 L 21.2343,45.7408 L 21.2343,46.1343 L 28.9201,46.1343 L 28.9201,45.7408 Z" stroke="#494949" stroke-width="0.1199" stroke-linecap="round" stroke-linejoin="round" fill="#494949"/>
        <path d="M 31.9776,45.7408 L 29.8739,45.7408 L 29.8739,46.1343 L 31.9776,46.1343 L 31.9776,45.7408 Z" stroke="#494949" stroke-width="0.1199" stroke-linecap="round" stroke-linejoin="round" fill="#494949"/>
        <path d="M 35.0492,45.7408 L 32.9454,45.7408 L 32.9454,46.1343 L 35.0492,46.1343 L 35.0492,45.7408 Z" stroke="#494949" stroke-width="0.1199" stroke-linecap="round" stroke-linejoin="round" fill="#494949"/>
        <path d="M 38.1067,45.7408 L 36.0029,45.7408 L 36.0029,46.1343 L 38.1067,46.1343 L 38.1067,45.7408 Z" stroke="#494949" stroke-width="0.1199" stroke-linecap="round" stroke-linejoin="round" fill="#494949"/>
        <path d="M 22.0197,44.5740 L 22.0337,44.5740 L 22.0337,44.5600 L 22.0477,44.5600 L 22.0477,44.5459 L 22.0618,44.5319 L 22.0618,44.5178 L 22.0758,44.5178 L 22.0758,44.5038 L 22.0898,44.4897 L 22.0898,44.4616 L 22.1038,44.4475 L 22.1038,44.3632 L 22.0898,44.3491 L 22.0898,44.3210 L 22.0758,44.3070 L 22.0758,44.2929 L 22.0618,44.2929 L 22.0618,44.2789 L 22.0477,44.2789 L 22.0477,44.2648 L 22.0337,44.2648 L 22.0337,44.2507 L 22.0197,44.2507 L 22.0057,44.2367 L 21.9916,44.2367 " stroke="#7F7F7F" stroke-width="0.1199" stroke-linecap="round" stroke-linejoin="round" fill="none"/>
        <path d="M 21.9496,44.5178 L 21.9636,44.5178 L 21.9636,44.5038 L 21.9776,44.5038 L 21.9776,44.4756 L 21.9916,44.4756 L 21.9916,44.3351 L 21.9776,44.3351 L 21.9776,44.3070 L 21.9636,44.3070 L 21.9636,44.2929 L 21.9496,44.2929 L 21.9355,44.2929 " stroke="#7F7F7F" stroke-width="0.1199" stroke-linecap="round" stroke-linejoin="round" fill="none"/>
        <path d="M 21.8654,44.4756 L 21.8794,44.4756 L 21.8794,44.4616 L 21.9075,44.4616 L 21.9075,44.4475 L 21.9215,44.4475 L 21.9215,44.3632 L 21.9075,44.3632 L 21.9075,44.3491 L 21.8935,44.3491 L 21.8935,44.3351 L 21.8794,44.3351 L 21.8654,44.3351 " stroke="#7F7F7F" stroke-width="0.1199" stroke-linecap="round" stroke-linejoin="round" fill="none"/>
        <path d="M 21.3044,44.5740 L 21.2904,44.5740 L 21.2904,44.5600 L 21.2764,44.5600 L 21.2764,44.5459 L 21.2623,44.5319 L 21.2623,44.5178 L 21.2483,44.5178 L 21.2483,44.5038 L 21.2343,44.4897 L 21.2343,44.4616 L 21.2203,44.4475 L 21.2203,44.3632 L 21.2343,44.3491 L 21.2343,44.3210 L 21.2483,44.3070 L 21.2483,44.2929 L 21.2623,44.2929 L 21.2623,44.2789 L 21.2764,44.2789 L 21.2764,44.2648 L 21.2904,44.2648 L 21.2904,44.2507 L 21.3044,44.2507 L 21.3184,44.2367 L 21.3325,44.2367 " stroke="#7F7F7F" stroke-width="0.1199" stroke-linecap="round" stroke-linejoin="round" fill="none"/>
        <path d="M 21.3745,44.5178 L 21.3605,44.5178 L 21.3605,44.5038 L 21.3465,44.5038 L 21.3465,44.4756 L 21.3325,44.4756 L 21.3325,44.3351 L 21.3465,44.3351 L 21.3465,44.3070 L 21.3605,44.3070 L 21.3605,44.2929 L 21.3745,44.2929 L 21.3886,44.2929 " stroke="#7F7F7F" stroke-width="0.1199" stroke-linecap="round" stroke-linejoin="round" fill="none"/>
        <path d="M 21.4587,44.4756 L 21.4447,44.4756 L 21.4447,44.4616 L 21.4166,44.4616 L 21.4166,44.4475 L 21.4026,44.4475 L 21.4026,44.3632 L 21.4166,44.3632 L 21.4166,44.3491 L 21.4306,44.3491 L 21.4306,44.3351 L 21.4447,44.3351 L 21.4587,44.3351 " stroke="#7F7F7F" stroke-width="0.1199" stroke-linecap="round" stroke-linejoin="round" fill="none"/>
        <path d="M 50.2947,38.8389 L 0.0281,38.8389 L 0.0281,39.0357 L 50.2947,39.0357 L 50.2947,38.8389 Z" stroke="#000000" stroke-width="0.1199" stroke-linecap="round" stroke-linejoin="round" fill="#000000"/>
        <path d="M 16.9517,57.7372 L 16.9237,57.7372 L 16.9097,57.7233 L 16.8957,57.7233 L 16.8536,57.6818 L 16.8536,57.6679 L 16.8396,57.6541 L 16.8396,56.0480 L 16.8536,56.0341 L 16.8536,56.0203 L 16.8676,56.0064 L 16.8817,56.0064 L 16.8817,55.9926 L 16.8957,55.9787 L 16.9097,55.9787 L 16.9237,55.9649 L 18.8290,55.9649 L 18.8430,55.9787 L 18.8570,55.9787 L 18.8990,56.0203 L 18.8990,56.0341 L 18.9131,56.0480 L 18.9131,56.3664 L 18.8990,56.3664 L 18.8990,56.3526 L 18.8850,56.3526 L 18.8850,56.3387 L 18.8710,56.3387 L 18.8710,56.3249 L 18.8430,56.3249 L 18.8430,56.3110 L 17.3019,56.3110 L 17.3019,56.3249 L 17.2739,56.3249 L 17.2739,56.3387 L 17.2599,56.3387 L 17.2599,56.3664 L 17.2459,56.3664 L 17.2459,57.6818 L 17.2599,57.6818 L 17.2599,57.7095 L 17.2739,57.7095 L 17.2739,57.7233 L 17.2879,57.7233 L 17.2879,57.7372 L 16.9657,57.7372 L 16.9517,57.7372 Z" stroke="#7F7F7F" stroke-width="0.1199" stroke-linecap="round" stroke-linejoin="round" fill="#7F7F7F"/>
        <path d="M 18.7730,56.7126 L 17.3860,56.7126 L 17.3860,56.6987 L 17.3580,56.6987 L 17.3580,56.6849 L 17.3440,56.6849 L 17.3440,56.6572 L 17.3300,56.6572 L 17.3300,57.0033 L 17.3440,57.0033 L 17.3440,57.0310 L 17.3580,57.0310 L 17.3580,57.0449 L 17.3860,57.0449 L 17.3860,57.0587 L 18.8010,57.0587 L 18.8290,57.0310 L 18.8430,57.0310 L 18.8710,57.0033 L 18.8710,56.9895 L 18.8850,56.9756 L 18.8850,56.9618 L 18.8990,56.9480 L 18.8990,56.9203 L 18.9131,56.9064 L 18.9131,56.8649 L 18.8990,56.8510 L 18.8990,56.8095 L 18.8710,56.7818 L 18.8710,56.7680 L 18.8570,56.7541 L 18.8430,56.7541 L 18.8430,56.7403 L 18.8290,56.7403 L 18.8150,56.7264 L 18.8010,56.7264 L 18.7870,56.7126 L 18.7730,56.7126 Z" stroke="#7F7F7F" stroke-width="0.1199" stroke-linecap="round" stroke-linejoin="round" fill="#7F7F7F"/>
        <path d="M 22.0092,57.0587 L 21.9812,57.0587 L 21.9812,57.0449 L 21.9532,57.0449 L 21.9532,57.0310 L 21.9391,57.0310 L 21.9391,57.0033 L 21.9251,57.0033 L 21.9251,56.6572 L 21.9391,56.6572 L 21.9391,56.6849 L 21.9532,56.6849 L 21.9532,56.6987 L 21.9812,56.6987 L 21.9812,56.7126 L 23.1020,56.7126 L 23.1020,56.3110 L 21.8971,56.3110 L 21.8971,56.3249 L 21.8691,56.3249 L 21.8691,56.3387 L 21.8551,56.3387 L 21.8551,56.3664 L 21.8411,56.3664 L 21.8411,57.6818 L 21.8551,57.6818 L 21.8551,57.7095 L 21.8691,57.7095 L 21.8691,57.7233 L 21.8831,57.7233 L 21.8831,57.7372 L 21.5189,57.7372 L 21.5048,57.7233 L 21.4908,57.7233 L 21.4488,57.6818 L 21.4488,57.6679 L 21.4348,57.6541 L 21.4348,56.0480 L 21.4488,56.0341 L 21.4488,56.0203 L 21.4628,56.0064 L 21.4768,56.0064 L 21.4768,55.9926 L 21.4908,55.9787 L 21.5048,55.9787 L 21.5189,55.9649 L 23.4242,55.9649 L 23.4382,55.9787 L 23.4522,55.9787 L 23.4942,56.0203 L 23.4942,56.0341 L 23.5082,56.0480 L 23.5082,56.9203 L 23.4942,56.9341 L 23.4942,56.9618 L 23.4802,56.9618 L 23.4802,56.9756 L 23.4662,56.9895 L 23.4662,57.0033 L 23.4522,57.0033 L 23.4522,57.0172 L 23.4382,57.0172 L 23.4382,57.0310 L 23.4242,57.0310 L 23.4242,57.0449 L 23.4102,57.0449 L 23.3962,57.0587 L 23.4102,57.0726 L 23.4242,57.0726 L 23.4242,57.0864 L 23.4382,57.0864 L 23.4382,57.1003 L 23.4522,57.1003 L 23.4522,57.1141 L 23.4662,57.1141 L 23.4662,57.1280 L 23.4802,57.1418 L 23.4802,57.1556 L 23.4942,57.1556 L 23.4942,57.1833 L 23.5082,57.1972 L 23.5082,57.6818 L 23.5222,57.6818 L 23.5222,57.7095 L 23.5363,57.7095 L 23.5363,57.7233 L 23.5503,57.7233 L 23.5503,57.7372 L 23.1860,57.7372 L 23.1720,57.7233 L 23.1580,57.7233 L 23.1160,57.6818 L 23.1160,57.6679 L 23.1020,57.6541 L 23.1020,57.0587 L 22.0232,57.0587 L 22.0092,57.0587 Z" stroke="#7F7F7F" stroke-width="0.1199" stroke-linecap="round" stroke-linejoin="round" fill="#7F7F7F"/>
        <path d="M 24.2367,56.3110 L 23.8164,56.3110 L 23.8024,56.2972 L 23.7884,56.2972 L 23.7464,56.2557 L 23.7464,56.2418 L 23.7324,56.2280 L 23.7324,56.0480 L 23.7464,56.0341 L 23.7464,56.0203 L 23.7604,56.0064 L 23.7744,56.0064 L 23.7744,55.9926 L 23.7884,55.9787 L 23.8024,55.9787 L 23.8164,55.9649 L 25.7218,55.9649 L 25.7358,55.9787 L 25.7498,55.9787 L 25.7918,56.0203 L 25.7918,56.0341 L 25.8058,56.0480 L 25.8058,56.3664 L 25.7918,56.3664 L 25.7918,56.3526 L 25.7778,56.3526 L 25.7778,56.3387 L 25.7638,56.3387 L 25.7638,56.3249 L 25.7358,56.3249 L 25.7358,56.3110 L 24.6991,56.3110 L 24.6991,56.3249 L 24.6710,56.3249 L 24.6710,56.3387 L 24.6570,56.3387 L 24.6570,56.3664 L 24.6430,56.3664 L 24.6430,57.6818 L 24.6570,57.6818 L 24.6570,57.7095 L 24.6710,57.7095 L 24.6710,57.7233 L 24.6850,57.7233 L 24.6850,57.7372 L 24.3208,57.7372 L 24.3068,57.7233 L 24.2928,57.7233 L 24.2507,57.6818 L 24.2507,57.6679 L 24.2367,57.6541 L 24.2367,56.3526 L 24.2367,56.3110 Z" stroke="#7F7F7F" stroke-width="0.1199" stroke-linecap="round" stroke-linejoin="round" fill="#7F7F7F"/>
        <path d="M 26.4363,57.6402 L 26.4363,57.6818 L 26.4503,57.6818 L 26.4503,57.7095 L 26.4643,57.7095 L 26.4643,57.7233 L 26.4783,57.7233 L 26.4783,57.7372 L 26.1140,57.7372 L 26.1000,57.7233 L 26.0860,57.7233 L 26.0440,57.6818 L 26.0440,57.6679 L 26.0300,57.6541 L 26.0300,56.0203 L 26.0160,56.0203 L 26.0160,55.9926 L 26.0020,55.9926 L 26.0020,55.9787 L 25.9879,55.9787 L 25.9879,55.9649 L 26.3522,55.9649 L 26.3662,55.9787 L 26.3802,55.9787 L 26.4222,56.0203 L 26.4222,56.0341 L 26.4363,56.0480 L 26.4363,57.6264 L 26.4363,57.6402 Z" stroke="#7F7F7F" stroke-width="0.1199" stroke-linecap="round" stroke-linejoin="round" fill="#7F7F7F"/>
        <path d="M 28.4256,56.3110 L 27.2208,56.3110 L 27.2208,56.3249 L 27.1928,56.3249 L 27.1928,56.3387 L 27.1788,56.3387 L 27.1788,56.3664 L 27.1648,56.3664 L 27.1648,57.6818 L 27.1788,57.6818 L 27.1788,57.7095 L 27.1928,57.7095 L 27.1928,57.7233 L 27.2068,57.7233 L 27.2068,57.7372 L 26.8425,57.7372 L 26.8285,57.7233 L 26.8145,57.7233 L 26.7725,57.6818 L 26.7725,57.6679 L 26.7585,57.6541 L 26.7585,56.0480 L 26.7725,56.0341 L 26.7725,56.0203 L 26.7865,56.0064 L 26.8005,56.0064 L 26.8005,55.9926 L 26.8145,55.9787 L 26.8285,55.9787 L 26.8425,55.9649 L 28.7478,55.9649 L 28.7619,55.9787 L 28.7759,55.9787 L 28.8179,56.0203 L 28.8179,56.0341 L 28.8319,56.0480 L 28.8319,57.6818 L 28.8459,57.6818 L 28.8459,57.7095 L 28.8599,57.7095 L 28.8599,57.7233 L 28.8739,57.7233 L 28.8739,57.7372 L 28.5097,57.7372 L 28.4957,57.7233 L 28.4817,57.7233 L 28.4396,57.6818 L 28.4396,57.6679 L 28.4256,57.6541 L 28.4256,56.3526 L 28.4256,56.3110 Z" stroke="#7F7F7F" stroke-width="0.1199" stroke-linecap="round" stroke-linejoin="round" fill="#7F7F7F"/>
        <path d="M 30.8913,56.7126 L 29.6024,56.7126 L 29.5884,56.6987 L 29.5744,56.6987 L 29.5744,56.6849 L 29.5604,56.6849 L 29.5604,56.6572 L 29.5464,56.6572 L 29.5464,57.0033 L 29.5604,57.0033 L 29.5604,57.0310 L 29.5744,57.0310 L 29.5744,57.0449 L 29.5884,57.0449 L 29.6024,57.0587 L 30.9053,57.0587 L 30.9334,57.0310 L 30.9474,57.0310 L 30.9754,57.0033 L 30.9754,56.9895 L 30.9894,56.9756 L 30.9894,56.9618 L 31.0034,56.9480 L 31.0034,56.9203 L 31.0174,56.9064 L 31.0174,56.8510 L 31.0034,56.8372 L 31.0034,56.7957 L 30.9894,56.7957 L 30.9894,56.7818 L 30.9474,56.7403 L 30.9334,56.7403 L 30.9334,56.7264 L 30.9193,56.7264 L 30.9053,56.7126 L 30.8913,56.7126 Z" stroke="#7F7F7F" stroke-width="0.1199" stroke-linecap="round" stroke-linejoin="round" fill="#7F7F7F"/>
        <path d="M 31.8580,56.3110 L 31.4377,56.3110 L 31.4237,56.2972 L 31.4097,56.2972 L 31.3677,56.2557 L 31.3677,56.2418 L 31.3536,56.2280 L 31.3536,56.0480 L 31.3677,56.0341 L 31.3677,56.0203 L 31.3817,56.0064 L 31.3957,56.0064 L 31.3957,55.9926 L 31.4097,55.9787 L 31.4237,55.9787 L 31.4377,55.9649 L 33.3430,55.9649 L 33.3570,55.9787 L 33.3710,55.9787 L 33.4131,56.0203 L 33.4131,56.0341 L 33.4271,56.0480 L 33.4271,56.3664 L 33.4131,56.3664 L 33.4131,56.3526 L 33.3991,56.3526 L 33.3991,56.3387 L 33.3851,56.3387 L 33.3851,56.3249 L 33.3570,56.3249 L 33.3570,56.3110 L 32.3203,56.3110 L 32.3203,56.3249 L 32.2923,56.3249 L 32.2923,56.3387 L 32.2783,56.3387 L 32.2783,56.3664 L 32.2643,56.3664 L 32.2643,57.6818 L 32.2783,57.6818 L 32.2783,57.7095 L 32.2923,57.7095 L 32.2923,57.7233 L 32.3063,57.7233 L 32.3063,57.7372 L 31.9421,57.7372 L 31.9280,57.7233 L 31.9140,57.7233 L 31.8720,57.6818 L 31.8720,57.6679 L 31.8580,57.6541 L 31.8580,56.3526 L 31.8580,56.3110 Z" stroke="#7F7F7F" stroke-width="0.1199" stroke-linecap="round" stroke-linejoin="round" fill="#7F7F7F"/>
        <path d="M 31.0314,57.3910 L 31.0594,57.3910 L 31.0594,57.3772 L 31.0875,57.3772 L 31.0875,57.3633 L 31.1015,57.3633 L 31.1015,57.3495 L 31.1155,57.3495 L 31.1155,57.3356 L 31.1295,57.3356 L 31.1295,57.6541 L 31.1155,57.6679 L 31.1155,57.6818 L 31.1015,57.6956 L 31.1015,57.7095 L 31.0875,57.7095 L 31.0735,57.7233 L 31.0594,57.7233 L 31.0454,57.7372 L 29.1401,57.7372 L 29.1261,57.7233 L 29.1121,57.7233 L 29.0701,57.6818 L 29.0701,57.6679 L 29.0561,57.6541 L 29.0561,56.0480 L 29.0701,56.0341 L 29.0701,56.0203 L 29.0841,56.0064 L 29.0981,56.0064 L 29.0981,55.9926 L 29.1121,55.9787 L 29.1261,55.9787 L 29.1401,55.9649 L 31.0454,55.9649 L 31.0594,55.9787 L 31.0735,55.9787 L 31.1155,56.0203 L 31.1155,56.0341 L 31.1295,56.0480 L 31.1295,56.3664 L 31.1155,56.3664 L 31.1155,56.3526 L 31.1015,56.3526 L 31.1015,56.3387 L 31.0875,56.3387 L 31.0875,56.3249 L 31.0594,56.3249 L 31.0594,56.3110 L 29.5184,56.3110 L 29.5184,56.3249 L 29.4904,56.3249 L 29.4904,56.3387 L 29.4764,56.3387 L 29.4764,56.3664 L 29.4623,56.3664 L 29.4623,57.3910 L 31.0174,57.3910 L 31.0314,57.3910 Z" stroke="#7F7F7F" stroke-width="0.1199" stroke-linecap="round" stroke-linejoin="round" fill="#7F7F7F"/>
        <path d="M 19.8377,57.2249 L 19.8377,57.7372 L 20.5102,57.7372 L 20.5102,57.2249 L 19.8377,57.2249 Z" stroke="#FF0000" stroke-width="0.1199" stroke-linecap="round" stroke-linejoin="round" fill="#FF0000"/>
        <path d="M 19.1372,56.6018 L 19.7116,56.6018 L 19.7116,57.1003 L 19.1372,57.1003 L 19.1372,56.6018 Z" stroke="#FF0000" stroke-width="0.1199" stroke-linecap="round" stroke-linejoin="round" fill="#FF0000"/>
        <path d="M 20.6362,57.2249 L 20.6362,57.7372 L 20.8464,57.7372 L 20.8604,57.7233 L 20.9164,57.7233 L 20.9305,57.7095 L 20.9585,57.7095 L 20.9865,57.6956 L 21.0005,57.6818 L 21.0285,57.6679 L 21.0565,57.6402 L 21.0846,57.6264 L 21.0986,57.6126 L 21.1126,57.5849 L 21.1266,57.5710 L 21.1826,57.4603 L 21.1826,57.4326 L 21.1966,57.3910 L 21.1966,57.3495 L 21.2106,57.3079 L 21.2106,57.2249 L 20.6503,57.2249 L 20.6362,57.2249 Z" stroke="#FF0000" stroke-width="0.1199" stroke-linecap="round" stroke-linejoin="round" fill="#FF0000"/>
        <path d="M 20.6362,56.6018 L 21.2106,56.6018 L 21.2106,57.1003 L 20.6362,57.1003 L 20.6362,56.6018 Z" stroke="#FF0000" stroke-width="0.1199" stroke-linecap="round" stroke-linejoin="round" fill="#FF0000"/>
        <path d="M 19.7116,57.2249 L 19.7116,57.7372 L 19.5015,57.7372 L 19.4875,57.7233 L 19.4314,57.7233 L 19.4174,57.7095 L 19.3894,57.7095 L 19.3614,57.6956 L 19.3474,57.6818 L 19.3193,57.6679 L 19.2913,57.6402 L 19.2633,57.6264 L 19.2493,57.6126 L 19.2353,57.5849 L 19.2213,57.5710 L 19.1652,57.4603 L 19.1652,57.4326 L 19.1512,57.3910 L 19.1512,57.3495 L 19.1372,57.3079 L 19.1372,57.2249 L 19.6976,57.2249 L 19.7116,57.2249 Z" stroke="#FF0000" stroke-width="0.1199" stroke-linecap="round" stroke-linejoin="round" fill="#FF0000"/>
        <path d="M 19.8377,55.9649 L 19.8377,56.4772 L 20.5102,56.4772 L 20.5102,55.9649 L 19.8377,55.9649 Z" stroke="#FF0000" stroke-width="0.1199" stroke-linecap="round" stroke-linejoin="round" fill="#FF0000"/>
        <path d="M 20.6362,56.4772 L 20.6362,55.9649 L 20.8464,55.9649 L 20.8604,55.9787 L 20.9164,55.9787 L 20.9305,55.9926 L 20.9585,55.9926 L 20.9865,56.0064 L 21.0005,56.0203 L 21.0285,56.0341 L 21.0565,56.0618 L 21.0846,56.0757 L 21.0986,56.0895 L 21.1126,56.1172 L 21.1266,56.1311 L 21.1826,56.2418 L 21.1826,56.2695 L 21.1966,56.3110 L 21.1966,56.3526 L 21.2106,56.3941 L 21.2106,56.4772 L 20.6503,56.4772 L 20.6362,56.4772 Z" stroke="#FF0000" stroke-width="0.1199" stroke-linecap="round" stroke-linejoin="round" fill="#FF0000"/>
        <path d="M 19.7116,56.4772 L 19.7116,55.9649 L 19.5015,55.9649 L 19.4875,55.9787 L 19.4314,55.9787 L 19.4174,55.9926 L 19.3894,55.9926 L 19.3614,56.0064 L 19.3474,56.0203 L 19.3193,56.0341 L 19.2913,56.0618 L 19.2633,56.0757 L 19.2493,56.0895 L 19.2353,56.1172 L 19.2213,56.1311 L 19.1652,56.2418 L 19.1652,56.2695 L 19.1512,56.3110 L 19.1512,56.3526 L 19.1372,56.3941 L 19.1372,56.4772 L 19.6976,56.4772 L 19.7116,56.4772 Z" stroke="#FF0000" stroke-width="0.1199" stroke-linecap="round" stroke-linejoin="round" fill="#FF0000"/>
        <text font-family="Symbol" fill="#7F7F7F" style="white-space:pre;" text-anchor="start" x="32.6742" y="57.7344" font-size="0.5497"><![CDATA[]]></text>
        <text font-family="Arial" fill="#808080" style="white-space:pre;" font-weight="400" text-anchor="start" x="36.2281" y="66.3117" font-size="0.1549"><![CDATA[FEX-20D]]></text>
      </g>
      <!--emf-blob end-->
    </g>
  </g>
</svg>
