<svg xmlns="http://www.w3.org/2000/svg" xmlns:xlink="http://www.w3.org/1999/xlink" version="1.1" width="3.4000000000" height="0.7008000000" viewBox="0 0 61.2000 12.6142">
  <title><![CDATA[FWB-100D]]></title>
  <g transform=" scale(4.000000) ">
    <!--converted by libvisio2svg-->
    <g transform=" translate(0.000000,0.000000) ">
      <!--emf-blob start-->
      <g transform="translate(-0.0000, -0.0000)">
        <path d="M 5.3722,2.3738 L 5.3722,3.2288 L 6.1200,3.2288 " stroke="#000000" stroke-width="0.1200" stroke-linecap="round" stroke-linejoin="round" fill="none"/>
        <path d="M 6.1200,2.3738 L 7.5959,2.3738 " stroke="#000000" stroke-width="0.1200" stroke-linecap="round" stroke-linejoin="round" fill="none"/>
        <path d="M 6.8481,2.3738 L 6.8481,3.2288 " stroke="#000000" stroke-width="0.1200" stroke-linecap="round" stroke-linejoin="round" fill="none"/>
        <path d="M 7.9698,2.3738 L 7.9698,3.2288 " stroke="#000000" stroke-width="0.1200" stroke-linecap="round" stroke-linejoin="round" fill="none"/>
        <path d="M 7.9698,2.3738 L 7.9698,3.2288 " stroke="#000000" stroke-width="0.1200" stroke-linecap="round" stroke-linejoin="round" fill="none"/>
        <path d="M 8.6979,3.2288 L 8.6979,2.3738 L 9.4457,3.2288 L 10.1934,2.3738 L 10.1934,3.2288 " stroke="#000000" stroke-width="0.1200" stroke-linecap="round" stroke-linejoin="round" fill="none"/>
        <path d="M 10.5477,3.2288 L 11.2954,2.3738 L 12.0432,3.2288 " stroke="#000000" stroke-width="0.1200" stroke-linecap="round" stroke-linejoin="round" fill="none"/>
        <path d="M 10.7444,3.0150 L 11.8464,3.0150 " stroke="#000000" stroke-width="0.1200" stroke-linecap="round" stroke-linejoin="round" fill="none"/>
        <path d="M 3.1486,3.2288 L 3.8963,2.3738 L 4.6441,3.2288 " stroke="#000000" stroke-width="0.1200" stroke-linecap="round" stroke-linejoin="round" fill="none"/>
        <path d="M 3.3453,3.0150 L 4.4473,3.0150 " stroke="#000000" stroke-width="0.1200" stroke-linecap="round" stroke-linejoin="round" fill="none"/>
        <path d="M 61.1719,0.2806 L 61.1719,0.2245 L 61.1438,0.1684 L 61.1297,0.1263 L 61.0454,0.0421 L 61.0032,0.0281 L 60.9470,0.0000 L 0.2249,0.0000 L 0.1687,0.0281 L 0.1265,0.0421 L 0.0422,0.1263 L 0.0281,0.1684 L 0.0000,0.2245 L 0.0000,12.3474 L 0.0281,12.4036 L 0.0422,12.4457 L 0.1265,12.5298 L 0.1687,12.5439 L 0.2249,12.5719 L 60.9470,12.5719 L 61.0032,12.5439 L 61.0454,12.5298 L 61.1297,12.4457 L 61.1438,12.4036 L 61.1719,12.3474 L 61.1719,12.2913 L 61.1719,0.2806 Z" stroke="#000000" stroke-width="0.1200" stroke-linecap="round" stroke-linejoin="round" fill="#EDEDED"/>
        <path d="M 1.3072,1.1506 L 1.2510,1.1506 L 1.2369,1.1646 L 1.2229,1.1646 L 1.2088,1.1786 L 1.1948,1.1786 L 1.1667,1.2067 L 1.1526,1.2067 L 1.1526,1.2207 L 1.1385,1.2207 L 1.1245,1.2347 L 1.1245,1.2488 L 1.0964,1.2768 L 1.0964,1.2909 L 1.0683,1.3189 L 1.0683,1.3610 L 1.0542,1.3751 L 1.0542,11.1969 L 1.0683,11.2109 L 1.0683,11.2530 L 1.0964,11.2811 L 1.0964,11.2951 L 1.1245,11.3232 L 1.1245,11.3372 L 1.1385,11.3512 L 1.1526,11.3512 L 1.1526,11.3653 L 1.1667,11.3653 L 1.1948,11.3933 L 1.2088,11.3933 L 1.2229,11.4073 L 1.2369,11.4073 L 1.2510,11.4214 L 59.9209,11.4214 L 59.9350,11.4073 L 59.9490,11.4073 L 59.9631,11.3933 L 59.9771,11.3933 L 60.0052,11.3653 L 60.0193,11.3653 L 60.0193,11.3512 L 60.0333,11.3512 L 60.0474,11.3372 L 60.0474,11.3232 L 60.0755,11.2951 L 60.0755,11.2811 L 60.1036,11.2530 L 60.1036,11.2109 L 60.1177,11.1969 L 60.1177,1.3751 L 60.1036,1.3610 L 60.1036,1.3189 L 60.0755,1.2909 L 60.0755,1.2768 L 60.0474,1.2488 L 60.0474,1.2347 L 60.0333,1.2207 L 60.0193,1.2207 L 60.0193,1.2067 L 60.0052,1.2067 L 59.9771,1.1786 L 59.9631,1.1786 L 59.9490,1.1646 L 59.9350,1.1646 L 59.9209,1.1506 L 1.4759,1.1506 L 1.3072,1.1506 Z" stroke="#DDDDDD" stroke-width="0.1200" stroke-linecap="round" stroke-linejoin="round" fill="#BBCCBB"/>
        <path d="M 16.2628,8.8116 L 16.6002,8.7274 L 16.9235,8.6011 L 17.2186,8.4608 L 17.4998,8.2924 L 17.7668,8.1100 L 18.0198,7.8996 L 18.2729,7.6751 L 18.4977,7.4365 L 18.7367,7.1840 L 19.1865,6.6227 L 19.4254,6.3421 L 19.6503,6.0334 L 19.8893,5.7247 L 20.3953,5.1073 L 20.6624,4.7987 L 20.9435,4.4759 L 21.2387,4.1673 L 21.5620,3.8586 L 21.8993,3.5639 L 22.2507,3.2693 L 22.6443,2.9886 L 23.0519,2.7080 L 23.5017,2.4555 L 23.9796,2.2169 L 24.4856,1.9784 L 25.0338,1.7679 L 25.6101,1.5855 L 26.2426,1.4171 L 26.9033,1.2768 L 27.6201,1.1506 L 1.1948,1.1506 L 1.1948,1.1646 L 1.1667,1.1646 L 1.1667,1.1786 L 1.1526,1.1786 L 1.1526,1.1927 L 1.1385,1.1927 L 1.1245,1.2067 L 1.1245,1.2207 L 1.0823,1.2628 L 1.0823,1.2768 L 1.0683,1.2909 L 1.0683,1.3189 L 1.0542,1.3330 L 1.0542,8.8116 L 16.2207,8.8116 L 16.2628,8.8116 Z" stroke="#DDDDDD" stroke-width="0.1200" stroke-linecap="round" stroke-linejoin="round" fill="#EFEFEF"/>
        <path d="M 55.8306,7.0577 L 55.8306,8.6853 L 58.3045,8.6853 L 58.3045,7.0577 L 55.8306,7.0577 Z" stroke="#EDEDED" stroke-width="0.1200" stroke-linecap="round" stroke-linejoin="round" fill="#EFEFEF"/>
        <path d="M 53.0053,4.8688 L 55.0856,4.8688 L 55.0856,6.4684 L 53.0053,6.4684 L 53.0053,4.8688 Z" stroke="#EDEDED" stroke-width="0.1200" stroke-linecap="round" stroke-linejoin="round" fill="#EFEFEF"/>
        <path d="M 59.0354,6.4684 L 60.1317,6.4684 L 60.1317,4.8688 L 59.0354,4.8688 L 59.0354,6.4684 Z" stroke="#EDEDED" stroke-width="0.1200" stroke-linecap="round" stroke-linejoin="round" fill="#EFEFEF"/>
        <path d="M 55.0856,7.0717 L 55.0856,8.6993 L 54.5234,8.6993 L 54.4390,8.6853 L 54.3407,8.6713 L 54.0876,8.6292 L 54.0033,8.6011 L 53.9190,8.5871 L 53.8487,8.5590 L 53.7644,8.5169 L 53.5535,8.3906 L 53.4832,8.3345 L 53.4270,8.2784 L 53.2583,8.0679 L 53.1740,7.8996 L 53.1318,7.8013 L 53.1037,7.7031 L 53.0475,7.4786 L 53.0334,7.3523 L 53.0053,7.0717 L 55.0575,7.0717 L 55.0856,7.0717 Z" stroke="#EDEDED" stroke-width="0.1200" stroke-linecap="round" stroke-linejoin="round" fill="#EFEFEF"/>
        <path d="M 55.8306,2.6379 L 55.8306,4.2655 L 58.3045,4.2655 L 58.3045,2.6379 L 55.8306,2.6379 Z" stroke="#EDEDED" stroke-width="0.1200" stroke-linecap="round" stroke-linejoin="round" fill="#EFEFEF"/>
        <path d="M 55.0856,4.2655 L 55.0856,2.6379 L 54.5234,2.6379 L 54.4390,2.6519 L 54.3407,2.6659 L 54.0876,2.7080 L 54.0033,2.7361 L 53.9190,2.7501 L 53.8487,2.7782 L 53.7644,2.8203 L 53.5535,2.9465 L 53.4832,3.0027 L 53.4270,3.0588 L 53.2583,3.2693 L 53.1740,3.4376 L 53.1318,3.5359 L 53.1037,3.6341 L 53.0475,3.8586 L 53.0334,3.9849 L 53.0053,4.2655 L 55.0575,4.2655 L 55.0856,4.2655 Z" stroke="#EDEDED" stroke-width="0.1200" stroke-linecap="round" stroke-linejoin="round" fill="#EFEFEF"/>
        <path d="M 59.0354,7.0577 L 59.0354,8.6853 L 60.1317,8.6853 L 60.1317,7.0577 L 59.0354,7.0577 Z" stroke="#EDEDED" stroke-width="0.1200" stroke-linecap="round" stroke-linejoin="round" fill="#EFEFEF"/>
        <path d="M 59.0354,2.6379 L 59.0354,4.2655 L 60.1317,4.2655 L 60.1317,2.6379 L 59.0354,2.6379 Z" stroke="#EDEDED" stroke-width="0.1200" stroke-linecap="round" stroke-linejoin="round" fill="#EFEFEF"/>
        <path d="M 3.1002,3.3019 L 3.0847,3.3019 L 3.0770,3.2941 L 3.0693,3.2941 L 3.0461,3.2707 L 3.0461,3.2629 L 3.0384,3.2551 L 3.0384,2.3518 L 3.0461,2.3440 L 3.0461,2.3362 L 3.0538,2.3284 L 3.0615,2.3284 L 3.0615,2.3206 L 3.0693,2.3129 L 3.0770,2.3129 L 3.0847,2.3051 L 4.1362,2.3051 L 4.1439,2.3129 L 4.1516,2.3129 L 4.1748,2.3362 L 4.1748,2.3440 L 4.1826,2.3518 L 4.1826,2.5309 L 4.1748,2.5309 L 4.1748,2.5231 L 4.1671,2.5231 L 4.1671,2.5153 L 4.1594,2.5153 L 4.1594,2.5075 L 4.1439,2.5075 L 4.1439,2.4998 L 3.2935,2.4998 L 3.2935,2.5075 L 3.2780,2.5075 L 3.2780,2.5153 L 3.2703,2.5153 L 3.2703,2.5309 L 3.2626,2.5309 L 3.2626,3.2707 L 3.2703,3.2707 L 3.2703,3.2863 L 3.2780,3.2863 L 3.2780,3.2941 L 3.2858,3.2941 L 3.2858,3.3019 L 3.1079,3.3019 L 3.1002,3.3019 Z" stroke="#000000" stroke-width="0.1200" stroke-linecap="round" stroke-linejoin="round" fill="#000000"/>
        <path d="M 4.1053,2.7256 L 3.3399,2.7256 L 3.3399,2.7178 L 3.3244,2.7178 L 3.3244,2.7100 L 3.3167,2.7100 L 3.3167,2.6944 L 3.3089,2.6944 L 3.3089,2.8891 L 3.3167,2.8891 L 3.3167,2.9047 L 3.3244,2.9047 L 3.3244,2.9125 L 3.3399,2.9125 L 3.3399,2.9203 L 4.1207,2.9203 L 4.1362,2.9047 L 4.1439,2.9047 L 4.1594,2.8891 L 4.1594,2.8813 L 4.1671,2.8735 L 4.1671,2.8658 L 4.1748,2.8580 L 4.1748,2.8424 L 4.1826,2.8346 L 4.1826,2.8112 L 4.1748,2.8035 L 4.1748,2.7801 L 4.1594,2.7645 L 4.1594,2.7567 L 4.1516,2.7489 L 4.1439,2.7489 L 4.1439,2.7412 L 4.1362,2.7412 L 4.1284,2.7334 L 4.1207,2.7334 L 4.1130,2.7256 L 4.1053,2.7256 Z" stroke="#000000" stroke-width="0.1200" stroke-linecap="round" stroke-linejoin="round" fill="#000000"/>
        <path d="M 5.8912,2.9203 L 5.8757,2.9203 L 5.8757,2.9125 L 5.8602,2.9125 L 5.8602,2.9047 L 5.8525,2.9047 L 5.8525,2.8891 L 5.8448,2.8891 L 5.8448,2.6944 L 5.8525,2.6944 L 5.8525,2.7100 L 5.8602,2.7100 L 5.8602,2.7178 L 5.8757,2.7178 L 5.8757,2.7256 L 6.4942,2.7256 L 6.4942,2.4998 L 5.8293,2.4998 L 5.8293,2.5075 L 5.8138,2.5075 L 5.8138,2.5153 L 5.8061,2.5153 L 5.8061,2.5309 L 5.7984,2.5309 L 5.7984,3.2707 L 5.8061,3.2707 L 5.8061,3.2863 L 5.8138,3.2863 L 5.8138,3.2941 L 5.8216,3.2941 L 5.8216,3.3019 L 5.6206,3.3019 L 5.6128,3.2941 L 5.6051,3.2941 L 5.5819,3.2707 L 5.5819,3.2629 L 5.5742,3.2551 L 5.5742,2.3518 L 5.5819,2.3440 L 5.5819,2.3362 L 5.5896,2.3284 L 5.5974,2.3284 L 5.5974,2.3206 L 5.6051,2.3129 L 5.6128,2.3129 L 5.6206,2.3051 L 6.6720,2.3051 L 6.6797,2.3129 L 6.6875,2.3129 L 6.7107,2.3362 L 6.7107,2.3440 L 6.7184,2.3518 L 6.7184,2.8424 L 6.7107,2.8502 L 6.7107,2.8658 L 6.7029,2.8658 L 6.7029,2.8735 L 6.6952,2.8813 L 6.6952,2.8891 L 6.6875,2.8891 L 6.6875,2.8969 L 6.6797,2.8969 L 6.6797,2.9047 L 6.6720,2.9047 L 6.6720,2.9125 L 6.6643,2.9125 L 6.6565,2.9203 L 6.6643,2.9281 L 6.6720,2.9281 L 6.6720,2.9358 L 6.6797,2.9358 L 6.6797,2.9436 L 6.6875,2.9436 L 6.6875,2.9514 L 6.6952,2.9514 L 6.6952,2.9592 L 6.7029,2.9670 L 6.7029,2.9748 L 6.7107,2.9748 L 6.7107,2.9904 L 6.7184,2.9981 L 6.7184,3.2707 L 6.7261,3.2707 L 6.7261,3.2863 L 6.7339,3.2863 L 6.7339,3.2941 L 6.7416,3.2941 L 6.7416,3.3019 L 6.5406,3.3019 L 6.5328,3.2941 L 6.5251,3.2941 L 6.5019,3.2707 L 6.5019,3.2629 L 6.4942,3.2551 L 6.4942,2.9203 L 5.8989,2.9203 L 5.8912,2.9203 Z" stroke="#000000" stroke-width="0.1200" stroke-linecap="round" stroke-linejoin="round" fill="#000000"/>
        <path d="M 7.1204,2.4998 L 6.8885,2.4998 L 6.8807,2.4920 L 6.8730,2.4920 L 6.8498,2.4686 L 6.8498,2.4608 L 6.8421,2.4530 L 6.8421,2.3518 L 6.8498,2.3440 L 6.8498,2.3362 L 6.8576,2.3284 L 6.8653,2.3284 L 6.8653,2.3206 L 6.8730,2.3129 L 6.8807,2.3129 L 6.8885,2.3051 L 7.9399,2.3051 L 7.9477,2.3129 L 7.9554,2.3129 L 7.9786,2.3362 L 7.9786,2.3440 L 7.9863,2.3518 L 7.9863,2.5309 L 7.9786,2.5309 L 7.9786,2.5231 L 7.9708,2.5231 L 7.9708,2.5153 L 7.9631,2.5153 L 7.9631,2.5075 L 7.9477,2.5075 L 7.9477,2.4998 L 7.3755,2.4998 L 7.3755,2.5075 L 7.3601,2.5075 L 7.3601,2.5153 L 7.3523,2.5153 L 7.3523,2.5309 L 7.3446,2.5309 L 7.3446,3.2707 L 7.3523,3.2707 L 7.3523,3.2863 L 7.3601,3.2863 L 7.3601,3.2941 L 7.3678,3.2941 L 7.3678,3.3019 L 7.1668,3.3019 L 7.1591,3.2941 L 7.1513,3.2941 L 7.1281,3.2707 L 7.1281,3.2629 L 7.1204,3.2551 L 7.1204,2.5231 L 7.1204,2.4998 Z" stroke="#000000" stroke-width="0.1200" stroke-linecap="round" stroke-linejoin="round" fill="#000000"/>
        <path d="M 8.3342,3.2473 L 8.3342,3.2707 L 8.3419,3.2707 L 8.3419,3.2863 L 8.3497,3.2863 L 8.3497,3.2941 L 8.3574,3.2941 L 8.3574,3.3019 L 8.1564,3.3019 L 8.1487,3.2941 L 8.1409,3.2941 L 8.1177,3.2707 L 8.1177,3.2629 L 8.1100,3.2551 L 8.1100,2.3362 L 8.1023,2.3362 L 8.1023,2.3206 L 8.0945,2.3206 L 8.0945,2.3129 L 8.0868,2.3129 L 8.0868,2.3051 L 8.2878,2.3051 L 8.2956,2.3129 L 8.3033,2.3129 L 8.3265,2.3362 L 8.3265,2.3440 L 8.3342,2.3518 L 8.3342,3.2396 L 8.3342,3.2473 Z" stroke="#000000" stroke-width="0.1200" stroke-linecap="round" stroke-linejoin="round" fill="#000000"/>
        <path d="M 9.4320,2.4998 L 8.7672,2.4998 L 8.7672,2.5075 L 8.7517,2.5075 L 8.7517,2.5153 L 8.7440,2.5153 L 8.7440,2.5309 L 8.7362,2.5309 L 8.7362,3.2707 L 8.7440,3.2707 L 8.7440,3.2863 L 8.7517,3.2863 L 8.7517,3.2941 L 8.7594,3.2941 L 8.7594,3.3019 L 8.5584,3.3019 L 8.5507,3.2941 L 8.5430,3.2941 L 8.5198,3.2707 L 8.5198,3.2629 L 8.5120,3.2551 L 8.5120,2.3518 L 8.5198,2.3440 L 8.5198,2.3362 L 8.5275,2.3284 L 8.5352,2.3284 L 8.5352,2.3206 L 8.5430,2.3129 L 8.5507,2.3129 L 8.5584,2.3051 L 9.6099,2.3051 L 9.6176,2.3129 L 9.6253,2.3129 L 9.6485,2.3362 L 9.6485,2.3440 L 9.6562,2.3518 L 9.6562,3.2707 L 9.6640,3.2707 L 9.6640,3.2863 L 9.6717,3.2863 L 9.6717,3.2941 L 9.6794,3.2941 L 9.6794,3.3019 L 9.4784,3.3019 L 9.4707,3.2941 L 9.4630,3.2941 L 9.4398,3.2707 L 9.4398,3.2629 L 9.4320,3.2551 L 9.4320,2.5231 L 9.4320,2.4998 Z" stroke="#000000" stroke-width="0.1200" stroke-linecap="round" stroke-linejoin="round" fill="#000000"/>
        <path d="M 10.7927,2.7256 L 10.0815,2.7256 L 10.0737,2.7178 L 10.0660,2.7178 L 10.0660,2.7100 L 10.0583,2.7100 L 10.0583,2.6944 L 10.0505,2.6944 L 10.0505,2.8891 L 10.0583,2.8891 L 10.0583,2.9047 L 10.0660,2.9047 L 10.0660,2.9125 L 10.0737,2.9125 L 10.0815,2.9203 L 10.8005,2.9203 L 10.8159,2.9047 L 10.8236,2.9047 L 10.8391,2.8891 L 10.8391,2.8813 L 10.8468,2.8735 L 10.8468,2.8658 L 10.8546,2.8580 L 10.8546,2.8424 L 10.8623,2.8346 L 10.8623,2.8035 L 10.8546,2.7957 L 10.8546,2.7723 L 10.8468,2.7723 L 10.8468,2.7645 L 10.8236,2.7412 L 10.8159,2.7412 L 10.8159,2.7334 L 10.8082,2.7334 L 10.8005,2.7256 L 10.7927,2.7256 Z" stroke="#000000" stroke-width="0.1200" stroke-linecap="round" stroke-linejoin="round" fill="#000000"/>
        <path d="M 11.3262,2.4998 L 11.0942,2.4998 L 11.0865,2.4920 L 11.0788,2.4920 L 11.0556,2.4686 L 11.0556,2.4608 L 11.0479,2.4530 L 11.0479,2.3518 L 11.0556,2.3440 L 11.0556,2.3362 L 11.0633,2.3284 L 11.0710,2.3284 L 11.0710,2.3206 L 11.0788,2.3129 L 11.0865,2.3129 L 11.0942,2.3051 L 12.1457,2.3051 L 12.1534,2.3129 L 12.1611,2.3129 L 12.1843,2.3362 L 12.1843,2.3440 L 12.1921,2.3518 L 12.1921,2.5309 L 12.1843,2.5309 L 12.1843,2.5231 L 12.1766,2.5231 L 12.1766,2.5153 L 12.1689,2.5153 L 12.1689,2.5075 L 12.1534,2.5075 L 12.1534,2.4998 L 11.5813,2.4998 L 11.5813,2.5075 L 11.5658,2.5075 L 11.5658,2.5153 L 11.5581,2.5153 L 11.5581,2.5309 L 11.5504,2.5309 L 11.5504,3.2707 L 11.5581,3.2707 L 11.5581,3.2863 L 11.5658,3.2863 L 11.5658,3.2941 L 11.5736,3.2941 L 11.5736,3.3019 L 11.3726,3.3019 L 11.3648,3.2941 L 11.3571,3.2941 L 11.3339,3.2707 L 11.3339,3.2629 L 11.3262,3.2551 L 11.3262,2.5231 L 11.3262,2.4998 Z" stroke="#000000" stroke-width="0.1200" stroke-linecap="round" stroke-linejoin="round" fill="#000000"/>
        <path d="M 10.8700,3.1072 L 10.8855,3.1072 L 10.8855,3.0994 L 10.9010,3.0994 L 10.9010,3.0916 L 10.9087,3.0916 L 10.9087,3.0838 L 10.9164,3.0838 L 10.9164,3.0760 L 10.9242,3.0760 L 10.9242,3.2551 L 10.9164,3.2629 L 10.9164,3.2707 L 10.9087,3.2785 L 10.9087,3.2863 L 10.9010,3.2863 L 10.8932,3.2941 L 10.8855,3.2941 L 10.8778,3.3019 L 9.8263,3.3019 L 9.8186,3.2941 L 9.8109,3.2941 L 9.7877,3.2707 L 9.7877,3.2629 L 9.7799,3.2551 L 9.7799,2.3518 L 9.7877,2.3440 L 9.7877,2.3362 L 9.7954,2.3284 L 9.8031,2.3284 L 9.8031,2.3206 L 9.8109,2.3129 L 9.8186,2.3129 L 9.8263,2.3051 L 10.8778,2.3051 L 10.8855,2.3129 L 10.8932,2.3129 L 10.9164,2.3362 L 10.9164,2.3440 L 10.9242,2.3518 L 10.9242,2.5309 L 10.9164,2.5309 L 10.9164,2.5231 L 10.9087,2.5231 L 10.9087,2.5153 L 10.9010,2.5153 L 10.9010,2.5075 L 10.8855,2.5075 L 10.8855,2.4998 L 10.0351,2.4998 L 10.0351,2.5075 L 10.0196,2.5075 L 10.0196,2.5153 L 10.0119,2.5153 L 10.0119,2.5309 L 10.0041,2.5309 L 10.0041,3.1072 L 10.8623,3.1072 L 10.8700,3.1072 Z" stroke="#000000" stroke-width="0.1200" stroke-linecap="round" stroke-linejoin="round" fill="#000000"/>
        <path d="M 4.6928,3.0137 L 4.6928,3.3019 L 5.0639,3.3019 L 5.0639,3.0137 L 4.6928,3.0137 Z" stroke="#ED3440" stroke-width="0.1200" stroke-linecap="round" stroke-linejoin="round" fill="#ED3440"/>
        <path d="M 4.3063,2.6633 L 4.6232,2.6633 L 4.6232,2.9436 L 4.3063,2.9436 L 4.3063,2.6633 Z" stroke="#ED3440" stroke-width="0.1200" stroke-linecap="round" stroke-linejoin="round" fill="#ED3440"/>
        <path d="M 5.1335,3.0137 L 5.1335,3.3019 L 5.2495,3.3019 L 5.2572,3.2941 L 5.2881,3.2941 L 5.2959,3.2863 L 5.3113,3.2863 L 5.3268,3.2785 L 5.3345,3.2707 L 5.3500,3.2629 L 5.3654,3.2473 L 5.3809,3.2396 L 5.3886,3.2318 L 5.3964,3.2162 L 5.4041,3.2084 L 5.4350,3.1461 L 5.4350,3.1305 L 5.4427,3.1072 L 5.4427,3.0838 L 5.4505,3.0604 L 5.4505,3.0137 L 5.1412,3.0137 L 5.1335,3.0137 Z" stroke="#ED3440" stroke-width="0.1200" stroke-linecap="round" stroke-linejoin="round" fill="#ED3440"/>
        <path d="M 5.1335,2.6633 L 5.4505,2.6633 L 5.4505,2.9436 L 5.1335,2.9436 L 5.1335,2.6633 Z" stroke="#ED3440" stroke-width="0.1200" stroke-linecap="round" stroke-linejoin="round" fill="#ED3440"/>
        <path d="M 4.6232,3.0137 L 4.6232,3.3019 L 4.5073,3.3019 L 4.4995,3.2941 L 4.4686,3.2941 L 4.4609,3.2863 L 4.4454,3.2863 L 4.4300,3.2785 L 4.4222,3.2707 L 4.4068,3.2629 L 4.3913,3.2473 L 4.3758,3.2396 L 4.3681,3.2318 L 4.3604,3.2162 L 4.3527,3.2084 L 4.3217,3.1461 L 4.3217,3.1305 L 4.3140,3.1072 L 4.3140,3.0838 L 4.3063,3.0604 L 4.3063,3.0137 L 4.6155,3.0137 L 4.6232,3.0137 Z" stroke="#ED3440" stroke-width="0.1200" stroke-linecap="round" stroke-linejoin="round" fill="#ED3440"/>
        <path d="M 4.6928,2.3051 L 4.6928,2.5932 L 5.0639,2.5932 L 5.0639,2.3051 L 4.6928,2.3051 Z" stroke="#ED3440" stroke-width="0.1200" stroke-linecap="round" stroke-linejoin="round" fill="#ED3440"/>
        <path d="M 5.1335,2.5932 L 5.1335,2.3051 L 5.2495,2.3051 L 5.2572,2.3129 L 5.2881,2.3129 L 5.2959,2.3206 L 5.3113,2.3206 L 5.3268,2.3284 L 5.3345,2.3362 L 5.3500,2.3440 L 5.3654,2.3596 L 5.3809,2.3674 L 5.3886,2.3752 L 5.3964,2.3907 L 5.4041,2.3985 L 5.4350,2.4608 L 5.4350,2.4764 L 5.4427,2.4998 L 5.4427,2.5231 L 5.4505,2.5465 L 5.4505,2.5932 L 5.1412,2.5932 L 5.1335,2.5932 Z" stroke="#ED3440" stroke-width="0.1200" stroke-linecap="round" stroke-linejoin="round" fill="#ED3440"/>
        <path d="M 4.6232,2.5932 L 4.6232,2.3051 L 4.5073,2.3051 L 4.4995,2.3129 L 4.4686,2.3129 L 4.4609,2.3206 L 4.4454,2.3206 L 4.4300,2.3284 L 4.4222,2.3362 L 4.4068,2.3440 L 4.3913,2.3596 L 4.3758,2.3674 L 4.3681,2.3752 L 4.3604,2.3907 L 4.3527,2.3985 L 4.3217,2.4608 L 4.3217,2.4764 L 4.3140,2.4998 L 4.3140,2.5231 L 4.3063,2.5465 L 4.3063,2.5932 L 4.6155,2.5932 L 4.6232,2.5932 Z" stroke="#ED3440" stroke-width="0.1200" stroke-linecap="round" stroke-linejoin="round" fill="#ED3440"/>
        <text font-family="Symbol" fill="#000000" style="white-space:pre;" text-anchor="start" x="11.6426" y="3.3656" font-size="0.4820"><![CDATA[]]></text>
        <text font-family="Arial" fill="#000000" style="white-space:pre;" font-weight="400" text-anchor="start" x="12.4233" y="3.9275" font-size="0.1222"><![CDATA[FortiWeb 100D]]></text>
        <ellipse cx="3.2521" cy="7.9065" rx="0.3229" ry="0.3150" fill="#00FF00" stroke="#000000" stroke-width="0.1200" stroke-linecap="round" stroke-linejoin="round"/>
        <ellipse cx="3.2521" cy="7.9065" rx="0.3229" ry="0.3150" fill="none" stroke="#000000" stroke-width="0.1200" stroke-linecap="round" stroke-linejoin="round"/>
        <ellipse cx="3.2521" cy="9.3083" rx="0.3229" ry="0.3150" fill="#00FF00" stroke="#000000" stroke-width="0.1200" stroke-linecap="round" stroke-linejoin="round"/>
        <ellipse cx="3.2521" cy="9.3083" rx="0.3229" ry="0.3150" fill="none" stroke="#000000" stroke-width="0.1200" stroke-linecap="round" stroke-linejoin="round"/>
        <text font-family="Arial" fill="#000000" style="white-space:pre;" font-weight="400" text-anchor="start" x="5.6853" y="12.8662" font-size="0.1732"><![CDATA[CONSOLE]]></text>
        <text font-family="Arial" fill="#000000" style="white-space:pre;" font-weight="400" text-anchor="start" x="10.3942" y="12.8662" font-size="0.1732"><![CDATA[USB]]></text>
        <text font-family="Arial" fill="#000000" style="white-space:pre;" font-weight="400" text-anchor="start" x="4.9924" y="12.6299" font-size="0.1732"><![CDATA[HDD]]></text>
        <text font-family="Arial" fill="#000000" style="white-space:pre;" font-weight="400" text-anchor="start" x="4.9924" y="12.2362" font-size="0.1732"><![CDATA[PWR]]></text>
        <path d="M 10.0544,5.8527 L 5.7415,5.8527 L 5.7415,9.7114 L 10.0544,9.7114 L 10.0544,5.8527 Z" stroke="#0A0A0A" stroke-width="0.1200" stroke-linecap="round" stroke-linejoin="round" fill="#BFBFBF"/>
        <text font-family="Arial" fill="#000000" style="white-space:pre;" font-weight="400" text-anchor="start" x="11.9197" y="8.4865" font-size="0.1001"><![CDATA[1]]></text>
        <path d="M 37.1604,5.8527 L 32.8475,5.8527 L 32.8475,9.7114 L 37.1604,9.7114 L 37.1604,5.8527 Z" stroke="#0A0A0A" stroke-width="0.1200" stroke-linecap="round" stroke-linejoin="round" fill="#EFEFEF"/>
        <text font-family="Arial" fill="#000000" style="white-space:pre;" font-weight="400" text-anchor="start" x="39.9811" y="8.4865" font-size="0.1001"><![CDATA[2]]></text>
        <path d="M 43.0657,5.8527 L 38.7527,5.8527 L 38.7527,9.7114 L 43.0657,9.7114 L 43.0657,5.8527 Z" stroke="#0A0A0A" stroke-width="0.1200" stroke-linecap="round" stroke-linejoin="round" fill="#EFEFEF"/>
        <text font-family="Arial" fill="#000000" style="white-space:pre;" font-weight="400" text-anchor="start" x="46.8508" y="8.4865" font-size="0.1001"><![CDATA[3]]></text>
        <path d="M 49.0346,5.8527 L 44.7217,5.8527 L 44.7217,9.7114 L 49.0346,9.7114 L 49.0346,5.8527 Z" stroke="#0A0A0A" stroke-width="0.1200" stroke-linecap="round" stroke-linejoin="round" fill="#EFEFEF"/>
        <text font-family="Arial" fill="#000000" style="white-space:pre;" font-weight="400" text-anchor="start" x="53.7752" y="8.4865" font-size="0.1001"><![CDATA[4]]></text>
        <path d="M 54.9399,5.8527 L 50.6269,5.8527 L 50.6269,9.7114 L 54.9399,9.7114 L 54.9399,5.8527 Z" stroke="#0A0A0A" stroke-width="0.1200" stroke-linecap="round" stroke-linejoin="round" fill="#EFEFEF"/>
        <path d="M 6.0698,8.9782 L 6.0698,6.8551 L 6.9628,6.8551 L 6.9628,6.3555 L 7.3256,6.3555 L 7.3256,5.8559 L 8.3860,5.8559 L 8.3860,6.3555 L 8.7488,6.3555 L 8.7488,6.8551 L 9.6419,6.8551 L 9.6419,8.9782 L 6.0698,8.9782 Z" stroke="#161616" stroke-width="0.1200" stroke-linecap="round" stroke-linejoin="round" fill="#000000"/>
        <path d="M 22.4608,5.6776 L 22.4255,5.6776 L 22.4255,5.6892 L 22.4020,5.6892 L 22.3902,5.7008 L 22.3785,5.7008 L 22.3785,5.7125 L 22.3667,5.7125 L 22.3667,5.7241 L 22.3550,5.7241 L 22.3550,5.7357 L 22.3432,5.7474 L 22.3432,5.7706 L 22.3315,5.7706 L 22.3315,6.9108 L 22.3432,6.9108 L 22.3432,6.9341 L 22.3550,6.9457 L 22.3550,6.9573 L 22.3667,6.9573 L 22.3667,6.9690 L 22.3785,6.9690 L 22.3785,6.9806 L 22.3902,6.9806 L 22.4020,6.9922 L 22.4255,6.9922 L 22.4255,7.0039 L 25.3639,7.0039 L 25.3639,6.9922 L 25.3874,6.9922 L 25.3991,6.9806 L 25.4109,6.9806 L 25.4109,6.9690 L 25.4226,6.9690 L 25.4226,6.9573 L 25.4344,6.9573 L 25.4344,6.9457 L 25.4461,6.9341 L 25.4461,6.9108 L 25.4579,6.9108 L 25.4579,5.7706 L 25.4461,5.7706 L 25.4461,5.7474 L 25.4344,5.7357 L 25.4344,5.7241 L 25.4226,5.7241 L 25.4226,5.7125 L 25.4109,5.7125 L 25.4109,5.7008 L 25.3991,5.7008 L 25.3874,5.6892 L 25.3639,5.6892 L 25.3639,5.6776 L 22.4725,5.6776 L 22.4608,5.6776 Z" stroke="#000000" stroke-width="0.1200" stroke-linecap="round" stroke-linejoin="round" fill="#BFBFBF"/>
        <path d="M 22.5078,5.7823 L 22.4725,5.7823 L 22.4725,5.7939 L 22.4608,5.7939 L 22.4608,5.8055 L 22.4490,5.8055 L 22.4490,5.8172 L 22.4373,5.8172 L 22.4373,6.8643 L 22.4490,6.8759 L 22.4490,6.8875 L 22.4608,6.8875 L 22.4608,6.8992 L 22.4725,6.8992 L 22.4843,6.9108 L 25.3168,6.9108 L 25.3168,6.8992 L 25.3286,6.8992 L 25.3286,6.8875 L 25.3403,6.8875 L 25.3403,6.8759 L 25.3521,6.8643 L 25.3521,5.8172 L 25.3403,5.8172 L 25.3403,5.8055 L 25.3286,5.7939 L 25.3168,5.7939 L 25.3168,5.7823 L 22.5195,5.7823 L 22.5078,5.7823 Z" stroke="#333333" stroke-width="0.1200" stroke-linecap="round" stroke-linejoin="round" fill="#000000"/>
        <path d="M 23.1307,6.3640 L 22.8721,6.3640 L 22.8721,6.3058 L 23.1307,6.3058 L 23.1307,6.3640 Z" stroke="#000000" stroke-width="0.1200" stroke-linecap="round" stroke-linejoin="round" fill="#E2E2CC"/>
        <path d="M 23.7184,6.3640 L 23.4598,6.3640 L 23.4598,6.3058 L 23.7184,6.3058 L 23.7184,6.3640 Z" stroke="#000000" stroke-width="0.1200" stroke-linecap="round" stroke-linejoin="round" fill="#E2E2CC"/>
        <path d="M 24.2943,6.3640 L 24.0357,6.3640 L 24.0357,6.3058 L 24.2943,6.3058 L 24.2943,6.3640 Z" stroke="#000000" stroke-width="0.1200" stroke-linecap="round" stroke-linejoin="round" fill="#E2E2CC"/>
        <path d="M 24.8937,6.3640 L 24.6351,6.3640 L 24.6351,6.3058 L 24.8937,6.3058 L 24.8937,6.3640 Z" stroke="#000000" stroke-width="0.1200" stroke-linecap="round" stroke-linejoin="round" fill="#E2E2CC"/>
        <path d="M 25.1758,6.0033 L 25.1758,5.9801 L 25.1640,5.9568 L 25.1405,5.9452 L 22.6488,5.9452 L 22.6253,5.9568 L 22.6136,5.9801 L 22.6136,6.2709 L 22.6253,6.2942 L 22.6488,6.3058 L 25.1405,6.3058 L 25.1640,6.2942 L 25.1758,6.2709 L 25.1758,6.2476 L 25.1758,6.0033 Z" stroke="#000000" stroke-width="0.1200" stroke-linecap="round" stroke-linejoin="round" fill="#7F7F7F"/>
        <path d="M 25.0818,6.1197 L 25.0700,6.0731 L 25.0230,6.0266 L 24.9760,6.0150 L 22.8134,6.0150 L 22.7664,6.0266 L 22.7193,6.0731 L 22.7076,6.1197 L 22.7193,6.1662 L 22.7664,6.2127 L 22.8134,6.2244 L 24.9760,6.2244 L 25.0230,6.2127 L 25.0700,6.1662 L 25.0818,6.1197 Z" stroke="#999999" stroke-width="0.1200" stroke-linecap="round" stroke-linejoin="round" fill="#999999"/>
        <path d="M 22.4608,7.7019 L 22.4255,7.7019 L 22.4255,7.7136 L 22.4020,7.7136 L 22.3902,7.7252 L 22.3785,7.7252 L 22.3785,7.7368 L 22.3667,7.7368 L 22.3667,7.7485 L 22.3550,7.7485 L 22.3550,7.7601 L 22.3432,7.7717 L 22.3432,7.7950 L 22.3315,7.7950 L 22.3315,8.9352 L 22.3432,8.9352 L 22.3432,8.9584 L 22.3550,8.9701 L 22.3550,8.9817 L 22.3667,8.9817 L 22.3667,8.9934 L 22.3785,8.9934 L 22.3785,9.0050 L 22.3902,9.0050 L 22.4020,9.0166 L 22.4255,9.0166 L 22.4255,9.0283 L 25.3639,9.0283 L 25.3639,9.0166 L 25.3874,9.0166 L 25.3991,9.0050 L 25.4109,9.0050 L 25.4109,8.9934 L 25.4226,8.9934 L 25.4226,8.9817 L 25.4344,8.9817 L 25.4344,8.9701 L 25.4461,8.9584 L 25.4461,8.9352 L 25.4579,8.9352 L 25.4579,7.7950 L 25.4461,7.7950 L 25.4461,7.7717 L 25.4344,7.7601 L 25.4344,7.7485 L 25.4226,7.7485 L 25.4226,7.7368 L 25.4109,7.7368 L 25.4109,7.7252 L 25.3991,7.7252 L 25.3874,7.7136 L 25.3639,7.7136 L 25.3639,7.7019 L 22.4725,7.7019 L 22.4608,7.7019 Z" stroke="#000000" stroke-width="0.1200" stroke-linecap="round" stroke-linejoin="round" fill="#BFBFBF"/>
        <path d="M 22.5078,7.8066 L 22.4725,7.8066 L 22.4725,7.8183 L 22.4608,7.8183 L 22.4608,7.8299 L 22.4490,7.8299 L 22.4490,7.8416 L 22.4373,7.8416 L 22.4373,8.8886 L 22.4490,8.9003 L 22.4490,8.9119 L 22.4608,8.9119 L 22.4608,8.9235 L 22.4725,8.9235 L 22.4843,8.9352 L 25.3168,8.9352 L 25.3168,8.9235 L 25.3286,8.9235 L 25.3286,8.9119 L 25.3403,8.9119 L 25.3403,8.9003 L 25.3521,8.8886 L 25.3521,7.8416 L 25.3403,7.8416 L 25.3403,7.8299 L 25.3286,7.8183 L 25.3168,7.8183 L 25.3168,7.8066 L 22.5195,7.8066 L 22.5078,7.8066 Z" stroke="#333333" stroke-width="0.1200" stroke-linecap="round" stroke-linejoin="round" fill="#000000"/>
        <path d="M 23.1307,8.3884 L 22.8721,8.3884 L 22.8721,8.3302 L 23.1307,8.3302 L 23.1307,8.3884 Z" stroke="#000000" stroke-width="0.1200" stroke-linecap="round" stroke-linejoin="round" fill="#E2E2CC"/>
        <path d="M 23.7184,8.3884 L 23.4598,8.3884 L 23.4598,8.3302 L 23.7184,8.3302 L 23.7184,8.3884 Z" stroke="#000000" stroke-width="0.1200" stroke-linecap="round" stroke-linejoin="round" fill="#E2E2CC"/>
        <path d="M 24.2943,8.3884 L 24.0357,8.3884 L 24.0357,8.3302 L 24.2943,8.3302 L 24.2943,8.3884 Z" stroke="#000000" stroke-width="0.1200" stroke-linecap="round" stroke-linejoin="round" fill="#E2E2CC"/>
        <path d="M 24.8937,8.3884 L 24.6351,8.3884 L 24.6351,8.3302 L 24.8937,8.3302 L 24.8937,8.3884 Z" stroke="#000000" stroke-width="0.1200" stroke-linecap="round" stroke-linejoin="round" fill="#E2E2CC"/>
        <path d="M 25.1758,8.0277 L 25.1758,8.0044 L 25.1640,7.9812 L 25.1405,7.9695 L 22.6488,7.9695 L 22.6253,7.9812 L 22.6136,8.0044 L 22.6136,8.2953 L 22.6253,8.3186 L 22.6488,8.3302 L 25.1405,8.3302 L 25.1640,8.3186 L 25.1758,8.2953 L 25.1758,8.2720 L 25.1758,8.0277 Z" stroke="#000000" stroke-width="0.1200" stroke-linecap="round" stroke-linejoin="round" fill="#7F7F7F"/>
        <path d="M 25.0818,8.1440 L 25.0700,8.0975 L 25.0230,8.0510 L 24.9760,8.0393 L 22.8134,8.0393 L 22.7664,8.0510 L 22.7193,8.0975 L 22.7076,8.1440 L 22.7193,8.1906 L 22.7664,8.2371 L 22.8134,8.2488 L 24.9760,8.2488 L 25.0230,8.2371 L 25.0700,8.1906 L 25.0818,8.1440 Z" stroke="#999999" stroke-width="0.1200" stroke-linecap="round" stroke-linejoin="round" fill="#999999"/>
        <path d="M 34.3688,6.0225 L 34.3688,6.1751 L 34.1438,6.1751 L 34.1438,6.6053 L 33.2016,6.6053 L 33.2016,6.6469 L 32.9062,6.6469 L 32.9062,6.1751 L 32.9625,6.1751 L 32.9625,6.6053 L 33.2016,6.6053 L 33.2016,7.5628 L 33.3000,7.5628 L 33.3000,8.0623 L 33.2016,8.0623 L 33.2016,9.1447 L 36.8016,9.1447 L 36.8016,8.0623 L 36.7031,8.0623 L 36.7031,7.5628 L 36.8016,7.5628 L 36.8016,6.6053 L 37.0406,6.6053 L 37.0406,6.1751 L 37.0969,6.1751 L 37.0969,6.6469 L 36.8016,6.6469 L 36.8016,6.6053 L 35.8594,6.6053 L 35.8594,6.1751 L 35.6344,6.1751 L 35.6344,6.0225 L 34.3688,6.0225 Z" stroke="#000000" stroke-width="0.1200" stroke-linecap="round" stroke-linejoin="round" fill="#000000"/>
        <path d="M 34.1438,6.1890 L 32.9625,6.1890 L 32.9625,6.6192 L 34.1438,6.6192 L 34.1438,6.1890 Z" stroke="#494949" stroke-width="0.1200" stroke-linecap="round" stroke-linejoin="round" fill="#000000"/>
        <path d="M 37.0406,6.1890 L 35.8594,6.1890 L 35.8594,6.6192 L 37.0406,6.6192 L 37.0406,6.1890 Z" stroke="#494949" stroke-width="0.1200" stroke-linecap="round" stroke-linejoin="round" fill="#000000"/>
        <path d="M 40.2750,6.0225 L 40.2750,6.1751 L 40.0500,6.1751 L 40.0500,6.6053 L 39.1078,6.6053 L 39.1078,6.6469 L 38.8125,6.6469 L 38.8125,6.1751 L 38.8688,6.1751 L 38.8688,6.6053 L 39.1078,6.6053 L 39.1078,7.5628 L 39.2063,7.5628 L 39.2063,8.0623 L 39.1078,8.0623 L 39.1078,9.1447 L 42.7078,9.1447 L 42.7078,8.0623 L 42.6094,8.0623 L 42.6094,7.5628 L 42.7078,7.5628 L 42.7078,6.6053 L 42.9469,6.6053 L 42.9469,6.1751 L 43.0031,6.1751 L 43.0031,6.6469 L 42.7078,6.6469 L 42.7078,6.6053 L 41.7656,6.6053 L 41.7656,6.1751 L 41.5406,6.1751 L 41.5406,6.0225 L 40.2750,6.0225 Z" stroke="#000000" stroke-width="0.1200" stroke-linecap="round" stroke-linejoin="round" fill="#000000"/>
        <path d="M 40.0500,6.1890 L 38.8688,6.1890 L 38.8688,6.6192 L 40.0500,6.6192 L 40.0500,6.1890 Z" stroke="#494949" stroke-width="0.1200" stroke-linecap="round" stroke-linejoin="round" fill="#000000"/>
        <path d="M 42.9469,6.1890 L 41.7656,6.1890 L 41.7656,6.6192 L 42.9469,6.6192 L 42.9469,6.1890 Z" stroke="#494949" stroke-width="0.1200" stroke-linecap="round" stroke-linejoin="round" fill="#000000"/>
        <path d="M 46.2375,6.0225 L 46.2375,6.1751 L 46.0125,6.1751 L 46.0125,6.6053 L 45.0703,6.6053 L 45.0703,6.6469 L 44.7750,6.6469 L 44.7750,6.1751 L 44.8313,6.1751 L 44.8313,6.6053 L 45.0703,6.6053 L 45.0703,7.5628 L 45.1688,7.5628 L 45.1688,8.0623 L 45.0703,8.0623 L 45.0703,9.1447 L 48.6703,9.1447 L 48.6703,8.0623 L 48.5719,8.0623 L 48.5719,7.5628 L 48.6703,7.5628 L 48.6703,6.6053 L 48.9094,6.6053 L 48.9094,6.1751 L 48.9656,6.1751 L 48.9656,6.6469 L 48.6703,6.6469 L 48.6703,6.6053 L 47.7281,6.6053 L 47.7281,6.1751 L 47.5031,6.1751 L 47.5031,6.0225 L 46.2375,6.0225 Z" stroke="#000000" stroke-width="0.1200" stroke-linecap="round" stroke-linejoin="round" fill="#000000"/>
        <path d="M 46.0125,6.1890 L 44.8313,6.1890 L 44.8313,6.6192 L 46.0125,6.6192 L 46.0125,6.1890 Z" stroke="#494949" stroke-width="0.1200" stroke-linecap="round" stroke-linejoin="round" fill="#000000"/>
        <path d="M 48.9094,6.1890 L 47.7281,6.1890 L 47.7281,6.6192 L 48.9094,6.6192 L 48.9094,6.1890 Z" stroke="#494949" stroke-width="0.1200" stroke-linecap="round" stroke-linejoin="round" fill="#000000"/>
        <path d="M 52.1438,6.0225 L 52.1438,6.1751 L 51.9188,6.1751 L 51.9188,6.6053 L 50.9766,6.6053 L 50.9766,6.6469 L 50.6813,6.6469 L 50.6813,6.1751 L 50.7375,6.1751 L 50.7375,6.6053 L 50.9766,6.6053 L 50.9766,7.5628 L 51.0750,7.5628 L 51.0750,8.0623 L 50.9766,8.0623 L 50.9766,9.1447 L 54.5766,9.1447 L 54.5766,8.0623 L 54.4781,8.0623 L 54.4781,7.5628 L 54.5766,7.5628 L 54.5766,6.6053 L 54.8156,6.6053 L 54.8156,6.1751 L 54.8719,6.1751 L 54.8719,6.6469 L 54.5766,6.6469 L 54.5766,6.6053 L 53.6344,6.6053 L 53.6344,6.1751 L 53.4094,6.1751 L 53.4094,6.0225 L 52.1438,6.0225 Z" stroke="#000000" stroke-width="0.1200" stroke-linecap="round" stroke-linejoin="round" fill="#000000"/>
        <path d="M 51.9188,6.1890 L 50.7375,6.1890 L 50.7375,6.6192 L 51.9188,6.6192 L 51.9188,6.1890 Z" stroke="#494949" stroke-width="0.1200" stroke-linecap="round" stroke-linejoin="round" fill="#000000"/>
        <path d="M 54.8156,6.1890 L 53.6344,6.1890 L 53.6344,6.6192 L 54.8156,6.6192 L 54.8156,6.1890 Z" stroke="#494949" stroke-width="0.1200" stroke-linecap="round" stroke-linejoin="round" fill="#000000"/>
        <path d="M 33.8929,6.2416 L 33.1325,6.2416 L 33.1325,6.5530 L 33.8929,6.5530 L 33.8929,6.2416 Z" stroke="#000000" stroke-width="0.1200" stroke-linecap="round" stroke-linejoin="round" fill="#FFFF00"/>
        <path d="M 36.8259,6.2416 L 36.0655,6.2416 L 36.0655,6.5530 L 36.8259,6.5530 L 36.8259,6.2416 Z" stroke="#000000" stroke-width="0.1200" stroke-linecap="round" stroke-linejoin="round" fill="#83FF00"/>
        <path d="M 39.7997,6.2416 L 39.0393,6.2416 L 39.0393,6.5530 L 39.7997,6.5530 L 39.7997,6.2416 Z" stroke="#000000" stroke-width="0.1200" stroke-linecap="round" stroke-linejoin="round" fill="#FFFF00"/>
        <path d="M 42.7327,6.2416 L 41.9723,6.2416 L 41.9723,6.5530 L 42.7327,6.5530 L 42.7327,6.2416 Z" stroke="#000000" stroke-width="0.1200" stroke-linecap="round" stroke-linejoin="round" fill="#83FF00"/>
        <path d="M 45.7608,6.2416 L 45.0004,6.2416 L 45.0004,6.5530 L 45.7608,6.5530 L 45.7608,6.2416 Z" stroke="#000000" stroke-width="0.1200" stroke-linecap="round" stroke-linejoin="round" fill="#FFFF00"/>
        <path d="M 48.6939,6.2416 L 47.9334,6.2416 L 47.9334,6.5530 L 48.6939,6.5530 L 48.6939,6.2416 Z" stroke="#000000" stroke-width="0.1200" stroke-linecap="round" stroke-linejoin="round" fill="#83FF00"/>
        <path d="M 51.6676,6.2416 L 50.9072,6.2416 L 50.9072,6.5530 L 51.6676,6.5530 L 51.6676,6.2416 Z" stroke="#000000" stroke-width="0.1200" stroke-linecap="round" stroke-linejoin="round" fill="#FFFF00"/>
        <path d="M 54.6007,6.2416 L 53.8402,6.2416 L 53.8402,6.5530 L 54.6007,6.5530 L 54.6007,6.2416 Z" stroke="#000000" stroke-width="0.1200" stroke-linecap="round" stroke-linejoin="round" fill="#83FF00"/>
      </g>
      <!--emf-blob end-->
    </g>
  </g>
</svg>
