<svg xmlns="http://www.w3.org/2000/svg" xmlns:xlink="http://www.w3.org/1999/xlink" version="1.1" width="3.5936000000" height="0.5120000000" viewBox="0 0 64.6866 9.2126">
  <title><![CDATA[FEX-511G]]></title>
  <g transform=" scale(4.000000) ">
    <!--converted by libvisio2svg-->
    <g transform=" translate(0.000000,0.000000) ">
      <!--emf-blob start-->
      <g transform="translate(-0.0000, -0.0000)">
        <path d="M 64.5517,0.0280 L 0.0281,0.0280 L 0.0281,9.1566 L 64.5517,9.1566 L 64.5517,0.0280 Z" stroke="#000000" stroke-width="0.1196" stroke-linecap="round" stroke-linejoin="round" fill="#E2E2E2"/>
        <path d="M 64.4113,0.1540 L 0.1685,0.1540 L 0.1685,9.0306 L 64.4113,9.0306 L 64.4113,0.1540 Z" stroke="#E2E2E2" stroke-width="0.1196" stroke-linecap="round" stroke-linejoin="round" fill="#EFEFEF"/>
        <path d="M 3.6221,6.7344 L 2.8921,6.7344 L 2.8921,6.9445 L 3.6221,6.9445 L 3.6221,6.7344 Z" stroke="#000000" stroke-width="0.1196" stroke-linecap="round" stroke-linejoin="round" fill="#00FF00"/>
        <path d="M 63.5409,1.6661 L 63.5409,1.6101 L 63.5268,1.5541 L 63.5128,1.4981 L 63.4988,1.4561 L 63.4707,1.4001 L 63.4426,1.3581 L 63.4145,1.3161 L 63.3864,1.2741 L 63.3443,1.2461 L 63.3022,1.2181 L 63.2601,1.1901 L 63.2039,1.1621 L 63.1618,1.1481 L 63.1057,1.1341 L 63.0495,1.1201 L 62.9934,1.1201 L 1.5443,1.1201 L 1.4881,1.1201 L 1.4320,1.1341 L 1.3758,1.1481 L 1.3337,1.1621 L 1.2776,1.1901 L 1.2354,1.2181 L 1.1933,1.2461 L 1.1512,1.2741 L 1.1231,1.3161 L 1.0950,1.3581 L 1.0670,1.4001 L 1.0389,1.4561 L 1.0249,1.4981 L 1.0108,1.5541 L 0.9968,1.6101 L 0.9968,1.6661 L 0.9968,7.4625 L 0.9968,7.5185 L 1.0108,7.5745 L 1.0249,7.6305 L 1.0389,7.6725 L 1.0670,7.7285 L 1.0950,7.7705 L 1.1231,7.8125 L 1.1512,7.8545 L 1.1933,7.8825 L 1.2354,7.9105 L 1.2776,7.9385 L 1.3337,7.9665 L 1.3758,7.9805 L 1.4320,7.9945 L 1.4881,8.0085 L 1.5443,8.0085 L 62.9934,8.0085 L 63.0495,8.0085 L 63.1057,7.9945 L 63.1618,7.9805 L 63.2039,7.9665 L 63.2601,7.9385 L 63.3022,7.9105 L 63.3443,7.8825 L 63.3864,7.8545 L 63.4145,7.8125 L 63.4426,7.7705 L 63.4707,7.7285 L 63.4988,7.6725 L 63.5128,7.6305 L 63.5268,7.5745 L 63.5409,7.5185 L 63.5409,7.4625 L 63.5409,1.6661 " stroke="#000000" stroke-width="0.1196" stroke-linecap="round" stroke-linejoin="round" fill="none"/>
        <path d="M 62.4599,2.3522 L 44.2371,2.3522 L 44.2371,6.1744 L 62.4599,6.1744 L 62.4599,2.3522 Z" stroke="#000000" stroke-width="0.1196" stroke-linecap="round" stroke-linejoin="round" fill="#0A0A0A"/>
        <path d="M 62.4177,2.3942 L 44.2933,2.3942 L 44.2933,6.1184 L 62.4177,6.1184 L 62.4177,2.3942 Z" stroke="#000000" stroke-width="0.1196" stroke-linecap="round" stroke-linejoin="round" fill="#F7F7F7"/>
        <path d="M 28.4151,2.3522 L 23.5716,2.3522 L 23.5716,6.1744 L 28.4151,6.1744 L 28.4151,2.3522 Z" stroke="#000000" stroke-width="0.1196" stroke-linecap="round" stroke-linejoin="round" fill="#0A0A0A"/>
        <path d="M 28.3730,2.3942 L 23.6137,2.3942 L 23.6137,6.1184 L 28.3730,6.1184 L 28.3730,2.3942 Z" stroke="#000000" stroke-width="0.1196" stroke-linecap="round" stroke-linejoin="round" fill="#F7F7F7"/>
        <path d="M 37.4282,2.3522 L 32.5847,2.3522 L 32.5847,6.1744 L 37.4282,6.1744 L 37.4282,2.3522 Z" stroke="#000000" stroke-width="0.1196" stroke-linecap="round" stroke-linejoin="round" fill="#0A0A0A"/>
        <path d="M 37.3861,2.3942 L 32.6268,2.3942 L 32.6268,6.1184 L 37.3861,6.1184 L 37.3861,2.3942 Z" stroke="#000000" stroke-width="0.1196" stroke-linecap="round" stroke-linejoin="round" fill="#F7F7F7"/>
        <path d="M 38.6636,6.1744 L 42.8192,6.1744 L 42.8192,3.2062 L 38.6636,3.2062 L 38.6636,6.1744 Z" stroke="#000000" stroke-width="0.1196" stroke-linecap="round" stroke-linejoin="round" fill="#DDDDDD"/>
        <path d="M 38.7759,6.0624 L 42.7069,6.0624 L 42.7069,3.3182 L 38.7759,3.3182 L 38.7759,6.0624 Z" stroke="#000000" stroke-width="0.1196" stroke-linecap="round" stroke-linejoin="round" fill="#333333"/>
        <path d="M 39.8569,6.0624 L 41.6259,6.0624 L 41.6259,5.8944 L 39.8569,5.8944 L 39.8569,6.0624 Z" stroke="#000000" stroke-width="0.1196" stroke-linecap="round" stroke-linejoin="round" fill="#CCCCCC"/>
        <ellipse cx="3.1939" cy="5.5794" rx="0.4282" ry="0.4270" fill="#000000" stroke="#000000" stroke-width="0.1196" stroke-linecap="round" stroke-linejoin="round"/>
        <ellipse cx="3.1939" cy="5.5794" rx="0.4282" ry="0.4270" fill="none" stroke="#000000" stroke-width="0.1196" stroke-linecap="round" stroke-linejoin="round"/>
        <path d="M 2.1901,4.9423 L 2.1761,4.9563 L 2.1620,4.9703 L 2.1480,4.9983 L 2.1339,5.0123 L 2.1199,5.0263 L 2.1059,5.0403 L 2.0918,5.0683 L 2.0778,5.0823 L 2.0637,5.0963 L 2.0497,5.1243 L 2.0357,5.1383 L 2.0216,5.1523 L 2.0076,5.1803 L 1.9935,5.1943 L 1.9935,5.2223 L 1.9795,5.2363 L 1.9655,5.2643 L 1.9655,5.2783 L 1.9514,5.3063 L 1.9374,5.3343 L 1.9374,5.3483 L 1.9234,5.3764 L 1.9234,5.4044 L 1.9234,5.4184 L 1.9093,5.4464 L 1.9093,5.4744 L 1.9093,5.4884 L 1.8953,5.5164 L 1.8953,5.5444 L 1.8953,5.5584 L 1.8953,5.5864 L 1.8953,5.6144 L 1.8953,5.6424 L 1.8953,5.6704 L 1.8953,5.6844 L 1.8953,5.7124 L 1.9093,5.7404 L 1.9093,5.7544 L 1.9093,5.7824 L 1.9234,5.8104 L 1.9234,5.8244 L 1.9234,5.8524 L 1.9374,5.8804 L 1.9374,5.8944 L 1.9514,5.9224 L 1.9655,5.9504 L 1.9655,5.9644 L 1.9795,5.9924 L 1.9935,6.0064 L 1.9935,6.0344 L 2.0076,6.0484 L 2.0216,6.0764 L 2.0357,6.0904 L 2.0497,6.1044 L 2.0637,6.1324 L 2.0778,6.1464 L 2.0918,6.1604 L 2.1059,6.1884 L 2.1199,6.2024 L 2.1339,6.2164 L 2.1480,6.2304 L 2.1620,6.2584 L 2.1761,6.2724 L 2.1901,6.2864 L 2.2041,6.2724 L 2.2182,6.2724 L 2.2182,6.2584 L 2.2322,6.2584 L 2.2322,6.2444 L 2.2463,6.2444 L 2.2463,6.2304 L 2.2603,6.2304 L 2.2603,6.2164 L 2.2743,6.2164 L 2.2884,6.2024 L 2.2743,6.1884 L 2.2603,6.1744 L 2.2463,6.1604 L 2.2322,6.1324 L 2.2182,6.1184 L 2.2041,6.1044 L 2.1901,6.0904 L 2.1761,6.0764 L 2.1620,6.0624 L 2.1480,6.0344 L 2.1339,6.0204 L 2.1339,6.0064 L 2.1199,5.9924 L 2.1059,5.9644 L 2.1059,5.9504 L 2.0918,5.9364 L 2.0778,5.9224 L 2.0778,5.8944 L 2.0637,5.8804 L 2.0637,5.8664 L 2.0497,5.8384 L 2.0497,5.8244 L 2.0497,5.7964 L 2.0357,5.7824 L 2.0357,5.7684 L 2.0357,5.7404 L 2.0357,5.7264 L 2.0216,5.6984 L 2.0216,5.6844 L 2.0216,5.6564 L 2.0216,5.6424 L 2.0216,5.6144 L 2.0216,5.5864 L 2.0216,5.5724 L 2.0216,5.5444 L 2.0216,5.5304 L 2.0357,5.5024 L 2.0357,5.4884 L 2.0357,5.4604 L 2.0357,5.4464 L 2.0497,5.4184 L 2.0497,5.4044 L 2.0637,5.3764 L 2.0637,5.3623 L 2.0778,5.3343 L 2.0778,5.3203 L 2.0918,5.3063 L 2.0918,5.2783 L 2.1059,5.2643 L 2.1199,5.2503 L 2.1199,5.2223 L 2.1339,5.2083 L 2.1480,5.1943 L 2.1620,5.1663 L 2.1761,5.1523 L 2.1761,5.1383 L 2.1901,5.1243 L 2.2041,5.1103 L 2.2182,5.0823 L 2.2322,5.0683 L 2.2463,5.0543 L 2.2603,5.0403 L 2.2743,5.0263 L 2.2884,5.0123 L 2.2743,5.0123 L 2.2743,4.9983 L 2.2603,4.9983 L 2.2603,4.9843 L 2.2463,4.9843 L 2.2322,4.9703 L 2.2182,4.9703 L 2.2182,4.9563 L 2.2041,4.9563 L 2.2041,4.9423 L 2.1901,4.9423 Z" stroke="#000000" stroke-width="0.1196" stroke-linecap="round" stroke-linejoin="round" fill="#000000"/>
        <path d="M 2.5972,5.3343 L 2.5832,5.3483 L 2.5692,5.3623 L 2.5551,5.3764 L 2.5551,5.3904 L 2.5411,5.3904 L 2.5411,5.4044 L 2.5270,5.4184 L 2.5270,5.4324 L 2.5130,5.4464 L 2.5130,5.4604 L 2.5130,5.4744 L 2.4990,5.4884 L 2.4990,5.5024 L 2.4990,5.5164 L 2.4990,5.5304 L 2.4849,5.5444 L 2.4849,5.5584 L 2.4849,5.5724 L 2.4849,5.5864 L 2.4849,5.6004 L 2.4849,5.6144 L 2.4849,5.6284 L 2.4849,5.6424 L 2.4849,5.6564 L 2.4849,5.6704 L 2.4849,5.6844 L 2.4990,5.6844 L 2.4990,5.6984 L 2.4990,5.7124 L 2.4990,5.7264 L 2.4990,5.7404 L 2.5130,5.7404 L 2.5130,5.7544 L 2.5130,5.7684 L 2.5270,5.7824 L 2.5270,5.7964 L 2.5411,5.8104 L 2.5411,5.8244 L 2.5551,5.8384 L 2.5551,5.8524 L 2.5692,5.8524 L 2.5692,5.8664 L 2.5832,5.8804 L 2.5972,5.8944 L 2.5832,5.8944 L 2.5832,5.9084 L 2.5692,5.9084 L 2.5692,5.9224 L 2.5551,5.9224 L 2.5551,5.9364 L 2.5411,5.9364 L 2.5411,5.9504 L 2.5270,5.9504 L 2.5270,5.9644 L 2.5130,5.9644 L 2.4990,5.9504 L 2.4849,5.9364 L 2.4849,5.9224 L 2.4709,5.9224 L 2.4568,5.9084 L 2.4568,5.8944 L 2.4428,5.8944 L 2.4428,5.8804 L 2.4428,5.8664 L 2.4288,5.8524 L 2.4147,5.8384 L 2.4147,5.8244 L 2.4147,5.8104 L 2.4007,5.8104 L 2.4007,5.7964 L 2.4007,5.7824 L 2.4007,5.7684 L 2.3866,5.7544 L 2.3866,5.7404 L 2.3866,5.7264 L 2.3866,5.7124 L 2.3726,5.6984 L 2.3726,5.6844 L 2.3726,5.6704 L 2.3726,5.6564 L 2.3726,5.6424 L 2.3726,5.6284 L 2.3726,5.6144 L 2.3726,5.6004 L 2.3726,5.5864 L 2.3726,5.5724 L 2.3726,5.5584 L 2.3726,5.5444 L 2.3726,5.5304 L 2.3726,5.5164 L 2.3866,5.5164 L 2.3866,5.5024 L 2.3866,5.4884 L 2.3866,5.4744 L 2.3866,5.4604 L 2.4007,5.4464 L 2.4007,5.4324 L 2.4007,5.4184 L 2.4147,5.4184 L 2.4147,5.4044 L 2.4147,5.3904 L 2.4288,5.3764 L 2.4288,5.3623 L 2.4288,5.3483 L 2.4428,5.3483 L 2.4428,5.3343 L 2.4568,5.3203 L 2.4568,5.3063 L 2.4709,5.3063 L 2.4849,5.2923 L 2.4849,5.2783 L 2.4990,5.2783 L 2.5130,5.2643 L 2.5270,5.2503 L 2.5270,5.2643 L 2.5411,5.2643 L 2.5411,5.2783 L 2.5551,5.2783 L 2.5551,5.2923 L 2.5692,5.2923 L 2.5692,5.3063 L 2.5832,5.3063 L 2.5832,5.3203 L 2.5972,5.3203 L 2.5972,5.3343 Z" stroke="#000000" stroke-width="0.1196" stroke-linecap="round" stroke-linejoin="round" fill="#000000"/>
        <path d="M 2.3586,5.0823 L 2.3445,5.0963 L 2.3305,5.1103 L 2.3164,5.1243 L 2.3024,5.1383 L 2.3024,5.1523 L 2.2884,5.1663 L 2.2743,5.1803 L 2.2603,5.1943 L 2.2603,5.2083 L 2.2463,5.2223 L 2.2322,5.2363 L 2.2322,5.2503 L 2.2182,5.2643 L 2.2041,5.2783 L 2.2041,5.3063 L 2.1901,5.3203 L 2.1901,5.3343 L 2.1761,5.3483 L 2.1761,5.3623 L 2.1620,5.3904 L 2.1620,5.4044 L 2.1620,5.4184 L 2.1480,5.4324 L 2.1480,5.4604 L 2.1480,5.4744 L 2.1480,5.4884 L 2.1339,5.5164 L 2.1339,5.5304 L 2.1339,5.5584 L 2.1339,5.5724 L 2.1339,5.6004 L 2.1339,5.6144 L 2.1339,5.6284 L 2.1339,5.6564 L 2.1339,5.6704 L 2.1339,5.6844 L 2.1339,5.6984 L 2.1480,5.7264 L 2.1480,5.7404 L 2.1480,5.7544 L 2.1480,5.7684 L 2.1620,5.7964 L 2.1620,5.8104 L 2.1620,5.8244 L 2.1761,5.8384 L 2.1761,5.8524 L 2.1901,5.8664 L 2.1901,5.8944 L 2.2041,5.9084 L 2.2041,5.9224 L 2.2182,5.9364 L 2.2322,5.9504 L 2.2322,5.9644 L 2.2463,5.9784 L 2.2603,5.9924 L 2.2603,6.0064 L 2.2743,6.0204 L 2.2884,6.0344 L 2.3024,6.0484 L 2.3024,6.0624 L 2.3164,6.0764 L 2.3305,6.0904 L 2.3445,6.1044 L 2.3586,6.1184 L 2.3726,6.1044 L 2.3726,6.0904 L 2.3866,6.0904 L 2.3866,6.0764 L 2.4007,6.0764 L 2.4007,6.0624 L 2.4147,6.0624 L 2.4147,6.0484 L 2.4288,6.0484 L 2.4288,6.0344 L 2.4428,6.0204 L 2.4288,6.0064 L 2.4147,5.9924 L 2.4007,5.9784 L 2.3866,5.9784 L 2.3866,5.9644 L 2.3726,5.9504 L 2.3726,5.9364 L 2.3586,5.9224 L 2.3445,5.9224 L 2.3445,5.9084 L 2.3305,5.8944 L 2.3305,5.8804 L 2.3164,5.8664 L 2.3164,5.8524 L 2.3164,5.8384 L 2.3024,5.8244 L 2.2884,5.8104 L 2.2884,5.7964 L 2.2884,5.7824 L 2.2743,5.7684 L 2.2743,5.7544 L 2.2743,5.7404 L 2.2743,5.7264 L 2.2743,5.7124 L 2.2603,5.6844 L 2.2603,5.6704 L 2.2603,5.6564 L 2.2603,5.6424 L 2.2603,5.6284 L 2.2603,5.6144 L 2.2603,5.6004 L 2.2603,5.5724 L 2.2603,5.5584 L 2.2603,5.5444 L 2.2603,5.5304 L 2.2743,5.5164 L 2.2743,5.4884 L 2.2743,5.4744 L 2.2743,5.4604 L 2.2743,5.4464 L 2.2884,5.4324 L 2.2884,5.4184 L 2.2884,5.4044 L 2.3024,5.3904 L 2.3024,5.3764 L 2.3164,5.3623 L 2.3164,5.3483 L 2.3305,5.3343 L 2.3305,5.3203 L 2.3445,5.3063 L 2.3445,5.2923 L 2.3586,5.2783 L 2.3726,5.2783 L 2.3726,5.2643 L 2.3866,5.2503 L 2.3866,5.2363 L 2.4007,5.2363 L 2.4147,5.2223 L 2.4288,5.2083 L 2.4428,5.1943 L 2.4428,5.1803 L 2.4288,5.1803 L 2.4288,5.1663 L 2.4147,5.1663 L 2.4147,5.1523 L 2.4007,5.1383 L 2.3866,5.1243 L 2.3866,5.1103 L 2.3726,5.1103 L 2.3726,5.0963 L 2.3586,5.0963 L 2.3586,5.0823 Z" stroke="#000000" stroke-width="0.1196" stroke-linecap="round" stroke-linejoin="round" fill="#000000"/>
        <path d="M 4.3381,4.9423 L 4.3521,4.9563 L 4.3662,4.9703 L 4.3802,4.9983 L 4.3942,5.0123 L 4.4083,5.0263 L 4.4223,5.0403 L 4.4363,5.0683 L 4.4504,5.0823 L 4.4644,5.0963 L 4.4785,5.1243 L 4.4925,5.1383 L 4.5065,5.1523 L 4.5065,5.1803 L 4.5206,5.1943 L 4.5346,5.2223 L 4.5487,5.2363 L 4.5487,5.2643 L 4.5627,5.2783 L 4.5627,5.3063 L 4.5767,5.3343 L 4.5767,5.3483 L 4.5908,5.3764 L 4.5908,5.4044 L 4.6048,5.4184 L 4.6048,5.4464 L 4.6048,5.4744 L 4.6048,5.4884 L 4.6189,5.5164 L 4.6189,5.5444 L 4.6189,5.5584 L 4.6189,5.5864 L 4.6189,5.6144 L 4.6189,5.6424 L 4.6189,5.6704 L 4.6189,5.6844 L 4.6189,5.7124 L 4.6048,5.7404 L 4.6048,5.7544 L 4.6048,5.7824 L 4.6048,5.8104 L 4.5908,5.8244 L 4.5908,5.8524 L 4.5767,5.8804 L 4.5767,5.8944 L 4.5627,5.9224 L 4.5627,5.9504 L 4.5487,5.9644 L 4.5487,5.9924 L 4.5346,6.0064 L 4.5206,6.0344 L 4.5065,6.0484 L 4.5065,6.0764 L 4.4925,6.0904 L 4.4785,6.1044 L 4.4644,6.1324 L 4.4504,6.1464 L 4.4363,6.1604 L 4.4223,6.1884 L 4.4083,6.2024 L 4.3942,6.2164 L 4.3802,6.2304 L 4.3662,6.2584 L 4.3521,6.2724 L 4.3381,6.2864 L 4.3240,6.2724 L 4.3100,6.2724 L 4.3100,6.2584 L 4.2960,6.2584 L 4.2960,6.2444 L 4.2819,6.2444 L 4.2819,6.2304 L 4.2679,6.2304 L 4.2679,6.2164 L 4.2538,6.2164 L 4.2398,6.2024 L 4.2538,6.1884 L 4.2679,6.1744 L 4.2819,6.1604 L 4.2960,6.1324 L 4.3100,6.1184 L 4.3240,6.1044 L 4.3381,6.0904 L 4.3521,6.0764 L 4.3662,6.0624 L 4.3662,6.0344 L 4.3802,6.0204 L 4.3942,6.0064 L 4.4083,5.9924 L 4.4083,5.9644 L 4.4223,5.9504 L 4.4363,5.9364 L 4.4363,5.9224 L 4.4504,5.8944 L 4.4504,5.8804 L 4.4504,5.8664 L 4.4644,5.8384 L 4.4644,5.8244 L 4.4785,5.7964 L 4.4785,5.7824 L 4.4785,5.7684 L 4.4785,5.7404 L 4.4925,5.7264 L 4.4925,5.6984 L 4.4925,5.6844 L 4.4925,5.6564 L 4.4925,5.6424 L 4.4925,5.6144 L 4.4925,5.5864 L 4.4925,5.5724 L 4.4925,5.5444 L 4.4925,5.5304 L 4.4785,5.5024 L 4.4785,5.4884 L 4.4785,5.4604 L 4.4785,5.4464 L 4.4644,5.4184 L 4.4644,5.4044 L 4.4644,5.3764 L 4.4504,5.3623 L 4.4504,5.3343 L 4.4363,5.3203 L 4.4363,5.3063 L 4.4223,5.2783 L 4.4083,5.2643 L 4.4083,5.2503 L 4.3942,5.2223 L 4.3802,5.2083 L 4.3802,5.1943 L 4.3662,5.1663 L 4.3521,5.1523 L 4.3381,5.1383 L 4.3240,5.1243 L 4.3100,5.1103 L 4.2960,5.0823 L 4.2819,5.0683 L 4.2679,5.0543 L 4.2538,5.0403 L 4.2398,5.0263 L 4.2258,5.0123 L 4.2398,5.0123 L 4.2398,4.9983 L 4.2538,4.9983 L 4.2679,4.9843 L 4.2819,4.9843 L 4.2819,4.9703 L 4.2960,4.9703 L 4.3100,4.9563 L 4.3240,4.9563 L 4.3240,4.9423 L 4.3381,4.9423 Z" stroke="#000000" stroke-width="0.1196" stroke-linecap="round" stroke-linejoin="round" fill="#000000"/>
        <ellipse cx="14.2075" cy="5.4114" rx="0.2527" ry="0.2450" fill="#0A0A0A" stroke="#000000" stroke-width="0.1196" stroke-linecap="round" stroke-linejoin="round"/>
        <ellipse cx="14.2075" cy="5.4114" rx="0.2527" ry="0.2450" fill="none" stroke="#000000" stroke-width="0.1196" stroke-linecap="round" stroke-linejoin="round"/>
        <ellipse cx="14.2005" cy="5.4184" rx="0.2036" ry="0.2100" fill="#333333" stroke="#000000" stroke-width="0.1196" stroke-linecap="round" stroke-linejoin="round"/>
        <ellipse cx="14.2005" cy="5.4184" rx="0.2036" ry="0.2100" fill="none" stroke="#000000" stroke-width="0.1196" stroke-linecap="round" stroke-linejoin="round"/>
        <ellipse cx="16.5942" cy="3.8362" rx="0.1544" ry="0.1540" fill="#00FF00" stroke="#000000" stroke-width="0.1196" stroke-linecap="round" stroke-linejoin="round"/>
        <ellipse cx="16.5942" cy="3.8362" rx="0.1544" ry="0.1540" fill="none" stroke="#000000" stroke-width="0.1196" stroke-linecap="round" stroke-linejoin="round"/>
        <ellipse cx="18.0472" cy="3.8362" rx="0.1474" ry="0.1540" fill="#00FF00" stroke="#000000" stroke-width="0.1196" stroke-linecap="round" stroke-linejoin="round"/>
        <ellipse cx="18.0472" cy="3.8362" rx="0.1474" ry="0.1540" fill="none" stroke="#000000" stroke-width="0.1196" stroke-linecap="round" stroke-linejoin="round"/>
        <ellipse cx="19.5213" cy="3.8362" rx="0.1474" ry="0.1540" fill="#00FF00" stroke="#000000" stroke-width="0.1196" stroke-linecap="round" stroke-linejoin="round"/>
        <ellipse cx="19.5213" cy="3.8362" rx="0.1474" ry="0.1540" fill="none" stroke="#000000" stroke-width="0.1196" stroke-linecap="round" stroke-linejoin="round"/>
        <ellipse cx="20.9954" cy="3.8362" rx="0.1474" ry="0.1540" fill="#00FF00" stroke="#000000" stroke-width="0.1196" stroke-linecap="round" stroke-linejoin="round"/>
        <ellipse cx="20.9954" cy="3.8362" rx="0.1474" ry="0.1540" fill="none" stroke="#000000" stroke-width="0.1196" stroke-linecap="round" stroke-linejoin="round"/>
        <ellipse cx="16.5942" cy="5.3483" rx="0.1544" ry="0.1540" fill="#00FF00" stroke="#000000" stroke-width="0.1196" stroke-linecap="round" stroke-linejoin="round"/>
        <ellipse cx="16.5942" cy="5.3483" rx="0.1544" ry="0.1540" fill="none" stroke="#000000" stroke-width="0.1196" stroke-linecap="round" stroke-linejoin="round"/>
        <ellipse cx="19.5213" cy="5.3483" rx="0.1474" ry="0.1540" fill="#00FF00" stroke="#000000" stroke-width="0.1196" stroke-linecap="round" stroke-linejoin="round"/>
        <ellipse cx="19.5213" cy="5.3483" rx="0.1474" ry="0.1540" fill="none" stroke="#000000" stroke-width="0.1196" stroke-linecap="round" stroke-linejoin="round"/>
        <ellipse cx="20.9954" cy="5.3483" rx="0.1474" ry="0.1540" fill="#00FF00" stroke="#000000" stroke-width="0.1196" stroke-linecap="round" stroke-linejoin="round"/>
        <ellipse cx="20.9954" cy="5.3483" rx="0.1474" ry="0.1540" fill="none" stroke="#000000" stroke-width="0.1196" stroke-linecap="round" stroke-linejoin="round"/>
        <path d="M 35.3644,6.7064 L 34.6344,6.7064 L 34.6344,6.9165 L 35.3644,6.9165 L 35.3644,6.7064 Z" stroke="#000000" stroke-width="0.1196" stroke-linecap="round" stroke-linejoin="round" fill="#00FF00"/>
        <path d="M 41.1064,6.7064 L 40.3764,6.7064 L 40.3764,6.9165 L 41.1064,6.9165 L 41.1064,6.7064 Z" stroke="#000000" stroke-width="0.1196" stroke-linecap="round" stroke-linejoin="round" fill="#00FF00"/>
        <path d="M 46.8063,6.7064 L 46.0763,6.7064 L 46.0763,6.9165 L 46.8063,6.9165 L 46.8063,6.7064 Z" stroke="#000000" stroke-width="0.1196" stroke-linecap="round" stroke-linejoin="round" fill="#00FF00"/>
        <path d="M 51.3409,6.7064 L 50.6109,6.7064 L 50.6109,6.9165 L 51.3409,6.9165 L 51.3409,6.7064 Z" stroke="#000000" stroke-width="0.1196" stroke-linecap="round" stroke-linejoin="round" fill="#00FF00"/>
        <path d="M 55.8896,6.7064 L 55.1595,6.7064 L 55.1595,6.9165 L 55.8896,6.9165 L 55.8896,6.7064 Z" stroke="#000000" stroke-width="0.1196" stroke-linecap="round" stroke-linejoin="round" fill="#00FF00"/>
        <path d="M 60.4242,6.7064 L 59.6942,6.7064 L 59.6942,6.9165 L 60.4242,6.9165 L 60.4242,6.7064 Z" stroke="#000000" stroke-width="0.1196" stroke-linecap="round" stroke-linejoin="round" fill="#00FF00"/>
        <path d="M 20.8621,3.0802 L 20.7498,3.1502 L 20.8902,3.2062 L 20.8902,3.3462 L 21.0025,3.2622 L 21.0165,3.2622 L 21.1148,3.3462 L 21.1148,3.2062 L 21.1148,3.2062 L 21.2552,3.1642 L 21.1569,3.0802 L 21.1569,3.0802 L 21.1990,2.9542 L 21.0586,2.9822 L 21.0586,2.9962 L 21.0165,2.8702 L 20.9463,2.9962 L 20.9603,2.9822 L 20.8340,2.9542 L 20.8621,3.0802 L 20.8621,3.0802 Z" stroke="#000000" stroke-width="0.1196" stroke-linecap="round" stroke-linejoin="round" fill="#000000"/>
        <ellipse cx="20.9463" cy="3.0662" rx="0.0421" ry="0.0420" fill="#EFEFEF" stroke="#000000" stroke-width="0.1196" stroke-linecap="round" stroke-linejoin="round"/>
        <ellipse cx="20.9463" cy="3.0662" rx="0.0421" ry="0.0420" fill="none" stroke="#EFEFEF" stroke-width="0.1196" stroke-linecap="round" stroke-linejoin="round"/>
        <path d="M 21.1990,3.2762 L 21.1429,3.3322 L 21.1990,3.3462 L 21.2130,3.4162 L 21.2552,3.3602 L 21.2552,3.3602 L 21.2973,3.4162 L 21.3113,3.3462 L 21.2973,3.3462 L 21.3675,3.3322 L 21.3113,3.2902 L 21.3113,3.2902 L 21.3534,3.2482 L 21.2832,3.2482 L 21.2832,3.2482 L 21.2552,3.1922 L 21.2271,3.2482 L 21.2271,3.2482 L 21.1709,3.2482 L 21.1990,3.2902 L 21.1990,3.2762 Z" stroke="#000000" stroke-width="0.1196" stroke-linecap="round" stroke-linejoin="round" fill="#000000"/>
        <path d="M 16.7627,2.9822 L 16.7767,2.9822 L 16.7767,2.9962 L 16.7907,2.9962 L 16.7907,3.0102 L 16.8048,3.0102 L 16.8048,3.0242 L 16.8188,3.0242 L 16.8188,3.0382 L 16.8329,3.0382 L 16.8329,3.0522 L 16.8329,3.0662 L 16.8469,3.0662 L 16.8469,3.0802 L 16.8469,3.0942 L 16.8469,3.1082 L 16.8609,3.1082 L 16.8609,3.1222 L 16.8609,3.1362 L 16.8609,3.1502 L 16.8609,3.1642 L 16.8609,3.1782 L 16.8609,3.1922 L 16.8609,3.2062 L 16.8609,3.2202 L 16.8469,3.2342 L 16.8469,3.2482 L 16.8469,3.2622 L 16.8329,3.2622 L 16.8329,3.2762 L 16.8329,3.2902 L 16.8188,3.2902 L 16.8188,3.3042 L 16.8048,3.3042 L 16.8048,3.3182 L 16.7907,3.3182 L 16.7907,3.3322 L 16.7767,3.3322 L 16.7767,3.3462 L 16.7627,3.3462 L 16.7486,3.3462 L 16.7486,3.3602 L 16.7346,3.3602 L 16.7205,3.3602 L 16.7065,3.3742 L 16.6925,3.3742 L 16.6784,3.3742 L 16.6644,3.3742 L 16.6503,3.3742 L 16.6363,3.3742 L 16.6223,3.3742 L 16.6082,3.3742 L 16.5942,3.3742 L 16.5802,3.3602 L 16.5661,3.3602 L 16.5521,3.3602 L 16.5521,3.3462 L 16.5380,3.3462 L 16.5240,3.3462 L 16.5240,3.3322 L 16.5100,3.3322 L 16.5100,3.3182 L 16.4959,3.3182 L 16.4959,3.3042 L 16.4819,3.3042 L 16.4819,3.2902 L 16.4678,3.2902 L 16.4678,3.2762 L 16.4678,3.2622 L 16.4538,3.2622 L 16.4538,3.2482 L 16.4538,3.2342 L 16.4398,3.2202 L 16.4398,3.2062 L 16.4398,3.1922 L 16.4398,3.1782 L 16.4398,3.1642 L 16.4398,3.1502 L 16.4398,3.1362 L 16.4398,3.1222 L 16.4398,3.1082 L 16.4538,3.1082 L 16.4538,3.0942 L 16.4538,3.0802 L 16.4538,3.0662 L 16.4678,3.0662 L 16.4678,3.0522 L 16.4819,3.0382 L 16.4819,3.0242 L 16.4959,3.0242 L 16.4959,3.0102 L 16.5100,3.0102 L 16.5100,2.9962 L 16.5240,2.9962 L 16.5380,3.0102 L 16.5521,3.0242 L 16.5380,3.0242 L 16.5380,3.0382 L 16.5240,3.0382 L 16.5240,3.0522 L 16.5240,3.0662 L 16.5100,3.0662 L 16.5100,3.0802 L 16.4959,3.0942 L 16.4959,3.1082 L 16.4959,3.1222 L 16.4819,3.1222 L 16.4819,3.1362 L 16.4819,3.1502 L 16.4819,3.1642 L 16.4819,3.1782 L 16.4819,3.1922 L 16.4819,3.2062 L 16.4959,3.2202 L 16.4959,3.2342 L 16.4959,3.2482 L 16.5100,3.2482 L 16.5100,3.2622 L 16.5240,3.2762 L 16.5240,3.2902 L 16.5380,3.2902 L 16.5521,3.3042 L 16.5661,3.3042 L 16.5661,3.3182 L 16.5802,3.3182 L 16.5942,3.3182 L 16.6082,3.3322 L 16.6223,3.3322 L 16.6363,3.3322 L 16.6503,3.3322 L 16.6644,3.3322 L 16.6784,3.3322 L 16.6925,3.3322 L 16.7065,3.3182 L 16.7205,3.3182 L 16.7346,3.3182 L 16.7346,3.3042 L 16.7486,3.3042 L 16.7627,3.2902 L 16.7767,3.2902 L 16.7767,3.2762 L 16.7907,3.2622 L 16.7907,3.2482 L 16.8048,3.2482 L 16.8048,3.2342 L 16.8048,3.2202 L 16.8188,3.2062 L 16.8188,3.1922 L 16.8188,3.1782 L 16.8188,3.1642 L 16.8188,3.1502 L 16.8188,3.1362 L 16.8188,3.1222 L 16.8188,3.1082 L 16.8048,3.1082 L 16.8048,3.0942 L 16.8048,3.0802 L 16.7907,3.0802 L 16.7907,3.0662 L 16.7767,3.0522 L 16.7627,3.0382 L 16.7486,3.0382 L 16.7486,3.0242 L 16.7346,3.0242 L 16.7346,3.0102 L 16.7486,3.0102 L 16.7486,2.9962 L 16.7627,2.9962 L 16.7627,2.9822 Z" stroke="#000000" stroke-width="0.1196" stroke-linecap="round" stroke-linejoin="round" fill="#000000"/>
        <path d="M 16.6784,2.8982 L 16.6363,2.8982 L 16.6363,3.1922 L 16.6784,3.1922 L 16.6784,2.8982 Z" stroke="#000000" stroke-width="0.1196" stroke-linecap="round" stroke-linejoin="round" fill="#000000"/>
        <path d="M 17.9841,3.4022 L 18.0964,3.0942 L 18.1385,3.0942 L 18.2368,3.4022 L 17.9841,3.4022 Z" stroke="#000000" stroke-width="0.1196" stroke-linecap="round" stroke-linejoin="round" fill="#000000"/>
        <path d="M 17.9139,3.1782 L 17.8998,3.1782 L 17.8998,3.1642 L 17.8858,3.1642 L 17.8858,3.1502 L 17.8717,3.1362 L 17.8717,3.1222 L 17.8577,3.1222 L 17.8577,3.1082 L 17.8577,3.0942 L 17.8437,3.0802 L 17.8437,3.0662 L 17.8437,3.0522 L 17.8437,3.0382 L 17.8437,3.0242 L 17.8437,3.0102 L 17.8437,2.9962 L 17.8437,2.9822 L 17.8577,2.9822 L 17.8577,2.9682 L 17.8577,2.9542 L 17.8717,2.9542 L 17.8717,2.9402 L 17.8858,2.9262 L 17.8858,2.9122 L 17.8998,2.9122 L 17.9139,2.9122 L 17.9139,2.8982 L 17.9279,2.8982 " stroke="#000000" stroke-width="0.1196" stroke-linecap="round" stroke-linejoin="round" fill="none"/>
        <path d="M 17.9700,3.1362 L 17.9560,3.1222 L 17.9560,3.1082 L 17.9419,3.1082 L 17.9419,3.0942 L 17.9279,3.0942 L 17.9279,3.0802 L 17.9279,3.0662 L 17.9279,3.0522 L 17.9279,3.0382 L 17.9279,3.0242 L 17.9279,3.0102 L 17.9279,2.9962 L 17.9279,2.9822 L 17.9419,2.9822 L 17.9419,2.9682 L 17.9560,2.9542 L 17.9700,2.9542 L 17.9700,2.9402 L 17.9841,2.9402 " stroke="#000000" stroke-width="0.1196" stroke-linecap="round" stroke-linejoin="round" fill="none"/>
        <path d="M 18.0262,3.0942 L 18.0121,3.0942 L 18.0121,3.0802 L 17.9981,3.0802 L 17.9981,3.0662 L 17.9981,3.0522 L 17.9981,3.0382 L 17.9981,3.0242 L 17.9981,3.0102 L 17.9981,2.9962 L 18.0121,2.9962 L 18.0121,2.9822 L 18.0262,2.9822 " stroke="#000000" stroke-width="0.1196" stroke-linecap="round" stroke-linejoin="round" fill="none"/>
        <path d="M 18.3210,3.1782 L 18.3350,3.1782 L 18.3350,3.1642 L 18.3491,3.1642 L 18.3491,3.1502 L 18.3631,3.1362 L 18.3631,3.1222 L 18.3772,3.1222 L 18.3772,3.1082 L 18.3772,3.0942 L 18.3912,3.0802 L 18.3912,3.0662 L 18.3912,3.0522 L 18.3912,3.0382 L 18.3912,3.0242 L 18.3912,3.0102 L 18.3912,2.9962 L 18.3912,2.9822 L 18.3772,2.9822 L 18.3772,2.9682 L 18.3772,2.9542 L 18.3631,2.9542 L 18.3631,2.9402 L 18.3491,2.9262 L 18.3491,2.9122 L 18.3350,2.9122 L 18.3210,2.9122 L 18.3210,2.8982 L 18.3070,2.8982 " stroke="#000000" stroke-width="0.1196" stroke-linecap="round" stroke-linejoin="round" fill="none"/>
        <path d="M 18.2648,3.1362 L 18.2789,3.1222 L 18.2789,3.1082 L 18.2929,3.1082 L 18.2929,3.0942 L 18.3070,3.0942 L 18.3070,3.0802 L 18.3070,3.0662 L 18.3070,3.0522 L 18.3070,3.0382 L 18.3070,3.0242 L 18.3070,3.0102 L 18.3070,2.9962 L 18.3070,2.9822 L 18.2929,2.9822 L 18.2929,2.9682 L 18.2789,2.9542 L 18.2648,2.9542 L 18.2648,2.9402 L 18.2508,2.9402 " stroke="#000000" stroke-width="0.1196" stroke-linecap="round" stroke-linejoin="round" fill="none"/>
        <path d="M 18.2087,3.0942 L 18.2227,3.0942 L 18.2227,3.0802 L 18.2368,3.0802 L 18.2368,3.0662 L 18.2368,3.0522 L 18.2368,3.0382 L 18.2368,3.0242 L 18.2368,3.0102 L 18.2368,2.9962 L 18.2227,2.9962 L 18.2227,2.9822 L 18.2087,2.9822 " stroke="#000000" stroke-width="0.1196" stroke-linecap="round" stroke-linejoin="round" fill="none"/>
        <path d="M 21.2692,5.8804 L 21.3254,5.8804 L 21.3254,6.3564 L 21.2692,6.3564 L 21.2692,5.8804 Z" stroke="#000000" stroke-width="0.1196" stroke-linecap="round" stroke-linejoin="round" fill="#000000"/>
        <path d="M 21.1148,5.9924 L 21.1709,5.9924 L 21.1709,6.3564 L 21.1148,6.3564 L 21.1148,5.9924 Z" stroke="#000000" stroke-width="0.1196" stroke-linecap="round" stroke-linejoin="round" fill="#000000"/>
        <path d="M 20.9603,6.1324 L 21.0165,6.1324 L 21.0165,6.3564 L 20.9603,6.3564 L 20.9603,6.1324 Z" stroke="#000000" stroke-width="0.1196" stroke-linecap="round" stroke-linejoin="round" fill="#000000"/>
        <path d="M 20.8059,6.2724 L 20.8621,6.2724 L 20.8621,6.3564 L 20.8059,6.3564 L 20.8059,6.2724 Z" stroke="#000000" stroke-width="0.1196" stroke-linecap="round" stroke-linejoin="round" fill="#000000"/>
        <path d="M 19.7109,5.9924 L 19.7670,5.9924 L 19.7670,6.3564 L 19.7109,6.3564 L 19.7109,5.9924 Z" stroke="#000000" stroke-width="0.1196" stroke-linecap="round" stroke-linejoin="round" fill="#000000"/>
        <path d="M 19.5564,6.1324 L 19.6126,6.1324 L 19.6126,6.3564 L 19.5564,6.3564 L 19.5564,6.1324 Z" stroke="#000000" stroke-width="0.1196" stroke-linecap="round" stroke-linejoin="round" fill="#000000"/>
        <path d="M 19.4020,6.2724 L 19.4582,6.2724 L 19.4582,6.3564 L 19.4020,6.3564 L 19.4020,6.2724 Z" stroke="#000000" stroke-width="0.1196" stroke-linecap="round" stroke-linejoin="round" fill="#000000"/>
        <path d="M 18.1806,6.1324 L 18.2368,6.1324 L 18.2368,6.3564 L 18.1806,6.3564 L 18.1806,6.1324 Z" stroke="#000000" stroke-width="0.1196" stroke-linecap="round" stroke-linejoin="round" fill="#000000"/>
        <path d="M 18.0262,6.2724 L 18.0823,6.2724 L 18.0823,6.3564 L 18.0262,6.3564 L 18.0262,6.2724 Z" stroke="#000000" stroke-width="0.1196" stroke-linecap="round" stroke-linejoin="round" fill="#000000"/>
        <ellipse cx="18.0683" cy="5.3483" rx="0.1544" ry="0.1540" fill="#00FF00" stroke="#000000" stroke-width="0.1196" stroke-linecap="round" stroke-linejoin="round"/>
        <ellipse cx="18.0683" cy="5.3483" rx="0.1544" ry="0.1540" fill="none" stroke="#000000" stroke-width="0.1196" stroke-linecap="round" stroke-linejoin="round"/>
        <path d="M 16.6223,6.1324 L 16.6784,6.1324 L 16.6784,6.3564 L 16.6223,6.3564 L 16.6223,6.1324 Z" stroke="#000000" stroke-width="0.1196" stroke-linecap="round" stroke-linejoin="round" fill="#000000"/>
        <path d="M 19.7670,3.2062 L 19.5284,3.2062 L 19.5284,3.2622 L 19.7670,3.2622 L 19.7670,3.2062 Z" stroke="#7F7F7F" stroke-width="0.1196" stroke-linecap="round" stroke-linejoin="round" fill="#7F7F7F"/>
        <path d="M 19.4441,3.2482 L 19.4301,3.2482 L 19.4160,3.2482 L 19.4020,3.2482 L 19.3880,3.2482 L 19.3880,3.2342 L 19.3739,3.2342 L 19.3599,3.2342 L 19.3459,3.2342 L 19.3318,3.2202 L 19.3178,3.2202 L 19.3037,3.2062 L 19.2897,3.2062 L 19.2757,3.1922 L 19.2616,3.1782 L 19.2616,3.1642 L 19.2476,3.1502 L 19.2476,3.1362 L 19.2616,3.1222 L 19.2616,3.1082 L 19.2757,3.0942 L 19.2897,3.0802 L 19.2897,3.0662 L 19.3037,3.0662 L 19.3037,3.0522 L 19.3178,3.0522 L 19.3178,3.0382 L 19.3318,3.0382 L 19.3459,3.0382 L 19.3459,3.0242 L 19.3599,3.0242 L 19.3599,3.0102 L 19.3459,3.0102 L 19.3459,2.9962 L 19.3459,2.9822 L 19.3459,2.9682 L 19.3459,2.9542 L 19.3599,2.9402 L 19.3599,2.9262 L 19.3739,2.9262 L 19.3739,2.9122 L 19.3880,2.9122 L 19.4020,2.9122 L 19.4160,2.9122 L 19.4301,2.9122 L 19.4441,2.9122 L 19.4582,2.9122 L 19.4722,2.9262 L 19.4862,2.9262 L 19.5003,2.9122 L 19.5003,2.8982 L 19.5143,2.8982 L 19.5284,2.8842 L 19.5424,2.8702 L 19.5564,2.8702 L 19.5705,2.8562 L 19.5845,2.8562 L 19.5986,2.8562 L 19.6126,2.8422 L 19.6266,2.8422 L 19.6407,2.8422 L 19.6547,2.8422 L 19.6688,2.8422 L 19.6968,2.8422 L 19.7109,2.8422 L 19.7249,2.8422 L 19.7389,2.8422 L 19.7530,2.8422 L 19.7670,2.8562 L 19.7811,2.8562 L 19.7951,2.8562 L 19.8091,2.8702 L 19.8232,2.8842 L 19.8372,2.8842 L 19.8372,2.8982 L 19.8513,2.9122 L 19.8653,2.9262 L 19.8793,2.9402 L 19.8793,2.9542 L 19.8934,2.9682 L 19.8934,2.9822 L 19.9074,2.9822 L 19.9215,2.9822 L 19.9355,2.9962 L 19.9495,3.0102 L 19.9495,3.0242 L 19.9636,3.0382 L 19.9636,3.0522 L 19.9636,3.0662 L 19.9636,3.0802 L 19.9636,3.0942 L 19.9495,3.0942 L 19.9495,3.1082 L 19.9495,3.1222 L 19.9355,3.1222 L 19.9355,3.1362 L 19.9215,3.1502 L 19.9074,3.1642 L 19.8934,3.1782 L 19.8793,3.1922 L 19.8653,3.1922 L 19.8513,3.1922 L 19.8372,3.2062 L 19.8232,3.2062 L 19.8091,3.2062 " stroke="#000000" stroke-width="0.1196" stroke-linecap="round" stroke-linejoin="round" fill="none"/>
        <path d="M 19.5003,3.1082 L 19.6407,3.0802 L 19.7670,3.1082 L 19.7670,3.3602 L 19.6407,3.4582 L 19.5003,3.3602 L 19.5003,3.1082 " stroke="#000000" stroke-width="0.1196" stroke-linecap="round" stroke-linejoin="round" fill="none"/>
        <path d="M 4.1696,5.0823 L 4.1836,5.0963 L 4.1977,5.1103 L 4.2117,5.1243 L 4.2258,5.1383 L 4.2258,5.1523 L 4.2398,5.1663 L 4.2538,5.1803 L 4.2679,5.1943 L 4.2679,5.2083 L 4.2819,5.2223 L 4.2960,5.2363 L 4.2960,5.2503 L 4.3100,5.2643 L 4.3240,5.2783 L 4.3240,5.3063 L 4.3381,5.3203 L 4.3381,5.3343 L 4.3521,5.3483 L 4.3521,5.3623 L 4.3662,5.3904 L 4.3662,5.4044 L 4.3662,5.4184 L 4.3802,5.4324 L 4.3802,5.4604 L 4.3802,5.4744 L 4.3802,5.4884 L 4.3942,5.5164 L 4.3942,5.5304 L 4.3942,5.5584 L 4.3942,5.5724 L 4.3942,5.6004 L 4.3942,5.6144 L 4.3942,5.6284 L 4.3942,5.6564 L 4.3942,5.6704 L 4.3942,5.6844 L 4.3942,5.6984 L 4.3802,5.7264 L 4.3802,5.7404 L 4.3802,5.7544 L 4.3802,5.7684 L 4.3662,5.7964 L 4.3662,5.8104 L 4.3662,5.8244 L 4.3521,5.8384 L 4.3521,5.8524 L 4.3381,5.8664 L 4.3381,5.8944 L 4.3240,5.9084 L 4.3240,5.9224 L 4.3100,5.9364 L 4.2960,5.9504 L 4.2960,5.9644 L 4.2819,5.9784 L 4.2679,5.9924 L 4.2679,6.0064 L 4.2538,6.0204 L 4.2398,6.0344 L 4.2258,6.0484 L 4.2258,6.0624 L 4.2117,6.0764 L 4.1977,6.0904 L 4.1836,6.1044 L 4.1696,6.1184 L 4.1556,6.1044 L 4.1556,6.0904 L 4.1415,6.0904 L 4.1415,6.0764 L 4.1275,6.0764 L 4.1275,6.0624 L 4.1135,6.0624 L 4.1135,6.0484 L 4.0994,6.0484 L 4.0994,6.0344 L 4.0854,6.0204 L 4.0994,6.0064 L 4.1135,5.9924 L 4.1275,5.9784 L 4.1415,5.9784 L 4.1415,5.9644 L 4.1556,5.9504 L 4.1556,5.9364 L 4.1696,5.9224 L 4.1836,5.9224 L 4.1836,5.9084 L 4.1977,5.8944 L 4.1977,5.8804 L 4.2117,5.8664 L 4.2117,5.8524 L 4.2258,5.8384 L 4.2258,5.8244 L 4.2398,5.8104 L 4.2398,5.7964 L 4.2398,5.7824 L 4.2538,5.7684 L 4.2538,5.7544 L 4.2538,5.7404 L 4.2538,5.7264 L 4.2538,5.7124 L 4.2679,5.6844 L 4.2679,5.6704 L 4.2679,5.6564 L 4.2679,5.6424 L 4.2679,5.6284 L 4.2679,5.6144 L 4.2679,5.6004 L 4.2679,5.5724 L 4.2679,5.5584 L 4.2679,5.5444 L 4.2679,5.5304 L 4.2538,5.5164 L 4.2538,5.4884 L 4.2538,5.4744 L 4.2538,5.4604 L 4.2538,5.4464 L 4.2398,5.4324 L 4.2398,5.4184 L 4.2398,5.4044 L 4.2258,5.3904 L 4.2258,5.3764 L 4.2258,5.3623 L 4.2117,5.3483 L 4.1977,5.3343 L 4.1977,5.3203 L 4.1836,5.3063 L 4.1836,5.2923 L 4.1696,5.2783 L 4.1556,5.2783 L 4.1556,5.2643 L 4.1415,5.2503 L 4.1415,5.2363 L 4.1275,5.2363 L 4.1135,5.2223 L 4.0994,5.2083 L 4.0854,5.1943 L 4.0854,5.1803 L 4.0994,5.1803 L 4.0994,5.1663 L 4.1135,5.1663 L 4.1135,5.1523 L 4.1275,5.1383 L 4.1415,5.1243 L 4.1415,5.1103 L 4.1556,5.1103 L 4.1556,5.0963 L 4.1696,5.0963 L 4.1696,5.0823 Z" stroke="#000000" stroke-width="0.1196" stroke-linecap="round" stroke-linejoin="round" fill="#000000"/>
        <path d="M 3.2290,5.3623 L 3.2290,5.9224 L 3.4115,5.7684 L 3.1026,5.5444 " stroke="#FFFFFF" stroke-width="0.1196" stroke-linecap="round" stroke-linejoin="round" fill="none"/>
        <path d="M 3.2290,5.9084 L 3.2290,5.3483 L 3.4115,5.5024 L 3.1026,5.7264 " stroke="#FFFFFF" stroke-width="0.1196" stroke-linecap="round" stroke-linejoin="round" fill="none"/>
        <path d="M 3.9309,5.3343 L 3.9450,5.3483 L 3.9590,5.3623 L 3.9731,5.3764 L 3.9731,5.3904 L 3.9871,5.3904 L 3.9871,5.4044 L 4.0011,5.4184 L 4.0011,5.4324 L 4.0152,5.4464 L 4.0152,5.4604 L 4.0152,5.4744 L 4.0292,5.4884 L 4.0292,5.5024 L 4.0292,5.5164 L 4.0292,5.5304 L 4.0433,5.5444 L 4.0433,5.5584 L 4.0433,5.5724 L 4.0433,5.5864 L 4.0433,5.6004 L 4.0433,5.6144 L 4.0433,5.6284 L 4.0433,5.6424 L 4.0433,5.6564 L 4.0433,5.6704 L 4.0433,5.6844 L 4.0292,5.6844 L 4.0292,5.6984 L 4.0292,5.7124 L 4.0292,5.7264 L 4.0292,5.7404 L 4.0152,5.7404 L 4.0152,5.7544 L 4.0152,5.7684 L 4.0011,5.7824 L 4.0011,5.7964 L 3.9871,5.8104 L 3.9871,5.8244 L 3.9731,5.8384 L 3.9731,5.8524 L 3.9590,5.8524 L 3.9590,5.8664 L 3.9450,5.8804 L 3.9309,5.8944 L 3.9450,5.8944 L 3.9450,5.9084 L 3.9590,5.9084 L 3.9590,5.9224 L 3.9731,5.9224 L 3.9731,5.9364 L 3.9871,5.9364 L 3.9871,5.9504 L 4.0011,5.9504 L 4.0011,5.9644 L 4.0152,5.9644 L 4.0292,5.9504 L 4.0433,5.9364 L 4.0433,5.9224 L 4.0573,5.9224 L 4.0713,5.9084 L 4.0713,5.8944 L 4.0854,5.8944 L 4.0854,5.8804 L 4.0854,5.8664 L 4.0994,5.8524 L 4.1135,5.8384 L 4.1135,5.8244 L 4.1135,5.8104 L 4.1275,5.8104 L 4.1275,5.7964 L 4.1275,5.7824 L 4.1275,5.7684 L 4.1415,5.7544 L 4.1415,5.7404 L 4.1415,5.7264 L 4.1415,5.7124 L 4.1556,5.6984 L 4.1556,5.6844 L 4.1556,5.6704 L 4.1556,5.6564 L 4.1556,5.6424 L 4.1556,5.6284 L 4.1556,5.6144 L 4.1556,5.6004 L 4.1556,5.5864 L 4.1556,5.5724 L 4.1556,5.5584 L 4.1556,5.5444 L 4.1556,5.5304 L 4.1556,5.5164 L 4.1415,5.5164 L 4.1415,5.5024 L 4.1415,5.4884 L 4.1415,5.4744 L 4.1415,5.4604 L 4.1275,5.4464 L 4.1275,5.4324 L 4.1275,5.4184 L 4.1135,5.4044 L 4.1135,5.3904 L 4.0994,5.3764 L 4.0994,5.3623 L 4.0994,5.3483 L 4.0854,5.3483 L 4.0854,5.3343 L 4.0713,5.3203 L 4.0713,5.3063 L 4.0573,5.3063 L 4.0433,5.2923 L 4.0433,5.2783 L 4.0292,5.2783 L 4.0152,5.2643 L 4.0011,5.2503 L 4.0011,5.2643 L 3.9871,5.2643 L 3.9871,5.2783 L 3.9731,5.2783 L 3.9731,5.2923 L 3.9590,5.2923 L 3.9590,5.3063 L 3.9450,5.3063 L 3.9450,5.3203 L 3.9309,5.3203 L 3.9309,5.3343 Z" stroke="#000000" stroke-width="0.1196" stroke-linecap="round" stroke-linejoin="round" fill="#000000"/>
        <path d="M 30.9842,2.2401 L 30.9983,2.2401 L 31.0123,2.2401 L 31.0264,2.2401 L 31.0404,2.2541 L 31.0544,2.2541 L 31.0685,2.2541 L 31.0685,2.2681 L 31.0825,2.2681 L 31.0966,2.2821 L 31.1106,2.2821 L 31.1106,2.2961 L 31.1246,2.2961 L 31.1246,2.3102 L 31.1387,2.3102 L 31.1387,2.3242 L 31.1527,2.3242 L 31.1527,2.3382 L 31.1527,2.3522 L 31.1527,2.3662 L 31.1527,2.3942 L 31.1527,2.4362 L 31.1527,2.4922 L 31.1527,2.5762 L 31.1527,2.6602 L 31.1527,2.7722 L 31.1527,2.8842 L 31.1527,2.9962 L 31.1527,3.1362 L 31.1527,3.2762 L 31.1527,3.4162 L 31.1527,3.5702 L 31.1527,3.7242 L 31.1527,3.8783 L 31.1527,4.0463 L 31.1527,4.2003 L 31.1527,4.3543 L 31.1527,4.5083 L 31.1527,4.6623 L 31.1527,4.8023 L 31.1527,4.9423 L 31.1527,5.0823 L 31.1527,5.1943 L 31.1527,5.3063 L 31.1527,5.4184 L 31.1527,5.5024 L 31.1527,5.5864 L 31.1527,5.6424 L 31.1527,5.6844 L 31.1527,5.7124 L 31.1527,5.7264 L 31.1527,5.7404 L 31.1527,5.7544 L 31.1527,5.7684 L 31.1387,5.7684 L 31.1387,5.7824 L 31.1246,5.7964 L 31.1106,5.8104 L 31.0966,5.8244 L 31.0825,5.8244 L 31.0825,5.8384 L 31.0685,5.8384 L 31.0544,5.8384 L 31.0544,5.8524 L 31.0404,5.8524 L 31.0264,5.8664 L 31.0123,5.8664 L 30.9983,5.8664 L 30.9842,5.8664 L 30.9702,5.8664 L 30.9562,5.8664 L 30.9281,5.8664 L 30.9000,5.8664 L 30.8579,5.8664 L 30.8158,5.8664 L 30.7737,5.8664 L 30.7315,5.8664 L 30.6754,5.8664 L 30.6192,5.8664 L 30.5631,5.8664 L 30.5069,5.8664 L 30.4508,5.8664 L 30.3806,5.8664 L 30.3244,5.8664 L 30.2683,5.8664 L 30.1981,5.8664 L 30.1419,5.8664 L 30.0857,5.8664 L 30.0296,5.8664 L 29.9734,5.8664 L 29.9173,5.8664 L 29.8752,5.8664 L 29.8330,5.8664 L 29.7909,5.8664 L 29.7488,5.8664 L 29.7207,5.8664 L 29.6927,5.8664 L 29.6786,5.8664 L 29.6646,5.8664 L 29.6505,5.8664 L 29.6365,5.8664 L 29.6225,5.8524 L 29.6084,5.8524 L 29.5944,5.8384 L 29.5803,5.8384 L 29.5803,5.8244 L 29.5663,5.8244 L 29.5663,5.8104 L 29.5523,5.8104 L 29.5523,5.7964 L 29.5382,5.7824 L 29.5382,5.7684 L 29.5242,5.7544 L 29.5242,5.7404 L 29.5242,5.7264 L 29.5242,5.7124 L 29.5242,5.6844 L 29.5242,5.6424 L 29.5242,5.5864 L 29.5242,5.5024 L 29.5242,5.4184 L 29.5242,5.3063 L 29.5242,5.1943 L 29.5242,5.0823 L 29.5242,4.9423 L 29.5242,4.8023 L 29.5242,4.6623 L 29.5242,4.5083 L 29.5242,4.3543 L 29.5242,4.2003 L 29.5242,4.0463 L 29.5242,3.8783 L 29.5242,3.7242 L 29.5242,3.5702 L 29.5242,3.4162 L 29.5242,3.2762 L 29.5242,3.1362 L 29.5242,2.9962 L 29.5242,2.8842 L 29.5242,2.7722 L 29.5242,2.6602 L 29.5242,2.5762 L 29.5242,2.4922 L 29.5242,2.4362 L 29.5242,2.3942 L 29.5242,2.3662 L 29.5242,2.3522 L 29.5242,2.3382 L 29.5242,2.3242 L 29.5382,2.3242 L 29.5382,2.3102 L 29.5382,2.2961 L 29.5523,2.2961 L 29.5523,2.2821 L 29.5663,2.2821 L 29.5663,2.2681 L 29.5803,2.2681 L 29.5944,2.2681 L 29.5944,2.2541 L 29.6084,2.2541 L 29.6225,2.2541 L 29.6225,2.2401 L 29.6365,2.2401 L 29.6505,2.2401 L 29.6646,2.2401 L 29.6786,2.2401 L 29.6927,2.2401 L 29.7207,2.2401 L 29.7488,2.2401 L 29.7909,2.2401 L 29.8330,2.2401 L 29.8752,2.2401 L 29.9173,2.2401 L 29.9734,2.2401 L 30.0296,2.2401 L 30.0857,2.2401 L 30.1419,2.2401 L 30.1981,2.2401 L 30.2683,2.2401 L 30.3244,2.2401 L 30.3806,2.2401 L 30.4508,2.2401 L 30.5069,2.2401 L 30.5631,2.2401 L 30.6192,2.2401 L 30.6754,2.2401 L 30.7315,2.2401 L 30.7737,2.2401 L 30.8158,2.2401 L 30.8579,2.2401 L 30.9000,2.2401 L 30.9281,2.2401 L 30.9562,2.2401 L 30.9702,2.2401 L 30.9842,2.2401 Z" stroke="#000000" stroke-width="0.1196" stroke-linecap="round" stroke-linejoin="round" fill="#161616"/>
        <path d="M 60.9998,7.0985 L 59.1186,7.0985 L 59.1186,7.7845 L 60.9998,7.7845 L 60.9998,7.0985 Z" stroke="#000000" stroke-width="0.1196" stroke-linecap="round" stroke-linejoin="round" fill="#000000"/>
        <path d="M 40.7835,7.2805 L 40.7835,7.6025 L 46.4694,7.6025 L 46.4694,7.2805 " stroke="#000000" stroke-width="0.1196" stroke-linecap="round" stroke-linejoin="round" fill="none"/>
        <text font-family="Arial" fill="#000000" style="white-space:pre;" font-weight="400" text-anchor="start" x="5.6016" y="3.3172" font-size="0.1544"><![CDATA[RESET]]></text>
        <path d="M 24.2070,5.5276 L 24.2070,3.4080 L 25.0989,3.4080 L 25.0989,2.9092 L 25.4613,2.9092 L 25.4613,2.4105 L 26.5204,2.4105 L 26.5204,2.9092 L 26.8828,2.9092 L 26.8828,3.4080 L 27.7747,3.4080 L 27.7747,5.5276 L 24.2070,5.5276 Z" stroke="#161616" stroke-width="0.1196" stroke-linecap="round" stroke-linejoin="round" fill="#00007F"/>
        <text font-family="Arial" fill="#000000" style="white-space:pre;" font-weight="400" text-anchor="start" x="26.9246" y="5.0936" font-size="0.1951"><![CDATA[FortiExtender 511G]]></text>
        <text font-family="Arial" fill="#000000" style="white-space:pre;" font-weight="400" text-anchor="start" x="32.4572" y="5.8997" font-size="0.1672"><![CDATA[CONSOLE]]></text>
        <text font-family="Arial" fill="#000000" style="white-space:pre;" font-weight="400" text-anchor="start" x="33.7672" y="5.8997" font-size="0.1672"><![CDATA[USB]]></text>
        <text font-family="Arial" fill="#000000" style="white-space:pre;" font-weight="400" text-anchor="start" x="36.3593" y="4.7914" font-size="0.1672"><![CDATA[SFP]]></text>
        <path d="M 33.2655,5.5276 L 33.2655,3.4080 L 34.1574,3.4080 L 34.1574,2.9092 L 34.5198,2.9092 L 34.5198,2.4105 L 35.5789,2.4105 L 35.5789,2.9092 L 35.9412,2.9092 L 35.9412,3.4080 L 36.8332,3.4080 L 36.8332,5.5276 L 33.2655,5.5276 Z" stroke="#161616" stroke-width="0.1196" stroke-linecap="round" stroke-linejoin="round" fill="#000000"/>
        <text font-family="Arial" fill="#000000" style="white-space:pre;" font-weight="400" text-anchor="start" x="47.0065" y="4.5559" font-size="0.1672"><![CDATA[1]]></text>
        <path d="M 44.8882,5.5276 L 44.8882,3.4080 L 45.7801,3.4080 L 45.7801,2.9092 L 46.1425,2.9092 L 46.1425,2.4105 L 47.2016,2.4105 L 47.2016,2.9092 L 47.5640,2.9092 L 47.5640,3.4080 L 48.4559,3.4080 L 48.4559,5.5276 L 44.8882,5.5276 Z" stroke="#161616" stroke-width="0.1196" stroke-linecap="round" stroke-linejoin="round" fill="#000000"/>
        <text font-family="Arial" fill="#000000" style="white-space:pre;" font-weight="400" text-anchor="start" x="59.7441" y="4.5559" font-size="0.1672"><![CDATA[2]]></text>
        <path d="M 49.3757,5.5276 L 49.3757,3.4080 L 50.2676,3.4080 L 50.2676,2.9092 L 50.6299,2.9092 L 50.6299,2.4105 L 51.6891,2.4105 L 51.6891,2.9092 L 52.0514,2.9092 L 52.0514,3.4080 L 52.9433,3.4080 L 52.9433,5.5276 L 49.3757,5.5276 Z" stroke="#161616" stroke-width="0.1196" stroke-linecap="round" stroke-linejoin="round" fill="#000000"/>
        <text font-family="Arial" fill="#000000" style="white-space:pre;" font-weight="400" text-anchor="start" x="65.3325" y="4.5559" font-size="0.1672"><![CDATA[3]]></text>
        <path d="M 53.8213,5.5276 L 53.8213,3.4080 L 54.7132,3.4080 L 54.7132,2.9092 L 55.0755,2.9092 L 55.0755,2.4105 L 56.1347,2.4105 L 56.1347,2.9092 L 56.4970,2.9092 L 56.4970,3.4080 L 57.3889,3.4080 L 57.3889,5.5276 L 53.8213,5.5276 Z" stroke="#161616" stroke-width="0.1196" stroke-linecap="round" stroke-linejoin="round" fill="#000000"/>
        <text font-family="Arial" fill="#000000" style="white-space:pre;" font-weight="400" text-anchor="start" x="70.8930" y="4.5559" font-size="0.1672"><![CDATA[4]]></text>
        <path d="M 58.3087,5.5276 L 58.3087,3.4080 L 59.2006,3.4080 L 59.2006,2.9092 L 59.5630,2.9092 L 59.5630,2.4105 L 60.6221,2.4105 L 60.6221,2.9092 L 60.9845,2.9092 L 60.9845,3.4080 L 61.8764,3.4080 L 61.8764,5.5276 L 58.3087,5.5276 Z" stroke="#161616" stroke-width="0.1196" stroke-linecap="round" stroke-linejoin="round" fill="#000000"/>
        <text font-family="Arial" fill="#000000" style="white-space:pre;" font-weight="400" text-anchor="start" x="68.8305" y="4.5559" font-size="0.1672"><![CDATA[2.5G WAN]]></text>
        <path d="M 2.0204,3.0567 L 2.0093,3.0567 L 1.9983,3.0567 L 1.9983,3.0461 L 1.9873,3.0461 L 1.9873,3.0355 L 1.9762,3.0355 L 1.9762,3.0249 L 1.9652,3.0249 L 1.9652,3.0143 L 1.9652,3.0036 L 1.9652,2.9930 L 1.9652,2.9824 L 1.9652,2.9718 L 1.9652,2.9506 L 1.9652,2.9294 L 1.9652,2.9081 L 1.9652,2.8763 L 1.9652,2.8444 L 1.9652,2.8126 L 1.9652,2.7808 L 1.9652,2.7489 L 1.9652,2.7171 L 1.9652,2.6746 L 1.9652,2.6428 L 1.9652,2.6003 L 1.9652,2.5579 L 1.9652,2.5260 L 1.9652,2.4836 L 1.9652,2.4517 L 1.9652,2.4199 L 1.9652,2.3881 L 1.9652,2.3562 L 1.9652,2.3244 L 1.9652,2.2925 L 1.9652,2.2713 L 1.9652,2.2501 L 1.9652,2.2289 L 1.9652,2.2182 L 1.9652,2.2076 L 1.9652,2.1970 L 1.9652,2.1864 L 1.9652,2.1758 L 1.9762,2.1758 L 1.9762,2.1652 L 1.9873,2.1652 L 1.9873,2.1546 L 1.9983,2.1546 L 1.9983,2.1439 L 2.0093,2.1439 L 2.0204,2.1439 L 2.0314,2.1439 L 2.0425,2.1439 L 2.0645,2.1439 L 2.0866,2.1439 L 2.1087,2.1439 L 2.1418,2.1439 L 2.1749,2.1439 L 2.2081,2.1439 L 2.2522,2.1439 L 2.2964,2.1439 L 2.3295,2.1439 L 2.3737,2.1439 L 2.4289,2.1439 L 2.4730,2.1439 L 2.5172,2.1439 L 2.5613,2.1439 L 2.6055,2.1439 L 2.6607,2.1439 L 2.7049,2.1439 L 2.7380,2.1439 L 2.7822,2.1439 L 2.8263,2.1439 L 2.8594,2.1439 L 2.8926,2.1439 L 2.9257,2.1439 L 2.9478,2.1439 L 2.9698,2.1439 L 2.9919,2.1439 L 3.0030,2.1439 L 3.0140,2.1439 L 3.0250,2.1439 L 3.0361,2.1439 L 3.0361,2.1546 L 3.0471,2.1546 L 3.0471,2.1652 L 3.0582,2.1652 L 3.0582,2.1758 L 3.0692,2.1758 L 3.0692,2.1864 L 3.0692,2.1970 L 3.0692,2.2076 L 3.0692,2.2182 L 3.0692,2.2289 L 3.0692,2.2395 L 3.0692,2.2501 L 3.0692,2.2607 L 3.0692,2.2713 L 3.0692,2.2819 L 3.0692,2.2925 L 3.0692,2.3032 L 3.0692,2.3138 L 3.0692,2.3244 L 3.0692,2.3350 L 3.0692,2.3456 L 3.0692,2.3562 L 3.0692,2.3668 L 3.0692,2.3562 L 3.0582,2.3456 L 3.0582,2.3350 L 3.0471,2.3350 L 3.0361,2.3350 L 3.0361,2.3244 L 3.0250,2.3244 L 3.0140,2.3244 L 3.0030,2.3244 L 2.9919,2.3244 L 2.9698,2.3244 L 2.9478,2.3244 L 2.9257,2.3244 L 2.9036,2.3244 L 2.8705,2.3244 L 2.8374,2.3244 L 2.8042,2.3244 L 2.7711,2.3244 L 2.7380,2.3244 L 2.7049,2.3244 L 2.6607,2.3244 L 2.6276,2.3244 L 2.5945,2.3244 L 2.5503,2.3244 L 2.5172,2.3244 L 2.4841,2.3244 L 2.4509,2.3244 L 2.4178,2.3244 L 2.3847,2.3244 L 2.3516,2.3244 L 2.3295,2.3244 L 2.3074,2.3244 L 2.2853,2.3244 L 2.2633,2.3244 L 2.2522,2.3244 L 2.2412,2.3244 L 2.2301,2.3244 L 2.2191,2.3244 L 2.2081,2.3244 L 2.2081,2.3350 L 2.1970,2.3350 L 2.1970,2.3456 L 2.1860,2.3456 L 2.1860,2.3562 L 2.1860,2.3668 L 2.1860,2.3774 L 2.1860,2.3881 L 2.1860,2.3987 L 2.1860,2.4093 L 2.1860,2.4305 L 2.1860,2.4411 L 2.1860,2.4730 L 2.1860,2.4942 L 2.1860,2.5154 L 2.1860,2.5473 L 2.1860,2.5685 L 2.1860,2.6003 L 2.1860,2.6322 L 2.1860,2.6640 L 2.1860,2.6959 L 2.1860,2.7171 L 2.1860,2.7489 L 2.1860,2.7808 L 2.1860,2.8126 L 2.1860,2.8338 L 2.1860,2.8657 L 2.1860,2.8869 L 2.1860,2.9081 L 2.1860,2.9400 L 2.1860,2.9506 L 2.1860,2.9718 L 2.1860,2.9824 L 2.1860,2.9930 L 2.1860,3.0036 L 2.1860,3.0143 L 2.1860,3.0249 L 2.1860,3.0355 L 2.1970,3.0355 L 2.1970,3.0461 L 2.2081,3.0567 L 2.2191,3.0567 L 2.2081,3.0567 L 2.1970,3.0567 L 2.1860,3.0567 L 2.1749,3.0567 L 2.1639,3.0567 L 2.1529,3.0567 L 2.1418,3.0567 L 2.1308,3.0567 L 2.1197,3.0567 L 2.1087,3.0567 L 2.0977,3.0567 L 2.0866,3.0567 L 2.0756,3.0567 L 2.0645,3.0567 L 2.0535,3.0567 L 2.0425,3.0567 L 2.0314,3.0567 L 2.0204,3.0567 Z" stroke="#000000" stroke-width="0.1196" stroke-linecap="round" stroke-linejoin="round" fill="#000000"/>
        <path d="M 3.0030,2.5366 L 2.9809,2.5366 L 2.9588,2.5366 L 2.9367,2.5366 L 2.9146,2.5366 L 2.8926,2.5366 L 2.8705,2.5366 L 2.8374,2.5366 L 2.8153,2.5366 L 2.7822,2.5366 L 2.7490,2.5366 L 2.7159,2.5366 L 2.6938,2.5366 L 2.6607,2.5366 L 2.6276,2.5366 L 2.5945,2.5366 L 2.5724,2.5366 L 2.5393,2.5366 L 2.5061,2.5366 L 2.4841,2.5366 L 2.4509,2.5366 L 2.4289,2.5366 L 2.4068,2.5366 L 2.3847,2.5366 L 2.3626,2.5366 L 2.3405,2.5366 L 2.3295,2.5366 L 2.3074,2.5366 L 2.2964,2.5366 L 2.2853,2.5366 L 2.2743,2.5366 L 2.2633,2.5366 L 2.2633,2.5260 L 2.2522,2.5260 L 2.2522,2.5154 L 2.2412,2.5154 L 2.2412,2.5048 L 2.2412,2.4942 L 2.2412,2.4836 L 2.2412,2.4942 L 2.2412,2.5048 L 2.2412,2.5154 L 2.2412,2.5260 L 2.2412,2.5366 L 2.2412,2.5473 L 2.2412,2.5579 L 2.2412,2.5685 L 2.2412,2.5791 L 2.2412,2.5897 L 2.2412,2.6003 L 2.2412,2.6109 L 2.2412,2.6216 L 2.2412,2.6322 L 2.2412,2.6428 L 2.2412,2.6534 L 2.2412,2.6640 L 2.2412,2.6746 L 2.2412,2.6852 L 2.2522,2.6852 L 2.2522,2.6959 L 2.2633,2.6959 L 2.2633,2.7065 L 2.2743,2.7065 L 2.2853,2.7065 L 2.2964,2.7065 L 2.3074,2.7065 L 2.3295,2.7065 L 2.3516,2.7065 L 2.3626,2.7065 L 2.3847,2.7065 L 2.4178,2.7065 L 2.4399,2.7065 L 2.4620,2.7065 L 2.4951,2.7065 L 2.5172,2.7065 L 2.5503,2.7065 L 2.5834,2.7065 L 2.6166,2.7065 L 2.6497,2.7065 L 2.6828,2.7065 L 2.7049,2.7065 L 2.7380,2.7065 L 2.7711,2.7065 L 2.8042,2.7065 L 2.8374,2.7065 L 2.8594,2.7065 L 2.8926,2.7065 L 2.9146,2.7065 L 2.9367,2.7065 L 2.9698,2.7065 L 2.9919,2.7065 L 3.0030,2.7065 L 3.0250,2.7065 L 3.0361,2.6959 L 3.0471,2.6852 L 3.0582,2.6746 L 3.0582,2.6640 L 3.0692,2.6534 L 3.0692,2.6428 L 3.0802,2.6322 L 3.0802,2.6216 L 3.0802,2.6109 L 3.0802,2.6003 L 3.0802,2.5897 L 3.0802,2.5791 L 3.0692,2.5791 L 3.0692,2.5685 L 3.0582,2.5579 L 3.0471,2.5579 L 3.0471,2.5473 L 3.0361,2.5473 L 3.0250,2.5366 L 3.0140,2.5366 L 3.0030,2.5366 Z" stroke="#000000" stroke-width="0.1196" stroke-linecap="round" stroke-linejoin="round" fill="#000000"/>
        <path d="M 4.7473,2.7065 L 4.7363,2.7065 L 4.7252,2.7065 L 4.7252,2.6959 L 4.7142,2.6959 L 4.7142,2.6852 L 4.7032,2.6852 L 4.7032,2.6746 L 4.6921,2.6746 L 4.6921,2.6640 L 4.6921,2.6534 L 4.6921,2.6428 L 4.6921,2.6322 L 4.6921,2.6216 L 4.6921,2.6109 L 4.6921,2.6003 L 4.6921,2.5897 L 4.6921,2.5791 L 4.6921,2.5685 L 4.6921,2.5579 L 4.6921,2.5473 L 4.6921,2.5366 L 4.6921,2.5260 L 4.6921,2.5154 L 4.6921,2.5048 L 4.6921,2.4942 L 4.6921,2.4836 L 4.6921,2.4942 L 4.6921,2.5048 L 4.7032,2.5048 L 4.7032,2.5154 L 4.7142,2.5154 L 4.7142,2.5260 L 4.7252,2.5260 L 4.7252,2.5366 L 4.7363,2.5366 L 4.7473,2.5366 L 4.7584,2.5366 L 4.7694,2.5366 L 4.7805,2.5366 L 4.8025,2.5366 L 4.8136,2.5366 L 4.8357,2.5366 L 4.8577,2.5366 L 4.8798,2.5366 L 4.9019,2.5366 L 4.9240,2.5366 L 4.9571,2.5366 L 4.9792,2.5366 L 5.0123,2.5366 L 5.0344,2.5366 L 5.0565,2.5366 L 5.0896,2.5366 L 5.1117,2.5366 L 5.1448,2.5366 L 5.1669,2.5366 L 5.1889,2.5366 L 5.2110,2.5366 L 5.2331,2.5366 L 5.2552,2.5366 L 5.2662,2.5366 L 5.2883,2.5366 L 5.2993,2.5366 L 5.3104,2.5366 L 5.3214,2.5366 L 5.3214,2.5260 L 5.3214,2.5154 L 5.3214,2.5048 L 5.3214,2.4942 L 5.3214,2.4836 L 5.3214,2.4730 L 5.3214,2.4624 L 5.3214,2.4517 L 5.3214,2.4411 L 5.3214,2.4305 L 5.3214,2.4199 L 5.3214,2.4093 L 5.3214,2.3987 L 5.3214,2.3881 L 5.3214,2.3774 L 5.3214,2.3668 L 5.3214,2.3562 L 5.3214,2.3456 L 5.3214,2.3350 L 5.3214,2.3244 L 5.3104,2.3244 L 5.2993,2.3244 L 5.2773,2.3244 L 5.2662,2.3244 L 5.2441,2.3244 L 5.2221,2.3244 L 5.2000,2.3244 L 5.1779,2.3244 L 5.1448,2.3244 L 5.1227,2.3244 L 5.0896,2.3244 L 5.0675,2.3244 L 5.0344,2.3244 L 5.0123,2.3244 L 4.9792,2.3244 L 4.9461,2.3244 L 4.9240,2.3244 L 4.8909,2.3244 L 4.8688,2.3244 L 4.8357,2.3244 L 4.8136,2.3244 L 4.7915,2.3244 L 4.7694,2.3244 L 4.7473,2.3244 L 4.7363,2.3244 L 4.7142,2.3244 L 4.7032,2.3244 L 4.6921,2.3244 L 4.6811,2.3244 L 4.6811,2.3350 L 4.6700,2.3350 L 4.6590,2.3350 L 4.6590,2.3456 L 4.6480,2.3562 L 4.6480,2.3668 L 4.6480,2.3774 L 4.6480,2.3881 L 4.6480,2.3987 L 4.6480,2.4093 L 4.6480,2.4305 L 4.6480,2.4411 L 4.6480,2.4730 L 4.6480,2.4942 L 4.6480,2.5154 L 4.6480,2.5473 L 4.6480,2.5685 L 4.6480,2.6003 L 4.6480,2.6322 L 4.6480,2.6640 L 4.6480,2.6959 L 4.6480,2.7171 L 4.6480,2.7489 L 4.6480,2.7808 L 4.6480,2.8126 L 4.6480,2.8338 L 4.6480,2.8657 L 4.6480,2.8869 L 4.6480,2.9081 L 4.6480,2.9400 L 4.6480,2.9506 L 4.6480,2.9718 L 4.6480,2.9824 L 4.6480,2.9930 L 4.6480,3.0036 L 4.6480,3.0143 L 4.6480,3.0249 L 4.6480,3.0355 L 4.6590,3.0355 L 4.6590,3.0461 L 4.6700,3.0461 L 4.6700,3.0567 L 4.6811,3.0567 L 4.6700,3.0567 L 4.6590,3.0567 L 4.6480,3.0567 L 4.6369,3.0567 L 4.6259,3.0567 L 4.6148,3.0567 L 4.6038,3.0567 L 4.5928,3.0567 L 4.5817,3.0567 L 4.5707,3.0567 L 4.5596,3.0567 L 4.5486,3.0567 L 4.5376,3.0567 L 4.5265,3.0567 L 4.5155,3.0567 L 4.5044,3.0567 L 4.4934,3.0567 L 4.4824,3.0567 L 4.4713,3.0567 L 4.4713,3.0461 L 4.4603,3.0461 L 4.4492,3.0461 L 4.4492,3.0355 L 4.4492,3.0249 L 4.4382,3.0249 L 4.4382,3.0143 L 4.4382,3.0036 L 4.4382,2.9930 L 4.4382,2.9824 L 4.4382,2.9718 L 4.4382,2.9506 L 4.4382,2.9294 L 4.4382,2.9081 L 4.4382,2.8763 L 4.4382,2.8444 L 4.4382,2.8126 L 4.4382,2.7808 L 4.4382,2.7489 L 4.4382,2.7171 L 4.4382,2.6746 L 4.4382,2.6428 L 4.4382,2.6003 L 4.4382,2.5579 L 4.4382,2.5260 L 4.4382,2.4836 L 4.4382,2.4517 L 4.4382,2.4199 L 4.4382,2.3881 L 4.4382,2.3562 L 4.4382,2.3244 L 4.4382,2.2925 L 4.4382,2.2713 L 4.4382,2.2501 L 4.4382,2.2289 L 4.4382,2.2182 L 4.4382,2.2076 L 4.4382,2.1970 L 4.4382,2.1864 L 4.4382,2.1758 L 4.4492,2.1758 L 4.4492,2.1652 L 4.4492,2.1546 L 4.4603,2.1546 L 4.4713,2.1546 L 4.4713,2.1439 L 4.4824,2.1439 L 4.4934,2.1439 L 4.5044,2.1439 L 4.5155,2.1439 L 4.5376,2.1439 L 4.5596,2.1439 L 4.5817,2.1439 L 4.6148,2.1439 L 4.6480,2.1439 L 4.6811,2.1439 L 4.7252,2.1439 L 4.7584,2.1439 L 4.8025,2.1439 L 4.8467,2.1439 L 4.8909,2.1439 L 4.9350,2.1439 L 4.9902,2.1439 L 5.0344,2.1439 L 5.0785,2.1439 L 5.1227,2.1439 L 5.1669,2.1439 L 5.2110,2.1439 L 5.2441,2.1439 L 5.2883,2.1439 L 5.3214,2.1439 L 5.3545,2.1439 L 5.3877,2.1439 L 5.4097,2.1439 L 5.4318,2.1439 L 5.4539,2.1439 L 5.4649,2.1439 L 5.4760,2.1439 L 5.4870,2.1439 L 5.4981,2.1439 L 5.5091,2.1546 L 5.5202,2.1546 L 5.5202,2.1652 L 5.5312,2.1652 L 5.5312,2.1758 L 5.5422,2.1758 L 5.5422,2.1864 L 5.5422,2.1970 L 5.5422,2.2076 L 5.5422,2.2182 L 5.5422,2.2289 L 5.5422,2.2395 L 5.5422,2.2501 L 5.5422,2.2607 L 5.5422,2.2819 L 5.5422,2.3032 L 5.5422,2.3138 L 5.5422,2.3350 L 5.5422,2.3562 L 5.5422,2.3774 L 5.5422,2.3987 L 5.5422,2.4199 L 5.5422,2.4305 L 5.5422,2.4517 L 5.5422,2.4730 L 5.5422,2.4942 L 5.5422,2.5154 L 5.5422,2.5260 L 5.5422,2.5473 L 5.5422,2.5685 L 5.5422,2.5791 L 5.5422,2.5897 L 5.5422,2.6003 L 5.5422,2.6109 L 5.5422,2.6216 L 5.5422,2.6322 L 5.5422,2.6428 L 5.5312,2.6428 L 5.5312,2.6534 L 5.5202,2.6534 L 5.5202,2.6640 L 5.5091,2.6746 L 5.5091,2.6852 L 5.4981,2.6852 L 5.4981,2.6959 L 5.4870,2.6959 L 5.4870,2.7065 L 5.4760,2.7065 L 5.4870,2.7171 L 5.4981,2.7277 L 5.5091,2.7383 L 5.5091,2.7489 L 5.5202,2.7489 L 5.5202,2.7595 L 5.5312,2.7595 L 5.5312,2.7701 L 5.5312,2.7808 L 5.5422,2.7808 L 5.5422,2.7914 L 5.5422,2.8020 L 5.5422,2.8126 L 5.5422,2.8232 L 5.5422,2.8338 L 5.5422,2.8444 L 5.5422,2.8551 L 5.5422,2.8657 L 5.5422,2.8763 L 5.5422,2.8869 L 5.5422,2.8975 L 5.5422,2.9081 L 5.5422,2.9187 L 5.5422,2.9294 L 5.5422,2.9400 L 5.5422,2.9506 L 5.5422,2.9612 L 5.5422,2.9718 L 5.5422,2.9824 L 5.5422,2.9930 L 5.5422,3.0036 L 5.5422,3.0143 L 5.5422,3.0249 L 5.5422,3.0355 L 5.5533,3.0355 L 5.5533,3.0461 L 5.5643,3.0567 L 5.5754,3.0567 L 5.5643,3.0567 L 5.5533,3.0567 L 5.5422,3.0567 L 5.5312,3.0567 L 5.5202,3.0567 L 5.5091,3.0567 L 5.4981,3.0567 L 5.4870,3.0567 L 5.4760,3.0567 L 5.4649,3.0567 L 5.4539,3.0567 L 5.4429,3.0567 L 5.4318,3.0567 L 5.4208,3.0567 L 5.4097,3.0567 L 5.3987,3.0567 L 5.3877,3.0567 L 5.3766,3.0567 L 5.3656,3.0567 L 5.3545,3.0567 L 5.3545,3.0461 L 5.3435,3.0461 L 5.3435,3.0355 L 5.3325,3.0355 L 5.3325,3.0249 L 5.3214,3.0249 L 5.3214,3.0143 L 5.3214,3.0036 L 5.3214,2.9930 L 5.3214,2.9824 L 5.3214,2.9718 L 5.3214,2.9612 L 5.3214,2.9506 L 5.3214,2.9400 L 5.3214,2.9294 L 5.3214,2.9187 L 5.3214,2.9081 L 5.3214,2.8975 L 5.3214,2.8869 L 5.3214,2.8763 L 5.3214,2.8657 L 5.3214,2.8551 L 5.3214,2.8338 L 5.3214,2.8232 L 5.3214,2.8126 L 5.3214,2.8020 L 5.3214,2.7808 L 5.3214,2.7701 L 5.3214,2.7489 L 5.3214,2.7383 L 5.3214,2.7171 L 5.3214,2.7065 L 5.3104,2.7065 L 5.2993,2.7065 L 5.2883,2.7065 L 5.2662,2.7065 L 5.2552,2.7065 L 5.2331,2.7065 L 5.2110,2.7065 L 5.1889,2.7065 L 5.1669,2.7065 L 5.1448,2.7065 L 5.1117,2.7065 L 5.0896,2.7065 L 5.0565,2.7065 L 5.0344,2.7065 L 5.0123,2.7065 L 4.9792,2.7065 L 4.9571,2.7065 L 4.9240,2.7065 L 4.9019,2.7065 L 4.8798,2.7065 L 4.8577,2.7065 L 4.8357,2.7065 L 4.8136,2.7065 L 4.8025,2.7065 L 4.7805,2.7065 L 4.7694,2.7065 L 4.7584,2.7065 L 4.7473,2.7065 Z" stroke="#000000" stroke-width="0.1196" stroke-linecap="round" stroke-linejoin="round" fill="#000000"/>
        <path d="M 5.9176,2.3244 L 5.9066,2.3244 L 5.8955,2.3244 L 5.8845,2.3244 L 5.8624,2.3244 L 5.8514,2.3244 L 5.8403,2.3244 L 5.8293,2.3244 L 5.8182,2.3244 L 5.8072,2.3244 L 5.7962,2.3244 L 5.7851,2.3244 L 5.7741,2.3244 L 5.7630,2.3244 L 5.7520,2.3244 L 5.7410,2.3244 L 5.7299,2.3244 L 5.7189,2.3244 L 5.7078,2.3244 L 5.6968,2.3244 L 5.6858,2.3244 L 5.6747,2.3138 L 5.6637,2.3138 L 5.6637,2.3032 L 5.6526,2.3032 L 5.6526,2.2925 L 5.6526,2.2819 L 5.6416,2.2819 L 5.6416,2.2713 L 5.6416,2.2607 L 5.6416,2.2501 L 5.6416,2.2395 L 5.6416,2.2289 L 5.6416,2.2182 L 5.6416,2.2076 L 5.6416,2.1970 L 5.6416,2.1864 L 5.6416,2.1758 L 5.6526,2.1758 L 5.6526,2.1652 L 5.6637,2.1652 L 5.6637,2.1546 L 5.6747,2.1546 L 5.6747,2.1439 L 5.6858,2.1439 L 5.6968,2.1439 L 5.7078,2.1439 L 5.7189,2.1439 L 5.7410,2.1439 L 5.7630,2.1439 L 5.7851,2.1439 L 5.8182,2.1439 L 5.8514,2.1439 L 5.8845,2.1439 L 5.9286,2.1439 L 5.9728,2.1439 L 6.0059,2.1439 L 6.0501,2.1439 L 6.1053,2.1439 L 6.1494,2.1439 L 6.1936,2.1439 L 6.2378,2.1439 L 6.2819,2.1439 L 6.3371,2.1439 L 6.3813,2.1439 L 6.4144,2.1439 L 6.4586,2.1439 L 6.5027,2.1439 L 6.5359,2.1439 L 6.5690,2.1439 L 6.6021,2.1439 L 6.6242,2.1439 L 6.6463,2.1439 L 6.6683,2.1439 L 6.6794,2.1439 L 6.6904,2.1439 L 6.7015,2.1439 L 6.7125,2.1439 L 6.7125,2.1546 L 6.7235,2.1546 L 6.7235,2.1652 L 6.7346,2.1652 L 6.7346,2.1758 L 6.7456,2.1758 L 6.7456,2.1864 L 6.7456,2.1970 L 6.7456,2.2076 L 6.7456,2.2182 L 6.7456,2.2289 L 6.7456,2.2395 L 6.7456,2.2501 L 6.7456,2.2607 L 6.7456,2.2713 L 6.7456,2.2819 L 6.7456,2.2925 L 6.7456,2.3032 L 6.7456,2.3138 L 6.7456,2.3244 L 6.7456,2.3350 L 6.7456,2.3456 L 6.7456,2.3562 L 6.7456,2.3668 L 6.7456,2.3562 L 6.7346,2.3456 L 6.7346,2.3350 L 6.7235,2.3350 L 6.7125,2.3350 L 6.7125,2.3244 L 6.7015,2.3244 L 6.6904,2.3244 L 6.6794,2.3244 L 6.6683,2.3244 L 6.6573,2.3244 L 6.6463,2.3244 L 6.6352,2.3244 L 6.6242,2.3244 L 6.6131,2.3244 L 6.5911,2.3244 L 6.5800,2.3244 L 6.5579,2.3244 L 6.5469,2.3244 L 6.5248,2.3244 L 6.5027,2.3244 L 6.4807,2.3244 L 6.4586,2.3244 L 6.4365,2.3244 L 6.4144,2.3244 L 6.3923,2.3244 L 6.3703,2.3244 L 6.3482,2.3244 L 6.3261,2.3244 L 6.3040,2.3244 L 6.2819,2.3244 L 6.2599,2.3244 L 6.2378,2.3244 L 6.2157,2.3244 L 6.1936,2.3244 L 6.1715,2.3244 L 6.1605,2.3244 L 6.1494,2.3350 L 6.1494,2.3456 L 6.1384,2.3456 L 6.1384,2.3562 L 6.1384,2.3668 L 6.1384,2.3774 L 6.1384,2.3881 L 6.1384,2.3987 L 6.1384,2.4093 L 6.1384,2.4305 L 6.1384,2.4411 L 6.1384,2.4730 L 6.1384,2.4942 L 6.1384,2.5154 L 6.1384,2.5473 L 6.1384,2.5685 L 6.1384,2.6003 L 6.1384,2.6322 L 6.1384,2.6640 L 6.1384,2.6959 L 6.1384,2.7171 L 6.1384,2.7489 L 6.1384,2.7808 L 6.1384,2.8126 L 6.1384,2.8338 L 6.1384,2.8657 L 6.1384,2.8869 L 6.1384,2.9081 L 6.1384,2.9400 L 6.1384,2.9506 L 6.1384,2.9718 L 6.1384,2.9824 L 6.1384,2.9930 L 6.1384,3.0036 L 6.1384,3.0143 L 6.1384,3.0249 L 6.1384,3.0355 L 6.1494,3.0461 L 6.1494,3.0567 L 6.1605,3.0567 L 6.1494,3.0567 L 6.1384,3.0567 L 6.1274,3.0567 L 6.1163,3.0567 L 6.1053,3.0567 L 6.0942,3.0567 L 6.0832,3.0567 L 6.0722,3.0567 L 6.0611,3.0567 L 6.0501,3.0567 L 6.0390,3.0567 L 6.0280,3.0567 L 6.0170,3.0567 L 6.0059,3.0567 L 5.9949,3.0567 L 5.9838,3.0567 L 5.9728,3.0567 L 5.9618,3.0567 L 5.9507,3.0567 L 5.9397,3.0567 L 5.9397,3.0461 L 5.9286,3.0461 L 5.9286,3.0355 L 5.9286,3.0249 L 5.9176,3.0249 L 5.9176,3.0143 L 5.9176,3.0036 L 5.9176,2.9930 L 5.9176,2.9824 L 5.9176,2.9718 L 5.9176,2.9612 L 5.9176,2.9400 L 5.9176,2.9294 L 5.9176,2.9081 L 5.9176,2.8869 L 5.9176,2.8657 L 5.9176,2.8444 L 5.9176,2.8232 L 5.9176,2.7914 L 5.9176,2.7701 L 5.9176,2.7489 L 5.9176,2.7171 L 5.9176,2.6852 L 5.9176,2.6640 L 5.9176,2.6322 L 5.9176,2.6003 L 5.9176,2.5791 L 5.9176,2.5473 L 5.9176,2.5154 L 5.9176,2.4942 L 5.9176,2.4624 L 5.9176,2.4411 L 5.9176,2.4093 L 5.9176,2.3881 L 5.9176,2.3668 L 5.9176,2.3456 L 5.9176,2.3244 Z" stroke="#000000" stroke-width="0.1196" stroke-linecap="round" stroke-linejoin="round" fill="#000000"/>
        <path d="M 7.0768,3.0143 L 7.0768,3.0249 L 7.0879,3.0355 L 7.0879,3.0461 L 7.0989,3.0461 L 7.1100,3.0461 L 7.1100,3.0567 L 7.1210,3.0567 L 7.1100,3.0567 L 7.0989,3.0567 L 7.0879,3.0567 L 7.0768,3.0567 L 7.0658,3.0567 L 7.0548,3.0567 L 7.0437,3.0567 L 7.0327,3.0567 L 7.0216,3.0567 L 7.0106,3.0567 L 6.9996,3.0567 L 6.9885,3.0567 L 6.9775,3.0567 L 6.9664,3.0567 L 6.9554,3.0567 L 6.9443,3.0567 L 6.9333,3.0567 L 6.9223,3.0567 L 6.9112,3.0567 L 6.9002,3.0567 L 6.9002,3.0461 L 6.8891,3.0461 L 6.8891,3.0355 L 6.8781,3.0355 L 6.8781,3.0249 L 6.8671,3.0249 L 6.8671,3.0143 L 6.8671,3.0036 L 6.8671,2.9930 L 6.8671,2.9824 L 6.8671,2.9718 L 6.8671,2.9506 L 6.8671,2.9294 L 6.8671,2.9081 L 6.8671,2.8763 L 6.8671,2.8444 L 6.8671,2.8126 L 6.8671,2.7808 L 6.8671,2.7489 L 6.8671,2.7065 L 6.8671,2.6746 L 6.8671,2.6322 L 6.8671,2.6003 L 6.8671,2.5579 L 6.8671,2.5154 L 6.8671,2.4836 L 6.8671,2.4411 L 6.8671,2.4093 L 6.8671,2.3774 L 6.8671,2.3456 L 6.8671,2.3138 L 6.8671,2.2819 L 6.8671,2.2607 L 6.8671,2.2395 L 6.8671,2.2182 L 6.8671,2.2076 L 6.8671,2.1970 L 6.8671,2.1864 L 6.8671,2.1758 L 6.8671,2.1652 L 6.8560,2.1652 L 6.8560,2.1546 L 6.8450,2.1546 L 6.8450,2.1439 L 6.8339,2.1439 L 6.8229,2.1439 L 6.8339,2.1439 L 6.8450,2.1439 L 6.8560,2.1439 L 6.8671,2.1439 L 6.8781,2.1439 L 6.8891,2.1439 L 6.9002,2.1439 L 6.9112,2.1439 L 6.9223,2.1439 L 6.9333,2.1439 L 6.9443,2.1439 L 6.9554,2.1439 L 6.9664,2.1439 L 6.9775,2.1439 L 6.9885,2.1439 L 6.9996,2.1439 L 7.0106,2.1439 L 7.0216,2.1439 L 7.0327,2.1439 L 7.0437,2.1546 L 7.0548,2.1546 L 7.0548,2.1652 L 7.0658,2.1652 L 7.0658,2.1758 L 7.0768,2.1758 L 7.0768,2.1864 L 7.0768,2.1970 L 7.0768,2.2076 L 7.0768,2.2182 L 7.0768,2.2289 L 7.0768,2.2501 L 7.0768,2.2713 L 7.0768,2.2925 L 7.0768,2.3244 L 7.0768,2.3562 L 7.0768,2.3881 L 7.0768,2.4199 L 7.0768,2.4517 L 7.0768,2.4942 L 7.0768,2.5260 L 7.0768,2.5685 L 7.0768,2.6109 L 7.0768,2.6428 L 7.0768,2.6852 L 7.0768,2.7171 L 7.0768,2.7595 L 7.0768,2.7914 L 7.0768,2.8232 L 7.0768,2.8551 L 7.0768,2.8869 L 7.0768,2.9187 L 7.0768,2.9400 L 7.0768,2.9612 L 7.0768,2.9824 L 7.0768,2.9930 L 7.0768,3.0036 L 7.0768,3.0143 Z" stroke="#000000" stroke-width="0.1196" stroke-linecap="round" stroke-linejoin="round" fill="#000000"/>
        <path d="M 8.1588,2.3244 L 8.1367,2.3244 L 8.1146,2.3244 L 8.0925,2.3244 L 8.0594,2.3244 L 8.0373,2.3244 L 8.0153,2.3244 L 7.9821,2.3244 L 7.9601,2.3244 L 7.9269,2.3244 L 7.9049,2.3244 L 7.8828,2.3244 L 7.8497,2.3244 L 7.8276,2.3244 L 7.8055,2.3244 L 7.7724,2.3244 L 7.7503,2.3244 L 7.7282,2.3244 L 7.7061,2.3244 L 7.6840,2.3244 L 7.6620,2.3244 L 7.6399,2.3244 L 7.6288,2.3244 L 7.6068,2.3244 L 7.5957,2.3244 L 7.5847,2.3244 L 7.5626,2.3244 L 7.5516,2.3244 L 7.5405,2.3244 L 7.5295,2.3244 L 7.5184,2.3244 L 7.5184,2.3350 L 7.5074,2.3350 L 7.4964,2.3350 L 7.4964,2.3456 L 7.4853,2.3562 L 7.4853,2.3668 L 7.4853,2.3774 L 7.4853,2.3881 L 7.4853,2.3987 L 7.4853,2.4093 L 7.4853,2.4305 L 7.4853,2.4411 L 7.4853,2.4730 L 7.4853,2.4942 L 7.4853,2.5154 L 7.4853,2.5473 L 7.4853,2.5685 L 7.4853,2.6003 L 7.4853,2.6322 L 7.4853,2.6640 L 7.4853,2.6959 L 7.4853,2.7171 L 7.4853,2.7489 L 7.4853,2.7808 L 7.4853,2.8126 L 7.4853,2.8338 L 7.4853,2.8657 L 7.4853,2.8869 L 7.4853,2.9081 L 7.4853,2.9400 L 7.4853,2.9506 L 7.4853,2.9718 L 7.4853,2.9824 L 7.4853,2.9930 L 7.4853,3.0036 L 7.4853,3.0143 L 7.4853,3.0249 L 7.4853,3.0355 L 7.4964,3.0355 L 7.4964,3.0461 L 7.5074,3.0461 L 7.5074,3.0567 L 7.5184,3.0567 L 7.5074,3.0567 L 7.4964,3.0567 L 7.4853,3.0567 L 7.4743,3.0567 L 7.4632,3.0567 L 7.4522,3.0567 L 7.4412,3.0567 L 7.4301,3.0567 L 7.4191,3.0567 L 7.4080,3.0567 L 7.3970,3.0567 L 7.3860,3.0567 L 7.3749,3.0567 L 7.3639,3.0567 L 7.3528,3.0567 L 7.3418,3.0567 L 7.3308,3.0567 L 7.3197,3.0567 L 7.3087,3.0567 L 7.3087,3.0461 L 7.2976,3.0461 L 7.2866,3.0461 L 7.2866,3.0355 L 7.2866,3.0249 L 7.2756,3.0249 L 7.2756,3.0143 L 7.2756,3.0036 L 7.2756,2.9930 L 7.2756,2.9824 L 7.2756,2.9718 L 7.2756,2.9506 L 7.2756,2.9294 L 7.2756,2.9081 L 7.2756,2.8763 L 7.2756,2.8444 L 7.2756,2.8126 L 7.2756,2.7808 L 7.2756,2.7489 L 7.2756,2.7171 L 7.2756,2.6746 L 7.2756,2.6428 L 7.2756,2.6003 L 7.2756,2.5579 L 7.2756,2.5260 L 7.2756,2.4836 L 7.2756,2.4517 L 7.2756,2.4199 L 7.2756,2.3881 L 7.2756,2.3562 L 7.2756,2.3244 L 7.2756,2.2925 L 7.2756,2.2713 L 7.2756,2.2501 L 7.2756,2.2289 L 7.2756,2.2182 L 7.2756,2.2076 L 7.2756,2.1970 L 7.2756,2.1864 L 7.2756,2.1758 L 7.2866,2.1758 L 7.2866,2.1652 L 7.2866,2.1546 L 7.2976,2.1546 L 7.3087,2.1546 L 7.3087,2.1439 L 7.3197,2.1439 L 7.3308,2.1439 L 7.3418,2.1439 L 7.3528,2.1439 L 7.3749,2.1439 L 7.3970,2.1439 L 7.4191,2.1439 L 7.4522,2.1439 L 7.4853,2.1439 L 7.5184,2.1439 L 7.5626,2.1439 L 7.5957,2.1439 L 7.6399,2.1439 L 7.6840,2.1439 L 7.7282,2.1439 L 7.7724,2.1439 L 7.8276,2.1439 L 7.8717,2.1439 L 7.9159,2.1439 L 7.9601,2.1439 L 8.0042,2.1439 L 8.0484,2.1439 L 8.0815,2.1439 L 8.1257,2.1439 L 8.1588,2.1439 L 8.1919,2.1439 L 8.2250,2.1439 L 8.2471,2.1439 L 8.2692,2.1439 L 8.2913,2.1439 L 8.3023,2.1439 L 8.3133,2.1439 L 8.3244,2.1439 L 8.3354,2.1439 L 8.3465,2.1546 L 8.3575,2.1546 L 8.3575,2.1652 L 8.3685,2.1652 L 8.3685,2.1758 L 8.3796,2.1758 L 8.3796,2.1864 L 8.3796,2.1970 L 8.3796,2.2076 L 8.3796,2.2182 L 8.3796,2.2289 L 8.3796,2.2501 L 8.3796,2.2713 L 8.3796,2.2925 L 8.3796,2.3244 L 8.3796,2.3562 L 8.3796,2.3881 L 8.3796,2.4199 L 8.3796,2.4517 L 8.3796,2.4942 L 8.3796,2.5260 L 8.3796,2.5685 L 8.3796,2.6109 L 8.3796,2.6428 L 8.3796,2.6852 L 8.3796,2.7171 L 8.3796,2.7595 L 8.3796,2.7914 L 8.3796,2.8232 L 8.3796,2.8551 L 8.3796,2.8869 L 8.3796,2.9187 L 8.3796,2.9400 L 8.3796,2.9612 L 8.3796,2.9824 L 8.3796,2.9930 L 8.3796,3.0036 L 8.3796,3.0143 L 8.3796,3.0249 L 8.3796,3.0355 L 8.3906,3.0355 L 8.3906,3.0461 L 8.4017,3.0567 L 8.4127,3.0567 L 8.4017,3.0567 L 8.3906,3.0567 L 8.3796,3.0567 L 8.3685,3.0567 L 8.3575,3.0567 L 8.3465,3.0567 L 8.3354,3.0567 L 8.3244,3.0567 L 8.3133,3.0567 L 8.3023,3.0567 L 8.2913,3.0567 L 8.2802,3.0567 L 8.2692,3.0567 L 8.2581,3.0567 L 8.2471,3.0567 L 8.2361,3.0567 L 8.2250,3.0567 L 8.2140,3.0567 L 8.2029,3.0567 L 8.1919,3.0567 L 8.1919,3.0461 L 8.1809,3.0461 L 8.1809,3.0355 L 8.1698,3.0355 L 8.1698,3.0249 L 8.1588,3.0249 L 8.1588,3.0143 L 8.1588,3.0036 L 8.1588,2.9930 L 8.1588,2.9824 L 8.1588,2.9718 L 8.1588,2.9612 L 8.1588,2.9400 L 8.1588,2.9294 L 8.1588,2.9081 L 8.1588,2.8869 L 8.1588,2.8657 L 8.1588,2.8444 L 8.1588,2.8232 L 8.1588,2.7914 L 8.1588,2.7701 L 8.1588,2.7489 L 8.1588,2.7171 L 8.1588,2.6852 L 8.1588,2.6640 L 8.1588,2.6322 L 8.1588,2.6003 L 8.1588,2.5791 L 8.1588,2.5473 L 8.1588,2.5154 L 8.1588,2.4942 L 8.1588,2.4624 L 8.1588,2.4411 L 8.1588,2.4093 L 8.1588,2.3881 L 8.1588,2.3668 L 8.1588,2.3456 L 8.1588,2.3244 Z" stroke="#000000" stroke-width="0.1196" stroke-linecap="round" stroke-linejoin="round" fill="#000000"/>
        <path d="M 9.4615,2.5366 L 9.4395,2.5366 L 9.4284,2.5366 L 9.4063,2.5366 L 9.3843,2.5366 L 9.3622,2.5366 L 9.3291,2.5366 L 9.3070,2.5366 L 9.2849,2.5366 L 9.2518,2.5366 L 9.2297,2.5366 L 9.1966,2.5366 L 9.1745,2.5366 L 9.1414,2.5366 L 9.1193,2.5366 L 9.0862,2.5366 L 9.0641,2.5366 L 9.0310,2.5366 L 9.0089,2.5366 L 8.9758,2.5366 L 8.9537,2.5366 L 8.9316,2.5366 L 8.9095,2.5366 L 8.8874,2.5366 L 8.8654,2.5366 L 8.8543,2.5366 L 8.8322,2.5366 L 8.8212,2.5366 L 8.8102,2.5366 L 8.7991,2.5366 L 8.7881,2.5366 L 8.7770,2.5366 L 8.7660,2.5366 L 8.7660,2.5260 L 8.7550,2.5260 L 8.7550,2.5154 L 8.7439,2.5154 L 8.7439,2.5048 L 8.7329,2.4942 L 8.7329,2.4836 L 8.7329,2.4942 L 8.7329,2.5048 L 8.7329,2.5154 L 8.7329,2.5260 L 8.7329,2.5366 L 8.7329,2.5473 L 8.7329,2.5579 L 8.7329,2.5685 L 8.7329,2.5791 L 8.7329,2.5897 L 8.7329,2.6003 L 8.7329,2.6109 L 8.7329,2.6216 L 8.7329,2.6322 L 8.7329,2.6428 L 8.7329,2.6534 L 8.7329,2.6640 L 8.7439,2.6746 L 8.7439,2.6852 L 8.7550,2.6852 L 8.7550,2.6959 L 8.7660,2.6959 L 8.7660,2.7065 L 8.7770,2.7065 L 8.7881,2.7065 L 8.7991,2.7065 L 8.8102,2.7065 L 8.8212,2.7065 L 8.8322,2.7065 L 8.8543,2.7065 L 8.8764,2.7065 L 8.8874,2.7065 L 8.9095,2.7065 L 8.9316,2.7065 L 8.9647,2.7065 L 8.9868,2.7065 L 9.0089,2.7065 L 9.0420,2.7065 L 9.0641,2.7065 L 9.0972,2.7065 L 9.1193,2.7065 L 9.1524,2.7065 L 9.1855,2.7065 L 9.2076,2.7065 L 9.2407,2.7065 L 9.2628,2.7065 L 9.2959,2.7065 L 9.3180,2.7065 L 9.3401,2.7065 L 9.3622,2.7065 L 9.3843,2.7065 L 9.4063,2.7065 L 9.4284,2.7065 L 9.4505,2.7065 L 9.4615,2.7065 L 9.4726,2.6959 L 9.4836,2.6959 L 9.4836,2.6852 L 9.4947,2.6746 L 9.5057,2.6640 L 9.5057,2.6534 L 9.5167,2.6534 L 9.5167,2.6428 L 9.5167,2.6322 L 9.5278,2.6322 L 9.5278,2.6216 L 9.5278,2.6109 L 9.5278,2.6003 L 9.5278,2.5897 L 9.5278,2.5791 L 9.5167,2.5791 L 9.5167,2.5685 L 9.5167,2.5579 L 9.5057,2.5579 L 9.4947,2.5473 L 9.4836,2.5473 L 9.4836,2.5366 L 9.4726,2.5366 L 9.4615,2.5366 Z" stroke="#000000" stroke-width="0.1196" stroke-linecap="round" stroke-linejoin="round" fill="#000000"/>
        <path d="M 9.9915,2.3244 L 9.9804,2.3244 L 9.9694,2.3244 L 9.9584,2.3244 L 9.9363,2.3244 L 9.9252,2.3244 L 9.9142,2.3244 L 9.9032,2.3244 L 9.8921,2.3244 L 9.8811,2.3244 L 9.8700,2.3244 L 9.8590,2.3244 L 9.8479,2.3244 L 9.8369,2.3244 L 9.8259,2.3244 L 9.8148,2.3244 L 9.8038,2.3244 L 9.7927,2.3244 L 9.7817,2.3244 L 9.7707,2.3244 L 9.7596,2.3244 L 9.7486,2.3138 L 9.7375,2.3138 L 9.7375,2.3032 L 9.7265,2.3032 L 9.7265,2.2925 L 9.7265,2.2819 L 9.7155,2.2819 L 9.7155,2.2713 L 9.7155,2.2607 L 9.7155,2.2501 L 9.7155,2.2395 L 9.7155,2.2289 L 9.7155,2.2182 L 9.7155,2.2076 L 9.7155,2.1970 L 9.7155,2.1864 L 9.7155,2.1758 L 9.7265,2.1758 L 9.7265,2.1652 L 9.7375,2.1652 L 9.7375,2.1546 L 9.7486,2.1546 L 9.7486,2.1439 L 9.7596,2.1439 L 9.7707,2.1439 L 9.7817,2.1439 L 9.7927,2.1439 L 9.8148,2.1439 L 9.8369,2.1439 L 9.8590,2.1439 L 9.8921,2.1439 L 9.9252,2.1439 L 9.9584,2.1439 L 10.0025,2.1439 L 10.0467,2.1439 L 10.0798,2.1439 L 10.1240,2.1439 L 10.1792,2.1439 L 10.2233,2.1439 L 10.2675,2.1439 L 10.3116,2.1439 L 10.3558,2.1439 L 10.4110,2.1439 L 10.4552,2.1439 L 10.4883,2.1439 L 10.5324,2.1439 L 10.5766,2.1439 L 10.6097,2.1439 L 10.6429,2.1439 L 10.6760,2.1439 L 10.6981,2.1439 L 10.7201,2.1439 L 10.7422,2.1439 L 10.7533,2.1439 L 10.7643,2.1439 L 10.7753,2.1439 L 10.7864,2.1439 L 10.7864,2.1546 L 10.7974,2.1546 L 10.7974,2.1652 L 10.8085,2.1652 L 10.8085,2.1758 L 10.8195,2.1758 L 10.8195,2.1864 L 10.8195,2.1970 L 10.8195,2.2076 L 10.8195,2.2182 L 10.8195,2.2289 L 10.8195,2.2395 L 10.8195,2.2501 L 10.8195,2.2607 L 10.8195,2.2713 L 10.8195,2.2819 L 10.8195,2.2925 L 10.8195,2.3032 L 10.8195,2.3138 L 10.8195,2.3244 L 10.8195,2.3350 L 10.8195,2.3456 L 10.8195,2.3562 L 10.8195,2.3668 L 10.8195,2.3562 L 10.8085,2.3456 L 10.8085,2.3350 L 10.7974,2.3350 L 10.7864,2.3350 L 10.7864,2.3244 L 10.7753,2.3244 L 10.7643,2.3244 L 10.7533,2.3244 L 10.7422,2.3244 L 10.7312,2.3244 L 10.7201,2.3244 L 10.7091,2.3244 L 10.6981,2.3244 L 10.6870,2.3244 L 10.6649,2.3244 L 10.6539,2.3244 L 10.6318,2.3244 L 10.6208,2.3244 L 10.5987,2.3244 L 10.5766,2.3244 L 10.5545,2.3244 L 10.5324,2.3244 L 10.5104,2.3244 L 10.4883,2.3244 L 10.4662,2.3244 L 10.4441,2.3244 L 10.4220,2.3244 L 10.4000,2.3244 L 10.3779,2.3244 L 10.3558,2.3244 L 10.3337,2.3244 L 10.3116,2.3244 L 10.2896,2.3244 L 10.2675,2.3244 L 10.2454,2.3244 L 10.2344,2.3244 L 10.2233,2.3350 L 10.2233,2.3456 L 10.2123,2.3456 L 10.2123,2.3562 L 10.2123,2.3668 L 10.2123,2.3774 L 10.2123,2.3881 L 10.2123,2.3987 L 10.2123,2.4093 L 10.2123,2.4305 L 10.2123,2.4411 L 10.2123,2.4730 L 10.2123,2.4942 L 10.2123,2.5154 L 10.2123,2.5473 L 10.2123,2.5685 L 10.2123,2.6003 L 10.2123,2.6322 L 10.2123,2.6640 L 10.2123,2.6959 L 10.2123,2.7171 L 10.2123,2.7489 L 10.2123,2.7808 L 10.2123,2.8126 L 10.2123,2.8338 L 10.2123,2.8657 L 10.2123,2.8869 L 10.2123,2.9081 L 10.2123,2.9400 L 10.2123,2.9506 L 10.2123,2.9718 L 10.2123,2.9824 L 10.2123,2.9930 L 10.2123,3.0036 L 10.2123,3.0143 L 10.2123,3.0249 L 10.2123,3.0355 L 10.2233,3.0461 L 10.2233,3.0567 L 10.2344,3.0567 L 10.2233,3.0567 L 10.2123,3.0567 L 10.2012,3.0567 L 10.1902,3.0567 L 10.1792,3.0567 L 10.1681,3.0567 L 10.1571,3.0567 L 10.1460,3.0567 L 10.1350,3.0567 L 10.1240,3.0567 L 10.1129,3.0567 L 10.1019,3.0567 L 10.0908,3.0567 L 10.0798,3.0567 L 10.0688,3.0567 L 10.0577,3.0567 L 10.0467,3.0567 L 10.0356,3.0567 L 10.0246,3.0567 L 10.0136,3.0567 L 10.0136,3.0461 L 10.0025,3.0461 L 10.0025,3.0355 L 10.0025,3.0249 L 9.9915,3.0249 L 9.9915,3.0143 L 9.9915,3.0036 L 9.9915,2.9930 L 9.9915,2.9824 L 9.9915,2.9718 L 9.9915,2.9612 L 9.9915,2.9400 L 9.9915,2.9294 L 9.9915,2.9081 L 9.9915,2.8869 L 9.9915,2.8657 L 9.9915,2.8444 L 9.9915,2.8232 L 9.9915,2.7914 L 9.9915,2.7701 L 9.9915,2.7489 L 9.9915,2.7171 L 9.9915,2.6852 L 9.9915,2.6640 L 9.9915,2.6322 L 9.9915,2.6003 L 9.9915,2.5791 L 9.9915,2.5473 L 9.9915,2.5154 L 9.9915,2.4942 L 9.9915,2.4624 L 9.9915,2.4411 L 9.9915,2.4093 L 9.9915,2.3881 L 9.9915,2.3668 L 9.9915,2.3456 L 9.9915,2.3244 Z" stroke="#000000" stroke-width="0.1196" stroke-linecap="round" stroke-linejoin="round" fill="#000000"/>
        <path d="M 9.5388,2.8763 L 9.5499,2.8763 L 9.5499,2.8657 L 9.5609,2.8657 L 9.5719,2.8657 L 9.5719,2.8551 L 9.5830,2.8444 L 9.5830,2.8338 L 9.5830,2.8444 L 9.5830,2.8551 L 9.5830,2.8657 L 9.5830,2.8763 L 9.5830,2.8869 L 9.5830,2.8975 L 9.5830,2.9081 L 9.5830,2.9187 L 9.5830,2.9294 L 9.5830,2.9400 L 9.5830,2.9506 L 9.5830,2.9612 L 9.5830,2.9718 L 9.5830,2.9824 L 9.5830,2.9930 L 9.5830,3.0036 L 9.5830,3.0143 L 9.5830,3.0249 L 9.5719,3.0249 L 9.5719,3.0355 L 9.5609,3.0355 L 9.5609,3.0461 L 9.5499,3.0461 L 9.5499,3.0567 L 9.5388,3.0567 L 9.5278,3.0567 L 9.5167,3.0567 L 9.5057,3.0567 L 9.4836,3.0567 L 9.4615,3.0567 L 9.4395,3.0567 L 9.4063,3.0567 L 9.3732,3.0567 L 9.3401,3.0567 L 9.2959,3.0567 L 9.2518,3.0567 L 9.2187,3.0567 L 9.1745,3.0567 L 9.1193,3.0567 L 9.0751,3.0567 L 9.0310,3.0567 L 8.9868,3.0567 L 8.9426,3.0567 L 8.8874,3.0567 L 8.8433,3.0567 L 8.8102,3.0567 L 8.7660,3.0567 L 8.7218,3.0567 L 8.6887,3.0567 L 8.6556,3.0567 L 8.6225,3.0567 L 8.6004,3.0567 L 8.5783,3.0567 L 8.5562,3.0567 L 8.5452,3.0567 L 8.5342,3.0567 L 8.5231,3.0567 L 8.5121,3.0567 L 8.5121,3.0461 L 8.5010,3.0461 L 8.5010,3.0355 L 8.4900,3.0355 L 8.4900,3.0249 L 8.4790,3.0249 L 8.4790,3.0143 L 8.4790,3.0036 L 8.4790,2.9930 L 8.4790,2.9824 L 8.4790,2.9718 L 8.4790,2.9506 L 8.4790,2.9294 L 8.4790,2.9081 L 8.4790,2.8763 L 8.4790,2.8444 L 8.4790,2.8126 L 8.4790,2.7808 L 8.4790,2.7489 L 8.4790,2.7171 L 8.4790,2.6746 L 8.4790,2.6428 L 8.4790,2.6003 L 8.4790,2.5579 L 8.4790,2.5260 L 8.4790,2.4836 L 8.4790,2.4517 L 8.4790,2.4199 L 8.4790,2.3881 L 8.4790,2.3562 L 8.4790,2.3244 L 8.4790,2.2925 L 8.4790,2.2713 L 8.4790,2.2501 L 8.4790,2.2289 L 8.4790,2.2182 L 8.4790,2.2076 L 8.4790,2.1970 L 8.4790,2.1864 L 8.4790,2.1758 L 8.4900,2.1758 L 8.4900,2.1652 L 8.5010,2.1652 L 8.5010,2.1546 L 8.5121,2.1546 L 8.5121,2.1439 L 8.5231,2.1439 L 8.5342,2.1439 L 8.5452,2.1439 L 8.5562,2.1439 L 8.5783,2.1439 L 8.6004,2.1439 L 8.6225,2.1439 L 8.6556,2.1439 L 8.6887,2.1439 L 8.7218,2.1439 L 8.7660,2.1439 L 8.8102,2.1439 L 8.8433,2.1439 L 8.8874,2.1439 L 8.9426,2.1439 L 8.9868,2.1439 L 9.0310,2.1439 L 9.0751,2.1439 L 9.1193,2.1439 L 9.1745,2.1439 L 9.2187,2.1439 L 9.2518,2.1439 L 9.2959,2.1439 L 9.3401,2.1439 L 9.3732,2.1439 L 9.4063,2.1439 L 9.4395,2.1439 L 9.4615,2.1439 L 9.4836,2.1439 L 9.5057,2.1439 L 9.5167,2.1439 L 9.5278,2.1439 L 9.5388,2.1439 L 9.5499,2.1439 L 9.5499,2.1546 L 9.5609,2.1546 L 9.5609,2.1652 L 9.5719,2.1652 L 9.5719,2.1758 L 9.5830,2.1758 L 9.5830,2.1864 L 9.5830,2.1970 L 9.5830,2.2076 L 9.5830,2.2182 L 9.5830,2.2289 L 9.5830,2.2395 L 9.5830,2.2501 L 9.5830,2.2607 L 9.5830,2.2713 L 9.5830,2.2819 L 9.5830,2.2925 L 9.5830,2.3032 L 9.5830,2.3138 L 9.5830,2.3244 L 9.5830,2.3350 L 9.5830,2.3456 L 9.5830,2.3562 L 9.5830,2.3668 L 9.5830,2.3562 L 9.5719,2.3456 L 9.5719,2.3350 L 9.5609,2.3350 L 9.5499,2.3350 L 9.5499,2.3244 L 9.5388,2.3244 L 9.5278,2.3244 L 9.5167,2.3244 L 9.5057,2.3244 L 9.4836,2.3244 L 9.4615,2.3244 L 9.4395,2.3244 L 9.4174,2.3244 L 9.3843,2.3244 L 9.3511,2.3244 L 9.3180,2.3244 L 9.2849,2.3244 L 9.2518,2.3244 L 9.2187,2.3244 L 9.1745,2.3244 L 9.1414,2.3244 L 9.1082,2.3244 L 9.0641,2.3244 L 9.0310,2.3244 L 8.9978,2.3244 L 8.9647,2.3244 L 8.9316,2.3244 L 8.8985,2.3244 L 8.8654,2.3244 L 8.8433,2.3244 L 8.8212,2.3244 L 8.7991,2.3244 L 8.7770,2.3244 L 8.7660,2.3244 L 8.7550,2.3244 L 8.7439,2.3244 L 8.7329,2.3244 L 8.7218,2.3244 L 8.7218,2.3350 L 8.7108,2.3350 L 8.7108,2.3456 L 8.6998,2.3456 L 8.6998,2.3562 L 8.6998,2.3668 L 8.6998,2.3774 L 8.6998,2.3881 L 8.6998,2.3987 L 8.6998,2.4093 L 8.6998,2.4199 L 8.6998,2.4305 L 8.6998,2.4517 L 8.6998,2.4624 L 8.6998,2.4730 L 8.6998,2.4942 L 8.6998,2.5154 L 8.6998,2.5260 L 8.6998,2.5473 L 8.6998,2.5685 L 8.6998,2.5897 L 8.6998,2.6109 L 8.6998,2.6322 L 8.6998,2.6534 L 8.6998,2.6746 L 8.6998,2.6959 L 8.6998,2.7171 L 8.6998,2.7383 L 8.6998,2.7595 L 8.6998,2.7808 L 8.6998,2.8020 L 8.6998,2.8232 L 8.6998,2.8338 L 8.6998,2.8551 L 8.6998,2.8763 L 8.7108,2.8763 L 8.7218,2.8763 L 8.7329,2.8763 L 8.7550,2.8763 L 8.7770,2.8763 L 8.7991,2.8763 L 8.8322,2.8763 L 8.8654,2.8763 L 8.8985,2.8763 L 8.9316,2.8763 L 8.9647,2.8763 L 8.9978,2.8763 L 9.0420,2.8763 L 9.0751,2.8763 L 9.1193,2.8763 L 9.1635,2.8763 L 9.1966,2.8763 L 9.2407,2.8763 L 9.2739,2.8763 L 9.3070,2.8763 L 9.3401,2.8763 L 9.3732,2.8763 L 9.4063,2.8763 L 9.4395,2.8763 L 9.4615,2.8763 L 9.4836,2.8763 L 9.5057,2.8763 L 9.5167,2.8763 L 9.5278,2.8763 L 9.5388,2.8763 Z" stroke="#000000" stroke-width="0.1196" stroke-linecap="round" stroke-linejoin="round" fill="#000000"/>
        <path d="M 3.5771,2.7808 L 3.5771,3.0567 L 3.9303,3.0567 L 3.9303,2.7808 L 3.5771,2.7808 Z" stroke="#ED3440" stroke-width="0.1196" stroke-linecap="round" stroke-linejoin="round" fill="#ED3440"/>
        <path d="M 3.1906,2.4624 L 3.4998,2.4624 L 3.4998,2.7383 L 3.1906,2.7383 L 3.1906,2.4624 Z" stroke="#ED3440" stroke-width="0.1196" stroke-linecap="round" stroke-linejoin="round" fill="#ED3440"/>
        <path d="M 3.9855,2.7914 L 3.9855,2.8020 L 3.9855,2.8126 L 3.9855,2.8232 L 3.9855,2.8338 L 3.9855,2.8444 L 3.9855,2.8551 L 3.9855,2.8657 L 3.9855,2.8763 L 3.9855,2.8869 L 3.9855,2.9081 L 3.9855,2.9187 L 3.9855,2.9294 L 3.9855,2.9400 L 3.9855,2.9506 L 3.9855,2.9718 L 3.9855,2.9824 L 3.9855,2.9930 L 3.9855,3.0036 L 3.9855,3.0143 L 3.9855,3.0249 L 3.9855,3.0355 L 3.9855,3.0461 L 3.9855,3.0567 L 3.9855,3.0673 L 3.9966,3.0673 L 4.0187,3.0673 L 4.0297,3.0673 L 4.0408,3.0673 L 4.0628,3.0673 L 4.0739,3.0673 L 4.0849,3.0673 L 4.0960,3.0673 L 4.1180,3.0567 L 4.1291,3.0567 L 4.1401,3.0567 L 4.1512,3.0567 L 4.1622,3.0461 L 4.1732,3.0461 L 4.1843,3.0355 L 4.1953,3.0355 L 4.2064,3.0249 L 4.2174,3.0143 L 4.2284,3.0143 L 4.2395,3.0036 L 4.2505,2.9930 L 4.2505,2.9824 L 4.2616,2.9612 L 4.2726,2.9506 L 4.2726,2.9400 L 4.2836,2.9187 L 4.2836,2.8975 L 4.2836,2.8869 L 4.2947,2.8657 L 4.2947,2.8444 L 4.2947,2.8126 L 4.2947,2.7914 L 4.2836,2.7914 L 4.2726,2.7914 L 4.2616,2.7914 L 4.2505,2.7914 L 4.2395,2.7914 L 4.2284,2.7914 L 4.2064,2.7914 L 4.1953,2.7914 L 4.1843,2.7914 L 4.1732,2.7914 L 4.1512,2.7914 L 4.1401,2.7914 L 4.1291,2.7914 L 4.1070,2.7914 L 4.0960,2.7914 L 4.0849,2.7914 L 4.0739,2.7914 L 4.0518,2.7914 L 4.0408,2.7914 L 4.0297,2.7914 L 4.0187,2.7914 L 4.0076,2.7914 L 3.9966,2.7914 L 3.9855,2.7914 Z" stroke="#ED3440" stroke-width="0.1196" stroke-linecap="round" stroke-linejoin="round" fill="#ED3440"/>
        <path d="M 3.9855,2.4624 L 4.2947,2.4624 L 4.2947,2.7383 L 3.9855,2.7383 L 3.9855,2.4624 Z" stroke="#ED3440" stroke-width="0.1196" stroke-linecap="round" stroke-linejoin="round" fill="#ED3440"/>
        <path d="M 3.4998,2.7914 L 3.4998,2.8020 L 3.4998,2.8126 L 3.4998,2.8232 L 3.4998,2.8338 L 3.4998,2.8444 L 3.4998,2.8551 L 3.4998,2.8657 L 3.4998,2.8763 L 3.4998,2.8869 L 3.4998,2.9081 L 3.4998,2.9187 L 3.4998,2.9294 L 3.4998,2.9400 L 3.4998,2.9506 L 3.4998,2.9718 L 3.4998,2.9824 L 3.4998,2.9930 L 3.4998,3.0036 L 3.4998,3.0143 L 3.4998,3.0249 L 3.4998,3.0355 L 3.4998,3.0461 L 3.4998,3.0567 L 3.4998,3.0673 L 3.4887,3.0673 L 3.4777,3.0673 L 3.4556,3.0673 L 3.4446,3.0673 L 3.4335,3.0673 L 3.4225,3.0673 L 3.4004,3.0673 L 3.3894,3.0673 L 3.3783,3.0567 L 3.3673,3.0567 L 3.3563,3.0567 L 3.3452,3.0567 L 3.3342,3.0461 L 3.3231,3.0461 L 3.3121,3.0355 L 3.3011,3.0355 L 3.2900,3.0249 L 3.2790,3.0143 L 3.2679,3.0143 L 3.2569,3.0036 L 3.2458,2.9930 L 3.2348,2.9824 L 3.2348,2.9612 L 3.2238,2.9506 L 3.2127,2.9400 L 3.2127,2.9187 L 3.2017,2.8975 L 3.2017,2.8869 L 3.2017,2.8657 L 3.1906,2.8444 L 3.1906,2.8126 L 3.1906,2.7914 L 3.2017,2.7914 L 3.2127,2.7914 L 3.2238,2.7914 L 3.2348,2.7914 L 3.2458,2.7914 L 3.2569,2.7914 L 3.2790,2.7914 L 3.2900,2.7914 L 3.3011,2.7914 L 3.3121,2.7914 L 3.3342,2.7914 L 3.3452,2.7914 L 3.3563,2.7914 L 3.3783,2.7914 L 3.3894,2.7914 L 3.4004,2.7914 L 3.4115,2.7914 L 3.4335,2.7914 L 3.4446,2.7914 L 3.4556,2.7914 L 3.4667,2.7914 L 3.4777,2.7914 L 3.4887,2.7914 L 3.4998,2.7914 Z" stroke="#ED3440" stroke-width="0.1196" stroke-linecap="round" stroke-linejoin="round" fill="#ED3440"/>
        <path d="M 3.5771,2.1333 L 3.5771,2.4093 L 3.9303,2.4093 L 3.9303,2.1333 L 3.5771,2.1333 Z" stroke="#ED3440" stroke-width="0.1196" stroke-linecap="round" stroke-linejoin="round" fill="#ED3440"/>
        <path d="M 3.9855,2.4093 L 3.9855,2.3987 L 3.9855,2.3881 L 3.9855,2.3774 L 3.9855,2.3668 L 3.9855,2.3562 L 3.9855,2.3456 L 3.9855,2.3350 L 3.9855,2.3244 L 3.9855,2.3138 L 3.9855,2.2925 L 3.9855,2.2819 L 3.9855,2.2713 L 3.9855,2.2607 L 3.9855,2.2501 L 3.9855,2.2289 L 3.9855,2.2182 L 3.9855,2.2076 L 3.9855,2.1970 L 3.9855,2.1864 L 3.9855,2.1758 L 3.9855,2.1652 L 3.9855,2.1546 L 3.9855,2.1439 L 3.9855,2.1333 L 3.9966,2.1333 L 4.0187,2.1333 L 4.0297,2.1333 L 4.0408,2.1333 L 4.0628,2.1333 L 4.0739,2.1333 L 4.0849,2.1333 L 4.0960,2.1333 L 4.1180,2.1439 L 4.1291,2.1439 L 4.1401,2.1439 L 4.1512,2.1439 L 4.1622,2.1546 L 4.1732,2.1546 L 4.1843,2.1652 L 4.1953,2.1652 L 4.2064,2.1758 L 4.2174,2.1864 L 4.2284,2.1864 L 4.2395,2.1970 L 4.2505,2.2076 L 4.2505,2.2182 L 4.2616,2.2395 L 4.2726,2.2501 L 4.2726,2.2607 L 4.2836,2.2819 L 4.2836,2.3032 L 4.2836,2.3138 L 4.2947,2.3350 L 4.2947,2.3562 L 4.2947,2.3881 L 4.2947,2.4093 L 4.2836,2.4093 L 4.2726,2.4093 L 4.2616,2.4093 L 4.2505,2.4093 L 4.2395,2.4093 L 4.2284,2.4093 L 4.2064,2.4093 L 4.1953,2.4093 L 4.1843,2.4093 L 4.1732,2.4093 L 4.1512,2.4093 L 4.1401,2.4093 L 4.1291,2.4093 L 4.1070,2.4093 L 4.0960,2.4093 L 4.0849,2.4093 L 4.0739,2.4093 L 4.0518,2.4093 L 4.0408,2.4093 L 4.0297,2.4093 L 4.0187,2.4093 L 4.0076,2.4093 L 3.9966,2.4093 L 3.9855,2.4093 Z" stroke="#ED3440" stroke-width="0.1196" stroke-linecap="round" stroke-linejoin="round" fill="#ED3440"/>
        <path d="M 3.4998,2.4093 L 3.4998,2.3987 L 3.4998,2.3881 L 3.4998,2.3774 L 3.4998,2.3668 L 3.4998,2.3562 L 3.4998,2.3456 L 3.4998,2.3350 L 3.4998,2.3244 L 3.4998,2.3138 L 3.4998,2.2925 L 3.4998,2.2819 L 3.4998,2.2713 L 3.4998,2.2607 L 3.4998,2.2501 L 3.4998,2.2289 L 3.4998,2.2182 L 3.4998,2.2076 L 3.4998,2.1970 L 3.4998,2.1864 L 3.4998,2.1758 L 3.4998,2.1652 L 3.4998,2.1546 L 3.4998,2.1439 L 3.4998,2.1333 L 3.4887,2.1333 L 3.4777,2.1333 L 3.4556,2.1333 L 3.4446,2.1333 L 3.4335,2.1333 L 3.4225,2.1333 L 3.4004,2.1333 L 3.3894,2.1333 L 3.3783,2.1439 L 3.3673,2.1439 L 3.3563,2.1439 L 3.3452,2.1439 L 3.3342,2.1546 L 3.3231,2.1546 L 3.3121,2.1652 L 3.3011,2.1652 L 3.2900,2.1758 L 3.2790,2.1864 L 3.2679,2.1864 L 3.2569,2.1970 L 3.2458,2.2076 L 3.2348,2.2182 L 3.2348,2.2395 L 3.2238,2.2501 L 3.2127,2.2607 L 3.2127,2.2819 L 3.2017,2.3032 L 3.2017,2.3138 L 3.2017,2.3350 L 3.1906,2.3562 L 3.1906,2.3881 L 3.1906,2.4093 L 3.2017,2.4093 L 3.2127,2.4093 L 3.2238,2.4093 L 3.2348,2.4093 L 3.2458,2.4093 L 3.2569,2.4093 L 3.2790,2.4093 L 3.2900,2.4093 L 3.3011,2.4093 L 3.3121,2.4093 L 3.3342,2.4093 L 3.3452,2.4093 L 3.3563,2.4093 L 3.3783,2.4093 L 3.3894,2.4093 L 3.4004,2.4093 L 3.4115,2.4093 L 3.4335,2.4093 L 3.4446,2.4093 L 3.4556,2.4093 L 3.4667,2.4093 L 3.4777,2.4093 L 3.4887,2.4093 L 3.4998,2.4093 Z" stroke="#ED3440" stroke-width="0.1196" stroke-linecap="round" stroke-linejoin="round" fill="#ED3440"/>
        <text font-family="Symbol" fill="#000000" style="white-space:pre;" text-anchor="start" x="10.3909" y="3.0683" font-size="0.5502"><![CDATA[]]></text>
        <path d="M 42.6721,3.4182 L 38.7675,3.4182 L 38.7675,6.1417 L 42.6721,6.1417 L 42.6721,3.4182 " stroke="#000000" stroke-width="0.1196" stroke-linecap="round" stroke-linejoin="round" fill="none"/>
        <path d="M 29.7324,2.3593 L 29.7185,2.3593 L 29.7046,2.3593 L 29.6907,2.3593 L 29.6907,2.3734 L 29.6768,2.3734 L 29.6768,2.3874 L 29.6629,2.3874 L 29.6629,2.4015 L 29.6629,2.4155 L 29.6629,2.4295 L 29.6629,2.4436 L 29.6629,2.4717 L 29.6629,2.5138 L 29.6629,2.5700 L 29.6629,2.6402 L 29.6629,2.7245 L 29.6629,2.8228 L 29.6629,2.9351 L 29.6629,3.0475 L 29.6629,3.1739 L 29.6629,3.3002 L 29.6629,3.4407 L 29.6629,3.5811 L 29.6629,3.7356 L 29.6629,3.8760 L 29.6629,4.0305 L 29.6629,4.1850 L 29.6629,4.3254 L 29.6629,4.4799 L 29.6629,4.6203 L 29.6629,4.7608 L 29.6629,4.8872 L 29.6629,5.0136 L 29.6629,5.1259 L 29.6629,5.2383 L 29.6629,5.3366 L 29.6629,5.4208 L 29.6629,5.4910 L 29.6629,5.5472 L 29.6629,5.5894 L 29.6629,5.6174 L 29.6629,5.6315 L 29.6629,5.6455 L 29.6629,5.6596 L 29.6629,5.6736 L 29.6768,5.6736 L 29.6768,5.6877 L 29.6907,5.6877 L 29.6907,5.7017 L 29.7046,5.7017 L 29.7185,5.7017 L 29.7324,5.7017 L 29.7463,5.7017 L 29.7602,5.7017 L 29.7880,5.7017 L 29.8158,5.7017 L 29.8436,5.7017 L 29.8714,5.7017 L 29.9131,5.7017 L 29.9548,5.7017 L 30.0104,5.7017 L 30.0521,5.7017 L 30.1077,5.7017 L 30.1633,5.7017 L 30.2189,5.7017 L 30.2745,5.7017 L 30.3301,5.7017 L 30.3718,5.7017 L 30.4274,5.7017 L 30.4830,5.7017 L 30.5386,5.7017 L 30.5942,5.7017 L 30.6359,5.7017 L 30.6915,5.7017 L 30.7332,5.7017 L 30.7749,5.7017 L 30.8027,5.7017 L 30.8305,5.7017 L 30.8583,5.7017 L 30.8861,5.7017 L 30.9000,5.7017 L 30.9139,5.7017 L 30.9278,5.7017 L 30.9417,5.7017 L 30.9417,5.6877 L 30.9556,5.6877 L 30.9695,5.6877 L 30.9695,5.6736 L 30.9695,5.6596 L 30.9834,5.6596 L 30.9834,5.6455 L 30.9834,5.6315 L 30.9834,5.6174 L 30.9834,5.5894 L 30.9834,5.5472 L 30.9834,5.4910 L 30.9834,5.4208 L 30.9834,5.3366 L 30.9834,5.2383 L 30.9834,5.1259 L 30.9834,5.0136 L 30.9834,4.8872 L 30.9834,4.7608 L 30.9834,4.6203 L 30.9834,4.4799 L 30.9834,4.3254 L 30.9834,4.1850 L 30.9834,4.0305 L 30.9834,3.8760 L 30.9834,3.7356 L 30.9834,3.5811 L 30.9834,3.4407 L 30.9834,3.3002 L 30.9834,3.1739 L 30.9834,3.0475 L 30.9834,2.9351 L 30.9834,2.8228 L 30.9834,2.7245 L 30.9834,2.6402 L 30.9834,2.5700 L 30.9834,2.5138 L 30.9834,2.4717 L 30.9834,2.4436 L 30.9834,2.4295 L 30.9834,2.4155 L 30.9834,2.4015 L 30.9695,2.4015 L 30.9695,2.3874 L 30.9695,2.3734 L 30.9556,2.3734 L 30.9417,2.3734 L 30.9417,2.3593 L 30.9278,2.3593 L 30.9139,2.3593 L 30.9000,2.3593 L 30.8861,2.3593 L 30.8583,2.3593 L 30.8305,2.3593 L 30.8027,2.3593 L 30.7749,2.3593 L 30.7332,2.3593 L 30.6915,2.3593 L 30.6359,2.3593 L 30.5942,2.3593 L 30.5386,2.3593 L 30.4830,2.3593 L 30.4274,2.3593 L 30.3718,2.3593 L 30.3301,2.3593 L 30.2745,2.3593 L 30.2189,2.3593 L 30.1633,2.3593 L 30.1077,2.3593 L 30.0521,2.3593 L 30.0104,2.3593 L 29.9548,2.3593 L 29.9131,2.3593 L 29.8714,2.3593 L 29.8436,2.3593 L 29.8158,2.3593 L 29.7880,2.3593 L 29.7602,2.3593 L 29.7463,2.3593 L 29.7324,2.3593 Z" stroke="#333333" stroke-width="0.1196" stroke-linecap="round" stroke-linejoin="round" fill="#BFBFBF"/>
        <path d="M 30.8583,2.4015 L 30.8722,2.4015 L 30.8861,2.4015 L 30.8861,2.4155 L 30.9000,2.4155 L 30.9139,2.4155 L 30.9139,2.4295 L 30.9278,2.4295 L 30.9278,2.4436 L 30.9278,2.4576 L 30.9278,2.4717 L 30.9278,2.4857 L 30.9278,2.5278 L 30.9278,2.5981 L 30.9278,2.6683 L 30.9278,2.7385 L 30.9278,2.8368 L 30.9278,2.9492 L 30.9278,3.0615 L 30.9278,3.1739 L 30.9278,3.3143 L 30.9278,3.4407 L 30.9278,3.5811 L 30.9278,3.7216 L 30.9278,3.8760 L 30.9278,4.0165 L 30.9278,4.1569 L 30.9278,4.3114 L 30.9278,4.4518 L 30.9278,4.5923 L 30.9278,4.7186 L 30.9278,4.8591 L 30.9278,4.9714 L 30.9278,5.0838 L 30.9278,5.1961 L 30.9278,5.2944 L 30.9278,5.3647 L 30.9278,5.4349 L 30.9278,5.5051 L 30.9278,5.5472 L 30.9278,5.5613 L 30.9278,5.5753 L 30.9278,5.5894 L 30.9278,5.6034 L 30.9139,5.6034 L 30.9139,5.6174 L 30.9000,5.6174 L 30.8861,5.6174 L 30.8861,5.6315 L 30.8722,5.6315 L 30.8583,5.6315 L 30.8444,5.6315 L 30.8305,5.6315 L 30.8166,5.6315 L 30.7888,5.6315 L 30.7610,5.6315 L 30.7193,5.6315 L 30.6915,5.6315 L 30.6498,5.6315 L 30.6081,5.6315 L 30.5664,5.6315 L 30.5108,5.6315 L 30.4691,5.6315 L 30.4135,5.6315 L 30.3718,5.6315 L 30.3162,5.6315 L 30.2606,5.6315 L 30.2189,5.6315 L 30.1633,5.6315 L 30.1216,5.6315 L 30.0660,5.6315 L 30.0243,5.6315 L 29.9826,5.6315 L 29.9409,5.6315 L 29.9131,5.6315 L 29.8714,5.6315 L 29.8436,5.6315 L 29.8158,5.6315 L 29.8019,5.6315 L 29.7880,5.6315 L 29.7741,5.6315 L 29.7602,5.6315 L 29.7463,5.6315 L 29.7463,5.6174 L 29.7324,5.6174 L 29.7185,5.6034 L 29.7185,5.5894 L 29.7046,5.5894 L 29.7046,5.5753 L 29.7046,5.5613 L 29.7046,5.5472 L 29.7046,5.5051 L 29.7046,5.4349 L 29.7046,5.3647 L 29.7046,5.2944 L 29.7046,5.1961 L 29.7046,5.0838 L 29.7046,4.9714 L 29.7046,4.8591 L 29.7046,4.7186 L 29.7046,4.5923 L 29.7046,4.4518 L 29.7046,4.3114 L 29.7046,4.1569 L 29.7046,4.0165 L 29.7046,3.8760 L 29.7046,3.7216 L 29.7046,3.5811 L 29.7046,3.4407 L 29.7046,3.3143 L 29.7046,3.1739 L 29.7046,3.0615 L 29.7046,2.9492 L 29.7046,2.8368 L 29.7046,2.7385 L 29.7046,2.6683 L 29.7046,2.5981 L 29.7046,2.5278 L 29.7046,2.4857 L 29.7046,2.4717 L 29.7046,2.4576 L 29.7046,2.4436 L 29.7185,2.4436 L 29.7185,2.4295 L 29.7324,2.4155 L 29.7463,2.4155 L 29.7463,2.4015 L 29.7602,2.4015 L 29.7741,2.4015 L 29.7880,2.4015 L 29.8019,2.4015 L 29.8158,2.4015 L 29.8436,2.4015 L 29.8714,2.4015 L 29.9131,2.4015 L 29.9409,2.4015 L 29.9826,2.4015 L 30.0243,2.4015 L 30.0660,2.4015 L 30.1216,2.4015 L 30.1633,2.4015 L 30.2189,2.4015 L 30.2606,2.4015 L 30.3162,2.4015 L 30.3718,2.4015 L 30.4135,2.4015 L 30.4691,2.4015 L 30.5108,2.4015 L 30.5664,2.4015 L 30.6081,2.4015 L 30.6498,2.4015 L 30.6915,2.4015 L 30.7193,2.4015 L 30.7610,2.4015 L 30.7888,2.4015 L 30.8166,2.4015 L 30.8305,2.4015 L 30.8444,2.4015 L 30.8583,2.4015 Z" stroke="#333333" stroke-width="0.1196" stroke-linecap="round" stroke-linejoin="round" fill="#EAEAEA"/>
        <path d="M 30.4830,4.8450 L 30.4830,5.1821 L 30.2884,5.1821 L 30.2884,4.8450 L 30.4830,4.8450 Z" stroke="#000000" stroke-width="0.1196" stroke-linecap="round" stroke-linejoin="round" fill="#0A0A0A"/>
        <path d="M 30.4830,4.1850 L 30.4830,4.5220 L 30.2884,4.5220 L 30.2884,4.1850 L 30.4830,4.1850 Z" stroke="#000000" stroke-width="0.1196" stroke-linecap="round" stroke-linejoin="round" fill="#0A0A0A"/>
        <path d="M 30.4830,3.5390 L 30.4830,3.8760 L 30.2884,3.8760 L 30.2884,3.5390 L 30.4830,3.5390 Z" stroke="#000000" stroke-width="0.1196" stroke-linecap="round" stroke-linejoin="round" fill="#0A0A0A"/>
        <path d="M 30.4830,2.8509 L 30.4830,3.1879 L 30.2884,3.1879 L 30.2884,2.8509 L 30.4830,2.8509 Z" stroke="#000000" stroke-width="0.1196" stroke-linecap="round" stroke-linejoin="round" fill="#0A0A0A"/>
        <path d="M 29.9548,2.5700 L 29.9270,2.5700 L 29.8992,2.5840 L 29.8853,2.6121 L 29.8853,2.6402 L 29.8853,5.3927 L 29.8853,5.4208 L 29.8992,5.4489 L 29.9270,5.4630 L 29.9548,5.4630 L 30.2050,5.4630 L 30.2328,5.4630 L 30.2606,5.4489 L 30.2745,5.4208 L 30.2745,5.3927 L 30.2745,2.6402 L 30.2745,2.6121 L 30.2606,2.5840 L 30.2328,2.5700 L 30.2050,2.5700 L 29.9548,2.5700 Z" stroke="#7F7F7F" stroke-width="0.1196" stroke-linecap="round" stroke-linejoin="round" fill="#EAEAEA"/>
        <path d="M 30.0799,2.6683 L 30.0382,2.6823 L 30.0104,2.7104 L 29.9826,2.7385 L 29.9687,2.7806 L 29.9687,5.2383 L 29.9826,5.2804 L 30.0104,5.3225 L 30.0382,5.3366 L 30.0799,5.3506 L 30.0938,5.3506 L 30.1355,5.3366 L 30.1772,5.3225 L 30.1911,5.2804 L 30.2050,5.2383 L 30.2050,2.7806 L 30.1911,2.7385 L 30.1772,2.7104 L 30.1355,2.6823 L 30.0938,2.6683 L 30.0799,2.6683 Z" stroke="#F7F7F7" stroke-width="0.1196" stroke-linecap="round" stroke-linejoin="round" fill="#F7F7F7"/>
        <path d="M 30.9278,5.0978 L 30.7610,5.0978 L 30.7610,4.7889 L 30.9278,4.7889 L 30.9278,5.0978 Z" stroke="#000000" stroke-width="0.1196" stroke-linecap="round" stroke-linejoin="round" fill="#BFBFBF"/>
        <path d="M 30.9278,2.9632 L 30.7610,2.9632 L 30.7610,3.2722 L 30.9278,3.2722 L 30.9278,2.9632 Z" stroke="#000000" stroke-width="0.1196" stroke-linecap="round" stroke-linejoin="round" fill="#BFBFBF"/>
        <path d="M 29.9548,2.5700 L 29.9270,2.5700 L 29.8992,2.5840 L 29.8853,2.6121 L 29.8853,2.6402 L 29.8853,5.3927 L 29.8853,5.4208 L 29.8992,5.4489 L 29.9270,5.4630 L 29.9548,5.4630 L 30.2050,5.4630 L 30.2328,5.4630 L 30.2606,5.4489 L 30.2745,5.4208 L 30.2745,5.3927 L 30.2745,2.6402 L 30.2745,2.6121 L 30.2606,2.5840 L 30.2328,2.5700 L 30.2050,2.5700 L 29.9548,2.5700 Z" stroke="#7F7F7F" stroke-width="0.1196" stroke-linecap="round" stroke-linejoin="round" fill="none"/>
        <text font-family="Arial" fill="#000000" style="white-space:pre;" font-weight="400" text-anchor="start" x="42.4371" y="5.8940" font-size="0.1668"><![CDATA[Shared]]></text>
        <text font-family="Arial" fill="#FFFFFF" style="white-space:pre;" font-weight="400" text-anchor="start" x="46.5655" y="5.9642" font-size="0.1668"><![CDATA[POE]]></text>
      </g>
      <!--emf-blob end-->
    </g>
  </g>
</svg>
