<svg xmlns="http://www.w3.org/2000/svg" xmlns:xlink="http://www.w3.org/1999/xlink" version="1.1" width="7.6832000000" height="2.6284000000" viewBox="0 0 138.2967 47.3082">
  <title><![CDATA[FVC-100DT (F)]]></title>
  <g transform=" scale(4.000000) ">
    <!--converted by libvisio2svg-->
    <g transform=" translate(0.720000,0.720000) ">
      <!--emf-blob start-->
      <g transform="translate(-0.0000, -0.0000)">
        <path d="M 13.6857,1.7553 L 13.6857,3.2713 L 15.0435,3.2713 " stroke="#000000" stroke-width="0.1200" stroke-linecap="round" stroke-linejoin="round" fill="none"/>
        <path d="M 15.0435,1.7553 L 17.7235,1.7553 " stroke="#000000" stroke-width="0.1200" stroke-linecap="round" stroke-linejoin="round" fill="none"/>
        <path d="M 16.3656,1.7553 L 16.3656,3.2713 " stroke="#000000" stroke-width="0.1200" stroke-linecap="round" stroke-linejoin="round" fill="none"/>
        <path d="M 18.4024,1.7553 L 18.4024,3.2713 " stroke="#000000" stroke-width="0.1200" stroke-linecap="round" stroke-linejoin="round" fill="none"/>
        <path d="M 18.4024,1.7553 L 18.4024,3.2713 " stroke="#000000" stroke-width="0.1200" stroke-linecap="round" stroke-linejoin="round" fill="none"/>
        <path d="M 19.7245,3.2713 L 19.7245,1.7553 L 21.0824,3.2713 L 22.4402,1.7553 L 22.4402,3.2713 " stroke="#000000" stroke-width="0.1200" stroke-linecap="round" stroke-linejoin="round" fill="none"/>
        <path d="M 23.0834,3.2713 L 24.4412,1.7553 L 25.7991,3.2713 " stroke="#000000" stroke-width="0.1200" stroke-linecap="round" stroke-linejoin="round" fill="none"/>
        <path d="M 23.4407,2.8923 L 25.4418,2.8923 " stroke="#000000" stroke-width="0.1200" stroke-linecap="round" stroke-linejoin="round" fill="none"/>
        <path d="M 9.6479,3.2713 L 11.0057,1.7553 L 12.3636,3.2713 " stroke="#000000" stroke-width="0.1200" stroke-linecap="round" stroke-linejoin="round" fill="none"/>
        <path d="M 10.0052,2.8923 L 12.0062,2.8923 " stroke="#000000" stroke-width="0.1200" stroke-linecap="round" stroke-linejoin="round" fill="none"/>
        <path d="M 136.8005,0.0280 L 0.0281,0.0280 L 0.0281,12.9094 L 136.8005,12.9094 L 136.8005,0.0280 Z" stroke="#000000" stroke-width="0.1200" stroke-linecap="round" stroke-linejoin="round" fill="#EAEAEA"/>
        <path d="M 129.6019,0.4340 L 129.5879,0.3500 L 129.5738,0.2800 L 129.5316,0.2100 L 129.4894,0.1540 L 129.4191,0.0980 L 129.3488,0.0560 L 129.2785,0.0420 L 129.1942,0.0280 L 7.6344,0.0280 L 7.5500,0.0420 L 7.4797,0.0560 L 7.4094,0.0980 L 7.2970,0.2100 L 7.2548,0.2800 L 7.2407,0.3500 L 7.2267,0.4340 L 7.2267,12.5033 L 7.2407,12.5873 L 7.2548,12.6573 L 7.2970,12.7273 L 7.3532,12.7974 L 7.4094,12.8394 L 7.4797,12.8814 L 7.5500,12.8954 L 7.6344,12.9094 L 129.1942,12.9094 L 129.2785,12.8954 L 129.3488,12.8814 L 129.4894,12.7974 L 129.5738,12.6573 L 129.5879,12.5873 L 129.6019,12.5033 L 129.6019,0.4340 Z" stroke="#000000" stroke-width="0.1200" stroke-linecap="round" stroke-linejoin="round" fill="#EAEAEA"/>
        <path d="M 129.0817,0.8541 L 129.0677,0.7841 L 129.0536,0.7001 L 128.9692,0.5881 L 128.8568,0.5041 L 128.7724,0.4901 L 128.7021,0.4761 L 8.1265,0.4761 L 8.0562,0.4901 L 7.9718,0.5041 L 7.8593,0.5881 L 7.7750,0.7001 L 7.7609,0.7841 L 7.7469,0.8541 L 7.7469,12.0973 L 7.7609,12.1673 L 7.7750,12.2513 L 7.8593,12.3633 L 7.9718,12.4473 L 8.0562,12.4613 L 8.1265,12.4753 L 128.7021,12.4753 L 128.7724,12.4613 L 128.8568,12.4473 L 128.9692,12.3633 L 129.0536,12.2513 L 129.0677,12.1673 L 129.0817,12.0973 L 129.0817,0.8541 Z" stroke="#BFBFBF" stroke-width="0.1200" stroke-linecap="round" stroke-linejoin="round" fill="#EAEAEA"/>
        <path d="M 4.4569,1.6662 L 4.4569,1.5822 L 4.4429,1.5122 L 4.4147,1.4282 L 4.3585,1.2881 L 4.3163,1.2181 L 4.2741,1.1621 L 4.1617,1.0501 L 4.1054,1.0081 L 4.0351,0.9661 L 3.8945,0.9101 L 3.8102,0.8821 L 3.7399,0.8681 L 1.5747,0.8681 L 1.5044,0.8821 L 1.4200,0.9101 L 1.2794,0.9661 L 1.2091,1.0081 L 1.1529,1.0501 L 1.0404,1.1621 L 0.9982,1.2181 L 0.9561,1.2881 L 0.8998,1.4282 L 0.8717,1.5122 L 0.8576,1.5822 L 0.8576,1.7502 L 0.8717,1.8202 L 0.8998,1.9042 L 0.9561,2.0442 L 0.9982,2.1142 L 1.0404,2.1702 L 1.1529,2.2822 L 1.2091,2.3242 L 1.2794,2.3663 L 1.4200,2.4223 L 1.5044,2.4503 L 1.5747,2.4643 L 3.7399,2.4643 L 3.8102,2.4503 L 3.8945,2.4223 L 4.0351,2.3663 L 4.1054,2.3242 L 4.1617,2.2822 L 4.2741,2.1702 L 4.3163,2.1142 L 4.3585,2.0442 L 4.4147,1.9042 L 4.4429,1.8202 L 4.4569,1.7502 L 4.4569,1.6662 Z" stroke="#000000" stroke-width="0.1200" stroke-linecap="round" stroke-linejoin="round" fill="#FFFFFF"/>
        <path d="M 4.4569,11.2712 L 4.4569,11.1872 L 4.4429,11.1172 L 4.4147,11.0332 L 4.3585,10.8932 L 4.3163,10.8231 L 4.2741,10.7671 L 4.1617,10.6551 L 4.1054,10.6131 L 4.0351,10.5711 L 3.8945,10.5151 L 3.8102,10.4871 L 3.7399,10.4731 L 1.5747,10.4731 L 1.5044,10.4871 L 1.4200,10.5151 L 1.2794,10.5711 L 1.2091,10.6131 L 1.1529,10.6551 L 1.0404,10.7671 L 0.9982,10.8231 L 0.9561,10.8932 L 0.8998,11.0332 L 0.8717,11.1172 L 0.8576,11.1872 L 0.8576,11.3552 L 0.8717,11.4252 L 0.8998,11.5092 L 0.9561,11.6492 L 0.9982,11.7192 L 1.0404,11.7752 L 1.1529,11.8873 L 1.2091,11.9293 L 1.2794,11.9713 L 1.4200,12.0273 L 1.5044,12.0553 L 1.5747,12.0693 L 3.7399,12.0693 L 3.8102,12.0553 L 3.8945,12.0273 L 4.0351,11.9713 L 4.1054,11.9293 L 4.1617,11.8873 L 4.2741,11.7752 L 4.3163,11.7192 L 4.3585,11.6492 L 4.4147,11.5092 L 4.4429,11.4252 L 4.4569,11.3552 L 4.4569,11.2712 Z" stroke="#000000" stroke-width="0.1200" stroke-linecap="round" stroke-linejoin="round" fill="#FFFFFF"/>
        <path d="M 135.9850,1.6662 L 135.9850,1.5822 L 135.9709,1.5122 L 135.9428,1.4282 L 135.8866,1.2881 L 135.8444,1.2181 L 135.8022,1.1621 L 135.6897,1.0501 L 135.6335,1.0081 L 135.5632,0.9661 L 135.4226,0.9101 L 135.3383,0.8821 L 135.2680,0.8681 L 133.1028,0.8681 L 133.0325,0.8821 L 132.9481,0.9101 L 132.8075,0.9661 L 132.7372,1.0081 L 132.6810,1.0501 L 132.5685,1.1621 L 132.5263,1.2181 L 132.4841,1.2881 L 132.4279,1.4282 L 132.3998,1.5122 L 132.3857,1.5822 L 132.3857,1.7502 L 132.3998,1.8202 L 132.4279,1.9042 L 132.4841,2.0442 L 132.5263,2.1142 L 132.5685,2.1702 L 132.6810,2.2822 L 132.7372,2.3242 L 132.8075,2.3663 L 132.9481,2.4223 L 133.0325,2.4503 L 133.1028,2.4643 L 135.2680,2.4643 L 135.3383,2.4503 L 135.4226,2.4223 L 135.5632,2.3663 L 135.6335,2.3242 L 135.6897,2.2822 L 135.8022,2.1702 L 135.8444,2.1142 L 135.8866,2.0442 L 135.9428,1.9042 L 135.9709,1.8202 L 135.9850,1.7502 L 135.9850,1.6662 Z" stroke="#000000" stroke-width="0.1200" stroke-linecap="round" stroke-linejoin="round" fill="#FFFFFF"/>
        <path d="M 135.9850,11.2712 L 135.9850,11.1872 L 135.9709,11.1172 L 135.9428,11.0332 L 135.8866,10.8932 L 135.8444,10.8231 L 135.8022,10.7671 L 135.6897,10.6551 L 135.6335,10.6131 L 135.5632,10.5711 L 135.4226,10.5151 L 135.3383,10.4871 L 135.2680,10.4731 L 133.1028,10.4731 L 133.0325,10.4871 L 132.9481,10.5151 L 132.8075,10.5711 L 132.7372,10.6131 L 132.6810,10.6551 L 132.5685,10.7671 L 132.5263,10.8231 L 132.4841,10.8932 L 132.4279,11.0332 L 132.3998,11.1172 L 132.3857,11.1872 L 132.3857,11.3552 L 132.3998,11.4252 L 132.4279,11.5092 L 132.4841,11.6492 L 132.5263,11.7192 L 132.5685,11.7752 L 132.6810,11.8873 L 132.7372,11.9293 L 132.8075,11.9713 L 132.9481,12.0273 L 133.0325,12.0553 L 133.1028,12.0693 L 135.2680,12.0693 L 135.3383,12.0553 L 135.4226,12.0273 L 135.5632,11.9713 L 135.6335,11.9293 L 135.6897,11.8873 L 135.8022,11.7752 L 135.8444,11.7192 L 135.8866,11.6492 L 135.9428,11.5092 L 135.9709,11.4252 L 135.9850,11.3552 L 135.9850,11.2712 Z" stroke="#000000" stroke-width="0.1200" stroke-linecap="round" stroke-linejoin="round" fill="#FFFFFF"/>
        <path d="M 9.5609,3.4003 L 9.5328,3.4003 L 9.5188,3.3865 L 9.5047,3.3865 L 9.4626,3.3450 L 9.4626,3.3312 L 9.4486,3.3174 L 9.4486,1.7140 L 9.4626,1.7002 L 9.4626,1.6863 L 9.4766,1.6725 L 9.4907,1.6725 L 9.4907,1.6587 L 9.5047,1.6449 L 9.5188,1.6449 L 9.5328,1.6310 L 11.4422,1.6310 L 11.4562,1.6449 L 11.4702,1.6449 L 11.5124,1.6863 L 11.5124,1.7002 L 11.5264,1.7140 L 11.5264,2.0319 L 11.5124,2.0319 L 11.5124,2.0181 L 11.4983,2.0181 L 11.4983,2.0042 L 11.4843,2.0042 L 11.4843,1.9904 L 11.4562,1.9904 L 11.4562,1.9766 L 9.9119,1.9766 L 9.9119,1.9904 L 9.8838,1.9904 L 9.8838,2.0042 L 9.8697,2.0042 L 9.8697,2.0319 L 9.8557,2.0319 L 9.8557,3.3450 L 9.8697,3.3450 L 9.8697,3.3727 L 9.8838,3.3727 L 9.8838,3.3865 L 9.8978,3.3865 L 9.8978,3.4003 L 9.5749,3.4003 L 9.5609,3.4003 Z" stroke="#000000" stroke-width="0.1200" stroke-linecap="round" stroke-linejoin="round" fill="#000000"/>
        <path d="M 11.3860,2.3774 L 9.9961,2.3774 L 9.9961,2.3636 L 9.9680,2.3636 L 9.9680,2.3498 L 9.9540,2.3498 L 9.9540,2.3222 L 9.9399,2.3222 L 9.9399,2.6677 L 9.9540,2.6677 L 9.9540,2.6954 L 9.9680,2.6954 L 9.9680,2.7092 L 9.9961,2.7092 L 9.9961,2.7230 L 11.4141,2.7230 L 11.4422,2.6954 L 11.4562,2.6954 L 11.4843,2.6677 L 11.4843,2.6539 L 11.4983,2.6401 L 11.4983,2.6262 L 11.5124,2.6124 L 11.5124,2.5848 L 11.5264,2.5710 L 11.5264,2.5295 L 11.5124,2.5157 L 11.5124,2.4742 L 11.4843,2.4466 L 11.4843,2.4327 L 11.4702,2.4189 L 11.4562,2.4189 L 11.4562,2.4051 L 11.4422,2.4051 L 11.4281,2.3913 L 11.4141,2.3913 L 11.4000,2.3774 L 11.3860,2.3774 Z" stroke="#000000" stroke-width="0.1200" stroke-linecap="round" stroke-linejoin="round" fill="#000000"/>
        <path d="M 14.6291,2.7230 L 14.6010,2.7230 L 14.6010,2.7092 L 14.5730,2.7092 L 14.5730,2.6954 L 14.5589,2.6954 L 14.5589,2.6677 L 14.5449,2.6677 L 14.5449,2.3222 L 14.5589,2.3222 L 14.5589,2.3498 L 14.5730,2.3498 L 14.5730,2.3636 L 14.6010,2.3636 L 14.6010,2.3774 L 15.7242,2.3774 L 15.7242,1.9766 L 14.5168,1.9766 L 14.5168,1.9904 L 14.4887,1.9904 L 14.4887,2.0042 L 14.4747,2.0042 L 14.4747,2.0319 L 14.4606,2.0319 L 14.4606,3.3450 L 14.4747,3.3450 L 14.4747,3.3727 L 14.4887,3.3727 L 14.4887,3.3865 L 14.5028,3.3865 L 14.5028,3.4003 L 14.1377,3.4003 L 14.1237,3.3865 L 14.1097,3.3865 L 14.0675,3.3450 L 14.0675,3.3312 L 14.0535,3.3174 L 14.0535,1.7140 L 14.0675,1.7002 L 14.0675,1.6863 L 14.0816,1.6725 L 14.0956,1.6725 L 14.0956,1.6587 L 14.1097,1.6449 L 14.1237,1.6449 L 14.1377,1.6310 L 16.0471,1.6310 L 16.0611,1.6449 L 16.0752,1.6449 L 16.1173,1.6863 L 16.1173,1.7002 L 16.1313,1.7140 L 16.1313,2.5848 L 16.1173,2.5986 L 16.1173,2.6262 L 16.1033,2.6262 L 16.1033,2.6401 L 16.0892,2.6539 L 16.0892,2.6677 L 16.0752,2.6677 L 16.0752,2.6815 L 16.0611,2.6815 L 16.0611,2.6954 L 16.0471,2.6954 L 16.0471,2.7092 L 16.0331,2.7092 L 16.0190,2.7230 L 16.0331,2.7368 L 16.0471,2.7368 L 16.0471,2.7506 L 16.0611,2.7506 L 16.0611,2.7645 L 16.0752,2.7645 L 16.0752,2.7783 L 16.0892,2.7783 L 16.0892,2.7921 L 16.1033,2.8059 L 16.1033,2.8198 L 16.1173,2.8198 L 16.1173,2.8474 L 16.1313,2.8612 L 16.1313,3.3450 L 16.1454,3.3450 L 16.1454,3.3727 L 16.1594,3.3727 L 16.1594,3.3865 L 16.1735,3.3865 L 16.1735,3.4003 L 15.8084,3.4003 L 15.7944,3.3865 L 15.7804,3.3865 L 15.7382,3.3450 L 15.7382,3.3312 L 15.7242,3.3174 L 15.7242,2.7230 L 14.6432,2.7230 L 14.6291,2.7230 Z" stroke="#000000" stroke-width="0.1200" stroke-linecap="round" stroke-linejoin="round" fill="#000000"/>
        <path d="M 16.8614,1.9766 L 16.4402,1.9766 L 16.4262,1.9628 L 16.4121,1.9628 L 16.3700,1.9213 L 16.3700,1.9075 L 16.3560,1.8937 L 16.3560,1.7140 L 16.3700,1.7002 L 16.3700,1.6863 L 16.3841,1.6725 L 16.3981,1.6725 L 16.3981,1.6587 L 16.4121,1.6449 L 16.4262,1.6449 L 16.4402,1.6310 L 18.3496,1.6310 L 18.3636,1.6449 L 18.3777,1.6449 L 18.4198,1.6863 L 18.4198,1.7002 L 18.4338,1.7140 L 18.4338,2.0319 L 18.4198,2.0319 L 18.4198,2.0181 L 18.4057,2.0181 L 18.4057,2.0042 L 18.3917,2.0042 L 18.3917,1.9904 L 18.3636,1.9904 L 18.3636,1.9766 L 17.3247,1.9766 L 17.3247,1.9904 L 17.2966,1.9904 L 17.2966,2.0042 L 17.2826,2.0042 L 17.2826,2.0319 L 17.2685,2.0319 L 17.2685,3.3450 L 17.2826,3.3450 L 17.2826,3.3727 L 17.2966,3.3727 L 17.2966,3.3865 L 17.3107,3.3865 L 17.3107,3.4003 L 16.9456,3.4003 L 16.9316,3.3865 L 16.9176,3.3865 L 16.8754,3.3450 L 16.8754,3.3312 L 16.8614,3.3174 L 16.8614,2.0181 L 16.8614,1.9766 Z" stroke="#000000" stroke-width="0.1200" stroke-linecap="round" stroke-linejoin="round" fill="#000000"/>
        <path d="M 19.0656,3.3035 L 19.0656,3.3450 L 19.0796,3.3450 L 19.0796,3.3727 L 19.0937,3.3727 L 19.0937,3.3865 L 19.1077,3.3865 L 19.1077,3.4003 L 18.7427,3.4003 L 18.7286,3.3865 L 18.7146,3.3865 L 18.6725,3.3450 L 18.6725,3.3312 L 18.6584,3.3174 L 18.6584,1.6863 L 18.6444,1.6863 L 18.6444,1.6587 L 18.6304,1.6587 L 18.6304,1.6449 L 18.6163,1.6449 L 18.6163,1.6310 L 18.9814,1.6310 L 18.9954,1.6449 L 19.0094,1.6449 L 19.0516,1.6863 L 19.0516,1.7002 L 19.0656,1.7140 L 19.0656,3.2897 L 19.0656,3.3035 Z" stroke="#000000" stroke-width="0.1200" stroke-linecap="round" stroke-linejoin="round" fill="#000000"/>
        <path d="M 21.0592,1.9766 L 19.8518,1.9766 L 19.8518,1.9904 L 19.8237,1.9904 L 19.8237,2.0042 L 19.8097,2.0042 L 19.8097,2.0319 L 19.7956,2.0319 L 19.7956,3.3450 L 19.8097,3.3450 L 19.8097,3.3727 L 19.8237,3.3727 L 19.8237,3.3865 L 19.8378,3.3865 L 19.8378,3.4003 L 19.4727,3.4003 L 19.4587,3.3865 L 19.4447,3.3865 L 19.4025,3.3450 L 19.4025,3.3312 L 19.3885,3.3174 L 19.3885,1.7140 L 19.4025,1.7002 L 19.4025,1.6863 L 19.4166,1.6725 L 19.4306,1.6725 L 19.4306,1.6587 L 19.4447,1.6449 L 19.4587,1.6449 L 19.4727,1.6310 L 21.3821,1.6310 L 21.3961,1.6449 L 21.4102,1.6449 L 21.4523,1.6863 L 21.4523,1.7002 L 21.4663,1.7140 L 21.4663,3.3450 L 21.4804,3.3450 L 21.4804,3.3727 L 21.4944,3.3727 L 21.4944,3.3865 L 21.5085,3.3865 L 21.5085,3.4003 L 21.1434,3.4003 L 21.1294,3.3865 L 21.1154,3.3865 L 21.0732,3.3450 L 21.0732,3.3312 L 21.0592,3.3174 L 21.0592,2.0181 L 21.0592,1.9766 Z" stroke="#000000" stroke-width="0.1200" stroke-linecap="round" stroke-linejoin="round" fill="#000000"/>
        <path d="M 23.5301,2.3774 L 22.2385,2.3774 L 22.2245,2.3636 L 22.2104,2.3636 L 22.2104,2.3498 L 22.1964,2.3498 L 22.1964,2.3222 L 22.1824,2.3222 L 22.1824,2.6677 L 22.1964,2.6677 L 22.1964,2.6954 L 22.2104,2.6954 L 22.2104,2.7092 L 22.2245,2.7092 L 22.2385,2.7230 L 23.5442,2.7230 L 23.5723,2.6954 L 23.5863,2.6954 L 23.6144,2.6677 L 23.6144,2.6539 L 23.6284,2.6401 L 23.6284,2.6262 L 23.6425,2.6124 L 23.6425,2.5848 L 23.6565,2.5710 L 23.6565,2.5157 L 23.6425,2.5018 L 23.6425,2.4604 L 23.6284,2.4604 L 23.6284,2.4466 L 23.5863,2.4051 L 23.5723,2.4051 L 23.5723,2.3913 L 23.5582,2.3913 L 23.5442,2.3774 L 23.5301,2.3774 Z" stroke="#000000" stroke-width="0.1200" stroke-linecap="round" stroke-linejoin="round" fill="#000000"/>
        <path d="M 24.4989,1.9766 L 24.0777,1.9766 L 24.0636,1.9628 L 24.0496,1.9628 L 24.0075,1.9213 L 24.0075,1.9075 L 23.9934,1.8937 L 23.9934,1.7140 L 24.0075,1.7002 L 24.0075,1.6863 L 24.0215,1.6725 L 24.0356,1.6725 L 24.0356,1.6587 L 24.0496,1.6449 L 24.0636,1.6449 L 24.0777,1.6310 L 25.9870,1.6310 L 26.0011,1.6449 L 26.0151,1.6449 L 26.0572,1.6863 L 26.0572,1.7002 L 26.0713,1.7140 L 26.0713,2.0319 L 26.0572,2.0319 L 26.0572,2.0181 L 26.0432,2.0181 L 26.0432,2.0042 L 26.0292,2.0042 L 26.0292,1.9904 L 26.0011,1.9904 L 26.0011,1.9766 L 24.9622,1.9766 L 24.9622,1.9904 L 24.9341,1.9904 L 24.9341,2.0042 L 24.9200,2.0042 L 24.9200,2.0319 L 24.9060,2.0319 L 24.9060,3.3450 L 24.9200,3.3450 L 24.9200,3.3727 L 24.9341,3.3727 L 24.9341,3.3865 L 24.9481,3.3865 L 24.9481,3.4003 L 24.5831,3.4003 L 24.5691,3.3865 L 24.5550,3.3865 L 24.5129,3.3450 L 24.5129,3.3312 L 24.4989,3.3174 L 24.4989,2.0181 L 24.4989,1.9766 Z" stroke="#000000" stroke-width="0.1200" stroke-linecap="round" stroke-linejoin="round" fill="#000000"/>
        <path d="M 23.6705,3.0547 L 23.6986,3.0547 L 23.6986,3.0409 L 23.7267,3.0409 L 23.7267,3.0271 L 23.7407,3.0271 L 23.7407,3.0133 L 23.7548,3.0133 L 23.7548,2.9995 L 23.7688,2.9995 L 23.7688,3.3174 L 23.7548,3.3312 L 23.7548,3.3450 L 23.7407,3.3588 L 23.7407,3.3727 L 23.7267,3.3727 L 23.7127,3.3865 L 23.6986,3.3865 L 23.6846,3.4003 L 21.7752,3.4003 L 21.7612,3.3865 L 21.7471,3.3865 L 21.7050,3.3450 L 21.7050,3.3312 L 21.6910,3.3174 L 21.6910,1.7140 L 21.7050,1.7002 L 21.7050,1.6863 L 21.7191,1.6725 L 21.7331,1.6725 L 21.7331,1.6587 L 21.7471,1.6449 L 21.7612,1.6449 L 21.7752,1.6310 L 23.6846,1.6310 L 23.6986,1.6449 L 23.7127,1.6449 L 23.7548,1.6863 L 23.7548,1.7002 L 23.7688,1.7140 L 23.7688,2.0319 L 23.7548,2.0319 L 23.7548,2.0181 L 23.7407,2.0181 L 23.7407,2.0042 L 23.7267,2.0042 L 23.7267,1.9904 L 23.6986,1.9904 L 23.6986,1.9766 L 22.1543,1.9766 L 22.1543,1.9904 L 22.1262,1.9904 L 22.1262,2.0042 L 22.1122,2.0042 L 22.1122,2.0319 L 22.0981,2.0319 L 22.0981,3.0547 L 23.6565,3.0547 L 23.6705,3.0547 Z" stroke="#000000" stroke-width="0.1200" stroke-linecap="round" stroke-linejoin="round" fill="#000000"/>
        <path d="M 12.4530,2.8889 L 12.4530,3.4003 L 13.1269,3.4003 L 13.1269,2.8889 L 12.4530,2.8889 Z" stroke="#ED3440" stroke-width="0.1200" stroke-linecap="round" stroke-linejoin="round" fill="#ED3440"/>
        <path d="M 11.7510,2.2669 L 12.3266,2.2669 L 12.3266,2.7645 L 11.7510,2.7645 L 11.7510,2.2669 Z" stroke="#ED3440" stroke-width="0.1200" stroke-linecap="round" stroke-linejoin="round" fill="#ED3440"/>
        <path d="M 13.2533,2.8889 L 13.2533,3.4003 L 13.4638,3.4003 L 13.4779,3.3865 L 13.5340,3.3865 L 13.5481,3.3727 L 13.5762,3.3727 L 13.6042,3.3588 L 13.6183,3.3450 L 13.6464,3.3312 L 13.6744,3.3035 L 13.7025,3.2897 L 13.7166,3.2759 L 13.7306,3.2483 L 13.7446,3.2344 L 13.8008,3.1239 L 13.8008,3.0962 L 13.8148,3.0547 L 13.8148,3.0133 L 13.8289,2.9718 L 13.8289,2.8889 L 13.2673,2.8889 L 13.2533,2.8889 Z" stroke="#ED3440" stroke-width="0.1200" stroke-linecap="round" stroke-linejoin="round" fill="#ED3440"/>
        <path d="M 13.2533,2.2669 L 13.8289,2.2669 L 13.8289,2.7645 L 13.2533,2.7645 L 13.2533,2.2669 Z" stroke="#ED3440" stroke-width="0.1200" stroke-linecap="round" stroke-linejoin="round" fill="#ED3440"/>
        <path d="M 12.3266,2.8889 L 12.3266,3.4003 L 12.1161,3.4003 L 12.1020,3.3865 L 12.0459,3.3865 L 12.0318,3.3727 L 12.0037,3.3727 L 11.9757,3.3588 L 11.9616,3.3450 L 11.9335,3.3312 L 11.9055,3.3035 L 11.8774,3.2897 L 11.8633,3.2759 L 11.8493,3.2483 L 11.8353,3.2344 L 11.7791,3.1239 L 11.7791,3.0962 L 11.7651,3.0547 L 11.7651,3.0133 L 11.7510,2.9718 L 11.7510,2.8889 L 12.3126,2.8889 L 12.3266,2.8889 Z" stroke="#ED3440" stroke-width="0.1200" stroke-linecap="round" stroke-linejoin="round" fill="#ED3440"/>
        <path d="M 12.4530,1.6310 L 12.4530,2.1425 L 13.1269,2.1425 L 13.1269,1.6310 L 12.4530,1.6310 Z" stroke="#ED3440" stroke-width="0.1200" stroke-linecap="round" stroke-linejoin="round" fill="#ED3440"/>
        <path d="M 13.2533,2.1425 L 13.2533,1.6310 L 13.4638,1.6310 L 13.4779,1.6449 L 13.5340,1.6449 L 13.5481,1.6587 L 13.5762,1.6587 L 13.6042,1.6725 L 13.6183,1.6863 L 13.6464,1.7002 L 13.6744,1.7278 L 13.7025,1.7416 L 13.7166,1.7554 L 13.7306,1.7831 L 13.7446,1.7969 L 13.8008,1.9075 L 13.8008,1.9351 L 13.8148,1.9766 L 13.8148,2.0181 L 13.8289,2.0595 L 13.8289,2.1425 L 13.2673,2.1425 L 13.2533,2.1425 Z" stroke="#ED3440" stroke-width="0.1200" stroke-linecap="round" stroke-linejoin="round" fill="#ED3440"/>
        <path d="M 12.3266,2.1425 L 12.3266,1.6310 L 12.1161,1.6310 L 12.1020,1.6449 L 12.0459,1.6449 L 12.0318,1.6587 L 12.0037,1.6587 L 11.9757,1.6725 L 11.9616,1.6863 L 11.9335,1.7002 L 11.9055,1.7278 L 11.8774,1.7416 L 11.8633,1.7554 L 11.8493,1.7831 L 11.8353,1.7969 L 11.7791,1.9075 L 11.7791,1.9351 L 11.7651,1.9766 L 11.7651,2.0181 L 11.7510,2.0595 L 11.7510,2.1425 L 12.3126,2.1425 L 12.3266,2.1425 Z" stroke="#ED3440" stroke-width="0.1200" stroke-linecap="round" stroke-linejoin="round" fill="#ED3440"/>
        <text font-family="Arial" fill="#000000" style="white-space:pre;" font-weight="400" text-anchor="start" x="13.5762" y="3.3990" font-size="0.5054"><![CDATA[FortiVoice 100DT]]></text>
        <path d="M 30.7318,6.7434 L 30.0353,6.7434 L 30.0353,7.4386 L 30.7318,7.4386 L 30.7318,6.7434 Z" stroke="#000000" stroke-width="0.1200" stroke-linecap="round" stroke-linejoin="round" fill="#00FF00"/>
        <path d="M 30.7318,8.1338 L 30.0353,8.1338 L 30.0353,8.8290 L 30.7318,8.8290 L 30.7318,8.1338 Z" stroke="#000000" stroke-width="0.1200" stroke-linecap="round" stroke-linejoin="round" fill="#00FF00"/>
        <path d="M 30.7318,9.5415 L 30.0353,9.5415 L 30.0353,10.2367 L 30.7318,10.2367 L 30.7318,9.5415 Z" stroke="#000000" stroke-width="0.1200" stroke-linecap="round" stroke-linejoin="round" fill="#00FF00"/>
        <text font-family="Arial" fill="#000000" style="white-space:pre;" font-weight="400" text-anchor="start" x="40.6043" y="12.2861" font-size="0.1915"><![CDATA[POWER]]></text>
        <text font-family="Arial" fill="#000000" style="white-space:pre;" font-weight="400" text-anchor="start" x="40.5347" y="12.7206" font-size="0.1915"><![CDATA[STATUS]]></text>
        <text font-family="Arial" fill="#000000" style="white-space:pre;" font-weight="400" text-anchor="start" x="40.6043" y="13.1551" font-size="0.1915"><![CDATA[ALARM]]></text>
        <text font-family="Arial" fill="#000000" style="white-space:pre;" font-weight="400" text-anchor="start" x="42.5718" y="13.6418" font-size="0.1915"><![CDATA[USB MGMT]]></text>
        <text font-family="Symbol" fill="#000000" style="white-space:pre;" text-anchor="start" x="25.3146" y="3.4968" font-size="0.7574"><![CDATA[]]></text>
        <path d="M 34.0359,9.5543 L 34.0359,9.5046 L 34.0521,9.5046 L 34.0521,9.4715 L 34.0683,9.4550 L 34.0683,9.4384 L 34.0845,9.4384 L 34.0845,9.4218 L 34.1007,9.4218 L 34.1007,9.4053 L 34.1169,9.4053 L 34.1331,9.3887 L 34.1493,9.3887 L 34.1656,9.3722 L 35.7863,9.3722 L 35.8025,9.3887 L 35.8187,9.3887 L 35.8349,9.4053 L 35.8511,9.4053 L 35.8511,9.4218 L 35.8673,9.4218 L 35.8673,9.4384 L 35.8836,9.4384 L 35.8836,9.4550 L 35.8998,9.4715 L 35.8998,9.5046 L 35.9160,9.5046 L 35.9160,9.8524 L 35.7863,9.9848 L 35.7863,10.2498 L 35.7701,10.2663 L 35.7701,10.2829 L 35.7539,10.2829 L 35.7539,10.2994 L 35.7377,10.2994 L 35.7377,10.3160 L 35.7215,10.3160 L 35.7215,10.3326 L 35.6891,10.3326 L 35.6891,10.3491 L 34.2628,10.3491 L 34.2628,10.3326 L 34.2304,10.3326 L 34.2304,10.3160 L 34.2142,10.3160 L 34.2142,10.2994 L 34.1980,10.2994 L 34.1980,10.2829 L 34.1818,10.2829 L 34.1818,10.2663 L 34.1656,10.2498 L 34.1656,9.9848 L 34.0359,9.8524 L 34.0359,9.5709 L 34.0359,9.5543 Z" stroke="#7F7F7F" stroke-width="0.1200" stroke-linecap="round" stroke-linejoin="round" fill="#BFBFBF"/>
        <path d="M 35.8511,9.8358 L 35.7215,9.9683 L 35.7215,10.2166 L 35.7053,10.2332 L 35.7053,10.2498 L 35.6891,10.2498 L 35.6729,10.2663 L 35.6566,10.2663 L 35.6404,10.2829 L 34.3114,10.2829 L 34.3114,10.2663 L 34.2790,10.2663 L 34.2628,10.2498 L 34.2466,10.2498 L 34.2466,10.2332 L 34.2304,10.2166 L 34.2304,9.9683 L 34.1007,9.8358 L 34.1007,9.5543 L 34.1169,9.5543 L 34.1169,9.5212 L 34.1331,9.5212 L 34.1331,9.4881 L 34.1493,9.4881 L 34.1493,9.4715 L 34.1818,9.4715 L 34.1818,9.4550 L 34.1980,9.4550 L 34.2142,9.4384 L 35.7377,9.4384 L 35.7539,9.4550 L 35.7701,9.4550 L 35.7701,9.4715 L 35.8025,9.4715 L 35.8025,9.4881 L 35.8187,9.4881 L 35.8187,9.5212 L 35.8349,9.5212 L 35.8349,9.5543 L 35.8511,9.5543 L 35.8511,9.8192 L 35.8511,9.8358 Z" stroke="#000000" stroke-width="0.1200" stroke-linecap="round" stroke-linejoin="round" fill="#161616"/>
        <path d="M 35.6080,9.9020 L 35.6080,9.8689 L 35.5918,9.8358 L 35.5594,9.8192 L 34.4087,9.8192 L 34.3763,9.8358 L 34.3600,9.8689 L 34.3600,10.1339 L 34.3763,10.1670 L 34.4087,10.1835 L 35.5594,10.1835 L 35.5918,10.1670 L 35.6080,10.1339 L 35.6080,10.1007 L 35.6080,9.9020 Z" stroke="#000000" stroke-width="0.1200" stroke-linecap="round" stroke-linejoin="round" fill="#CCCCCC"/>
        <path d="M 34.6518,9.7696 L 34.4897,9.7696 L 34.4897,9.8192 L 34.6518,9.8192 L 34.6518,9.7696 Z" stroke="#000000" stroke-width="0.1200" stroke-linecap="round" stroke-linejoin="round" fill="#D6D6B1"/>
        <path d="M 34.9111,9.7696 L 34.7490,9.7696 L 34.7490,9.8192 L 34.9111,9.8192 L 34.9111,9.7696 Z" stroke="#000000" stroke-width="0.1200" stroke-linecap="round" stroke-linejoin="round" fill="#D6D6B1"/>
        <path d="M 35.1866,9.7696 L 35.0246,9.7696 L 35.0246,9.8192 L 35.1866,9.8192 L 35.1866,9.7696 Z" stroke="#000000" stroke-width="0.1200" stroke-linecap="round" stroke-linejoin="round" fill="#D6D6B1"/>
        <path d="M 35.4460,9.7696 L 35.2839,9.7696 L 35.2839,9.8192 L 35.4460,9.8192 L 35.4460,9.7696 Z" stroke="#000000" stroke-width="0.1200" stroke-linecap="round" stroke-linejoin="round" fill="#D6D6B1"/>
        <ellipse cx="30.3328" cy="11.4081" rx="0.2987" ry="0.2937" fill="#494949" stroke="#000000" stroke-width="0.1200" stroke-linecap="round" stroke-linejoin="round"/>
        <ellipse cx="30.3328" cy="11.4081" rx="0.2987" ry="0.2937" fill="none" stroke="#000000" stroke-width="0.1200" stroke-linecap="round" stroke-linejoin="round"/>
        <ellipse cx="30.3284" cy="11.4081" rx="0.2586" ry="0.2581" fill="#7F7F7F" stroke="#000000" stroke-width="0.1200" stroke-linecap="round" stroke-linejoin="round"/>
        <ellipse cx="30.3284" cy="11.4081" rx="0.2586" ry="0.2581" fill="none" stroke="#000000" stroke-width="0.1200" stroke-linecap="round" stroke-linejoin="round"/>
        <path d="M 109.2774,6.9058 L 104.3480,6.9058 L 104.3480,10.6460 L 109.2774,10.6460 L 109.2774,6.9058 Z" stroke="#0A0A0A" stroke-width="0.1200" stroke-linecap="round" stroke-linejoin="round" fill="#FFFFFF"/>
        <path d="M 71.8706,2.0168 L 66.9412,2.0168 L 66.9412,10.6124 L 71.8706,10.6124 L 71.8706,2.0168 Z" stroke="#0A0A0A" stroke-width="0.1200" stroke-linecap="round" stroke-linejoin="round" fill="#FFFFFF"/>
        <text font-family="Arial" fill="#000000" style="white-space:pre;" font-weight="400" text-anchor="start" x="80.8661" y="3.2043" font-size="0.1456"><![CDATA[LAN 1]]></text>
        <text font-family="Arial" fill="#000000" style="white-space:pre;" font-weight="400" text-anchor="start" x="80.8661" y="7.5501" font-size="0.1456"><![CDATA[LAN 2]]></text>
        <text font-family="Arial" fill="#000000" style="white-space:pre;" font-weight="400" text-anchor="start" x="87.8649" y="5.0771" font-size="0.1456"><![CDATA[PRI]]></text>
        <path d="M 79.1809,2.0168 L 74.3636,2.0168 L 74.3636,10.6124 L 79.1809,10.6124 L 79.1809,2.0168 Z" stroke="#0A0A0A" stroke-width="0.1200" stroke-linecap="round" stroke-linejoin="round" fill="#FFFFFF"/>
        <text font-family="Arial" fill="#000000" style="white-space:pre;" font-weight="400" text-anchor="start" x="89.3034" y="3.2013" font-size="0.1423"><![CDATA[EXT 1]]></text>
        <text font-family="Arial" fill="#000000" style="white-space:pre;" font-weight="400" text-anchor="start" x="90.3197" y="3.2013" font-size="0.1423"><![CDATA[LINE 3]]></text>
        <text font-family="Arial" fill="#000000" style="white-space:pre;" font-weight="400" text-anchor="start" x="91.3462" y="3.2013" font-size="0.1423"><![CDATA[LINE 1]]></text>
        <text font-family="Arial" fill="#000000" style="white-space:pre;" font-weight="400" text-anchor="start" x="91.3462" y="7.5471" font-size="0.1423"><![CDATA[LINE 2]]></text>
        <text font-family="Arial" fill="#000000" style="white-space:pre;" font-weight="400" text-anchor="start" x="90.3197" y="7.5471" font-size="0.1423"><![CDATA[LINE 4]]></text>
        <text font-family="Arial" fill="#000000" style="white-space:pre;" font-weight="400" text-anchor="start" x="89.3034" y="7.5471" font-size="0.1423"><![CDATA[EXT 2]]></text>
        <path d="M 90.5433,2.0168 L 85.7260,2.0168 L 85.7260,10.6124 L 90.5433,10.6124 L 90.5433,2.0168 Z" stroke="#0A0A0A" stroke-width="0.1200" stroke-linecap="round" stroke-linejoin="round" fill="#FFFFFF"/>
        <path d="M 84.8621,2.0168 L 80.0448,2.0168 L 80.0448,10.6124 L 84.8621,10.6124 L 84.8621,2.0168 Z" stroke="#0A0A0A" stroke-width="0.1200" stroke-linecap="round" stroke-linejoin="round" fill="#FFFFFF"/>
        <path d="M 68.7940,2.1332 L 68.7940,2.2856 L 68.5690,2.2856 L 68.5690,2.7150 L 67.6268,2.7150 L 67.6268,2.7565 L 67.3315,2.7565 L 67.3315,2.2856 L 67.3877,2.2856 L 67.3877,2.7150 L 67.6268,2.7150 L 67.6268,3.6708 L 67.7252,3.6708 L 67.7252,4.1694 L 67.6268,4.1694 L 67.6268,5.2499 L 71.2268,5.2499 L 71.2268,4.1694 L 71.1284,4.1694 L 71.1284,3.6708 L 71.2268,3.6708 L 71.2268,2.7150 L 71.4659,2.7150 L 71.4659,2.2856 L 71.5221,2.2856 L 71.5221,2.7565 L 71.2268,2.7565 L 71.2268,2.7150 L 70.2846,2.7150 L 70.2846,2.2856 L 70.0596,2.2856 L 70.0596,2.1332 L 68.7940,2.1332 Z" stroke="#000000" stroke-width="0.1200" stroke-linecap="round" stroke-linejoin="round" fill="#000000"/>
        <path d="M 68.5690,2.2994 L 67.3877,2.2994 L 67.3877,2.7288 L 68.5690,2.7288 L 68.5690,2.2994 Z" stroke="#494949" stroke-width="0.1200" stroke-linecap="round" stroke-linejoin="round" fill="#000000"/>
        <path d="M 71.4659,2.2994 L 70.2846,2.2994 L 70.2846,2.7288 L 71.4659,2.7288 L 71.4659,2.2994 Z" stroke="#494949" stroke-width="0.1200" stroke-linecap="round" stroke-linejoin="round" fill="#000000"/>
        <path d="M 68.7940,10.5274 L 68.7940,10.3751 L 68.5690,10.3751 L 68.5690,9.9457 L 67.6268,9.9457 L 67.6268,9.9041 L 67.3315,9.9041 L 67.3315,10.3751 L 67.3877,10.3751 L 67.3877,9.9457 L 67.6268,9.9457 L 67.6268,8.9899 L 67.7252,8.9899 L 67.7252,8.4912 L 67.6268,8.4912 L 67.6268,7.4108 L 71.2268,7.4108 L 71.2268,8.4912 L 71.1284,8.4912 L 71.1284,8.9899 L 71.2268,8.9899 L 71.2268,9.9457 L 71.4659,9.9457 L 71.4659,10.3751 L 71.5221,10.3751 L 71.5221,9.9041 L 71.2268,9.9041 L 71.2268,9.9457 L 70.2846,9.9457 L 70.2846,10.3751 L 70.0596,10.3751 L 70.0596,10.5274 L 68.7940,10.5274 Z" stroke="#000000" stroke-width="0.1200" stroke-linecap="round" stroke-linejoin="round" fill="#000000"/>
        <path d="M 68.5690,9.9457 L 67.3877,9.9457 L 67.3877,10.3751 L 68.5690,10.3751 L 68.5690,9.9457 Z" stroke="#494949" stroke-width="0.1200" stroke-linecap="round" stroke-linejoin="round" fill="#000000"/>
        <path d="M 71.4659,9.9457 L 70.2846,9.9457 L 70.2846,10.3751 L 71.4659,10.3751 L 71.4659,9.9457 Z" stroke="#494949" stroke-width="0.1200" stroke-linecap="round" stroke-linejoin="round" fill="#000000"/>
        <path d="M 76.1628,2.1332 L 76.1628,2.2856 L 75.9377,2.2856 L 75.9377,2.7150 L 74.9956,2.7150 L 74.9956,2.7565 L 74.7002,2.7565 L 74.7002,2.2856 L 74.7565,2.2856 L 74.7565,2.7150 L 74.9956,2.7150 L 74.9956,3.6708 L 75.0940,3.6708 L 75.0940,4.1694 L 74.9956,4.1694 L 74.9956,5.2499 L 78.5956,5.2499 L 78.5956,4.1694 L 78.4971,4.1694 L 78.4971,3.6708 L 78.5956,3.6708 L 78.5956,2.7150 L 78.8346,2.7150 L 78.8346,2.2856 L 78.8909,2.2856 L 78.8909,2.7565 L 78.5956,2.7565 L 78.5956,2.7150 L 77.6534,2.7150 L 77.6534,2.2856 L 77.4284,2.2856 L 77.4284,2.1332 L 76.1628,2.1332 Z" stroke="#000000" stroke-width="0.1200" stroke-linecap="round" stroke-linejoin="round" fill="#000000"/>
        <path d="M 75.9377,2.2994 L 74.7565,2.2994 L 74.7565,2.7288 L 75.9377,2.7288 L 75.9377,2.2994 Z" stroke="#494949" stroke-width="0.1200" stroke-linecap="round" stroke-linejoin="round" fill="#000000"/>
        <path d="M 78.8346,2.2994 L 77.6534,2.2994 L 77.6534,2.7288 L 78.8346,2.7288 L 78.8346,2.2994 Z" stroke="#494949" stroke-width="0.1200" stroke-linecap="round" stroke-linejoin="round" fill="#000000"/>
        <path d="M 76.1628,10.5274 L 76.1628,10.3751 L 75.9377,10.3751 L 75.9377,9.9457 L 74.9956,9.9457 L 74.9956,9.9041 L 74.7002,9.9041 L 74.7002,10.3751 L 74.7565,10.3751 L 74.7565,9.9457 L 74.9956,9.9457 L 74.9956,8.9899 L 75.0940,8.9899 L 75.0940,8.4912 L 74.9956,8.4912 L 74.9956,7.4108 L 78.5956,7.4108 L 78.5956,8.4912 L 78.4971,8.4912 L 78.4971,8.9899 L 78.5956,8.9899 L 78.5956,9.9457 L 78.8346,9.9457 L 78.8346,10.3751 L 78.8909,10.3751 L 78.8909,9.9041 L 78.5956,9.9041 L 78.5956,9.9457 L 77.6534,9.9457 L 77.6534,10.3751 L 77.4284,10.3751 L 77.4284,10.5274 L 76.1628,10.5274 Z" stroke="#000000" stroke-width="0.1200" stroke-linecap="round" stroke-linejoin="round" fill="#000000"/>
        <path d="M 75.9377,9.9457 L 74.7565,9.9457 L 74.7565,10.3751 L 75.9377,10.3751 L 75.9377,9.9457 Z" stroke="#494949" stroke-width="0.1200" stroke-linecap="round" stroke-linejoin="round" fill="#000000"/>
        <path d="M 78.8346,9.9457 L 77.6534,9.9457 L 77.6534,10.3751 L 78.8346,10.3751 L 78.8346,9.9457 Z" stroke="#494949" stroke-width="0.1200" stroke-linecap="round" stroke-linejoin="round" fill="#000000"/>
        <path d="M 87.5253,2.1332 L 87.5253,2.2856 L 87.3003,2.2856 L 87.3003,2.7150 L 86.3581,2.7150 L 86.3581,2.7565 L 86.0628,2.7565 L 86.0628,2.2856 L 86.1190,2.2856 L 86.1190,2.7150 L 86.3581,2.7150 L 86.3581,3.6708 L 86.4565,3.6708 L 86.4565,4.1694 L 86.3581,4.1694 L 86.3581,5.2499 L 89.9581,5.2499 L 89.9581,4.1694 L 89.8597,4.1694 L 89.8597,3.6708 L 89.9581,3.6708 L 89.9581,2.7150 L 90.1972,2.7150 L 90.1972,2.2856 L 90.2534,2.2856 L 90.2534,2.7565 L 89.9581,2.7565 L 89.9581,2.7150 L 89.0159,2.7150 L 89.0159,2.2856 L 88.7909,2.2856 L 88.7909,2.1332 L 87.5253,2.1332 Z" stroke="#000000" stroke-width="0.1200" stroke-linecap="round" stroke-linejoin="round" fill="#000000"/>
        <path d="M 87.3003,2.2994 L 86.1190,2.2994 L 86.1190,2.7288 L 87.3003,2.7288 L 87.3003,2.2994 Z" stroke="#494949" stroke-width="0.1200" stroke-linecap="round" stroke-linejoin="round" fill="#000000"/>
        <path d="M 90.1972,2.2994 L 89.0159,2.2994 L 89.0159,2.7288 L 90.1972,2.7288 L 90.1972,2.2994 Z" stroke="#494949" stroke-width="0.1200" stroke-linecap="round" stroke-linejoin="round" fill="#000000"/>
        <path d="M 87.5253,10.5274 L 87.5253,10.3751 L 87.3003,10.3751 L 87.3003,9.9457 L 86.3581,9.9457 L 86.3581,9.9041 L 86.0628,9.9041 L 86.0628,10.3751 L 86.1190,10.3751 L 86.1190,9.9457 L 86.3581,9.9457 L 86.3581,8.9899 L 86.4565,8.9899 L 86.4565,8.4912 L 86.3581,8.4912 L 86.3581,7.4108 L 89.9581,7.4108 L 89.9581,8.4912 L 89.8597,8.4912 L 89.8597,8.9899 L 89.9581,8.9899 L 89.9581,9.9457 L 90.1972,9.9457 L 90.1972,10.3751 L 90.2534,10.3751 L 90.2534,9.9041 L 89.9581,9.9041 L 89.9581,9.9457 L 89.0159,9.9457 L 89.0159,10.3751 L 88.7909,10.3751 L 88.7909,10.5274 L 87.5253,10.5274 Z" stroke="#000000" stroke-width="0.1200" stroke-linecap="round" stroke-linejoin="round" fill="#000000"/>
        <path d="M 87.3003,9.9457 L 86.1190,9.9457 L 86.1190,10.3751 L 87.3003,10.3751 L 87.3003,9.9457 Z" stroke="#494949" stroke-width="0.1200" stroke-linecap="round" stroke-linejoin="round" fill="#000000"/>
        <path d="M 90.1972,9.9457 L 89.0159,9.9457 L 89.0159,10.3751 L 90.1972,10.3751 L 90.1972,9.9457 Z" stroke="#494949" stroke-width="0.1200" stroke-linecap="round" stroke-linejoin="round" fill="#000000"/>
        <path d="M 81.8440,2.1332 L 81.8440,2.2856 L 81.6190,2.2856 L 81.6190,2.7150 L 80.6768,2.7150 L 80.6768,2.7565 L 80.3815,2.7565 L 80.3815,2.2856 L 80.4378,2.2856 L 80.4378,2.7150 L 80.6768,2.7150 L 80.6768,3.6708 L 80.7753,3.6708 L 80.7753,4.1694 L 80.6768,4.1694 L 80.6768,5.2499 L 84.2768,5.2499 L 84.2768,4.1694 L 84.1784,4.1694 L 84.1784,3.6708 L 84.2768,3.6708 L 84.2768,2.7150 L 84.5159,2.7150 L 84.5159,2.2856 L 84.5722,2.2856 L 84.5722,2.7565 L 84.2768,2.7565 L 84.2768,2.7150 L 83.3346,2.7150 L 83.3346,2.2856 L 83.1096,2.2856 L 83.1096,2.1332 L 81.8440,2.1332 Z" stroke="#000000" stroke-width="0.1200" stroke-linecap="round" stroke-linejoin="round" fill="#000000"/>
        <path d="M 81.6190,2.2994 L 80.4378,2.2994 L 80.4378,2.7288 L 81.6190,2.7288 L 81.6190,2.2994 Z" stroke="#494949" stroke-width="0.1200" stroke-linecap="round" stroke-linejoin="round" fill="#000000"/>
        <path d="M 84.5159,2.2994 L 83.3346,2.2994 L 83.3346,2.7288 L 84.5159,2.7288 L 84.5159,2.2994 Z" stroke="#494949" stroke-width="0.1200" stroke-linecap="round" stroke-linejoin="round" fill="#000000"/>
        <path d="M 81.8440,10.5274 L 81.8440,10.3751 L 81.6190,10.3751 L 81.6190,9.9457 L 80.6768,9.9457 L 80.6768,9.9041 L 80.3815,9.9041 L 80.3815,10.3751 L 80.4378,10.3751 L 80.4378,9.9457 L 80.6768,9.9457 L 80.6768,8.9899 L 80.7753,8.9899 L 80.7753,8.4912 L 80.6768,8.4912 L 80.6768,7.4108 L 84.2768,7.4108 L 84.2768,8.4912 L 84.1784,8.4912 L 84.1784,8.9899 L 84.2768,8.9899 L 84.2768,9.9457 L 84.5159,9.9457 L 84.5159,10.3751 L 84.5722,10.3751 L 84.5722,9.9041 L 84.2768,9.9041 L 84.2768,9.9457 L 83.3346,9.9457 L 83.3346,10.3751 L 83.1096,10.3751 L 83.1096,10.5274 L 81.8440,10.5274 Z" stroke="#000000" stroke-width="0.1200" stroke-linecap="round" stroke-linejoin="round" fill="#000000"/>
        <path d="M 81.6190,9.9457 L 80.4378,9.9457 L 80.4378,10.3751 L 81.6190,10.3751 L 81.6190,9.9457 Z" stroke="#494949" stroke-width="0.1200" stroke-linecap="round" stroke-linejoin="round" fill="#000000"/>
        <path d="M 84.5159,9.9457 L 83.3346,9.9457 L 83.3346,10.3751 L 84.5159,10.3751 L 84.5159,9.9457 Z" stroke="#494949" stroke-width="0.1200" stroke-linecap="round" stroke-linejoin="round" fill="#000000"/>
        <path d="M 68.3197,2.3573 L 67.5594,2.3573 L 67.5594,2.6682 L 68.3197,2.6682 L 68.3197,2.3573 Z" stroke="#000000" stroke-width="0.1200" stroke-linecap="round" stroke-linejoin="round" fill="#83FF00"/>
        <path d="M 71.2388,2.3573 L 70.4785,2.3573 L 70.4785,2.6682 L 71.2388,2.6682 L 71.2388,2.3573 Z" stroke="#000000" stroke-width="0.1200" stroke-linecap="round" stroke-linejoin="round" fill="#FFFF00"/>
        <path d="M 75.6785,2.3573 L 74.9182,2.3573 L 74.9182,2.6682 L 75.6785,2.6682 L 75.6785,2.3573 Z" stroke="#000000" stroke-width="0.1200" stroke-linecap="round" stroke-linejoin="round" fill="#83FF00"/>
        <path d="M 78.6111,2.3573 L 77.8508,2.3573 L 77.8508,2.6682 L 78.6111,2.6682 L 78.6111,2.3573 Z" stroke="#000000" stroke-width="0.1200" stroke-linecap="round" stroke-linejoin="round" fill="#FFFF00"/>
        <path d="M 87.0425,2.3573 L 86.2822,2.3573 L 86.2822,2.6682 L 87.0425,2.6682 L 87.0425,2.3573 Z" stroke="#000000" stroke-width="0.1200" stroke-linecap="round" stroke-linejoin="round" fill="#83FF00"/>
        <path d="M 89.9751,2.3573 L 89.2148,2.3573 L 89.2148,2.6682 L 89.9751,2.6682 L 89.9751,2.3573 Z" stroke="#000000" stroke-width="0.1200" stroke-linecap="round" stroke-linejoin="round" fill="#FFFF00"/>
        <path d="M 81.3673,2.3573 L 80.6070,2.3573 L 80.6070,2.6682 L 81.3673,2.6682 L 81.3673,2.3573 Z" stroke="#000000" stroke-width="0.1200" stroke-linecap="round" stroke-linejoin="round" fill="#83FF00"/>
        <path d="M 84.2863,2.3573 L 83.5260,2.3573 L 83.5260,2.6682 L 84.2863,2.6682 L 84.2863,2.3573 Z" stroke="#000000" stroke-width="0.1200" stroke-linecap="round" stroke-linejoin="round" fill="#FFFF00"/>
        <path d="M 68.3197,9.9863 L 67.5594,9.9863 L 67.5594,10.2972 L 68.3197,10.2972 L 68.3197,9.9863 Z" stroke="#000000" stroke-width="0.1200" stroke-linecap="round" stroke-linejoin="round" fill="#83FF00"/>
        <path d="M 71.2388,9.9863 L 70.4785,9.9863 L 70.4785,10.2972 L 71.2388,10.2972 L 71.2388,9.9863 Z" stroke="#000000" stroke-width="0.1200" stroke-linecap="round" stroke-linejoin="round" fill="#FFFF00"/>
        <path d="M 75.6785,9.9863 L 74.9182,9.9863 L 74.9182,10.2972 L 75.6785,10.2972 L 75.6785,9.9863 Z" stroke="#000000" stroke-width="0.1200" stroke-linecap="round" stroke-linejoin="round" fill="#83FF00"/>
        <path d="M 78.6111,9.9863 L 77.8508,9.9863 L 77.8508,10.2972 L 78.6111,10.2972 L 78.6111,9.9863 Z" stroke="#000000" stroke-width="0.1200" stroke-linecap="round" stroke-linejoin="round" fill="#FFFF00"/>
        <path d="M 87.0425,9.9863 L 86.2822,9.9863 L 86.2822,10.2972 L 87.0425,10.2972 L 87.0425,9.9863 Z" stroke="#000000" stroke-width="0.1200" stroke-linecap="round" stroke-linejoin="round" fill="#83FF00"/>
        <path d="M 89.9751,9.9863 L 89.2148,9.9863 L 89.2148,10.2972 L 89.9751,10.2972 L 89.9751,9.9863 Z" stroke="#000000" stroke-width="0.1200" stroke-linecap="round" stroke-linejoin="round" fill="#FFFF00"/>
        <path d="M 81.3673,9.9863 L 80.6070,9.9863 L 80.6070,10.2972 L 81.3673,10.2972 L 81.3673,9.9863 Z" stroke="#000000" stroke-width="0.1200" stroke-linecap="round" stroke-linejoin="round" fill="#83FF00"/>
        <path d="M 84.2863,9.9863 L 83.5260,9.9863 L 83.5260,10.2972 L 84.2863,10.2972 L 84.2863,9.9863 Z" stroke="#000000" stroke-width="0.1200" stroke-linecap="round" stroke-linejoin="round" fill="#FFFF00"/>
        <path d="M 106.2003,6.9121 L 106.2003,7.0645 L 105.9753,7.0645 L 105.9753,7.4939 L 105.0332,7.4939 L 105.0332,7.5354 L 104.7378,7.5354 L 104.7378,7.0645 L 104.7941,7.0645 L 104.7941,7.4939 L 105.0332,7.4939 L 105.0332,8.4497 L 105.1316,8.4497 L 105.1316,8.9483 L 105.0332,8.9483 L 105.0332,10.0288 L 108.6332,10.0288 L 108.6332,8.9483 L 108.5347,8.9483 L 108.5347,8.4497 L 108.6332,8.4497 L 108.6332,7.4939 L 108.8722,7.4939 L 108.8722,7.0645 L 108.9285,7.0645 L 108.9285,7.5354 L 108.6332,7.5354 L 108.6332,7.4939 L 107.6910,7.4939 L 107.6910,7.0645 L 107.4660,7.0645 L 107.4660,6.9121 L 106.2003,6.9121 Z" stroke="#000000" stroke-width="0.1200" stroke-linecap="round" stroke-linejoin="round" fill="#000000"/>
        <path d="M 105.9753,7.0783 L 104.7941,7.0783 L 104.7941,7.5077 L 105.9753,7.5077 L 105.9753,7.0783 Z" stroke="#494949" stroke-width="0.1200" stroke-linecap="round" stroke-linejoin="round" fill="#000000"/>
        <path d="M 108.8722,7.0783 L 107.6910,7.0783 L 107.6910,7.5077 L 108.8722,7.5077 L 108.8722,7.0783 Z" stroke="#494949" stroke-width="0.1200" stroke-linecap="round" stroke-linejoin="round" fill="#000000"/>
        <path d="M 105.7245,7.1238 L 104.9642,7.1238 L 104.9642,7.4347 L 105.7245,7.4347 L 105.7245,7.1238 Z" stroke="#000000" stroke-width="0.1200" stroke-linecap="round" stroke-linejoin="round" fill="#83FF00"/>
        <path d="M 108.6436,7.1238 L 107.8833,7.1238 L 107.8833,7.4347 L 108.6436,7.4347 L 108.6436,7.1238 Z" stroke="#000000" stroke-width="0.1200" stroke-linecap="round" stroke-linejoin="round" fill="#FF0000"/>
      </g>
      <!--emf-blob end-->
    </g>
  </g>
</svg>
