<svg xmlns="http://www.w3.org/2000/svg" xmlns:xlink="http://www.w3.org/1999/xlink" version="1.1" width="3.8208000000" height="2.6976000000" viewBox="0 0 68.7715 48.5555">
  <title><![CDATA[FVC-40D2 (R)]]></title>
  <g transform=" scale(4.000000) ">
    <!--converted by libvisio2svg-->
    <g transform=" translate(3.757400,0.720000) ">
      <!--emf-blob start-->
      <g transform="translate(-0.0000, -0.0000)">
        <path d="M 48.4968,13.7709 L 48.4968,13.8404 L 48.5034,13.8543 L 48.5034,13.8961 L 48.5100,13.9239 L 48.5100,13.9378 L 48.5166,13.9517 L 48.5232,13.9795 L 48.5298,13.9934 L 48.5298,14.0073 L 48.5363,14.0213 L 48.5429,14.0491 L 48.5693,14.1047 L 48.5825,14.1186 L 48.5891,14.1325 L 48.5957,14.1325 L 48.6023,14.1464 L 48.6155,14.1604 L 48.6221,14.1743 L 48.6287,14.1743 L 48.6418,14.1882 L 48.6616,14.1882 L 48.6682,14.2021 L 52.6245,14.2021 L 52.6310,14.1882 L 52.6508,14.1882 L 52.6640,14.1743 L 52.6706,14.1743 L 52.6772,14.1604 L 52.6904,14.1464 L 52.6970,14.1325 L 52.7036,14.1325 L 52.7102,14.1186 L 52.7234,14.1047 L 52.7497,14.0491 L 52.7563,14.0213 L 52.7629,14.0073 L 52.7629,13.9934 L 52.7695,13.9795 L 52.7761,13.9517 L 52.7827,13.9378 L 52.7827,13.9239 L 52.7893,13.8961 L 52.7893,13.8543 L 52.7959,13.8404 L 52.7959,12.8806 L 48.4968,12.8806 L 48.4968,13.7570 L 48.4968,13.7709 Z" stroke="#000000" stroke-width="0.1196" stroke-linecap="round" stroke-linejoin="round" fill="#333333"/>
        <path d="M 48.5759,13.0058 L 48.5759,14.0908 " stroke="#000000" stroke-width="0.1196" stroke-linecap="round" stroke-linejoin="round" fill="none"/>
        <path d="M 48.6418,13.0058 L 48.6418,14.0908 " stroke="#000000" stroke-width="0.1196" stroke-linecap="round" stroke-linejoin="round" fill="none"/>
        <path d="M 48.7012,13.0058 L 48.7012,14.0908 " stroke="#000000" stroke-width="0.1196" stroke-linecap="round" stroke-linejoin="round" fill="none"/>
        <path d="M 48.7012,13.0058 L 48.7012,14.0908 " stroke="#000000" stroke-width="0.1196" stroke-linecap="round" stroke-linejoin="round" fill="none"/>
        <path d="M 48.7671,13.0058 L 48.7671,14.0908 " stroke="#000000" stroke-width="0.1196" stroke-linecap="round" stroke-linejoin="round" fill="none"/>
        <path d="M 48.8331,13.0058 L 48.8331,14.0908 " stroke="#000000" stroke-width="0.1196" stroke-linecap="round" stroke-linejoin="round" fill="none"/>
        <path d="M 48.8924,13.0058 L 48.8924,14.0908 " stroke="#000000" stroke-width="0.1196" stroke-linecap="round" stroke-linejoin="round" fill="none"/>
        <path d="M 48.9583,13.0058 L 48.9583,14.0908 " stroke="#000000" stroke-width="0.1196" stroke-linecap="round" stroke-linejoin="round" fill="none"/>
        <path d="M 49.0507,13.0058 L 49.0507,14.0908 " stroke="#494949" stroke-width="0.1196" stroke-linecap="round" stroke-linejoin="round" fill="none"/>
        <path d="M 49.1166,13.0058 L 49.1166,14.0908 " stroke="#494949" stroke-width="0.1196" stroke-linecap="round" stroke-linejoin="round" fill="none"/>
        <path d="M 49.1759,13.0058 L 49.1759,14.0908 " stroke="#494949" stroke-width="0.1196" stroke-linecap="round" stroke-linejoin="round" fill="none"/>
        <path d="M 49.2419,13.0058 L 49.2419,14.0908 " stroke="#494949" stroke-width="0.1196" stroke-linecap="round" stroke-linejoin="round" fill="none"/>
        <path d="M 49.3078,13.0058 L 49.3078,14.0908 " stroke="#494949" stroke-width="0.1196" stroke-linecap="round" stroke-linejoin="round" fill="none"/>
        <path d="M 49.3672,13.0058 L 49.3672,14.0908 " stroke="#494949" stroke-width="0.1196" stroke-linecap="round" stroke-linejoin="round" fill="none"/>
        <path d="M 49.4331,13.0058 L 49.4331,14.0908 " stroke="#494949" stroke-width="0.1196" stroke-linecap="round" stroke-linejoin="round" fill="none"/>
        <path d="M 49.5188,13.0058 L 49.5188,14.0908 " stroke="#666666" stroke-width="0.1196" stroke-linecap="round" stroke-linejoin="round" fill="none"/>
        <path d="M 49.5847,13.0058 L 49.5847,14.0908 " stroke="#666666" stroke-width="0.1196" stroke-linecap="round" stroke-linejoin="round" fill="none"/>
        <path d="M 49.6441,13.0058 L 49.6441,14.0908 " stroke="#666666" stroke-width="0.1196" stroke-linecap="round" stroke-linejoin="round" fill="none"/>
        <path d="M 49.7100,13.0058 L 49.7100,14.0908 " stroke="#666666" stroke-width="0.1196" stroke-linecap="round" stroke-linejoin="round" fill="none"/>
        <path d="M 49.7760,13.0058 L 49.7760,14.0908 " stroke="#666666" stroke-width="0.1196" stroke-linecap="round" stroke-linejoin="round" fill="none"/>
        <path d="M 49.8353,13.0058 L 49.8353,14.0908 " stroke="#666666" stroke-width="0.1196" stroke-linecap="round" stroke-linejoin="round" fill="none"/>
        <path d="M 49.9012,13.0058 L 49.9012,14.0908 " stroke="#666666" stroke-width="0.1196" stroke-linecap="round" stroke-linejoin="round" fill="none"/>
        <path d="M 49.9936,13.0058 L 49.9936,14.0908 " stroke="#7C7C7C" stroke-width="0.1196" stroke-linecap="round" stroke-linejoin="round" fill="none"/>
        <path d="M 50.0595,13.0058 L 50.0595,14.0908 " stroke="#7C7C7C" stroke-width="0.1196" stroke-linecap="round" stroke-linejoin="round" fill="none"/>
        <path d="M 50.1188,13.0058 L 50.1188,14.0908 " stroke="#7C7C7C" stroke-width="0.1196" stroke-linecap="round" stroke-linejoin="round" fill="none"/>
        <path d="M 50.1848,13.0058 L 50.1848,14.0908 " stroke="#7C7C7C" stroke-width="0.1196" stroke-linecap="round" stroke-linejoin="round" fill="none"/>
        <path d="M 50.2507,13.0058 L 50.2507,14.0908 " stroke="#7C7C7C" stroke-width="0.1196" stroke-linecap="round" stroke-linejoin="round" fill="none"/>
        <path d="M 50.3101,13.0058 L 50.3101,14.0908 " stroke="#7C7C7C" stroke-width="0.1196" stroke-linecap="round" stroke-linejoin="round" fill="none"/>
        <path d="M 50.3760,13.0058 L 50.3760,14.0908 " stroke="#7C7C7C" stroke-width="0.1196" stroke-linecap="round" stroke-linejoin="round" fill="none"/>
        <path d="M 50.4617,13.0058 L 50.4617,14.0908 " stroke="#999999" stroke-width="0.1196" stroke-linecap="round" stroke-linejoin="round" fill="none"/>
        <path d="M 50.5277,13.0058 L 50.5277,14.0908 " stroke="#999999" stroke-width="0.1196" stroke-linecap="round" stroke-linejoin="round" fill="none"/>
        <path d="M 50.5870,13.0058 L 50.5870,14.0908 " stroke="#999999" stroke-width="0.1196" stroke-linecap="round" stroke-linejoin="round" fill="none"/>
        <path d="M 50.6529,13.0058 L 50.6529,14.0908 " stroke="#999999" stroke-width="0.1196" stroke-linecap="round" stroke-linejoin="round" fill="none"/>
        <path d="M 50.7189,13.0058 L 50.7189,14.0908 " stroke="#999999" stroke-width="0.1196" stroke-linecap="round" stroke-linejoin="round" fill="none"/>
        <path d="M 50.7782,13.0058 L 50.7782,14.0908 " stroke="#999999" stroke-width="0.1196" stroke-linecap="round" stroke-linejoin="round" fill="none"/>
        <path d="M 50.8441,13.0058 L 50.8441,14.0908 " stroke="#999999" stroke-width="0.1196" stroke-linecap="round" stroke-linejoin="round" fill="none"/>
        <path d="M 50.9365,13.0058 L 50.9365,14.0908 " stroke="#7C7C7C" stroke-width="0.1196" stroke-linecap="round" stroke-linejoin="round" fill="none"/>
        <path d="M 51.0024,13.0058 L 51.0024,14.0908 " stroke="#7C7C7C" stroke-width="0.1196" stroke-linecap="round" stroke-linejoin="round" fill="none"/>
        <path d="M 51.0617,13.0058 L 51.0617,14.0908 " stroke="#7C7C7C" stroke-width="0.1196" stroke-linecap="round" stroke-linejoin="round" fill="none"/>
        <path d="M 51.1277,13.0058 L 51.1277,14.0908 " stroke="#7C7C7C" stroke-width="0.1196" stroke-linecap="round" stroke-linejoin="round" fill="none"/>
        <path d="M 51.1936,13.0058 L 51.1936,14.0908 " stroke="#7C7C7C" stroke-width="0.1196" stroke-linecap="round" stroke-linejoin="round" fill="none"/>
        <path d="M 51.2530,13.0058 L 51.2530,14.0908 " stroke="#7C7C7C" stroke-width="0.1196" stroke-linecap="round" stroke-linejoin="round" fill="none"/>
        <path d="M 51.3189,13.0058 L 51.3189,14.0908 " stroke="#7C7C7C" stroke-width="0.1196" stroke-linecap="round" stroke-linejoin="round" fill="none"/>
        <path d="M 51.4046,13.0058 L 51.4046,14.0908 " stroke="#666666" stroke-width="0.1196" stroke-linecap="round" stroke-linejoin="round" fill="none"/>
        <path d="M 51.4706,13.0058 L 51.4706,14.0908 " stroke="#666666" stroke-width="0.1196" stroke-linecap="round" stroke-linejoin="round" fill="none"/>
        <path d="M 51.5299,13.0058 L 51.5299,14.0908 " stroke="#666666" stroke-width="0.1196" stroke-linecap="round" stroke-linejoin="round" fill="none"/>
        <path d="M 51.5958,13.0058 L 51.5958,14.0908 " stroke="#666666" stroke-width="0.1196" stroke-linecap="round" stroke-linejoin="round" fill="none"/>
        <path d="M 51.6618,13.0058 L 51.6618,14.0908 " stroke="#666666" stroke-width="0.1196" stroke-linecap="round" stroke-linejoin="round" fill="none"/>
        <path d="M 51.7211,13.0058 L 51.7211,14.0908 " stroke="#666666" stroke-width="0.1196" stroke-linecap="round" stroke-linejoin="round" fill="none"/>
        <path d="M 51.7871,13.0058 L 51.7871,14.0908 " stroke="#666666" stroke-width="0.1196" stroke-linecap="round" stroke-linejoin="round" fill="none"/>
        <path d="M 51.8794,13.0058 L 51.8794,14.0908 " stroke="#494949" stroke-width="0.1196" stroke-linecap="round" stroke-linejoin="round" fill="none"/>
        <path d="M 51.9453,13.0058 L 51.9453,14.0908 " stroke="#494949" stroke-width="0.1196" stroke-linecap="round" stroke-linejoin="round" fill="none"/>
        <path d="M 52.0046,13.0058 L 52.0046,14.0908 " stroke="#494949" stroke-width="0.1196" stroke-linecap="round" stroke-linejoin="round" fill="none"/>
        <path d="M 52.0706,13.0058 L 52.0706,14.0908 " stroke="#494949" stroke-width="0.1196" stroke-linecap="round" stroke-linejoin="round" fill="none"/>
        <path d="M 52.1365,13.0058 L 52.1365,14.0908 " stroke="#494949" stroke-width="0.1196" stroke-linecap="round" stroke-linejoin="round" fill="none"/>
        <path d="M 52.1959,13.0058 L 52.1959,14.0908 " stroke="#494949" stroke-width="0.1196" stroke-linecap="round" stroke-linejoin="round" fill="none"/>
        <path d="M 52.2618,13.0058 L 52.2618,14.0908 " stroke="#494949" stroke-width="0.1196" stroke-linecap="round" stroke-linejoin="round" fill="none"/>
        <path d="M 52.3475,13.0058 L 52.3475,14.0908 " stroke="#000000" stroke-width="0.1196" stroke-linecap="round" stroke-linejoin="round" fill="none"/>
        <path d="M 52.4135,13.0058 L 52.4135,14.0908 " stroke="#000000" stroke-width="0.1196" stroke-linecap="round" stroke-linejoin="round" fill="none"/>
        <path d="M 52.4728,13.0058 L 52.4728,14.0908 " stroke="#000000" stroke-width="0.1196" stroke-linecap="round" stroke-linejoin="round" fill="none"/>
        <path d="M 52.5387,13.0058 L 52.5387,14.0908 " stroke="#000000" stroke-width="0.1196" stroke-linecap="round" stroke-linejoin="round" fill="none"/>
        <path d="M 52.6047,13.0058 L 52.6047,14.0908 " stroke="#000000" stroke-width="0.1196" stroke-linecap="round" stroke-linejoin="round" fill="none"/>
        <path d="M 52.6640,13.0058 L 52.6640,14.0908 " stroke="#000000" stroke-width="0.1196" stroke-linecap="round" stroke-linejoin="round" fill="none"/>
        <path d="M 52.7300,13.0058 L 52.7300,14.0908 " stroke="#000000" stroke-width="0.1196" stroke-linecap="round" stroke-linejoin="round" fill="none"/>
        <path d="M 8.1235,13.7709 L 8.1235,13.8404 L 8.1301,13.8543 L 8.1301,13.8961 L 8.1366,13.9239 L 8.1366,13.9378 L 8.1432,13.9517 L 8.1498,13.9795 L 8.1564,13.9934 L 8.1564,14.0073 L 8.1630,14.0213 L 8.1696,14.0491 L 8.1960,14.1047 L 8.2092,14.1186 L 8.2158,14.1325 L 8.2224,14.1325 L 8.2290,14.1464 L 8.2421,14.1604 L 8.2487,14.1743 L 8.2553,14.1743 L 8.2685,14.1882 L 8.2883,14.1882 L 8.2949,14.2021 L 12.2511,14.2021 L 12.2577,14.1882 L 12.2775,14.1882 L 12.2907,14.1743 L 12.2973,14.1743 L 12.3039,14.1604 L 12.3171,14.1464 L 12.3237,14.1325 L 12.3303,14.1325 L 12.3368,14.1186 L 12.3500,14.1047 L 12.3764,14.0491 L 12.3830,14.0213 L 12.3896,14.0073 L 12.3896,13.9934 L 12.3962,13.9795 L 12.4028,13.9517 L 12.4094,13.9378 L 12.4094,13.9239 L 12.4160,13.8961 L 12.4160,13.8543 L 12.4226,13.8404 L 12.4226,12.8806 L 8.1235,12.8806 L 8.1235,13.7570 L 8.1235,13.7709 Z" stroke="#000000" stroke-width="0.1196" stroke-linecap="round" stroke-linejoin="round" fill="#333333"/>
        <path d="M 8.2026,13.0058 L 8.2026,14.0908 " stroke="#000000" stroke-width="0.1196" stroke-linecap="round" stroke-linejoin="round" fill="none"/>
        <path d="M 8.2685,13.0058 L 8.2685,14.0908 " stroke="#000000" stroke-width="0.1196" stroke-linecap="round" stroke-linejoin="round" fill="none"/>
        <path d="M 8.3279,13.0058 L 8.3279,14.0908 " stroke="#000000" stroke-width="0.1196" stroke-linecap="round" stroke-linejoin="round" fill="none"/>
        <path d="M 8.3279,13.0058 L 8.3279,14.0908 " stroke="#000000" stroke-width="0.1196" stroke-linecap="round" stroke-linejoin="round" fill="none"/>
        <path d="M 8.3938,13.0058 L 8.3938,14.0908 " stroke="#000000" stroke-width="0.1196" stroke-linecap="round" stroke-linejoin="round" fill="none"/>
        <path d="M 8.4597,13.0058 L 8.4597,14.0908 " stroke="#000000" stroke-width="0.1196" stroke-linecap="round" stroke-linejoin="round" fill="none"/>
        <path d="M 8.5191,13.0058 L 8.5191,14.0908 " stroke="#000000" stroke-width="0.1196" stroke-linecap="round" stroke-linejoin="round" fill="none"/>
        <path d="M 8.5850,13.0058 L 8.5850,14.0908 " stroke="#000000" stroke-width="0.1196" stroke-linecap="round" stroke-linejoin="round" fill="none"/>
        <path d="M 8.6773,13.0058 L 8.6773,14.0908 " stroke="#494949" stroke-width="0.1196" stroke-linecap="round" stroke-linejoin="round" fill="none"/>
        <path d="M 8.7433,13.0058 L 8.7433,14.0908 " stroke="#494949" stroke-width="0.1196" stroke-linecap="round" stroke-linejoin="round" fill="none"/>
        <path d="M 8.8026,13.0058 L 8.8026,14.0908 " stroke="#494949" stroke-width="0.1196" stroke-linecap="round" stroke-linejoin="round" fill="none"/>
        <path d="M 8.8685,13.0058 L 8.8685,14.0908 " stroke="#494949" stroke-width="0.1196" stroke-linecap="round" stroke-linejoin="round" fill="none"/>
        <path d="M 8.9345,13.0058 L 8.9345,14.0908 " stroke="#494949" stroke-width="0.1196" stroke-linecap="round" stroke-linejoin="round" fill="none"/>
        <path d="M 8.9938,13.0058 L 8.9938,14.0908 " stroke="#494949" stroke-width="0.1196" stroke-linecap="round" stroke-linejoin="round" fill="none"/>
        <path d="M 9.0598,13.0058 L 9.0598,14.0908 " stroke="#494949" stroke-width="0.1196" stroke-linecap="round" stroke-linejoin="round" fill="none"/>
        <path d="M 9.1455,13.0058 L 9.1455,14.0908 " stroke="#666666" stroke-width="0.1196" stroke-linecap="round" stroke-linejoin="round" fill="none"/>
        <path d="M 9.2114,13.0058 L 9.2114,14.0908 " stroke="#666666" stroke-width="0.1196" stroke-linecap="round" stroke-linejoin="round" fill="none"/>
        <path d="M 9.2708,13.0058 L 9.2708,14.0908 " stroke="#666666" stroke-width="0.1196" stroke-linecap="round" stroke-linejoin="round" fill="none"/>
        <path d="M 9.3367,13.0058 L 9.3367,14.0908 " stroke="#666666" stroke-width="0.1196" stroke-linecap="round" stroke-linejoin="round" fill="none"/>
        <path d="M 9.4026,13.0058 L 9.4026,14.0908 " stroke="#666666" stroke-width="0.1196" stroke-linecap="round" stroke-linejoin="round" fill="none"/>
        <path d="M 9.4620,13.0058 L 9.4620,14.0908 " stroke="#666666" stroke-width="0.1196" stroke-linecap="round" stroke-linejoin="round" fill="none"/>
        <path d="M 9.5279,13.0058 L 9.5279,14.0908 " stroke="#666666" stroke-width="0.1196" stroke-linecap="round" stroke-linejoin="round" fill="none"/>
        <path d="M 9.6202,13.0058 L 9.6202,14.0908 " stroke="#7C7C7C" stroke-width="0.1196" stroke-linecap="round" stroke-linejoin="round" fill="none"/>
        <path d="M 9.6862,13.0058 L 9.6862,14.0908 " stroke="#7C7C7C" stroke-width="0.1196" stroke-linecap="round" stroke-linejoin="round" fill="none"/>
        <path d="M 9.7455,13.0058 L 9.7455,14.0908 " stroke="#7C7C7C" stroke-width="0.1196" stroke-linecap="round" stroke-linejoin="round" fill="none"/>
        <path d="M 9.8115,13.0058 L 9.8115,14.0908 " stroke="#7C7C7C" stroke-width="0.1196" stroke-linecap="round" stroke-linejoin="round" fill="none"/>
        <path d="M 9.8774,13.0058 L 9.8774,14.0908 " stroke="#7C7C7C" stroke-width="0.1196" stroke-linecap="round" stroke-linejoin="round" fill="none"/>
        <path d="M 9.9367,13.0058 L 9.9367,14.0908 " stroke="#7C7C7C" stroke-width="0.1196" stroke-linecap="round" stroke-linejoin="round" fill="none"/>
        <path d="M 10.0027,13.0058 L 10.0027,14.0908 " stroke="#7C7C7C" stroke-width="0.1196" stroke-linecap="round" stroke-linejoin="round" fill="none"/>
        <path d="M 10.0884,13.0058 L 10.0884,14.0908 " stroke="#999999" stroke-width="0.1196" stroke-linecap="round" stroke-linejoin="round" fill="none"/>
        <path d="M 10.1543,13.0058 L 10.1543,14.0908 " stroke="#999999" stroke-width="0.1196" stroke-linecap="round" stroke-linejoin="round" fill="none"/>
        <path d="M 10.2137,13.0058 L 10.2137,14.0908 " stroke="#999999" stroke-width="0.1196" stroke-linecap="round" stroke-linejoin="round" fill="none"/>
        <path d="M 10.2796,13.0058 L 10.2796,14.0908 " stroke="#999999" stroke-width="0.1196" stroke-linecap="round" stroke-linejoin="round" fill="none"/>
        <path d="M 10.3455,13.0058 L 10.3455,14.0908 " stroke="#999999" stroke-width="0.1196" stroke-linecap="round" stroke-linejoin="round" fill="none"/>
        <path d="M 10.4049,13.0058 L 10.4049,14.0908 " stroke="#999999" stroke-width="0.1196" stroke-linecap="round" stroke-linejoin="round" fill="none"/>
        <path d="M 10.4708,13.0058 L 10.4708,14.0908 " stroke="#999999" stroke-width="0.1196" stroke-linecap="round" stroke-linejoin="round" fill="none"/>
        <path d="M 10.5631,13.0058 L 10.5631,14.0908 " stroke="#7C7C7C" stroke-width="0.1196" stroke-linecap="round" stroke-linejoin="round" fill="none"/>
        <path d="M 10.6291,13.0058 L 10.6291,14.0908 " stroke="#7C7C7C" stroke-width="0.1196" stroke-linecap="round" stroke-linejoin="round" fill="none"/>
        <path d="M 10.6884,13.0058 L 10.6884,14.0908 " stroke="#7C7C7C" stroke-width="0.1196" stroke-linecap="round" stroke-linejoin="round" fill="none"/>
        <path d="M 10.7544,13.0058 L 10.7544,14.0908 " stroke="#7C7C7C" stroke-width="0.1196" stroke-linecap="round" stroke-linejoin="round" fill="none"/>
        <path d="M 10.8203,13.0058 L 10.8203,14.0908 " stroke="#7C7C7C" stroke-width="0.1196" stroke-linecap="round" stroke-linejoin="round" fill="none"/>
        <path d="M 10.8796,13.0058 L 10.8796,14.0908 " stroke="#7C7C7C" stroke-width="0.1196" stroke-linecap="round" stroke-linejoin="round" fill="none"/>
        <path d="M 10.9456,13.0058 L 10.9456,14.0908 " stroke="#7C7C7C" stroke-width="0.1196" stroke-linecap="round" stroke-linejoin="round" fill="none"/>
        <path d="M 11.0313,13.0058 L 11.0313,14.0908 " stroke="#666666" stroke-width="0.1196" stroke-linecap="round" stroke-linejoin="round" fill="none"/>
        <path d="M 11.0972,13.0058 L 11.0972,14.0908 " stroke="#666666" stroke-width="0.1196" stroke-linecap="round" stroke-linejoin="round" fill="none"/>
        <path d="M 11.1566,13.0058 L 11.1566,14.0908 " stroke="#666666" stroke-width="0.1196" stroke-linecap="round" stroke-linejoin="round" fill="none"/>
        <path d="M 11.2225,13.0058 L 11.2225,14.0908 " stroke="#666666" stroke-width="0.1196" stroke-linecap="round" stroke-linejoin="round" fill="none"/>
        <path d="M 11.2884,13.0058 L 11.2884,14.0908 " stroke="#666666" stroke-width="0.1196" stroke-linecap="round" stroke-linejoin="round" fill="none"/>
        <path d="M 11.3478,13.0058 L 11.3478,14.0908 " stroke="#666666" stroke-width="0.1196" stroke-linecap="round" stroke-linejoin="round" fill="none"/>
        <path d="M 11.4137,13.0058 L 11.4137,14.0908 " stroke="#666666" stroke-width="0.1196" stroke-linecap="round" stroke-linejoin="round" fill="none"/>
        <path d="M 11.5060,13.0058 L 11.5060,14.0908 " stroke="#494949" stroke-width="0.1196" stroke-linecap="round" stroke-linejoin="round" fill="none"/>
        <path d="M 11.5720,13.0058 L 11.5720,14.0908 " stroke="#494949" stroke-width="0.1196" stroke-linecap="round" stroke-linejoin="round" fill="none"/>
        <path d="M 11.6313,13.0058 L 11.6313,14.0908 " stroke="#494949" stroke-width="0.1196" stroke-linecap="round" stroke-linejoin="round" fill="none"/>
        <path d="M 11.6973,13.0058 L 11.6973,14.0908 " stroke="#494949" stroke-width="0.1196" stroke-linecap="round" stroke-linejoin="round" fill="none"/>
        <path d="M 11.7632,13.0058 L 11.7632,14.0908 " stroke="#494949" stroke-width="0.1196" stroke-linecap="round" stroke-linejoin="round" fill="none"/>
        <path d="M 11.8225,13.0058 L 11.8225,14.0908 " stroke="#494949" stroke-width="0.1196" stroke-linecap="round" stroke-linejoin="round" fill="none"/>
        <path d="M 11.8885,13.0058 L 11.8885,14.0908 " stroke="#494949" stroke-width="0.1196" stroke-linecap="round" stroke-linejoin="round" fill="none"/>
        <path d="M 11.9742,13.0058 L 11.9742,14.0908 " stroke="#000000" stroke-width="0.1196" stroke-linecap="round" stroke-linejoin="round" fill="none"/>
        <path d="M 12.0401,13.0058 L 12.0401,14.0908 " stroke="#000000" stroke-width="0.1196" stroke-linecap="round" stroke-linejoin="round" fill="none"/>
        <path d="M 12.0995,13.0058 L 12.0995,14.0908 " stroke="#000000" stroke-width="0.1196" stroke-linecap="round" stroke-linejoin="round" fill="none"/>
        <path d="M 12.1654,13.0058 L 12.1654,14.0908 " stroke="#000000" stroke-width="0.1196" stroke-linecap="round" stroke-linejoin="round" fill="none"/>
        <path d="M 12.2313,13.0058 L 12.2313,14.0908 " stroke="#000000" stroke-width="0.1196" stroke-linecap="round" stroke-linejoin="round" fill="none"/>
        <path d="M 12.2907,13.0058 L 12.2907,14.0908 " stroke="#000000" stroke-width="0.1196" stroke-linecap="round" stroke-linejoin="round" fill="none"/>
        <path d="M 12.3566,13.0058 L 12.3566,14.0908 " stroke="#000000" stroke-width="0.1196" stroke-linecap="round" stroke-linejoin="round" fill="none"/>
        <path d="M 60.9293,0.0281 L 0.0280,0.0281 L 0.0280,12.9388 L 60.9293,12.9388 L 60.9293,0.0281 Z" stroke="#000000" stroke-width="0.1196" stroke-linecap="round" stroke-linejoin="round" fill="#EAEAEA"/>
        <path d="M 60.5655,0.4210 L 0.3918,0.4210 L 0.3918,12.9388 L 60.5655,12.9388 L 60.5655,0.4210 Z" stroke="#000000" stroke-width="0.1196" stroke-linecap="round" stroke-linejoin="round" fill="#EAEAEA"/>
        <path d="M 60.9293,0.0281 L 0.0280,0.0281 L 0.0280,12.9388 L 60.9293,12.9388 L 60.9293,0.0281 Z" stroke="#000000" stroke-width="0.1196" stroke-linecap="round" stroke-linejoin="round" fill="none"/>
        <ellipse cx="6.6231" cy="2.9323" rx="0.9587" ry="0.9627" fill="#999999" stroke="#000000" stroke-width="0.1196" stroke-linecap="round" stroke-linejoin="round"/>
        <ellipse cx="6.6231" cy="2.9323" rx="0.9587" ry="0.9627" fill="none" stroke="#000000" stroke-width="0.1196" stroke-linecap="round" stroke-linejoin="round"/>
        <ellipse cx="6.6231" cy="2.9323" rx="0.7163" ry="0.7192" fill="#666666" stroke="#000000" stroke-width="0.1196" stroke-linecap="round" stroke-linejoin="round"/>
        <ellipse cx="6.6231" cy="2.9323" rx="0.7163" ry="0.7192" fill="none" stroke="#000000" stroke-width="0.1196" stroke-linecap="round" stroke-linejoin="round"/>
        <ellipse cx="6.6231" cy="2.9323" rx="0.6502" ry="0.6528" fill="#7F7F7F" stroke="#000000" stroke-width="0.1196" stroke-linecap="round" stroke-linejoin="round"/>
        <ellipse cx="6.6231" cy="2.9323" rx="0.6502" ry="0.6528" fill="none" stroke="#7F7F7F" stroke-width="0.1196" stroke-linecap="round" stroke-linejoin="round"/>
        <path d="M 6.1272,2.8770 L 6.1051,2.8770 L 6.0831,2.8991 L 6.0831,2.9212 L 6.0611,2.9212 L 6.0611,3.0540 L 6.0831,3.0540 L 6.0831,3.0761 L 6.1051,3.0983 L 6.5680,3.0983 L 6.5680,3.5851 L 6.5900,3.5851 L 6.5900,3.6073 L 6.6121,3.6073 L 6.6121,3.6294 L 6.7443,3.6294 L 6.7443,3.6073 L 6.7663,3.6073 L 6.7663,3.5851 L 6.7884,3.5851 L 6.7884,3.0983 L 7.2733,3.0983 L 7.2733,3.0761 L 7.2953,3.0761 L 7.2953,3.0540 L 7.3174,3.0540 L 7.3174,2.9212 L 7.2953,2.9212 L 7.2953,2.8991 L 7.2733,2.8991 L 7.2733,2.8770 L 6.7884,2.8770 L 6.7884,2.4122 L 6.7663,2.3901 L 6.7443,2.3901 L 6.7443,2.3680 L 6.6121,2.3680 L 6.6121,2.3901 L 6.5900,2.3901 L 6.5680,2.4122 L 6.5680,2.8770 L 6.1492,2.8770 L 6.1272,2.8770 Z" stroke="#161616" stroke-width="0.1196" stroke-linecap="round" stroke-linejoin="round" fill="#494949"/>
        <path d="M 6.0390,2.9434 L 6.0390,3.0540 L 6.0611,3.0761 L 6.0831,3.0761 L 6.0831,3.0983 L 6.5680,3.0983 L 6.5680,3.6073 L 6.5900,3.6294 L 6.6121,3.6294 L 6.6121,3.6515 L 6.6782,3.6515 L 6.7002,3.6515 " stroke="#BFBFBF" stroke-width="0.1196" stroke-linecap="round" stroke-linejoin="round" fill="none"/>
        <path d="M 6.5680,2.4122 L 6.5680,2.8548 L 6.5680,2.8770 " stroke="#BFBFBF" stroke-width="0.1196" stroke-linecap="round" stroke-linejoin="round" fill="none"/>
        <ellipse cx="6.6254" cy="5.3598" rx="0.7428" ry="0.7458" fill="none" stroke="#0A0A0A" stroke-width="0.1196" stroke-linecap="round" stroke-linejoin="round"/>
        <path d="M 6.6848,4.8328 L 6.6848,5.5587 " stroke="#000000" stroke-width="0.1196" stroke-linecap="round" stroke-linejoin="round" fill="none"/>
        <path d="M 6.1896,5.6979 L 7.1800,5.6979 " stroke="#000000" stroke-width="0.1196" stroke-linecap="round" stroke-linejoin="round" fill="none"/>
        <path d="M 6.2986,5.8670 L 7.0710,5.8670 " stroke="#000000" stroke-width="0.1196" stroke-linecap="round" stroke-linejoin="round" fill="none"/>
        <path d="M 6.2986,5.8670 L 7.0710,5.8670 " stroke="#000000" stroke-width="0.1196" stroke-linecap="round" stroke-linejoin="round" fill="none"/>
        <path d="M 6.4372,6.0360 L 6.9324,6.0360 " stroke="#000000" stroke-width="0.1196" stroke-linecap="round" stroke-linejoin="round" fill="none"/>
        <ellipse cx="6.2609" cy="11.4570" rx="0.2688" ry="0.2643" fill="#000000" stroke="#000000" stroke-width="0.1196" stroke-linecap="round" stroke-linejoin="round"/>
        <ellipse cx="6.2609" cy="11.4570" rx="0.2688" ry="0.2643" fill="none" stroke="#0A0A0A" stroke-width="0.1196" stroke-linecap="round" stroke-linejoin="round"/>
        <text font-family="Arial" fill="#000000" style="white-space:pre;" font-weight="400" text-anchor="start" x="6.5969" y="13.5984" font-size="0.1232"><![CDATA[DC+12V]]></text>
        <path d="M 35.4844,2.5873 L 30.1312,2.5873 L 30.1312,10.3059 L 35.4844,10.3059 L 35.4844,2.5873 Z" stroke="#0A0A0A" stroke-width="0.1196" stroke-linecap="round" stroke-linejoin="round" fill="#FFFFFF"/>
        <path d="M 44.1680,2.5873 L 39.3718,2.5873 L 39.3718,10.3059 L 44.1680,10.3059 L 44.1680,2.5873 Z" stroke="#0A0A0A" stroke-width="0.1196" stroke-linecap="round" stroke-linejoin="round" fill="#FFFFFF"/>
        <path d="M 50.1077,2.5873 L 45.3115,2.5873 L 45.3115,10.3059 L 50.1077,10.3059 L 50.1077,2.5873 Z" stroke="#0A0A0A" stroke-width="0.1196" stroke-linecap="round" stroke-linejoin="round" fill="#FFFFFF"/>
        <ellipse cx="37.3862" cy="9.1915" rx="0.7079" ry="0.7104" fill="#666666" stroke="#000000" stroke-width="0.1196" stroke-linecap="round" stroke-linejoin="round"/>
        <ellipse cx="37.3862" cy="9.1915" rx="0.7079" ry="0.7104" fill="none" stroke="#000000" stroke-width="0.1196" stroke-linecap="round" stroke-linejoin="round"/>
        <ellipse cx="37.3862" cy="9.1915" rx="0.6425" ry="0.6448" fill="#7F7F7F" stroke="#000000" stroke-width="0.1196" stroke-linecap="round" stroke-linejoin="round"/>
        <ellipse cx="37.3862" cy="9.1915" rx="0.6425" ry="0.6448" fill="none" stroke="#7F7F7F" stroke-width="0.1196" stroke-linecap="round" stroke-linejoin="round"/>
        <path d="M 36.8961,9.1369 L 36.8743,9.1369 L 36.8525,9.1587 L 36.8525,9.1806 L 36.8308,9.1806 L 36.8308,9.3117 L 36.8525,9.3117 L 36.8525,9.3336 L 36.8743,9.3554 L 37.3317,9.3554 L 37.3317,9.8363 L 37.3535,9.8363 L 37.3535,9.8582 L 37.3753,9.8582 L 37.3753,9.8801 L 37.5060,9.8801 L 37.5060,9.8582 L 37.5277,9.8582 L 37.5277,9.8363 L 37.5495,9.8363 L 37.5495,9.3554 L 38.0287,9.3554 L 38.0287,9.3336 L 38.0505,9.3336 L 38.0505,9.3117 L 38.0722,9.3117 L 38.0722,9.1806 L 38.0505,9.1806 L 38.0505,9.1587 L 38.0287,9.1587 L 38.0287,9.1369 L 37.5495,9.1369 L 37.5495,8.6778 L 37.5277,8.6560 L 37.5060,8.6560 L 37.5060,8.6341 L 37.3753,8.6341 L 37.3753,8.6560 L 37.3535,8.6560 L 37.3317,8.6778 L 37.3317,9.1369 L 36.9179,9.1369 L 36.8961,9.1369 Z" stroke="#161616" stroke-width="0.1196" stroke-linecap="round" stroke-linejoin="round" fill="#494949"/>
        <path d="M 36.8090,9.2024 L 36.8090,9.3117 L 36.8308,9.3336 L 36.8525,9.3336 L 36.8525,9.3554 L 37.3317,9.3554 L 37.3317,9.8582 L 37.3535,9.8801 L 37.3753,9.8801 L 37.3753,9.9019 L 37.4406,9.9019 L 37.4624,9.9019 " stroke="#BFBFBF" stroke-width="0.1196" stroke-linecap="round" stroke-linejoin="round" fill="none"/>
        <path d="M 37.3317,8.6778 L 37.3317,9.1150 L 37.3317,9.1369 " stroke="#BFBFBF" stroke-width="0.1196" stroke-linecap="round" stroke-linejoin="round" fill="none"/>
        <ellipse cx="59.2864" cy="9.1915" rx="0.6970" ry="0.7104" fill="#666666" stroke="#000000" stroke-width="0.1196" stroke-linecap="round" stroke-linejoin="round"/>
        <ellipse cx="59.2864" cy="9.1915" rx="0.6970" ry="0.7104" fill="none" stroke="#000000" stroke-width="0.1196" stroke-linecap="round" stroke-linejoin="round"/>
        <ellipse cx="59.2864" cy="9.1915" rx="0.6316" ry="0.6448" fill="#7F7F7F" stroke="#000000" stroke-width="0.1196" stroke-linecap="round" stroke-linejoin="round"/>
        <ellipse cx="59.2864" cy="9.1915" rx="0.6316" ry="0.6448" fill="none" stroke="#7F7F7F" stroke-width="0.1196" stroke-linecap="round" stroke-linejoin="round"/>
        <path d="M 58.8072,9.1369 L 58.7855,9.1369 L 58.7637,9.1587 L 58.7637,9.1806 L 58.7419,9.1806 L 58.7419,9.3117 L 58.7637,9.3117 L 58.7637,9.3336 L 58.7855,9.3554 L 59.2428,9.3554 L 59.2428,9.8363 L 59.2646,9.8363 L 59.2646,9.8582 L 59.2864,9.8582 L 59.2864,9.8801 L 59.4171,9.8801 L 59.4171,9.8582 L 59.4389,9.8582 L 59.4389,9.8363 L 59.4607,9.8363 L 59.4607,9.3554 L 59.9398,9.3554 L 59.9398,9.3336 L 59.9616,9.3336 L 59.9616,9.3117 L 59.9834,9.3117 L 59.9834,9.1806 L 59.9616,9.1806 L 59.9616,9.1587 L 59.9398,9.1587 L 59.9398,9.1369 L 59.4607,9.1369 L 59.4607,8.6778 L 59.4389,8.6560 L 59.4171,8.6560 L 59.4171,8.6341 L 59.2864,8.6341 L 59.2864,8.6560 L 59.2646,8.6560 L 59.2428,8.6778 L 59.2428,9.1369 L 58.8290,9.1369 L 58.8072,9.1369 Z" stroke="#161616" stroke-width="0.1196" stroke-linecap="round" stroke-linejoin="round" fill="#494949"/>
        <path d="M 58.7201,9.2024 L 58.7201,9.3117 L 58.7419,9.3336 L 58.7637,9.3336 L 58.7637,9.3554 L 59.2428,9.3554 L 59.2428,9.8582 L 59.2646,9.8801 L 59.2864,9.8801 L 59.2864,9.9019 L 59.3518,9.9019 L 59.3735,9.9019 " stroke="#BFBFBF" stroke-width="0.1196" stroke-linecap="round" stroke-linejoin="round" fill="none"/>
        <path d="M 59.2428,8.6778 L 59.2428,9.1150 L 59.2428,9.1369 " stroke="#BFBFBF" stroke-width="0.1196" stroke-linecap="round" stroke-linejoin="round" fill="none"/>
        <text font-family="Arial" fill="#000000" style="white-space:pre;" font-weight="400" text-anchor="start" x="71.4399" y="13.2870" font-size="0.2396"><![CDATA[LAN 2]]></text>
        <text font-family="Arial" fill="#000000" style="white-space:pre;" font-weight="400" text-anchor="start" x="74.9466" y="13.2870" font-size="0.2396"><![CDATA[EXT 2]]></text>
        <text font-family="Arial" fill="#000000" style="white-space:pre;" font-weight="400" text-anchor="start" x="77.2335" y="13.2870" font-size="0.2396"><![CDATA[LINE 2]]></text>
        <text font-family="Arial" fill="#000000" style="white-space:pre;" font-weight="400" text-anchor="start" x="77.2335" y="9.6148" font-size="0.2396"><![CDATA[LINE 1]]></text>
        <text font-family="Arial" fill="#000000" style="white-space:pre;" font-weight="400" text-anchor="start" x="71.4399" y="9.6148" font-size="0.2396"><![CDATA[LAN 1]]></text>
        <text font-family="Arial" fill="#000000" style="white-space:pre;" font-weight="400" text-anchor="start" x="74.9466" y="9.6148" font-size="0.2396"><![CDATA[EXT 1]]></text>
        <path d="M 4.0583,5.4515 L 4.0583,10.2042 L 2.1258,10.2042 L 2.1258,5.4515 L 2.4985,5.4515 L 2.4985,5.8289 L 3.6856,5.8289 L 3.6856,5.4515 L 4.0583,5.4515 Z" stroke="#000000" stroke-width="0.1196" stroke-linecap="round" stroke-linejoin="round" fill="#000000"/>
        <path d="M 4.0031,5.9687 L 2.1810,5.9687 L 2.1810,10.1343 L 4.0031,10.1343 L 4.0031,5.9687 Z" stroke="#000000" stroke-width="0.1196" stroke-linecap="round" stroke-linejoin="round" fill="#666666"/>
        <path d="M 3.8099,8.2192 L 2.3743,8.2192 L 2.3743,9.6730 L 3.8099,9.6730 L 3.8099,8.2192 Z" stroke="#000000" stroke-width="0.1196" stroke-linecap="round" stroke-linejoin="round" fill="#000000"/>
        <ellipse cx="3.0299" cy="8.8832" rx="0.1173" ry="0.1188" fill="#BFBFBF" stroke="#000000" stroke-width="0.1196" stroke-linecap="round" stroke-linejoin="round"/>
        <ellipse cx="3.0299" cy="8.8832" rx="0.1173" ry="0.1188" fill="none" stroke="#000000" stroke-width="0.1196" stroke-linecap="round" stroke-linejoin="round"/>
        <path d="M 3.8099,6.4580 L 2.3743,6.4580 L 2.3743,7.5483 L 2.7332,7.9117 L 3.4786,7.9117 L 3.8099,7.5762 L 3.8099,6.4580 Z" stroke="#000000" stroke-width="0.1196" stroke-linecap="round" stroke-linejoin="round" fill="#000000"/>
        <ellipse cx="3.0299" cy="7.1219" rx="0.1173" ry="0.1188" fill="#BFBFBF" stroke="#000000" stroke-width="0.1196" stroke-linecap="round" stroke-linejoin="round"/>
        <ellipse cx="3.0299" cy="7.1219" rx="0.1173" ry="0.1188" fill="none" stroke="#000000" stroke-width="0.1196" stroke-linecap="round" stroke-linejoin="round"/>
        <path d="M 32.2007,2.7045 L 32.2007,2.8571 L 31.9767,2.8571 L 31.9767,3.2870 L 31.0387,3.2870 L 31.0387,3.3286 L 30.7446,3.3286 L 30.7446,2.8571 L 30.8006,2.8571 L 30.8006,3.2870 L 31.0387,3.2870 L 31.0387,4.2440 L 31.1367,4.2440 L 31.1367,4.7433 L 31.0387,4.7433 L 31.0387,5.8251 L 34.6227,5.8251 L 34.6227,4.7433 L 34.5247,4.7433 L 34.5247,4.2440 L 34.6227,4.2440 L 34.6227,3.2870 L 34.8607,3.2870 L 34.8607,2.8571 L 34.9167,2.8571 L 34.9167,3.3286 L 34.6227,3.3286 L 34.6227,3.2870 L 33.6847,3.2870 L 33.6847,2.8571 L 33.4607,2.8571 L 33.4607,2.7045 L 32.2007,2.7045 Z" stroke="#000000" stroke-width="0.1196" stroke-linecap="round" stroke-linejoin="round" fill="#000000"/>
        <path d="M 31.9767,2.8709 L 30.8006,2.8709 L 30.8006,3.3009 L 31.9767,3.3009 L 31.9767,2.8709 Z" stroke="#494949" stroke-width="0.1196" stroke-linecap="round" stroke-linejoin="round" fill="#000000"/>
        <path d="M 34.8607,2.8709 L 33.6847,2.8709 L 33.6847,3.3009 L 34.8607,3.3009 L 34.8607,2.8709 Z" stroke="#494949" stroke-width="0.1196" stroke-linecap="round" stroke-linejoin="round" fill="#000000"/>
        <path d="M 32.2007,10.3188 L 32.2007,10.1662 L 31.9767,10.1662 L 31.9767,9.7362 L 31.0387,9.7362 L 31.0387,9.6946 L 30.7446,9.6946 L 30.7446,10.1662 L 30.8006,10.1662 L 30.8006,9.7362 L 31.0387,9.7362 L 31.0387,8.7793 L 31.1367,8.7793 L 31.1367,8.2800 L 31.0387,8.2800 L 31.0387,7.1982 L 34.6227,7.1982 L 34.6227,8.2800 L 34.5247,8.2800 L 34.5247,8.7793 L 34.6227,8.7793 L 34.6227,9.7362 L 34.8607,9.7362 L 34.8607,10.1662 L 34.9167,10.1662 L 34.9167,9.6946 L 34.6227,9.6946 L 34.6227,9.7362 L 33.6847,9.7362 L 33.6847,10.1662 L 33.4607,10.1662 L 33.4607,10.3188 L 32.2007,10.3188 Z" stroke="#000000" stroke-width="0.1196" stroke-linecap="round" stroke-linejoin="round" fill="#000000"/>
        <path d="M 31.9767,9.7362 L 30.8006,9.7362 L 30.8006,10.1662 L 31.9767,10.1662 L 31.9767,9.7362 Z" stroke="#494949" stroke-width="0.1196" stroke-linecap="round" stroke-linejoin="round" fill="#000000"/>
        <path d="M 34.8607,9.7362 L 33.6847,9.7362 L 33.6847,10.1662 L 34.8607,10.1662 L 34.8607,9.7362 Z" stroke="#494949" stroke-width="0.1196" stroke-linecap="round" stroke-linejoin="round" fill="#000000"/>
        <path d="M 40.2055,5.8251 L 40.2055,3.6892 L 40.7029,3.6892 L 40.7029,3.1899 L 41.1865,3.1899 L 41.1865,2.7045 L 42.3332,2.7045 L 42.3332,3.1899 L 42.8306,3.1899 L 42.8306,3.6892 L 43.3142,3.6892 L 43.3142,5.8251 L 40.2055,5.8251 Z" stroke="#161616" stroke-width="0.1196" stroke-linecap="round" stroke-linejoin="round" fill="#000000"/>
        <path d="M 40.2055,7.1427 L 40.2055,9.2786 L 40.7029,9.2786 L 40.7029,9.7779 L 41.1865,9.7779 L 41.1865,10.2633 L 42.3332,10.2633 L 42.3332,9.7779 L 42.8306,9.7779 L 42.8306,9.2786 L 43.3142,9.2786 L 43.3142,7.1427 L 40.2055,7.1427 Z" stroke="#161616" stroke-width="0.1196" stroke-linecap="round" stroke-linejoin="round" fill="#000000"/>
        <path d="M 46.1465,5.8251 L 46.1465,3.6892 L 46.6439,3.6892 L 46.6439,3.1899 L 47.1275,3.1899 L 47.1275,2.7045 L 48.2743,2.7045 L 48.2743,3.1899 L 48.7716,3.1899 L 48.7716,3.6892 L 49.2552,3.6892 L 49.2552,5.8251 L 46.1465,5.8251 Z" stroke="#161616" stroke-width="0.1196" stroke-linecap="round" stroke-linejoin="round" fill="#000000"/>
        <path d="M 46.1465,7.1427 L 46.1465,9.2786 L 46.6439,9.2786 L 46.6439,9.7779 L 47.1275,9.7779 L 47.1275,10.2633 L 48.2743,10.2633 L 48.2743,9.7779 L 48.7716,9.7779 L 48.7716,9.2786 L 49.2552,9.2786 L 49.2552,7.1427 L 46.1465,7.1427 Z" stroke="#161616" stroke-width="0.1196" stroke-linecap="round" stroke-linejoin="round" fill="#000000"/>
        <path d="M 34.6962,9.8415 L 33.9393,9.8415 L 33.9393,10.1531 L 34.6962,10.1531 L 34.6962,9.8415 Z" stroke="#000000" stroke-width="0.1196" stroke-linecap="round" stroke-linejoin="round" fill="#83FF00"/>
        <path d="M 31.7767,9.8415 L 31.0198,9.8415 L 31.0198,10.1531 L 31.7767,10.1531 L 31.7767,9.8415 Z" stroke="#000000" stroke-width="0.1196" stroke-linecap="round" stroke-linejoin="round" fill="#83FF00"/>
        <path d="M 31.7767,2.9862 L 31.0198,2.9862 L 31.0198,3.2978 L 31.7767,3.2978 L 31.7767,2.9862 Z" stroke="#000000" stroke-width="0.1196" stroke-linecap="round" stroke-linejoin="round" fill="#83FF00"/>
        <path d="M 34.6962,2.9862 L 33.9393,2.9862 L 33.9393,3.2978 L 34.6962,3.2978 L 34.6962,2.9862 Z" stroke="#000000" stroke-width="0.1196" stroke-linecap="round" stroke-linejoin="round" fill="#83FF00"/>
      </g>
      <!--emf-blob end-->
    </g>
  </g>
</svg>
