<svg xmlns="http://www.w3.org/2000/svg" xmlns:xlink="http://www.w3.org/1999/xlink" version="1.1" width="2.7024000000" height="0.4568000000" viewBox="0 0 48.6425 8.2205">
  <title><![CDATA[FVE-20E2]]></title>
  <g transform=" scale(4.000000) ">
    <!--converted by libvisio2svg-->
    <g transform=" translate(0.000000,0.000000) ">
      <!--emf-blob start-->
      <g transform="translate(-0.0000, -0.0000)">
        <path d="M 48.5863,0.3059 L 48.5863,0.2502 L 48.5582,0.1946 L 48.5441,0.1529 L 48.5020,0.1112 L 48.4598,0.0695 L 48.4177,0.0556 L 48.3615,0.0278 L 48.3053,0.0278 L 0.3091,0.0278 L 0.2529,0.0278 L 0.1967,0.0556 L 0.1546,0.0695 L 0.1124,0.1112 L 0.0703,0.1529 L 0.0562,0.1946 L 0.0281,0.2502 L 0.0281,0.3059 L 0.0281,7.8134 L 0.0281,7.8690 L 0.0562,7.9246 L 0.0703,7.9663 L 0.1124,8.0080 L 0.1546,8.0497 L 0.1967,8.0636 L 0.2529,8.0914 L 0.3091,8.0914 L 48.3053,8.0914 L 48.3615,8.0914 L 48.4177,8.0636 L 48.4598,8.0497 L 48.5020,8.0080 L 48.5441,7.9663 L 48.5582,7.9246 L 48.5863,7.8690 L 48.5863,7.8134 L 48.5863,0.3059 Z" stroke="#000000" stroke-width="0.1198" stroke-linecap="round" stroke-linejoin="round" fill="#EFEFEF"/>
        <path d="M 47.4061,1.3069 L 1.2224,1.3069 L 1.2224,8.0914 L 47.4061,8.0914 L 47.4061,1.3069 " stroke="#7F7F7F" stroke-width="0.1198" stroke-linecap="round" stroke-linejoin="round" fill="none"/>
        <path d="M 0.1124,0.0973 L 1.2224,1.3069 " stroke="#7F7F7F" stroke-width="0.1198" stroke-linecap="round" stroke-linejoin="round" fill="none"/>
        <path d="M 48.5020,0.0973 L 47.3920,1.3069 " stroke="#7F7F7F" stroke-width="0.1198" stroke-linecap="round" stroke-linejoin="round" fill="none"/>
        <ellipse cx="45.2915" cy="4.7756" rx="0.9203" ry="0.9106" fill="#BFBFBF" stroke="#000000" stroke-width="0.1198" stroke-linecap="round" stroke-linejoin="round"/>
        <ellipse cx="45.2915" cy="4.7756" rx="0.9203" ry="0.9106" fill="none" stroke="#161616" stroke-width="0.1198" stroke-linecap="round" stroke-linejoin="round"/>
        <ellipse cx="45.2985" cy="4.7756" rx="0.7447" ry="0.7299" fill="#DDDDDD" stroke="#000000" stroke-width="0.1198" stroke-linecap="round" stroke-linejoin="round"/>
        <ellipse cx="45.2985" cy="4.7756" rx="0.7447" ry="0.7299" fill="none" stroke="#000000" stroke-width="0.1198" stroke-linecap="round" stroke-linejoin="round"/>
        <path d="M 45.4812,5.3943 L 45.4671,5.3943 L 45.4531,5.3943 L 45.4390,5.3943 L 45.4250,5.3943 L 45.4109,5.3943 L 45.3969,5.3943 L 45.3828,5.3943 L 45.3688,5.3943 L 45.3547,5.3943 L 45.3407,5.3943 L 45.3266,5.3943 L 45.3126,5.3943 L 45.2985,5.3943 L 45.2845,5.3943 L 45.2704,5.3943 L 45.2564,5.3943 L 45.2564,5.3804 L 45.2564,5.3665 L 45.2564,5.3526 L 45.2564,5.3387 L 45.2564,5.3248 L 45.2564,5.3109 L 45.2564,5.2970 L 45.2564,5.2831 L 45.2564,5.2691 L 45.2564,5.2552 L 45.2564,5.2413 L 45.2564,5.2274 L 45.2564,5.2135 L 45.2564,5.1996 L 45.2564,5.1857 L 45.2564,5.1718 L 45.2564,5.1579 L 45.2564,5.1440 L 45.2564,5.1301 L 45.2564,5.1162 L 45.2564,5.1023 L 45.2423,5.0884 L 45.2423,5.0745 L 45.2423,5.0606 L 45.2283,5.0467 L 45.2283,5.0328 L 45.2142,5.0328 L 45.2142,5.0189 L 45.2002,5.0189 L 45.2002,5.0050 L 45.1861,5.0050 L 45.1721,4.9911 L 45.1580,4.9911 L 45.1439,4.9911 L 45.1299,4.9772 L 45.1158,4.9772 L 45.1018,4.9772 L 45.0877,4.9772 L 45.0737,4.9772 L 45.0596,4.9772 L 45.0456,4.9772 L 45.0315,4.9772 L 45.0175,4.9772 L 45.0034,4.9772 L 44.9894,4.9772 L 44.9753,4.9772 L 44.9613,4.9772 L 44.9472,4.9772 L 44.9332,4.9772 L 44.9191,4.9772 L 44.9051,4.9772 L 44.8910,4.9772 L 44.8770,4.9772 L 44.8629,4.9772 L 44.8489,4.9772 L 44.8348,4.9772 L 44.8208,4.9772 L 44.8208,4.9633 L 44.8208,4.9494 L 44.8208,4.9355 L 44.8208,4.9216 L 44.8208,4.9077 L 44.8208,4.8938 L 44.8208,4.8799 L 44.8208,4.8660 L 44.8208,4.8521 L 44.8208,4.8382 L 44.8208,4.8243 L 44.8208,4.8104 L 44.8208,4.7965 L 44.8208,4.7826 L 44.8208,4.7686 L 44.8208,4.7547 L 44.8208,4.7408 L 44.8208,4.7269 L 44.8348,4.7269 L 44.8489,4.7269 L 44.8629,4.7269 L 44.8770,4.7269 L 44.8910,4.7269 L 44.9051,4.7269 L 44.9191,4.7269 L 44.9332,4.7269 L 44.9472,4.7269 L 44.9613,4.7269 L 44.9753,4.7269 L 44.9894,4.7269 L 45.0034,4.7269 L 45.0175,4.7269 L 45.0315,4.7269 L 45.0456,4.7269 L 45.0596,4.7269 L 45.0737,4.7269 L 45.0877,4.7269 L 45.1018,4.7269 L 45.1158,4.7269 L 45.1299,4.7269 L 45.1299,4.7130 L 45.1439,4.7130 L 45.1580,4.7130 L 45.1721,4.6991 L 45.1861,4.6852 L 45.2002,4.6852 L 45.2002,4.6713 L 45.2142,4.6713 L 45.2142,4.6574 L 45.2283,4.6435 L 45.2283,4.6296 L 45.2423,4.6296 L 45.2423,4.6157 L 45.2423,4.6018 L 45.2423,4.5879 L 45.2564,4.5879 L 45.2564,4.5740 L 45.2564,4.5601 L 45.2564,4.5462 L 45.2564,4.5323 L 45.2564,4.5184 L 45.2564,4.5045 L 45.2564,4.4906 L 45.2564,4.4767 L 45.2564,4.4628 L 45.2564,4.4489 L 45.2564,4.4350 L 45.2564,4.4211 L 45.2564,4.4072 L 45.2564,4.3933 L 45.2564,4.3794 L 45.2564,4.3655 L 45.2564,4.3516 L 45.2564,4.3377 L 45.2564,4.3238 L 45.2564,4.3099 L 45.2704,4.3099 L 45.2845,4.3099 L 45.2985,4.3099 L 45.3126,4.3099 L 45.3266,4.3099 L 45.3407,4.3099 L 45.3547,4.3099 L 45.3688,4.3099 L 45.3828,4.3099 L 45.3969,4.3099 L 45.4109,4.3099 L 45.4250,4.3099 L 45.4390,4.3099 L 45.4531,4.3099 L 45.4671,4.3099 L 45.4812,4.3099 L 45.4812,4.3238 L 45.4812,4.3377 L 45.4812,4.3516 L 45.4812,4.3655 L 45.4812,4.3794 L 45.4812,4.3933 L 45.4812,4.4072 L 45.4812,4.4211 L 45.4812,4.4350 L 45.4812,4.4489 L 45.4812,4.4628 L 45.4812,4.4767 L 45.4812,4.4906 L 45.4812,4.5045 L 45.4812,4.5184 L 45.4812,4.5323 L 45.4812,4.5462 L 45.4812,4.5601 L 45.4812,4.5740 L 45.4812,4.5879 L 45.4952,4.5879 L 45.4952,4.6018 L 45.4952,4.6157 L 45.4952,4.6296 L 45.5093,4.6296 L 45.5093,4.6435 L 45.5233,4.6574 L 45.5374,4.6713 L 45.5374,4.6852 L 45.5514,4.6852 L 45.5655,4.6991 L 45.5795,4.7130 L 45.5936,4.7130 L 45.6076,4.7130 L 45.6076,4.7269 L 45.6217,4.7269 L 45.6357,4.7269 L 45.6498,4.7269 L 45.6638,4.7269 L 45.6779,4.7269 L 45.6919,4.7269 L 45.7060,4.7269 L 45.7200,4.7269 L 45.7341,4.7269 L 45.7481,4.7269 L 45.7622,4.7269 L 45.7762,4.7269 L 45.7903,4.7269 L 45.8043,4.7269 L 45.8184,4.7269 L 45.8324,4.7269 L 45.8465,4.7269 L 45.8605,4.7269 L 45.8746,4.7269 L 45.8886,4.7269 L 45.9027,4.7269 L 45.9167,4.7269 L 45.9167,4.7408 L 45.9167,4.7547 L 45.9167,4.7686 L 45.9167,4.7826 L 45.9167,4.7965 L 45.9167,4.8104 L 45.9167,4.8243 L 45.9167,4.8382 L 45.9167,4.8521 L 45.9167,4.8660 L 45.9167,4.8799 L 45.9167,4.8938 L 45.9167,4.9077 L 45.9167,4.9216 L 45.9167,4.9355 L 45.9167,4.9494 L 45.9167,4.9633 L 45.9167,4.9772 L 45.9027,4.9772 L 45.8886,4.9772 L 45.8746,4.9772 L 45.8605,4.9772 L 45.8465,4.9772 L 45.8324,4.9772 L 45.8184,4.9772 L 45.8043,4.9772 L 45.7903,4.9772 L 45.7762,4.9772 L 45.7622,4.9772 L 45.7481,4.9772 L 45.7341,4.9772 L 45.7200,4.9772 L 45.7060,4.9772 L 45.6919,4.9772 L 45.6779,4.9772 L 45.6638,4.9772 L 45.6498,4.9772 L 45.6357,4.9772 L 45.6217,4.9772 L 45.6076,4.9772 L 45.5936,4.9911 L 45.5795,4.9911 L 45.5655,4.9911 L 45.5514,5.0050 L 45.5374,5.0050 L 45.5374,5.0189 L 45.5233,5.0328 L 45.5093,5.0328 L 45.5093,5.0467 L 45.4952,5.0606 L 45.4952,5.0745 L 45.4952,5.0884 L 45.4812,5.1023 L 45.4812,5.1162 L 45.4812,5.1301 L 45.4812,5.1440 L 45.4812,5.1579 L 45.4812,5.1718 L 45.4812,5.1857 L 45.4812,5.1996 L 45.4812,5.2135 L 45.4812,5.2274 L 45.4812,5.2413 L 45.4812,5.2552 L 45.4812,5.2691 L 45.4812,5.2831 L 45.4812,5.2970 L 45.4812,5.3109 L 45.4812,5.3248 L 45.4812,5.3387 L 45.4812,5.3526 L 45.4812,5.3665 L 45.4812,5.3804 L 45.4812,5.3943 Z" stroke="#000000" stroke-width="0.1198" stroke-linecap="round" stroke-linejoin="round" fill="#7F7F7F"/>
        <path d="M 45.8324,6.6038 L 44.8770,6.6038 " stroke="#000000" stroke-width="0.1198" stroke-linecap="round" stroke-linejoin="round" fill="none"/>
        <path d="M 45.3547,6.6038 L 45.3547,6.1589 " stroke="#000000" stroke-width="0.1198" stroke-linecap="round" stroke-linejoin="round" fill="none"/>
        <path d="M 45.4671,7.0348 L 45.2423,7.0348 " stroke="#000000" stroke-width="0.1198" stroke-linecap="round" stroke-linejoin="round" fill="none"/>
        <path d="M 45.0456,6.8124 L 45.6638,6.8124 " stroke="#000000" stroke-width="0.1198" stroke-linecap="round" stroke-linejoin="round" fill="none"/>
        <ellipse cx="45.2915" cy="6.5273" rx="0.5831" ry="0.5770" fill="none" stroke="#000000" stroke-width="0.1198" stroke-linecap="round" stroke-linejoin="round"/>
        <ellipse cx="45.2915" cy="6.5273" rx="0.5831" ry="0.5770" fill="none" stroke="#000000" stroke-width="0.1198" stroke-linecap="round" stroke-linejoin="round"/>
        <path d="M 22.1715,2.7667 L 5.8028,2.7667 L 5.8028,6.3536 L 22.1715,6.3536 L 22.1715,2.7667 Z" stroke="#000000" stroke-width="0.1198" stroke-linecap="round" stroke-linejoin="round" fill="#000000"/>
        <path d="M 9.8493,2.8362 L 5.9012,2.8362 L 5.9012,6.2840 L 9.8493,6.2840 L 9.8493,2.8362 Z" stroke="#000000" stroke-width="0.1198" stroke-linecap="round" stroke-linejoin="round" fill="#BFBFBF"/>
        <path d="M 13.9099,2.8362 L 9.9617,2.8362 L 9.9617,6.2840 L 13.9099,6.2840 L 13.9099,2.8362 Z" stroke="#000000" stroke-width="0.1198" stroke-linecap="round" stroke-linejoin="round" fill="#BFBFBF"/>
        <path d="M 17.9845,2.8362 L 14.0364,2.8362 L 14.0364,6.2840 L 17.9845,6.2840 L 17.9845,2.8362 Z" stroke="#000000" stroke-width="0.1198" stroke-linecap="round" stroke-linejoin="round" fill="#BFBFBF"/>
        <path d="M 22.0732,2.8362 L 18.1250,2.8362 L 18.1250,6.2840 L 22.0732,6.2840 L 22.0732,2.8362 Z" stroke="#000000" stroke-width="0.1198" stroke-linecap="round" stroke-linejoin="round" fill="#BFBFBF"/>
        <path d="M 9.0485,2.4052 L 8.9642,2.4052 L 8.8799,2.4052 L 8.7956,2.4052 L 8.6972,2.4052 L 8.6129,2.4052 L 8.5145,2.4052 L 8.4302,2.4052 L 8.3319,2.4052 L 8.2335,2.4052 L 8.1492,2.4052 L 8.0509,2.4052 L 7.9666,2.4052 L 7.8682,2.4052 L 7.7839,2.4052 L 7.6996,2.4052 L 7.6153,2.4052 L 7.5310,2.4052 L 7.4608,2.4052 L 7.3765,2.4052 L 7.3062,2.4052 L 7.2360,2.4052 L 7.1798,2.4052 L 7.1236,2.4052 L 7.0674,2.4052 L 7.0112,2.4052 L 6.9690,2.4052 L 6.9268,2.4052 L 6.8987,2.4052 L 6.8706,2.4052 L 6.8566,2.4052 L 6.8425,2.4052 L 6.8285,2.4052 L 6.8144,2.4052 L 6.8004,2.4052 L 6.7863,2.4052 L 6.7582,2.4052 L 6.7442,2.4052 L 6.7301,2.4191 L 6.7161,2.4191 L 6.7020,2.4191 L 6.6880,2.4191 L 6.6739,2.4330 L 6.6599,2.4330 L 6.6458,2.4330 L 6.6318,2.4469 L 6.6177,2.4469 L 6.6037,2.4608 L 6.5896,2.4608 L 6.5756,2.4747 L 6.5615,2.4747 L 6.5475,2.4886 L 6.5475,2.5025 L 6.5334,2.5164 L 6.5194,2.5164 L 6.5053,2.5303 L 6.5053,2.5442 L 6.4913,2.5581 L 6.4772,2.5720 L 6.4772,2.5859 L 6.4632,2.5998 L 6.4632,2.6137 L 6.4491,2.6415 L 6.4491,2.6554 " stroke="#000000" stroke-width="0.1198" stroke-linecap="round" stroke-linejoin="round" fill="none"/>
        <path d="M 10.7205,2.4052 L 10.8048,2.4052 L 10.8891,2.4052 L 10.9734,2.4052 L 11.0717,2.4052 L 11.1560,2.4052 L 11.2544,2.4052 L 11.3387,2.4052 L 11.4370,2.4052 L 11.5354,2.4052 L 11.6197,2.4052 L 11.7180,2.4052 L 11.8023,2.4052 L 11.9007,2.4052 L 11.9850,2.4052 L 12.0693,2.4052 L 12.1536,2.4052 L 12.2379,2.4052 L 12.3082,2.4052 L 12.3925,2.4052 L 12.4627,2.4052 L 12.5330,2.4052 L 12.5892,2.4052 L 12.6454,2.4052 L 12.7016,2.4052 L 12.7578,2.4052 L 12.7999,2.4052 L 12.8421,2.4052 L 12.8702,2.4052 L 12.8983,2.4052 L 12.9123,2.4052 L 12.9264,2.4052 L 12.9404,2.4052 L 12.9545,2.4052 L 12.9685,2.4052 L 12.9826,2.4052 L 13.0107,2.4052 L 13.0247,2.4052 L 13.0388,2.4191 L 13.0528,2.4191 L 13.0669,2.4191 L 13.0809,2.4191 L 13.0950,2.4330 L 13.1090,2.4330 L 13.1231,2.4330 L 13.1371,2.4469 L 13.1512,2.4469 L 13.1652,2.4608 L 13.1793,2.4608 L 13.1933,2.4747 L 13.2074,2.4747 L 13.2214,2.4886 L 13.2214,2.5025 L 13.2355,2.5164 L 13.2495,2.5164 L 13.2636,2.5303 L 13.2636,2.5442 L 13.2776,2.5581 L 13.2917,2.5720 L 13.2917,2.5859 L 13.3057,2.5998 L 13.3057,2.6137 L 13.3198,2.6415 L 13.3198,2.6554 " stroke="#000000" stroke-width="0.1198" stroke-linecap="round" stroke-linejoin="round" fill="none"/>
        <path d="M 16.8886,2.4052 L 16.8043,2.4052 L 16.7340,2.4052 L 16.6497,2.4052 L 16.5654,2.4052 L 16.4811,2.4052 L 16.3968,2.4052 L 16.3266,2.4052 L 16.2423,2.4052 L 16.1580,2.4052 L 16.0877,2.4052 L 16.0034,2.4052 L 15.9332,2.4052 L 15.8489,2.4052 L 15.7786,2.4052 L 15.7084,2.4052 L 15.6381,2.4052 L 15.5678,2.4052 L 15.5116,2.4052 L 15.4414,2.4052 L 15.3852,2.4052 L 15.3290,2.4052 L 15.2868,2.4052 L 15.2306,2.4052 L 15.1885,2.4052 L 15.1604,2.4052 L 15.1182,2.4052 L 15.0901,2.4052 L 15.0620,2.4052 L 15.0480,2.4052 L 15.0339,2.4052 L 15.0199,2.4052 L 15.0058,2.4052 L 14.9918,2.4052 L 14.9777,2.4052 L 14.9637,2.4052 L 14.9356,2.4052 L 14.9215,2.4052 L 14.9075,2.4191 L 14.8934,2.4191 L 14.8794,2.4191 L 14.8653,2.4191 L 14.8513,2.4330 L 14.8372,2.4330 L 14.8232,2.4330 L 14.8091,2.4469 L 14.7951,2.4469 L 14.7810,2.4608 L 14.7670,2.4608 L 14.7529,2.4747 L 14.7389,2.4747 L 14.7248,2.4886 L 14.7248,2.5025 L 14.7108,2.5164 L 14.6967,2.5164 L 14.6827,2.5303 L 14.6827,2.5442 L 14.6686,2.5581 L 14.6546,2.5720 L 14.6546,2.5859 L 14.6405,2.5998 L 14.6405,2.6137 L 14.6265,2.6415 L 14.6265,2.6554 " stroke="#000000" stroke-width="0.1198" stroke-linecap="round" stroke-linejoin="round" fill="none"/>
        <path d="M 40.1280,3.2811 L 37.6551,3.2811 L 37.6551,6.3536 L 40.1280,6.3536 L 40.1280,3.2811 Z" stroke="#000000" stroke-width="0.1198" stroke-linecap="round" stroke-linejoin="round" fill="#0A0A0A"/>
        <path d="M 40.0999,3.3089 L 37.6832,3.3089 L 37.6832,6.3258 L 40.0999,6.3258 L 40.0999,3.3089 Z" stroke="#000000" stroke-width="0.1198" stroke-linecap="round" stroke-linejoin="round" fill="#494949"/>
        <ellipse cx="42.3479" cy="4.7756" rx="0.4075" ry="0.3962" fill="#000000" stroke="#000000" stroke-width="0.1198" stroke-linecap="round" stroke-linejoin="round"/>
        <ellipse cx="42.3479" cy="4.7756" rx="0.4075" ry="0.3962" fill="none" stroke="#000000" stroke-width="0.1198" stroke-linecap="round" stroke-linejoin="round"/>
        <ellipse cx="42.3479" cy="4.7756" rx="0.3232" ry="0.3128" fill="#494949" stroke="#000000" stroke-width="0.1198" stroke-linecap="round" stroke-linejoin="round"/>
        <ellipse cx="42.3479" cy="4.7756" rx="0.3232" ry="0.3128" fill="none" stroke="#000000" stroke-width="0.1198" stroke-linecap="round" stroke-linejoin="round"/>
        <path d="M 48.5863,0.3059 L 48.5863,0.2502 L 48.5582,0.1946 L 48.5441,0.1529 L 48.5020,0.1112 L 48.4598,0.0695 L 48.4177,0.0556 L 48.3615,0.0278 L 48.3053,0.0278 L 0.3091,0.0278 L 0.2529,0.0278 L 0.1967,0.0556 L 0.1546,0.0695 L 0.1124,0.1112 L 0.0703,0.1529 L 0.0562,0.1946 L 0.0281,0.2502 L 0.0281,0.3059 L 0.0281,7.8134 L 0.0281,7.8690 L 0.0562,7.9246 L 0.0703,7.9663 L 0.1124,8.0080 L 0.1546,8.0497 L 0.1967,8.0636 L 0.2529,8.0914 L 0.3091,8.0914 L 48.3053,8.0914 L 48.3615,8.0914 L 48.4177,8.0636 L 48.4598,8.0497 L 48.5020,8.0080 L 48.5441,7.9663 L 48.5582,7.9246 L 48.5863,7.8690 L 48.5863,7.8134 L 48.5863,0.3059 Z" stroke="#000000" stroke-width="0.1198" stroke-linecap="round" stroke-linejoin="round" fill="none"/>
        <path d="M 19.2350,2.4052 L 19.3193,2.4052 L 19.3896,2.4052 L 19.4739,2.4052 L 19.5582,2.4052 L 19.6425,2.4052 L 19.7268,2.4052 L 19.7970,2.4052 L 19.8813,2.4052 L 19.9656,2.4052 L 20.0359,2.4052 L 20.1202,2.4052 L 20.1904,2.4052 L 20.2747,2.4052 L 20.3450,2.4052 L 20.4152,2.4052 L 20.4855,2.4052 L 20.5557,2.4052 L 20.6119,2.4052 L 20.6822,2.4052 L 20.7384,2.4052 L 20.7946,2.4052 L 20.8367,2.4052 L 20.8930,2.4052 L 20.9351,2.4052 L 20.9632,2.4052 L 21.0054,2.4052 L 21.0335,2.4052 L 21.0616,2.4052 L 21.0756,2.4052 L 21.0897,2.4052 L 21.1037,2.4052 L 21.1178,2.4052 L 21.1318,2.4052 L 21.1459,2.4052 L 21.1599,2.4052 L 21.1880,2.4052 L 21.2021,2.4052 L 21.2161,2.4191 L 21.2302,2.4191 L 21.2442,2.4191 L 21.2583,2.4191 L 21.2723,2.4330 L 21.2864,2.4330 L 21.3004,2.4330 L 21.3145,2.4469 L 21.3285,2.4469 L 21.3426,2.4608 L 21.3566,2.4608 L 21.3707,2.4747 L 21.3847,2.4747 L 21.3988,2.4886 L 21.3988,2.5025 L 21.4128,2.5164 L 21.4269,2.5164 L 21.4409,2.5303 L 21.4409,2.5442 L 21.4550,2.5581 L 21.4690,2.5720 L 21.4690,2.5859 L 21.4831,2.5998 L 21.4831,2.6137 L 21.4971,2.6415 L 21.4971,2.6554 " stroke="#000000" stroke-width="0.1198" stroke-linecap="round" stroke-linejoin="round" fill="none"/>
        <path d="M 36.1095,2.7667 L 22.7757,2.7667 L 22.7757,6.3536 L 36.1095,6.3536 L 36.1095,2.7667 Z" stroke="#000000" stroke-width="0.1198" stroke-linecap="round" stroke-linejoin="round" fill="#000000"/>
        <path d="M 27.2016,2.8362 L 22.8741,2.8362 L 22.8741,6.2840 L 27.2016,6.2840 L 27.2016,2.8362 Z" stroke="#000000" stroke-width="0.1198" stroke-linecap="round" stroke-linejoin="round" fill="#BFBFBF"/>
        <path d="M 31.5994,2.8362 L 27.2718,2.8362 L 27.2718,6.2840 L 31.5994,6.2840 L 31.5994,2.8362 Z" stroke="#000000" stroke-width="0.1198" stroke-linecap="round" stroke-linejoin="round" fill="#BFBFBF"/>
        <path d="M 35.9971,2.8362 L 31.6696,2.8362 L 31.6696,6.2840 L 35.9971,6.2840 L 35.9971,2.8362 Z" stroke="#000000" stroke-width="0.1198" stroke-linecap="round" stroke-linejoin="round" fill="#BFBFBF"/>
        <path d="M 29.5902,2.4052 L 29.5199,2.4052 L 29.4356,2.4052 L 29.3653,2.4052 L 29.2810,2.4052 L 29.1967,2.4052 L 29.1265,2.4052 L 29.0422,2.4052 L 28.9719,2.4052 L 28.9017,2.4052 L 28.8174,2.4052 L 28.7471,2.4052 L 28.6769,2.4052 L 28.6066,2.4052 L 28.5364,2.4052 L 28.4661,2.4052 L 28.4099,2.4052 L 28.3397,2.4052 L 28.2835,2.4052 L 28.2273,2.4052 L 28.1711,2.4052 L 28.1289,2.4052 L 28.0727,2.4052 L 28.0306,2.4052 L 27.9884,2.4052 L 27.9603,2.4052 L 27.9322,2.4052 L 27.9041,2.4052 L 27.8760,2.4052 L 27.8620,2.4052 L 27.8479,2.4052 L 27.8339,2.4052 L 27.8198,2.4052 L 27.8058,2.4052 L 27.7917,2.4052 L 27.7776,2.4052 L 27.7495,2.4052 L 27.7355,2.4052 L 27.7214,2.4191 L 27.7074,2.4191 L 27.6933,2.4191 L 27.6793,2.4191 L 27.6652,2.4330 L 27.6512,2.4330 L 27.6371,2.4330 L 27.6231,2.4469 L 27.6090,2.4469 L 27.5950,2.4608 L 27.5809,2.4608 L 27.5669,2.4747 L 27.5528,2.4747 L 27.5388,2.4886 L 27.5388,2.5025 L 27.5247,2.5164 L 27.5107,2.5164 L 27.4966,2.5303 L 27.4966,2.5442 L 27.4826,2.5581 L 27.4685,2.5720 L 27.4685,2.5859 L 27.4545,2.5998 L 27.4545,2.6137 L 27.4404,2.6415 L 27.4404,2.6554 " stroke="#000000" stroke-width="0.1198" stroke-linecap="round" stroke-linejoin="round" fill="none"/>
        <path d="M 33.4821,2.4052 L 33.5524,2.4052 L 33.6367,2.4052 L 33.7069,2.4052 L 33.7912,2.4052 L 33.8755,2.4052 L 33.9458,2.4052 L 34.0301,2.4052 L 34.1003,2.4052 L 34.1706,2.4052 L 34.2549,2.4052 L 34.3251,2.4052 L 34.3954,2.4052 L 34.4656,2.4052 L 34.5359,2.4052 L 34.6061,2.4052 L 34.6623,2.4052 L 34.7326,2.4052 L 34.7888,2.4052 L 34.8450,2.4052 L 34.9012,2.4052 L 34.9434,2.4052 L 34.9996,2.4052 L 35.0417,2.4052 L 35.0839,2.4052 L 35.1120,2.4052 L 35.1401,2.4052 L 35.1682,2.4052 L 35.1963,2.4052 L 35.2103,2.4052 L 35.2244,2.4052 L 35.2384,2.4052 L 35.2525,2.4052 L 35.2665,2.4052 L 35.2806,2.4052 L 35.2946,2.4052 L 35.3227,2.4052 L 35.3368,2.4052 L 35.3508,2.4191 L 35.3649,2.4191 L 35.3789,2.4191 L 35.3930,2.4191 L 35.4070,2.4330 L 35.4211,2.4330 L 35.4351,2.4330 L 35.4492,2.4469 L 35.4632,2.4469 L 35.4773,2.4608 L 35.4913,2.4608 L 35.5054,2.4747 L 35.5194,2.4747 L 35.5335,2.4886 L 35.5335,2.5025 L 35.5475,2.5164 L 35.5616,2.5164 L 35.5756,2.5303 L 35.5756,2.5442 L 35.5897,2.5581 L 35.6037,2.5720 L 35.6037,2.5859 L 35.6178,2.5998 L 35.6178,2.6137 L 35.6318,2.6415 L 35.6318,2.6554 " stroke="#000000" stroke-width="0.1198" stroke-linecap="round" stroke-linejoin="round" fill="none"/>
        <path d="M 5.1003,2.4469 L 3.0489,2.4469 L 3.0489,6.3536 L 5.1003,6.3536 L 5.1003,2.4469 Z" stroke="#000000" stroke-width="0.1198" stroke-linecap="round" stroke-linejoin="round" fill="#0A0A0A"/>
        <path d="M 38.9618,6.8958 L 39.9172,6.8958 " stroke="#161616" stroke-width="0.1198" stroke-linecap="round" stroke-linejoin="round" fill="none"/>
        <path d="M 38.9618,6.8958 L 39.9172,6.8958 " stroke="#161616" stroke-width="0.1198" stroke-linecap="round" stroke-linejoin="round" fill="none"/>
        <path d="M 37.8799,6.8958 L 38.5965,6.8958 " stroke="#161616" stroke-width="0.1198" stroke-linecap="round" stroke-linejoin="round" fill="none"/>
        <ellipse cx="38.8072" cy="6.8332" rx="0.0984" ry="0.0904" fill="#000000" stroke="#000000" stroke-width="0.1198" stroke-linecap="round" stroke-linejoin="round"/>
        <ellipse cx="38.8072" cy="6.8332" rx="0.0984" ry="0.0904" fill="none" stroke="#161616" stroke-width="0.1198" stroke-linecap="round" stroke-linejoin="round"/>
        <path d="M 39.1304,7.0348 L 39.1304,7.0487 L 39.1163,7.0487 L 39.1163,7.0626 L 39.1023,7.0765 L 39.1023,7.0904 L 39.0882,7.0904 L 39.0882,7.1043 L 39.0742,7.1182 L 39.0601,7.1321 L 39.0461,7.1321 L 39.0320,7.1460 L 39.0180,7.1460 L 39.0180,7.1599 L 39.0039,7.1599 L 38.9899,7.1599 L 38.9899,7.1738 L 38.9758,7.1738 L 38.9618,7.1738 L 38.9477,7.1738 L 38.9337,7.1877 L 38.9196,7.1877 L 38.9056,7.1877 L 38.8915,7.1877 L 38.8775,7.1877 L 38.8634,7.1877 L 38.8494,7.1877 L 38.8353,7.1877 L 38.8213,7.1877 L 38.8072,7.1738 L 38.7932,7.1738 L 38.7651,7.1738 L 38.7651,7.1599 L 38.7510,7.1599 L 38.7370,7.1599 L 38.7229,7.1460 L 38.7089,7.1460 L 38.6948,7.1321 L 38.6808,7.1182 L 38.6667,7.1182 L 38.6667,7.1043 L 38.6527,7.0904 L 38.6386,7.0904 L 38.6246,7.0765 L 38.6246,7.0626 L 38.6105,7.0487 L 38.6105,7.0348 L 38.5965,7.0209 L 38.5965,7.0070 L 38.5824,6.9931 L 38.5824,6.9792 L 38.5824,6.9653 L 38.5684,6.9514 L 38.5684,6.9375 L 38.5684,6.9236 L 38.5684,6.9097 L 38.5684,6.8958 L 38.5684,6.8819 L 38.5684,6.8680 L 38.5684,6.8541 L 38.5684,6.8402 L 38.5824,6.8263 L 38.5824,6.8124 L 38.5824,6.7985 L 38.5965,6.7845 L 38.5965,6.7706 L 38.6105,6.7567 L 38.6105,6.7428 L 38.6246,6.7289 L 38.6246,6.7150 L 38.6386,6.7011 L 38.6527,6.7011 L 38.6667,6.6872 L 38.6667,6.6733 L 38.6808,6.6733 L 38.6948,6.6594 L 38.7089,6.6455 L 38.7229,6.6455 L 38.7370,6.6316 L 38.7510,6.6316 L 38.7651,6.6316 L 38.7651,6.6177 L 38.7932,6.6177 L 38.8072,6.6177 L 38.8213,6.6038 L 38.8353,6.6038 L 38.8494,6.6038 L 38.8634,6.6038 L 38.8775,6.6038 L 38.8915,6.6038 L 38.9056,6.6038 L 38.9196,6.6038 L 38.9337,6.6038 L 38.9477,6.6038 L 38.9618,6.6177 L 38.9758,6.6177 L 38.9899,6.6177 L 39.0039,6.6316 L 39.0180,6.6316 L 39.0320,6.6316 L 39.0320,6.6455 L 39.0461,6.6455 L 39.0601,6.6455 L 39.0601,6.6594 L 39.0742,6.6594 L 39.0742,6.6733 L 39.0882,6.6733 L 39.0882,6.6872 L 39.1023,6.6872 L 39.1023,6.7011 L 39.1163,6.7150 L 39.1163,6.7289 L 39.1304,6.7289 L 39.1304,6.7428 " stroke="#161616" stroke-width="0.1198" stroke-linecap="round" stroke-linejoin="round" fill="none"/>
        <ellipse cx="39.6783" cy="6.8332" rx="0.2389" ry="0.2294" fill="none" stroke="#161616" stroke-width="0.1198" stroke-linecap="round" stroke-linejoin="round"/>
        <path d="M 39.7345,7.0626 L 39.7345,6.7428 " stroke="#000000" stroke-width="0.1198" stroke-linecap="round" stroke-linejoin="round" fill="none"/>
        <ellipse cx="37.9291" cy="6.8332" rx="0.2318" ry="0.2294" fill="none" stroke="#161616" stroke-width="0.1198" stroke-linecap="round" stroke-linejoin="round"/>
        <text font-family="Arial" fill="#000000" style="white-space:pre;" font-weight="400" text-anchor="start" x="3.0770" y="1.3335" font-size="0.1686"><![CDATA[EXT]]></text>
        <text font-family="Arial" fill="#000000" style="white-space:pre;" font-weight="400" text-anchor="start" x="5.0722" y="1.3335" font-size="0.1686"><![CDATA[LINE]]></text>
        <text font-family="Arial" fill="#000000" style="white-space:pre;" font-weight="400" text-anchor="start" x="8.2054" y="1.3335" font-size="0.1686"><![CDATA[NETWORK]]></text>
        <text font-family="Arial" fill="#000000" style="white-space:pre;" font-weight="400" text-anchor="start" x="1.5877" y="2.4457" font-size="0.1686"><![CDATA[USB]]></text>
        <text font-family="Arial" fill="#000000" style="white-space:pre;" font-weight="400" text-anchor="start" x="2.6555" y="2.4457" font-size="0.1686"><![CDATA[2]]></text>
        <text font-family="Arial" fill="#000000" style="white-space:pre;" font-weight="400" text-anchor="start" x="3.6812" y="2.4457" font-size="0.1686"><![CDATA[1]]></text>
        <text font-family="Arial" fill="#000000" style="white-space:pre;" font-weight="400" text-anchor="start" x="4.7069" y="2.4457" font-size="0.1686"><![CDATA[2]]></text>
        <text font-family="Arial" fill="#000000" style="white-space:pre;" font-weight="400" text-anchor="start" x="5.7326" y="2.4457" font-size="0.1686"><![CDATA[1]]></text>
        <text font-family="Arial" fill="#000000" style="white-space:pre;" font-weight="400" text-anchor="start" x="6.6599" y="2.4457" font-size="0.1686"><![CDATA[Console]]></text>
        <text font-family="Arial" fill="#000000" style="white-space:pre;" font-weight="400" text-anchor="start" x="8.0368" y="2.4457" font-size="0.1686"><![CDATA[2]]></text>
        <text font-family="Arial" fill="#000000" style="white-space:pre;" font-weight="400" text-anchor="start" x="9.1328" y="2.4457" font-size="0.1686"><![CDATA[1]]></text>
        <text font-family="Arial" fill="#000000" style="white-space:pre;" font-weight="400" text-anchor="start" x="7.7558" y="2.6125" font-size="0.1686"><![CDATA[FortiLink]]></text>
        <text font-family="Arial" fill="#000000" style="white-space:pre;" font-weight="400" text-anchor="start" x="10.1584" y="1.4447" font-size="0.1686"><![CDATA[12V DC]]></text>
        <text font-family="Arial" fill="#000000" style="white-space:pre;" font-weight="400" text-anchor="start" x="11.1420" y="2.3345" font-size="0.1686"><![CDATA[Reset]]></text>
        <path d="M 3.3022,2.5703 L 3.2836,2.5703 L 3.2651,2.5703 L 3.2465,2.5703 L 3.2465,2.5859 L 3.2280,2.5859 L 3.2280,2.6014 L 3.2094,2.6014 L 3.2094,2.6170 L 3.2094,2.6326 L 3.2094,2.6482 L 3.2094,2.6637 L 3.2094,2.6949 L 3.2094,2.7416 L 3.2094,2.8039 L 3.2094,2.8818 L 3.2094,2.9753 L 3.2094,3.0843 L 3.2094,3.2090 L 3.2094,3.3336 L 3.2094,3.4738 L 3.2094,3.6140 L 3.2094,3.7697 L 3.2094,3.9255 L 3.2094,4.0969 L 3.2094,4.2527 L 3.2094,4.4240 L 3.2094,4.5954 L 3.2094,4.7511 L 3.2094,4.9225 L 3.2094,5.0783 L 3.2094,5.2340 L 3.2094,5.3742 L 3.2094,5.5144 L 3.2094,5.6390 L 3.2094,5.7637 L 3.2094,5.8727 L 3.2094,5.9662 L 3.2094,6.0441 L 3.2094,6.1064 L 3.2094,6.1531 L 3.2094,6.1843 L 3.2094,6.1998 L 3.2094,6.2154 L 3.2094,6.2310 L 3.2094,6.2466 L 3.2280,6.2466 L 3.2280,6.2621 L 3.2465,6.2621 L 3.2465,6.2777 L 3.2651,6.2777 L 3.2836,6.2777 L 3.3022,6.2777 L 3.3208,6.2777 L 3.3393,6.2777 L 3.3764,6.2777 L 3.4135,6.2777 L 3.4506,6.2777 L 3.4877,6.2777 L 3.5434,6.2777 L 3.5990,6.2777 L 3.6732,6.2777 L 3.7289,6.2777 L 3.8031,6.2777 L 3.8773,6.2777 L 3.9515,6.2777 L 4.0257,6.2777 L 4.0999,6.2777 L 4.1556,6.2777 L 4.2298,6.2777 L 4.3040,6.2777 L 4.3782,6.2777 L 4.4524,6.2777 L 4.5081,6.2777 L 4.5823,6.2777 L 4.6379,6.2777 L 4.6936,6.2777 L 4.7307,6.2777 L 4.7678,6.2777 L 4.8049,6.2777 L 4.8420,6.2777 L 4.8605,6.2777 L 4.8791,6.2777 L 4.8976,6.2777 L 4.9162,6.2777 L 4.9162,6.2621 L 4.9347,6.2621 L 4.9533,6.2621 L 4.9533,6.2466 L 4.9533,6.2310 L 4.9718,6.2310 L 4.9718,6.2154 L 4.9718,6.1998 L 4.9718,6.1843 L 4.9718,6.1531 L 4.9718,6.1064 L 4.9718,6.0441 L 4.9718,5.9662 L 4.9718,5.8727 L 4.9718,5.7637 L 4.9718,5.6390 L 4.9718,5.5144 L 4.9718,5.3742 L 4.9718,5.2340 L 4.9718,5.0783 L 4.9718,4.9225 L 4.9718,4.7511 L 4.9718,4.5954 L 4.9718,4.4240 L 4.9718,4.2527 L 4.9718,4.0969 L 4.9718,3.9255 L 4.9718,3.7697 L 4.9718,3.6140 L 4.9718,3.4738 L 4.9718,3.3336 L 4.9718,3.2090 L 4.9718,3.0843 L 4.9718,2.9753 L 4.9718,2.8818 L 4.9718,2.8039 L 4.9718,2.7416 L 4.9718,2.6949 L 4.9718,2.6637 L 4.9718,2.6482 L 4.9718,2.6326 L 4.9718,2.6170 L 4.9533,2.6170 L 4.9533,2.6014 L 4.9533,2.5859 L 4.9347,2.5859 L 4.9162,2.5859 L 4.9162,2.5703 L 4.8976,2.5703 L 4.8791,2.5703 L 4.8605,2.5703 L 4.8420,2.5703 L 4.8049,2.5703 L 4.7678,2.5703 L 4.7307,2.5703 L 4.6936,2.5703 L 4.6379,2.5703 L 4.5823,2.5703 L 4.5081,2.5703 L 4.4524,2.5703 L 4.3782,2.5703 L 4.3040,2.5703 L 4.2298,2.5703 L 4.1556,2.5703 L 4.0999,2.5703 L 4.0257,2.5703 L 3.9515,2.5703 L 3.8773,2.5703 L 3.8031,2.5703 L 3.7289,2.5703 L 3.6732,2.5703 L 3.5990,2.5703 L 3.5434,2.5703 L 3.4877,2.5703 L 3.4506,2.5703 L 3.4135,2.5703 L 3.3764,2.5703 L 3.3393,2.5703 L 3.3208,2.5703 L 3.3022,2.5703 Z" stroke="#333333" stroke-width="0.1198" stroke-linecap="round" stroke-linejoin="round" fill="#BFBFBF"/>
        <path d="M 4.8049,2.6170 L 4.8234,2.6170 L 4.8420,2.6170 L 4.8420,2.6326 L 4.8605,2.6326 L 4.8791,2.6326 L 4.8791,2.6482 L 4.8976,2.6482 L 4.8976,2.6637 L 4.8976,2.6793 L 4.8976,2.6949 L 4.8976,2.7105 L 4.8976,2.7572 L 4.8976,2.8351 L 4.8976,2.9130 L 4.8976,2.9909 L 4.8976,3.0999 L 4.8976,3.2245 L 4.8976,3.3492 L 4.8976,3.4738 L 4.8976,3.6296 L 4.8976,3.7697 L 4.8976,3.9255 L 4.8976,4.0813 L 4.8976,4.2527 L 4.8976,4.4084 L 4.8976,4.5642 L 4.8976,4.7356 L 4.8976,4.8913 L 4.8976,5.0471 L 4.8976,5.1873 L 4.8976,5.3431 L 4.8976,5.4677 L 4.8976,5.5923 L 4.8976,5.7169 L 4.8976,5.8260 L 4.8976,5.9039 L 4.8976,5.9818 L 4.8976,6.0596 L 4.8976,6.1064 L 4.8976,6.1219 L 4.8976,6.1375 L 4.8976,6.1531 L 4.8976,6.1687 L 4.8791,6.1687 L 4.8791,6.1843 L 4.8605,6.1843 L 4.8420,6.1843 L 4.8420,6.1998 L 4.8234,6.1998 L 4.8049,6.1998 L 4.7863,6.1998 L 4.7678,6.1998 L 4.7492,6.1998 L 4.7121,6.1998 L 4.6750,6.1998 L 4.6194,6.1998 L 4.5823,6.1998 L 4.5266,6.1998 L 4.4710,6.1998 L 4.4153,6.1998 L 4.3411,6.1998 L 4.2854,6.1998 L 4.2112,6.1998 L 4.1556,6.1998 L 4.0814,6.1998 L 4.0072,6.1998 L 3.9515,6.1998 L 3.8773,6.1998 L 3.8216,6.1998 L 3.7474,6.1998 L 3.6918,6.1998 L 3.6361,6.1998 L 3.5805,6.1998 L 3.5434,6.1998 L 3.4877,6.1998 L 3.4506,6.1998 L 3.4135,6.1998 L 3.3950,6.1998 L 3.3764,6.1998 L 3.3579,6.1998 L 3.3393,6.1998 L 3.3208,6.1998 L 3.3208,6.1843 L 3.3022,6.1843 L 3.2836,6.1687 L 3.2836,6.1531 L 3.2651,6.1531 L 3.2651,6.1375 L 3.2651,6.1219 L 3.2651,6.1064 L 3.2651,6.0596 L 3.2651,5.9818 L 3.2651,5.9039 L 3.2651,5.8260 L 3.2651,5.7169 L 3.2651,5.5923 L 3.2651,5.4677 L 3.2651,5.3431 L 3.2651,5.1873 L 3.2651,5.0471 L 3.2651,4.8913 L 3.2651,4.7356 L 3.2651,4.5642 L 3.2651,4.4084 L 3.2651,4.2527 L 3.2651,4.0813 L 3.2651,3.9255 L 3.2651,3.7697 L 3.2651,3.6296 L 3.2651,3.4738 L 3.2651,3.3492 L 3.2651,3.2245 L 3.2651,3.0999 L 3.2651,2.9909 L 3.2651,2.9130 L 3.2651,2.8351 L 3.2651,2.7572 L 3.2651,2.7105 L 3.2651,2.6949 L 3.2651,2.6793 L 3.2651,2.6637 L 3.2836,2.6637 L 3.2836,2.6482 L 3.3022,2.6326 L 3.3208,2.6326 L 3.3208,2.6170 L 3.3393,2.6170 L 3.3579,2.6170 L 3.3764,2.6170 L 3.3950,2.6170 L 3.4135,2.6170 L 3.4506,2.6170 L 3.4877,2.6170 L 3.5434,2.6170 L 3.5805,2.6170 L 3.6361,2.6170 L 3.6918,2.6170 L 3.7474,2.6170 L 3.8216,2.6170 L 3.8773,2.6170 L 3.9515,2.6170 L 4.0072,2.6170 L 4.0814,2.6170 L 4.1556,2.6170 L 4.2112,2.6170 L 4.2854,2.6170 L 4.3411,2.6170 L 4.4153,2.6170 L 4.4710,2.6170 L 4.5266,2.6170 L 4.5823,2.6170 L 4.6194,2.6170 L 4.6750,2.6170 L 4.7121,2.6170 L 4.7492,2.6170 L 4.7678,2.6170 L 4.7863,2.6170 L 4.8049,2.6170 Z" stroke="#333333" stroke-width="0.1198" stroke-linecap="round" stroke-linejoin="round" fill="#EAEAEA"/>
        <path d="M 4.3040,5.3275 L 4.3040,5.7014 L 4.0443,5.7014 L 4.0443,5.3275 L 4.3040,5.3275 Z" stroke="#000000" stroke-width="0.1198" stroke-linecap="round" stroke-linejoin="round" fill="#0A0A0A"/>
        <path d="M 4.3040,4.5954 L 4.3040,4.9692 L 4.0443,4.9692 L 4.0443,4.5954 L 4.3040,4.5954 Z" stroke="#000000" stroke-width="0.1198" stroke-linecap="round" stroke-linejoin="round" fill="#0A0A0A"/>
        <path d="M 4.3040,3.8788 L 4.3040,4.2527 L 4.0443,4.2527 L 4.0443,3.8788 L 4.3040,3.8788 Z" stroke="#000000" stroke-width="0.1198" stroke-linecap="round" stroke-linejoin="round" fill="#0A0A0A"/>
        <path d="M 4.3040,3.1155 L 4.3040,3.4894 L 4.0443,3.4894 L 4.0443,3.1155 L 4.3040,3.1155 Z" stroke="#000000" stroke-width="0.1198" stroke-linecap="round" stroke-linejoin="round" fill="#0A0A0A"/>
        <path d="M 3.5990,2.8039 L 3.5619,2.8039 L 3.5248,2.8195 L 3.5063,2.8507 L 3.5063,2.8818 L 3.5063,5.9350 L 3.5063,5.9662 L 3.5248,5.9973 L 3.5619,6.0129 L 3.5990,6.0129 L 3.9330,6.0129 L 3.9701,6.0129 L 4.0072,5.9973 L 4.0257,5.9662 L 4.0257,5.9350 L 4.0257,2.8818 L 4.0257,2.8507 L 4.0072,2.8195 L 3.9701,2.8039 L 3.9330,2.8039 L 3.5990,2.8039 Z" stroke="#7F7F7F" stroke-width="0.1198" stroke-linecap="round" stroke-linejoin="round" fill="#EAEAEA"/>
        <path d="M 3.7660,2.9130 L 3.7103,2.9286 L 3.6732,2.9597 L 3.6361,2.9909 L 3.6176,3.0376 L 3.6176,5.7637 L 3.6361,5.8104 L 3.6732,5.8571 L 3.7103,5.8727 L 3.7660,5.8883 L 3.7845,5.8883 L 3.8402,5.8727 L 3.8959,5.8571 L 3.9144,5.8104 L 3.9330,5.7637 L 3.9330,3.0376 L 3.9144,2.9909 L 3.8959,2.9597 L 3.8402,2.9286 L 3.7845,2.9130 L 3.7660,2.9130 Z" stroke="#F7F7F7" stroke-width="0.1198" stroke-linecap="round" stroke-linejoin="round" fill="#F7F7F7"/>
        <path d="M 4.8976,5.6079 L 4.6750,5.6079 L 4.6750,5.2652 L 4.8976,5.2652 L 4.8976,5.6079 Z" stroke="#000000" stroke-width="0.1198" stroke-linecap="round" stroke-linejoin="round" fill="#BFBFBF"/>
        <path d="M 4.8976,3.2401 L 4.6750,3.2401 L 4.6750,3.5828 L 4.8976,3.5828 L 4.8976,3.2401 Z" stroke="#000000" stroke-width="0.1198" stroke-linecap="round" stroke-linejoin="round" fill="#BFBFBF"/>
        <path d="M 3.5990,2.8039 L 3.5619,2.8039 L 3.5248,2.8195 L 3.5063,2.8507 L 3.5063,2.8818 L 3.5063,5.9350 L 3.5063,5.9662 L 3.5248,5.9973 L 3.5619,6.0129 L 3.5990,6.0129 L 3.9330,6.0129 L 3.9701,6.0129 L 4.0072,5.9973 L 4.0257,5.9662 L 4.0257,5.9350 L 4.0257,2.8818 L 4.0257,2.8507 L 4.0072,2.8195 L 3.9701,2.8039 L 3.9330,2.8039 L 3.5990,2.8039 Z" stroke="#7F7F7F" stroke-width="0.1198" stroke-linecap="round" stroke-linejoin="round" fill="none"/>
        <path d="M 18.6190,3.1239 L 18.6190,5.2433 L 19.1185,5.2433 L 19.1185,5.7387 L 19.6041,5.7387 L 19.6041,6.2204 L 20.7556,6.2204 L 20.7556,5.7387 L 21.2551,5.7387 L 21.2551,5.2433 L 21.7407,5.2433 L 21.7407,3.1239 L 18.6190,3.1239 Z" stroke="#161616" stroke-width="0.1198" stroke-linecap="round" stroke-linejoin="round" fill="#000000"/>
        <path d="M 14.5123,3.1239 L 14.5123,5.2433 L 15.0117,5.2433 L 15.0117,5.7387 L 15.4973,5.7387 L 15.4973,6.2204 L 16.6489,6.2204 L 16.6489,5.7387 L 17.1484,5.7387 L 17.1484,5.2433 L 17.6339,5.2433 L 17.6339,3.1239 L 14.5123,3.1239 Z" stroke="#161616" stroke-width="0.1198" stroke-linecap="round" stroke-linejoin="round" fill="#000000"/>
        <path d="M 10.4056,3.1239 L 10.4056,5.2433 L 10.9050,5.2433 L 10.9050,5.7387 L 11.3906,5.7387 L 11.3906,6.2204 L 12.5422,6.2204 L 12.5422,5.7387 L 13.0416,5.7387 L 13.0416,5.2433 L 13.5272,5.2433 L 13.5272,3.1239 L 10.4056,3.1239 Z" stroke="#161616" stroke-width="0.1198" stroke-linecap="round" stroke-linejoin="round" fill="#000000"/>
        <path d="M 6.2988,3.1239 L 6.2988,5.2433 L 6.7983,5.2433 L 6.7983,5.7387 L 7.2839,5.7387 L 7.2839,6.2204 L 8.4354,6.2204 L 8.4354,5.7387 L 8.9349,5.7387 L 8.9349,5.2433 L 9.4205,5.2433 L 9.4205,3.1239 L 6.2988,3.1239 Z" stroke="#161616" stroke-width="0.1198" stroke-linecap="round" stroke-linejoin="round" fill="#000000"/>
        <path d="M 23.2262,3.1239 L 23.2262,5.2295 L 24.1190,5.2295 L 24.1190,5.7249 L 24.4817,5.7249 L 24.4817,6.2204 L 25.5418,6.2204 L 25.5418,5.7249 L 25.9045,5.7249 L 25.9045,5.2295 L 26.7973,5.2295 L 26.7973,3.1239 L 23.2262,3.1239 Z" stroke="#161616" stroke-width="0.1198" stroke-linecap="round" stroke-linejoin="round" fill="#000000"/>
        <path d="M 32.0005,3.1239 L 32.0005,5.2295 L 32.8933,5.2295 L 32.8933,5.7249 L 33.2560,5.7249 L 33.2560,6.2204 L 34.3162,6.2204 L 34.3162,5.7249 L 34.6789,5.7249 L 34.6789,5.2295 L 35.5717,5.2295 L 35.5717,3.1239 L 32.0005,3.1239 Z" stroke="#161616" stroke-width="0.1198" stroke-linecap="round" stroke-linejoin="round" fill="#000000"/>
        <path d="M 27.6064,3.1239 L 27.6064,5.2295 L 28.4992,5.2295 L 28.4992,5.7249 L 28.8619,5.7249 L 28.8619,6.2204 L 29.9220,6.2204 L 29.9220,5.7249 L 30.2847,5.7249 L 30.2847,5.2295 L 31.1775,5.2295 L 31.1775,3.1239 L 27.6064,3.1239 Z" stroke="#161616" stroke-width="0.1198" stroke-linecap="round" stroke-linejoin="round" fill="#000000"/>
        <ellipse cx="38.8718" cy="4.5827" rx="0.9700" ry="0.9556" fill="#000000" stroke="#000000" stroke-width="0.1198" stroke-linecap="round" stroke-linejoin="round"/>
        <ellipse cx="38.8718" cy="4.5827" rx="0.9700" ry="0.9556" fill="none" stroke="#000000" stroke-width="0.1198" stroke-linecap="round" stroke-linejoin="round"/>
        <ellipse cx="38.8648" cy="4.5827" rx="0.3585" ry="0.3557" fill="#DDDDDD" stroke="#000000" stroke-width="0.1198" stroke-linecap="round" stroke-linejoin="round"/>
        <ellipse cx="38.8648" cy="4.5827" rx="0.3585" ry="0.3557" fill="none" stroke="#000000" stroke-width="0.1198" stroke-linecap="round" stroke-linejoin="round"/>
        <ellipse cx="38.8648" cy="4.5827" rx="0.2460" ry="0.2441" fill="#000000" stroke="#000000" stroke-width="0.1198" stroke-linecap="round" stroke-linejoin="round"/>
        <ellipse cx="38.8648" cy="4.5827" rx="0.2460" ry="0.2441" fill="none" stroke="#000000" stroke-width="0.1198" stroke-linecap="round" stroke-linejoin="round"/>
        <ellipse cx="38.8718" cy="4.5827" rx="0.2249" ry="0.2162" fill="#DDDDDD" stroke="#000000" stroke-width="0.1198" stroke-linecap="round" stroke-linejoin="round"/>
        <ellipse cx="38.8718" cy="4.5827" rx="0.2249" ry="0.2162" fill="none" stroke="#000000" stroke-width="0.1198" stroke-linecap="round" stroke-linejoin="round"/>
      </g>
      <!--emf-blob end-->
    </g>
  </g>
</svg>
