<svg xmlns="http://www.w3.org/2000/svg" xmlns:xlink="http://www.w3.org/1999/xlink" version="1.1" width="3.6680000000" height="2.6692000000" viewBox="0 0 66.0238 48.0452">
  <title><![CDATA[FEX-511F (F)]]></title>
  <g transform=" scale(4.000000) ">
    <!--converted by libvisio2svg-->
    <g transform=" translate(6.096900,0.720000) ">
      <!--emf-blob start-->
      <g transform="translate(-0.0000, -0.0000)">
        <path d="M 51.2981,4.8678 L 50.7120,4.8678 L 50.7120,7.8979 L 51.2981,7.8979 L 51.2981,4.8678 Z" stroke="#000000" stroke-width="0.1193" stroke-linecap="round" stroke-linejoin="round" fill="#998746"/>
        <path d="M 51.2981,5.2045 L 51.8005,5.2045 L 51.8005,7.5613 L 51.2981,7.5613 L 51.2981,5.2045 Z" stroke="#000000" stroke-width="0.1193" stroke-linecap="round" stroke-linejoin="round" fill="#998746"/>
        <path d="M 53.4193,5.4290 L 51.8005,5.4290 L 51.8005,7.3368 L 53.4193,7.3368 L 53.4193,5.4290 Z" stroke="#000000" stroke-width="0.1193" stroke-linecap="round" stroke-linejoin="round" fill="#998746"/>
        <path d="M 51.2981,5.3167 L 50.7120,5.3167 L 50.7120,7.4490 L 51.2981,7.4490 L 51.2981,5.3167 Z" stroke="#AF9E56" stroke-width="0.1193" stroke-linecap="round" stroke-linejoin="round" fill="#AF9E56"/>
        <path d="M 51.2981,5.5552 L 51.8005,5.5552 L 51.8005,7.2106 L 51.2981,7.2106 L 51.2981,5.5552 Z" stroke="#AF9E56" stroke-width="0.1193" stroke-linecap="round" stroke-linejoin="round" fill="#AF9E56"/>
        <path d="M 53.4193,5.7095 L 51.8005,5.7095 L 51.8005,7.0562 L 53.4193,7.0562 L 53.4193,5.7095 Z" stroke="#AF9E56" stroke-width="0.1193" stroke-linecap="round" stroke-linejoin="round" fill="#AF9E56"/>
        <path d="M 51.2981,5.8498 L 50.7120,5.8498 L 50.7120,6.9160 L 51.2981,6.9160 L 51.2981,5.8498 Z" stroke="#BCAD74" stroke-width="0.1193" stroke-linecap="round" stroke-linejoin="round" fill="#BCAD74"/>
        <path d="M 51.2981,5.9620 L 51.8005,5.9620 L 51.8005,6.8037 L 51.2981,6.8037 L 51.2981,5.9620 Z" stroke="#BCAD74" stroke-width="0.1193" stroke-linecap="round" stroke-linejoin="round" fill="#BCAD74"/>
        <path d="M 53.4193,6.0462 L 51.8005,6.0462 L 51.8005,6.7196 L 53.4193,6.7196 L 53.4193,6.0462 Z" stroke="#BCAD74" stroke-width="0.1193" stroke-linecap="round" stroke-linejoin="round" fill="#BCAD74"/>
        <path d="M 51.2981,5.2045 L 51.8005,5.2045 L 51.8005,7.5613 L 51.2981,7.5613 L 51.2981,5.2045 Z" stroke="#000000" stroke-width="0.1193" stroke-linecap="round" stroke-linejoin="round" fill="none"/>
        <path d="M 53.4193,5.4290 L 51.8005,5.4290 L 51.8005,7.3368 L 53.4193,7.3368 L 53.4193,5.4290 Z" stroke="#000000" stroke-width="0.1193" stroke-linecap="round" stroke-linejoin="round" fill="none"/>
        <path d="M 51.2981,4.8678 L 50.7120,4.8678 L 50.7120,7.8979 L 51.2981,7.8979 L 51.2981,4.8678 Z" stroke="#000000" stroke-width="0.1193" stroke-linecap="round" stroke-linejoin="round" fill="none"/>
        <path d="M 50.7120,1.7956 L 50.6981,1.7956 L 50.6702,1.7816 L 50.6283,1.7676 L 50.5585,1.7535 L 50.4748,1.7395 L 50.3771,1.7115 L 50.2655,1.6834 L 50.1399,1.6553 L 50.0003,1.6133 L 49.8468,1.5852 L 49.6933,1.5431 L 49.5119,1.5010 L 49.3305,1.4449 L 48.9398,1.3607 L 48.5211,1.2485 L 47.6280,1.0241 L 47.1535,0.9118 L 46.9303,0.8557 L 46.6930,0.7996 L 46.4697,0.7435 L 46.2325,0.6874 L 46.0092,0.6313 L 45.7999,0.5752 L 45.5766,0.5190 L 45.3673,0.4770 L 45.1719,0.4208 L 45.0882,0.4068 L 44.9905,0.3788 L 44.9068,0.3647 L 44.8091,0.3367 L 44.7114,0.3227 L 44.6137,0.2946 L 44.3207,0.2525 L 44.2230,0.2245 L 44.1114,0.2104 L 43.9160,0.1824 L 43.8044,0.1683 L 43.7067,0.1543 L 43.5950,0.1403 L 43.4974,0.1263 L 43.3857,0.1122 L 43.2880,0.0982 L 43.1764,0.0982 L 43.0787,0.0842 L 42.9671,0.0701 L 42.8694,0.0701 L 42.7577,0.0561 L 42.6601,0.0561 L 42.5624,0.0421 L 42.3531,0.0421 L 42.2554,0.0281 L 8.4846,0.0281 L 8.3869,0.0421 L 8.1776,0.0421 L 8.0799,0.0561 L 7.9822,0.0561 L 7.8706,0.0701 L 7.7729,0.0701 L 7.6612,0.0842 L 7.5635,0.0982 L 7.4519,0.0982 L 7.3542,0.1122 L 7.2426,0.1263 L 7.1449,0.1403 L 7.0333,0.1543 L 6.9356,0.1683 L 6.8239,0.1824 L 6.6286,0.2104 L 6.5169,0.2245 L 6.4192,0.2525 L 6.1262,0.2946 L 6.0285,0.3227 L 5.9308,0.3367 L 5.8331,0.3647 L 5.7494,0.3788 L 5.6517,0.4068 L 5.5680,0.4208 L 5.3726,0.4770 L 5.1633,0.5190 L 4.9400,0.5752 L 4.7307,0.6313 L 4.5074,0.6874 L 4.2702,0.7435 L 4.0469,0.7996 L 3.8097,0.8557 L 3.5864,0.9118 L 3.1119,1.0241 L 2.2188,1.2485 L 1.8002,1.3607 L 1.4094,1.4449 L 1.2280,1.5010 L 1.0466,1.5431 L 0.8931,1.5852 L 0.7396,1.6133 L 0.6001,1.6553 L 0.4745,1.6834 L 0.3628,1.7115 L 0.2651,1.7395 L 0.1814,1.7535 L 0.1116,1.7676 L 0.0698,1.7816 L 0.0419,1.7956 L 0.0279,1.7956 L 0.0279,10.6756 L 0.0419,10.6756 L 0.0698,10.7036 L 0.1116,10.7317 L 0.1814,10.7597 L 0.2651,10.8158 L 0.3628,10.8720 L 0.4745,10.9281 L 0.6001,10.9982 L 0.8792,11.1665 L 1.1862,11.3349 L 1.8560,11.7277 L 2.0235,11.8118 L 2.5258,12.1064 L 2.8328,12.2748 L 3.1119,12.4431 L 3.2375,12.5133 L 3.3492,12.5694 L 3.4469,12.6255 L 3.5306,12.6816 L 3.6004,12.7097 L 3.6422,12.7377 L 3.6701,12.7658 L 47.0698,12.7658 L 47.0977,12.7377 L 47.1396,12.7097 L 47.2093,12.6816 L 47.2931,12.6255 L 47.3908,12.5694 L 47.5024,12.5133 L 47.6280,12.4431 L 47.9071,12.2748 L 48.2141,12.1064 L 48.7165,11.8118 L 48.8839,11.7277 L 49.5538,11.3349 L 49.8608,11.1665 L 50.1399,10.9982 L 50.2655,10.9281 L 50.3771,10.8720 L 50.4748,10.8158 L 50.5585,10.7597 L 50.6283,10.7317 L 50.6702,10.7036 L 50.6981,10.6756 L 50.7120,10.6756 L 50.7120,1.8237 L 50.7120,1.7956 Z" stroke="#000000" stroke-width="0.1193" stroke-linecap="round" stroke-linejoin="round" fill="#EFEFEF"/>
        <path d="M 11.3035,12.7658 L 5.0238,12.7658 L 5.0238,13.6636 L 11.3035,13.6636 L 11.3035,12.7658 Z" stroke="#000000" stroke-width="0.1193" stroke-linecap="round" stroke-linejoin="round" fill="#7F7F7F"/>
        <path d="M 45.7162,12.7658 L 39.4365,12.7658 L 39.4365,13.6636 L 45.7162,13.6636 L 45.7162,12.7658 Z" stroke="#000000" stroke-width="0.1193" stroke-linecap="round" stroke-linejoin="round" fill="#7F7F7F"/>
        <path d="M 2.2328,1.7956 L 0.0279,1.7956 L 0.0279,10.6756 L 2.2328,10.6756 L 2.2328,1.7956 Z" stroke="#EAEAEA" stroke-width="0.1193" stroke-linecap="round" stroke-linejoin="round" fill="#EAEAEA"/>
        <path d="M 1.6606,1.7956 L 0.0279,1.7956 L 0.0279,10.6756 L 1.6606,10.6756 L 1.6606,1.7956 Z" stroke="#E2E2E2" stroke-width="0.1193" stroke-linecap="round" stroke-linejoin="round" fill="#E2E2E2"/>
        <path d="M 1.0466,1.7956 L 0.0279,1.7956 L 0.0279,10.6756 L 1.0466,10.6756 L 1.0466,1.7956 Z" stroke="#DDDDDD" stroke-width="0.1193" stroke-linecap="round" stroke-linejoin="round" fill="#DDDDDD"/>
        <path d="M 0.5024,1.7956 L 0.0279,1.7956 L 0.0279,10.6756 L 0.5024,10.6756 L 0.5024,1.7956 Z" stroke="#D8D8D8" stroke-width="0.1193" stroke-linecap="round" stroke-linejoin="round" fill="#D8D8D8"/>
        <path d="M 50.7120,1.7956 L 48.5072,1.7956 L 48.5072,10.6756 L 50.7120,10.6756 L 50.7120,1.7956 Z" stroke="#EAEAEA" stroke-width="0.1193" stroke-linecap="round" stroke-linejoin="round" fill="#EAEAEA"/>
        <path d="M 50.7120,1.7956 L 49.0793,1.7956 L 49.0793,10.6756 L 50.7120,10.6756 L 50.7120,1.7956 Z" stroke="#E2E2E2" stroke-width="0.1193" stroke-linecap="round" stroke-linejoin="round" fill="#E2E2E2"/>
        <path d="M 50.7120,1.7956 L 49.6933,1.7956 L 49.6933,10.6756 L 50.7120,10.6756 L 50.7120,1.7956 Z" stroke="#DDDDDD" stroke-width="0.1193" stroke-linecap="round" stroke-linejoin="round" fill="#DDDDDD"/>
        <path d="M 50.7120,1.7956 L 50.2376,1.7956 L 50.2376,10.6756 L 50.7120,10.6756 L 50.7120,1.7956 Z" stroke="#D8D8D8" stroke-width="0.1193" stroke-linecap="round" stroke-linejoin="round" fill="#D8D8D8"/>
        <path d="M 50.7120,1.7956 L 50.6981,1.7956 L 50.6702,1.7816 L 50.6283,1.7676 L 50.5585,1.7535 L 50.4748,1.7395 L 50.3771,1.7115 L 50.2655,1.6834 L 50.1399,1.6553 L 50.0003,1.6133 L 49.8468,1.5852 L 49.6933,1.5431 L 49.5119,1.5010 L 49.3305,1.4449 L 48.9398,1.3607 L 48.5211,1.2485 L 47.6280,1.0241 L 47.1535,0.9118 L 46.9303,0.8557 L 46.6930,0.7996 L 46.4697,0.7435 L 46.2325,0.6874 L 46.0092,0.6313 L 45.7999,0.5752 L 45.5766,0.5190 L 45.3673,0.4770 L 45.1719,0.4208 L 45.0882,0.4068 L 44.9905,0.3788 L 44.9068,0.3647 L 44.8091,0.3367 L 44.7114,0.3227 L 44.6137,0.2946 L 44.3207,0.2525 L 44.2230,0.2245 L 44.1114,0.2104 L 43.9160,0.1824 L 43.8044,0.1683 L 43.7067,0.1543 L 43.5950,0.1403 L 43.4974,0.1263 L 43.3857,0.1122 L 43.2880,0.0982 L 43.1764,0.0982 L 43.0787,0.0842 L 42.9671,0.0701 L 42.8694,0.0701 L 42.7577,0.0561 L 42.6601,0.0561 L 42.5624,0.0421 L 42.3531,0.0421 L 42.2554,0.0281 L 8.4846,0.0281 L 8.3869,0.0421 L 8.1776,0.0421 L 8.0799,0.0561 L 7.9822,0.0561 L 7.8706,0.0701 L 7.7729,0.0701 L 7.6612,0.0842 L 7.5635,0.0982 L 7.4519,0.0982 L 7.3542,0.1122 L 7.2426,0.1263 L 7.1449,0.1403 L 7.0333,0.1543 L 6.9356,0.1683 L 6.8239,0.1824 L 6.6286,0.2104 L 6.5169,0.2245 L 6.4192,0.2525 L 6.1262,0.2946 L 6.0285,0.3227 L 5.9308,0.3367 L 5.8331,0.3647 L 5.7494,0.3788 L 5.6517,0.4068 L 5.5680,0.4208 L 5.3726,0.4770 L 5.1633,0.5190 L 4.9400,0.5752 L 4.7307,0.6313 L 4.5074,0.6874 L 4.2702,0.7435 L 4.0469,0.7996 L 3.8097,0.8557 L 3.5864,0.9118 L 3.1119,1.0241 L 2.2188,1.2485 L 1.8002,1.3607 L 1.4094,1.4449 L 1.2280,1.5010 L 1.0466,1.5431 L 0.8931,1.5852 L 0.7396,1.6133 L 0.6001,1.6553 L 0.4745,1.6834 L 0.3628,1.7115 L 0.2651,1.7395 L 0.1814,1.7535 L 0.1116,1.7676 L 0.0698,1.7816 L 0.0419,1.7956 L 50.5725,1.7956 L 50.7120,1.7956 Z" stroke="#000000" stroke-width="0.1193" stroke-linecap="round" stroke-linejoin="round" fill="#EAEAEA"/>
        <path d="M 0.0279,10.6756 L 0.0419,10.6756 L 0.0698,10.7036 L 0.1116,10.7317 L 0.1814,10.7597 L 0.2651,10.8158 L 0.3628,10.8720 L 0.4745,10.9281 L 0.6001,10.9982 L 0.8792,11.1665 L 1.1862,11.3349 L 1.8560,11.7277 L 2.0235,11.8118 L 2.5258,12.1064 L 2.8328,12.2748 L 3.1119,12.4431 L 3.2375,12.5133 L 3.3492,12.5694 L 3.4469,12.6255 L 3.5306,12.6816 L 3.6004,12.7097 L 3.6422,12.7377 L 3.6701,12.7658 L 47.0698,12.7658 L 47.0977,12.7377 L 47.1396,12.7097 L 47.2093,12.6816 L 47.2931,12.6255 L 47.3908,12.5694 L 47.5024,12.5133 L 47.6280,12.4431 L 47.9071,12.2748 L 48.2141,12.1064 L 48.7165,11.8118 L 48.8839,11.7277 L 49.5538,11.3349 L 49.8608,11.1665 L 50.1399,10.9982 L 50.2655,10.9281 L 50.3771,10.8720 L 50.4748,10.8158 L 50.5585,10.7597 L 50.6283,10.7317 L 50.6702,10.7036 L 50.6981,10.6756 L 0.1675,10.6756 L 0.0279,10.6756 Z" stroke="#CCCCCC" stroke-width="0.1193" stroke-linecap="round" stroke-linejoin="round" fill="#CCCCCC"/>
        <path d="M 0.0279,1.7956 L 50.6841,1.7956 L 50.6841,1.7816 L 50.6283,1.7816 L 50.6143,1.7676 L 50.5725,1.7676 L 50.5585,1.7535 L 50.5306,1.7535 L 50.5027,1.7395 L 50.4608,1.7395 L 50.4329,1.7255 L 50.4190,1.7255 L 50.3911,1.7115 L 50.3632,1.7115 L 50.3492,1.6974 L 50.3073,1.6974 L 50.2934,1.6834 L 50.2376,1.6834 L 50.2376,1.6694 L 0.5163,1.6694 L 0.5163,1.6834 L 0.4605,1.6834 L 0.4466,1.6974 L 0.4047,1.6974 L 0.3768,1.7115 L 0.3628,1.7115 L 0.3349,1.7255 L 0.3070,1.7255 L 0.2931,1.7395 L 0.2372,1.7395 L 0.2093,1.7535 L 0.1954,1.7535 L 0.1675,1.7676 L 0.1256,1.7676 L 0.1116,1.7816 L 0.0558,1.7816 L 0.0558,1.7956 L 0.0419,1.7956 L 0.0279,1.7956 Z" stroke="#F7F7F7" stroke-width="0.1193" stroke-linecap="round" stroke-linejoin="round" fill="#F7F7F7"/>
        <path d="M 0.0279,1.7956 L 50.5725,1.7956 L 50.7120,1.7956 " stroke="#7F7F7F" stroke-width="0.1193" stroke-linecap="round" stroke-linejoin="round" fill="none"/>
        <path d="M 50.7120,1.7956 L 50.6981,1.7956 L 50.6702,1.7816 L 50.6283,1.7676 L 50.5585,1.7535 L 50.4748,1.7395 L 50.3771,1.7115 L 50.2655,1.6834 L 50.1399,1.6553 L 50.0003,1.6133 L 49.8468,1.5852 L 49.6933,1.5431 L 49.5119,1.5010 L 49.3305,1.4449 L 48.9398,1.3607 L 48.5211,1.2485 L 47.6280,1.0241 L 47.1535,0.9118 L 46.9303,0.8557 L 46.6930,0.7996 L 46.4697,0.7435 L 46.2325,0.6874 L 46.0092,0.6313 L 45.7999,0.5752 L 45.5766,0.5190 L 45.3673,0.4770 L 45.1719,0.4208 L 45.0882,0.4068 L 44.9905,0.3788 L 44.9068,0.3647 L 44.8091,0.3367 L 44.7114,0.3227 L 44.6137,0.2946 L 44.3207,0.2525 L 44.2230,0.2245 L 44.1114,0.2104 L 43.9160,0.1824 L 43.8044,0.1683 L 43.7067,0.1543 L 43.5950,0.1403 L 43.4974,0.1263 L 43.3857,0.1122 L 43.2880,0.0982 L 43.1764,0.0982 L 43.0787,0.0842 L 42.9671,0.0701 L 42.8694,0.0701 L 42.7577,0.0561 L 42.6601,0.0561 L 42.5624,0.0421 L 42.3531,0.0421 L 42.2554,0.0281 L 8.4846,0.0281 L 8.3869,0.0421 L 8.1776,0.0421 L 8.0799,0.0561 L 7.9822,0.0561 L 7.8706,0.0701 L 7.7729,0.0701 L 7.6612,0.0842 L 7.5635,0.0982 L 7.4519,0.0982 L 7.3542,0.1122 L 7.2426,0.1263 L 7.1449,0.1403 L 7.0333,0.1543 L 6.9356,0.1683 L 6.8239,0.1824 L 6.6286,0.2104 L 6.5169,0.2245 L 6.4192,0.2525 L 6.1262,0.2946 L 6.0285,0.3227 L 5.9308,0.3367 L 5.8331,0.3647 L 5.7494,0.3788 L 5.6517,0.4068 L 5.5680,0.4208 L 5.3726,0.4770 L 5.1633,0.5190 L 4.9400,0.5752 L 4.7307,0.6313 L 4.5074,0.6874 L 4.2702,0.7435 L 4.0469,0.7996 L 3.8097,0.8557 L 3.5864,0.9118 L 3.1119,1.0241 L 2.2188,1.2485 L 1.8002,1.3607 L 1.4094,1.4449 L 1.2280,1.5010 L 1.0466,1.5431 L 0.8931,1.5852 L 0.7396,1.6133 L 0.6001,1.6553 L 0.4745,1.6834 L 0.3628,1.7115 L 0.2651,1.7395 L 0.1814,1.7535 L 0.1116,1.7676 L 0.0698,1.7816 L 0.0419,1.7956 L 0.0279,1.7956 L 0.0279,10.6756 L 0.0419,10.6756 L 0.0698,10.7036 L 0.1116,10.7317 L 0.1814,10.7597 L 0.2651,10.8158 L 0.3628,10.8720 L 0.4745,10.9281 L 0.6001,10.9982 L 0.8792,11.1665 L 1.1862,11.3349 L 1.8560,11.7277 L 2.0235,11.8118 L 2.5258,12.1064 L 2.8328,12.2748 L 3.1119,12.4431 L 3.2375,12.5133 L 3.3492,12.5694 L 3.4469,12.6255 L 3.5306,12.6816 L 3.6004,12.7097 L 3.6422,12.7377 L 3.6701,12.7658 L 47.0698,12.7658 L 47.0977,12.7377 L 47.1396,12.7097 L 47.2093,12.6816 L 47.2931,12.6255 L 47.3908,12.5694 L 47.5024,12.5133 L 47.6280,12.4431 L 47.9071,12.2748 L 48.2141,12.1064 L 48.7165,11.8118 L 48.8839,11.7277 L 49.5538,11.3349 L 49.8608,11.1665 L 50.1399,10.9982 L 50.2655,10.9281 L 50.3771,10.8720 L 50.4748,10.8158 L 50.5585,10.7597 L 50.6283,10.7317 L 50.6702,10.7036 L 50.6981,10.6756 L 50.7120,10.6756 L 50.7120,1.8237 L 50.7120,1.7956 Z" stroke="#000000" stroke-width="0.1193" stroke-linecap="round" stroke-linejoin="round" fill="none"/>
        <path d="M 5.2052,10.8439 L 45.6464,10.8439 L 45.6604,10.8299 L 45.6743,10.8299 L 45.6883,10.8158 L 45.7022,10.8158 L 45.7162,10.8018 L 45.7162,10.7878 L 45.7301,10.7878 L 45.7301,10.7738 L 45.7441,10.7597 L 45.7441,10.7457 L 45.7580,10.7457 L 45.7580,10.6896 L 45.7720,10.6896 L 45.7720,4.2927 L 45.7580,4.2506 L 45.7580,4.2085 L 45.7022,4.0402 L 45.6883,4.0121 L 45.6604,3.9700 L 45.6464,3.9420 L 45.6185,3.8999 L 45.6045,3.8718 L 45.4650,3.7315 L 45.4231,3.7035 L 45.3952,3.6894 L 45.3534,3.6614 L 45.3254,3.6474 L 45.2836,3.6333 L 45.2417,3.6053 L 45.2138,3.5913 L 45.1719,3.5913 L 45.0882,3.5632 L 45.0463,3.5632 L 45.0045,3.5492 L 5.7355,3.5492 L 5.6936,3.5632 L 5.6517,3.5632 L 5.5680,3.5913 L 5.5261,3.5913 L 5.4982,3.6053 L 5.4564,3.6333 L 5.4145,3.6474 L 5.3866,3.6614 L 5.3447,3.6894 L 5.3168,3.7035 L 5.2749,3.7315 L 5.1354,3.8718 L 5.1214,3.8999 L 5.0935,3.9420 L 5.0796,3.9700 L 5.0517,4.0121 L 5.0377,4.0402 L 4.9819,4.2085 L 4.9819,4.2506 L 4.9679,4.2927 L 4.9679,10.7597 L 4.9819,10.7597 L 4.9819,10.7738 L 5.0098,10.8018 L 5.0238,10.8018 L 5.0238,10.8158 L 5.0517,10.8158 L 5.0517,10.8299 L 5.1075,10.8299 L 5.1214,10.8439 L 5.1912,10.8439 L 5.2052,10.8439 Z" stroke="#000000" stroke-width="0.1193" stroke-linecap="round" stroke-linejoin="round" fill="#EAEAEA"/>
        <path d="M 10.9825,4.7556 L 6.5588,4.7556 L 6.5588,8.6134 L 10.9825,8.6134 L 10.9825,4.7556 Z" stroke="#000000" stroke-width="0.1193" stroke-linecap="round" stroke-linejoin="round" fill="#2F97D8"/>
        <path d="M 40.9715,4.8398 L 20.3323,4.8398 L 20.3323,8.6134 L 40.9715,8.6134 L 40.9715,4.8398 Z" stroke="#000000" stroke-width="0.1193" stroke-linecap="round" stroke-linejoin="round" fill="#BFBFBF"/>
        <path d="M 44.2788,5.3448 L 41.9623,5.3448 L 41.9623,8.6134 L 44.2788,8.6134 L 44.2788,5.3448 Z" stroke="#000000" stroke-width="0.1193" stroke-linecap="round" stroke-linejoin="round" fill="#333333"/>
        <path d="M 19.1461,8.4451 L 15.2108,8.4451 L 15.2108,5.7376 L 19.1461,5.7376 L 19.1461,8.4451 Z" stroke="#7F7F7F" stroke-width="0.1193" stroke-linecap="round" stroke-linejoin="round" fill="#7F7F7F"/>
        <path d="M 19.3415,8.6134 L 15.0154,8.6134 L 15.0154,5.5692 L 19.3415,5.5692 L 19.3415,8.6134 Z" stroke="#000000" stroke-width="0.1193" stroke-linecap="round" stroke-linejoin="round" fill="none"/>
        <path d="M 40.2877,3.6614 L 36.9386,3.6614 L 36.9386,4.6434 L 40.2877,4.6434 L 40.2877,3.6614 Z" stroke="#7F7F7F" stroke-width="0.1193" stroke-linecap="round" stroke-linejoin="round" fill="#7F7F7F"/>
        <text font-family="Arial" fill="#000000" style="white-space:pre;" font-weight="400" text-anchor="start" x="2.1072" y="2.9394" font-size="0.1954"><![CDATA[CONSOLE]]></text>
        <text font-family="Arial" fill="#000000" style="white-space:pre;" font-weight="400" text-anchor="start" x="4.4935" y="2.9394" font-size="0.1954"><![CDATA[SFP]]></text>
        <text font-family="Arial" fill="#000000" style="white-space:pre;" font-weight="400" text-anchor="start" x="5.7773" y="2.9394" font-size="0.1954"><![CDATA[WAN]]></text>
        <text font-family="Arial" fill="#000000" style="white-space:pre;" font-weight="400" text-anchor="start" x="6.9495" y="2.9394" font-size="0.1954"><![CDATA[1]]></text>
        <text font-family="Arial" fill="#000000" style="white-space:pre;" font-weight="400" text-anchor="start" x="7.9682" y="2.9394" font-size="0.1954"><![CDATA[2]]></text>
        <text font-family="Arial" fill="#000000" style="white-space:pre;" font-weight="400" text-anchor="start" x="9.0009" y="2.9394" font-size="0.1954"><![CDATA[3]]></text>
        <text font-family="Arial" fill="#000000" style="white-space:pre;" font-weight="400" text-anchor="start" x="10.0196" y="2.9394" font-size="0.1954"><![CDATA[4]]></text>
        <text font-family="Arial" fill="#000000" style="white-space:pre;" font-weight="400" text-anchor="start" x="10.8429" y="2.9394" font-size="0.1954"><![CDATA[12VDC]]></text>
        <ellipse cx="12.0828" cy="9.9600" rx="0.1040" ry="0.1020" fill="#000000" stroke="#000000" stroke-width="0.1193" stroke-linecap="round" stroke-linejoin="round"/>
        <ellipse cx="12.0828" cy="9.9600" rx="0.1040" ry="0.1020" fill="none" stroke="#000000" stroke-width="0.1193" stroke-linecap="round" stroke-linejoin="round"/>
        <path d="M 12.2977,10.0212 L 13.5871,10.0212 " stroke="#000000" stroke-width="0.1193" stroke-linecap="round" stroke-linejoin="round" fill="none"/>
        <path d="M 12.4641,10.0212 L 12.7414,9.7493 L 13.0741,9.7493 " stroke="#000000" stroke-width="0.1193" stroke-linecap="round" stroke-linejoin="round" fill="none"/>
        <path d="M 12.6998,10.0212 L 12.9771,10.2932 L 13.1850,10.2932 " stroke="#000000" stroke-width="0.1193" stroke-linecap="round" stroke-linejoin="round" fill="none"/>
        <ellipse cx="13.1157" cy="9.6881" rx="0.0555" ry="0.0476" fill="#000000" stroke="#000000" stroke-width="0.1193" stroke-linecap="round" stroke-linejoin="round"/>
        <ellipse cx="13.1157" cy="9.6881" rx="0.0555" ry="0.0476" fill="none" stroke="#000000" stroke-width="0.1193" stroke-linecap="round" stroke-linejoin="round"/>
        <path d="M 13.3930,10.1980 L 13.1850,10.1980 L 13.1850,10.4020 L 13.3930,10.4020 L 13.3930,10.1980 Z" stroke="#000000" stroke-width="0.1193" stroke-linecap="round" stroke-linejoin="round" fill="#000000"/>
        <path d="M 13.9060,10.0212 L 13.5871,9.9124 L 13.5871,10.1300 L 13.9060,10.0212 Z" stroke="#000000" stroke-width="0.1193" stroke-linecap="round" stroke-linejoin="round" fill="#000000"/>
        <path d="M 17.5641,8.8912 L 16.8092,8.8912 L 16.8092,9.2027 L 17.5641,9.2027 L 17.5641,8.8912 Z" stroke="#000000" stroke-width="0.1193" stroke-linecap="round" stroke-linejoin="round" fill="#83FF00"/>
        <path d="M 22.8077,8.8912 L 22.0529,8.8912 L 22.0529,9.2027 L 22.8077,9.2027 L 22.8077,8.8912 Z" stroke="#000000" stroke-width="0.1193" stroke-linecap="round" stroke-linejoin="round" fill="#83FF00"/>
        <path d="M 26.8921,8.8912 L 26.1372,8.8912 L 26.1372,9.2027 L 26.8921,9.2027 L 26.8921,8.8912 Z" stroke="#000000" stroke-width="0.1193" stroke-linecap="round" stroke-linejoin="round" fill="#83FF00"/>
        <path d="M 31.0169,8.8912 L 30.2620,8.8912 L 30.2620,9.2027 L 31.0169,9.2027 L 31.0169,8.8912 Z" stroke="#000000" stroke-width="0.1193" stroke-linecap="round" stroke-linejoin="round" fill="#83FF00"/>
        <path d="M 35.1012,8.8912 L 34.3464,8.8912 L 34.3464,9.2027 L 35.1012,9.2027 L 35.1012,8.8912 Z" stroke="#000000" stroke-width="0.1193" stroke-linecap="round" stroke-linejoin="round" fill="#83FF00"/>
        <path d="M 39.1721,8.8912 L 38.4173,8.8912 L 38.4173,9.2027 L 39.1721,9.2027 L 39.1721,8.8912 Z" stroke="#000000" stroke-width="0.1193" stroke-linecap="round" stroke-linejoin="round" fill="#83FF00"/>
        <path d="M 6.9822,8.2956 L 6.9822,5.7986 L 7.8688,5.7986 L 7.8688,5.4657 L 8.2290,5.4657 L 8.2290,5.1744 L 9.2819,5.1744 L 9.2819,5.4657 L 9.6421,5.4657 L 9.6421,5.7986 L 10.5287,5.7986 L 10.5287,8.2956 L 10.0577,8.2956 L 10.0577,7.8656 L 7.4532,7.8656 L 7.4532,8.2956 L 6.9822,8.2956 Z" stroke="#161616" stroke-width="0.1193" stroke-linecap="round" stroke-linejoin="round" fill="#1E82B5"/>
        <path d="M 7.6610,7.7824 L 7.5364,7.7824 L 7.5364,7.8517 L 7.6610,7.8517 L 7.6610,7.7824 Z" stroke="#000000" stroke-width="0.1193" stroke-linecap="round" stroke-linejoin="round" fill="#D6D6B1"/>
        <path d="M 7.9797,7.7824 L 7.8550,7.7824 L 7.8550,7.8517 L 7.9797,7.8517 L 7.9797,7.7824 Z" stroke="#000000" stroke-width="0.1193" stroke-linecap="round" stroke-linejoin="round" fill="#D6D6B1"/>
        <path d="M 8.3122,7.7824 L 8.1875,7.7824 L 8.1875,7.8517 L 8.3122,7.8517 L 8.3122,7.7824 Z" stroke="#000000" stroke-width="0.1193" stroke-linecap="round" stroke-linejoin="round" fill="#D6D6B1"/>
        <path d="M 8.6446,7.7824 L 8.5200,7.7824 L 8.5200,7.8517 L 8.6446,7.8517 L 8.6446,7.7824 Z" stroke="#000000" stroke-width="0.1193" stroke-linecap="round" stroke-linejoin="round" fill="#D6D6B1"/>
        <path d="M 8.9771,7.7824 L 8.8524,7.7824 L 8.8524,7.8517 L 8.9771,7.8517 L 8.9771,7.7824 Z" stroke="#000000" stroke-width="0.1193" stroke-linecap="round" stroke-linejoin="round" fill="#D6D6B1"/>
        <path d="M 9.3096,7.7824 L 9.1849,7.7824 L 9.1849,7.8517 L 9.3096,7.8517 L 9.3096,7.7824 Z" stroke="#000000" stroke-width="0.1193" stroke-linecap="round" stroke-linejoin="round" fill="#D6D6B1"/>
        <path d="M 9.6421,7.7824 L 9.5174,7.7824 L 9.5174,7.8517 L 9.6421,7.8517 L 9.6421,7.7824 Z" stroke="#000000" stroke-width="0.1193" stroke-linecap="round" stroke-linejoin="round" fill="#D6D6B1"/>
        <path d="M 9.9884,7.7824 L 9.8638,7.7824 L 9.8638,7.8517 L 9.9884,7.8517 L 9.9884,7.7824 Z" stroke="#000000" stroke-width="0.1193" stroke-linecap="round" stroke-linejoin="round" fill="#D6D6B1"/>
        <path d="M 12.1750,8.4202 L 12.1750,8.4624 L 12.1890,8.4624 L 12.1890,8.4905 L 12.2029,8.5045 L 12.2029,8.5186 L 12.2169,8.5186 L 12.2169,8.5326 L 12.2309,8.5326 L 12.2309,8.5467 L 12.2448,8.5467 L 12.2588,8.5608 L 12.2867,8.5608 L 12.2867,8.5748 L 13.6550,8.5748 L 13.6550,8.5608 L 13.6829,8.5608 L 13.6969,8.5467 L 13.7108,8.5467 L 13.7108,8.5326 L 13.7248,8.5326 L 13.7248,8.5186 L 13.7388,8.5186 L 13.7388,8.5045 L 13.7527,8.4905 L 13.7527,8.4624 L 13.7667,8.4624 L 13.7667,4.9481 L 13.7527,4.9481 L 13.7527,4.9200 L 13.7388,4.9059 L 13.7388,4.8919 L 13.7248,4.8919 L 13.7248,4.8778 L 13.7108,4.8778 L 13.7108,4.8637 L 13.6969,4.8637 L 13.6829,4.8497 L 13.6550,4.8497 L 13.6550,4.8356 L 12.2867,4.8356 L 12.2867,4.8497 L 12.2588,4.8497 L 12.2448,4.8637 L 12.2309,4.8637 L 12.2309,4.8778 L 12.2169,4.8778 L 12.2169,4.8919 L 12.2029,4.8919 L 12.2029,4.9059 L 12.1890,4.9200 L 12.1890,4.9481 L 12.1750,4.9481 L 12.1750,8.4061 L 12.1750,8.4202 Z" stroke="#000000" stroke-width="0.1193" stroke-linecap="round" stroke-linejoin="round" fill="#BFBFBF"/>
        <path d="M 12.3007,8.3640 L 12.3007,8.4061 L 12.3146,8.4061 L 12.3146,8.4202 L 12.3286,8.4342 L 12.3426,8.4342 L 12.3426,8.4483 L 13.5992,8.4483 L 13.6131,8.4342 L 13.6271,8.4342 L 13.6271,8.4202 L 13.6410,8.4202 L 13.6410,8.4061 L 13.6550,8.3921 L 13.6550,5.0043 L 13.6410,5.0043 L 13.6410,4.9903 L 13.6271,4.9903 L 13.6271,4.9762 L 13.6131,4.9762 L 13.5992,4.9621 L 12.3426,4.9621 L 12.3426,4.9762 L 12.3286,4.9762 L 12.3146,4.9903 L 12.3146,5.0043 L 12.3007,5.0043 L 12.3007,8.3499 L 12.3007,8.3640 Z" stroke="#7F7F7F" stroke-width="0.1193" stroke-linecap="round" stroke-linejoin="round" fill="#000000"/>
        <path d="M 12.9988,7.6189 L 12.9988,7.9282 L 12.9290,7.9282 L 12.9290,7.6189 L 12.9988,7.6189 Z" stroke="#000000" stroke-width="0.1193" stroke-linecap="round" stroke-linejoin="round" fill="#E2E2CC"/>
        <path d="M 12.9988,6.9161 L 12.9988,7.2253 L 12.9290,7.2253 L 12.9290,6.9161 L 12.9988,6.9161 Z" stroke="#000000" stroke-width="0.1193" stroke-linecap="round" stroke-linejoin="round" fill="#E2E2CC"/>
        <path d="M 12.9988,6.2273 L 12.9988,6.5365 L 12.9290,6.5365 L 12.9290,6.2273 L 12.9988,6.2273 Z" stroke="#000000" stroke-width="0.1193" stroke-linecap="round" stroke-linejoin="round" fill="#E2E2CC"/>
        <path d="M 12.9988,5.5104 L 12.9988,5.8196 L 12.9290,5.8196 L 12.9290,5.5104 L 12.9988,5.5104 Z" stroke="#000000" stroke-width="0.1193" stroke-linecap="round" stroke-linejoin="round" fill="#E2E2CC"/>
        <path d="M 12.5660,5.1730 L 12.5380,5.1730 L 12.5101,5.1871 L 12.4961,5.2152 L 12.4961,8.1953 L 12.5101,8.2234 L 12.5380,8.2374 L 12.8871,8.2374 L 12.9150,8.2234 L 12.9290,8.1953 L 12.9290,5.2152 L 12.9150,5.1871 L 12.8871,5.1730 L 12.8592,5.1730 L 12.5660,5.1730 Z" stroke="#000000" stroke-width="0.1193" stroke-linecap="round" stroke-linejoin="round" fill="#0000FF"/>
        <path d="M 12.7056,5.2855 L 12.6497,5.2995 L 12.5939,5.3557 L 12.5799,5.4120 L 12.5799,7.9985 L 12.5939,8.0547 L 12.6497,8.1109 L 12.7056,8.1250 L 12.7614,8.1109 L 12.8173,8.0547 L 12.8312,7.9985 L 12.8312,5.4120 L 12.8173,5.3557 L 12.7614,5.2995 L 12.7056,5.2855 Z" stroke="#4C4CFF" stroke-width="0.1193" stroke-linecap="round" stroke-linejoin="round" fill="#4C4CFF"/>
        <path d="M 19.1840,8.4035 L 15.2467,8.4035 L 15.2467,5.7315 L 19.1840,5.7315 L 19.1840,8.4035 Z" stroke="#000000" stroke-width="0.1193" stroke-linecap="round" stroke-linejoin="round" fill="#7F7F7F"/>
        <path d="M 19.1840,8.4035 L 15.2467,8.4035 L 15.2467,5.7315 L 19.1840,5.7315 L 19.1840,8.4035 Z" stroke="#000000" stroke-width="0.1193" stroke-linecap="round" stroke-linejoin="round" fill="#DDDDDD"/>
        <path d="M 19.0675,8.3499 L 15.3538,8.3499 L 15.3538,5.7915 L 19.0675,5.7915 L 19.0675,8.3499 Z" stroke="#000000" stroke-width="0.1193" stroke-linecap="round" stroke-linejoin="round" fill="#999974"/>
        <path d="M 19.0121,6.0305 L 19.0121,5.9883 L 18.9705,5.9040 L 18.8873,5.8618 L 15.5339,5.8618 L 15.4508,5.9040 L 15.4092,5.9883 L 15.4092,8.1672 L 15.4508,8.2515 L 15.5339,8.2937 L 18.8873,8.2937 L 18.9705,8.2515 L 19.0121,8.1672 L 19.0121,8.1250 L 19.0121,6.0305 Z" stroke="#7F7F7F" stroke-width="0.1193" stroke-linecap="round" stroke-linejoin="round" fill="#CCCCB9"/>
        <path d="M 15.6309,8.1250 L 15.6309,6.5928 L 15.7556,6.5928 L 15.7556,6.4381 L 15.6309,6.4381 L 15.6309,6.1992 L 15.8942,6.1992 L 15.8942,5.9180 L 16.7949,5.9180 L 16.7949,6.1992 L 17.0721,6.1992 L 17.0721,6.4381 L 16.9473,6.4381 L 16.9473,6.5928 L 17.0721,6.5928 L 17.0721,8.1250 L 15.6309,8.1250 Z" stroke="#000000" stroke-width="0.1193" stroke-linecap="round" stroke-linejoin="round" fill="#938476"/>
        <path d="M 15.6309,6.3257 L 15.6309,6.1992 L 15.8942,6.1992 L 15.8942,5.9040 L 16.7949,5.9040 L 16.7949,6.1992 L 17.0721,6.1992 L 17.0721,6.3257 L 15.6309,6.3257 Z" stroke="#000000" stroke-width="0.1193" stroke-linecap="round" stroke-linejoin="round" fill="#938476"/>
        <path d="M 15.6309,6.3257 L 15.6309,6.3819 L 17.0721,6.3819 L 17.0721,6.3257 L 15.6309,6.3257 Z" stroke="#000000" stroke-width="0.1193" stroke-linecap="round" stroke-linejoin="round" fill="#706257"/>
        <path d="M 15.6309,6.9723 L 17.0582,6.9723 " stroke="#000000" stroke-width="0.1193" stroke-linecap="round" stroke-linejoin="round" fill="none"/>
        <path d="M 16.8642,8.1250 L 16.9196,8.0688 L 16.9335,8.0406 L 16.9612,8.0125 L 16.9751,7.9844 L 16.9889,7.9422 L 17.0166,7.8860 L 17.0305,7.8438 L 17.0582,7.7876 L 17.0582,7.7173 L 17.0721,7.6752 L 17.0721,7.5346 L 17.0582,7.4924 L 17.0582,7.4221 L 17.0305,7.3659 L 17.0166,7.3237 L 16.9889,7.2675 L 16.9751,7.2253 L 16.9612,7.1972 L 16.9335,7.1691 L 16.9196,7.1410 L 16.8088,7.0285 L 16.7811,7.0145 L 16.7533,6.9864 L 16.7256,6.9723 L 16.6841,6.9582 L 16.6286,6.9301 L 16.5871,6.9161 L 16.5316,6.8880 L 16.4623,6.8880 L 16.4208,6.8739 L 16.2822,6.8739 L 16.2406,6.8880 L 16.1713,6.8880 L 16.1159,6.9161 L 16.0743,6.9301 L 16.0189,6.9582 L 15.9773,6.9723 L 15.9496,6.9864 L 15.9219,7.0145 L 15.8942,7.0285 L 15.7833,7.1410 L 15.7695,7.1691 L 15.7418,7.1972 L 15.7279,7.2253 L 15.7141,7.2675 L 15.6863,7.3237 L 15.6725,7.3659 L 15.6448,7.4221 L 15.6448,7.4924 L 15.6309,7.5346 L 15.6309,7.6752 L 15.6448,7.7173 L 15.6448,7.7876 L 15.6725,7.8438 L 15.6863,7.8860 L 15.7141,7.9422 L 15.7279,7.9844 L 15.7418,8.0125 L 15.7695,8.0406 L 15.7833,8.0688 L 15.8388,8.1250 L 16.8503,8.1250 L 16.8642,8.1250 Z" stroke="#000000" stroke-width="0.1193" stroke-linecap="round" stroke-linejoin="round" fill="#A09183"/>
        <ellipse cx="16.2891" cy="7.5416" rx="0.2841" ry="0.2882" fill="none" stroke="#494949" stroke-width="0.1193" stroke-linecap="round" stroke-linejoin="round"/>
        <ellipse cx="16.2891" cy="7.5486" rx="0.1732" ry="0.1827" fill="#706257" stroke="#000000" stroke-width="0.1193" stroke-linecap="round" stroke-linejoin="round"/>
        <ellipse cx="16.2891" cy="7.5486" rx="0.1732" ry="0.1827" fill="none" stroke="#000000" stroke-width="0.1193" stroke-linecap="round" stroke-linejoin="round"/>
        <ellipse cx="16.2961" cy="7.5416" rx="0.1663" ry="0.1617" fill="#9B8C81" stroke="#000000" stroke-width="0.1193" stroke-linecap="round" stroke-linejoin="round"/>
        <ellipse cx="16.2961" cy="7.5416" rx="0.1663" ry="0.1617" fill="none" stroke="#000000" stroke-width="0.1193" stroke-linecap="round" stroke-linejoin="round"/>
        <path d="M 16.3931,7.3940 L 16.3238,7.3940 L 16.3238,7.8298 L 16.3931,7.8298 L 16.3931,7.3940 Z" stroke="#000000" stroke-width="0.1193" stroke-linecap="round" stroke-linejoin="round" fill="#4F443C"/>
        <path d="M 17.2938,8.1250 L 17.2938,6.5928 L 17.4185,6.5928 L 17.4185,6.4381 L 17.2938,6.4381 L 17.2938,6.1992 L 17.5571,6.1992 L 17.5571,5.9180 L 18.4578,5.9180 L 18.4578,6.1992 L 18.7349,6.1992 L 18.7349,6.4381 L 18.6102,6.4381 L 18.6102,6.5928 L 18.7349,6.5928 L 18.7349,8.1250 L 17.2938,8.1250 Z" stroke="#000000" stroke-width="0.1193" stroke-linecap="round" stroke-linejoin="round" fill="#938476"/>
        <path d="M 17.2938,6.3257 L 17.2938,6.1992 L 17.5571,6.1992 L 17.5571,5.9040 L 18.4578,5.9040 L 18.4578,6.1992 L 18.7349,6.1992 L 18.7349,6.3257 L 17.2938,6.3257 Z" stroke="#000000" stroke-width="0.1193" stroke-linecap="round" stroke-linejoin="round" fill="#938476"/>
        <path d="M 17.2938,6.3257 L 17.2938,6.3819 L 18.7349,6.3819 L 18.7349,6.3257 L 17.2938,6.3257 Z" stroke="#000000" stroke-width="0.1193" stroke-linecap="round" stroke-linejoin="round" fill="#706257"/>
        <path d="M 17.2938,6.9723 L 18.7211,6.9723 " stroke="#000000" stroke-width="0.1193" stroke-linecap="round" stroke-linejoin="round" fill="none"/>
        <path d="M 18.5271,8.1250 L 18.5825,8.0688 L 18.5963,8.0406 L 18.6241,8.0125 L 18.6379,7.9844 L 18.6518,7.9422 L 18.6795,7.8860 L 18.6933,7.8438 L 18.7211,7.7876 L 18.7211,7.7173 L 18.7349,7.6752 L 18.7349,7.5346 L 18.7211,7.4924 L 18.7211,7.4221 L 18.6933,7.3659 L 18.6795,7.3237 L 18.6518,7.2675 L 18.6379,7.2253 L 18.6241,7.1972 L 18.5963,7.1691 L 18.5825,7.1410 L 18.4716,7.0285 L 18.4439,7.0145 L 18.4162,6.9864 L 18.3885,6.9723 L 18.3469,6.9582 L 18.2915,6.9301 L 18.2499,6.9161 L 18.1945,6.8880 L 18.1252,6.8880 L 18.0836,6.8739 L 17.9451,6.8739 L 17.9035,6.8880 L 17.8342,6.8880 L 17.7788,6.9161 L 17.7372,6.9301 L 17.6818,6.9582 L 17.6402,6.9723 L 17.6125,6.9864 L 17.5848,7.0145 L 17.5571,7.0285 L 17.4462,7.1410 L 17.4323,7.1691 L 17.4046,7.1972 L 17.3908,7.2253 L 17.3769,7.2675 L 17.3492,7.3237 L 17.3353,7.3659 L 17.3076,7.4221 L 17.3076,7.4924 L 17.2938,7.5346 L 17.2938,7.6752 L 17.3076,7.7173 L 17.3076,7.7876 L 17.3353,7.8438 L 17.3492,7.8860 L 17.3769,7.9422 L 17.3908,7.9844 L 17.4046,8.0125 L 17.4323,8.0406 L 17.4462,8.0688 L 17.5016,8.1250 L 18.5132,8.1250 L 18.5271,8.1250 Z" stroke="#000000" stroke-width="0.1193" stroke-linecap="round" stroke-linejoin="round" fill="#A09183"/>
        <ellipse cx="17.9520" cy="7.5416" rx="0.2841" ry="0.2882" fill="none" stroke="#494949" stroke-width="0.1193" stroke-linecap="round" stroke-linejoin="round"/>
        <ellipse cx="17.9520" cy="7.5486" rx="0.1732" ry="0.1827" fill="#706257" stroke="#000000" stroke-width="0.1193" stroke-linecap="round" stroke-linejoin="round"/>
        <ellipse cx="17.9520" cy="7.5486" rx="0.1732" ry="0.1827" fill="none" stroke="#000000" stroke-width="0.1193" stroke-linecap="round" stroke-linejoin="round"/>
        <ellipse cx="17.9589" cy="7.5416" rx="0.1663" ry="0.1617" fill="#9B8C81" stroke="#000000" stroke-width="0.1193" stroke-linecap="round" stroke-linejoin="round"/>
        <ellipse cx="17.9589" cy="7.5416" rx="0.1663" ry="0.1617" fill="none" stroke="#000000" stroke-width="0.1193" stroke-linecap="round" stroke-linejoin="round"/>
        <path d="M 18.0559,7.3940 L 17.9866,7.3940 L 17.9866,7.8298 L 18.0559,7.8298 L 18.0559,7.3940 Z" stroke="#000000" stroke-width="0.1193" stroke-linecap="round" stroke-linejoin="round" fill="#4F443C"/>
        <path d="M 20.6780,8.2956 L 20.6780,7.1858 L 20.4965,7.1858 L 20.4965,6.4367 L 20.6780,6.4367 L 20.6780,5.7986 L 21.5715,5.7986 L 21.5715,5.4657 L 21.9346,5.4657 L 21.9346,5.1744 L 22.9957,5.1744 L 22.9957,5.4657 L 23.3587,5.4657 L 23.3587,5.7986 L 24.2523,5.7986 L 24.2523,6.4367 L 24.4338,6.4367 L 24.4338,7.1858 L 24.2523,7.1858 L 24.2523,8.2956 L 23.7776,8.2956 L 23.7776,7.8656 L 21.1527,7.8656 L 21.1527,8.2956 L 20.6780,8.2956 Z" stroke="#161616" stroke-width="0.1193" stroke-linecap="round" stroke-linejoin="round" fill="#999999"/>
        <path d="M 21.3621,7.7824 L 21.2365,7.7824 L 21.2365,7.8517 L 21.3621,7.8517 L 21.3621,7.7824 Z" stroke="#000000" stroke-width="0.1193" stroke-linecap="round" stroke-linejoin="round" fill="#D6D6B1"/>
        <path d="M 21.6832,7.7824 L 21.5576,7.7824 L 21.5576,7.8517 L 21.6832,7.8517 L 21.6832,7.7824 Z" stroke="#000000" stroke-width="0.1193" stroke-linecap="round" stroke-linejoin="round" fill="#D6D6B1"/>
        <path d="M 22.0183,7.7824 L 21.8927,7.7824 L 21.8927,7.8517 L 22.0183,7.8517 L 22.0183,7.7824 Z" stroke="#000000" stroke-width="0.1193" stroke-linecap="round" stroke-linejoin="round" fill="#D6D6B1"/>
        <path d="M 22.3534,7.7824 L 22.2278,7.7824 L 22.2278,7.8517 L 22.3534,7.8517 L 22.3534,7.7824 Z" stroke="#000000" stroke-width="0.1193" stroke-linecap="round" stroke-linejoin="round" fill="#D6D6B1"/>
        <path d="M 22.6885,7.7824 L 22.5629,7.7824 L 22.5629,7.8517 L 22.6885,7.8517 L 22.6885,7.7824 Z" stroke="#000000" stroke-width="0.1193" stroke-linecap="round" stroke-linejoin="round" fill="#D6D6B1"/>
        <path d="M 23.0236,7.7824 L 22.8980,7.7824 L 22.8980,7.8517 L 23.0236,7.8517 L 23.0236,7.7824 Z" stroke="#000000" stroke-width="0.1193" stroke-linecap="round" stroke-linejoin="round" fill="#D6D6B1"/>
        <path d="M 23.3587,7.7824 L 23.2330,7.7824 L 23.2330,7.8517 L 23.3587,7.8517 L 23.3587,7.7824 Z" stroke="#000000" stroke-width="0.1193" stroke-linecap="round" stroke-linejoin="round" fill="#D6D6B1"/>
        <path d="M 23.7078,7.7824 L 23.5821,7.7824 L 23.5821,7.8517 L 23.7078,7.8517 L 23.7078,7.7824 Z" stroke="#000000" stroke-width="0.1193" stroke-linecap="round" stroke-linejoin="round" fill="#D6D6B1"/>
        <path d="M 24.7549,8.2956 L 24.7549,7.1858 L 24.5734,7.1858 L 24.5734,6.4367 L 24.7549,6.4367 L 24.7549,5.7986 L 25.6485,5.7986 L 25.6485,5.4657 L 26.0115,5.4657 L 26.0115,5.1744 L 27.0726,5.1744 L 27.0726,5.4657 L 27.4357,5.4657 L 27.4357,5.7986 L 28.3292,5.7986 L 28.3292,6.4367 L 28.5107,6.4367 L 28.5107,7.1858 L 28.3292,7.1858 L 28.3292,8.2956 L 27.8545,8.2956 L 27.8545,7.8656 L 25.2296,7.8656 L 25.2296,8.2956 L 24.7549,8.2956 Z" stroke="#161616" stroke-width="0.1193" stroke-linecap="round" stroke-linejoin="round" fill="#999999"/>
        <path d="M 25.4391,7.7824 L 25.3134,7.7824 L 25.3134,7.8517 L 25.4391,7.8517 L 25.4391,7.7824 Z" stroke="#000000" stroke-width="0.1193" stroke-linecap="round" stroke-linejoin="round" fill="#D6D6B1"/>
        <path d="M 25.7602,7.7824 L 25.6345,7.7824 L 25.6345,7.8517 L 25.7602,7.8517 L 25.7602,7.7824 Z" stroke="#000000" stroke-width="0.1193" stroke-linecap="round" stroke-linejoin="round" fill="#D6D6B1"/>
        <path d="M 26.0953,7.7824 L 25.9696,7.7824 L 25.9696,7.8517 L 26.0953,7.8517 L 26.0953,7.7824 Z" stroke="#000000" stroke-width="0.1193" stroke-linecap="round" stroke-linejoin="round" fill="#D6D6B1"/>
        <path d="M 26.4304,7.7824 L 26.3047,7.7824 L 26.3047,7.8517 L 26.4304,7.8517 L 26.4304,7.7824 Z" stroke="#000000" stroke-width="0.1193" stroke-linecap="round" stroke-linejoin="round" fill="#D6D6B1"/>
        <path d="M 26.7655,7.7824 L 26.6398,7.7824 L 26.6398,7.8517 L 26.7655,7.8517 L 26.7655,7.7824 Z" stroke="#000000" stroke-width="0.1193" stroke-linecap="round" stroke-linejoin="round" fill="#D6D6B1"/>
        <path d="M 27.1006,7.7824 L 26.9749,7.7824 L 26.9749,7.8517 L 27.1006,7.8517 L 27.1006,7.7824 Z" stroke="#000000" stroke-width="0.1193" stroke-linecap="round" stroke-linejoin="round" fill="#D6D6B1"/>
        <path d="M 27.4357,7.7824 L 27.3100,7.7824 L 27.3100,7.8517 L 27.4357,7.8517 L 27.4357,7.7824 Z" stroke="#000000" stroke-width="0.1193" stroke-linecap="round" stroke-linejoin="round" fill="#D6D6B1"/>
        <path d="M 27.7847,7.7824 L 27.6591,7.7824 L 27.6591,7.8517 L 27.7847,7.8517 L 27.7847,7.7824 Z" stroke="#000000" stroke-width="0.1193" stroke-linecap="round" stroke-linejoin="round" fill="#D6D6B1"/>
        <path d="M 28.8877,8.2956 L 28.8877,7.1858 L 28.7062,7.1858 L 28.7062,6.4367 L 28.8877,6.4367 L 28.8877,5.7986 L 29.7813,5.7986 L 29.7813,5.4657 L 30.1443,5.4657 L 30.1443,5.1744 L 31.2054,5.1744 L 31.2054,5.4657 L 31.5685,5.4657 L 31.5685,5.7986 L 32.4620,5.7986 L 32.4620,6.4367 L 32.6435,6.4367 L 32.6435,7.1858 L 32.4620,7.1858 L 32.4620,8.2956 L 31.9873,8.2956 L 31.9873,7.8656 L 29.3624,7.8656 L 29.3624,8.2956 L 28.8877,8.2956 Z" stroke="#161616" stroke-width="0.1193" stroke-linecap="round" stroke-linejoin="round" fill="#999999"/>
        <path d="M 29.5719,7.7824 L 29.4462,7.7824 L 29.4462,7.8517 L 29.5719,7.8517 L 29.5719,7.7824 Z" stroke="#000000" stroke-width="0.1193" stroke-linecap="round" stroke-linejoin="round" fill="#D6D6B1"/>
        <path d="M 29.8930,7.7824 L 29.7673,7.7824 L 29.7673,7.8517 L 29.8930,7.8517 L 29.8930,7.7824 Z" stroke="#000000" stroke-width="0.1193" stroke-linecap="round" stroke-linejoin="round" fill="#D6D6B1"/>
        <path d="M 30.2281,7.7824 L 30.1024,7.7824 L 30.1024,7.8517 L 30.2281,7.8517 L 30.2281,7.7824 Z" stroke="#000000" stroke-width="0.1193" stroke-linecap="round" stroke-linejoin="round" fill="#D6D6B1"/>
        <path d="M 30.5632,7.7824 L 30.4375,7.7824 L 30.4375,7.8517 L 30.5632,7.8517 L 30.5632,7.7824 Z" stroke="#000000" stroke-width="0.1193" stroke-linecap="round" stroke-linejoin="round" fill="#D6D6B1"/>
        <path d="M 30.8983,7.7824 L 30.7726,7.7824 L 30.7726,7.8517 L 30.8983,7.8517 L 30.8983,7.7824 Z" stroke="#000000" stroke-width="0.1193" stroke-linecap="round" stroke-linejoin="round" fill="#D6D6B1"/>
        <path d="M 31.2334,7.7824 L 31.1077,7.7824 L 31.1077,7.8517 L 31.2334,7.8517 L 31.2334,7.7824 Z" stroke="#000000" stroke-width="0.1193" stroke-linecap="round" stroke-linejoin="round" fill="#D6D6B1"/>
        <path d="M 31.5685,7.7824 L 31.4428,7.7824 L 31.4428,7.8517 L 31.5685,7.8517 L 31.5685,7.7824 Z" stroke="#000000" stroke-width="0.1193" stroke-linecap="round" stroke-linejoin="round" fill="#D6D6B1"/>
        <path d="M 31.9175,7.7824 L 31.7919,7.7824 L 31.7919,7.8517 L 31.9175,7.8517 L 31.9175,7.7824 Z" stroke="#000000" stroke-width="0.1193" stroke-linecap="round" stroke-linejoin="round" fill="#D6D6B1"/>
        <path d="M 32.9647,8.2956 L 32.9647,7.1858 L 32.7832,7.1858 L 32.7832,6.4367 L 32.9647,6.4367 L 32.9647,5.7986 L 33.8583,5.7986 L 33.8583,5.4657 L 34.2213,5.4657 L 34.2213,5.1744 L 35.2824,5.1744 L 35.2824,5.4657 L 35.6454,5.4657 L 35.6454,5.7986 L 36.5390,5.7986 L 36.5390,6.4367 L 36.7205,6.4367 L 36.7205,7.1858 L 36.5390,7.1858 L 36.5390,8.2956 L 36.0643,8.2956 L 36.0643,7.8656 L 33.4394,7.8656 L 33.4394,8.2956 L 32.9647,8.2956 Z" stroke="#161616" stroke-width="0.1193" stroke-linecap="round" stroke-linejoin="round" fill="#999999"/>
        <path d="M 33.6488,7.7824 L 33.5232,7.7824 L 33.5232,7.8517 L 33.6488,7.8517 L 33.6488,7.7824 Z" stroke="#000000" stroke-width="0.1193" stroke-linecap="round" stroke-linejoin="round" fill="#D6D6B1"/>
        <path d="M 33.9700,7.7824 L 33.8443,7.7824 L 33.8443,7.8517 L 33.9700,7.8517 L 33.9700,7.7824 Z" stroke="#000000" stroke-width="0.1193" stroke-linecap="round" stroke-linejoin="round" fill="#D6D6B1"/>
        <path d="M 34.3050,7.7824 L 34.1794,7.7824 L 34.1794,7.8517 L 34.3050,7.8517 L 34.3050,7.7824 Z" stroke="#000000" stroke-width="0.1193" stroke-linecap="round" stroke-linejoin="round" fill="#D6D6B1"/>
        <path d="M 34.6401,7.7824 L 34.5145,7.7824 L 34.5145,7.8517 L 34.6401,7.8517 L 34.6401,7.7824 Z" stroke="#000000" stroke-width="0.1193" stroke-linecap="round" stroke-linejoin="round" fill="#D6D6B1"/>
        <path d="M 34.9752,7.7824 L 34.8496,7.7824 L 34.8496,7.8517 L 34.9752,7.8517 L 34.9752,7.7824 Z" stroke="#000000" stroke-width="0.1193" stroke-linecap="round" stroke-linejoin="round" fill="#D6D6B1"/>
        <path d="M 35.3103,7.7824 L 35.1847,7.7824 L 35.1847,7.8517 L 35.3103,7.8517 L 35.3103,7.7824 Z" stroke="#000000" stroke-width="0.1193" stroke-linecap="round" stroke-linejoin="round" fill="#D6D6B1"/>
        <path d="M 35.6454,7.7824 L 35.5198,7.7824 L 35.5198,7.8517 L 35.6454,7.8517 L 35.6454,7.7824 Z" stroke="#000000" stroke-width="0.1193" stroke-linecap="round" stroke-linejoin="round" fill="#D6D6B1"/>
        <path d="M 35.9945,7.7824 L 35.8688,7.7824 L 35.8688,7.8517 L 35.9945,7.8517 L 35.9945,7.7824 Z" stroke="#000000" stroke-width="0.1193" stroke-linecap="round" stroke-linejoin="round" fill="#D6D6B1"/>
        <path d="M 37.0416,8.2956 L 37.0416,7.1858 L 36.8601,7.1858 L 36.8601,6.4367 L 37.0416,6.4367 L 37.0416,5.7986 L 37.9352,5.7986 L 37.9352,5.4657 L 38.2982,5.4657 L 38.2982,5.1744 L 39.3594,5.1744 L 39.3594,5.4657 L 39.7224,5.4657 L 39.7224,5.7986 L 40.6159,5.7986 L 40.6159,6.4367 L 40.7975,6.4367 L 40.7975,7.1858 L 40.6159,7.1858 L 40.6159,8.2956 L 40.1412,8.2956 L 40.1412,7.8656 L 37.5163,7.8656 L 37.5163,8.2956 L 37.0416,8.2956 Z" stroke="#161616" stroke-width="0.1193" stroke-linecap="round" stroke-linejoin="round" fill="#999999"/>
        <path d="M 37.7258,7.7824 L 37.6001,7.7824 L 37.6001,7.8517 L 37.7258,7.8517 L 37.7258,7.7824 Z" stroke="#000000" stroke-width="0.1193" stroke-linecap="round" stroke-linejoin="round" fill="#D6D6B1"/>
        <path d="M 38.0469,7.7824 L 37.9212,7.7824 L 37.9212,7.8517 L 38.0469,7.8517 L 38.0469,7.7824 Z" stroke="#000000" stroke-width="0.1193" stroke-linecap="round" stroke-linejoin="round" fill="#D6D6B1"/>
        <path d="M 38.3820,7.7824 L 38.2563,7.7824 L 38.2563,7.8517 L 38.3820,7.8517 L 38.3820,7.7824 Z" stroke="#000000" stroke-width="0.1193" stroke-linecap="round" stroke-linejoin="round" fill="#D6D6B1"/>
        <path d="M 38.7171,7.7824 L 38.5914,7.7824 L 38.5914,7.8517 L 38.7171,7.8517 L 38.7171,7.7824 Z" stroke="#000000" stroke-width="0.1193" stroke-linecap="round" stroke-linejoin="round" fill="#D6D6B1"/>
        <path d="M 39.0522,7.7824 L 38.9265,7.7824 L 38.9265,7.8517 L 39.0522,7.8517 L 39.0522,7.7824 Z" stroke="#000000" stroke-width="0.1193" stroke-linecap="round" stroke-linejoin="round" fill="#D6D6B1"/>
        <path d="M 39.3873,7.7824 L 39.2616,7.7824 L 39.2616,7.8517 L 39.3873,7.8517 L 39.3873,7.7824 Z" stroke="#000000" stroke-width="0.1193" stroke-linecap="round" stroke-linejoin="round" fill="#D6D6B1"/>
        <path d="M 39.7224,7.7824 L 39.5967,7.7824 L 39.5967,7.8517 L 39.7224,7.8517 L 39.7224,7.7824 Z" stroke="#000000" stroke-width="0.1193" stroke-linecap="round" stroke-linejoin="round" fill="#D6D6B1"/>
        <path d="M 40.0714,7.7824 L 39.9458,7.7824 L 39.9458,7.8517 L 40.0714,7.8517 L 40.0714,7.7824 Z" stroke="#000000" stroke-width="0.1193" stroke-linecap="round" stroke-linejoin="round" fill="#D6D6B1"/>
        <ellipse cx="43.0734" cy="6.4810" rx="0.9047" ry="0.9107" fill="#000000" stroke="#000000" stroke-width="0.1193" stroke-linecap="round" stroke-linejoin="round"/>
        <ellipse cx="43.0734" cy="6.4810" rx="0.9047" ry="0.9107" fill="none" stroke="#000000" stroke-width="0.1193" stroke-linecap="round" stroke-linejoin="round"/>
        <ellipse cx="43.0668" cy="6.4810" rx="0.3302" ry="0.3390" fill="#DDDDDD" stroke="#000000" stroke-width="0.1193" stroke-linecap="round" stroke-linejoin="round"/>
        <ellipse cx="43.0668" cy="6.4810" rx="0.3302" ry="0.3390" fill="none" stroke="#000000" stroke-width="0.1193" stroke-linecap="round" stroke-linejoin="round"/>
        <ellipse cx="43.0734" cy="6.4810" rx="0.2311" ry="0.2326" fill="#000000" stroke="#000000" stroke-width="0.1193" stroke-linecap="round" stroke-linejoin="round"/>
        <ellipse cx="43.0734" cy="6.4810" rx="0.2311" ry="0.2326" fill="none" stroke="#000000" stroke-width="0.1193" stroke-linecap="round" stroke-linejoin="round"/>
        <ellipse cx="43.0734" cy="6.4810" rx="0.2047" ry="0.2061" fill="#DDDDDD" stroke="#000000" stroke-width="0.1193" stroke-linecap="round" stroke-linejoin="round"/>
        <ellipse cx="43.0734" cy="6.4810" rx="0.2047" ry="0.2061" fill="none" stroke="#000000" stroke-width="0.1193" stroke-linecap="round" stroke-linejoin="round"/>
        <path d="M 53.4351,5.5681 L 53.2238,5.5681 L 53.2238,5.7809 L 53.4351,5.7809 L 53.4351,5.5681 Z" stroke="#000000" stroke-width="0.1193" stroke-linecap="round" stroke-linejoin="round" fill="none"/>
        <path d="M 53.4351,6.0179 L 53.2238,6.0179 L 53.2238,6.2307 L 53.4351,6.2307 L 53.4351,6.0179 Z" stroke="#000000" stroke-width="0.1193" stroke-linecap="round" stroke-linejoin="round" fill="none"/>
        <path d="M 53.4351,6.4678 L 53.2238,6.4678 L 53.2238,6.6805 L 53.4351,6.6805 L 53.4351,6.4678 Z" stroke="#000000" stroke-width="0.1193" stroke-linecap="round" stroke-linejoin="round" fill="none"/>
        <path d="M 53.4351,6.9176 L 53.2238,6.9176 L 53.2238,7.1304 L 53.4351,7.1304 L 53.4351,6.9176 Z" stroke="#000000" stroke-width="0.1193" stroke-linecap="round" stroke-linejoin="round" fill="none"/>
        <text font-family="Arial" fill="#FFFFFF" style="white-space:pre;" font-weight="400" text-anchor="start" x="57.4141" y="7.5590" font-size="0.0845"><![CDATA[POE PD]]></text>
      </g>
      <!--emf-blob end-->
    </g>
  </g>
</svg>
