<svg xmlns="http://www.w3.org/2000/svg" xmlns:xlink="http://www.w3.org/1999/xlink" version="1.1" width="7.6832000000" height="2.6016000000" viewBox="0 0 138.2967 46.8264">
  <title><![CDATA[FortiRPS-100 (R)]]></title>
  <g transform=" scale(4.000000) ">
    <!--converted by libvisio2svg-->
    <g transform=" translate(0.720000,0.720000) ">
      <!--emf-blob start-->
      <g transform="translate(-0.0000, -0.0000)">
        <path d="M 136.8005,0.0281 L 0.0281,0.0281 L 0.0281,12.4291 L 136.8005,12.4291 L 136.8005,0.0281 Z" stroke="#000000" stroke-width="0.1200" stroke-linecap="round" stroke-linejoin="round" fill="#EFEFEF"/>
        <path d="M 130.7267,0.0281 L 6.1019,0.0281 L 6.1019,12.4291 L 130.7267,12.4291 L 130.7267,0.0281 Z" stroke="#000000" stroke-width="0.1200" stroke-linecap="round" stroke-linejoin="round" fill="#EFEFEF"/>
        <path d="M 135.7038,1.8517 L 135.7038,1.7535 L 135.6897,1.6553 L 135.6616,1.5712 L 135.6335,1.4730 L 135.5913,1.3888 L 135.5492,1.3187 L 135.4929,1.2485 L 135.3523,1.1082 L 135.2820,1.0521 L 135.2117,1.0100 L 135.1274,0.9680 L 135.0289,0.9399 L 134.9446,0.9118 L 134.8462,0.8978 L 132.6810,0.8978 L 132.5826,0.9118 L 132.4982,0.9399 L 132.3998,0.9680 L 132.3154,1.0100 L 132.2451,1.0521 L 132.1748,1.1082 L 132.0342,1.2485 L 131.9780,1.3187 L 131.9358,1.3888 L 131.8936,1.4730 L 131.8655,1.5712 L 131.8374,1.6553 L 131.8233,1.7535 L 131.8233,1.9499 L 131.8374,2.0481 L 131.8655,2.1323 L 131.8936,2.2305 L 131.9358,2.3147 L 131.9780,2.3848 L 132.0342,2.4549 L 132.1748,2.5952 L 132.2451,2.6513 L 132.3154,2.6934 L 132.3998,2.7355 L 132.4982,2.7636 L 132.5826,2.7916 L 132.6810,2.8057 L 134.8462,2.8057 L 134.9446,2.7916 L 135.0289,2.7636 L 135.1274,2.7355 L 135.2117,2.6934 L 135.2820,2.6513 L 135.3523,2.5952 L 135.4929,2.4549 L 135.5492,2.3848 L 135.5913,2.3147 L 135.6335,2.2305 L 135.6616,2.1323 L 135.6897,2.0481 L 135.7038,1.9499 L 135.7038,1.8517 Z" stroke="#000000" stroke-width="0.1200" stroke-linecap="round" stroke-linejoin="round" fill="#FFFFFF"/>
        <path d="M 135.7038,10.6054 L 135.7038,10.5072 L 135.6897,10.4090 L 135.6616,10.3248 L 135.6335,10.2266 L 135.5913,10.1424 L 135.5492,10.0723 L 135.4929,10.0022 L 135.3523,9.8619 L 135.2820,9.8058 L 135.2117,9.7637 L 135.1274,9.7216 L 135.0289,9.6935 L 134.9446,9.6655 L 134.8462,9.6515 L 132.6810,9.6515 L 132.5826,9.6655 L 132.4982,9.6935 L 132.3998,9.7216 L 132.3154,9.7637 L 132.2451,9.8058 L 132.1748,9.8619 L 132.0342,10.0022 L 131.9780,10.0723 L 131.9358,10.1424 L 131.8936,10.2266 L 131.8655,10.3248 L 131.8374,10.4090 L 131.8233,10.5072 L 131.8233,10.7036 L 131.8374,10.8018 L 131.8655,10.8859 L 131.8936,10.9841 L 131.9358,11.0683 L 131.9780,11.1385 L 132.0342,11.2086 L 132.1748,11.3489 L 132.2451,11.4050 L 132.3154,11.4471 L 132.3998,11.4892 L 132.4982,11.5172 L 132.5826,11.5453 L 132.6810,11.5593 L 134.8462,11.5593 L 134.9446,11.5453 L 135.0289,11.5172 L 135.1274,11.4892 L 135.2117,11.4471 L 135.2820,11.4050 L 135.3523,11.3489 L 135.4929,11.2086 L 135.5492,11.1385 L 135.5913,11.0683 L 135.6335,10.9841 L 135.6616,10.8859 L 135.6897,10.8018 L 135.7038,10.7036 L 135.7038,10.6054 Z" stroke="#000000" stroke-width="0.1200" stroke-linecap="round" stroke-linejoin="round" fill="#FFFFFF"/>
        <path d="M 5.0052,1.8517 L 5.0052,1.7535 L 4.9912,1.6553 L 4.9631,1.5712 L 4.9349,1.4730 L 4.8928,1.3888 L 4.8506,1.3187 L 4.7943,1.2485 L 4.6537,1.1082 L 4.5834,1.0521 L 4.5131,1.0100 L 4.4288,0.9680 L 4.3304,0.9399 L 4.2460,0.9118 L 4.1476,0.8978 L 1.9824,0.8978 L 1.8840,0.9118 L 1.7996,0.9399 L 1.7012,0.9680 L 1.6169,1.0100 L 1.5466,1.0521 L 1.4763,1.1082 L 1.3357,1.2485 L 1.2794,1.3187 L 1.2372,1.3888 L 1.1951,1.4730 L 1.1670,1.5712 L 1.1388,1.6553 L 1.1248,1.7535 L 1.1248,1.9499 L 1.1388,2.0481 L 1.1670,2.1323 L 1.1951,2.2305 L 1.2372,2.3147 L 1.2794,2.3848 L 1.3357,2.4549 L 1.4763,2.5952 L 1.5466,2.6513 L 1.6169,2.6934 L 1.7012,2.7355 L 1.7996,2.7636 L 1.8840,2.7916 L 1.9824,2.8057 L 4.1476,2.8057 L 4.2460,2.7916 L 4.3304,2.7636 L 4.4288,2.7355 L 4.5131,2.6934 L 4.5834,2.6513 L 4.6537,2.5952 L 4.7943,2.4549 L 4.8506,2.3848 L 4.8928,2.3147 L 4.9349,2.2305 L 4.9631,2.1323 L 4.9912,2.0481 L 5.0052,1.9499 L 5.0052,1.8517 Z" stroke="#000000" stroke-width="0.1200" stroke-linecap="round" stroke-linejoin="round" fill="#FFFFFF"/>
        <path d="M 5.0052,10.6054 L 5.0052,10.5072 L 4.9912,10.4090 L 4.9631,10.3248 L 4.9349,10.2266 L 4.8928,10.1424 L 4.8506,10.0723 L 4.7943,10.0022 L 4.6537,9.8619 L 4.5834,9.8058 L 4.5131,9.7637 L 4.4288,9.7216 L 4.3304,9.6935 L 4.2460,9.6655 L 4.1476,9.6515 L 1.9824,9.6515 L 1.8840,9.6655 L 1.7996,9.6935 L 1.7012,9.7216 L 1.6169,9.7637 L 1.5466,9.8058 L 1.4763,9.8619 L 1.3357,10.0022 L 1.2794,10.0723 L 1.2372,10.1424 L 1.1951,10.2266 L 1.1670,10.3248 L 1.1388,10.4090 L 1.1248,10.5072 L 1.1248,10.7036 L 1.1388,10.8018 L 1.1670,10.8859 L 1.1951,10.9841 L 1.2372,11.0683 L 1.2794,11.1385 L 1.3357,11.2086 L 1.4763,11.3489 L 1.5466,11.4050 L 1.6169,11.4471 L 1.7012,11.4892 L 1.7996,11.5172 L 1.8840,11.5453 L 1.9824,11.5593 L 4.1476,11.5593 L 4.2460,11.5453 L 4.3304,11.5172 L 4.4288,11.4892 L 4.5131,11.4471 L 4.5834,11.4050 L 4.6537,11.3489 L 4.7943,11.2086 L 4.8506,11.1385 L 4.8928,11.0683 L 4.9349,10.9841 L 4.9631,10.8859 L 4.9912,10.8018 L 5.0052,10.7036 L 5.0052,10.6054 Z" stroke="#000000" stroke-width="0.1200" stroke-linecap="round" stroke-linejoin="round" fill="#FFFFFF"/>
        <path d="M 89.9537,0.4770 L 6.7627,0.4770 L 6.7486,0.4910 L 6.7346,0.4910 L 6.7205,0.5050 L 6.6924,0.5050 L 6.6502,0.5471 L 6.6362,0.5471 L 6.6362,0.5611 L 6.6221,0.5752 L 6.6080,0.5752 L 6.6080,0.5892 L 6.5940,0.6032 L 6.5940,0.6172 L 6.5799,0.6172 L 6.5799,0.6453 L 6.5659,0.6593 L 6.5659,0.6874 L 6.5518,0.7014 L 6.5518,12.1485 L 6.5659,12.1625 L 6.5659,12.1906 L 6.5799,12.2046 L 6.5799,12.2327 L 6.5940,12.2327 L 6.5940,12.2467 L 6.6080,12.2607 L 6.6080,12.2747 L 6.6221,12.2747 L 6.6362,12.2888 L 6.6362,12.3028 L 6.6502,12.3028 L 6.6924,12.3449 L 6.7205,12.3449 L 6.7346,12.3589 L 6.7486,12.3589 L 6.7627,12.3729 L 130.0659,12.3729 L 130.0799,12.3589 L 130.0940,12.3589 L 130.1081,12.3449 L 130.1362,12.3449 L 130.1784,12.3028 L 130.1924,12.3028 L 130.1924,12.2888 L 130.2065,12.2747 L 130.2205,12.2747 L 130.2205,12.2607 L 130.2346,12.2467 L 130.2346,12.2327 L 130.2487,12.2327 L 130.2487,12.2046 L 130.2627,12.1906 L 130.2627,12.1625 L 130.2768,12.1485 L 130.2768,0.7014 L 130.2627,0.6874 L 130.2627,0.6593 L 130.2487,0.6453 L 130.2487,0.6172 L 130.2346,0.6172 L 130.2346,0.6032 L 130.2205,0.5892 L 130.2205,0.5752 L 130.2065,0.5752 L 130.1924,0.5611 L 130.1924,0.5471 L 130.1784,0.5471 L 130.1362,0.5050 L 130.1081,0.5050 L 130.0940,0.4910 L 130.0799,0.4910 L 130.0659,0.4770 L 90.0662,0.4770 L 89.9537,0.4770 Z" stroke="#A8A6A3" stroke-width="0.1200" stroke-linecap="round" stroke-linejoin="round" fill="none"/>
        <path d="M 29.9189,1.6553 L 29.7924,1.6553 L 29.7784,1.6413 L 29.7362,1.6413 L 29.7362,1.6273 L 29.7221,1.6273 L 29.7081,1.6133 L 29.6940,1.6133 L 29.6799,1.5992 L 29.6659,1.5992 L 29.5956,1.5291 L 29.5956,1.5151 L 29.5815,1.5010 L 29.5815,1.4870 L 29.5534,1.4589 L 29.5534,1.4169 L 29.5393,1.4028 L 29.5393,0.8417 L 18.2073,0.8417 L 18.2073,12.0082 L 29.5393,12.0082 L 29.5393,11.4471 L 29.5534,11.4331 L 29.5534,11.3910 L 29.5675,11.3910 L 29.5675,11.3769 L 29.5815,11.3629 L 29.5815,11.3489 L 29.5956,11.3349 L 29.5956,11.3208 L 29.6237,11.2928 L 29.6378,11.2928 L 29.6378,11.2787 L 29.6659,11.2507 L 29.6799,11.2507 L 29.6940,11.2367 L 29.7081,11.2367 L 29.7221,11.2226 L 29.7362,11.2226 L 29.7362,11.2086 L 29.7784,11.2086 L 29.7924,11.1946 L 40.8995,11.1946 L 40.8995,1.6553 L 29.9471,1.6553 L 29.9189,1.6553 Z" stroke="#000000" stroke-width="0.1200" stroke-linecap="round" stroke-linejoin="round" fill="#DDDDDD"/>
        <ellipse cx="23.4093" cy="6.3618" rx="5.0193" ry="5.0011" fill="#000000" stroke="#000000" stroke-width="0.1200" stroke-linecap="round" stroke-linejoin="round"/>
        <ellipse cx="23.4093" cy="6.3618" rx="5.0193" ry="5.0011" fill="none" stroke="#000000" stroke-width="0.1200" stroke-linecap="round" stroke-linejoin="round"/>
        <ellipse cx="23.4023" cy="6.3618" rx="3.3251" ry="3.3177" fill="#7F7F7F" stroke="#000000" stroke-width="0.1200" stroke-linecap="round" stroke-linejoin="round"/>
        <ellipse cx="23.4023" cy="6.3618" rx="3.3251" ry="3.3177" fill="none" stroke="#000000" stroke-width="0.1200" stroke-linecap="round" stroke-linejoin="round"/>
        <ellipse cx="23.4093" cy="6.3688" rx="3.1494" ry="3.1423" fill="#CCE2CC" stroke="#000000" stroke-width="0.1200" stroke-linecap="round" stroke-linejoin="round"/>
        <ellipse cx="23.4093" cy="6.3688" rx="3.1494" ry="3.1423" fill="none" stroke="#000000" stroke-width="0.1200" stroke-linecap="round" stroke-linejoin="round"/>
        <path d="M 19.9366,2.3287 L 19.3742,2.8898 L 27.0086,10.5212 L 27.5850,9.9601 L 19.9366,2.3287 Z" stroke="#DDDDDD" stroke-width="0.1200" stroke-linecap="round" stroke-linejoin="round" fill="#DDDDDD"/>
        <path d="M 27.5710,2.9039 L 27.0086,2.3427 L 19.3601,9.9601 L 19.9225,10.5352 L 27.5710,2.9039 Z" stroke="#DDDDDD" stroke-width="0.1200" stroke-linecap="round" stroke-linejoin="round" fill="#DDDDDD"/>
        <ellipse cx="23.4093" cy="6.3688" rx="2.8260" ry="2.8197" fill="#DDDDDD" stroke="#000000" stroke-width="0.1200" stroke-linecap="round" stroke-linejoin="round"/>
        <ellipse cx="23.4093" cy="6.3688" rx="2.8260" ry="2.8197" fill="none" stroke="#DDDDDD" stroke-width="0.1200" stroke-linecap="round" stroke-linejoin="round"/>
        <ellipse cx="23.4093" cy="6.3688" rx="0.4499" ry="0.4489" fill="#CCE2CC" stroke="#000000" stroke-width="0.1200" stroke-linecap="round" stroke-linejoin="round"/>
        <ellipse cx="23.4093" cy="6.3688" rx="0.4499" ry="0.4489" fill="none" stroke="#000000" stroke-width="0.1200" stroke-linecap="round" stroke-linejoin="round"/>
        <ellipse cx="23.4093" cy="4.0612" rx="0.4499" ry="0.4419" fill="#CCE2CC" stroke="#000000" stroke-width="0.1200" stroke-linecap="round" stroke-linejoin="round"/>
        <ellipse cx="23.4093" cy="4.0612" rx="0.4499" ry="0.4419" fill="none" stroke="#000000" stroke-width="0.1200" stroke-linecap="round" stroke-linejoin="round"/>
        <ellipse cx="23.4093" cy="8.6625" rx="0.4499" ry="0.4419" fill="#CCE2CC" stroke="#000000" stroke-width="0.1200" stroke-linecap="round" stroke-linejoin="round"/>
        <ellipse cx="23.4093" cy="8.6625" rx="0.4499" ry="0.4419" fill="none" stroke="#000000" stroke-width="0.1200" stroke-linecap="round" stroke-linejoin="round"/>
        <ellipse cx="21.7784" cy="4.7416" rx="0.4499" ry="0.4489" fill="#CCE2CC" stroke="#000000" stroke-width="0.1200" stroke-linecap="round" stroke-linejoin="round"/>
        <ellipse cx="21.7784" cy="4.7416" rx="0.4499" ry="0.4489" fill="none" stroke="#000000" stroke-width="0.1200" stroke-linecap="round" stroke-linejoin="round"/>
        <ellipse cx="25.0332" cy="7.9891" rx="0.4429" ry="0.4419" fill="#CCE2CC" stroke="#000000" stroke-width="0.1200" stroke-linecap="round" stroke-linejoin="round"/>
        <ellipse cx="25.0332" cy="7.9891" rx="0.4429" ry="0.4419" fill="none" stroke="#000000" stroke-width="0.1200" stroke-linecap="round" stroke-linejoin="round"/>
        <ellipse cx="21.1035" cy="6.3688" rx="0.4499" ry="0.4489" fill="#CCE2CC" stroke="#000000" stroke-width="0.1200" stroke-linecap="round" stroke-linejoin="round"/>
        <ellipse cx="21.1035" cy="6.3688" rx="0.4499" ry="0.4489" fill="none" stroke="#000000" stroke-width="0.1200" stroke-linecap="round" stroke-linejoin="round"/>
        <ellipse cx="25.7081" cy="6.3688" rx="0.4429" ry="0.4489" fill="#CCE2CC" stroke="#000000" stroke-width="0.1200" stroke-linecap="round" stroke-linejoin="round"/>
        <ellipse cx="25.7081" cy="6.3688" rx="0.4429" ry="0.4489" fill="none" stroke="#000000" stroke-width="0.1200" stroke-linecap="round" stroke-linejoin="round"/>
        <ellipse cx="21.7784" cy="7.9891" rx="0.4499" ry="0.4419" fill="#CCE2CC" stroke="#000000" stroke-width="0.1200" stroke-linecap="round" stroke-linejoin="round"/>
        <ellipse cx="21.7784" cy="7.9891" rx="0.4499" ry="0.4419" fill="none" stroke="#000000" stroke-width="0.1200" stroke-linecap="round" stroke-linejoin="round"/>
        <ellipse cx="25.0332" cy="4.7416" rx="0.4429" ry="0.4489" fill="#CCE2CC" stroke="#000000" stroke-width="0.1200" stroke-linecap="round" stroke-linejoin="round"/>
        <ellipse cx="25.0332" cy="4.7416" rx="0.4429" ry="0.4489" fill="none" stroke="#000000" stroke-width="0.1200" stroke-linecap="round" stroke-linejoin="round"/>
        <path d="M 107.6407,1.6553 L 107.5142,1.6553 L 107.5001,1.6413 L 107.4580,1.6413 L 107.4580,1.6273 L 107.4439,1.6273 L 107.4298,1.6133 L 107.4158,1.6133 L 107.4017,1.5992 L 107.3877,1.5992 L 107.3174,1.5291 L 107.3174,1.5151 L 107.3033,1.5010 L 107.3033,1.4870 L 107.2752,1.4589 L 107.2752,1.4169 L 107.2611,1.4028 L 107.2611,0.8417 L 95.9290,0.8417 L 95.9290,12.0082 L 107.2611,12.0082 L 107.2611,11.4471 L 107.2752,11.4331 L 107.2752,11.3910 L 107.2892,11.3910 L 107.2892,11.3769 L 107.3033,11.3629 L 107.3033,11.3489 L 107.3174,11.3349 L 107.3174,11.3208 L 107.3455,11.2928 L 107.3595,11.2928 L 107.3595,11.2787 L 107.3877,11.2507 L 107.4017,11.2507 L 107.4158,11.2367 L 107.4298,11.2367 L 107.4439,11.2226 L 107.4580,11.2226 L 107.4580,11.2086 L 107.5001,11.2086 L 107.5142,11.1946 L 118.6213,11.1946 L 118.6213,1.6553 L 107.6689,1.6553 L 107.6407,1.6553 Z" stroke="#000000" stroke-width="0.1200" stroke-linecap="round" stroke-linejoin="round" fill="#DDDDDD"/>
        <ellipse cx="101.1311" cy="6.3618" rx="5.0193" ry="5.0011" fill="#000000" stroke="#000000" stroke-width="0.1200" stroke-linecap="round" stroke-linejoin="round"/>
        <ellipse cx="101.1311" cy="6.3618" rx="5.0193" ry="5.0011" fill="none" stroke="#000000" stroke-width="0.1200" stroke-linecap="round" stroke-linejoin="round"/>
        <ellipse cx="101.1311" cy="6.3618" rx="3.3321" ry="3.3177" fill="#7F7F7F" stroke="#000000" stroke-width="0.1200" stroke-linecap="round" stroke-linejoin="round"/>
        <ellipse cx="101.1311" cy="6.3618" rx="3.3321" ry="3.3177" fill="none" stroke="#000000" stroke-width="0.1200" stroke-linecap="round" stroke-linejoin="round"/>
        <ellipse cx="101.1241" cy="6.3688" rx="3.1423" ry="3.1423" fill="#CCE2CC" stroke="#000000" stroke-width="0.1200" stroke-linecap="round" stroke-linejoin="round"/>
        <ellipse cx="101.1241" cy="6.3688" rx="3.1423" ry="3.1423" fill="none" stroke="#000000" stroke-width="0.1200" stroke-linecap="round" stroke-linejoin="round"/>
        <path d="M 97.6584,2.3287 L 97.0960,2.8898 L 104.7304,10.5212 L 105.3068,9.9601 L 97.6584,2.3287 Z" stroke="#DDDDDD" stroke-width="0.1200" stroke-linecap="round" stroke-linejoin="round" fill="#DDDDDD"/>
        <path d="M 105.2928,2.9039 L 104.7304,2.3427 L 97.0819,9.9601 L 97.6443,10.5352 L 105.2928,2.9039 Z" stroke="#DDDDDD" stroke-width="0.1200" stroke-linecap="round" stroke-linejoin="round" fill="#DDDDDD"/>
        <ellipse cx="101.1241" cy="6.3688" rx="2.8190" ry="2.8197" fill="#DDDDDD" stroke="#000000" stroke-width="0.1200" stroke-linecap="round" stroke-linejoin="round"/>
        <ellipse cx="101.1241" cy="6.3688" rx="2.8190" ry="2.8197" fill="none" stroke="#DDDDDD" stroke-width="0.1200" stroke-linecap="round" stroke-linejoin="round"/>
        <ellipse cx="101.1311" cy="6.3688" rx="0.4499" ry="0.4489" fill="#CCE2CC" stroke="#000000" stroke-width="0.1200" stroke-linecap="round" stroke-linejoin="round"/>
        <ellipse cx="101.1311" cy="6.3688" rx="0.4499" ry="0.4489" fill="none" stroke="#000000" stroke-width="0.1200" stroke-linecap="round" stroke-linejoin="round"/>
        <ellipse cx="101.1311" cy="4.0612" rx="0.4499" ry="0.4419" fill="#CCE2CC" stroke="#000000" stroke-width="0.1200" stroke-linecap="round" stroke-linejoin="round"/>
        <ellipse cx="101.1311" cy="4.0612" rx="0.4499" ry="0.4419" fill="none" stroke="#000000" stroke-width="0.1200" stroke-linecap="round" stroke-linejoin="round"/>
        <ellipse cx="101.1311" cy="8.6625" rx="0.4499" ry="0.4419" fill="#CCE2CC" stroke="#000000" stroke-width="0.1200" stroke-linecap="round" stroke-linejoin="round"/>
        <ellipse cx="101.1311" cy="8.6625" rx="0.4499" ry="0.4419" fill="none" stroke="#000000" stroke-width="0.1200" stroke-linecap="round" stroke-linejoin="round"/>
        <ellipse cx="99.4932" cy="4.7416" rx="0.4429" ry="0.4489" fill="#CCE2CC" stroke="#000000" stroke-width="0.1200" stroke-linecap="round" stroke-linejoin="round"/>
        <ellipse cx="99.4932" cy="4.7416" rx="0.4429" ry="0.4489" fill="none" stroke="#000000" stroke-width="0.1200" stroke-linecap="round" stroke-linejoin="round"/>
        <ellipse cx="102.7620" cy="7.9891" rx="0.4499" ry="0.4419" fill="#CCE2CC" stroke="#000000" stroke-width="0.1200" stroke-linecap="round" stroke-linejoin="round"/>
        <ellipse cx="102.7620" cy="7.9891" rx="0.4499" ry="0.4419" fill="none" stroke="#000000" stroke-width="0.1200" stroke-linecap="round" stroke-linejoin="round"/>
        <ellipse cx="98.8183" cy="6.3688" rx="0.4429" ry="0.4489" fill="#CCE2CC" stroke="#000000" stroke-width="0.1200" stroke-linecap="round" stroke-linejoin="round"/>
        <ellipse cx="98.8183" cy="6.3688" rx="0.4429" ry="0.4489" fill="none" stroke="#000000" stroke-width="0.1200" stroke-linecap="round" stroke-linejoin="round"/>
        <ellipse cx="103.4369" cy="6.3688" rx="0.4499" ry="0.4489" fill="#CCE2CC" stroke="#000000" stroke-width="0.1200" stroke-linecap="round" stroke-linejoin="round"/>
        <ellipse cx="103.4369" cy="6.3688" rx="0.4499" ry="0.4489" fill="none" stroke="#000000" stroke-width="0.1200" stroke-linecap="round" stroke-linejoin="round"/>
        <ellipse cx="99.4932" cy="7.9891" rx="0.4429" ry="0.4419" fill="#CCE2CC" stroke="#000000" stroke-width="0.1200" stroke-linecap="round" stroke-linejoin="round"/>
        <ellipse cx="99.4932" cy="7.9891" rx="0.4429" ry="0.4419" fill="none" stroke="#000000" stroke-width="0.1200" stroke-linecap="round" stroke-linejoin="round"/>
        <ellipse cx="102.7620" cy="4.7416" rx="0.4499" ry="0.4489" fill="#CCE2CC" stroke="#000000" stroke-width="0.1200" stroke-linecap="round" stroke-linejoin="round"/>
        <ellipse cx="102.7620" cy="4.7416" rx="0.4499" ry="0.4489" fill="none" stroke="#000000" stroke-width="0.1200" stroke-linecap="round" stroke-linejoin="round"/>
        <ellipse cx="16.7730" cy="6.3553" rx="0.7376" ry="0.7370" fill="#999999" stroke="#000000" stroke-width="0.1200" stroke-linecap="round" stroke-linejoin="round"/>
        <ellipse cx="16.7730" cy="6.3553" rx="0.7376" ry="0.7370" fill="none" stroke="#000000" stroke-width="0.1200" stroke-linecap="round" stroke-linejoin="round"/>
        <ellipse cx="16.7730" cy="6.3553" rx="0.5467" ry="0.5462" fill="#666666" stroke="#000000" stroke-width="0.1200" stroke-linecap="round" stroke-linejoin="round"/>
        <ellipse cx="16.7730" cy="6.3553" rx="0.5467" ry="0.5462" fill="none" stroke="#000000" stroke-width="0.1200" stroke-linecap="round" stroke-linejoin="round"/>
        <ellipse cx="16.7730" cy="6.3553" rx="0.4946" ry="0.4942" fill="#7F7F7F" stroke="#000000" stroke-width="0.1200" stroke-linecap="round" stroke-linejoin="round"/>
        <ellipse cx="16.7730" cy="6.3553" rx="0.4946" ry="0.4942" fill="none" stroke="#7F7F7F" stroke-width="0.1200" stroke-linecap="round" stroke-linejoin="round"/>
        <path d="M 16.3999,6.3293 L 16.3825,6.3293 L 16.3652,6.3466 L 16.3652,6.3640 L 16.3478,6.3640 L 16.3478,6.4680 L 16.3652,6.4680 L 16.3652,6.4854 L 16.3825,6.5027 L 16.7470,6.5027 L 16.7470,6.8842 L 16.7643,6.8842 L 16.7643,6.9015 L 16.7817,6.9015 L 16.7817,6.9189 L 16.8858,6.9189 L 16.8858,6.9015 L 16.9032,6.9015 L 16.9032,6.8842 L 16.9205,6.8842 L 16.9205,6.5027 L 17.3023,6.5027 L 17.3023,6.4854 L 17.3197,6.4854 L 17.3197,6.4680 L 17.3370,6.4680 L 17.3370,6.3640 L 17.3197,6.3640 L 17.3197,6.3466 L 17.3023,6.3466 L 17.3023,6.3293 L 16.9205,6.3293 L 16.9205,5.9651 L 16.9032,5.9478 L 16.8858,5.9478 L 16.8858,5.9305 L 16.7817,5.9305 L 16.7817,5.9478 L 16.7643,5.9478 L 16.7470,5.9651 L 16.7470,6.3293 L 16.4173,6.3293 L 16.3999,6.3293 Z" stroke="#161616" stroke-width="0.1200" stroke-linecap="round" stroke-linejoin="round" fill="#494949"/>
        <path d="M 16.3305,6.3813 L 16.3305,6.4680 L 16.3478,6.4854 L 16.3652,6.4854 L 16.3652,6.5027 L 16.7470,6.5027 L 16.7470,6.9015 L 16.7643,6.9189 L 16.7817,6.9189 L 16.7817,6.9362 L 16.8338,6.9362 L 16.8511,6.9362 " stroke="#BFBFBF" stroke-width="0.1200" stroke-linecap="round" stroke-linejoin="round" fill="none"/>
        <path d="M 16.7470,5.9651 L 16.7470,6.3119 L 16.7470,6.3293 " stroke="#BFBFBF" stroke-width="0.1200" stroke-linecap="round" stroke-linejoin="round" fill="none"/>
        <path d="M 30.1182,2.0280 L 29.9723,2.0492 L 29.8508,2.0703 L 29.7293,2.1337 L 29.5348,2.3027 L 29.4619,2.4083 L 29.4376,2.5139 L 29.4133,2.6407 L 29.4133,10.2036 L 29.4376,10.3304 L 29.4619,10.4360 L 29.5348,10.5416 L 29.6320,10.6473 L 29.7293,10.7106 L 29.8508,10.7740 L 29.9723,10.7951 L 30.1182,10.8163 L 35.4661,10.8163 L 35.6119,10.7951 L 35.7335,10.7740 L 35.9765,10.6473 L 36.1224,10.4360 L 36.1467,10.3304 L 36.1710,10.2036 L 36.1710,2.6407 L 36.1467,2.5139 L 36.1224,2.4083 L 36.0495,2.3027 L 35.9765,2.2182 L 35.8550,2.1337 L 35.7335,2.0703 L 35.6119,2.0492 L 35.4661,2.0280 L 30.1182,2.0280 Z" stroke="#0A0A0A" stroke-width="0.1200" stroke-linecap="round" stroke-linejoin="round" fill="#7F7F7F"/>
        <path d="M 40.3720,3.9905 L 36.7927,3.9905 L 36.7927,8.8107 L 40.3720,8.8107 L 40.3720,3.9905 Z" stroke="#000000" stroke-width="0.1200" stroke-linecap="round" stroke-linejoin="round" fill="#000000"/>
        <path d="M 40.0641,4.4251 L 37.0621,4.4251 L 37.0621,8.3761 L 40.0641,8.3761 L 40.0641,4.4251 Z" stroke="#7F7F7F" stroke-width="0.1200" stroke-linecap="round" stroke-linejoin="round" fill="#333333"/>
        <path d="M 38.5631,7.9020 L 38.5631,7.1908 " stroke="#FFFFFF" stroke-width="0.1200" stroke-linecap="round" stroke-linejoin="round" fill="none"/>
        <ellipse cx="38.5054" cy="5.1956" rx="0.4041" ry="0.4149" fill="none" stroke="#FFFFFF" stroke-width="0.1200" stroke-linecap="round" stroke-linejoin="round"/>
        <ellipse cx="42.1972" cy="6.3553" rx="0.7376" ry="0.7370" fill="#999999" stroke="#000000" stroke-width="0.1200" stroke-linecap="round" stroke-linejoin="round"/>
        <ellipse cx="42.1972" cy="6.3553" rx="0.7376" ry="0.7370" fill="none" stroke="#000000" stroke-width="0.1200" stroke-linecap="round" stroke-linejoin="round"/>
        <ellipse cx="42.1972" cy="6.3553" rx="0.5467" ry="0.5462" fill="#666666" stroke="#000000" stroke-width="0.1200" stroke-linecap="round" stroke-linejoin="round"/>
        <ellipse cx="42.1972" cy="6.3553" rx="0.5467" ry="0.5462" fill="none" stroke="#000000" stroke-width="0.1200" stroke-linecap="round" stroke-linejoin="round"/>
        <ellipse cx="42.1972" cy="6.3553" rx="0.4946" ry="0.4942" fill="#7F7F7F" stroke="#000000" stroke-width="0.1200" stroke-linecap="round" stroke-linejoin="round"/>
        <ellipse cx="42.1972" cy="6.3553" rx="0.4946" ry="0.4942" fill="none" stroke="#7F7F7F" stroke-width="0.1200" stroke-linecap="round" stroke-linejoin="round"/>
        <path d="M 41.8241,6.3293 L 41.8067,6.3293 L 41.7894,6.3466 L 41.7894,6.3640 L 41.7720,6.3640 L 41.7720,6.4680 L 41.7894,6.4680 L 41.7894,6.4854 L 41.8067,6.5027 L 42.1712,6.5027 L 42.1712,6.8842 L 42.1885,6.8842 L 42.1885,6.9015 L 42.2059,6.9015 L 42.2059,6.9189 L 42.3100,6.9189 L 42.3100,6.9015 L 42.3274,6.9015 L 42.3274,6.8842 L 42.3447,6.8842 L 42.3447,6.5027 L 42.7265,6.5027 L 42.7265,6.4854 L 42.7439,6.4854 L 42.7439,6.4680 L 42.7612,6.4680 L 42.7612,6.3640 L 42.7439,6.3640 L 42.7439,6.3466 L 42.7265,6.3466 L 42.7265,6.3293 L 42.3447,6.3293 L 42.3447,5.9651 L 42.3274,5.9478 L 42.3100,5.9478 L 42.3100,5.9305 L 42.2059,5.9305 L 42.2059,5.9478 L 42.1885,5.9478 L 42.1712,5.9651 L 42.1712,6.3293 L 41.8414,6.3293 L 41.8241,6.3293 Z" stroke="#161616" stroke-width="0.1200" stroke-linecap="round" stroke-linejoin="round" fill="#494949"/>
        <path d="M 41.7547,6.3813 L 41.7547,6.4680 L 41.7720,6.4854 L 41.7894,6.4854 L 41.7894,6.5027 L 42.1712,6.5027 L 42.1712,6.9015 L 42.1885,6.9189 L 42.2059,6.9189 L 42.2059,6.9362 L 42.2579,6.9362 L 42.2753,6.9362 " stroke="#BFBFBF" stroke-width="0.1200" stroke-linecap="round" stroke-linejoin="round" fill="none"/>
        <path d="M 42.1712,5.9651 L 42.1712,6.3119 L 42.1712,6.3293 " stroke="#BFBFBF" stroke-width="0.1200" stroke-linecap="round" stroke-linejoin="round" fill="none"/>
        <path d="M 9.8650,4.0047 L 8.1002,4.0047 L 8.1002,8.5590 L 9.8650,8.5590 L 9.8650,4.0047 Z" stroke="#000000" stroke-width="0.1200" stroke-linecap="round" stroke-linejoin="round" fill="#EFEFEF"/>
        <ellipse cx="8.9437" cy="4.9019" rx="0.9006" ry="0.9008" fill="#999999" stroke="#000000" stroke-width="0.1200" stroke-linecap="round" stroke-linejoin="round"/>
        <ellipse cx="8.9437" cy="4.9019" rx="0.9006" ry="0.9008" fill="none" stroke="#000000" stroke-width="0.1200" stroke-linecap="round" stroke-linejoin="round"/>
        <ellipse cx="8.9437" cy="4.9019" rx="0.6703" ry="0.6703" fill="#666666" stroke="#000000" stroke-width="0.1200" stroke-linecap="round" stroke-linejoin="round"/>
        <ellipse cx="8.9437" cy="4.9019" rx="0.6703" ry="0.6703" fill="none" stroke="#000000" stroke-width="0.1200" stroke-linecap="round" stroke-linejoin="round"/>
        <ellipse cx="8.9437" cy="4.9019" rx="0.6074" ry="0.6075" fill="#7F7F7F" stroke="#000000" stroke-width="0.1200" stroke-linecap="round" stroke-linejoin="round"/>
        <ellipse cx="8.9437" cy="4.9019" rx="0.6074" ry="0.6075" fill="none" stroke="#7F7F7F" stroke-width="0.1200" stroke-linecap="round" stroke-linejoin="round"/>
        <path d="M 8.4829,4.8600 L 8.4619,4.8600 L 8.4410,4.8809 L 8.4410,4.9019 L 8.4200,4.9019 L 8.4200,5.0276 L 8.4410,5.0276 L 8.4410,5.0485 L 8.4619,5.0695 L 8.9018,5.0695 L 8.9018,5.5303 L 8.9227,5.5303 L 8.9227,5.5513 L 8.9437,5.5513 L 8.9437,5.5722 L 9.0693,5.5722 L 9.0693,5.5513 L 9.0903,5.5513 L 9.0903,5.5303 L 9.1112,5.5303 L 9.1112,5.0695 L 9.5720,5.0695 L 9.5720,5.0485 L 9.5930,5.0485 L 9.5930,5.0276 L 9.6139,5.0276 L 9.6139,4.9019 L 9.5930,4.9019 L 9.5930,4.8809 L 9.5720,4.8809 L 9.5720,4.8600 L 9.1112,4.8600 L 9.1112,4.4201 L 9.0903,4.3991 L 9.0693,4.3991 L 9.0693,4.3782 L 8.9437,4.3782 L 8.9437,4.3991 L 8.9227,4.3991 L 8.9018,4.4201 L 8.9018,4.8600 L 8.5038,4.8600 L 8.4829,4.8600 Z" stroke="#161616" stroke-width="0.1200" stroke-linecap="round" stroke-linejoin="round" fill="#494949"/>
        <path d="M 8.3991,4.9228 L 8.3991,5.0276 L 8.4200,5.0485 L 8.4410,5.0485 L 8.4410,5.0695 L 8.9018,5.0695 L 8.9018,5.5513 L 8.9227,5.5722 L 8.9437,5.5722 L 8.9437,5.5932 L 9.0065,5.5932 L 9.0274,5.5932 " stroke="#BFBFBF" stroke-width="0.1200" stroke-linecap="round" stroke-linejoin="round" fill="none"/>
        <path d="M 8.9018,4.4201 L 8.9018,4.8391 L 8.9018,4.8600 " stroke="#BFBFBF" stroke-width="0.1200" stroke-linecap="round" stroke-linejoin="round" fill="none"/>
        <ellipse cx="8.9437" cy="7.7718" rx="0.9006" ry="0.9008" fill="#999999" stroke="#000000" stroke-width="0.1200" stroke-linecap="round" stroke-linejoin="round"/>
        <ellipse cx="8.9437" cy="7.7718" rx="0.9006" ry="0.9008" fill="none" stroke="#000000" stroke-width="0.1200" stroke-linecap="round" stroke-linejoin="round"/>
        <ellipse cx="8.9437" cy="7.7718" rx="0.6703" ry="0.6703" fill="#666666" stroke="#000000" stroke-width="0.1200" stroke-linecap="round" stroke-linejoin="round"/>
        <ellipse cx="8.9437" cy="7.7718" rx="0.6703" ry="0.6703" fill="none" stroke="#000000" stroke-width="0.1200" stroke-linecap="round" stroke-linejoin="round"/>
        <ellipse cx="8.9437" cy="7.7718" rx="0.6074" ry="0.6075" fill="#7F7F7F" stroke="#000000" stroke-width="0.1200" stroke-linecap="round" stroke-linejoin="round"/>
        <ellipse cx="8.9437" cy="7.7718" rx="0.6074" ry="0.6075" fill="none" stroke="#7F7F7F" stroke-width="0.1200" stroke-linecap="round" stroke-linejoin="round"/>
        <path d="M 8.4829,7.7299 L 8.4619,7.7299 L 8.4410,7.7509 L 8.4410,7.7718 L 8.4200,7.7718 L 8.4200,7.8975 L 8.4410,7.8975 L 8.4410,7.9184 L 8.4619,7.9394 L 8.9018,7.9394 L 8.9018,8.4003 L 8.9227,8.4003 L 8.9227,8.4212 L 8.9437,8.4212 L 8.9437,8.4422 L 9.0693,8.4422 L 9.0693,8.4212 L 9.0903,8.4212 L 9.0903,8.4003 L 9.1112,8.4003 L 9.1112,7.9394 L 9.5720,7.9394 L 9.5720,7.9184 L 9.5930,7.9184 L 9.5930,7.8975 L 9.6139,7.8975 L 9.6139,7.7718 L 9.5930,7.7718 L 9.5930,7.7509 L 9.5720,7.7509 L 9.5720,7.7299 L 9.1112,7.7299 L 9.1112,7.2900 L 9.0903,7.2691 L 9.0693,7.2691 L 9.0693,7.2481 L 8.9437,7.2481 L 8.9437,7.2691 L 8.9227,7.2691 L 8.9018,7.2900 L 8.9018,7.7299 L 8.5038,7.7299 L 8.4829,7.7299 Z" stroke="#161616" stroke-width="0.1200" stroke-linecap="round" stroke-linejoin="round" fill="#494949"/>
        <path d="M 8.3991,7.7928 L 8.3991,7.8975 L 8.4200,7.9184 L 8.4410,7.9184 L 8.4410,7.9394 L 8.9018,7.9394 L 8.9018,8.4212 L 8.9227,8.4422 L 8.9437,8.4422 L 8.9437,8.4631 L 9.0065,8.4631 L 9.0274,8.4631 " stroke="#BFBFBF" stroke-width="0.1200" stroke-linecap="round" stroke-linejoin="round" fill="none"/>
        <path d="M 8.9018,7.2900 L 8.9018,7.7090 L 8.9018,7.7299 " stroke="#BFBFBF" stroke-width="0.1200" stroke-linecap="round" stroke-linejoin="round" fill="none"/>
        <path d="M 8.9938,9.3917 L 8.9938,10.5712 " stroke="#000000" stroke-width="0.1200" stroke-linecap="round" stroke-linejoin="round" fill="none"/>
        <path d="M 8.1449,10.8160 L 9.8427,10.8160 " stroke="#000000" stroke-width="0.1200" stroke-linecap="round" stroke-linejoin="round" fill="none"/>
        <path d="M 8.4202,11.0831 L 9.5903,11.0831 " stroke="#000000" stroke-width="0.1200" stroke-linecap="round" stroke-linejoin="round" fill="none"/>
        <path d="M 8.4202,11.0831 L 9.5903,11.0831 " stroke="#000000" stroke-width="0.1200" stroke-linecap="round" stroke-linejoin="round" fill="none"/>
        <path d="M 8.7184,11.3724 L 9.2691,11.3724 " stroke="#000000" stroke-width="0.1200" stroke-linecap="round" stroke-linejoin="round" fill="none"/>
        <ellipse cx="94.5033" cy="6.3553" rx="0.7376" ry="0.7370" fill="#999999" stroke="#000000" stroke-width="0.1200" stroke-linecap="round" stroke-linejoin="round"/>
        <ellipse cx="94.5033" cy="6.3553" rx="0.7376" ry="0.7370" fill="none" stroke="#000000" stroke-width="0.1200" stroke-linecap="round" stroke-linejoin="round"/>
        <ellipse cx="94.5033" cy="6.3553" rx="0.5467" ry="0.5462" fill="#666666" stroke="#000000" stroke-width="0.1200" stroke-linecap="round" stroke-linejoin="round"/>
        <ellipse cx="94.5033" cy="6.3553" rx="0.5467" ry="0.5462" fill="none" stroke="#000000" stroke-width="0.1200" stroke-linecap="round" stroke-linejoin="round"/>
        <ellipse cx="94.5033" cy="6.3553" rx="0.4946" ry="0.4942" fill="#7F7F7F" stroke="#000000" stroke-width="0.1200" stroke-linecap="round" stroke-linejoin="round"/>
        <ellipse cx="94.5033" cy="6.3553" rx="0.4946" ry="0.4942" fill="none" stroke="#7F7F7F" stroke-width="0.1200" stroke-linecap="round" stroke-linejoin="round"/>
        <path d="M 94.1302,6.3293 L 94.1128,6.3293 L 94.0955,6.3466 L 94.0955,6.3640 L 94.0781,6.3640 L 94.0781,6.4680 L 94.0955,6.4680 L 94.0955,6.4854 L 94.1128,6.5027 L 94.4773,6.5027 L 94.4773,6.8842 L 94.4946,6.8842 L 94.4946,6.9015 L 94.5120,6.9015 L 94.5120,6.9189 L 94.6161,6.9189 L 94.6161,6.9015 L 94.6335,6.9015 L 94.6335,6.8842 L 94.6508,6.8842 L 94.6508,6.5027 L 95.0326,6.5027 L 95.0326,6.4854 L 95.0500,6.4854 L 95.0500,6.4680 L 95.0673,6.4680 L 95.0673,6.3640 L 95.0500,6.3640 L 95.0500,6.3466 L 95.0326,6.3466 L 95.0326,6.3293 L 94.6508,6.3293 L 94.6508,5.9651 L 94.6335,5.9478 L 94.6161,5.9478 L 94.6161,5.9305 L 94.5120,5.9305 L 94.5120,5.9478 L 94.4946,5.9478 L 94.4773,5.9651 L 94.4773,6.3293 L 94.1476,6.3293 L 94.1302,6.3293 Z" stroke="#161616" stroke-width="0.1200" stroke-linecap="round" stroke-linejoin="round" fill="#494949"/>
        <path d="M 94.0608,6.3813 L 94.0608,6.4680 L 94.0781,6.4854 L 94.0955,6.4854 L 94.0955,6.5027 L 94.4773,6.5027 L 94.4773,6.9015 L 94.4946,6.9189 L 94.5120,6.9189 L 94.5120,6.9362 L 94.5641,6.9362 L 94.5814,6.9362 " stroke="#BFBFBF" stroke-width="0.1200" stroke-linecap="round" stroke-linejoin="round" fill="none"/>
        <path d="M 94.4773,5.9651 L 94.4773,6.3119 L 94.4773,6.3293 " stroke="#BFBFBF" stroke-width="0.1200" stroke-linecap="round" stroke-linejoin="round" fill="none"/>
        <path d="M 107.8567,2.0280 L 107.7108,2.0492 L 107.5893,2.0703 L 107.4678,2.1337 L 107.2733,2.3027 L 107.2004,2.4083 L 107.1761,2.5139 L 107.1517,2.6407 L 107.1517,10.2036 L 107.1761,10.3304 L 107.2004,10.4360 L 107.2733,10.5416 L 107.3705,10.6473 L 107.4678,10.7106 L 107.5893,10.7740 L 107.7108,10.7951 L 107.8567,10.8163 L 113.2046,10.8163 L 113.3504,10.7951 L 113.4719,10.7740 L 113.7150,10.6473 L 113.8609,10.4360 L 113.8852,10.3304 L 113.9095,10.2036 L 113.9095,2.6407 L 113.8852,2.5139 L 113.8609,2.4083 L 113.7880,2.3027 L 113.7150,2.2182 L 113.5935,2.1337 L 113.4719,2.0703 L 113.3504,2.0492 L 113.2046,2.0280 L 107.8567,2.0280 Z" stroke="#0A0A0A" stroke-width="0.1200" stroke-linecap="round" stroke-linejoin="round" fill="#7F7F7F"/>
        <path d="M 118.1140,3.9905 L 114.5347,3.9905 L 114.5347,8.8107 L 118.1140,8.8107 L 118.1140,3.9905 Z" stroke="#000000" stroke-width="0.1200" stroke-linecap="round" stroke-linejoin="round" fill="#000000"/>
        <path d="M 117.8061,4.4251 L 114.8041,4.4251 L 114.8041,8.3761 L 117.8061,8.3761 L 117.8061,4.4251 Z" stroke="#7F7F7F" stroke-width="0.1200" stroke-linecap="round" stroke-linejoin="round" fill="#333333"/>
        <path d="M 116.3051,7.9020 L 116.3051,7.1908 " stroke="#FFFFFF" stroke-width="0.1200" stroke-linecap="round" stroke-linejoin="round" fill="none"/>
        <ellipse cx="116.2474" cy="5.1956" rx="0.4041" ry="0.4149" fill="none" stroke="#FFFFFF" stroke-width="0.1200" stroke-linecap="round" stroke-linejoin="round"/>
        <ellipse cx="119.9275" cy="6.3553" rx="0.7376" ry="0.7370" fill="#999999" stroke="#000000" stroke-width="0.1200" stroke-linecap="round" stroke-linejoin="round"/>
        <ellipse cx="119.9275" cy="6.3553" rx="0.7376" ry="0.7370" fill="none" stroke="#000000" stroke-width="0.1200" stroke-linecap="round" stroke-linejoin="round"/>
        <ellipse cx="119.9275" cy="6.3553" rx="0.5467" ry="0.5462" fill="#666666" stroke="#000000" stroke-width="0.1200" stroke-linecap="round" stroke-linejoin="round"/>
        <ellipse cx="119.9275" cy="6.3553" rx="0.5467" ry="0.5462" fill="none" stroke="#000000" stroke-width="0.1200" stroke-linecap="round" stroke-linejoin="round"/>
        <ellipse cx="119.9275" cy="6.3553" rx="0.4946" ry="0.4942" fill="#7F7F7F" stroke="#000000" stroke-width="0.1200" stroke-linecap="round" stroke-linejoin="round"/>
        <ellipse cx="119.9275" cy="6.3553" rx="0.4946" ry="0.4942" fill="none" stroke="#7F7F7F" stroke-width="0.1200" stroke-linecap="round" stroke-linejoin="round"/>
        <path d="M 119.5544,6.3293 L 119.5370,6.3293 L 119.5197,6.3466 L 119.5197,6.3640 L 119.5023,6.3640 L 119.5023,6.4680 L 119.5197,6.4680 L 119.5197,6.4854 L 119.5370,6.5027 L 119.9015,6.5027 L 119.9015,6.8842 L 119.9188,6.8842 L 119.9188,6.9015 L 119.9362,6.9015 L 119.9362,6.9189 L 120.0403,6.9189 L 120.0403,6.9015 L 120.0577,6.9015 L 120.0577,6.8842 L 120.0750,6.8842 L 120.0750,6.5027 L 120.4568,6.5027 L 120.4568,6.4854 L 120.4742,6.4854 L 120.4742,6.4680 L 120.4915,6.4680 L 120.4915,6.3640 L 120.4742,6.3640 L 120.4742,6.3466 L 120.4568,6.3466 L 120.4568,6.3293 L 120.0750,6.3293 L 120.0750,5.9651 L 120.0577,5.9478 L 120.0403,5.9478 L 120.0403,5.9305 L 119.9362,5.9305 L 119.9362,5.9478 L 119.9188,5.9478 L 119.9015,5.9651 L 119.9015,6.3293 L 119.5717,6.3293 L 119.5544,6.3293 Z" stroke="#161616" stroke-width="0.1200" stroke-linecap="round" stroke-linejoin="round" fill="#494949"/>
        <path d="M 119.4850,6.3813 L 119.4850,6.4680 L 119.5023,6.4854 L 119.5197,6.4854 L 119.5197,6.5027 L 119.9015,6.5027 L 119.9015,6.9015 L 119.9188,6.9189 L 119.9362,6.9189 L 119.9362,6.9362 L 119.9882,6.9362 L 120.0056,6.9362 " stroke="#BFBFBF" stroke-width="0.1200" stroke-linecap="round" stroke-linejoin="round" fill="none"/>
        <path d="M 119.9015,5.9651 L 119.9015,6.3119 L 119.9015,6.3293 " stroke="#BFBFBF" stroke-width="0.1200" stroke-linecap="round" stroke-linejoin="round" fill="none"/>
        <text font-family="Arial" fill="#000000" style="white-space:pre;" font-weight="400" text-anchor="start" x="134.0626" y="9.7074" font-size="0.2083"><![CDATA[AC Input 2]]></text>
        <text font-family="Arial" fill="#000000" style="white-space:pre;" font-weight="400" text-anchor="start" x="134.0626" y="10.0022" font-size="0.2083"><![CDATA[100-240V AC]]></text>
        <text font-family="Arial" fill="#000000" style="white-space:pre;" font-weight="400" text-anchor="start" x="134.0626" y="10.2969" font-size="0.2083"><![CDATA[50-60Hz 5-2.5A]]></text>
        <text font-family="Arial" fill="#000000" style="white-space:pre;" font-weight="400" text-anchor="start" x="158.0464" y="9.7074" font-size="0.2083"><![CDATA[AC Input 1]]></text>
        <text font-family="Arial" fill="#000000" style="white-space:pre;" font-weight="400" text-anchor="start" x="158.0464" y="10.0022" font-size="0.2083"><![CDATA[100-240V AC]]></text>
        <text font-family="Arial" fill="#000000" style="white-space:pre;" font-weight="400" text-anchor="start" x="158.0464" y="10.2969" font-size="0.2083"><![CDATA[50-60Hz 5-2.5A]]></text>
        <text font-family="Arial" fill="#000000" style="white-space:pre;" font-weight="400" text-anchor="start" x="137.0302" y="8.2681" font-size="0.2083"><![CDATA[DC Output 2-2]]></text>
        <text font-family="Arial" fill="#000000" style="white-space:pre;" font-weight="400" text-anchor="start" x="137.4294" y="10.2969" font-size="0.2083"><![CDATA[11.5A]]></text>
        <text font-family="Arial" fill="#000000" style="white-space:pre;" font-weight="400" text-anchor="start" x="140.1367" y="8.2681" font-size="0.2083"><![CDATA[DC Output 2-1]]></text>
        <text font-family="Arial" fill="#000000" style="white-space:pre;" font-weight="400" text-anchor="start" x="140.5358" y="10.2969" font-size="0.2083"><![CDATA[11.5A]]></text>
        <text font-family="Arial" fill="#000000" style="white-space:pre;" font-weight="400" text-anchor="start" x="143.2605" y="8.2681" font-size="0.2083"><![CDATA[DC Output 1-2]]></text>
        <text font-family="Arial" fill="#000000" style="white-space:pre;" font-weight="400" text-anchor="start" x="143.6596" y="10.2969" font-size="0.2083"><![CDATA[11.5A]]></text>
        <text font-family="Arial" fill="#000000" style="white-space:pre;" font-weight="400" text-anchor="start" x="146.7661" y="10.2969" font-size="0.2083"><![CDATA[11.5A]]></text>
        <text font-family="Arial" fill="#000000" style="white-space:pre;" font-weight="400" text-anchor="start" x="146.3669" y="8.2681" font-size="0.2083"><![CDATA[DC Output 1-1]]></text>
        <path d="M 9.1035,6.2973 L 8.8907,6.2973 L 8.8907,6.5100 L 9.1035,6.5100 L 9.1035,6.2973 Z" stroke="#000000" stroke-width="0.1200" stroke-linecap="round" stroke-linejoin="round" fill="none"/>
        <path d="M 113.0938,2.6484 L 109.8490,2.6484 L 107.9469,4.5541 L 107.9469,8.1413 L 109.9609,10.1591 L 113.0938,10.1591 L 113.0938,2.6484 Z" stroke="#0A0A0A" stroke-width="0.1200" stroke-linecap="round" stroke-linejoin="round" fill="#000000"/>
        <path d="M 108.6462,6.0394 L 108.6462,6.7120 L 110.2127,6.7120 L 110.2127,6.0394 L 108.6462,6.0394 Z" stroke-width="1px" stroke="#F2F2F2" fill="#F2F2F2"/>
        <path d="M 110.8281,8.4496 L 110.8281,9.1222 L 112.3945,9.1222 L 112.3945,8.4496 L 110.8281,8.4496 Z" stroke-width="1px" stroke="#F2F2F2" fill="#F2F2F2"/>
        <path d="M 110.8281,3.6853 L 110.8281,4.3579 L 112.3945,4.3579 L 112.3945,3.6853 L 110.8281,3.6853 Z" stroke-width="1px" stroke="#F2F2F2" fill="#F2F2F2"/>
        <path d="M 35.3576,2.6484 L 32.1127,2.6484 L 30.2106,4.5541 L 30.2106,8.1413 L 32.2246,10.1591 L 35.3576,10.1591 L 35.3576,2.6484 Z" stroke="#0A0A0A" stroke-width="0.1200" stroke-linecap="round" stroke-linejoin="round" fill="#000000"/>
        <path d="M 30.9099,6.0394 L 30.9099,6.7120 L 32.4764,6.7120 L 32.4764,6.0394 L 30.9099,6.0394 Z" stroke-width="1px" stroke="#F2F2F2" fill="#F2F2F2"/>
        <path d="M 33.0918,8.4496 L 33.0918,9.1222 L 34.6582,9.1222 L 34.6582,8.4496 L 33.0918,8.4496 Z" stroke-width="1px" stroke="#F2F2F2" fill="#F2F2F2"/>
        <path d="M 33.0918,3.6853 L 33.0918,4.3579 L 34.6582,4.3579 L 34.6582,3.6853 L 33.0918,3.6853 Z" stroke-width="1px" stroke="#F2F2F2" fill="#F2F2F2"/>
        <path d="M 84.5581,4.8352 L 84.5581,6.5352 L 82.6034,6.5352 L 82.6034,4.8352 L 84.5581,4.8352 Z" stroke="#000000" stroke-width="0.1200" stroke-linecap="round" stroke-linejoin="round" fill="#7F7F7F"/>
        <path d="M 87.3284,6.5352 L 79.8190,6.5352 L 79.8190,9.3639 L 87.3284,9.3639 L 87.3284,6.5352 Z" stroke="#000000" stroke-width="0.1200" stroke-linecap="round" stroke-linejoin="round" fill="#BFBFBF"/>
        <path d="M 84.3612,6.0614 L 84.3612,6.5352 L 82.8003,6.5352 L 82.8003,6.0614 L 84.3612,6.0614 Z" stroke="#333333" stroke-width="0.1200" stroke-linecap="round" stroke-linejoin="round" fill="#BFBFBF"/>
        <path d="M 80.1425,7.8172 L 80.1425,6.8836 L 80.2971,6.7442 L 81.1268,6.7442 L 81.2815,6.8836 L 81.2815,7.8172 L 80.1425,7.8172 Z" stroke="#333333" stroke-width="0.1200" stroke-linecap="round" stroke-linejoin="round" fill="#494949"/>
        <path d="M 82.6878,6.7442 L 81.5628,6.7442 L 81.5628,7.8172 L 82.6878,7.8172 L 82.6878,6.7442 Z" stroke="#333333" stroke-width="0.1200" stroke-linecap="round" stroke-linejoin="round" fill="#494949"/>
        <path d="M 81.2675,8.0819 L 80.1425,8.0819 L 80.1425,9.1549 L 81.2675,9.1549 L 81.2675,8.0819 Z" stroke="#333333" stroke-width="0.1200" stroke-linecap="round" stroke-linejoin="round" fill="#494949"/>
        <path d="M 82.9971,7.8172 L 82.9971,6.8836 L 83.1518,6.7442 L 83.9815,6.7442 L 84.1362,6.8836 L 84.1362,7.8172 L 82.9971,7.8172 Z" stroke="#333333" stroke-width="0.1200" stroke-linecap="round" stroke-linejoin="round" fill="#494949"/>
        <path d="M 84.4315,7.8172 L 84.4315,6.8836 L 84.5862,6.7442 L 85.4159,6.7442 L 85.5706,6.8836 L 85.5706,7.8172 L 84.4315,7.8172 Z" stroke="#333333" stroke-width="0.1200" stroke-linecap="round" stroke-linejoin="round" fill="#494949"/>
        <path d="M 85.8659,7.8172 L 85.8659,6.8836 L 86.0206,6.7442 L 86.8503,6.7442 L 87.0050,6.8836 L 87.0050,7.8172 L 85.8659,7.8172 Z" stroke="#333333" stroke-width="0.1200" stroke-linecap="round" stroke-linejoin="round" fill="#494949"/>
        <path d="M 81.5628,8.0819 L 81.5628,9.0155 L 81.7175,9.1549 L 82.5471,9.1549 L 82.7018,9.0155 L 82.7018,8.0819 L 81.5628,8.0819 Z" stroke="#333333" stroke-width="0.1200" stroke-linecap="round" stroke-linejoin="round" fill="#494949"/>
        <path d="M 82.9971,8.0819 L 82.9971,9.0155 L 83.1518,9.1549 L 83.9815,9.1549 L 84.1362,9.0155 L 84.1362,8.0819 L 82.9971,8.0819 Z" stroke="#333333" stroke-width="0.1200" stroke-linecap="round" stroke-linejoin="round" fill="#494949"/>
        <path d="M 84.4315,8.0819 L 84.4315,9.0155 L 84.5862,9.1549 L 85.4159,9.1549 L 85.5706,9.0155 L 85.5706,8.0819 L 84.4315,8.0819 Z" stroke="#333333" stroke-width="0.1200" stroke-linecap="round" stroke-linejoin="round" fill="#494949"/>
        <path d="M 85.8659,8.0819 L 85.8659,9.0155 L 86.0206,9.1549 L 86.8503,9.1549 L 87.0050,9.0155 L 87.0050,8.0819 L 85.8659,8.0819 Z" stroke="#333333" stroke-width="0.1200" stroke-linecap="round" stroke-linejoin="round" fill="#494949"/>
        <path d="M 82.2518,7.1762 L 82.0268,7.1762 L 82.0268,7.3852 L 82.2518,7.3852 L 82.2518,7.1762 Z" stroke="#000000" stroke-width="0.1200" stroke-linecap="round" stroke-linejoin="round" fill="#E2E2CC"/>
        <path d="M 80.8315,7.1762 L 80.6065,7.1762 L 80.6065,7.3852 L 80.8315,7.3852 L 80.8315,7.1762 Z" stroke="#000000" stroke-width="0.1200" stroke-linecap="round" stroke-linejoin="round" fill="#E2E2CC"/>
        <path d="M 85.1206,7.1762 L 84.8956,7.1762 L 84.8956,7.3852 L 85.1206,7.3852 L 85.1206,7.1762 Z" stroke="#000000" stroke-width="0.1200" stroke-linecap="round" stroke-linejoin="round" fill="#E2E2CC"/>
        <path d="M 83.6862,7.1762 L 83.4612,7.1762 L 83.4612,7.3852 L 83.6862,7.3852 L 83.6862,7.1762 Z" stroke="#000000" stroke-width="0.1200" stroke-linecap="round" stroke-linejoin="round" fill="#E2E2CC"/>
        <path d="M 86.5409,7.1762 L 86.3159,7.1762 L 86.3159,7.3852 L 86.5409,7.3852 L 86.5409,7.1762 Z" stroke="#000000" stroke-width="0.1200" stroke-linecap="round" stroke-linejoin="round" fill="#E2E2CC"/>
        <path d="M 82.2518,8.5000 L 82.0268,8.5000 L 82.0268,8.7090 L 82.2518,8.7090 L 82.2518,8.5000 Z" stroke="#000000" stroke-width="0.1200" stroke-linecap="round" stroke-linejoin="round" fill="#E2E2CC"/>
        <path d="M 80.8315,8.5000 L 80.6065,8.5000 L 80.6065,8.7090 L 80.8315,8.7090 L 80.8315,8.5000 Z" stroke="#000000" stroke-width="0.1200" stroke-linecap="round" stroke-linejoin="round" fill="#E2E2CC"/>
        <path d="M 85.1206,8.5000 L 84.8956,8.5000 L 84.8956,8.7090 L 85.1206,8.7090 L 85.1206,8.5000 Z" stroke="#000000" stroke-width="0.1200" stroke-linecap="round" stroke-linejoin="round" fill="#E2E2CC"/>
        <path d="M 83.6862,8.5000 L 83.4612,8.5000 L 83.4612,8.7090 L 83.6862,8.7090 L 83.6862,8.5000 Z" stroke="#000000" stroke-width="0.1200" stroke-linecap="round" stroke-linejoin="round" fill="#E2E2CC"/>
        <path d="M 86.5409,8.5000 L 86.3159,8.5000 L 86.3159,8.7090 L 86.5409,8.7090 L 86.5409,8.5000 Z" stroke="#000000" stroke-width="0.1200" stroke-linecap="round" stroke-linejoin="round" fill="#E2E2CC"/>
        <path d="M 74.4893,4.8352 L 74.4893,6.5352 L 72.5346,6.5352 L 72.5346,4.8352 L 74.4893,4.8352 Z" stroke="#000000" stroke-width="0.1200" stroke-linecap="round" stroke-linejoin="round" fill="#7F7F7F"/>
        <path d="M 77.2596,6.5352 L 69.7502,6.5352 L 69.7502,9.3639 L 77.2596,9.3639 L 77.2596,6.5352 Z" stroke="#000000" stroke-width="0.1200" stroke-linecap="round" stroke-linejoin="round" fill="#BFBFBF"/>
        <path d="M 74.2924,6.0614 L 74.2924,6.5352 L 72.7315,6.5352 L 72.7315,6.0614 L 74.2924,6.0614 Z" stroke="#333333" stroke-width="0.1200" stroke-linecap="round" stroke-linejoin="round" fill="#BFBFBF"/>
        <path d="M 70.0737,7.8172 L 70.0737,6.8836 L 70.2284,6.7442 L 71.0580,6.7442 L 71.2127,6.8836 L 71.2127,7.8172 L 70.0737,7.8172 Z" stroke="#333333" stroke-width="0.1200" stroke-linecap="round" stroke-linejoin="round" fill="#494949"/>
        <path d="M 72.6190,6.7442 L 71.4940,6.7442 L 71.4940,7.8172 L 72.6190,7.8172 L 72.6190,6.7442 Z" stroke="#333333" stroke-width="0.1200" stroke-linecap="round" stroke-linejoin="round" fill="#494949"/>
        <path d="M 71.1987,8.0819 L 70.0737,8.0819 L 70.0737,9.1549 L 71.1987,9.1549 L 71.1987,8.0819 Z" stroke="#333333" stroke-width="0.1200" stroke-linecap="round" stroke-linejoin="round" fill="#494949"/>
        <path d="M 72.9284,7.8172 L 72.9284,6.8836 L 73.0831,6.7442 L 73.9127,6.7442 L 74.0674,6.8836 L 74.0674,7.8172 L 72.9284,7.8172 Z" stroke="#333333" stroke-width="0.1200" stroke-linecap="round" stroke-linejoin="round" fill="#494949"/>
        <path d="M 74.3627,7.8172 L 74.3627,6.8836 L 74.5174,6.7442 L 75.3471,6.7442 L 75.5018,6.8836 L 75.5018,7.8172 L 74.3627,7.8172 Z" stroke="#333333" stroke-width="0.1200" stroke-linecap="round" stroke-linejoin="round" fill="#494949"/>
        <path d="M 75.7971,7.8172 L 75.7971,6.8836 L 75.9518,6.7442 L 76.7815,6.7442 L 76.9362,6.8836 L 76.9362,7.8172 L 75.7971,7.8172 Z" stroke="#333333" stroke-width="0.1200" stroke-linecap="round" stroke-linejoin="round" fill="#494949"/>
        <path d="M 71.4940,8.0819 L 71.4940,9.0155 L 71.6487,9.1549 L 72.4784,9.1549 L 72.6331,9.0155 L 72.6331,8.0819 L 71.4940,8.0819 Z" stroke="#333333" stroke-width="0.1200" stroke-linecap="round" stroke-linejoin="round" fill="#494949"/>
        <path d="M 72.9284,8.0819 L 72.9284,9.0155 L 73.0831,9.1549 L 73.9127,9.1549 L 74.0674,9.0155 L 74.0674,8.0819 L 72.9284,8.0819 Z" stroke="#333333" stroke-width="0.1200" stroke-linecap="round" stroke-linejoin="round" fill="#494949"/>
        <path d="M 74.3627,8.0819 L 74.3627,9.0155 L 74.5174,9.1549 L 75.3471,9.1549 L 75.5018,9.0155 L 75.5018,8.0819 L 74.3627,8.0819 Z" stroke="#333333" stroke-width="0.1200" stroke-linecap="round" stroke-linejoin="round" fill="#494949"/>
        <path d="M 75.7971,8.0819 L 75.7971,9.0155 L 75.9518,9.1549 L 76.7815,9.1549 L 76.9362,9.0155 L 76.9362,8.0819 L 75.7971,8.0819 Z" stroke="#333333" stroke-width="0.1200" stroke-linecap="round" stroke-linejoin="round" fill="#494949"/>
        <path d="M 72.1830,7.1762 L 71.9580,7.1762 L 71.9580,7.3852 L 72.1830,7.3852 L 72.1830,7.1762 Z" stroke="#000000" stroke-width="0.1200" stroke-linecap="round" stroke-linejoin="round" fill="#E2E2CC"/>
        <path d="M 70.7627,7.1762 L 70.5377,7.1762 L 70.5377,7.3852 L 70.7627,7.3852 L 70.7627,7.1762 Z" stroke="#000000" stroke-width="0.1200" stroke-linecap="round" stroke-linejoin="round" fill="#E2E2CC"/>
        <path d="M 75.0518,7.1762 L 74.8268,7.1762 L 74.8268,7.3852 L 75.0518,7.3852 L 75.0518,7.1762 Z" stroke="#000000" stroke-width="0.1200" stroke-linecap="round" stroke-linejoin="round" fill="#E2E2CC"/>
        <path d="M 73.6174,7.1762 L 73.3924,7.1762 L 73.3924,7.3852 L 73.6174,7.3852 L 73.6174,7.1762 Z" stroke="#000000" stroke-width="0.1200" stroke-linecap="round" stroke-linejoin="round" fill="#E2E2CC"/>
        <path d="M 76.4721,7.1762 L 76.2471,7.1762 L 76.2471,7.3852 L 76.4721,7.3852 L 76.4721,7.1762 Z" stroke="#000000" stroke-width="0.1200" stroke-linecap="round" stroke-linejoin="round" fill="#E2E2CC"/>
        <path d="M 72.1830,8.5000 L 71.9580,8.5000 L 71.9580,8.7090 L 72.1830,8.7090 L 72.1830,8.5000 Z" stroke="#000000" stroke-width="0.1200" stroke-linecap="round" stroke-linejoin="round" fill="#E2E2CC"/>
        <path d="M 70.7627,8.5000 L 70.5377,8.5000 L 70.5377,8.7090 L 70.7627,8.7090 L 70.7627,8.5000 Z" stroke="#000000" stroke-width="0.1200" stroke-linecap="round" stroke-linejoin="round" fill="#E2E2CC"/>
        <path d="M 75.0518,8.5000 L 74.8268,8.5000 L 74.8268,8.7090 L 75.0518,8.7090 L 75.0518,8.5000 Z" stroke="#000000" stroke-width="0.1200" stroke-linecap="round" stroke-linejoin="round" fill="#E2E2CC"/>
        <path d="M 73.6174,8.5000 L 73.3924,8.5000 L 73.3924,8.7090 L 73.6174,8.7090 L 73.6174,8.5000 Z" stroke="#000000" stroke-width="0.1200" stroke-linecap="round" stroke-linejoin="round" fill="#E2E2CC"/>
        <path d="M 76.4721,8.5000 L 76.2471,8.5000 L 76.2471,8.7090 L 76.4721,8.7090 L 76.4721,8.5000 Z" stroke="#000000" stroke-width="0.1200" stroke-linecap="round" stroke-linejoin="round" fill="#E2E2CC"/>
        <path d="M 64.3643,4.8352 L 64.3643,6.5352 L 62.4096,6.5352 L 62.4096,4.8352 L 64.3643,4.8352 Z" stroke="#000000" stroke-width="0.1200" stroke-linecap="round" stroke-linejoin="round" fill="#7F7F7F"/>
        <path d="M 67.1346,6.5352 L 59.6252,6.5352 L 59.6252,9.3639 L 67.1346,9.3639 L 67.1346,6.5352 Z" stroke="#000000" stroke-width="0.1200" stroke-linecap="round" stroke-linejoin="round" fill="#BFBFBF"/>
        <path d="M 64.1674,6.0614 L 64.1674,6.5352 L 62.6065,6.5352 L 62.6065,6.0614 L 64.1674,6.0614 Z" stroke="#333333" stroke-width="0.1200" stroke-linecap="round" stroke-linejoin="round" fill="#BFBFBF"/>
        <path d="M 59.9486,7.8172 L 59.9486,6.8836 L 60.1033,6.7442 L 60.9330,6.7442 L 61.0877,6.8836 L 61.0877,7.8172 L 59.9486,7.8172 Z" stroke="#333333" stroke-width="0.1200" stroke-linecap="round" stroke-linejoin="round" fill="#494949"/>
        <path d="M 62.4940,6.7442 L 61.3690,6.7442 L 61.3690,7.8172 L 62.4940,7.8172 L 62.4940,6.7442 Z" stroke="#333333" stroke-width="0.1200" stroke-linecap="round" stroke-linejoin="round" fill="#494949"/>
        <path d="M 61.0736,8.0819 L 59.9486,8.0819 L 59.9486,9.1549 L 61.0736,9.1549 L 61.0736,8.0819 Z" stroke="#333333" stroke-width="0.1200" stroke-linecap="round" stroke-linejoin="round" fill="#494949"/>
        <path d="M 62.8033,7.8172 L 62.8033,6.8836 L 62.9580,6.7442 L 63.7877,6.7442 L 63.9424,6.8836 L 63.9424,7.8172 L 62.8033,7.8172 Z" stroke="#333333" stroke-width="0.1200" stroke-linecap="round" stroke-linejoin="round" fill="#494949"/>
        <path d="M 64.2377,7.8172 L 64.2377,6.8836 L 64.3924,6.7442 L 65.2221,6.7442 L 65.3768,6.8836 L 65.3768,7.8172 L 64.2377,7.8172 Z" stroke="#333333" stroke-width="0.1200" stroke-linecap="round" stroke-linejoin="round" fill="#494949"/>
        <path d="M 65.6721,7.8172 L 65.6721,6.8836 L 65.8268,6.7442 L 66.6565,6.7442 L 66.8112,6.8836 L 66.8112,7.8172 L 65.6721,7.8172 Z" stroke="#333333" stroke-width="0.1200" stroke-linecap="round" stroke-linejoin="round" fill="#494949"/>
        <path d="M 61.3690,8.0819 L 61.3690,9.0155 L 61.5236,9.1549 L 62.3533,9.1549 L 62.5080,9.0155 L 62.5080,8.0819 L 61.3690,8.0819 Z" stroke="#333333" stroke-width="0.1200" stroke-linecap="round" stroke-linejoin="round" fill="#494949"/>
        <path d="M 62.8033,8.0819 L 62.8033,9.0155 L 62.9580,9.1549 L 63.7877,9.1549 L 63.9424,9.0155 L 63.9424,8.0819 L 62.8033,8.0819 Z" stroke="#333333" stroke-width="0.1200" stroke-linecap="round" stroke-linejoin="round" fill="#494949"/>
        <path d="M 64.2377,8.0819 L 64.2377,9.0155 L 64.3924,9.1549 L 65.2221,9.1549 L 65.3768,9.0155 L 65.3768,8.0819 L 64.2377,8.0819 Z" stroke="#333333" stroke-width="0.1200" stroke-linecap="round" stroke-linejoin="round" fill="#494949"/>
        <path d="M 65.6721,8.0819 L 65.6721,9.0155 L 65.8268,9.1549 L 66.6565,9.1549 L 66.8112,9.0155 L 66.8112,8.0819 L 65.6721,8.0819 Z" stroke="#333333" stroke-width="0.1200" stroke-linecap="round" stroke-linejoin="round" fill="#494949"/>
        <path d="M 62.0580,7.1762 L 61.8330,7.1762 L 61.8330,7.3852 L 62.0580,7.3852 L 62.0580,7.1762 Z" stroke="#000000" stroke-width="0.1200" stroke-linecap="round" stroke-linejoin="round" fill="#E2E2CC"/>
        <path d="M 60.6377,7.1762 L 60.4127,7.1762 L 60.4127,7.3852 L 60.6377,7.3852 L 60.6377,7.1762 Z" stroke="#000000" stroke-width="0.1200" stroke-linecap="round" stroke-linejoin="round" fill="#E2E2CC"/>
        <path d="M 64.9268,7.1762 L 64.7018,7.1762 L 64.7018,7.3852 L 64.9268,7.3852 L 64.9268,7.1762 Z" stroke="#000000" stroke-width="0.1200" stroke-linecap="round" stroke-linejoin="round" fill="#E2E2CC"/>
        <path d="M 63.4924,7.1762 L 63.2674,7.1762 L 63.2674,7.3852 L 63.4924,7.3852 L 63.4924,7.1762 Z" stroke="#000000" stroke-width="0.1200" stroke-linecap="round" stroke-linejoin="round" fill="#E2E2CC"/>
        <path d="M 66.3471,7.1762 L 66.1221,7.1762 L 66.1221,7.3852 L 66.3471,7.3852 L 66.3471,7.1762 Z" stroke="#000000" stroke-width="0.1200" stroke-linecap="round" stroke-linejoin="round" fill="#E2E2CC"/>
        <path d="M 62.0580,8.5000 L 61.8330,8.5000 L 61.8330,8.7090 L 62.0580,8.7090 L 62.0580,8.5000 Z" stroke="#000000" stroke-width="0.1200" stroke-linecap="round" stroke-linejoin="round" fill="#E2E2CC"/>
        <path d="M 60.6377,8.5000 L 60.4127,8.5000 L 60.4127,8.7090 L 60.6377,8.7090 L 60.6377,8.5000 Z" stroke="#000000" stroke-width="0.1200" stroke-linecap="round" stroke-linejoin="round" fill="#E2E2CC"/>
        <path d="M 64.9268,8.5000 L 64.7018,8.5000 L 64.7018,8.7090 L 64.9268,8.7090 L 64.9268,8.5000 Z" stroke="#000000" stroke-width="0.1200" stroke-linecap="round" stroke-linejoin="round" fill="#E2E2CC"/>
        <path d="M 63.4924,8.5000 L 63.2674,8.5000 L 63.2674,8.7090 L 63.4924,8.7090 L 63.4924,8.5000 Z" stroke="#000000" stroke-width="0.1200" stroke-linecap="round" stroke-linejoin="round" fill="#E2E2CC"/>
        <path d="M 66.3471,8.5000 L 66.1221,8.5000 L 66.1221,8.7090 L 66.3471,8.7090 L 66.3471,8.5000 Z" stroke="#000000" stroke-width="0.1200" stroke-linecap="round" stroke-linejoin="round" fill="#E2E2CC"/>
        <path d="M 54.2955,4.8352 L 54.2955,6.5352 L 52.3408,6.5352 L 52.3408,4.8352 L 54.2955,4.8352 Z" stroke="#000000" stroke-width="0.1200" stroke-linecap="round" stroke-linejoin="round" fill="#7F7F7F"/>
        <path d="M 57.0658,6.5352 L 49.5564,6.5352 L 49.5564,9.3639 L 57.0658,9.3639 L 57.0658,6.5352 Z" stroke="#000000" stroke-width="0.1200" stroke-linecap="round" stroke-linejoin="round" fill="#BFBFBF"/>
        <path d="M 54.0986,6.0614 L 54.0986,6.5352 L 52.5377,6.5352 L 52.5377,6.0614 L 54.0986,6.0614 Z" stroke="#333333" stroke-width="0.1200" stroke-linecap="round" stroke-linejoin="round" fill="#BFBFBF"/>
        <path d="M 49.8799,7.8172 L 49.8799,6.8836 L 50.0345,6.7442 L 50.8642,6.7442 L 51.0189,6.8836 L 51.0189,7.8172 L 49.8799,7.8172 Z" stroke="#333333" stroke-width="0.1200" stroke-linecap="round" stroke-linejoin="round" fill="#494949"/>
        <path d="M 52.4252,6.7442 L 51.3002,6.7442 L 51.3002,7.8172 L 52.4252,7.8172 L 52.4252,6.7442 Z" stroke="#333333" stroke-width="0.1200" stroke-linecap="round" stroke-linejoin="round" fill="#494949"/>
        <path d="M 51.0049,8.0819 L 49.8799,8.0819 L 49.8799,9.1549 L 51.0049,9.1549 L 51.0049,8.0819 Z" stroke="#333333" stroke-width="0.1200" stroke-linecap="round" stroke-linejoin="round" fill="#494949"/>
        <path d="M 52.7345,7.8172 L 52.7345,6.8836 L 52.8892,6.7442 L 53.7189,6.7442 L 53.8736,6.8836 L 53.8736,7.8172 L 52.7345,7.8172 Z" stroke="#333333" stroke-width="0.1200" stroke-linecap="round" stroke-linejoin="round" fill="#494949"/>
        <path d="M 54.1689,7.8172 L 54.1689,6.8836 L 54.3236,6.7442 L 55.1533,6.7442 L 55.3080,6.8836 L 55.3080,7.8172 L 54.1689,7.8172 Z" stroke="#333333" stroke-width="0.1200" stroke-linecap="round" stroke-linejoin="round" fill="#494949"/>
        <path d="M 55.6033,7.8172 L 55.6033,6.8836 L 55.7580,6.7442 L 56.5877,6.7442 L 56.7424,6.8836 L 56.7424,7.8172 L 55.6033,7.8172 Z" stroke="#333333" stroke-width="0.1200" stroke-linecap="round" stroke-linejoin="round" fill="#494949"/>
        <path d="M 51.3002,8.0819 L 51.3002,9.0155 L 51.4549,9.1549 L 52.2845,9.1549 L 52.4392,9.0155 L 52.4392,8.0819 L 51.3002,8.0819 Z" stroke="#333333" stroke-width="0.1200" stroke-linecap="round" stroke-linejoin="round" fill="#494949"/>
        <path d="M 52.7345,8.0819 L 52.7345,9.0155 L 52.8892,9.1549 L 53.7189,9.1549 L 53.8736,9.0155 L 53.8736,8.0819 L 52.7345,8.0819 Z" stroke="#333333" stroke-width="0.1200" stroke-linecap="round" stroke-linejoin="round" fill="#494949"/>
        <path d="M 54.1689,8.0819 L 54.1689,9.0155 L 54.3236,9.1549 L 55.1533,9.1549 L 55.3080,9.0155 L 55.3080,8.0819 L 54.1689,8.0819 Z" stroke="#333333" stroke-width="0.1200" stroke-linecap="round" stroke-linejoin="round" fill="#494949"/>
        <path d="M 55.6033,8.0819 L 55.6033,9.0155 L 55.7580,9.1549 L 56.5877,9.1549 L 56.7424,9.0155 L 56.7424,8.0819 L 55.6033,8.0819 Z" stroke="#333333" stroke-width="0.1200" stroke-linecap="round" stroke-linejoin="round" fill="#494949"/>
        <path d="M 51.9892,7.1762 L 51.7642,7.1762 L 51.7642,7.3852 L 51.9892,7.3852 L 51.9892,7.1762 Z" stroke="#000000" stroke-width="0.1200" stroke-linecap="round" stroke-linejoin="round" fill="#E2E2CC"/>
        <path d="M 50.5689,7.1762 L 50.3439,7.1762 L 50.3439,7.3852 L 50.5689,7.3852 L 50.5689,7.1762 Z" stroke="#000000" stroke-width="0.1200" stroke-linecap="round" stroke-linejoin="round" fill="#E2E2CC"/>
        <path d="M 54.8580,7.1762 L 54.6330,7.1762 L 54.6330,7.3852 L 54.8580,7.3852 L 54.8580,7.1762 Z" stroke="#000000" stroke-width="0.1200" stroke-linecap="round" stroke-linejoin="round" fill="#E2E2CC"/>
        <path d="M 53.4236,7.1762 L 53.1986,7.1762 L 53.1986,7.3852 L 53.4236,7.3852 L 53.4236,7.1762 Z" stroke="#000000" stroke-width="0.1200" stroke-linecap="round" stroke-linejoin="round" fill="#E2E2CC"/>
        <path d="M 56.2783,7.1762 L 56.0533,7.1762 L 56.0533,7.3852 L 56.2783,7.3852 L 56.2783,7.1762 Z" stroke="#000000" stroke-width="0.1200" stroke-linecap="round" stroke-linejoin="round" fill="#E2E2CC"/>
        <path d="M 51.9892,8.5000 L 51.7642,8.5000 L 51.7642,8.7090 L 51.9892,8.7090 L 51.9892,8.5000 Z" stroke="#000000" stroke-width="0.1200" stroke-linecap="round" stroke-linejoin="round" fill="#E2E2CC"/>
        <path d="M 50.5689,8.5000 L 50.3439,8.5000 L 50.3439,8.7090 L 50.5689,8.7090 L 50.5689,8.5000 Z" stroke="#000000" stroke-width="0.1200" stroke-linecap="round" stroke-linejoin="round" fill="#E2E2CC"/>
        <path d="M 54.8580,8.5000 L 54.6330,8.5000 L 54.6330,8.7090 L 54.8580,8.7090 L 54.8580,8.5000 Z" stroke="#000000" stroke-width="0.1200" stroke-linecap="round" stroke-linejoin="round" fill="#E2E2CC"/>
        <path d="M 53.4236,8.5000 L 53.1986,8.5000 L 53.1986,8.7090 L 53.4236,8.7090 L 53.4236,8.5000 Z" stroke="#000000" stroke-width="0.1200" stroke-linecap="round" stroke-linejoin="round" fill="#E2E2CC"/>
        <path d="M 56.2783,8.5000 L 56.0533,8.5000 L 56.0533,8.7090 L 56.2783,8.7090 L 56.2783,8.5000 Z" stroke="#000000" stroke-width="0.1200" stroke-linecap="round" stroke-linejoin="round" fill="#E2E2CC"/>
      </g>
      <!--emf-blob end-->
    </g>
  </g>
</svg>
