<svg xmlns="http://www.w3.org/2000/svg" xmlns:xlink="http://www.w3.org/1999/xlink" version="1.1" width="7.6800000000" height="2.6076000000" viewBox="0 0 138.2400 46.9397">
  <title><![CDATA[FDD-400B (F)]]></title>
  <g transform=" scale(4.000000) ">
    <!--converted by libvisio2svg-->
    <g transform=" translate(0.720000,0.720000) ">
      <!--emf-blob start-->
      <g transform="translate(-0.0000, -0.0000)">
        <path d="M 11.1934,1.8766 L 11.1934,2.8275 L 12.0740,2.8275 " stroke="#000000" stroke-width="0.1201" stroke-linecap="round" stroke-linejoin="round" fill="none"/>
        <path d="M 12.0740,1.8766 L 13.8121,1.8766 " stroke="#000000" stroke-width="0.1201" stroke-linecap="round" stroke-linejoin="round" fill="none"/>
        <path d="M 12.9315,1.8766 L 12.9315,2.8275 " stroke="#000000" stroke-width="0.1201" stroke-linecap="round" stroke-linejoin="round" fill="none"/>
        <path d="M 14.2524,1.8766 L 14.2524,2.8275 " stroke="#000000" stroke-width="0.1201" stroke-linecap="round" stroke-linejoin="round" fill="none"/>
        <path d="M 14.2524,1.8766 L 14.2524,2.8275 " stroke="#000000" stroke-width="0.1201" stroke-linecap="round" stroke-linejoin="round" fill="none"/>
        <path d="M 15.1099,2.8275 L 15.1099,1.8766 L 15.9905,2.8275 L 16.8712,1.8766 L 16.8712,2.8275 " stroke="#000000" stroke-width="0.1201" stroke-linecap="round" stroke-linejoin="round" fill="none"/>
        <path d="M 17.2883,2.8275 L 18.1689,1.8766 L 19.0496,2.8275 " stroke="#000000" stroke-width="0.1201" stroke-linecap="round" stroke-linejoin="round" fill="none"/>
        <path d="M 17.5200,2.5898 L 18.8178,2.5898 " stroke="#000000" stroke-width="0.1201" stroke-linecap="round" stroke-linejoin="round" fill="none"/>
        <path d="M 8.5746,2.8275 L 9.4553,1.8766 L 10.3359,2.8275 " stroke="#000000" stroke-width="0.1201" stroke-linecap="round" stroke-linejoin="round" fill="none"/>
        <path d="M 8.8064,2.5898 L 10.1042,2.5898 " stroke="#000000" stroke-width="0.1201" stroke-linecap="round" stroke-linejoin="round" fill="none"/>
        <path d="M 136.7438,0.0281 L 0.0281,0.0281 L 0.0281,12.5549 L 136.7438,12.5549 L 136.7438,0.0281 Z" stroke="#000000" stroke-width="0.1201" stroke-linecap="round" stroke-linejoin="round" fill="#EFEFEF"/>
        <path d="M 129.6015,0.0281 L 7.1704,0.0281 L 7.1704,12.5549 L 129.6015,12.5549 L 129.6015,0.0281 Z" stroke="#000000" stroke-width="0.1201" stroke-linecap="round" stroke-linejoin="round" fill="#EFEFEF"/>
        <path d="M 135.7034,1.7274 L 135.7034,1.6290 L 135.6893,1.5307 L 135.6612,1.4324 L 135.6331,1.3482 L 135.5909,1.2499 L 135.5346,1.1797 L 135.4784,1.0954 L 135.4222,1.0252 L 135.3519,0.9690 L 135.2675,0.9128 L 135.1972,0.8567 L 135.0988,0.8145 L 135.0144,0.7864 L 134.9160,0.7583 L 134.8176,0.7443 L 132.7087,0.7443 L 132.6102,0.7583 L 132.5118,0.7864 L 132.4275,0.8145 L 132.3290,0.8567 L 132.2587,0.9128 L 132.1744,0.9690 L 132.1041,1.0252 L 132.0479,1.0954 L 131.9916,1.1797 L 131.9354,1.2499 L 131.8932,1.3482 L 131.8651,1.4324 L 131.8370,1.5307 L 131.8229,1.6290 L 131.8229,1.8397 L 131.8370,1.9380 L 131.8651,2.0363 L 131.8932,2.1206 L 131.9354,2.2189 L 131.9916,2.2891 L 132.0479,2.3734 L 132.1041,2.4436 L 132.1744,2.4997 L 132.2587,2.5559 L 132.3290,2.6121 L 132.4275,2.6542 L 132.5118,2.6823 L 132.6102,2.7104 L 132.7087,2.7244 L 134.8176,2.7244 L 134.9160,2.7104 L 135.0144,2.6823 L 135.0988,2.6542 L 135.1972,2.6121 L 135.2675,2.5559 L 135.3519,2.4997 L 135.4222,2.4436 L 135.4784,2.3734 L 135.5346,2.2891 L 135.5909,2.2189 L 135.6331,2.1206 L 135.6612,2.0363 L 135.6893,1.9380 L 135.7034,1.8397 L 135.7034,1.7414 L 135.7034,1.7274 Z" stroke="#000000" stroke-width="0.1201" stroke-linecap="round" stroke-linejoin="round" fill="#FFFFFF"/>
        <path d="M 135.7034,10.8556 L 135.7034,10.7573 L 135.6893,10.6590 L 135.6612,10.5607 L 135.6331,10.4765 L 135.5909,10.3781 L 135.5346,10.3079 L 135.4784,10.2237 L 135.4222,10.1534 L 135.3519,10.0973 L 135.2675,10.0411 L 135.1972,9.9849 L 135.0988,9.9428 L 135.0144,9.9147 L 134.9160,9.8866 L 134.8176,9.8726 L 132.7087,9.8726 L 132.6102,9.8866 L 132.5118,9.9147 L 132.4275,9.9428 L 132.3290,9.9849 L 132.2587,10.0411 L 132.1744,10.0973 L 132.1041,10.1534 L 132.0479,10.2237 L 131.9916,10.3079 L 131.9354,10.3781 L 131.8932,10.4765 L 131.8651,10.5607 L 131.8370,10.6590 L 131.8229,10.7573 L 131.8229,10.9680 L 131.8370,11.0663 L 131.8651,11.1646 L 131.8932,11.2488 L 131.9354,11.3471 L 131.9916,11.4174 L 132.0479,11.5016 L 132.1041,11.5718 L 132.1744,11.6280 L 132.2587,11.6842 L 132.3290,11.7404 L 132.4275,11.7825 L 132.5118,11.8106 L 132.6102,11.8387 L 132.7087,11.8527 L 134.8176,11.8527 L 134.9160,11.8387 L 135.0144,11.8106 L 135.0988,11.7825 L 135.1972,11.7404 L 135.2675,11.6842 L 135.3519,11.6280 L 135.4222,11.5718 L 135.4784,11.5016 L 135.5346,11.4174 L 135.5909,11.3471 L 135.6331,11.2488 L 135.6612,11.1646 L 135.6893,11.0663 L 135.7034,10.9680 L 135.7034,10.8697 L 135.7034,10.8556 Z" stroke="#000000" stroke-width="0.1201" stroke-linecap="round" stroke-linejoin="round" fill="#FFFFFF"/>
        <path d="M 4.9490,1.7274 L 4.9490,1.6290 L 4.9349,1.5307 L 4.9068,1.4324 L 4.8787,1.3482 L 4.8365,1.2499 L 4.7803,1.1797 L 4.7240,1.0954 L 4.6678,1.0252 L 4.5975,0.9690 L 4.5131,0.9128 L 4.4428,0.8567 L 4.3444,0.8145 L 4.2601,0.7864 L 4.1616,0.7583 L 4.0632,0.7443 L 1.9543,0.7443 L 1.8559,0.7583 L 1.7575,0.7864 L 1.6731,0.8145 L 1.5747,0.8567 L 1.5044,0.9128 L 1.4200,0.9690 L 1.3497,1.0252 L 1.2935,1.0954 L 1.2372,1.1797 L 1.1810,1.2499 L 1.1388,1.3482 L 1.1107,1.4324 L 1.0826,1.5307 L 1.0685,1.6290 L 1.0685,1.8397 L 1.0826,1.9380 L 1.1107,2.0363 L 1.1388,2.1206 L 1.1810,2.2189 L 1.2372,2.2891 L 1.2935,2.3734 L 1.3497,2.4436 L 1.4200,2.4997 L 1.5044,2.5559 L 1.5747,2.6121 L 1.6731,2.6542 L 1.7575,2.6823 L 1.8559,2.7104 L 1.9543,2.7244 L 4.0632,2.7244 L 4.1616,2.7104 L 4.2601,2.6823 L 4.3444,2.6542 L 4.4428,2.6121 L 4.5131,2.5559 L 4.5975,2.4997 L 4.6678,2.4436 L 4.7240,2.3734 L 4.7803,2.2891 L 4.8365,2.2189 L 4.8787,2.1206 L 4.9068,2.0363 L 4.9349,1.9380 L 4.9490,1.8397 L 4.9490,1.7414 L 4.9490,1.7274 Z" stroke="#000000" stroke-width="0.1201" stroke-linecap="round" stroke-linejoin="round" fill="#FFFFFF"/>
        <path d="M 4.9490,10.8556 L 4.9490,10.7573 L 4.9349,10.6590 L 4.9068,10.5607 L 4.8787,10.4765 L 4.8365,10.3781 L 4.7803,10.3079 L 4.7240,10.2237 L 4.6678,10.1534 L 4.5975,10.0973 L 4.5131,10.0411 L 4.4428,9.9849 L 4.3444,9.9428 L 4.2601,9.9147 L 4.1616,9.8866 L 4.0632,9.8726 L 1.9543,9.8726 L 1.8559,9.8866 L 1.7575,9.9147 L 1.6731,9.9428 L 1.5747,9.9849 L 1.5044,10.0411 L 1.4200,10.0973 L 1.3497,10.1534 L 1.2935,10.2237 L 1.2372,10.3079 L 1.1810,10.3781 L 1.1388,10.4765 L 1.1107,10.5607 L 1.0826,10.6590 L 1.0685,10.7573 L 1.0685,10.9680 L 1.0826,11.0663 L 1.1107,11.1646 L 1.1388,11.2488 L 1.1810,11.3471 L 1.2372,11.4174 L 1.2935,11.5016 L 1.3497,11.5718 L 1.4200,11.6280 L 1.5044,11.6842 L 1.5747,11.7404 L 1.6731,11.7825 L 1.7575,11.8106 L 1.8559,11.8387 L 1.9543,11.8527 L 4.0632,11.8527 L 4.1616,11.8387 L 4.2601,11.8106 L 4.3444,11.7825 L 4.4428,11.7404 L 4.5131,11.6842 L 4.5975,11.6280 L 4.6678,11.5718 L 4.7240,11.5016 L 4.7803,11.4174 L 4.8365,11.3471 L 4.8787,11.2488 L 4.9068,11.1646 L 4.9349,11.0663 L 4.9490,10.9680 L 4.9490,10.8697 L 4.9490,10.8556 Z" stroke="#000000" stroke-width="0.1201" stroke-linecap="round" stroke-linejoin="round" fill="#FFFFFF"/>
        <path d="M 91.0500,0.5337 L 7.8593,0.5337 L 7.8453,0.5477 L 7.8312,0.5477 L 7.8171,0.5617 L 7.7890,0.5617 L 7.7609,0.5898 L 7.7468,0.5898 L 7.7328,0.6039 L 7.7328,0.6179 L 7.7187,0.6179 L 7.7047,0.6320 L 7.7047,0.6460 L 7.6765,0.6741 L 7.6765,0.7022 L 7.6625,0.7162 L 7.6625,0.7303 L 7.6484,0.7443 L 7.6484,11.8387 L 7.6625,11.8527 L 7.6625,11.8668 L 7.6765,11.8808 L 7.6765,11.9089 L 7.7047,11.9370 L 7.7047,11.9510 L 7.7187,11.9651 L 7.7328,11.9651 L 7.7328,11.9791 L 7.7468,11.9931 L 7.7609,11.9931 L 7.7890,12.0212 L 7.8171,12.0212 L 7.8312,12.0353 L 7.8453,12.0353 L 7.8593,12.0493 L 128.9126,12.0493 L 128.9266,12.0353 L 128.9407,12.0353 L 128.9547,12.0212 L 128.9829,12.0212 L 129.0110,11.9931 L 129.0250,11.9931 L 129.0391,11.9791 L 129.0391,11.9651 L 129.0532,11.9651 L 129.0672,11.9510 L 129.0672,11.9370 L 129.0953,11.9089 L 129.0953,11.8808 L 129.1094,11.8668 L 129.1094,11.8527 L 129.1235,11.8387 L 129.1235,0.7443 L 129.1094,0.7303 L 129.1094,0.7162 L 129.0953,0.7022 L 129.0953,0.6741 L 129.0672,0.6460 L 129.0672,0.6320 L 129.0532,0.6179 L 129.0391,0.6179 L 129.0391,0.6039 L 129.0250,0.5898 L 129.0110,0.5898 L 128.9829,0.5617 L 128.9547,0.5617 L 128.9407,0.5477 L 128.9266,0.5477 L 128.9126,0.5337 L 91.1625,0.5337 L 91.0500,0.5337 Z" stroke="#A8A6A3" stroke-width="0.1201" stroke-linecap="round" stroke-linejoin="round" fill="#CCDDCC"/>
        <path d="M 7.6484,10.0551 L 7.6484,0.7303 L 7.6625,0.7162 L 7.6625,0.7022 L 7.6765,0.6881 L 7.6765,0.6600 L 7.6906,0.6600 L 7.6906,0.6460 L 7.7468,0.5898 L 7.7609,0.5898 L 7.7890,0.5617 L 7.8031,0.5617 L 7.8171,0.5477 L 7.8453,0.5477 L 7.8593,0.5337 L 41.0962,0.5337 L 40.4636,0.6179 L 39.8449,0.6881 L 39.2544,0.7724 L 38.6920,0.8426 L 38.1437,0.9269 L 37.6095,1.0111 L 37.0892,1.0954 L 36.5972,1.1797 L 36.1051,1.2780 L 35.6411,1.3903 L 35.1912,1.5027 L 34.7413,1.6290 L 34.3054,1.7554 L 33.8837,1.9099 L 33.4759,2.0644 L 33.0682,2.2470 L 32.6745,2.4436 L 32.2809,2.6542 L 31.8872,2.8789 L 31.5076,3.1177 L 31.1280,3.3845 L 30.7484,3.6794 L 30.3688,3.9884 L 29.9891,4.3254 L 29.6095,4.6905 L 29.2299,5.0837 L 28.8363,5.5051 L 28.4566,5.9404 L 28.0630,6.4179 L 27.6553,6.9375 L 27.2475,7.4711 L 26.8257,8.0469 L 26.7836,8.1031 L 26.7273,8.1733 L 26.6851,8.2295 L 26.6148,8.2997 L 26.5586,8.3840 L 26.2493,8.6929 L 25.8556,9.0300 L 25.6307,9.1985 L 25.5041,9.2828 L 25.3917,9.3530 L 25.2511,9.4372 L 25.1245,9.5074 L 24.8433,9.6479 L 24.7027,9.7041 L 24.5481,9.7743 L 24.3934,9.8304 L 24.2388,9.8726 L 23.7326,9.9990 L 23.5498,10.0130 L 23.3671,10.0411 L 23.1843,10.0551 L 7.6906,10.0551 L 7.6484,10.0551 Z" stroke="#EFEFEF" stroke-width="0.1201" stroke-linecap="round" stroke-linejoin="round" fill="#EFEFEF"/>
        <path d="M 91.0500,0.5337 L 7.8593,0.5337 L 7.8453,0.5477 L 7.8312,0.5477 L 7.8171,0.5617 L 7.7890,0.5617 L 7.7609,0.5898 L 7.7468,0.5898 L 7.7328,0.6039 L 7.7328,0.6179 L 7.7187,0.6179 L 7.7047,0.6320 L 7.7047,0.6460 L 7.6765,0.6741 L 7.6765,0.7022 L 7.6625,0.7162 L 7.6625,0.7303 L 7.6484,0.7443 L 7.6484,11.8387 L 7.6625,11.8527 L 7.6625,11.8668 L 7.6765,11.8808 L 7.6765,11.9089 L 7.7047,11.9370 L 7.7047,11.9510 L 7.7187,11.9651 L 7.7328,11.9651 L 7.7328,11.9791 L 7.7468,11.9931 L 7.7609,11.9931 L 7.7890,12.0212 L 7.8171,12.0212 L 7.8312,12.0353 L 7.8453,12.0353 L 7.8593,12.0493 L 128.9126,12.0493 L 128.9266,12.0353 L 128.9407,12.0353 L 128.9547,12.0212 L 128.9829,12.0212 L 129.0110,11.9931 L 129.0250,11.9931 L 129.0391,11.9791 L 129.0391,11.9651 L 129.0532,11.9651 L 129.0672,11.9510 L 129.0672,11.9370 L 129.0953,11.9089 L 129.0953,11.8808 L 129.1094,11.8668 L 129.1094,11.8527 L 129.1235,11.8387 L 129.1235,0.7443 L 129.1094,0.7303 L 129.1094,0.7162 L 129.0953,0.7022 L 129.0953,0.6741 L 129.0672,0.6460 L 129.0672,0.6320 L 129.0532,0.6179 L 129.0391,0.6179 L 129.0391,0.6039 L 129.0250,0.5898 L 129.0110,0.5898 L 128.9829,0.5617 L 128.9547,0.5617 L 128.9407,0.5477 L 128.9266,0.5477 L 128.9126,0.5337 L 91.1625,0.5337 L 91.0500,0.5337 Z" stroke="#A8A6A3" stroke-width="0.1201" stroke-linecap="round" stroke-linejoin="round" fill="none"/>
        <path d="M 41.7149,11.6280 L 41.7149,11.5718 L 41.6867,11.5297 L 41.6727,11.4876 L 41.5883,11.4033 L 41.5461,11.3893 L 41.5040,11.3612 L 39.4934,11.3612 L 39.4513,11.3893 L 39.4091,11.4033 L 39.3247,11.4876 L 39.3107,11.5297 L 39.2825,11.5718 L 39.2825,11.6842 L 39.3107,11.7263 L 39.3247,11.7685 L 39.4091,11.8527 L 39.4513,11.8668 L 39.4934,11.8948 L 41.5040,11.8948 L 41.5461,11.8668 L 41.5883,11.8527 L 41.6727,11.7685 L 41.6867,11.7263 L 41.7149,11.6842 L 41.7149,11.6280 Z" stroke="#00FF00" stroke-width="0.1201" stroke-linecap="round" stroke-linejoin="round" fill="#00FF00"/>
        <path d="M 58.4880,2.4155 L 54.3826,2.4155 L 54.3826,10.2518 L 58.4880,10.2518 L 58.4880,2.4155 Z" stroke="#000000" stroke-width="0.1201" stroke-linecap="round" stroke-linejoin="round" fill="#7F7F7F"/>
        <path d="M 58.4880,5.4910 L 54.3826,5.4910 L 54.3826,7.1903 L 58.4880,7.1903 L 58.4880,5.4910 Z" stroke="#000000" stroke-width="0.1201" stroke-linecap="round" stroke-linejoin="round" fill="#7F7F7F"/>
        <path d="M 54.3545,2.4155 L 50.2490,2.4155 L 50.2490,10.2518 L 54.3545,10.2518 L 54.3545,2.4155 Z" stroke="#000000" stroke-width="0.1201" stroke-linecap="round" stroke-linejoin="round" fill="#7F7F7F"/>
        <path d="M 54.3545,5.4910 L 50.2490,5.4910 L 50.2490,7.1903 L 54.3545,7.1903 L 54.3545,5.4910 Z" stroke="#000000" stroke-width="0.1201" stroke-linecap="round" stroke-linejoin="round" fill="#7F7F7F"/>
        <path d="M 50.9520,6.8673 L 51.5144,5.8983 L 50.3896,5.8983 L 50.9520,6.8673 Z" stroke="#494949" stroke-width="0.1201" stroke-linecap="round" stroke-linejoin="round" fill="#00FF00"/>
        <path d="M 53.6655,5.8983 L 53.1031,6.8673 L 54.2279,6.8673 L 53.6655,5.8983 Z" stroke="#494949" stroke-width="0.1201" stroke-linecap="round" stroke-linejoin="round" fill="#00FF00"/>
        <path d="M 55.0715,6.8673 L 55.6339,5.8983 L 54.5091,5.8983 L 55.0715,6.8673 Z" stroke="#494949" stroke-width="0.1201" stroke-linecap="round" stroke-linejoin="round" fill="#00FF00"/>
        <path d="M 57.7850,5.8983 L 57.2226,6.8673 L 58.3474,6.8673 L 57.7850,5.8983 Z" stroke="#494949" stroke-width="0.1201" stroke-linecap="round" stroke-linejoin="round" fill="#00FF00"/>
        <path d="M 30.7343,4.2692 L 26.3477,4.2692 L 26.3477,10.2518 L 30.7343,10.2518 L 30.7343,4.2692 Z" stroke="#000000" stroke-width="0.1201" stroke-linecap="round" stroke-linejoin="round" fill="#7F7F7F"/>
        <path d="M 30.7343,8.2014 L 26.3477,8.2014 L 26.3477,10.2518 L 30.7343,10.2518 L 30.7343,8.2014 Z" stroke="#000000" stroke-width="0.1201" stroke-linecap="round" stroke-linejoin="round" fill="#7F7F7F"/>
        <path d="M 36.7096,2.4155 L 32.3230,2.4155 L 32.3230,10.2518 L 36.7096,10.2518 L 36.7096,2.4155 Z" stroke="#000000" stroke-width="0.1201" stroke-linecap="round" stroke-linejoin="round" fill="#7F7F7F"/>
        <path d="M 36.7096,2.4155 L 32.3230,2.4155 L 32.3230,6.3196 L 36.7096,6.3196 L 36.7096,2.4155 Z" stroke="#000000" stroke-width="0.1201" stroke-linecap="round" stroke-linejoin="round" fill="#7F7F7F"/>
        <path d="M 42.6850,2.4155 L 38.2984,2.4155 L 38.2984,10.2518 L 42.6850,10.2518 L 42.6850,2.4155 Z" stroke="#000000" stroke-width="0.1201" stroke-linecap="round" stroke-linejoin="round" fill="#7F7F7F"/>
        <path d="M 42.6850,2.4155 L 38.2984,2.4155 L 38.2984,6.3196 L 42.6850,6.3196 L 42.6850,2.4155 Z" stroke="#000000" stroke-width="0.1201" stroke-linecap="round" stroke-linejoin="round" fill="#7F7F7F"/>
        <path d="M 15.8733,10.0692 L 15.8733,10.0130 L 15.8452,9.9709 L 15.8311,9.9288 L 15.7468,9.8445 L 15.7046,9.8304 L 15.6624,9.8024 L 14.0596,9.8024 L 14.0174,9.8304 L 13.9753,9.8445 L 13.8909,9.9288 L 13.8768,9.9709 L 13.8487,10.0130 L 13.8487,10.1254 L 13.8768,10.1675 L 13.8909,10.2096 L 13.9753,10.2939 L 14.0174,10.3079 L 14.0596,10.3360 L 15.6624,10.3360 L 15.7046,10.3079 L 15.7468,10.2939 L 15.8311,10.2096 L 15.8452,10.1675 L 15.8733,10.1254 L 15.8733,10.0692 Z" stroke="#000000" stroke-width="0.1201" stroke-linecap="round" stroke-linejoin="round" fill="#494949"/>
        <path d="M 12.8927,10.0692 L 12.8927,10.0130 L 12.8645,9.9709 L 12.8505,9.9288 L 12.7661,9.8445 L 12.7239,9.8304 L 12.6818,9.8024 L 11.0790,9.8024 L 11.0368,9.8304 L 10.9946,9.8445 L 10.9103,9.9288 L 10.8962,9.9709 L 10.8681,10.0130 L 10.8681,10.1254 L 10.8962,10.1675 L 10.9103,10.2096 L 10.9946,10.2939 L 11.0368,10.3079 L 11.0790,10.3360 L 12.6818,10.3360 L 12.7239,10.3079 L 12.7661,10.2939 L 12.8505,10.2096 L 12.8645,10.1675 L 12.8927,10.1254 L 12.8927,10.0692 Z" stroke="#000000" stroke-width="0.1201" stroke-linecap="round" stroke-linejoin="round" fill="#494949"/>
        <ellipse cx="11.4797" cy="10.0060" rx="0.2039" ry="0.2036" fill="#BFBFBF" stroke="#000000" stroke-width="0.1201" stroke-linecap="round" stroke-linejoin="round"/>
        <ellipse cx="11.4797" cy="10.0060" rx="0.2039" ry="0.2036" fill="none" stroke="#000000" stroke-width="0.1201" stroke-linecap="round" stroke-linejoin="round"/>
        <ellipse cx="14.5517" cy="10.0060" rx="0.2109" ry="0.2036" fill="#BFBFBF" stroke="#000000" stroke-width="0.1201" stroke-linecap="round" stroke-linejoin="round"/>
        <ellipse cx="14.5517" cy="10.0060" rx="0.2109" ry="0.2036" fill="none" stroke="#000000" stroke-width="0.1201" stroke-linecap="round" stroke-linejoin="round"/>
        <path d="M 47.6902,11.6280 L 47.6902,11.5718 L 47.6621,11.5297 L 47.6480,11.4876 L 47.5637,11.4033 L 47.5215,11.3893 L 47.4793,11.3612 L 45.4688,11.3612 L 45.4266,11.3893 L 45.3844,11.4033 L 45.3001,11.4876 L 45.2860,11.5297 L 45.2579,11.5718 L 45.2579,11.6842 L 45.2860,11.7263 L 45.3001,11.7685 L 45.3844,11.8527 L 45.4266,11.8668 L 45.4688,11.8948 L 47.4793,11.8948 L 47.5215,11.8668 L 47.5637,11.8527 L 47.6480,11.7685 L 47.6621,11.7263 L 47.6902,11.6842 L 47.6902,11.6280 Z" stroke="#00FF00" stroke-width="0.1201" stroke-linecap="round" stroke-linejoin="round" fill="#00FF00"/>
        <path d="M 48.6603,2.4155 L 44.2737,2.4155 L 44.2737,10.2518 L 48.6603,10.2518 L 48.6603,2.4155 Z" stroke="#000000" stroke-width="0.1201" stroke-linecap="round" stroke-linejoin="round" fill="#7F7F7F"/>
        <path d="M 48.6603,2.4155 L 44.2737,2.4155 L 44.2737,6.3196 L 48.6603,6.3196 L 48.6603,2.4155 Z" stroke="#000000" stroke-width="0.1201" stroke-linecap="round" stroke-linejoin="round" fill="#7F7F7F"/>
        <path d="M 63.4932,11.6280 L 63.4932,11.5718 L 63.4651,11.5297 L 63.4510,11.4876 L 63.3667,11.4033 L 63.3245,11.3893 L 63.2823,11.3612 L 61.2718,11.3612 L 61.2296,11.3893 L 61.1874,11.4033 L 61.1031,11.4876 L 61.0890,11.5297 L 61.0609,11.5718 L 61.0609,11.6842 L 61.0890,11.7263 L 61.1031,11.7685 L 61.1874,11.8527 L 61.2296,11.8668 L 61.2718,11.8948 L 63.2823,11.8948 L 63.3245,11.8668 L 63.3667,11.8527 L 63.4510,11.7685 L 63.4651,11.7263 L 63.4932,11.6842 L 63.4932,11.6280 Z" stroke="#00FF00" stroke-width="0.1201" stroke-linecap="round" stroke-linejoin="round" fill="#00FF00"/>
        <path d="M 69.4685,11.6280 L 69.4685,11.5718 L 69.4404,11.5297 L 69.4264,11.4876 L 69.3420,11.4033 L 69.2998,11.3893 L 69.2576,11.3612 L 67.2471,11.3612 L 67.2049,11.3893 L 67.1628,11.4033 L 67.0784,11.4876 L 67.0643,11.5297 L 67.0362,11.5718 L 67.0362,11.6842 L 67.0643,11.7263 L 67.0784,11.7685 L 67.1628,11.8527 L 67.2049,11.8668 L 67.2471,11.8948 L 69.2576,11.8948 L 69.2998,11.8668 L 69.3420,11.8527 L 69.4264,11.7685 L 69.4404,11.7263 L 69.4685,11.6842 L 69.4685,11.6280 Z" stroke="#00FF00" stroke-width="0.1201" stroke-linecap="round" stroke-linejoin="round" fill="#00FF00"/>
        <path d="M 85.2715,11.6280 L 85.2715,11.5718 L 85.2434,11.5297 L 85.2294,11.4876 L 85.1450,11.4033 L 85.1028,11.3893 L 85.0606,11.3612 L 83.0501,11.3612 L 83.0079,11.3893 L 82.9658,11.4033 L 82.8814,11.4876 L 82.8673,11.5297 L 82.8392,11.5718 L 82.8392,11.6842 L 82.8673,11.7263 L 82.8814,11.7685 L 82.9658,11.8527 L 83.0079,11.8668 L 83.0501,11.8948 L 85.0606,11.8948 L 85.1028,11.8668 L 85.1450,11.8527 L 85.2294,11.7685 L 85.2434,11.7263 L 85.2715,11.6842 L 85.2715,11.6280 Z" stroke="#00FF00" stroke-width="0.1201" stroke-linecap="round" stroke-linejoin="round" fill="#00FF00"/>
        <path d="M 91.2469,11.6280 L 91.2469,11.5718 L 91.2187,11.5297 L 91.2047,11.4876 L 91.1203,11.4033 L 91.0782,11.3893 L 91.0360,11.3612 L 89.0254,11.3612 L 88.9833,11.3893 L 88.9411,11.4033 L 88.8567,11.4876 L 88.8427,11.5297 L 88.8146,11.5718 L 88.8146,11.6842 L 88.8427,11.7263 L 88.8567,11.7685 L 88.9411,11.8527 L 88.9833,11.8668 L 89.0254,11.8948 L 91.0360,11.8948 L 91.0782,11.8668 L 91.1203,11.8527 L 91.2047,11.7685 L 91.2187,11.7263 L 91.2469,11.6842 L 91.2469,11.6280 Z" stroke="#00FF00" stroke-width="0.1201" stroke-linecap="round" stroke-linejoin="round" fill="#00FF00"/>
        <path d="M 107.0499,11.6280 L 107.0499,11.5718 L 107.0217,11.5297 L 107.0077,11.4876 L 106.9233,11.4033 L 106.8812,11.3893 L 106.8390,11.3612 L 104.8284,11.3612 L 104.7863,11.3893 L 104.7441,11.4033 L 104.6597,11.4876 L 104.6457,11.5297 L 104.6176,11.5718 L 104.6176,11.6842 L 104.6457,11.7263 L 104.6597,11.7685 L 104.7441,11.8527 L 104.7863,11.8668 L 104.8284,11.8948 L 106.8390,11.8948 L 106.8812,11.8668 L 106.9233,11.8527 L 107.0077,11.7685 L 107.0217,11.7263 L 107.0499,11.6842 L 107.0499,11.6280 Z" stroke="#00FF00" stroke-width="0.1201" stroke-linecap="round" stroke-linejoin="round" fill="#00FF00"/>
        <path d="M 108.0200,2.4155 L 103.6334,2.4155 L 103.6334,10.2518 L 108.0200,10.2518 L 108.0200,2.4155 Z" stroke="#000000" stroke-width="0.1201" stroke-linecap="round" stroke-linejoin="round" fill="#7F7F7F"/>
        <path d="M 108.0200,2.4155 L 103.6334,2.4155 L 103.6334,6.3196 L 108.0200,6.3196 L 108.0200,2.4155 Z" stroke="#000000" stroke-width="0.1201" stroke-linecap="round" stroke-linejoin="round" fill="#7F7F7F"/>
        <path d="M 113.0252,11.6280 L 113.0252,11.5718 L 112.9971,11.5297 L 112.9830,11.4876 L 112.8987,11.4033 L 112.8565,11.3893 L 112.8143,11.3612 L 110.8038,11.3612 L 110.7616,11.3893 L 110.7194,11.4033 L 110.6351,11.4876 L 110.6210,11.5297 L 110.5929,11.5718 L 110.5929,11.6842 L 110.6210,11.7263 L 110.6351,11.7685 L 110.7194,11.8527 L 110.7616,11.8668 L 110.8038,11.8948 L 112.8143,11.8948 L 112.8565,11.8668 L 112.8987,11.8527 L 112.9830,11.7685 L 112.9971,11.7263 L 113.0252,11.6842 L 113.0252,11.6280 Z" stroke="#00FF00" stroke-width="0.1201" stroke-linecap="round" stroke-linejoin="round" fill="#00FF00"/>
        <path d="M 113.9953,2.4155 L 109.6087,2.4155 L 109.6087,10.2518 L 113.9953,10.2518 L 113.9953,2.4155 Z" stroke="#000000" stroke-width="0.1201" stroke-linecap="round" stroke-linejoin="round" fill="#7F7F7F"/>
        <path d="M 113.9953,2.4155 L 109.6087,2.4155 L 109.6087,6.3196 L 113.9953,6.3196 L 113.9953,2.4155 Z" stroke="#000000" stroke-width="0.1201" stroke-linecap="round" stroke-linejoin="round" fill="#7F7F7F"/>
        <path d="M 122.1499,8.1733 L 122.1499,10.7573 L 126.3678,10.7573 L 126.3678,8.1733 L 122.1499,8.1733 Z" stroke="#D6D5D4" stroke-width="0.1201" stroke-linecap="round" stroke-linejoin="round" fill="#EFEFEF"/>
        <path d="M 127.1832,7.5694 L 129.1235,7.5694 L 129.1235,5.0135 L 127.1832,5.0135 L 127.1832,7.5694 Z" stroke="#D6D5D4" stroke-width="0.1201" stroke-linecap="round" stroke-linejoin="round" fill="#EFEFEF"/>
        <path d="M 121.3766,8.1874 L 121.3766,10.7854 L 120.5612,10.7854 L 120.4065,10.7714 L 120.2378,10.7573 L 120.0831,10.7433 L 119.9425,10.7292 L 119.6332,10.6731 L 119.4926,10.6450 L 119.3520,10.6028 L 119.2255,10.5467 L 119.0849,10.5045 L 118.9584,10.4343 L 118.8459,10.3781 L 118.7193,10.2939 L 118.6209,10.2096 L 118.5084,10.1254 L 118.3116,9.9007 L 118.2273,9.7883 L 118.0867,9.5074 L 118.0164,9.3530 L 117.9601,9.1985 L 117.8758,8.8334 L 117.8336,8.6227 L 117.8195,8.4121 L 117.8055,8.1874 L 121.3625,8.1874 L 121.3766,8.1874 Z" stroke="#D6D5D4" stroke-width="0.1201" stroke-linecap="round" stroke-linejoin="round" fill="#EFEFEF"/>
        <path d="M 122.1499,1.8257 L 122.1499,4.4097 L 126.3678,4.4097 L 126.3678,1.8257 L 122.1499,1.8257 Z" stroke="#D6D5D4" stroke-width="0.1201" stroke-linecap="round" stroke-linejoin="round" fill="#EFEFEF"/>
        <path d="M 121.3766,4.3956 L 121.3766,1.7976 L 120.5612,1.7976 L 120.4065,1.8116 L 120.2378,1.8257 L 120.0831,1.8397 L 119.9425,1.8537 L 119.6332,1.9099 L 119.4926,1.9380 L 119.3520,1.9801 L 119.2255,2.0363 L 119.0849,2.0784 L 118.9584,2.1487 L 118.8459,2.2048 L 118.7193,2.2891 L 118.6209,2.3734 L 118.5084,2.4576 L 118.3116,2.6823 L 118.2273,2.7947 L 118.0867,3.0755 L 118.0164,3.2300 L 117.9601,3.3845 L 117.8758,3.7496 L 117.8336,3.9603 L 117.8195,4.1709 L 117.8055,4.3956 L 121.3625,4.3956 L 121.3766,4.3956 Z" stroke="#D6D5D4" stroke-width="0.1201" stroke-linecap="round" stroke-linejoin="round" fill="#EFEFEF"/>
        <path d="M 127.1832,8.1733 L 127.1832,10.7573 L 129.1235,10.7573 L 129.1235,8.1733 L 127.1832,8.1733 Z" stroke="#D6D5D4" stroke-width="0.1201" stroke-linecap="round" stroke-linejoin="round" fill="#EFEFEF"/>
        <path d="M 127.1832,1.8257 L 127.1832,4.4097 L 129.1235,4.4097 L 129.1235,1.8257 L 127.1832,1.8257 Z" stroke="#D6D5D4" stroke-width="0.1201" stroke-linecap="round" stroke-linejoin="round" fill="#EFEFEF"/>
        <path d="M 123.8230,2.4155 L 119.7176,2.4155 L 119.7176,10.2518 L 123.8230,10.2518 L 123.8230,2.4155 Z" stroke="#000000" stroke-width="0.1201" stroke-linecap="round" stroke-linejoin="round" fill="#7F7F7F"/>
        <path d="M 123.8230,5.4910 L 119.7176,5.4910 L 119.7176,7.1903 L 123.8230,7.1903 L 123.8230,5.4910 Z" stroke="#000000" stroke-width="0.1201" stroke-linecap="round" stroke-linejoin="round" fill="#7F7F7F"/>
        <path d="M 119.6895,2.4155 L 115.5840,2.4155 L 115.5840,10.2518 L 119.6895,10.2518 L 119.6895,2.4155 Z" stroke="#000000" stroke-width="0.1201" stroke-linecap="round" stroke-linejoin="round" fill="#7F7F7F"/>
        <path d="M 119.6895,5.4910 L 115.5840,5.4910 L 115.5840,7.1903 L 119.6895,7.1903 L 119.6895,5.4910 Z" stroke="#000000" stroke-width="0.1201" stroke-linecap="round" stroke-linejoin="round" fill="#7F7F7F"/>
        <path d="M 116.2870,6.8673 L 116.8494,5.8983 L 115.7246,5.8983 L 116.2870,6.8673 Z" stroke="#494949" stroke-width="0.1201" stroke-linecap="round" stroke-linejoin="round" fill="#00FF00"/>
        <path d="M 119.0005,5.8983 L 118.4382,6.8673 L 119.5629,6.8673 L 119.0005,5.8983 Z" stroke="#494949" stroke-width="0.1201" stroke-linecap="round" stroke-linejoin="round" fill="#00FF00"/>
        <path d="M 120.4065,6.8673 L 120.9689,5.8983 L 119.8441,5.8983 L 120.4065,6.8673 Z" stroke="#494949" stroke-width="0.1201" stroke-linecap="round" stroke-linejoin="round" fill="#00FF00"/>
        <path d="M 123.1200,5.8983 L 122.5576,6.8673 L 123.6824,6.8673 L 123.1200,5.8983 Z" stroke="#494949" stroke-width="0.1201" stroke-linecap="round" stroke-linejoin="round" fill="#00FF00"/>
        <path d="M 38.2984,2.0223 L 38.2984,1.0954 L 44.5408,1.0954 " stroke="#000000" stroke-width="0.1201" stroke-linecap="round" stroke-linejoin="round" fill="none"/>
        <path d="M 58.4880,2.0223 L 58.4880,1.0954 L 52.2455,1.0954 " stroke="#000000" stroke-width="0.1201" stroke-linecap="round" stroke-linejoin="round" fill="none"/>
        <path d="M 80.2663,2.4155 L 76.1609,2.4155 L 76.1609,10.2518 L 80.2663,10.2518 L 80.2663,2.4155 Z" stroke="#000000" stroke-width="0.1201" stroke-linecap="round" stroke-linejoin="round" fill="#7F7F7F"/>
        <path d="M 80.2663,5.4910 L 76.1609,5.4910 L 76.1609,7.1903 L 80.2663,7.1903 L 80.2663,5.4910 Z" stroke="#000000" stroke-width="0.1201" stroke-linecap="round" stroke-linejoin="round" fill="#7F7F7F"/>
        <path d="M 76.1328,2.4155 L 72.0274,2.4155 L 72.0274,10.2518 L 76.1328,10.2518 L 76.1328,2.4155 Z" stroke="#000000" stroke-width="0.1201" stroke-linecap="round" stroke-linejoin="round" fill="#7F7F7F"/>
        <path d="M 76.1328,5.4910 L 72.0274,5.4910 L 72.0274,7.1903 L 76.1328,7.1903 L 76.1328,5.4910 Z" stroke="#000000" stroke-width="0.1201" stroke-linecap="round" stroke-linejoin="round" fill="#7F7F7F"/>
        <path d="M 72.7304,6.8673 L 73.2927,5.8983 L 72.1680,5.8983 L 72.7304,6.8673 Z" stroke="#494949" stroke-width="0.1201" stroke-linecap="round" stroke-linejoin="round" fill="#00FF00"/>
        <path d="M 75.4439,5.8983 L 74.8815,6.8673 L 76.0062,6.8673 L 75.4439,5.8983 Z" stroke="#494949" stroke-width="0.1201" stroke-linecap="round" stroke-linejoin="round" fill="#00FF00"/>
        <path d="M 76.8498,6.8673 L 77.4122,5.8983 L 76.2874,5.8983 L 76.8498,6.8673 Z" stroke="#494949" stroke-width="0.1201" stroke-linecap="round" stroke-linejoin="round" fill="#00FF00"/>
        <path d="M 79.5633,5.8983 L 79.0009,6.8673 L 80.1257,6.8673 L 79.5633,5.8983 Z" stroke="#494949" stroke-width="0.1201" stroke-linecap="round" stroke-linejoin="round" fill="#00FF00"/>
        <path d="M 64.4633,2.4155 L 60.0767,2.4155 L 60.0767,10.2518 L 64.4633,10.2518 L 64.4633,2.4155 Z" stroke="#000000" stroke-width="0.1201" stroke-linecap="round" stroke-linejoin="round" fill="#7F7F7F"/>
        <path d="M 64.4633,2.4155 L 60.0767,2.4155 L 60.0767,6.3196 L 64.4633,6.3196 L 64.4633,2.4155 Z" stroke="#000000" stroke-width="0.1201" stroke-linecap="round" stroke-linejoin="round" fill="#7F7F7F"/>
        <path d="M 70.4386,2.4155 L 66.0520,2.4155 L 66.0520,10.2518 L 70.4386,10.2518 L 70.4386,2.4155 Z" stroke="#000000" stroke-width="0.1201" stroke-linecap="round" stroke-linejoin="round" fill="#7F7F7F"/>
        <path d="M 70.4386,2.4155 L 66.0520,2.4155 L 66.0520,6.3196 L 70.4386,6.3196 L 70.4386,2.4155 Z" stroke="#000000" stroke-width="0.1201" stroke-linecap="round" stroke-linejoin="round" fill="#7F7F7F"/>
        <path d="M 60.0767,2.0223 L 60.0767,1.0954 L 66.3192,1.0954 " stroke="#000000" stroke-width="0.1201" stroke-linecap="round" stroke-linejoin="round" fill="none"/>
        <path d="M 80.2663,2.0223 L 80.2663,1.0954 L 74.0238,1.0954 " stroke="#000000" stroke-width="0.1201" stroke-linecap="round" stroke-linejoin="round" fill="none"/>
        <path d="M 102.0446,2.4155 L 97.9392,2.4155 L 97.9392,10.2518 L 102.0446,10.2518 L 102.0446,2.4155 Z" stroke="#000000" stroke-width="0.1201" stroke-linecap="round" stroke-linejoin="round" fill="#7F7F7F"/>
        <path d="M 102.0446,5.4910 L 97.9392,5.4910 L 97.9392,7.1903 L 102.0446,7.1903 L 102.0446,5.4910 Z" stroke="#000000" stroke-width="0.1201" stroke-linecap="round" stroke-linejoin="round" fill="#7F7F7F"/>
        <path d="M 97.9111,2.4155 L 93.8057,2.4155 L 93.8057,10.2518 L 97.9111,10.2518 L 97.9111,2.4155 Z" stroke="#000000" stroke-width="0.1201" stroke-linecap="round" stroke-linejoin="round" fill="#7F7F7F"/>
        <path d="M 97.9111,5.4910 L 93.8057,5.4910 L 93.8057,7.1903 L 97.9111,7.1903 L 97.9111,5.4910 Z" stroke="#000000" stroke-width="0.1201" stroke-linecap="round" stroke-linejoin="round" fill="#7F7F7F"/>
        <path d="M 94.5087,6.8673 L 95.0711,5.8983 L 93.9463,5.8983 L 94.5087,6.8673 Z" stroke="#494949" stroke-width="0.1201" stroke-linecap="round" stroke-linejoin="round" fill="#00FF00"/>
        <path d="M 97.2222,5.8983 L 96.6598,6.8673 L 97.7846,6.8673 L 97.2222,5.8983 Z" stroke="#494949" stroke-width="0.1201" stroke-linecap="round" stroke-linejoin="round" fill="#00FF00"/>
        <path d="M 98.6282,6.8673 L 99.1905,5.8983 L 98.0658,5.8983 L 98.6282,6.8673 Z" stroke="#494949" stroke-width="0.1201" stroke-linecap="round" stroke-linejoin="round" fill="#00FF00"/>
        <path d="M 101.3417,5.8983 L 100.7793,6.8673 L 101.9040,6.8673 L 101.3417,5.8983 Z" stroke="#494949" stroke-width="0.1201" stroke-linecap="round" stroke-linejoin="round" fill="#00FF00"/>
        <path d="M 86.2416,2.4155 L 81.8550,2.4155 L 81.8550,10.2518 L 86.2416,10.2518 L 86.2416,2.4155 Z" stroke="#000000" stroke-width="0.1201" stroke-linecap="round" stroke-linejoin="round" fill="#7F7F7F"/>
        <path d="M 86.2416,2.4155 L 81.8550,2.4155 L 81.8550,6.3196 L 86.2416,6.3196 L 86.2416,2.4155 Z" stroke="#000000" stroke-width="0.1201" stroke-linecap="round" stroke-linejoin="round" fill="#7F7F7F"/>
        <path d="M 92.2170,2.4155 L 87.8304,2.4155 L 87.8304,10.2518 L 92.2170,10.2518 L 92.2170,2.4155 Z" stroke="#000000" stroke-width="0.1201" stroke-linecap="round" stroke-linejoin="round" fill="#7F7F7F"/>
        <path d="M 92.2170,2.4155 L 87.8304,2.4155 L 87.8304,6.3196 L 92.2170,6.3196 L 92.2170,2.4155 Z" stroke="#000000" stroke-width="0.1201" stroke-linecap="round" stroke-linejoin="round" fill="#7F7F7F"/>
        <path d="M 81.8550,2.0223 L 81.8550,1.0954 L 88.0975,1.0954 " stroke="#000000" stroke-width="0.1201" stroke-linecap="round" stroke-linejoin="round" fill="none"/>
        <path d="M 102.0446,2.0223 L 102.0446,1.0954 L 95.8022,1.0954 " stroke="#000000" stroke-width="0.1201" stroke-linecap="round" stroke-linejoin="round" fill="none"/>
        <path d="M 103.6334,2.0223 L 103.6334,1.0954 L 109.8758,1.0954 " stroke="#000000" stroke-width="0.1201" stroke-linecap="round" stroke-linejoin="round" fill="none"/>
        <path d="M 123.8230,2.0223 L 123.8230,1.0954 L 117.5805,1.0954 " stroke="#000000" stroke-width="0.1201" stroke-linecap="round" stroke-linejoin="round" fill="none"/>
        <path d="M 8.5141,2.9102 L 8.4959,2.9102 L 8.4868,2.9016 L 8.4777,2.9016 L 8.4504,2.8756 L 8.4504,2.8669 L 8.4413,2.8583 L 8.4413,1.8535 L 8.4504,1.8449 L 8.4504,1.8362 L 8.4595,1.8276 L 8.4686,1.8276 L 8.4686,1.8189 L 8.4777,1.8102 L 8.4868,1.8102 L 8.4959,1.8016 L 9.7344,1.8016 L 9.7435,1.8102 L 9.7526,1.8102 L 9.7799,1.8362 L 9.7799,1.8449 L 9.7890,1.8535 L 9.7890,2.0528 L 9.7799,2.0528 L 9.7799,2.0441 L 9.7708,2.0441 L 9.7708,2.0354 L 9.7617,2.0354 L 9.7617,2.0268 L 9.7435,2.0268 L 9.7435,2.0181 L 8.7418,2.0181 L 8.7418,2.0268 L 8.7236,2.0268 L 8.7236,2.0354 L 8.7145,2.0354 L 8.7145,2.0528 L 8.7054,2.0528 L 8.7054,2.8756 L 8.7145,2.8756 L 8.7145,2.8929 L 8.7236,2.8929 L 8.7236,2.9016 L 8.7327,2.9016 L 8.7327,2.9102 L 8.5233,2.9102 L 8.5141,2.9102 Z" stroke="#000000" stroke-width="0.1201" stroke-linecap="round" stroke-linejoin="round" fill="#000000"/>
        <path d="M 9.6979,2.2693 L 8.7964,2.2693 L 8.7964,2.2606 L 8.7782,2.2606 L 8.7782,2.2520 L 8.7691,2.2520 L 8.7691,2.2347 L 8.7600,2.2347 L 8.7600,2.4512 L 8.7691,2.4512 L 8.7691,2.4685 L 8.7782,2.4685 L 8.7782,2.4772 L 8.7964,2.4772 L 8.7964,2.4858 L 9.7161,2.4858 L 9.7344,2.4685 L 9.7435,2.4685 L 9.7617,2.4512 L 9.7617,2.4425 L 9.7708,2.4339 L 9.7708,2.4252 L 9.7799,2.4165 L 9.7799,2.3992 L 9.7890,2.3906 L 9.7890,2.3646 L 9.7799,2.3559 L 9.7799,2.3299 L 9.7617,2.3126 L 9.7617,2.3039 L 9.7526,2.2953 L 9.7435,2.2953 L 9.7435,2.2866 L 9.7344,2.2866 L 9.7252,2.2780 L 9.7161,2.2780 L 9.7070,2.2693 L 9.6979,2.2693 Z" stroke="#000000" stroke-width="0.1201" stroke-linecap="round" stroke-linejoin="round" fill="#000000"/>
        <path d="M 11.8014,2.4858 L 11.7832,2.4858 L 11.7832,2.4772 L 11.7650,2.4772 L 11.7650,2.4685 L 11.7559,2.4685 L 11.7559,2.4512 L 11.7468,2.4512 L 11.7468,2.2347 L 11.7559,2.2347 L 11.7559,2.2520 L 11.7650,2.2520 L 11.7650,2.2606 L 11.7832,2.2606 L 11.7832,2.2693 L 12.5117,2.2693 L 12.5117,2.0181 L 11.7286,2.0181 L 11.7286,2.0268 L 11.7104,2.0268 L 11.7104,2.0354 L 11.7013,2.0354 L 11.7013,2.0528 L 11.6922,2.0528 L 11.6922,2.8756 L 11.7013,2.8756 L 11.7013,2.8929 L 11.7104,2.8929 L 11.7104,2.9016 L 11.7195,2.9016 L 11.7195,2.9102 L 11.4827,2.9102 L 11.4736,2.9016 L 11.4645,2.9016 L 11.4372,2.8756 L 11.4372,2.8669 L 11.4281,2.8583 L 11.4281,1.8535 L 11.4372,1.8449 L 11.4372,1.8362 L 11.4463,1.8276 L 11.4554,1.8276 L 11.4554,1.8189 L 11.4645,1.8102 L 11.4736,1.8102 L 11.4827,1.8016 L 12.7211,1.8016 L 12.7302,1.8102 L 12.7393,1.8102 L 12.7667,1.8362 L 12.7667,1.8449 L 12.7758,1.8535 L 12.7758,2.3992 L 12.7667,2.4079 L 12.7667,2.4252 L 12.7576,2.4252 L 12.7576,2.4339 L 12.7485,2.4425 L 12.7485,2.4512 L 12.7393,2.4512 L 12.7393,2.4599 L 12.7302,2.4599 L 12.7302,2.4685 L 12.7211,2.4685 L 12.7211,2.4772 L 12.7120,2.4772 L 12.7029,2.4858 L 12.7120,2.4945 L 12.7211,2.4945 L 12.7211,2.5032 L 12.7302,2.5032 L 12.7302,2.5118 L 12.7393,2.5118 L 12.7393,2.5205 L 12.7485,2.5205 L 12.7485,2.5291 L 12.7576,2.5378 L 12.7576,2.5465 L 12.7667,2.5465 L 12.7667,2.5638 L 12.7758,2.5724 L 12.7758,2.8756 L 12.7849,2.8756 L 12.7849,2.8929 L 12.7940,2.8929 L 12.7940,2.9016 L 12.8031,2.9016 L 12.8031,2.9102 L 12.5663,2.9102 L 12.5572,2.9016 L 12.5481,2.9016 L 12.5208,2.8756 L 12.5208,2.8669 L 12.5117,2.8583 L 12.5117,2.4858 L 11.8105,2.4858 L 11.8014,2.4858 Z" stroke="#000000" stroke-width="0.1201" stroke-linecap="round" stroke-linejoin="round" fill="#000000"/>
        <path d="M 13.2493,2.0181 L 12.9761,2.0181 L 12.9670,2.0095 L 12.9579,2.0095 L 12.9306,1.9835 L 12.9306,1.9748 L 12.9215,1.9661 L 12.9215,1.8535 L 12.9306,1.8449 L 12.9306,1.8362 L 12.9397,1.8276 L 12.9488,1.8276 L 12.9488,1.8189 L 12.9579,1.8102 L 12.9670,1.8102 L 12.9761,1.8016 L 14.2145,1.8016 L 14.2236,1.8102 L 14.2327,1.8102 L 14.2601,1.8362 L 14.2601,1.8449 L 14.2692,1.8535 L 14.2692,2.0528 L 14.2601,2.0528 L 14.2601,2.0441 L 14.2509,2.0441 L 14.2509,2.0354 L 14.2418,2.0354 L 14.2418,2.0268 L 14.2236,2.0268 L 14.2236,2.0181 L 13.5498,2.0181 L 13.5498,2.0268 L 13.5316,2.0268 L 13.5316,2.0354 L 13.5225,2.0354 L 13.5225,2.0528 L 13.5134,2.0528 L 13.5134,2.8756 L 13.5225,2.8756 L 13.5225,2.8929 L 13.5316,2.8929 L 13.5316,2.9016 L 13.5407,2.9016 L 13.5407,2.9102 L 13.3039,2.9102 L 13.2948,2.9016 L 13.2857,2.9016 L 13.2584,2.8756 L 13.2584,2.8669 L 13.2493,2.8583 L 13.2493,2.0441 L 13.2493,2.0181 Z" stroke="#000000" stroke-width="0.1201" stroke-linecap="round" stroke-linejoin="round" fill="#000000"/>
        <path d="M 14.6789,2.8496 L 14.6789,2.8756 L 14.6880,2.8756 L 14.6880,2.8929 L 14.6971,2.8929 L 14.6971,2.9016 L 14.7063,2.9016 L 14.7063,2.9102 L 14.4695,2.9102 L 14.4604,2.9016 L 14.4513,2.9016 L 14.4240,2.8756 L 14.4240,2.8669 L 14.4149,2.8583 L 14.4149,1.8362 L 14.4058,1.8362 L 14.4058,1.8189 L 14.3966,1.8189 L 14.3966,1.8102 L 14.3875,1.8102 L 14.3875,1.8016 L 14.6243,1.8016 L 14.6334,1.8102 L 14.6425,1.8102 L 14.6698,1.8362 L 14.6698,1.8449 L 14.6789,1.8535 L 14.6789,2.8410 L 14.6789,2.8496 Z" stroke="#000000" stroke-width="0.1201" stroke-linecap="round" stroke-linejoin="round" fill="#000000"/>
        <path d="M 15.9720,2.0181 L 15.1889,2.0181 L 15.1889,2.0268 L 15.1707,2.0268 L 15.1707,2.0354 L 15.1616,2.0354 L 15.1616,2.0528 L 15.1524,2.0528 L 15.1524,2.8756 L 15.1616,2.8756 L 15.1616,2.8929 L 15.1707,2.8929 L 15.1707,2.9016 L 15.1798,2.9016 L 15.1798,2.9102 L 14.9430,2.9102 L 14.9339,2.9016 L 14.9248,2.9016 L 14.8975,2.8756 L 14.8975,2.8669 L 14.8884,2.8583 L 14.8884,1.8535 L 14.8975,1.8449 L 14.8975,1.8362 L 14.9066,1.8276 L 14.9157,1.8276 L 14.9157,1.8189 L 14.9248,1.8102 L 14.9339,1.8102 L 14.9430,1.8016 L 16.1814,1.8016 L 16.1905,1.8102 L 16.1996,1.8102 L 16.2270,1.8362 L 16.2270,1.8449 L 16.2361,1.8535 L 16.2361,2.8756 L 16.2452,2.8756 L 16.2452,2.8929 L 16.2543,2.8929 L 16.2543,2.9016 L 16.2634,2.9016 L 16.2634,2.9102 L 16.0266,2.9102 L 16.0175,2.9016 L 16.0084,2.9016 L 15.9811,2.8756 L 15.9811,2.8669 L 15.9720,2.8583 L 15.9720,2.0441 L 15.9720,2.0181 Z" stroke="#000000" stroke-width="0.1201" stroke-linecap="round" stroke-linejoin="round" fill="#000000"/>
        <path d="M 17.5747,2.2693 L 16.7369,2.2693 L 16.7278,2.2606 L 16.7187,2.2606 L 16.7187,2.2520 L 16.7096,2.2520 L 16.7096,2.2347 L 16.7005,2.2347 L 16.7005,2.4512 L 16.7096,2.4512 L 16.7096,2.4685 L 16.7187,2.4685 L 16.7187,2.4772 L 16.7278,2.4772 L 16.7369,2.4858 L 17.5838,2.4858 L 17.6020,2.4685 L 17.6111,2.4685 L 17.6293,2.4512 L 17.6293,2.4425 L 17.6384,2.4339 L 17.6384,2.4252 L 17.6475,2.4165 L 17.6475,2.3992 L 17.6566,2.3906 L 17.6566,2.3559 L 17.6475,2.3473 L 17.6475,2.3213 L 17.6384,2.3213 L 17.6384,2.3126 L 17.6111,2.2866 L 17.6020,2.2866 L 17.6020,2.2780 L 17.5929,2.2780 L 17.5838,2.2693 L 17.5747,2.2693 Z" stroke="#000000" stroke-width="0.1201" stroke-linecap="round" stroke-linejoin="round" fill="#000000"/>
        <path d="M 18.2030,2.0181 L 17.9298,2.0181 L 17.9207,2.0095 L 17.9116,2.0095 L 17.8843,1.9835 L 17.8843,1.9748 L 17.8752,1.9661 L 17.8752,1.8535 L 17.8843,1.8449 L 17.8843,1.8362 L 17.8934,1.8276 L 17.9025,1.8276 L 17.9025,1.8189 L 17.9116,1.8102 L 17.9207,1.8102 L 17.9298,1.8016 L 19.1682,1.8016 L 19.1773,1.8102 L 19.1864,1.8102 L 19.2137,1.8362 L 19.2137,1.8449 L 19.2228,1.8535 L 19.2228,2.0528 L 19.2137,2.0528 L 19.2137,2.0441 L 19.2046,2.0441 L 19.2046,2.0354 L 19.1955,2.0354 L 19.1955,2.0268 L 19.1773,2.0268 L 19.1773,2.0181 L 18.5035,2.0181 L 18.5035,2.0268 L 18.4853,2.0268 L 18.4853,2.0354 L 18.4761,2.0354 L 18.4761,2.0528 L 18.4670,2.0528 L 18.4670,2.8756 L 18.4761,2.8756 L 18.4761,2.8929 L 18.4853,2.8929 L 18.4853,2.9016 L 18.4944,2.9016 L 18.4944,2.9102 L 18.2576,2.9102 L 18.2485,2.9016 L 18.2394,2.9016 L 18.2121,2.8756 L 18.2121,2.8669 L 18.2030,2.8583 L 18.2030,2.0441 L 18.2030,2.0181 Z" stroke="#000000" stroke-width="0.1201" stroke-linecap="round" stroke-linejoin="round" fill="#000000"/>
        <path d="M 17.6657,2.6937 L 17.6839,2.6937 L 17.6839,2.6850 L 17.7021,2.6850 L 17.7021,2.6764 L 17.7112,2.6764 L 17.7112,2.6677 L 17.7203,2.6677 L 17.7203,2.6591 L 17.7295,2.6591 L 17.7295,2.8583 L 17.7203,2.8669 L 17.7203,2.8756 L 17.7112,2.8843 L 17.7112,2.8929 L 17.7021,2.8929 L 17.6930,2.9016 L 17.6839,2.9016 L 17.6748,2.9102 L 16.4364,2.9102 L 16.4273,2.9016 L 16.4182,2.9016 L 16.3909,2.8756 L 16.3909,2.8669 L 16.3818,2.8583 L 16.3818,1.8535 L 16.3909,1.8449 L 16.3909,1.8362 L 16.4000,1.8276 L 16.4091,1.8276 L 16.4091,1.8189 L 16.4182,1.8102 L 16.4273,1.8102 L 16.4364,1.8016 L 17.6748,1.8016 L 17.6839,1.8102 L 17.6930,1.8102 L 17.7203,1.8362 L 17.7203,1.8449 L 17.7295,1.8535 L 17.7295,2.0528 L 17.7203,2.0528 L 17.7203,2.0441 L 17.7112,2.0441 L 17.7112,2.0354 L 17.7021,2.0354 L 17.7021,2.0268 L 17.6839,2.0268 L 17.6839,2.0181 L 16.6823,2.0181 L 16.6823,2.0268 L 16.6640,2.0268 L 16.6640,2.0354 L 16.6549,2.0354 L 16.6549,2.0528 L 16.6458,2.0528 L 16.6458,2.6937 L 17.6566,2.6937 L 17.6657,2.6937 Z" stroke="#000000" stroke-width="0.1201" stroke-linecap="round" stroke-linejoin="round" fill="#000000"/>
        <path d="M 10.3900,2.5898 L 10.3900,2.9102 L 10.8271,2.9102 L 10.8271,2.5898 L 10.3900,2.5898 Z" stroke="#ED3440" stroke-width="0.1201" stroke-linecap="round" stroke-linejoin="round" fill="#ED3440"/>
        <path d="M 9.9347,2.2000 L 10.3080,2.2000 L 10.3080,2.5118 L 9.9347,2.5118 L 9.9347,2.2000 Z" stroke="#ED3440" stroke-width="0.1201" stroke-linecap="round" stroke-linejoin="round" fill="#ED3440"/>
        <path d="M 10.9090,2.5898 L 10.9090,2.9102 L 11.0456,2.9102 L 11.0547,2.9016 L 11.0912,2.9016 L 11.1003,2.8929 L 11.1185,2.8929 L 11.1367,2.8843 L 11.1458,2.8756 L 11.1640,2.8669 L 11.1822,2.8496 L 11.2004,2.8410 L 11.2095,2.8323 L 11.2186,2.8150 L 11.2277,2.8063 L 11.2642,2.7370 L 11.2642,2.7197 L 11.2733,2.6937 L 11.2733,2.6677 L 11.2824,2.6417 L 11.2824,2.5898 L 10.9181,2.5898 L 10.9090,2.5898 Z" stroke="#ED3440" stroke-width="0.1201" stroke-linecap="round" stroke-linejoin="round" fill="#ED3440"/>
        <path d="M 10.9090,2.2000 L 11.2824,2.2000 L 11.2824,2.5118 L 10.9090,2.5118 L 10.9090,2.2000 Z" stroke="#ED3440" stroke-width="0.1201" stroke-linecap="round" stroke-linejoin="round" fill="#ED3440"/>
        <path d="M 10.3080,2.5898 L 10.3080,2.9102 L 10.1714,2.9102 L 10.1623,2.9016 L 10.1259,2.9016 L 10.1168,2.8929 L 10.0986,2.8929 L 10.0804,2.8843 L 10.0713,2.8756 L 10.0531,2.8669 L 10.0349,2.8496 L 10.0166,2.8410 L 10.0075,2.8323 L 9.9984,2.8150 L 9.9893,2.8063 L 9.9529,2.7370 L 9.9529,2.7197 L 9.9438,2.6937 L 9.9438,2.6677 L 9.9347,2.6417 L 9.9347,2.5898 L 10.2989,2.5898 L 10.3080,2.5898 Z" stroke="#ED3440" stroke-width="0.1201" stroke-linecap="round" stroke-linejoin="round" fill="#ED3440"/>
        <path d="M 10.3900,1.8016 L 10.3900,2.1221 L 10.8271,2.1221 L 10.8271,1.8016 L 10.3900,1.8016 Z" stroke="#ED3440" stroke-width="0.1201" stroke-linecap="round" stroke-linejoin="round" fill="#ED3440"/>
        <path d="M 10.9090,2.1221 L 10.9090,1.8016 L 11.0456,1.8016 L 11.0547,1.8102 L 11.0912,1.8102 L 11.1003,1.8189 L 11.1185,1.8189 L 11.1367,1.8276 L 11.1458,1.8362 L 11.1640,1.8449 L 11.1822,1.8622 L 11.2004,1.8709 L 11.2095,1.8795 L 11.2186,1.8969 L 11.2277,1.9055 L 11.2642,1.9748 L 11.2642,1.9921 L 11.2733,2.0181 L 11.2733,2.0441 L 11.2824,2.0701 L 11.2824,2.1221 L 10.9181,2.1221 L 10.9090,2.1221 Z" stroke="#ED3440" stroke-width="0.1201" stroke-linecap="round" stroke-linejoin="round" fill="#ED3440"/>
        <path d="M 10.3080,2.1221 L 10.3080,1.8016 L 10.1714,1.8016 L 10.1623,1.8102 L 10.1259,1.8102 L 10.1168,1.8189 L 10.0986,1.8189 L 10.0804,1.8276 L 10.0713,1.8362 L 10.0531,1.8449 L 10.0349,1.8622 L 10.0166,1.8709 L 10.0075,1.8795 L 9.9984,1.8969 L 9.9893,1.9055 L 9.9529,1.9748 L 9.9529,1.9921 L 9.9438,2.0181 L 9.9438,2.0441 L 9.9347,2.0701 L 9.9347,2.1221 L 10.2989,2.1221 L 10.3080,2.1221 Z" stroke="#ED3440" stroke-width="0.1201" stroke-linecap="round" stroke-linejoin="round" fill="#ED3440"/>
        <text font-family="Arial" fill="#000000" style="white-space:pre;" font-weight="400" text-anchor="start" x="10.1623" y="2.7003" font-size="0.2094"><![CDATA[FortiDDoS 400B]]></text>
        <text font-family="Arial" fill="#000000" style="white-space:pre;" font-weight="400" text-anchor="start" x="17.2195" y="2.2984" font-size="0.1093"><![CDATA[1]]></text>
        <text font-family="Arial" fill="#000000" style="white-space:pre;" font-weight="400" text-anchor="start" x="17.2195" y="3.6928" font-size="0.1093"><![CDATA[2]]></text>
        <text font-family="Arial" fill="#000000" style="white-space:pre;" font-weight="400" text-anchor="start" x="17.8843" y="2.2984" font-size="0.1093"><![CDATA[3]]></text>
        <text font-family="Arial" fill="#000000" style="white-space:pre;" font-weight="400" text-anchor="start" x="17.8843" y="3.6928" font-size="0.1093"><![CDATA[4]]></text>
        <text font-family="Arial" fill="#000000" style="white-space:pre;" font-weight="400" text-anchor="start" x="15.1980" y="3.7991" font-size="0.0637"><![CDATA[FAIL OPEN]]></text>
        <text font-family="Arial" fill="#000000" style="white-space:pre;" font-weight="400" text-anchor="start" x="16.1632" y="3.7991" font-size="0.0637"><![CDATA[FAIL OPEN]]></text>
        <path d="M 24.9329,4.9469 L 24.2364,4.9469 L 24.2364,5.6436 L 24.9329,5.6436 L 24.9329,4.9469 Z" stroke="#000000" stroke-width="0.1201" stroke-linecap="round" stroke-linejoin="round" fill="#00FF00"/>
        <path d="M 24.9329,6.4100 L 24.2364,6.4100 L 24.2364,7.1068 L 24.9329,7.1068 L 24.9329,6.4100 Z" stroke="#000000" stroke-width="0.1201" stroke-linecap="round" stroke-linejoin="round" fill="#00FF00"/>
        <path d="M 24.9329,7.8209 L 24.2364,7.8209 L 24.2364,8.5177 L 24.9329,8.5177 L 24.9329,7.8209 Z" stroke="#000000" stroke-width="0.1201" stroke-linecap="round" stroke-linejoin="round" fill="#00FF00"/>
        <path d="M 24.9329,9.2841 L 24.2364,9.2841 L 24.2364,9.9809 L 24.9329,9.9809 L 24.9329,9.2841 Z" stroke="#000000" stroke-width="0.1201" stroke-linecap="round" stroke-linejoin="round" fill="#00FF00"/>
        <text font-family="Arial" fill="#000000" style="white-space:pre;" font-weight="400" text-anchor="start" x="31.5317" y="11.3899" font-size="0.1915"><![CDATA[STATUS]]></text>
        <text font-family="Arial" fill="#000000" style="white-space:pre;" font-weight="400" text-anchor="start" x="31.6014" y="11.8080" font-size="0.1915"><![CDATA[ALARM]]></text>
        <text font-family="Arial" fill="#000000" style="white-space:pre;" font-weight="400" text-anchor="start" x="31.9844" y="12.2435" font-size="0.1915"><![CDATA[HA]]></text>
        <text font-family="Arial" fill="#000000" style="white-space:pre;" font-weight="400" text-anchor="start" x="31.6014" y="12.6963" font-size="0.1915"><![CDATA[POWER]]></text>
        <text font-family="Arial" fill="#000000" style="white-space:pre;" font-weight="400" text-anchor="start" x="35.2403" y="10.2734" font-size="0.2089"><![CDATA[MGMT 1]]></text>
        <text font-family="Arial" fill="#000000" style="white-space:pre;" font-weight="400" text-anchor="start" x="35.2751" y="13.1126" font-size="0.2089"><![CDATA[MGMT 2]]></text>
        <text font-family="Arial" fill="#000000" style="white-space:pre;" font-weight="400" text-anchor="start" x="33.5514" y="13.1126" font-size="0.2089"><![CDATA[USB]]></text>
        <text font-family="Arial" fill="#000000" style="white-space:pre;" font-weight="400" text-anchor="start" x="33.2206" y="10.8134" font-size="0.2089"><![CDATA[CONSOLE]]></text>
        <text font-family="Arial" fill="#000000" style="white-space:pre;" font-weight="400" text-anchor="start" x="30.0866" y="13.1126" font-size="0.2089"><![CDATA[USB MGMT]]></text>
        <ellipse cx="24.7350" cy="11.5752" rx="0.3750" ry="0.3753" fill="#666666" stroke="#000000" stroke-width="0.1201" stroke-linecap="round" stroke-linejoin="round"/>
        <ellipse cx="24.7350" cy="11.5752" rx="0.3750" ry="0.3753" fill="none" stroke="#0A0A0A" stroke-width="0.1201" stroke-linecap="round" stroke-linejoin="round"/>
        <ellipse cx="9.7650" cy="9.5484" rx="0.3750" ry="0.3753" fill="#666666" stroke="#000000" stroke-width="0.1201" stroke-linecap="round" stroke-linejoin="round"/>
        <ellipse cx="9.7650" cy="9.5484" rx="0.3750" ry="0.3753" fill="none" stroke="#0A0A0A" stroke-width="0.1201" stroke-linecap="round" stroke-linejoin="round"/>
        <text font-family="Symbol" fill="#000000" style="white-space:pre;" text-anchor="start" x="18.6758" y="2.9161" font-size="0.4820"><![CDATA[]]></text>
        <text font-family="Arial" fill="#000000" style="white-space:pre;" font-weight="400" text-anchor="start" x="23.7946" y="2.8155" font-size="0.0815"><![CDATA[1]]></text>
        <text font-family="Arial" fill="#000000" style="white-space:pre;" font-weight="400" text-anchor="start" x="23.7946" y="3.9360" font-size="0.0815"><![CDATA[2]]></text>
        <text font-family="Arial" fill="#000000" style="white-space:pre;" font-weight="400" text-anchor="start" x="24.5142" y="2.8155" font-size="0.0815"><![CDATA[3]]></text>
        <text font-family="Arial" fill="#000000" style="white-space:pre;" font-weight="400" text-anchor="start" x="24.5142" y="3.9360" font-size="0.0815"><![CDATA[4]]></text>
        <text font-family="Arial" fill="#000000" style="white-space:pre;" font-weight="400" text-anchor="start" x="24.3580" y="2.7389" font-size="0.0815"><![CDATA[SHARED INTERFACES]]></text>
        <text font-family="Arial" fill="#000000" style="white-space:pre;" font-weight="400" text-anchor="start" x="27.8474" y="2.8155" font-size="0.0815"><![CDATA[5]]></text>
        <text font-family="Arial" fill="#000000" style="white-space:pre;" font-weight="400" text-anchor="start" x="27.8474" y="3.9360" font-size="0.0815"><![CDATA[6]]></text>
        <text font-family="Arial" fill="#000000" style="white-space:pre;" font-weight="400" text-anchor="start" x="28.3430" y="2.8155" font-size="0.0815"><![CDATA[7]]></text>
        <text font-family="Arial" fill="#000000" style="white-space:pre;" font-weight="400" text-anchor="start" x="28.3430" y="3.9360" font-size="0.0815"><![CDATA[8]]></text>
        <text font-family="Arial" fill="#000000" style="white-space:pre;" font-weight="400" text-anchor="start" x="26.3403" y="4.0237" font-size="0.0475"><![CDATA[FAIL OPEN]]></text>
        <text font-family="Arial" fill="#000000" style="white-space:pre;" font-weight="400" text-anchor="start" x="27.0599" y="4.0237" font-size="0.0475"><![CDATA[FAIL OPEN]]></text>
        <text font-family="Arial" fill="#000000" style="white-space:pre;" font-weight="400" text-anchor="start" x="26.4218" y="2.8155" font-size="0.0815"><![CDATA[5]]></text>
        <text font-family="Arial" fill="#000000" style="white-space:pre;" font-weight="400" text-anchor="start" x="26.4218" y="3.9360" font-size="0.0815"><![CDATA[6]]></text>
        <text font-family="Arial" fill="#000000" style="white-space:pre;" font-weight="400" text-anchor="start" x="27.1414" y="2.8155" font-size="0.0815"><![CDATA[7]]></text>
        <text font-family="Arial" fill="#000000" style="white-space:pre;" font-weight="400" text-anchor="start" x="27.1414" y="3.9360" font-size="0.0815"><![CDATA[8]]></text>
        <text font-family="Arial" fill="#000000" style="white-space:pre;" font-weight="400" text-anchor="start" x="26.9853" y="2.7389" font-size="0.0815"><![CDATA[SHARED INTERFACES]]></text>
        <text font-family="Arial" fill="#000000" style="white-space:pre;" font-weight="400" text-anchor="start" x="30.4815" y="2.8155" font-size="0.0815"><![CDATA[9]]></text>
        <text font-family="Arial" fill="#000000" style="white-space:pre;" font-weight="400" text-anchor="start" x="30.4611" y="3.9360" font-size="0.0815"><![CDATA[10]]></text>
        <text font-family="Arial" fill="#000000" style="white-space:pre;" font-weight="400" text-anchor="start" x="30.9567" y="2.8155" font-size="0.0815"><![CDATA[11]]></text>
        <text font-family="Arial" fill="#000000" style="white-space:pre;" font-weight="400" text-anchor="start" x="30.9567" y="3.9360" font-size="0.0815"><![CDATA[12]]></text>
        <text font-family="Arial" fill="#000000" style="white-space:pre;" font-weight="400" text-anchor="start" x="28.9676" y="4.0237" font-size="0.0475"><![CDATA[FAIL OPEN]]></text>
        <text font-family="Arial" fill="#000000" style="white-space:pre;" font-weight="400" text-anchor="start" x="29.6872" y="4.0237" font-size="0.0475"><![CDATA[FAIL OPEN]]></text>
        <text font-family="Arial" fill="#000000" style="white-space:pre;" font-weight="400" text-anchor="start" x="29.0490" y="2.8155" font-size="0.0815"><![CDATA[9]]></text>
        <text font-family="Arial" fill="#000000" style="white-space:pre;" font-weight="400" text-anchor="start" x="29.0287" y="3.9360" font-size="0.0815"><![CDATA[10]]></text>
        <text font-family="Arial" fill="#000000" style="white-space:pre;" font-weight="400" text-anchor="start" x="29.7483" y="2.8155" font-size="0.0815"><![CDATA[11]]></text>
        <text font-family="Arial" fill="#000000" style="white-space:pre;" font-weight="400" text-anchor="start" x="29.7483" y="3.9360" font-size="0.0815"><![CDATA[12]]></text>
        <text font-family="Arial" fill="#000000" style="white-space:pre;" font-weight="400" text-anchor="start" x="29.6125" y="2.7389" font-size="0.0815"><![CDATA[SHARED INTERFACES]]></text>
        <text font-family="Arial" fill="#000000" style="white-space:pre;" font-weight="400" text-anchor="start" x="33.0816" y="2.8155" font-size="0.0815"><![CDATA[13]]></text>
        <text font-family="Arial" fill="#000000" style="white-space:pre;" font-weight="400" text-anchor="start" x="33.0816" y="3.9360" font-size="0.0815"><![CDATA[14]]></text>
        <text font-family="Arial" fill="#000000" style="white-space:pre;" font-weight="400" text-anchor="start" x="33.5771" y="2.8155" font-size="0.0815"><![CDATA[15]]></text>
        <text font-family="Arial" fill="#000000" style="white-space:pre;" font-weight="400" text-anchor="start" x="33.5771" y="3.9360" font-size="0.0815"><![CDATA[16]]></text>
        <text font-family="Arial" fill="#000000" style="white-space:pre;" font-weight="400" text-anchor="start" x="31.5948" y="4.0237" font-size="0.0475"><![CDATA[FAIL OPEN]]></text>
        <text font-family="Arial" fill="#000000" style="white-space:pre;" font-weight="400" text-anchor="start" x="32.3144" y="4.0237" font-size="0.0475"><![CDATA[FAIL OPEN]]></text>
        <text font-family="Arial" fill="#000000" style="white-space:pre;" font-weight="400" text-anchor="start" x="31.6559" y="2.8155" font-size="0.0815"><![CDATA[13]]></text>
        <text font-family="Arial" fill="#000000" style="white-space:pre;" font-weight="400" text-anchor="start" x="31.6559" y="3.9360" font-size="0.0815"><![CDATA[14]]></text>
        <text font-family="Arial" fill="#000000" style="white-space:pre;" font-weight="400" text-anchor="start" x="32.3755" y="2.8155" font-size="0.0815"><![CDATA[15]]></text>
        <text font-family="Arial" fill="#000000" style="white-space:pre;" font-weight="400" text-anchor="start" x="32.3755" y="3.9360" font-size="0.0815"><![CDATA[16]]></text>
        <text font-family="Arial" fill="#000000" style="white-space:pre;" font-weight="400" text-anchor="start" x="32.2397" y="2.7389" font-size="0.0815"><![CDATA[SHARED INTERFACES]]></text>
        <path d="M 17.2589,9.3628 L 17.2589,9.2991 L 17.2794,9.2991 L 17.2794,9.2566 L 17.2999,9.2354 L 17.2999,9.2141 L 17.3203,9.2141 L 17.3203,9.1929 L 17.3408,9.1929 L 17.3408,9.1717 L 17.3613,9.1717 L 17.3818,9.1505 L 17.4023,9.1505 L 17.4228,9.1292 L 19.4726,9.1292 L 19.4931,9.1505 L 19.5136,9.1505 L 19.5341,9.1717 L 19.5546,9.1717 L 19.5546,9.1929 L 19.5751,9.1929 L 19.5751,9.2141 L 19.5956,9.2141 L 19.5956,9.2354 L 19.6161,9.2566 L 19.6161,9.2991 L 19.6366,9.2991 L 19.6366,9.7449 L 19.4726,9.9148 L 19.4726,10.2544 L 19.4521,10.2757 L 19.4521,10.2969 L 19.4316,10.2969 L 19.4316,10.3181 L 19.4111,10.3181 L 19.4111,10.3394 L 19.3906,10.3394 L 19.3906,10.3606 L 19.3496,10.3606 L 19.3496,10.3818 L 17.5458,10.3818 L 17.5458,10.3606 L 17.5048,10.3606 L 17.5048,10.3394 L 17.4843,10.3394 L 17.4843,10.3181 L 17.4638,10.3181 L 17.4638,10.2969 L 17.4433,10.2969 L 17.4433,10.2757 L 17.4228,10.2544 L 17.4228,9.9148 L 17.2589,9.7449 L 17.2589,9.3840 L 17.2589,9.3628 Z" stroke="#7F7F7F" stroke-width="0.1201" stroke-linecap="round" stroke-linejoin="round" fill="#BFBFBF"/>
        <path d="M 19.5546,9.7237 L 19.3906,9.8935 L 19.3906,10.2120 L 19.3701,10.2332 L 19.3701,10.2544 L 19.3496,10.2544 L 19.3291,10.2757 L 19.3086,10.2757 L 19.2881,10.2969 L 17.6073,10.2969 L 17.6073,10.2757 L 17.5663,10.2757 L 17.5458,10.2544 L 17.5253,10.2544 L 17.5253,10.2332 L 17.5048,10.2120 L 17.5048,9.8935 L 17.3408,9.7237 L 17.3408,9.3628 L 17.3613,9.3628 L 17.3613,9.3203 L 17.3818,9.3203 L 17.3818,9.2778 L 17.4023,9.2778 L 17.4023,9.2566 L 17.4433,9.2566 L 17.4433,9.2354 L 17.4638,9.2354 L 17.4843,9.2141 L 19.4111,9.2141 L 19.4316,9.2354 L 19.4521,9.2354 L 19.4521,9.2566 L 19.4931,9.2566 L 19.4931,9.2778 L 19.5136,9.2778 L 19.5136,9.3203 L 19.5341,9.3203 L 19.5341,9.3628 L 19.5546,9.3628 L 19.5546,9.7025 L 19.5546,9.7237 Z" stroke="#000000" stroke-width="0.1201" stroke-linecap="round" stroke-linejoin="round" fill="#161616"/>
        <path d="M 19.2471,9.8086 L 19.2471,9.7661 L 19.2266,9.7237 L 19.1856,9.7025 L 17.7303,9.7025 L 17.6893,9.7237 L 17.6688,9.7661 L 17.6688,10.1058 L 17.6893,10.1483 L 17.7303,10.1695 L 19.1856,10.1695 L 19.2266,10.1483 L 19.2471,10.1058 L 19.2471,10.0634 L 19.2471,9.8086 Z" stroke="#000000" stroke-width="0.1201" stroke-linecap="round" stroke-linejoin="round" fill="#CCCCCC"/>
        <path d="M 18.0378,9.6388 L 17.8328,9.6388 L 17.8328,9.7025 L 18.0378,9.7025 L 18.0378,9.6388 Z" stroke="#000000" stroke-width="0.1201" stroke-linecap="round" stroke-linejoin="round" fill="#D6D6B1"/>
        <path d="M 18.3657,9.6388 L 18.1607,9.6388 L 18.1607,9.7025 L 18.3657,9.7025 L 18.3657,9.6388 Z" stroke="#000000" stroke-width="0.1201" stroke-linecap="round" stroke-linejoin="round" fill="#D6D6B1"/>
        <path d="M 18.7142,9.6388 L 18.5092,9.6388 L 18.5092,9.7025 L 18.7142,9.7025 L 18.7142,9.6388 Z" stroke="#000000" stroke-width="0.1201" stroke-linecap="round" stroke-linejoin="round" fill="#D6D6B1"/>
        <path d="M 19.0421,9.6388 L 18.8372,9.6388 L 18.8372,9.7025 L 19.0421,9.7025 L 19.0421,9.6388 Z" stroke="#000000" stroke-width="0.1201" stroke-linecap="round" stroke-linejoin="round" fill="#D6D6B1"/>
        <path d="M 26.7767,7.4583 L 26.7767,5.3333 L 27.6698,5.3333 L 27.6698,4.8333 L 28.0326,4.8333 L 28.0326,4.3333 L 29.0930,4.3333 L 29.0930,4.8333 L 29.4558,4.8333 L 29.4558,5.3333 L 30.3488,5.3333 L 30.3488,7.4583 L 26.7767,7.4583 Z" stroke="#161616" stroke-width="0.1201" stroke-linecap="round" stroke-linejoin="round" fill="#000000"/>
        <path d="M 26.8734,8.3886 L 26.8313,8.3886 L 26.8313,8.4027 L 26.8031,8.4027 L 26.7891,8.4168 L 26.7750,8.4168 L 26.7750,8.4308 L 26.7609,8.4308 L 26.7609,8.4449 L 26.7469,8.4449 L 26.7469,8.4590 L 26.7328,8.4731 L 26.7328,8.5012 L 26.7188,8.5012 L 26.7188,9.8805 L 26.7328,9.8805 L 26.7328,9.9087 L 26.7469,9.9228 L 26.7469,9.9368 L 26.7609,9.9368 L 26.7609,9.9509 L 26.7750,9.9509 L 26.7750,9.9650 L 26.7891,9.9650 L 26.8031,9.9791 L 26.8313,9.9791 L 26.8313,9.9931 L 30.3469,9.9931 L 30.3469,9.9791 L 30.3750,9.9791 L 30.3891,9.9650 L 30.4031,9.9650 L 30.4031,9.9509 L 30.4172,9.9509 L 30.4172,9.9368 L 30.4313,9.9368 L 30.4313,9.9228 L 30.4453,9.9087 L 30.4453,9.8805 L 30.4594,9.8805 L 30.4594,8.5012 L 30.4453,8.5012 L 30.4453,8.4731 L 30.4313,8.4590 L 30.4313,8.4449 L 30.4172,8.4449 L 30.4172,8.4308 L 30.4031,8.4308 L 30.4031,8.4168 L 30.3891,8.4168 L 30.3750,8.4027 L 30.3469,8.4027 L 30.3469,8.3886 L 26.8875,8.3886 L 26.8734,8.3886 Z" stroke="#000000" stroke-width="0.1201" stroke-linecap="round" stroke-linejoin="round" fill="#BFBFBF"/>
        <path d="M 26.9297,8.5153 L 26.8875,8.5153 L 26.8875,8.5294 L 26.8734,8.5294 L 26.8734,8.5434 L 26.8594,8.5434 L 26.8594,8.5575 L 26.8453,8.5575 L 26.8453,9.8242 L 26.8594,9.8383 L 26.8594,9.8524 L 26.8734,9.8524 L 26.8734,9.8665 L 26.8875,9.8665 L 26.9016,9.8805 L 30.2906,9.8805 L 30.2906,9.8665 L 30.3047,9.8665 L 30.3047,9.8524 L 30.3188,9.8524 L 30.3188,9.8383 L 30.3328,9.8242 L 30.3328,8.5575 L 30.3188,8.5575 L 30.3188,8.5434 L 30.3047,8.5294 L 30.2906,8.5294 L 30.2906,8.5153 L 26.9438,8.5153 L 26.9297,8.5153 Z" stroke="#F7DDB9" stroke-width="0.1201" stroke-linecap="round" stroke-linejoin="round" fill="#000000"/>
        <path d="M 27.6750,9.2190 L 27.3656,9.2190 L 27.3656,9.1487 L 27.6750,9.1487 L 27.6750,9.2190 Z" stroke="#000000" stroke-width="0.1201" stroke-linecap="round" stroke-linejoin="round" fill="#E2E2CC"/>
        <path d="M 28.3781,9.2190 L 28.0688,9.2190 L 28.0688,9.1487 L 28.3781,9.1487 L 28.3781,9.2190 Z" stroke="#000000" stroke-width="0.1201" stroke-linecap="round" stroke-linejoin="round" fill="#E2E2CC"/>
        <path d="M 29.0672,9.2190 L 28.7578,9.2190 L 28.7578,9.1487 L 29.0672,9.1487 L 29.0672,9.2190 Z" stroke="#000000" stroke-width="0.1201" stroke-linecap="round" stroke-linejoin="round" fill="#E2E2CC"/>
        <path d="M 29.7844,9.2190 L 29.4750,9.2190 L 29.4750,9.1487 L 29.7844,9.1487 L 29.7844,9.2190 Z" stroke="#000000" stroke-width="0.1201" stroke-linecap="round" stroke-linejoin="round" fill="#E2E2CC"/>
        <path d="M 30.1219,8.7827 L 30.1219,8.7546 L 30.1078,8.7264 L 30.0797,8.7123 L 27.0984,8.7123 L 27.0703,8.7264 L 27.0563,8.7546 L 27.0563,9.1064 L 27.0703,9.1346 L 27.0984,9.1487 L 30.0797,9.1487 L 30.1078,9.1346 L 30.1219,9.1064 L 30.1219,9.0783 L 30.1219,8.7827 Z" stroke="#000000" stroke-width="0.1201" stroke-linecap="round" stroke-linejoin="round" fill="#7F7F7F"/>
        <path d="M 30.0094,8.9235 L 29.9953,8.8672 L 29.9391,8.8109 L 29.8828,8.7968 L 27.2953,8.7968 L 27.2391,8.8109 L 27.1828,8.8672 L 27.1687,8.9235 L 27.1828,8.9798 L 27.2391,9.0361 L 27.2953,9.0501 L 29.8828,9.0501 L 29.9391,9.0361 L 29.9953,8.9798 L 30.0094,8.9235 Z" stroke="#999999" stroke-width="0.1201" stroke-linecap="round" stroke-linejoin="round" fill="#999999"/>
        <path d="M 33.9187,2.4167 L 33.9187,2.5694 L 33.6938,2.5694 L 33.6938,3.0000 L 32.7516,3.0000 L 32.7516,3.0417 L 32.4562,3.0417 L 32.4562,2.5694 L 32.5125,2.5694 L 32.5125,3.0000 L 32.7516,3.0000 L 32.7516,3.9583 L 32.8500,3.9583 L 32.8500,4.4583 L 32.7516,4.4583 L 32.7516,5.5416 L 36.3516,5.5416 L 36.3516,4.4583 L 36.2531,4.4583 L 36.2531,3.9583 L 36.3516,3.9583 L 36.3516,3.0000 L 36.5906,3.0000 L 36.5906,2.5694 L 36.6469,2.5694 L 36.6469,3.0417 L 36.3516,3.0417 L 36.3516,3.0000 L 35.4094,3.0000 L 35.4094,2.5694 L 35.1844,2.5694 L 35.1844,2.4167 L 33.9187,2.4167 Z" stroke="#000000" stroke-width="0.1201" stroke-linecap="round" stroke-linejoin="round" fill="#000000"/>
        <path d="M 33.6938,2.5833 L 32.5125,2.5833 L 32.5125,3.0139 L 33.6938,3.0139 L 33.6938,2.5833 Z" stroke="#494949" stroke-width="0.1201" stroke-linecap="round" stroke-linejoin="round" fill="#000000"/>
        <path d="M 36.5906,2.5833 L 35.4094,2.5833 L 35.4094,3.0139 L 36.5906,3.0139 L 36.5906,2.5833 Z" stroke="#494949" stroke-width="0.1201" stroke-linecap="round" stroke-linejoin="round" fill="#000000"/>
        <path d="M 33.9187,10.2222 L 33.9187,10.0694 L 33.6938,10.0694 L 33.6938,9.6389 L 32.7516,9.6389 L 32.7516,9.5972 L 32.4562,9.5972 L 32.4562,10.0694 L 32.5125,10.0694 L 32.5125,9.6389 L 32.7516,9.6389 L 32.7516,8.6805 L 32.8500,8.6805 L 32.8500,8.1805 L 32.7516,8.1805 L 32.7516,7.0972 L 36.3516,7.0972 L 36.3516,8.1805 L 36.2531,8.1805 L 36.2531,8.6805 L 36.3516,8.6805 L 36.3516,9.6389 L 36.5906,9.6389 L 36.5906,10.0694 L 36.6469,10.0694 L 36.6469,9.5972 L 36.3516,9.5972 L 36.3516,9.6389 L 35.4094,9.6389 L 35.4094,10.0694 L 35.1844,10.0694 L 35.1844,10.2222 L 33.9187,10.2222 Z" stroke="#000000" stroke-width="0.1201" stroke-linecap="round" stroke-linejoin="round" fill="#000000"/>
        <path d="M 33.6938,9.6389 L 32.5125,9.6389 L 32.5125,10.0694 L 33.6938,10.0694 L 33.6938,9.6389 Z" stroke="#494949" stroke-width="0.1201" stroke-linecap="round" stroke-linejoin="round" fill="#000000"/>
        <path d="M 36.5906,9.6389 L 35.4094,9.6389 L 35.4094,10.0694 L 36.5906,10.0694 L 36.5906,9.6389 Z" stroke="#494949" stroke-width="0.1201" stroke-linecap="round" stroke-linejoin="round" fill="#000000"/>
        <path d="M 39.8813,2.4167 L 39.8813,2.5694 L 39.6562,2.5694 L 39.6562,3.0000 L 38.7141,3.0000 L 38.7141,3.0417 L 38.4188,3.0417 L 38.4188,2.5694 L 38.4750,2.5694 L 38.4750,3.0000 L 38.7141,3.0000 L 38.7141,3.9583 L 38.8125,3.9583 L 38.8125,4.4583 L 38.7141,4.4583 L 38.7141,5.5416 L 42.3141,5.5416 L 42.3141,4.4583 L 42.2156,4.4583 L 42.2156,3.9583 L 42.3141,3.9583 L 42.3141,3.0000 L 42.5531,3.0000 L 42.5531,2.5694 L 42.6094,2.5694 L 42.6094,3.0417 L 42.3141,3.0417 L 42.3141,3.0000 L 41.3719,3.0000 L 41.3719,2.5694 L 41.1469,2.5694 L 41.1469,2.4167 L 39.8813,2.4167 Z" stroke="#000000" stroke-width="0.1201" stroke-linecap="round" stroke-linejoin="round" fill="#000000"/>
        <path d="M 39.6562,2.5833 L 38.4750,2.5833 L 38.4750,3.0139 L 39.6562,3.0139 L 39.6562,2.5833 Z" stroke="#494949" stroke-width="0.1201" stroke-linecap="round" stroke-linejoin="round" fill="#000000"/>
        <path d="M 42.5531,2.5833 L 41.3719,2.5833 L 41.3719,3.0139 L 42.5531,3.0139 L 42.5531,2.5833 Z" stroke="#494949" stroke-width="0.1201" stroke-linecap="round" stroke-linejoin="round" fill="#000000"/>
        <path d="M 39.8813,10.2222 L 39.8813,10.0694 L 39.6562,10.0694 L 39.6562,9.6389 L 38.7141,9.6389 L 38.7141,9.5972 L 38.4188,9.5972 L 38.4188,10.0694 L 38.4750,10.0694 L 38.4750,9.6389 L 38.7141,9.6389 L 38.7141,8.6805 L 38.8125,8.6805 L 38.8125,8.1805 L 38.7141,8.1805 L 38.7141,7.0972 L 42.3141,7.0972 L 42.3141,8.1805 L 42.2156,8.1805 L 42.2156,8.6805 L 42.3141,8.6805 L 42.3141,9.6389 L 42.5531,9.6389 L 42.5531,10.0694 L 42.6094,10.0694 L 42.6094,9.5972 L 42.3141,9.5972 L 42.3141,9.6389 L 41.3719,9.6389 L 41.3719,10.0694 L 41.1469,10.0694 L 41.1469,10.2222 L 39.8813,10.2222 Z" stroke="#000000" stroke-width="0.1201" stroke-linecap="round" stroke-linejoin="round" fill="#000000"/>
        <path d="M 39.6562,9.6389 L 38.4750,9.6389 L 38.4750,10.0694 L 39.6562,10.0694 L 39.6562,9.6389 Z" stroke="#494949" stroke-width="0.1201" stroke-linecap="round" stroke-linejoin="round" fill="#000000"/>
        <path d="M 42.5531,9.6389 L 41.3719,9.6389 L 41.3719,10.0694 L 42.5531,10.0694 L 42.5531,9.6389 Z" stroke="#494949" stroke-width="0.1201" stroke-linecap="round" stroke-linejoin="round" fill="#000000"/>
        <path d="M 45.8438,2.4167 L 45.8438,2.5694 L 45.6187,2.5694 L 45.6187,3.0000 L 44.6766,3.0000 L 44.6766,3.0417 L 44.3813,3.0417 L 44.3813,2.5694 L 44.4375,2.5694 L 44.4375,3.0000 L 44.6766,3.0000 L 44.6766,3.9583 L 44.7750,3.9583 L 44.7750,4.4583 L 44.6766,4.4583 L 44.6766,5.5416 L 48.2766,5.5416 L 48.2766,4.4583 L 48.1781,4.4583 L 48.1781,3.9583 L 48.2766,3.9583 L 48.2766,3.0000 L 48.5156,3.0000 L 48.5156,2.5694 L 48.5719,2.5694 L 48.5719,3.0417 L 48.2766,3.0417 L 48.2766,3.0000 L 47.3344,3.0000 L 47.3344,2.5694 L 47.1094,2.5694 L 47.1094,2.4167 L 45.8438,2.4167 Z" stroke="#000000" stroke-width="0.1201" stroke-linecap="round" stroke-linejoin="round" fill="#000000"/>
        <path d="M 45.6187,2.5833 L 44.4375,2.5833 L 44.4375,3.0139 L 45.6187,3.0139 L 45.6187,2.5833 Z" stroke="#494949" stroke-width="0.1201" stroke-linecap="round" stroke-linejoin="round" fill="#000000"/>
        <path d="M 48.5156,2.5833 L 47.3344,2.5833 L 47.3344,3.0139 L 48.5156,3.0139 L 48.5156,2.5833 Z" stroke="#494949" stroke-width="0.1201" stroke-linecap="round" stroke-linejoin="round" fill="#000000"/>
        <path d="M 45.8438,10.2222 L 45.8438,10.0694 L 45.6187,10.0694 L 45.6187,9.6389 L 44.6766,9.6389 L 44.6766,9.5972 L 44.3813,9.5972 L 44.3813,10.0694 L 44.4375,10.0694 L 44.4375,9.6389 L 44.6766,9.6389 L 44.6766,8.6805 L 44.7750,8.6805 L 44.7750,8.1805 L 44.6766,8.1805 L 44.6766,7.0972 L 48.2766,7.0972 L 48.2766,8.1805 L 48.1781,8.1805 L 48.1781,8.6805 L 48.2766,8.6805 L 48.2766,9.6389 L 48.5156,9.6389 L 48.5156,10.0694 L 48.5719,10.0694 L 48.5719,9.5972 L 48.2766,9.5972 L 48.2766,9.6389 L 47.3344,9.6389 L 47.3344,10.0694 L 47.1094,10.0694 L 47.1094,10.2222 L 45.8438,10.2222 Z" stroke="#000000" stroke-width="0.1201" stroke-linecap="round" stroke-linejoin="round" fill="#000000"/>
        <path d="M 45.6187,9.6389 L 44.4375,9.6389 L 44.4375,10.0694 L 45.6187,10.0694 L 45.6187,9.6389 Z" stroke="#494949" stroke-width="0.1201" stroke-linecap="round" stroke-linejoin="round" fill="#000000"/>
        <path d="M 48.5156,9.6389 L 47.3344,9.6389 L 47.3344,10.0694 L 48.5156,10.0694 L 48.5156,9.6389 Z" stroke="#494949" stroke-width="0.1201" stroke-linecap="round" stroke-linejoin="round" fill="#000000"/>
        <path d="M 61.6500,2.4167 L 61.6500,2.5694 L 61.4250,2.5694 L 61.4250,3.0000 L 60.4828,3.0000 L 60.4828,3.0417 L 60.1875,3.0417 L 60.1875,2.5694 L 60.2437,2.5694 L 60.2437,3.0000 L 60.4828,3.0000 L 60.4828,3.9583 L 60.5812,3.9583 L 60.5812,4.4583 L 60.4828,4.4583 L 60.4828,5.5416 L 64.0828,5.5416 L 64.0828,4.4583 L 63.9844,4.4583 L 63.9844,3.9583 L 64.0828,3.9583 L 64.0828,3.0000 L 64.3219,3.0000 L 64.3219,2.5694 L 64.3781,2.5694 L 64.3781,3.0417 L 64.0828,3.0417 L 64.0828,3.0000 L 63.1406,3.0000 L 63.1406,2.5694 L 62.9156,2.5694 L 62.9156,2.4167 L 61.6500,2.4167 Z" stroke="#000000" stroke-width="0.1201" stroke-linecap="round" stroke-linejoin="round" fill="#000000"/>
        <path d="M 61.4250,2.5833 L 60.2437,2.5833 L 60.2437,3.0139 L 61.4250,3.0139 L 61.4250,2.5833 Z" stroke="#494949" stroke-width="0.1201" stroke-linecap="round" stroke-linejoin="round" fill="#000000"/>
        <path d="M 64.3219,2.5833 L 63.1406,2.5833 L 63.1406,3.0139 L 64.3219,3.0139 L 64.3219,2.5833 Z" stroke="#494949" stroke-width="0.1201" stroke-linecap="round" stroke-linejoin="round" fill="#000000"/>
        <path d="M 61.6500,10.2222 L 61.6500,10.0694 L 61.4250,10.0694 L 61.4250,9.6389 L 60.4828,9.6389 L 60.4828,9.5972 L 60.1875,9.5972 L 60.1875,10.0694 L 60.2437,10.0694 L 60.2437,9.6389 L 60.4828,9.6389 L 60.4828,8.6805 L 60.5812,8.6805 L 60.5812,8.1805 L 60.4828,8.1805 L 60.4828,7.0972 L 64.0828,7.0972 L 64.0828,8.1805 L 63.9844,8.1805 L 63.9844,8.6805 L 64.0828,8.6805 L 64.0828,9.6389 L 64.3219,9.6389 L 64.3219,10.0694 L 64.3781,10.0694 L 64.3781,9.5972 L 64.0828,9.5972 L 64.0828,9.6389 L 63.1406,9.6389 L 63.1406,10.0694 L 62.9156,10.0694 L 62.9156,10.2222 L 61.6500,10.2222 Z" stroke="#000000" stroke-width="0.1201" stroke-linecap="round" stroke-linejoin="round" fill="#000000"/>
        <path d="M 61.4250,9.6389 L 60.2437,9.6389 L 60.2437,10.0694 L 61.4250,10.0694 L 61.4250,9.6389 Z" stroke="#494949" stroke-width="0.1201" stroke-linecap="round" stroke-linejoin="round" fill="#000000"/>
        <path d="M 64.3219,9.6389 L 63.1406,9.6389 L 63.1406,10.0694 L 64.3219,10.0694 L 64.3219,9.6389 Z" stroke="#494949" stroke-width="0.1201" stroke-linecap="round" stroke-linejoin="round" fill="#000000"/>
        <path d="M 67.6125,2.4167 L 67.6125,2.5694 L 67.3875,2.5694 L 67.3875,3.0000 L 66.4453,3.0000 L 66.4453,3.0417 L 66.1500,3.0417 L 66.1500,2.5694 L 66.2062,2.5694 L 66.2062,3.0000 L 66.4453,3.0000 L 66.4453,3.9583 L 66.5438,3.9583 L 66.5438,4.4583 L 66.4453,4.4583 L 66.4453,5.5416 L 70.0453,5.5416 L 70.0453,4.4583 L 69.9469,4.4583 L 69.9469,3.9583 L 70.0453,3.9583 L 70.0453,3.0000 L 70.2844,3.0000 L 70.2844,2.5694 L 70.3406,2.5694 L 70.3406,3.0417 L 70.0453,3.0417 L 70.0453,3.0000 L 69.1031,3.0000 L 69.1031,2.5694 L 68.8781,2.5694 L 68.8781,2.4167 L 67.6125,2.4167 Z" stroke="#000000" stroke-width="0.1201" stroke-linecap="round" stroke-linejoin="round" fill="#000000"/>
        <path d="M 67.3875,2.5833 L 66.2062,2.5833 L 66.2062,3.0139 L 67.3875,3.0139 L 67.3875,2.5833 Z" stroke="#494949" stroke-width="0.1201" stroke-linecap="round" stroke-linejoin="round" fill="#000000"/>
        <path d="M 70.2844,2.5833 L 69.1031,2.5833 L 69.1031,3.0139 L 70.2844,3.0139 L 70.2844,2.5833 Z" stroke="#494949" stroke-width="0.1201" stroke-linecap="round" stroke-linejoin="round" fill="#000000"/>
        <path d="M 67.6125,10.2222 L 67.6125,10.0694 L 67.3875,10.0694 L 67.3875,9.6389 L 66.4453,9.6389 L 66.4453,9.5972 L 66.1500,9.5972 L 66.1500,10.0694 L 66.2062,10.0694 L 66.2062,9.6389 L 66.4453,9.6389 L 66.4453,8.6805 L 66.5438,8.6805 L 66.5438,8.1805 L 66.4453,8.1805 L 66.4453,7.0972 L 70.0453,7.0972 L 70.0453,8.1805 L 69.9469,8.1805 L 69.9469,8.6805 L 70.0453,8.6805 L 70.0453,9.6389 L 70.2844,9.6389 L 70.2844,10.0694 L 70.3406,10.0694 L 70.3406,9.5972 L 70.0453,9.5972 L 70.0453,9.6389 L 69.1031,9.6389 L 69.1031,10.0694 L 68.8781,10.0694 L 68.8781,10.2222 L 67.6125,10.2222 Z" stroke="#000000" stroke-width="0.1201" stroke-linecap="round" stroke-linejoin="round" fill="#000000"/>
        <path d="M 67.3875,9.6389 L 66.2062,9.6389 L 66.2062,10.0694 L 67.3875,10.0694 L 67.3875,9.6389 Z" stroke="#494949" stroke-width="0.1201" stroke-linecap="round" stroke-linejoin="round" fill="#000000"/>
        <path d="M 70.2844,9.6389 L 69.1031,9.6389 L 69.1031,10.0694 L 70.2844,10.0694 L 70.2844,9.6389 Z" stroke="#494949" stroke-width="0.1201" stroke-linecap="round" stroke-linejoin="round" fill="#000000"/>
        <path d="M 83.4188,2.4167 L 83.4188,2.5694 L 83.1938,2.5694 L 83.1938,3.0000 L 82.2516,3.0000 L 82.2516,3.0417 L 81.9562,3.0417 L 81.9562,2.5694 L 82.0125,2.5694 L 82.0125,3.0000 L 82.2516,3.0000 L 82.2516,3.9583 L 82.3500,3.9583 L 82.3500,4.4583 L 82.2516,4.4583 L 82.2516,5.5416 L 85.8516,5.5416 L 85.8516,4.4583 L 85.7531,4.4583 L 85.7531,3.9583 L 85.8516,3.9583 L 85.8516,3.0000 L 86.0906,3.0000 L 86.0906,2.5694 L 86.1469,2.5694 L 86.1469,3.0417 L 85.8516,3.0417 L 85.8516,3.0000 L 84.9094,3.0000 L 84.9094,2.5694 L 84.6844,2.5694 L 84.6844,2.4167 L 83.4188,2.4167 Z" stroke="#000000" stroke-width="0.1201" stroke-linecap="round" stroke-linejoin="round" fill="#000000"/>
        <path d="M 83.1938,2.5833 L 82.0125,2.5833 L 82.0125,3.0139 L 83.1938,3.0139 L 83.1938,2.5833 Z" stroke="#494949" stroke-width="0.1201" stroke-linecap="round" stroke-linejoin="round" fill="#000000"/>
        <path d="M 86.0906,2.5833 L 84.9094,2.5833 L 84.9094,3.0139 L 86.0906,3.0139 L 86.0906,2.5833 Z" stroke="#494949" stroke-width="0.1201" stroke-linecap="round" stroke-linejoin="round" fill="#000000"/>
        <path d="M 83.4188,10.2222 L 83.4188,10.0694 L 83.1938,10.0694 L 83.1938,9.6389 L 82.2516,9.6389 L 82.2516,9.5972 L 81.9562,9.5972 L 81.9562,10.0694 L 82.0125,10.0694 L 82.0125,9.6389 L 82.2516,9.6389 L 82.2516,8.6805 L 82.3500,8.6805 L 82.3500,8.1805 L 82.2516,8.1805 L 82.2516,7.0972 L 85.8516,7.0972 L 85.8516,8.1805 L 85.7531,8.1805 L 85.7531,8.6805 L 85.8516,8.6805 L 85.8516,9.6389 L 86.0906,9.6389 L 86.0906,10.0694 L 86.1469,10.0694 L 86.1469,9.5972 L 85.8516,9.5972 L 85.8516,9.6389 L 84.9094,9.6389 L 84.9094,10.0694 L 84.6844,10.0694 L 84.6844,10.2222 L 83.4188,10.2222 Z" stroke="#000000" stroke-width="0.1201" stroke-linecap="round" stroke-linejoin="round" fill="#000000"/>
        <path d="M 83.1938,9.6389 L 82.0125,9.6389 L 82.0125,10.0694 L 83.1938,10.0694 L 83.1938,9.6389 Z" stroke="#494949" stroke-width="0.1201" stroke-linecap="round" stroke-linejoin="round" fill="#000000"/>
        <path d="M 86.0906,9.6389 L 84.9094,9.6389 L 84.9094,10.0694 L 86.0906,10.0694 L 86.0906,9.6389 Z" stroke="#494949" stroke-width="0.1201" stroke-linecap="round" stroke-linejoin="round" fill="#000000"/>
        <path d="M 89.3812,2.4167 L 89.3812,2.5694 L 89.1562,2.5694 L 89.1562,3.0000 L 88.2141,3.0000 L 88.2141,3.0417 L 87.9188,3.0417 L 87.9188,2.5694 L 87.9750,2.5694 L 87.9750,3.0000 L 88.2141,3.0000 L 88.2141,3.9583 L 88.3125,3.9583 L 88.3125,4.4583 L 88.2141,4.4583 L 88.2141,5.5416 L 91.8141,5.5416 L 91.8141,4.4583 L 91.7156,4.4583 L 91.7156,3.9583 L 91.8141,3.9583 L 91.8141,3.0000 L 92.0531,3.0000 L 92.0531,2.5694 L 92.1094,2.5694 L 92.1094,3.0417 L 91.8141,3.0417 L 91.8141,3.0000 L 90.8719,3.0000 L 90.8719,2.5694 L 90.6469,2.5694 L 90.6469,2.4167 L 89.3812,2.4167 Z" stroke="#000000" stroke-width="0.1201" stroke-linecap="round" stroke-linejoin="round" fill="#000000"/>
        <path d="M 89.1562,2.5833 L 87.9750,2.5833 L 87.9750,3.0139 L 89.1562,3.0139 L 89.1562,2.5833 Z" stroke="#494949" stroke-width="0.1201" stroke-linecap="round" stroke-linejoin="round" fill="#000000"/>
        <path d="M 92.0531,2.5833 L 90.8719,2.5833 L 90.8719,3.0139 L 92.0531,3.0139 L 92.0531,2.5833 Z" stroke="#494949" stroke-width="0.1201" stroke-linecap="round" stroke-linejoin="round" fill="#000000"/>
        <path d="M 89.3812,10.2222 L 89.3812,10.0694 L 89.1562,10.0694 L 89.1562,9.6389 L 88.2141,9.6389 L 88.2141,9.5972 L 87.9188,9.5972 L 87.9188,10.0694 L 87.9750,10.0694 L 87.9750,9.6389 L 88.2141,9.6389 L 88.2141,8.6805 L 88.3125,8.6805 L 88.3125,8.1805 L 88.2141,8.1805 L 88.2141,7.0972 L 91.8141,7.0972 L 91.8141,8.1805 L 91.7156,8.1805 L 91.7156,8.6805 L 91.8141,8.6805 L 91.8141,9.6389 L 92.0531,9.6389 L 92.0531,10.0694 L 92.1094,10.0694 L 92.1094,9.5972 L 91.8141,9.5972 L 91.8141,9.6389 L 90.8719,9.6389 L 90.8719,10.0694 L 90.6469,10.0694 L 90.6469,10.2222 L 89.3812,10.2222 Z" stroke="#000000" stroke-width="0.1201" stroke-linecap="round" stroke-linejoin="round" fill="#000000"/>
        <path d="M 89.1562,9.6389 L 87.9750,9.6389 L 87.9750,10.0694 L 89.1562,10.0694 L 89.1562,9.6389 Z" stroke="#494949" stroke-width="0.1201" stroke-linecap="round" stroke-linejoin="round" fill="#000000"/>
        <path d="M 92.0531,9.6389 L 90.8719,9.6389 L 90.8719,10.0694 L 92.0531,10.0694 L 92.0531,9.6389 Z" stroke="#494949" stroke-width="0.1201" stroke-linecap="round" stroke-linejoin="round" fill="#000000"/>
        <path d="M 105.1875,2.4167 L 105.1875,2.5694 L 104.9625,2.5694 L 104.9625,3.0000 L 104.0203,3.0000 L 104.0203,3.0417 L 103.7250,3.0417 L 103.7250,2.5694 L 103.7812,2.5694 L 103.7812,3.0000 L 104.0203,3.0000 L 104.0203,3.9583 L 104.1187,3.9583 L 104.1187,4.4583 L 104.0203,4.4583 L 104.0203,5.5416 L 107.6203,5.5416 L 107.6203,4.4583 L 107.5219,4.4583 L 107.5219,3.9583 L 107.6203,3.9583 L 107.6203,3.0000 L 107.8594,3.0000 L 107.8594,2.5694 L 107.9156,2.5694 L 107.9156,3.0417 L 107.6203,3.0417 L 107.6203,3.0000 L 106.6781,3.0000 L 106.6781,2.5694 L 106.4531,2.5694 L 106.4531,2.4167 L 105.1875,2.4167 Z" stroke="#000000" stroke-width="0.1201" stroke-linecap="round" stroke-linejoin="round" fill="#000000"/>
        <path d="M 104.9625,2.5833 L 103.7812,2.5833 L 103.7812,3.0139 L 104.9625,3.0139 L 104.9625,2.5833 Z" stroke="#494949" stroke-width="0.1201" stroke-linecap="round" stroke-linejoin="round" fill="#000000"/>
        <path d="M 107.8594,2.5833 L 106.6781,2.5833 L 106.6781,3.0139 L 107.8594,3.0139 L 107.8594,2.5833 Z" stroke="#494949" stroke-width="0.1201" stroke-linecap="round" stroke-linejoin="round" fill="#000000"/>
        <path d="M 105.1875,10.2222 L 105.1875,10.0694 L 104.9625,10.0694 L 104.9625,9.6389 L 104.0203,9.6389 L 104.0203,9.5972 L 103.7250,9.5972 L 103.7250,10.0694 L 103.7812,10.0694 L 103.7812,9.6389 L 104.0203,9.6389 L 104.0203,8.6805 L 104.1187,8.6805 L 104.1187,8.1805 L 104.0203,8.1805 L 104.0203,7.0972 L 107.6203,7.0972 L 107.6203,8.1805 L 107.5219,8.1805 L 107.5219,8.6805 L 107.6203,8.6805 L 107.6203,9.6389 L 107.8594,9.6389 L 107.8594,10.0694 L 107.9156,10.0694 L 107.9156,9.5972 L 107.6203,9.5972 L 107.6203,9.6389 L 106.6781,9.6389 L 106.6781,10.0694 L 106.4531,10.0694 L 106.4531,10.2222 L 105.1875,10.2222 Z" stroke="#000000" stroke-width="0.1201" stroke-linecap="round" stroke-linejoin="round" fill="#000000"/>
        <path d="M 104.9625,9.6389 L 103.7812,9.6389 L 103.7812,10.0694 L 104.9625,10.0694 L 104.9625,9.6389 Z" stroke="#494949" stroke-width="0.1201" stroke-linecap="round" stroke-linejoin="round" fill="#000000"/>
        <path d="M 107.8594,9.6389 L 106.6781,9.6389 L 106.6781,10.0694 L 107.8594,10.0694 L 107.8594,9.6389 Z" stroke="#494949" stroke-width="0.1201" stroke-linecap="round" stroke-linejoin="round" fill="#000000"/>
        <path d="M 111.1500,2.4167 L 111.1500,2.5694 L 110.9250,2.5694 L 110.9250,3.0000 L 109.9828,3.0000 L 109.9828,3.0417 L 109.6875,3.0417 L 109.6875,2.5694 L 109.7438,2.5694 L 109.7438,3.0000 L 109.9828,3.0000 L 109.9828,3.9583 L 110.0813,3.9583 L 110.0813,4.4583 L 109.9828,4.4583 L 109.9828,5.5416 L 113.5828,5.5416 L 113.5828,4.4583 L 113.4844,4.4583 L 113.4844,3.9583 L 113.5828,3.9583 L 113.5828,3.0000 L 113.8219,3.0000 L 113.8219,2.5694 L 113.8781,2.5694 L 113.8781,3.0417 L 113.5828,3.0417 L 113.5828,3.0000 L 112.6406,3.0000 L 112.6406,2.5694 L 112.4156,2.5694 L 112.4156,2.4167 L 111.1500,2.4167 Z" stroke="#000000" stroke-width="0.1201" stroke-linecap="round" stroke-linejoin="round" fill="#000000"/>
        <path d="M 110.9250,2.5833 L 109.7438,2.5833 L 109.7438,3.0139 L 110.9250,3.0139 L 110.9250,2.5833 Z" stroke="#494949" stroke-width="0.1201" stroke-linecap="round" stroke-linejoin="round" fill="#000000"/>
        <path d="M 113.8219,2.5833 L 112.6406,2.5833 L 112.6406,3.0139 L 113.8219,3.0139 L 113.8219,2.5833 Z" stroke="#494949" stroke-width="0.1201" stroke-linecap="round" stroke-linejoin="round" fill="#000000"/>
        <path d="M 111.1500,10.2222 L 111.1500,10.0694 L 110.9250,10.0694 L 110.9250,9.6389 L 109.9828,9.6389 L 109.9828,9.5972 L 109.6875,9.5972 L 109.6875,10.0694 L 109.7438,10.0694 L 109.7438,9.6389 L 109.9828,9.6389 L 109.9828,8.6805 L 110.0813,8.6805 L 110.0813,8.1805 L 109.9828,8.1805 L 109.9828,7.0972 L 113.5828,7.0972 L 113.5828,8.1805 L 113.4844,8.1805 L 113.4844,8.6805 L 113.5828,8.6805 L 113.5828,9.6389 L 113.8219,9.6389 L 113.8219,10.0694 L 113.8781,10.0694 L 113.8781,9.5972 L 113.5828,9.5972 L 113.5828,9.6389 L 112.6406,9.6389 L 112.6406,10.0694 L 112.4156,10.0694 L 112.4156,10.2222 L 111.1500,10.2222 Z" stroke="#000000" stroke-width="0.1201" stroke-linecap="round" stroke-linejoin="round" fill="#000000"/>
        <path d="M 110.9250,9.6389 L 109.7438,9.6389 L 109.7438,10.0694 L 110.9250,10.0694 L 110.9250,9.6389 Z" stroke="#494949" stroke-width="0.1201" stroke-linecap="round" stroke-linejoin="round" fill="#000000"/>
        <path d="M 113.8219,9.6389 L 112.6406,9.6389 L 112.6406,10.0694 L 113.8219,10.0694 L 113.8219,9.6389 Z" stroke="#494949" stroke-width="0.1201" stroke-linecap="round" stroke-linejoin="round" fill="#000000"/>
        <path d="M 54.3094,5.2662 L 50.3438,5.2662 L 50.3438,2.5915 L 54.3094,2.5915 L 54.3094,5.2662 Z" stroke="#000000" stroke-width="0.1201" stroke-linecap="round" stroke-linejoin="round" fill="#494949"/>
        <path d="M 54.3094,10.0473 L 50.3438,10.0473 L 50.3438,7.3726 L 54.3094,7.3726 L 54.3094,10.0473 Z" stroke="#000000" stroke-width="0.1201" stroke-linecap="round" stroke-linejoin="round" fill="#494949"/>
        <path d="M 58.4156,5.2662 L 54.4500,5.2662 L 54.4500,2.5915 L 58.4156,2.5915 L 58.4156,5.2662 Z" stroke="#000000" stroke-width="0.1201" stroke-linecap="round" stroke-linejoin="round" fill="#494949"/>
        <path d="M 58.4156,10.0473 L 54.4500,10.0473 L 54.4500,7.3726 L 58.4156,7.3726 L 58.4156,10.0473 Z" stroke="#000000" stroke-width="0.1201" stroke-linecap="round" stroke-linejoin="round" fill="#494949"/>
        <path d="M 76.0781,5.2662 L 72.1125,5.2662 L 72.1125,2.5915 L 76.0781,2.5915 L 76.0781,5.2662 Z" stroke="#000000" stroke-width="0.1201" stroke-linecap="round" stroke-linejoin="round" fill="#494949"/>
        <path d="M 76.0781,10.0473 L 72.1125,10.0473 L 72.1125,7.3726 L 76.0781,7.3726 L 76.0781,10.0473 Z" stroke="#000000" stroke-width="0.1201" stroke-linecap="round" stroke-linejoin="round" fill="#494949"/>
        <path d="M 80.1844,5.2662 L 76.2188,5.2662 L 76.2188,2.5915 L 80.1844,2.5915 L 80.1844,5.2662 Z" stroke="#000000" stroke-width="0.1201" stroke-linecap="round" stroke-linejoin="round" fill="#494949"/>
        <path d="M 80.1844,10.0473 L 76.2188,10.0473 L 76.2188,7.3726 L 80.1844,7.3726 L 80.1844,10.0473 Z" stroke="#000000" stroke-width="0.1201" stroke-linecap="round" stroke-linejoin="round" fill="#494949"/>
        <path d="M 97.9031,5.2662 L 93.9375,5.2662 L 93.9375,2.5915 L 97.9031,2.5915 L 97.9031,5.2662 Z" stroke="#000000" stroke-width="0.1201" stroke-linecap="round" stroke-linejoin="round" fill="#494949"/>
        <path d="M 97.9031,10.0473 L 93.9375,10.0473 L 93.9375,7.3726 L 97.9031,7.3726 L 97.9031,10.0473 Z" stroke="#000000" stroke-width="0.1201" stroke-linecap="round" stroke-linejoin="round" fill="#494949"/>
        <path d="M 102.0094,5.2662 L 98.0438,5.2662 L 98.0438,2.5915 L 102.0094,2.5915 L 102.0094,5.2662 Z" stroke="#000000" stroke-width="0.1201" stroke-linecap="round" stroke-linejoin="round" fill="#494949"/>
        <path d="M 102.0094,10.0473 L 98.0438,10.0473 L 98.0438,7.3726 L 102.0094,7.3726 L 102.0094,10.0473 Z" stroke="#000000" stroke-width="0.1201" stroke-linecap="round" stroke-linejoin="round" fill="#494949"/>
        <path d="M 119.6156,5.2662 L 115.6500,5.2662 L 115.6500,2.5915 L 119.6156,2.5915 L 119.6156,5.2662 Z" stroke="#000000" stroke-width="0.1201" stroke-linecap="round" stroke-linejoin="round" fill="#494949"/>
        <path d="M 119.6156,10.0473 L 115.6500,10.0473 L 115.6500,7.3726 L 119.6156,7.3726 L 119.6156,10.0473 Z" stroke="#000000" stroke-width="0.1201" stroke-linecap="round" stroke-linejoin="round" fill="#494949"/>
        <path d="M 123.7219,5.2662 L 119.7563,5.2662 L 119.7563,2.5915 L 123.7219,2.5915 L 123.7219,5.2662 Z" stroke="#000000" stroke-width="0.1201" stroke-linecap="round" stroke-linejoin="round" fill="#494949"/>
        <path d="M 123.7219,10.0473 L 119.7563,10.0473 L 119.7563,7.3726 L 123.7219,7.3726 L 123.7219,10.0473 Z" stroke="#000000" stroke-width="0.1201" stroke-linecap="round" stroke-linejoin="round" fill="#494949"/>
        <path d="M 36.5770,2.6526 L 35.5452,2.6526 L 35.5452,3.0163 L 36.5770,3.0163 L 36.5770,2.6526 Z" stroke="#000000" stroke-width="0.1201" stroke-linecap="round" stroke-linejoin="round" fill="#83FF00"/>
        <path d="M 33.5919,2.6526 L 32.5600,2.6526 L 32.5600,3.0163 L 33.5919,3.0163 L 33.5919,2.6526 Z" stroke="#000000" stroke-width="0.1201" stroke-linecap="round" stroke-linejoin="round" fill="#83FF00"/>
        <path d="M 42.5473,2.6526 L 41.5154,2.6526 L 41.5154,3.0163 L 42.5473,3.0163 L 42.5473,2.6526 Z" stroke="#000000" stroke-width="0.1201" stroke-linecap="round" stroke-linejoin="round" fill="#83FF00"/>
        <path d="M 39.5622,2.6526 L 38.5303,2.6526 L 38.5303,3.0163 L 39.5622,3.0163 L 39.5622,2.6526 Z" stroke="#000000" stroke-width="0.1201" stroke-linecap="round" stroke-linejoin="round" fill="#83FF00"/>
        <path d="M 48.4991,2.6526 L 47.4672,2.6526 L 47.4672,3.0163 L 48.4991,3.0163 L 48.4991,2.6526 Z" stroke="#000000" stroke-width="0.1201" stroke-linecap="round" stroke-linejoin="round" fill="#83FF00"/>
        <path d="M 45.5324,2.6526 L 44.5005,2.6526 L 44.5005,3.0163 L 45.5324,3.0163 L 45.5324,2.6526 Z" stroke="#000000" stroke-width="0.1201" stroke-linecap="round" stroke-linejoin="round" fill="#83FF00"/>
        <path d="M 64.3093,2.6526 L 63.2774,2.6526 L 63.2774,3.0163 L 64.3093,3.0163 L 64.3093,2.6526 Z" stroke="#000000" stroke-width="0.1201" stroke-linecap="round" stroke-linejoin="round" fill="#83FF00"/>
        <path d="M 61.3241,2.6526 L 60.2922,2.6526 L 60.2922,3.0163 L 61.3241,3.0163 L 61.3241,2.6526 Z" stroke="#000000" stroke-width="0.1201" stroke-linecap="round" stroke-linejoin="round" fill="#83FF00"/>
        <path d="M 70.2795,2.6526 L 69.2476,2.6526 L 69.2476,3.0163 L 70.2795,3.0163 L 70.2795,2.6526 Z" stroke="#000000" stroke-width="0.1201" stroke-linecap="round" stroke-linejoin="round" fill="#83FF00"/>
        <path d="M 67.2944,2.6526 L 66.2625,2.6526 L 66.2625,3.0163 L 67.2944,3.0163 L 67.2944,2.6526 Z" stroke="#000000" stroke-width="0.1201" stroke-linecap="round" stroke-linejoin="round" fill="#83FF00"/>
        <path d="M 86.0897,2.6526 L 85.0578,2.6526 L 85.0578,3.0163 L 86.0897,3.0163 L 86.0897,2.6526 Z" stroke="#000000" stroke-width="0.1201" stroke-linecap="round" stroke-linejoin="round" fill="#83FF00"/>
        <path d="M 83.1045,2.6526 L 82.0726,2.6526 L 82.0726,3.0163 L 83.1045,3.0163 L 83.1045,2.6526 Z" stroke="#000000" stroke-width="0.1201" stroke-linecap="round" stroke-linejoin="round" fill="#83FF00"/>
        <path d="M 92.0415,2.6526 L 91.0096,2.6526 L 91.0096,3.0163 L 92.0415,3.0163 L 92.0415,2.6526 Z" stroke="#000000" stroke-width="0.1201" stroke-linecap="round" stroke-linejoin="round" fill="#83FF00"/>
        <path d="M 89.0564,2.6526 L 88.0245,2.6526 L 88.0245,3.0163 L 89.0564,3.0163 L 89.0564,2.6526 Z" stroke="#000000" stroke-width="0.1201" stroke-linecap="round" stroke-linejoin="round" fill="#83FF00"/>
        <path d="M 107.8516,2.6526 L 106.8197,2.6526 L 106.8197,3.0163 L 107.8516,3.0163 L 107.8516,2.6526 Z" stroke="#000000" stroke-width="0.1201" stroke-linecap="round" stroke-linejoin="round" fill="#83FF00"/>
        <path d="M 104.8665,2.6526 L 103.8346,2.6526 L 103.8346,3.0163 L 104.8665,3.0163 L 104.8665,2.6526 Z" stroke="#000000" stroke-width="0.1201" stroke-linecap="round" stroke-linejoin="round" fill="#83FF00"/>
        <path d="M 113.8219,2.6526 L 112.7900,2.6526 L 112.7900,3.0163 L 113.8219,3.0163 L 113.8219,2.6526 Z" stroke="#000000" stroke-width="0.1201" stroke-linecap="round" stroke-linejoin="round" fill="#83FF00"/>
        <path d="M 110.8367,2.6526 L 109.8048,2.6526 L 109.8048,3.0163 L 110.8367,3.0163 L 110.8367,2.6526 Z" stroke="#000000" stroke-width="0.1201" stroke-linecap="round" stroke-linejoin="round" fill="#83FF00"/>
        <path d="M 36.5770,9.6250 L 35.5452,9.6250 L 35.5452,9.9888 L 36.5770,9.9888 L 36.5770,9.6250 Z" stroke="#000000" stroke-width="0.1201" stroke-linecap="round" stroke-linejoin="round" fill="#83FF00"/>
        <path d="M 33.5919,9.6250 L 32.5600,9.6250 L 32.5600,9.9888 L 33.5919,9.9888 L 33.5919,9.6250 Z" stroke="#000000" stroke-width="0.1201" stroke-linecap="round" stroke-linejoin="round" fill="#83FF00"/>
        <path d="M 42.5473,9.6250 L 41.5154,9.6250 L 41.5154,9.9888 L 42.5473,9.9888 L 42.5473,9.6250 Z" stroke="#000000" stroke-width="0.1201" stroke-linecap="round" stroke-linejoin="round" fill="#83FF00"/>
        <path d="M 39.5622,9.6250 L 38.5303,9.6250 L 38.5303,9.9888 L 39.5622,9.9888 L 39.5622,9.6250 Z" stroke="#000000" stroke-width="0.1201" stroke-linecap="round" stroke-linejoin="round" fill="#83FF00"/>
        <path d="M 48.4991,9.6250 L 47.4672,9.6250 L 47.4672,9.9888 L 48.4991,9.9888 L 48.4991,9.6250 Z" stroke="#000000" stroke-width="0.1201" stroke-linecap="round" stroke-linejoin="round" fill="#83FF00"/>
        <path d="M 45.5324,9.6250 L 44.5005,9.6250 L 44.5005,9.9888 L 45.5324,9.9888 L 45.5324,9.6250 Z" stroke="#000000" stroke-width="0.1201" stroke-linecap="round" stroke-linejoin="round" fill="#83FF00"/>
        <path d="M 64.3093,9.6250 L 63.2774,9.6250 L 63.2774,9.9888 L 64.3093,9.9888 L 64.3093,9.6250 Z" stroke="#000000" stroke-width="0.1201" stroke-linecap="round" stroke-linejoin="round" fill="#83FF00"/>
        <path d="M 61.3241,9.6250 L 60.2922,9.6250 L 60.2922,9.9888 L 61.3241,9.9888 L 61.3241,9.6250 Z" stroke="#000000" stroke-width="0.1201" stroke-linecap="round" stroke-linejoin="round" fill="#83FF00"/>
        <path d="M 70.2795,9.6250 L 69.2476,9.6250 L 69.2476,9.9888 L 70.2795,9.9888 L 70.2795,9.6250 Z" stroke="#000000" stroke-width="0.1201" stroke-linecap="round" stroke-linejoin="round" fill="#83FF00"/>
        <path d="M 67.2944,9.6250 L 66.2625,9.6250 L 66.2625,9.9888 L 67.2944,9.9888 L 67.2944,9.6250 Z" stroke="#000000" stroke-width="0.1201" stroke-linecap="round" stroke-linejoin="round" fill="#83FF00"/>
        <path d="M 86.0897,9.6250 L 85.0578,9.6250 L 85.0578,9.9888 L 86.0897,9.9888 L 86.0897,9.6250 Z" stroke="#000000" stroke-width="0.1201" stroke-linecap="round" stroke-linejoin="round" fill="#83FF00"/>
        <path d="M 83.1045,9.6250 L 82.0726,9.6250 L 82.0726,9.9888 L 83.1045,9.9888 L 83.1045,9.6250 Z" stroke="#000000" stroke-width="0.1201" stroke-linecap="round" stroke-linejoin="round" fill="#83FF00"/>
        <path d="M 92.0415,9.6250 L 91.0096,9.6250 L 91.0096,9.9888 L 92.0415,9.9888 L 92.0415,9.6250 Z" stroke="#000000" stroke-width="0.1201" stroke-linecap="round" stroke-linejoin="round" fill="#83FF00"/>
        <path d="M 89.0564,9.6250 L 88.0245,9.6250 L 88.0245,9.9888 L 89.0564,9.9888 L 89.0564,9.6250 Z" stroke="#000000" stroke-width="0.1201" stroke-linecap="round" stroke-linejoin="round" fill="#83FF00"/>
        <path d="M 107.8516,9.6250 L 106.8197,9.6250 L 106.8197,9.9888 L 107.8516,9.9888 L 107.8516,9.6250 Z" stroke="#000000" stroke-width="0.1201" stroke-linecap="round" stroke-linejoin="round" fill="#83FF00"/>
        <path d="M 104.8665,9.6250 L 103.8346,9.6250 L 103.8346,9.9888 L 104.8665,9.9888 L 104.8665,9.6250 Z" stroke="#000000" stroke-width="0.1201" stroke-linecap="round" stroke-linejoin="round" fill="#83FF00"/>
        <path d="M 113.8219,9.6250 L 112.7900,9.6250 L 112.7900,9.9888 L 113.8219,9.9888 L 113.8219,9.6250 Z" stroke="#000000" stroke-width="0.1201" stroke-linecap="round" stroke-linejoin="round" fill="#83FF00"/>
        <path d="M 110.8367,9.6250 L 109.8048,9.6250 L 109.8048,9.9888 L 110.8367,9.9888 L 110.8367,9.6250 Z" stroke="#000000" stroke-width="0.1201" stroke-linecap="round" stroke-linejoin="round" fill="#83FF00"/>
      </g>
      <!--emf-blob end-->
    </g>
  </g>
</svg>
