<svg xmlns="http://www.w3.org/2000/svg" xmlns:xlink="http://www.w3.org/1999/xlink" version="1.1" width="2.4032000000" height="2.4032000000" viewBox="0 0 43.2567 43.2567">
  <title><![CDATA[FBS-10F]]></title>
  <g transform=" scale(4.000000) ">
    <!--converted by libvisio2svg-->
    <g transform=" translate(0.000000,0.000000) ">
      <!--emf-blob start-->
      <g transform="translate(-0.0000, -0.0000)">
        <path d="M 43.2005,6.1244 L 43.1864,5.8161 L 43.1724,5.5077 L 43.1302,5.1994 L 43.0740,4.8911 L 43.0037,4.5968 L 42.9194,4.3165 L 42.8351,4.0362 L 42.7227,3.7559 L 42.5962,3.4896 L 42.4556,3.2234 L 42.3151,2.9711 L 42.1605,2.7188 L 41.9919,2.4806 L 41.8092,2.2423 L 41.6124,2.0321 L 41.4157,1.8219 L 41.1908,1.6117 L 40.9800,1.4155 L 40.7411,1.2333 L 40.5022,1.0651 L 40.2492,0.9109 L 39.9963,0.7708 L 39.7293,0.6307 L 39.4623,0.5045 L 39.1812,0.3924 L 38.9001,0.3083 L 38.6190,0.2242 L 38.3239,0.1542 L 38.0147,0.0981 L 37.7056,0.0561 L 37.3964,0.0420 L 37.0872,0.0280 L 6.1414,0.0280 L 5.8322,0.0420 L 5.5230,0.0561 L 5.2139,0.0981 L 4.9047,0.1542 L 4.6096,0.2242 L 4.3285,0.3083 L 4.0474,0.3924 L 3.7663,0.5045 L 3.4993,0.6307 L 3.2323,0.7708 L 2.9793,0.9109 L 2.7264,1.0651 L 2.4875,1.2333 L 2.2486,1.4155 L 2.0378,1.6117 L 1.8270,1.8219 L 1.6162,2.0321 L 1.4194,2.2423 L 1.2367,2.4806 L 1.0681,2.7188 L 0.9135,2.9711 L 0.7729,3.2234 L 0.6324,3.4896 L 0.5059,3.7559 L 0.3935,4.0362 L 0.3092,4.3165 L 0.2249,4.5968 L 0.1546,4.8911 L 0.0984,5.1994 L 0.0562,5.5077 L 0.0422,5.8161 L 0.0281,6.1244 L 0.0281,36.9845 L 0.0422,37.2928 L 0.0562,37.6011 L 0.0984,37.9094 L 0.1546,38.2178 L 0.2249,38.5121 L 0.3092,38.7924 L 0.3935,39.0726 L 0.5059,39.3529 L 0.6324,39.6192 L 0.7729,39.8855 L 0.9135,40.1378 L 1.0681,40.3900 L 1.2367,40.6283 L 1.4194,40.8665 L 1.6162,41.0767 L 1.8270,41.3010 L 2.0378,41.4972 L 2.2486,41.6934 L 2.4875,41.8756 L 2.7264,42.0437 L 2.9793,42.1979 L 3.2323,42.3380 L 3.4993,42.4782 L 3.7663,42.6043 L 4.0474,42.7164 L 4.3285,42.8005 L 4.6096,42.8846 L 4.9047,42.9547 L 5.2139,43.0107 L 5.5230,43.0528 L 5.8322,43.0668 L 6.1414,43.0808 L 37.0872,43.0808 L 37.3964,43.0668 L 37.7056,43.0528 L 38.0147,43.0107 L 38.3239,42.9547 L 38.6190,42.8846 L 38.9001,42.8005 L 39.1812,42.7164 L 39.4623,42.6043 L 39.7293,42.4782 L 39.9963,42.3380 L 40.2492,42.1979 L 40.5022,42.0437 L 40.7411,41.8756 L 40.9800,41.6934 L 41.1908,41.4972 L 41.4157,41.3010 L 41.6124,41.0767 L 41.8092,40.8665 L 41.9919,40.6283 L 42.1605,40.3900 L 42.3151,40.1378 L 42.4556,39.8855 L 42.5962,39.6192 L 42.7227,39.3529 L 42.8351,39.0726 L 42.9194,38.7924 L 43.0037,38.5121 L 43.0740,38.2178 L 43.1302,37.9094 L 43.1724,37.6011 L 43.1864,37.2928 L 43.2005,36.9845 L 43.2005,6.1244 Z" stroke="#000000" stroke-width="0.1198" stroke-linecap="round" stroke-linejoin="round" fill="#DDDDDD"/>
        <path d="M 42.9897,6.2925 L 42.9756,5.9842 L 42.9616,5.6759 L 42.9194,5.3676 L 42.8632,5.0733 L 42.7929,4.7790 L 42.7227,4.4987 L 42.6243,4.2184 L 42.5119,3.9381 L 42.3854,3.6718 L 42.2589,3.4196 L 42.1184,3.1673 L 41.9497,2.9150 L 41.7811,2.6768 L 41.6124,2.4526 L 41.4157,2.2283 L 41.2189,2.0181 L 41.0081,1.8219 L 40.7833,1.6257 L 40.5584,1.4575 L 40.3195,1.2893 L 40.0666,1.1212 L 39.8136,0.9810 L 39.5606,0.8549 L 39.2936,0.7288 L 39.0125,0.6166 L 38.7315,0.5185 L 38.4504,0.4485 L 38.1553,0.3784 L 37.8602,0.3223 L 37.5510,0.2803 L 37.2418,0.2663 L 36.9326,0.2523 L 6.3100,0.2523 L 6.0008,0.2663 L 5.6917,0.2803 L 5.3825,0.3223 L 5.0874,0.3784 L 4.7922,0.4485 L 4.5112,0.5185 L 4.2301,0.6166 L 3.9490,0.7288 L 3.6820,0.8549 L 3.4291,0.9810 L 3.1761,1.1212 L 2.9231,1.2893 L 2.6842,1.4575 L 2.4594,1.6257 L 2.2345,1.8219 L 2.0237,2.0181 L 1.8270,2.2283 L 1.6302,2.4526 L 1.4616,2.6768 L 1.2929,2.9150 L 1.1243,3.1673 L 0.9837,3.4196 L 0.8573,3.6718 L 0.7308,3.9381 L 0.6184,4.2184 L 0.5200,4.4987 L 0.4497,4.7790 L 0.3794,5.0733 L 0.3232,5.3676 L 0.2811,5.6759 L 0.2670,5.9842 L 0.2530,6.2925 L 0.2530,36.8303 L 0.2670,37.1386 L 0.2811,37.4470 L 0.3232,37.7553 L 0.3794,38.0496 L 0.4497,38.3439 L 0.5200,38.6242 L 0.6184,38.9045 L 0.7308,39.1848 L 0.8573,39.4510 L 0.9837,39.7033 L 1.1243,39.9556 L 1.2929,40.2078 L 1.4616,40.4461 L 1.6302,40.6703 L 1.8270,40.8945 L 2.0237,41.1048 L 2.2345,41.3010 L 2.4594,41.4972 L 2.6842,41.6653 L 2.9231,41.8335 L 3.1761,42.0017 L 3.4291,42.1418 L 3.6820,42.2680 L 3.9490,42.3941 L 4.2301,42.5062 L 4.5112,42.6043 L 4.7922,42.6744 L 5.0874,42.7445 L 5.3825,42.8005 L 5.6917,42.8426 L 6.0008,42.8566 L 6.3100,42.8706 L 36.9326,42.8706 L 37.2418,42.8566 L 37.5510,42.8426 L 37.8602,42.8005 L 38.1553,42.7445 L 38.4504,42.6744 L 38.7315,42.6043 L 39.0125,42.5062 L 39.2936,42.3941 L 39.5606,42.2680 L 39.8136,42.1418 L 40.0666,42.0017 L 40.3195,41.8335 L 40.5584,41.6653 L 40.7833,41.4972 L 41.0081,41.3010 L 41.2189,41.1048 L 41.4157,40.8945 L 41.6124,40.6703 L 41.7811,40.4461 L 41.9497,40.2078 L 42.1184,39.9556 L 42.2589,39.7033 L 42.3854,39.4510 L 42.5119,39.1848 L 42.6243,38.9045 L 42.7227,38.6242 L 42.7929,38.3439 L 42.8632,38.0496 L 42.9194,37.7553 L 42.9616,37.4470 L 42.9756,37.1386 L 42.9897,36.8303 L 42.9897,6.2925 Z" stroke="#DDDDDD" stroke-width="0.1198" stroke-linecap="round" stroke-linejoin="round" fill="#EFEFEF"/>
        <path d="M 42.0059,6.9933 L 41.9919,6.6990 L 41.9778,6.4047 L 41.9357,6.1104 L 41.8935,5.8301 L 41.8232,5.5498 L 41.7530,5.2835 L 41.6546,5.0172 L 41.5562,4.7509 L 41.4297,4.4987 L 41.3033,4.2464 L 41.1768,4.0082 L 41.0222,3.7699 L 40.8535,3.5457 L 40.6849,3.3355 L 40.5022,3.1253 L 40.3195,2.9150 L 40.1087,2.7328 L 39.8979,2.5507 L 39.6871,2.3825 L 39.4623,2.2143 L 39.2233,2.0601 L 38.9844,1.9340 L 38.7315,1.8079 L 38.4785,1.6817 L 38.2115,1.5836 L 37.9445,1.4855 L 37.6775,1.4155 L 37.3964,1.3454 L 37.1153,1.3034 L 36.8202,1.2613 L 36.5251,1.2473 L 36.2299,1.2333 L 36.1456,1.2333 L 35.9067,1.2333 L 35.5132,1.2333 L 34.9792,1.2333 L 34.3187,1.2333 L 33.5317,1.2333 L 32.6463,1.2333 L 31.6626,1.2333 L 30.5945,1.2333 L 29.4562,1.2333 L 28.2476,1.2333 L 26.9827,1.2333 L 25.6758,1.2333 L 24.3407,1.2333 L 22.9915,1.2333 L 21.6284,1.2333 L 20.2511,1.2333 L 18.9020,1.2333 L 17.5669,1.2333 L 16.2599,1.2333 L 14.9951,1.2333 L 13.7865,1.2333 L 12.6482,1.2333 L 11.5801,1.2333 L 10.5963,1.2333 L 9.7110,1.2333 L 8.9240,1.2333 L 8.2635,1.2333 L 7.7294,1.2333 L 7.3359,1.2333 L 7.0970,1.2333 L 7.0127,1.2333 L 6.7176,1.2473 L 6.4225,1.2613 L 6.1273,1.3034 L 5.8463,1.3454 L 5.5652,1.4155 L 5.2982,1.4855 L 5.0312,1.5836 L 4.7641,1.6817 L 4.5112,1.8079 L 4.2582,1.9340 L 4.0193,2.0601 L 3.7804,2.2143 L 3.5555,2.3825 L 3.3447,2.5507 L 3.1339,2.7328 L 2.9231,2.9150 L 2.7404,3.1253 L 2.5577,3.3355 L 2.3891,3.5457 L 2.2205,3.7699 L 2.0659,4.0082 L 1.9394,4.2464 L 1.8129,4.4987 L 1.6864,4.7509 L 1.5880,5.0172 L 1.4897,5.2835 L 1.4194,5.5498 L 1.3491,5.8301 L 1.3070,6.1104 L 1.2648,6.4047 L 1.2508,6.6990 L 1.2367,6.9933 L 2.1923,7.4137 L 3.1901,7.8622 L 4.2161,8.3527 L 5.2982,8.8852 L 6.3943,9.4458 L 7.5327,10.0625 L 8.6991,10.7071 L 9.8796,11.3939 L 11.0882,12.1226 L 12.2968,12.8934 L 13.5335,13.7063 L 14.7702,14.5752 L 16.0210,15.4721 L 17.2718,16.4251 L 18.5085,17.4061 L 19.7592,18.4572 L 20.9959,19.5363 L 22.2186,20.6715 L 23.4272,21.8487 L 24.6077,23.0820 L 25.7741,24.3573 L 26.9265,25.6887 L 28.0367,27.0762 L 29.1189,28.5057 L 30.1729,29.9912 L 31.1847,31.5188 L 32.1404,33.1165 L 33.0679,34.7562 L 33.9392,36.4519 L 34.7543,38.2178 L 35.5273,40.0256 L 36.2299,41.8896 L 36.5251,41.8756 L 36.8202,41.8615 L 37.1153,41.8195 L 37.3964,41.7775 L 37.6775,41.7074 L 37.9445,41.6373 L 38.2115,41.5392 L 38.4785,41.4411 L 38.7315,41.3150 L 38.9844,41.1888 L 39.2233,41.0627 L 39.4623,40.9086 L 39.6871,40.7404 L 39.8979,40.5722 L 40.1087,40.3900 L 40.3195,40.2078 L 40.5022,39.9976 L 40.6849,39.7874 L 40.8535,39.5772 L 41.0222,39.3529 L 41.1768,39.1147 L 41.3033,38.8764 L 41.4297,38.6242 L 41.5562,38.3719 L 41.6546,38.1056 L 41.7530,37.8394 L 41.8232,37.5731 L 41.8935,37.2928 L 41.9357,37.0125 L 41.9778,36.7182 L 41.9919,36.4239 L 42.0059,36.1296 L 42.0059,36.0455 L 42.0059,35.8073 L 42.0059,35.4148 L 42.0059,34.8823 L 42.0059,34.2236 L 42.0059,33.4388 L 42.0059,32.5559 L 42.0059,31.5748 L 42.0059,30.5097 L 42.0059,29.3746 L 42.0059,28.1693 L 42.0059,26.9080 L 42.0059,25.6046 L 42.0059,24.2733 L 42.0059,22.9279 L 42.0059,21.5684 L 42.0059,20.1950 L 42.0059,18.8496 L 42.0059,17.5182 L 42.0059,16.2149 L 42.0059,14.9536 L 42.0059,13.7483 L 42.0059,12.6131 L 42.0059,11.5480 L 42.0059,10.5670 L 42.0059,9.6841 L 42.0059,8.8993 L 42.0059,8.2406 L 42.0059,7.7080 L 42.0059,7.3156 L 42.0059,7.0774 L 42.0059,6.9933 Z" stroke="#F7F7F7" stroke-width="0.1198" stroke-linecap="round" stroke-linejoin="round" fill="#F7F7F7"/>
        <path d="M 14.6016,19.8446 L 14.5875,19.8446 L 14.5735,19.8446 L 14.5735,19.8306 L 14.5594,19.8306 L 14.5454,19.8166 L 14.5454,19.8026 L 14.5313,19.8026 L 14.5313,19.7886 L 14.5173,19.7886 L 14.5173,19.7746 L 14.5173,19.7606 L 14.5173,19.7465 L 14.5173,19.7325 L 14.5173,19.7045 L 14.5173,19.6765 L 14.5173,19.6344 L 14.5173,19.5924 L 14.5173,19.5503 L 14.5173,19.4943 L 14.5173,19.4522 L 14.5173,19.3962 L 14.5173,19.3401 L 14.5173,19.2700 L 14.5173,19.2140 L 14.5173,19.1439 L 14.5173,19.0879 L 14.5173,19.0318 L 14.5173,18.9617 L 14.5173,18.9057 L 14.5173,18.8356 L 14.5173,18.7795 L 14.5173,18.7235 L 14.5173,18.6814 L 14.5173,18.6254 L 14.5173,18.5833 L 14.5173,18.5413 L 14.5173,18.4992 L 14.5173,18.4712 L 14.5173,18.4432 L 14.5173,18.4292 L 14.5173,18.4152 L 14.5173,18.4011 L 14.5173,18.3871 L 14.5313,18.3871 L 14.5313,18.3731 L 14.5454,18.3731 L 14.5454,18.3591 L 14.5594,18.3451 L 14.5735,18.3451 L 14.5735,18.3311 L 14.5875,18.3311 L 14.6016,18.3311 L 14.6156,18.3311 L 14.6438,18.3311 L 14.6719,18.3311 L 14.7000,18.3311 L 14.7562,18.3311 L 14.7983,18.3311 L 14.8546,18.3311 L 14.9108,18.3311 L 14.9670,18.3311 L 15.0373,18.3311 L 15.1075,18.3311 L 15.1778,18.3311 L 15.2481,18.3311 L 15.3324,18.3311 L 15.4026,18.3311 L 15.4729,18.3311 L 15.5572,18.3311 L 15.6275,18.3311 L 15.6978,18.3311 L 15.7680,18.3311 L 15.8383,18.3311 L 15.8945,18.3311 L 15.9507,18.3311 L 16.0069,18.3311 L 16.0491,18.3311 L 16.1053,18.3311 L 16.1334,18.3311 L 16.1615,18.3311 L 16.1896,18.3311 L 16.2037,18.3311 L 16.2177,18.3311 L 16.2318,18.3311 L 16.2318,18.3451 L 16.2459,18.3451 L 16.2599,18.3591 L 16.2599,18.3731 L 16.2740,18.3731 L 16.2740,18.3871 L 16.2880,18.3871 L 16.2880,18.4011 L 16.2880,18.4152 L 16.2880,18.4292 L 16.2880,18.4432 L 16.2880,18.4572 L 16.2880,18.4712 L 16.2880,18.4852 L 16.2880,18.4992 L 16.2880,18.5133 L 16.2880,18.5273 L 16.2880,18.5413 L 16.2880,18.5553 L 16.2880,18.5693 L 16.2880,18.5833 L 16.2880,18.5973 L 16.2880,18.6114 L 16.2880,18.6254 L 16.2880,18.6394 L 16.2880,18.6534 L 16.2880,18.6674 L 16.2880,18.6814 L 16.2880,18.6954 L 16.2880,18.6814 L 16.2740,18.6674 L 16.2740,18.6534 L 16.2599,18.6534 L 16.2459,18.6534 L 16.2459,18.6394 L 16.2318,18.6394 L 16.2177,18.6394 L 16.2037,18.6394 L 16.1896,18.6394 L 16.1615,18.6394 L 16.1334,18.6394 L 16.1053,18.6394 L 16.0632,18.6394 L 16.0210,18.6394 L 15.9788,18.6394 L 15.9226,18.6394 L 15.8664,18.6394 L 15.8243,18.6394 L 15.7680,18.6394 L 15.6978,18.6394 L 15.6416,18.6394 L 15.5853,18.6394 L 15.5291,18.6394 L 15.4729,18.6394 L 15.4026,18.6394 L 15.3464,18.6394 L 15.3043,18.6394 L 15.2481,18.6394 L 15.1918,18.6394 L 15.1497,18.6394 L 15.1075,18.6394 L 15.0654,18.6394 L 15.0373,18.6394 L 15.0091,18.6394 L 14.9810,18.6394 L 14.9670,18.6394 L 14.9529,18.6394 L 14.9389,18.6394 L 14.9248,18.6394 L 14.9108,18.6394 L 14.8967,18.6394 L 14.8967,18.6534 L 14.8827,18.6534 L 14.8686,18.6674 L 14.8686,18.6814 L 14.8686,18.6954 L 14.8686,18.7095 L 14.8686,18.7235 L 14.8686,18.7375 L 14.8686,18.7655 L 14.8686,18.7936 L 14.8686,18.8216 L 14.8686,18.8636 L 14.8686,18.9057 L 14.8686,18.9477 L 14.8686,18.9898 L 14.8686,19.0318 L 14.8686,19.0879 L 14.8686,19.1299 L 14.8686,19.1860 L 14.8686,19.2420 L 14.8686,19.2841 L 14.8686,19.3401 L 14.8686,19.3822 L 14.8686,19.4382 L 14.8686,19.4803 L 14.8686,19.5223 L 14.8686,19.5644 L 14.8686,19.6064 L 14.8686,19.6484 L 14.8686,19.6765 L 14.8686,19.7045 L 14.8686,19.7325 L 14.8686,19.7465 L 14.8686,19.7606 L 14.8686,19.7746 L 14.8686,19.7886 L 14.8686,19.8026 L 14.8827,19.8166 L 14.8827,19.8306 L 14.8967,19.8306 L 14.8967,19.8446 L 14.9108,19.8446 L 14.9248,19.8446 L 14.9108,19.8446 L 14.8967,19.8446 L 14.8827,19.8446 L 14.8686,19.8446 L 14.8546,19.8446 L 14.8405,19.8446 L 14.8265,19.8446 L 14.8124,19.8446 L 14.7983,19.8446 L 14.7843,19.8446 L 14.7702,19.8446 L 14.7421,19.8446 L 14.7281,19.8446 L 14.7140,19.8446 L 14.7000,19.8446 L 14.6859,19.8446 L 14.6719,19.8446 L 14.6578,19.8446 L 14.6438,19.8446 L 14.6297,19.8446 L 14.6156,19.8446 L 14.6016,19.8446 Z" stroke="#7F7F7F" stroke-width="0.1198" stroke-linecap="round" stroke-linejoin="round" fill="#7F7F7F"/>
        <path d="M 16.1756,18.9898 L 16.1475,18.9898 L 16.1053,18.9898 L 16.0772,18.9898 L 16.0351,18.9898 L 15.9929,18.9898 L 15.9507,18.9898 L 15.9086,18.9898 L 15.8664,18.9898 L 15.8102,18.9898 L 15.7680,18.9898 L 15.7259,18.9898 L 15.6697,18.9898 L 15.6275,18.9898 L 15.5713,18.9898 L 15.5291,18.9898 L 15.4729,18.9898 L 15.4308,18.9898 L 15.3886,18.9898 L 15.3324,18.9898 L 15.2902,18.9898 L 15.2621,18.9898 L 15.2199,18.9898 L 15.1778,18.9898 L 15.1497,18.9898 L 15.1216,18.9898 L 15.0935,18.9898 L 15.0654,18.9898 L 15.0513,18.9898 L 15.0373,18.9898 L 15.0232,18.9898 L 15.0091,18.9898 L 14.9951,18.9898 L 14.9810,18.9757 L 14.9670,18.9757 L 14.9670,18.9617 L 14.9670,18.9477 L 14.9529,18.9477 L 14.9529,18.9337 L 14.9529,18.9197 L 14.9529,18.9057 L 14.9529,18.8917 L 14.9529,18.9057 L 14.9529,18.9197 L 14.9529,18.9337 L 14.9529,18.9477 L 14.9529,18.9617 L 14.9529,18.9757 L 14.9529,18.9898 L 14.9529,19.0038 L 14.9529,19.0178 L 14.9529,19.0318 L 14.9529,19.0458 L 14.9529,19.0598 L 14.9529,19.0738 L 14.9529,19.0879 L 14.9529,19.1019 L 14.9529,19.1159 L 14.9529,19.1299 L 14.9529,19.1439 L 14.9529,19.1579 L 14.9529,19.1719 L 14.9529,19.1860 L 14.9529,19.2000 L 14.9529,19.2140 L 14.9670,19.2140 L 14.9670,19.2280 L 14.9670,19.2420 L 14.9810,19.2420 L 14.9810,19.2560 L 14.9951,19.2560 L 15.0091,19.2560 L 15.0232,19.2560 L 15.0373,19.2560 L 15.0513,19.2560 L 15.0654,19.2560 L 15.0935,19.2560 L 15.1216,19.2560 L 15.1497,19.2560 L 15.1918,19.2560 L 15.2340,19.2560 L 15.2762,19.2560 L 15.3183,19.2560 L 15.3605,19.2560 L 15.4026,19.2560 L 15.4589,19.2560 L 15.5010,19.2560 L 15.5572,19.2560 L 15.5994,19.2560 L 15.6556,19.2560 L 15.6978,19.2560 L 15.7540,19.2560 L 15.7961,19.2560 L 15.8524,19.2560 L 15.8945,19.2560 L 15.9507,19.2560 L 15.9929,19.2560 L 16.0351,19.2560 L 16.0772,19.2560 L 16.1053,19.2560 L 16.1475,19.2560 L 16.1756,19.2560 L 16.2037,19.2560 L 16.2177,19.2420 L 16.2318,19.2280 L 16.2459,19.2140 L 16.2599,19.2000 L 16.2599,19.1860 L 16.2740,19.1860 L 16.2740,19.1719 L 16.2880,19.1579 L 16.2880,19.1439 L 16.2880,19.1299 L 16.3021,19.1159 L 16.3021,19.1019 L 16.3021,19.0879 L 16.2880,19.0738 L 16.2880,19.0598 L 16.2880,19.0458 L 16.2740,19.0458 L 16.2740,19.0318 L 16.2599,19.0318 L 16.2599,19.0178 L 16.2459,19.0178 L 16.2459,19.0038 L 16.2318,19.0038 L 16.2177,19.0038 L 16.2037,18.9898 L 16.1896,18.9898 L 16.1756,18.9898 Z" stroke="#7F7F7F" stroke-width="0.1198" stroke-linecap="round" stroke-linejoin="round" fill="#7F7F7F"/>
        <path d="M 18.9863,19.2700 L 18.9722,19.2700 L 18.9582,19.2700 L 18.9582,19.2560 L 18.9441,19.2560 L 18.9441,19.2420 L 18.9301,19.2420 L 18.9301,19.2280 L 18.9160,19.2280 L 18.9160,19.2140 L 18.9160,19.2000 L 18.9020,19.2000 L 18.9020,19.1860 L 18.9020,19.1719 L 18.9020,19.1579 L 18.9020,19.1439 L 18.9020,19.1299 L 18.9020,19.1159 L 18.9020,19.1019 L 18.9020,19.0879 L 18.9020,19.0738 L 18.9020,19.0598 L 18.9020,19.0458 L 18.9020,19.0318 L 18.9020,19.0178 L 18.9020,19.0038 L 18.9020,18.9898 L 18.9020,18.9757 L 18.9020,18.9617 L 18.9020,18.9477 L 18.9020,18.9337 L 18.9020,18.9197 L 18.9020,18.9057 L 18.9020,18.9197 L 18.9020,18.9337 L 18.9160,18.9337 L 18.9160,18.9477 L 18.9301,18.9477 L 18.9301,18.9617 L 18.9441,18.9757 L 18.9582,18.9757 L 18.9582,18.9898 L 18.9722,18.9898 L 18.9863,18.9898 L 19.0003,18.9898 L 19.0144,18.9898 L 19.0285,18.9898 L 19.0425,18.9898 L 19.0706,18.9898 L 19.0987,18.9898 L 19.1268,18.9898 L 19.1690,18.9898 L 19.1971,18.9898 L 19.2393,18.9898 L 19.2814,18.9898 L 19.3236,18.9898 L 19.3657,18.9898 L 19.4079,18.9898 L 19.4501,18.9898 L 19.4922,18.9898 L 19.5344,18.9898 L 19.5765,18.9898 L 19.6187,18.9898 L 19.6609,18.9898 L 19.7030,18.9898 L 19.7311,18.9898 L 19.7733,18.9898 L 19.8014,18.9898 L 19.8295,18.9898 L 19.8576,18.9898 L 19.8717,18.9898 L 19.8857,18.9898 L 19.8998,18.9898 L 19.9138,18.9898 L 19.9138,18.9757 L 19.9138,18.9617 L 19.9138,18.9477 L 19.9138,18.9337 L 19.9138,18.9197 L 19.9138,18.9057 L 19.9138,18.8917 L 19.9138,18.8776 L 19.9138,18.8636 L 19.9138,18.8496 L 19.9138,18.8356 L 19.9138,18.8216 L 19.9138,18.7936 L 19.9138,18.7795 L 19.9138,18.7655 L 19.9138,18.7515 L 19.9138,18.7375 L 19.9138,18.7235 L 19.9138,18.7095 L 19.9138,18.6954 L 19.9138,18.6814 L 19.9138,18.6674 L 19.9138,18.6534 L 19.9138,18.6394 L 19.8998,18.6394 L 19.8857,18.6394 L 19.8717,18.6394 L 19.8436,18.6394 L 19.8154,18.6394 L 19.7873,18.6394 L 19.7592,18.6394 L 19.7171,18.6394 L 19.6749,18.6394 L 19.6328,18.6394 L 19.5906,18.6394 L 19.5484,18.6394 L 19.5063,18.6394 L 19.4501,18.6394 L 19.4079,18.6394 L 19.3657,18.6394 L 19.3095,18.6394 L 19.2674,18.6394 L 19.2252,18.6394 L 19.1830,18.6394 L 19.1409,18.6394 L 19.0987,18.6394 L 19.0566,18.6394 L 19.0285,18.6394 L 19.0003,18.6394 L 18.9722,18.6394 L 18.9441,18.6394 L 18.9301,18.6394 L 18.9160,18.6394 L 18.9020,18.6394 L 18.8879,18.6394 L 18.8739,18.6394 L 18.8598,18.6534 L 18.8458,18.6534 L 18.8458,18.6674 L 18.8317,18.6674 L 18.8317,18.6814 L 18.8317,18.6954 L 18.8317,18.7095 L 18.8317,18.7235 L 18.8317,18.7375 L 18.8317,18.7655 L 18.8317,18.7936 L 18.8317,18.8216 L 18.8317,18.8636 L 18.8317,18.9057 L 18.8317,18.9477 L 18.8317,18.9898 L 18.8317,19.0318 L 18.8317,19.0879 L 18.8317,19.1299 L 18.8317,19.1860 L 18.8317,19.2420 L 18.8317,19.2841 L 18.8317,19.3401 L 18.8317,19.3822 L 18.8317,19.4382 L 18.8317,19.4803 L 18.8317,19.5223 L 18.8317,19.5644 L 18.8317,19.6064 L 18.8317,19.6484 L 18.8317,19.6765 L 18.8317,19.7045 L 18.8317,19.7325 L 18.8317,19.7465 L 18.8317,19.7606 L 18.8317,19.7746 L 18.8317,19.7886 L 18.8317,19.8026 L 18.8458,19.8026 L 18.8458,19.8166 L 18.8458,19.8306 L 18.8598,19.8306 L 18.8598,19.8446 L 18.8739,19.8446 L 18.8598,19.8446 L 18.8458,19.8446 L 18.8317,19.8446 L 18.8176,19.8446 L 18.8036,19.8446 L 18.7895,19.8446 L 18.7755,19.8446 L 18.7614,19.8446 L 18.7474,19.8446 L 18.7333,19.8446 L 18.7193,19.8446 L 18.7052,19.8446 L 18.6912,19.8446 L 18.6771,19.8446 L 18.6631,19.8446 L 18.6490,19.8446 L 18.6350,19.8446 L 18.6209,19.8446 L 18.6068,19.8446 L 18.5928,19.8446 L 18.5787,19.8446 L 18.5647,19.8446 L 18.5506,19.8446 L 18.5366,19.8306 L 18.5225,19.8306 L 18.5225,19.8166 L 18.5085,19.8166 L 18.5085,19.8026 L 18.4944,19.7886 L 18.4944,19.7746 L 18.4944,19.7606 L 18.4944,19.7465 L 18.4944,19.7325 L 18.4944,19.7045 L 18.4944,19.6765 L 18.4944,19.6344 L 18.4944,19.5924 L 18.4944,19.5503 L 18.4944,19.4943 L 18.4944,19.4522 L 18.4944,19.3962 L 18.4944,19.3401 L 18.4944,19.2700 L 18.4944,19.2140 L 18.4944,19.1439 L 18.4944,19.0879 L 18.4944,19.0318 L 18.4944,18.9617 L 18.4944,18.9057 L 18.4944,18.8356 L 18.4944,18.7795 L 18.4944,18.7235 L 18.4944,18.6814 L 18.4944,18.6254 L 18.4944,18.5833 L 18.4944,18.5413 L 18.4944,18.4992 L 18.4944,18.4712 L 18.4944,18.4432 L 18.4944,18.4292 L 18.4944,18.4152 L 18.4944,18.4011 L 18.4944,18.3871 L 18.5085,18.3731 L 18.5085,18.3591 L 18.5225,18.3591 L 18.5225,18.3451 L 18.5366,18.3451 L 18.5506,18.3311 L 18.5647,18.3311 L 18.5787,18.3311 L 18.5928,18.3311 L 18.6209,18.3311 L 18.6490,18.3311 L 18.6771,18.3311 L 18.7193,18.3311 L 18.7755,18.3311 L 18.8317,18.3311 L 18.8879,18.3311 L 18.9441,18.3311 L 19.0144,18.3311 L 19.0706,18.3311 L 19.1409,18.3311 L 19.2252,18.3311 L 19.2955,18.3311 L 19.3657,18.3311 L 19.4360,18.3311 L 19.5063,18.3311 L 19.5906,18.3311 L 19.6609,18.3311 L 19.7171,18.3311 L 19.7873,18.3311 L 19.8436,18.3311 L 19.9138,18.3311 L 19.9560,18.3311 L 20.0122,18.3311 L 20.0544,18.3311 L 20.0825,18.3311 L 20.1106,18.3311 L 20.1387,18.3311 L 20.1527,18.3311 L 20.1668,18.3311 L 20.1808,18.3311 L 20.1949,18.3311 L 20.1949,18.3451 L 20.2089,18.3451 L 20.2230,18.3451 L 20.2230,18.3591 L 20.2371,18.3591 L 20.2371,18.3731 L 20.2511,18.3731 L 20.2511,18.3871 L 20.2652,18.3871 L 20.2652,18.4011 L 20.2652,18.4152 L 20.2652,18.4292 L 20.2652,18.4432 L 20.2652,18.4572 L 20.2652,18.4852 L 20.2652,18.4992 L 20.2652,18.5273 L 20.2652,18.5553 L 20.2652,18.5833 L 20.2652,18.6114 L 20.2652,18.6394 L 20.2652,18.6814 L 20.2652,18.7095 L 20.2652,18.7515 L 20.2652,18.7795 L 20.2652,18.8076 L 20.2652,18.8496 L 20.2652,18.8776 L 20.2652,18.9197 L 20.2652,18.9477 L 20.2652,18.9757 L 20.2652,19.0038 L 20.2652,19.0318 L 20.2652,19.0598 L 20.2652,19.0738 L 20.2652,19.1019 L 20.2652,19.1159 L 20.2652,19.1299 L 20.2652,19.1439 L 20.2511,19.1439 L 20.2511,19.1579 L 20.2371,19.1579 L 20.2371,19.1719 L 20.2230,19.1860 L 20.2230,19.2000 L 20.2089,19.2000 L 20.2089,19.2140 L 20.1949,19.2140 L 20.1949,19.2280 L 20.1808,19.2420 L 20.1668,19.2560 L 20.1527,19.2700 L 20.1668,19.2841 L 20.1808,19.2841 L 20.1808,19.2981 L 20.1949,19.2981 L 20.1949,19.3121 L 20.2089,19.3121 L 20.2089,19.3261 L 20.2230,19.3261 L 20.2230,19.3401 L 20.2371,19.3541 L 20.2371,19.3681 L 20.2511,19.3681 L 20.2511,19.3822 L 20.2652,19.3822 L 20.2652,19.3962 L 20.2652,19.4102 L 20.2652,19.4242 L 20.2652,19.4382 L 20.2652,19.4522 L 20.2652,19.4663 L 20.2652,19.4803 L 20.2652,19.4943 L 20.2652,19.5223 L 20.2652,19.5363 L 20.2652,19.5503 L 20.2652,19.5644 L 20.2652,19.5924 L 20.2652,19.6064 L 20.2652,19.6204 L 20.2652,19.6344 L 20.2652,19.6484 L 20.2652,19.6765 L 20.2652,19.6905 L 20.2652,19.7045 L 20.2652,19.7185 L 20.2652,19.7325 L 20.2652,19.7465 L 20.2652,19.7606 L 20.2652,19.7746 L 20.2652,19.7886 L 20.2652,19.8026 L 20.2792,19.8166 L 20.2792,19.8306 L 20.2933,19.8306 L 20.2933,19.8446 L 20.3073,19.8446 L 20.3214,19.8446 L 20.3073,19.8446 L 20.2933,19.8446 L 20.2792,19.8446 L 20.2652,19.8446 L 20.2511,19.8446 L 20.2371,19.8446 L 20.2230,19.8446 L 20.2089,19.8446 L 20.1949,19.8446 L 20.1808,19.8446 L 20.1668,19.8446 L 20.1387,19.8446 L 20.1246,19.8446 L 20.1106,19.8446 L 20.0965,19.8446 L 20.0825,19.8446 L 20.0684,19.8446 L 20.0544,19.8446 L 20.0403,19.8446 L 20.0263,19.8446 L 20.0122,19.8446 L 19.9981,19.8446 L 19.9841,19.8446 L 19.9700,19.8446 L 19.9700,19.8306 L 19.9560,19.8306 L 19.9419,19.8306 L 19.9419,19.8166 L 19.9279,19.8166 L 19.9279,19.8026 L 19.9279,19.7886 L 19.9138,19.7886 L 19.9138,19.7746 L 19.9138,19.7606 L 19.9138,19.7465 L 19.9138,19.7325 L 19.9138,19.7185 L 19.9138,19.7045 L 19.9138,19.6905 L 19.9138,19.6765 L 19.9138,19.6625 L 19.9138,19.6484 L 19.9138,19.6344 L 19.9138,19.6204 L 19.9138,19.5924 L 19.9138,19.5784 L 19.9138,19.5644 L 19.9138,19.5363 L 19.9138,19.5223 L 19.9138,19.5083 L 19.9138,19.4803 L 19.9138,19.4522 L 19.9138,19.4382 L 19.9138,19.4102 L 19.9138,19.3962 L 19.9138,19.3681 L 19.9138,19.3401 L 19.9138,19.3261 L 19.9138,19.2981 L 19.9138,19.2700 L 19.8998,19.2700 L 19.8857,19.2700 L 19.8717,19.2700 L 19.8576,19.2700 L 19.8295,19.2700 L 19.8014,19.2700 L 19.7733,19.2700 L 19.7311,19.2700 L 19.7030,19.2700 L 19.6609,19.2700 L 19.6187,19.2700 L 19.5765,19.2700 L 19.5344,19.2700 L 19.4922,19.2700 L 19.4501,19.2700 L 19.4079,19.2700 L 19.3657,19.2700 L 19.3236,19.2700 L 19.2814,19.2700 L 19.2393,19.2700 L 19.1971,19.2700 L 19.1690,19.2700 L 19.1268,19.2700 L 19.0987,19.2700 L 19.0706,19.2700 L 19.0425,19.2700 L 19.0285,19.2700 L 19.0144,19.2700 L 19.0003,19.2700 L 18.9863,19.2700 Z" stroke="#7F7F7F" stroke-width="0.1198" stroke-linecap="round" stroke-linejoin="round" fill="#7F7F7F"/>
        <path d="M 20.8695,18.6394 L 20.8414,18.6394 L 20.8273,18.6394 L 20.7992,18.6394 L 20.7851,18.6394 L 20.7711,18.6394 L 20.7430,18.6394 L 20.7289,18.6394 L 20.7149,18.6394 L 20.7008,18.6394 L 20.6727,18.6394 L 20.6587,18.6394 L 20.6446,18.6394 L 20.6306,18.6394 L 20.6165,18.6394 L 20.6024,18.6394 L 20.5884,18.6394 L 20.5743,18.6394 L 20.5603,18.6394 L 20.5462,18.6394 L 20.5322,18.6394 L 20.5181,18.6394 L 20.5041,18.6394 L 20.4900,18.6394 L 20.4760,18.6254 L 20.4619,18.6254 L 20.4619,18.6114 L 20.4479,18.5973 L 20.4479,18.5833 L 20.4338,18.5833 L 20.4338,18.5693 L 20.4338,18.5553 L 20.4197,18.5553 L 20.4197,18.5413 L 20.4197,18.5273 L 20.4197,18.5133 L 20.4197,18.4992 L 20.4197,18.4852 L 20.4197,18.4712 L 20.4197,18.4572 L 20.4197,18.4432 L 20.4197,18.4292 L 20.4197,18.4152 L 20.4197,18.4011 L 20.4197,18.3871 L 20.4338,18.3871 L 20.4338,18.3731 L 20.4479,18.3731 L 20.4479,18.3591 L 20.4619,18.3451 L 20.4760,18.3451 L 20.4760,18.3311 L 20.4900,18.3311 L 20.5041,18.3311 L 20.5181,18.3311 L 20.5462,18.3311 L 20.5743,18.3311 L 20.6024,18.3311 L 20.6587,18.3311 L 20.7008,18.3311 L 20.7570,18.3311 L 20.8132,18.3311 L 20.8695,18.3311 L 20.9397,18.3311 L 21.0100,18.3311 L 21.0803,18.3311 L 21.1505,18.3311 L 21.2349,18.3311 L 21.3051,18.3311 L 21.3754,18.3311 L 21.4597,18.3311 L 21.5300,18.3311 L 21.6002,18.3311 L 21.6705,18.3311 L 21.7408,18.3311 L 21.7970,18.3311 L 21.8532,18.3311 L 21.9094,18.3311 L 21.9516,18.3311 L 22.0078,18.3311 L 22.0359,18.3311 L 22.0640,18.3311 L 22.0921,18.3311 L 22.1062,18.3311 L 22.1202,18.3311 L 22.1343,18.3311 L 22.1343,18.3451 L 22.1483,18.3451 L 22.1624,18.3591 L 22.1624,18.3731 L 22.1764,18.3731 L 22.1764,18.3871 L 22.1905,18.3871 L 22.1905,18.4011 L 22.1905,18.4152 L 22.1905,18.4292 L 22.1905,18.4432 L 22.1905,18.4572 L 22.1905,18.4712 L 22.1905,18.4852 L 22.1905,18.4992 L 22.1905,18.5133 L 22.1905,18.5273 L 22.1905,18.5413 L 22.1905,18.5553 L 22.1905,18.5693 L 22.1905,18.5833 L 22.1905,18.5973 L 22.1905,18.6114 L 22.1905,18.6254 L 22.1905,18.6394 L 22.1905,18.6534 L 22.1905,18.6674 L 22.1905,18.6814 L 22.1905,18.6954 L 22.1905,18.6814 L 22.1764,18.6674 L 22.1764,18.6534 L 22.1624,18.6534 L 22.1483,18.6534 L 22.1483,18.6394 L 22.1343,18.6394 L 22.1202,18.6394 L 22.1062,18.6394 L 22.0921,18.6394 L 22.0781,18.6394 L 22.0640,18.6394 L 22.0359,18.6394 L 22.0218,18.6394 L 21.9937,18.6394 L 21.9797,18.6394 L 21.9516,18.6394 L 21.9235,18.6394 L 21.8954,18.6394 L 21.8673,18.6394 L 21.8392,18.6394 L 21.7970,18.6394 L 21.7689,18.6394 L 21.7408,18.6394 L 21.6986,18.6394 L 21.6705,18.6394 L 21.6284,18.6394 L 21.6002,18.6394 L 21.5581,18.6394 L 21.5159,18.6394 L 21.4878,18.6394 L 21.4457,18.6394 L 21.4035,18.6394 L 21.3754,18.6394 L 21.3332,18.6394 L 21.3051,18.6394 L 21.2630,18.6394 L 21.2489,18.6394 L 21.2349,18.6394 L 21.2349,18.6534 L 21.2208,18.6534 L 21.2208,18.6674 L 21.2208,18.6814 L 21.2208,18.6954 L 21.2208,18.7095 L 21.2208,18.7235 L 21.2208,18.7375 L 21.2208,18.7655 L 21.2208,18.7936 L 21.2208,18.8216 L 21.2208,18.8636 L 21.2208,18.9057 L 21.2208,18.9477 L 21.2208,18.9898 L 21.2208,19.0318 L 21.2208,19.0879 L 21.2208,19.1299 L 21.2208,19.1860 L 21.2208,19.2420 L 21.2208,19.2841 L 21.2208,19.3401 L 21.2208,19.3822 L 21.2208,19.4382 L 21.2208,19.4803 L 21.2208,19.5223 L 21.2208,19.5644 L 21.2208,19.6064 L 21.2208,19.6484 L 21.2208,19.6765 L 21.2208,19.7045 L 21.2208,19.7325 L 21.2208,19.7465 L 21.2208,19.7606 L 21.2208,19.7746 L 21.2208,19.7886 L 21.2208,19.8026 L 21.2208,19.8166 L 21.2349,19.8166 L 21.2349,19.8306 L 21.2349,19.8446 L 21.2489,19.8446 L 21.2349,19.8446 L 21.2208,19.8446 L 21.2067,19.8446 L 21.1927,19.8446 L 21.1786,19.8446 L 21.1646,19.8446 L 21.1505,19.8446 L 21.1365,19.8446 L 21.1224,19.8446 L 21.1084,19.8446 L 21.0943,19.8446 L 21.0803,19.8446 L 21.0662,19.8446 L 21.0522,19.8446 L 21.0381,19.8446 L 21.0240,19.8446 L 21.0100,19.8446 L 20.9959,19.8446 L 20.9819,19.8446 L 20.9678,19.8446 L 20.9538,19.8446 L 20.9397,19.8446 L 20.9257,19.8446 L 20.9116,19.8446 L 20.9116,19.8306 L 20.8976,19.8306 L 20.8976,19.8166 L 20.8835,19.8166 L 20.8835,19.8026 L 20.8695,19.7886 L 20.8695,19.7746 L 20.8695,19.7606 L 20.8695,19.7465 L 20.8695,19.7325 L 20.8695,19.7045 L 20.8695,19.6905 L 20.8695,19.6625 L 20.8695,19.6344 L 20.8695,19.6064 L 20.8695,19.5644 L 20.8695,19.5363 L 20.8695,19.4943 L 20.8695,19.4522 L 20.8695,19.4242 L 20.8695,19.3681 L 20.8695,19.3261 L 20.8695,19.2841 L 20.8695,19.2420 L 20.8695,19.2000 L 20.8695,19.1439 L 20.8695,19.1019 L 20.8695,19.0598 L 20.8695,19.0038 L 20.8695,18.9617 L 20.8695,18.9197 L 20.8695,18.8776 L 20.8695,18.8356 L 20.8695,18.7936 L 20.8695,18.7515 L 20.8695,18.7095 L 20.8695,18.6674 L 20.8695,18.6394 Z" stroke="#7F7F7F" stroke-width="0.1198" stroke-linecap="round" stroke-linejoin="round" fill="#7F7F7F"/>
        <path d="M 22.7245,19.7746 L 22.7245,19.7886 L 22.7386,19.8026 L 22.7386,19.8166 L 22.7526,19.8166 L 22.7526,19.8306 L 22.7667,19.8306 L 22.7667,19.8446 L 22.7807,19.8446 L 22.7948,19.8446 L 22.7807,19.8446 L 22.7667,19.8446 L 22.7526,19.8446 L 22.7386,19.8446 L 22.7245,19.8446 L 22.7105,19.8446 L 22.6964,19.8446 L 22.6824,19.8446 L 22.6683,19.8446 L 22.6543,19.8446 L 22.6402,19.8446 L 22.6121,19.8446 L 22.5980,19.8446 L 22.5840,19.8446 L 22.5699,19.8446 L 22.5559,19.8446 L 22.5418,19.8446 L 22.5278,19.8446 L 22.5137,19.8446 L 22.4997,19.8446 L 22.4856,19.8446 L 22.4716,19.8446 L 22.4575,19.8446 L 22.4435,19.8446 L 22.4435,19.8306 L 22.4294,19.8306 L 22.4153,19.8306 L 22.4153,19.8166 L 22.4013,19.8166 L 22.4013,19.8026 L 22.3872,19.8026 L 22.3872,19.7886 L 22.3732,19.7886 L 22.3732,19.7746 L 22.3732,19.7606 L 22.3732,19.7465 L 22.3732,19.7325 L 22.3732,19.7045 L 22.3732,19.6765 L 22.3732,19.6344 L 22.3732,19.5924 L 22.3732,19.5503 L 22.3732,19.4943 L 22.3732,19.4522 L 22.3732,19.3822 L 22.3732,19.3261 L 22.3732,19.2700 L 22.3732,19.2140 L 22.3732,19.1439 L 22.3732,19.0879 L 22.3732,19.0178 L 22.3732,18.9477 L 22.3732,18.8917 L 22.3732,18.8356 L 22.3732,18.7795 L 22.3732,18.7095 L 22.3732,18.6674 L 22.3732,18.6114 L 22.3732,18.5693 L 22.3732,18.5273 L 22.3732,18.4852 L 22.3732,18.4572 L 22.3732,18.4292 L 22.3732,18.4152 L 22.3732,18.4011 L 22.3732,18.3871 L 22.3732,18.3731 L 22.3591,18.3591 L 22.3591,18.3451 L 22.3451,18.3451 L 22.3451,18.3311 L 22.3310,18.3311 L 22.3170,18.3311 L 22.3310,18.3311 L 22.3451,18.3311 L 22.3591,18.3311 L 22.3732,18.3311 L 22.3872,18.3311 L 22.4013,18.3311 L 22.4153,18.3311 L 22.4294,18.3311 L 22.4435,18.3311 L 22.4575,18.3311 L 22.4716,18.3311 L 22.4856,18.3311 L 22.4997,18.3311 L 22.5137,18.3311 L 22.5278,18.3311 L 22.5418,18.3311 L 22.5559,18.3311 L 22.5699,18.3311 L 22.5840,18.3311 L 22.5980,18.3311 L 22.6121,18.3311 L 22.6261,18.3311 L 22.6402,18.3311 L 22.6543,18.3311 L 22.6543,18.3451 L 22.6683,18.3451 L 22.6824,18.3451 L 22.6824,18.3591 L 22.6964,18.3591 L 22.6964,18.3731 L 22.7105,18.3731 L 22.7105,18.3871 L 22.7245,18.3871 L 22.7245,18.4011 L 22.7245,18.4152 L 22.7245,18.4292 L 22.7245,18.4432 L 22.7245,18.4712 L 22.7245,18.4992 L 22.7245,18.5413 L 22.7245,18.5833 L 22.7245,18.6254 L 22.7245,18.6814 L 22.7245,18.7235 L 22.7245,18.7936 L 22.7245,18.8496 L 22.7245,18.9057 L 22.7245,18.9617 L 22.7245,19.0318 L 22.7245,19.1019 L 22.7245,19.1579 L 22.7245,19.2280 L 22.7245,19.2841 L 22.7245,19.3401 L 22.7245,19.3962 L 22.7245,19.4663 L 22.7245,19.5083 L 22.7245,19.5644 L 22.7245,19.6064 L 22.7245,19.6484 L 22.7245,19.6905 L 22.7245,19.7185 L 22.7245,19.7465 L 22.7245,19.7606 L 22.7245,19.7746 Z" stroke="#7F7F7F" stroke-width="0.1198" stroke-linecap="round" stroke-linejoin="round" fill="#7F7F7F"/>
        <path d="M 24.4531,18.6394 L 24.4109,18.6394 L 24.3828,18.6394 L 24.3407,18.6394 L 24.2985,18.6394 L 24.2564,18.6394 L 24.2142,18.6394 L 24.1720,18.6394 L 24.1299,18.6394 L 24.0877,18.6394 L 24.0456,18.6394 L 24.0034,18.6394 L 23.9612,18.6394 L 23.9191,18.6394 L 23.8769,18.6394 L 23.8348,18.6394 L 23.8066,18.6394 L 23.7645,18.6394 L 23.7223,18.6394 L 23.6942,18.6394 L 23.6521,18.6394 L 23.6239,18.6394 L 23.5958,18.6394 L 23.5677,18.6394 L 23.5396,18.6394 L 23.5256,18.6394 L 23.4975,18.6394 L 23.4834,18.6394 L 23.4694,18.6394 L 23.4553,18.6394 L 23.4413,18.6394 L 23.4272,18.6394 L 23.4131,18.6394 L 23.3991,18.6534 L 23.3850,18.6534 L 23.3850,18.6674 L 23.3710,18.6674 L 23.3710,18.6814 L 23.3710,18.6954 L 23.3710,18.7095 L 23.3710,18.7235 L 23.3710,18.7375 L 23.3710,18.7655 L 23.3710,18.7936 L 23.3710,18.8216 L 23.3710,18.8636 L 23.3710,18.9057 L 23.3710,18.9477 L 23.3710,18.9898 L 23.3710,19.0318 L 23.3710,19.0879 L 23.3710,19.1299 L 23.3710,19.1860 L 23.3710,19.2420 L 23.3710,19.2841 L 23.3710,19.3401 L 23.3710,19.3822 L 23.3710,19.4382 L 23.3710,19.4803 L 23.3710,19.5223 L 23.3710,19.5644 L 23.3710,19.6064 L 23.3710,19.6484 L 23.3710,19.6765 L 23.3710,19.7045 L 23.3710,19.7325 L 23.3710,19.7465 L 23.3710,19.7606 L 23.3710,19.7746 L 23.3710,19.7886 L 23.3710,19.8026 L 23.3850,19.8026 L 23.3850,19.8166 L 23.3850,19.8306 L 23.3991,19.8306 L 23.3991,19.8446 L 23.4131,19.8446 L 23.3991,19.8446 L 23.3850,19.8446 L 23.3710,19.8446 L 23.3569,19.8446 L 23.3429,19.8446 L 23.3288,19.8446 L 23.3148,19.8446 L 23.3007,19.8446 L 23.2867,19.8446 L 23.2726,19.8446 L 23.2586,19.8446 L 23.2445,19.8446 L 23.2304,19.8446 L 23.2164,19.8446 L 23.2023,19.8446 L 23.1883,19.8446 L 23.1742,19.8446 L 23.1602,19.8446 L 23.1461,19.8446 L 23.1321,19.8446 L 23.1180,19.8446 L 23.1040,19.8446 L 23.0899,19.8446 L 23.0759,19.8306 L 23.0618,19.8306 L 23.0618,19.8166 L 23.0478,19.8166 L 23.0478,19.8026 L 23.0337,19.7886 L 23.0337,19.7746 L 23.0337,19.7606 L 23.0337,19.7465 L 23.0337,19.7325 L 23.0337,19.7045 L 23.0337,19.6765 L 23.0337,19.6344 L 23.0337,19.5924 L 23.0337,19.5503 L 23.0337,19.4943 L 23.0337,19.4522 L 23.0337,19.3962 L 23.0337,19.3401 L 23.0337,19.2700 L 23.0337,19.2140 L 23.0337,19.1439 L 23.0337,19.0879 L 23.0337,19.0318 L 23.0337,18.9617 L 23.0337,18.9057 L 23.0337,18.8356 L 23.0337,18.7795 L 23.0337,18.7235 L 23.0337,18.6814 L 23.0337,18.6254 L 23.0337,18.5833 L 23.0337,18.5413 L 23.0337,18.4992 L 23.0337,18.4712 L 23.0337,18.4432 L 23.0337,18.4292 L 23.0337,18.4152 L 23.0337,18.4011 L 23.0337,18.3871 L 23.0478,18.3731 L 23.0478,18.3591 L 23.0618,18.3591 L 23.0618,18.3451 L 23.0759,18.3451 L 23.0899,18.3311 L 23.1040,18.3311 L 23.1180,18.3311 L 23.1321,18.3311 L 23.1602,18.3311 L 23.1883,18.3311 L 23.2164,18.3311 L 23.2586,18.3311 L 23.3148,18.3311 L 23.3710,18.3311 L 23.4272,18.3311 L 23.4834,18.3311 L 23.5537,18.3311 L 23.6099,18.3311 L 23.6802,18.3311 L 23.7645,18.3311 L 23.8348,18.3311 L 23.9050,18.3311 L 23.9753,18.3311 L 24.0456,18.3311 L 24.1299,18.3311 L 24.2001,18.3311 L 24.2564,18.3311 L 24.3266,18.3311 L 24.3828,18.3311 L 24.4531,18.3311 L 24.4953,18.3311 L 24.5515,18.3311 L 24.5936,18.3311 L 24.6217,18.3311 L 24.6499,18.3311 L 24.6780,18.3311 L 24.6920,18.3311 L 24.7061,18.3311 L 24.7201,18.3311 L 24.7342,18.3311 L 24.7342,18.3451 L 24.7482,18.3451 L 24.7623,18.3451 L 24.7623,18.3591 L 24.7763,18.3591 L 24.7763,18.3731 L 24.7904,18.3731 L 24.7904,18.3871 L 24.8044,18.3871 L 24.8044,18.4011 L 24.8044,18.4152 L 24.8044,18.4292 L 24.8044,18.4432 L 24.8044,18.4712 L 24.8044,18.4992 L 24.8044,18.5413 L 24.8044,18.5833 L 24.8044,18.6254 L 24.8044,18.6814 L 24.8044,18.7235 L 24.8044,18.7936 L 24.8044,18.8496 L 24.8044,18.9057 L 24.8044,18.9617 L 24.8044,19.0318 L 24.8044,19.1019 L 24.8044,19.1579 L 24.8044,19.2280 L 24.8044,19.2841 L 24.8044,19.3401 L 24.8044,19.3962 L 24.8044,19.4663 L 24.8044,19.5083 L 24.8044,19.5644 L 24.8044,19.6064 L 24.8044,19.6484 L 24.8044,19.6905 L 24.8044,19.7185 L 24.8044,19.7465 L 24.8044,19.7606 L 24.8044,19.7746 L 24.8044,19.7886 L 24.8044,19.8026 L 24.8185,19.8166 L 24.8185,19.8306 L 24.8326,19.8306 L 24.8326,19.8446 L 24.8466,19.8446 L 24.8607,19.8446 L 24.8466,19.8446 L 24.8326,19.8446 L 24.8185,19.8446 L 24.8044,19.8446 L 24.7904,19.8446 L 24.7763,19.8446 L 24.7623,19.8446 L 24.7482,19.8446 L 24.7342,19.8446 L 24.7201,19.8446 L 24.7061,19.8446 L 24.6780,19.8446 L 24.6639,19.8446 L 24.6499,19.8446 L 24.6358,19.8446 L 24.6217,19.8446 L 24.6077,19.8446 L 24.5936,19.8446 L 24.5796,19.8446 L 24.5655,19.8446 L 24.5515,19.8446 L 24.5374,19.8446 L 24.5234,19.8446 L 24.5093,19.8446 L 24.5093,19.8306 L 24.4953,19.8306 L 24.4812,19.8306 L 24.4812,19.8166 L 24.4672,19.8166 L 24.4672,19.8026 L 24.4672,19.7886 L 24.4531,19.7886 L 24.4531,19.7746 L 24.4531,19.7606 L 24.4531,19.7465 L 24.4531,19.7325 L 24.4531,19.7045 L 24.4531,19.6905 L 24.4531,19.6625 L 24.4531,19.6344 L 24.4531,19.6064 L 24.4531,19.5644 L 24.4531,19.5363 L 24.4531,19.4943 L 24.4531,19.4522 L 24.4531,19.4242 L 24.4531,19.3681 L 24.4531,19.3261 L 24.4531,19.2841 L 24.4531,19.2420 L 24.4531,19.2000 L 24.4531,19.1439 L 24.4531,19.1019 L 24.4531,19.0598 L 24.4531,19.0038 L 24.4531,18.9617 L 24.4531,18.9197 L 24.4531,18.8776 L 24.4531,18.8356 L 24.4531,18.7936 L 24.4531,18.7515 L 24.4531,18.7095 L 24.4531,18.6674 L 24.4531,18.6394 Z" stroke="#7F7F7F" stroke-width="0.1198" stroke-linecap="round" stroke-linejoin="round" fill="#7F7F7F"/>
        <path d="M 26.5471,18.9898 L 26.5190,18.9898 L 26.4909,18.9898 L 26.4487,18.9898 L 26.4206,18.9898 L 26.3784,18.9898 L 26.3363,18.9898 L 26.2941,18.9898 L 26.2520,18.9898 L 26.2098,18.9898 L 26.1676,18.9898 L 26.1255,18.9898 L 26.0693,18.9898 L 26.0271,18.9898 L 25.9849,18.9898 L 25.9428,18.9898 L 25.9006,18.9898 L 25.8585,18.9898 L 25.8163,18.9898 L 25.7741,18.9898 L 25.7320,18.9898 L 25.6898,18.9898 L 25.6617,18.9898 L 25.6195,18.9898 L 25.5914,18.9898 L 25.5633,18.9898 L 25.5352,18.9898 L 25.5212,18.9898 L 25.4931,18.9898 L 25.4790,18.9898 L 25.4650,18.9898 L 25.4509,18.9898 L 25.4369,18.9898 L 25.4369,18.9757 L 25.4228,18.9757 L 25.4087,18.9757 L 25.4087,18.9617 L 25.3947,18.9617 L 25.3947,18.9477 L 25.3806,18.9477 L 25.3806,18.9337 L 25.3806,18.9197 L 25.3666,18.9197 L 25.3666,18.9057 L 25.3666,18.8917 L 25.3666,18.9057 L 25.3666,18.9197 L 25.3666,18.9337 L 25.3666,18.9477 L 25.3666,18.9617 L 25.3666,18.9757 L 25.3666,18.9898 L 25.3666,19.0038 L 25.3666,19.0178 L 25.3666,19.0318 L 25.3666,19.0458 L 25.3666,19.0598 L 25.3666,19.0738 L 25.3666,19.0879 L 25.3666,19.1019 L 25.3666,19.1159 L 25.3666,19.1299 L 25.3666,19.1439 L 25.3666,19.1579 L 25.3666,19.1719 L 25.3666,19.1860 L 25.3666,19.2000 L 25.3806,19.2000 L 25.3806,19.2140 L 25.3947,19.2140 L 25.3947,19.2280 L 25.4087,19.2280 L 25.4087,19.2420 L 25.4228,19.2420 L 25.4369,19.2420 L 25.4369,19.2560 L 25.4509,19.2560 L 25.4650,19.2560 L 25.4790,19.2560 L 25.5071,19.2560 L 25.5212,19.2560 L 25.5493,19.2560 L 25.5633,19.2560 L 25.6055,19.2560 L 25.6336,19.2560 L 25.6617,19.2560 L 25.7039,19.2560 L 25.7460,19.2560 L 25.7882,19.2560 L 25.8303,19.2560 L 25.8725,19.2560 L 25.9147,19.2560 L 25.9568,19.2560 L 25.9990,19.2560 L 26.0412,19.2560 L 26.0974,19.2560 L 26.1395,19.2560 L 26.1817,19.2560 L 26.2238,19.2560 L 26.2660,19.2560 L 26.3082,19.2560 L 26.3503,19.2560 L 26.3925,19.2560 L 26.4346,19.2560 L 26.4628,19.2560 L 26.4909,19.2560 L 26.5190,19.2560 L 26.5471,19.2560 L 26.5611,19.2420 L 26.5752,19.2280 L 26.5892,19.2280 L 26.5892,19.2140 L 26.6033,19.2000 L 26.6173,19.1860 L 26.6314,19.1719 L 26.6314,19.1579 L 26.6314,19.1439 L 26.6455,19.1299 L 26.6455,19.1159 L 26.6455,19.1019 L 26.6455,19.0879 L 26.6455,19.0738 L 26.6455,19.0598 L 26.6314,19.0458 L 26.6314,19.0318 L 26.6173,19.0318 L 26.6173,19.0178 L 26.6033,19.0178 L 26.6033,19.0038 L 26.5892,19.0038 L 26.5752,19.0038 L 26.5611,18.9898 L 26.5471,18.9898 Z" stroke="#7F7F7F" stroke-width="0.1198" stroke-linecap="round" stroke-linejoin="round" fill="#7F7F7F"/>
        <path d="M 27.3903,18.6394 L 27.3622,18.6394 L 27.3481,18.6394 L 27.3200,18.6394 L 27.3060,18.6394 L 27.2919,18.6394 L 27.2638,18.6394 L 27.2498,18.6394 L 27.2357,18.6394 L 27.2216,18.6394 L 27.1935,18.6394 L 27.1795,18.6394 L 27.1654,18.6394 L 27.1514,18.6394 L 27.1373,18.6394 L 27.1233,18.6394 L 27.1092,18.6394 L 27.0952,18.6394 L 27.0811,18.6394 L 27.0671,18.6394 L 27.0530,18.6394 L 27.0390,18.6394 L 27.0249,18.6394 L 27.0108,18.6394 L 26.9968,18.6254 L 26.9827,18.6254 L 26.9827,18.6114 L 26.9687,18.5973 L 26.9687,18.5833 L 26.9546,18.5833 L 26.9546,18.5693 L 26.9546,18.5553 L 26.9406,18.5553 L 26.9406,18.5413 L 26.9406,18.5273 L 26.9406,18.5133 L 26.9406,18.4992 L 26.9406,18.4852 L 26.9406,18.4712 L 26.9406,18.4572 L 26.9406,18.4432 L 26.9406,18.4292 L 26.9406,18.4152 L 26.9406,18.4011 L 26.9406,18.3871 L 26.9546,18.3871 L 26.9546,18.3731 L 26.9687,18.3731 L 26.9687,18.3591 L 26.9827,18.3451 L 26.9968,18.3451 L 26.9968,18.3311 L 27.0108,18.3311 L 27.0249,18.3311 L 27.0390,18.3311 L 27.0671,18.3311 L 27.0952,18.3311 L 27.1233,18.3311 L 27.1795,18.3311 L 27.2216,18.3311 L 27.2779,18.3311 L 27.3341,18.3311 L 27.3903,18.3311 L 27.4606,18.3311 L 27.5308,18.3311 L 27.6011,18.3311 L 27.6714,18.3311 L 27.7557,18.3311 L 27.8259,18.3311 L 27.8962,18.3311 L 27.9805,18.3311 L 28.0508,18.3311 L 28.1211,18.3311 L 28.1913,18.3311 L 28.2616,18.3311 L 28.3178,18.3311 L 28.3740,18.3311 L 28.4302,18.3311 L 28.4724,18.3311 L 28.5286,18.3311 L 28.5567,18.3311 L 28.5848,18.3311 L 28.6129,18.3311 L 28.6270,18.3311 L 28.6411,18.3311 L 28.6551,18.3311 L 28.6551,18.3451 L 28.6692,18.3451 L 28.6832,18.3591 L 28.6832,18.3731 L 28.6973,18.3731 L 28.6973,18.3871 L 28.7113,18.3871 L 28.7113,18.4011 L 28.7113,18.4152 L 28.7113,18.4292 L 28.7113,18.4432 L 28.7113,18.4572 L 28.7113,18.4712 L 28.7113,18.4852 L 28.7113,18.4992 L 28.7113,18.5133 L 28.7113,18.5273 L 28.7113,18.5413 L 28.7113,18.5553 L 28.7113,18.5693 L 28.7113,18.5833 L 28.7113,18.5973 L 28.7113,18.6114 L 28.7113,18.6254 L 28.7113,18.6394 L 28.7113,18.6534 L 28.7113,18.6674 L 28.7113,18.6814 L 28.7113,18.6954 L 28.7113,18.6814 L 28.6973,18.6674 L 28.6973,18.6534 L 28.6832,18.6534 L 28.6692,18.6534 L 28.6692,18.6394 L 28.6551,18.6394 L 28.6411,18.6394 L 28.6270,18.6394 L 28.6129,18.6394 L 28.5989,18.6394 L 28.5848,18.6394 L 28.5567,18.6394 L 28.5427,18.6394 L 28.5146,18.6394 L 28.5005,18.6394 L 28.4724,18.6394 L 28.4443,18.6394 L 28.4162,18.6394 L 28.3881,18.6394 L 28.3600,18.6394 L 28.3178,18.6394 L 28.2897,18.6394 L 28.2616,18.6394 L 28.2194,18.6394 L 28.1913,18.6394 L 28.1492,18.6394 L 28.1211,18.6394 L 28.0789,18.6394 L 28.0367,18.6394 L 28.0086,18.6394 L 27.9665,18.6394 L 27.9243,18.6394 L 27.8962,18.6394 L 27.8541,18.6394 L 27.8259,18.6394 L 27.7838,18.6394 L 27.7697,18.6394 L 27.7557,18.6394 L 27.7557,18.6534 L 27.7416,18.6534 L 27.7416,18.6674 L 27.7416,18.6814 L 27.7416,18.6954 L 27.7416,18.7095 L 27.7416,18.7235 L 27.7416,18.7375 L 27.7416,18.7655 L 27.7416,18.7936 L 27.7416,18.8216 L 27.7416,18.8636 L 27.7416,18.9057 L 27.7416,18.9477 L 27.7416,18.9898 L 27.7416,19.0318 L 27.7416,19.0879 L 27.7416,19.1299 L 27.7416,19.1860 L 27.7416,19.2420 L 27.7416,19.2841 L 27.7416,19.3401 L 27.7416,19.3822 L 27.7416,19.4382 L 27.7416,19.4803 L 27.7416,19.5223 L 27.7416,19.5644 L 27.7416,19.6064 L 27.7416,19.6484 L 27.7416,19.6765 L 27.7416,19.7045 L 27.7416,19.7325 L 27.7416,19.7465 L 27.7416,19.7606 L 27.7416,19.7746 L 27.7416,19.7886 L 27.7416,19.8026 L 27.7416,19.8166 L 27.7557,19.8166 L 27.7557,19.8306 L 27.7557,19.8446 L 27.7697,19.8446 L 27.7557,19.8446 L 27.7416,19.8446 L 27.7276,19.8446 L 27.7135,19.8446 L 27.6995,19.8446 L 27.6854,19.8446 L 27.6714,19.8446 L 27.6573,19.8446 L 27.6433,19.8446 L 27.6292,19.8446 L 27.6151,19.8446 L 27.6011,19.8446 L 27.5870,19.8446 L 27.5730,19.8446 L 27.5589,19.8446 L 27.5449,19.8446 L 27.5308,19.8446 L 27.5168,19.8446 L 27.5027,19.8446 L 27.4887,19.8446 L 27.4746,19.8446 L 27.4606,19.8446 L 27.4465,19.8446 L 27.4324,19.8446 L 27.4324,19.8306 L 27.4184,19.8306 L 27.4184,19.8166 L 27.4043,19.8166 L 27.4043,19.8026 L 27.3903,19.7886 L 27.3903,19.7746 L 27.3903,19.7606 L 27.3903,19.7465 L 27.3903,19.7325 L 27.3903,19.7045 L 27.3903,19.6905 L 27.3903,19.6625 L 27.3903,19.6344 L 27.3903,19.6064 L 27.3903,19.5644 L 27.3903,19.5363 L 27.3903,19.4943 L 27.3903,19.4522 L 27.3903,19.4242 L 27.3903,19.3681 L 27.3903,19.3261 L 27.3903,19.2841 L 27.3903,19.2420 L 27.3903,19.2000 L 27.3903,19.1439 L 27.3903,19.1019 L 27.3903,19.0598 L 27.3903,19.0038 L 27.3903,18.9617 L 27.3903,18.9197 L 27.3903,18.8776 L 27.3903,18.8356 L 27.3903,18.7936 L 27.3903,18.7515 L 27.3903,18.7095 L 27.3903,18.6674 L 27.3903,18.6394 Z" stroke="#7F7F7F" stroke-width="0.1198" stroke-linecap="round" stroke-linejoin="round" fill="#7F7F7F"/>
        <path d="M 26.6595,19.5363 L 26.6736,19.5363 L 26.6876,19.5363 L 26.6876,19.5223 L 26.7017,19.5223 L 26.7157,19.5223 L 26.7157,19.5083 L 26.7298,19.4943 L 26.7298,19.4803 L 26.7298,19.4943 L 26.7298,19.5083 L 26.7298,19.5223 L 26.7298,19.5363 L 26.7298,19.5503 L 26.7298,19.5644 L 26.7298,19.5784 L 26.7298,19.5924 L 26.7298,19.6064 L 26.7298,19.6204 L 26.7298,19.6344 L 26.7298,19.6484 L 26.7298,19.6625 L 26.7298,19.6765 L 26.7298,19.6905 L 26.7298,19.7045 L 26.7298,19.7185 L 26.7298,19.7325 L 26.7298,19.7465 L 26.7298,19.7606 L 26.7298,19.7746 L 26.7298,19.7886 L 26.7157,19.7886 L 26.7157,19.8026 L 26.7017,19.8026 L 26.7017,19.8166 L 26.6876,19.8306 L 26.6736,19.8306 L 26.6736,19.8446 L 26.6595,19.8446 L 26.6455,19.8446 L 26.6314,19.8446 L 26.6033,19.8446 L 26.5752,19.8446 L 26.5471,19.8446 L 26.4909,19.8446 L 26.4487,19.8446 L 26.3925,19.8446 L 26.3363,19.8446 L 26.2801,19.8446 L 26.2098,19.8446 L 26.1395,19.8446 L 26.0693,19.8446 L 25.9990,19.8446 L 25.9147,19.8446 L 25.8444,19.8446 L 25.7741,19.8446 L 25.6898,19.8446 L 25.6195,19.8446 L 25.5493,19.8446 L 25.4790,19.8446 L 25.4087,19.8446 L 25.3525,19.8446 L 25.2963,19.8446 L 25.2401,19.8446 L 25.1979,19.8446 L 25.1417,19.8446 L 25.1136,19.8446 L 25.0855,19.8446 L 25.0574,19.8446 L 25.0434,19.8446 L 25.0293,19.8446 L 25.0152,19.8446 L 25.0152,19.8306 L 25.0012,19.8306 L 24.9871,19.8166 L 24.9871,19.8026 L 24.9731,19.8026 L 24.9731,19.7886 L 24.9590,19.7886 L 24.9590,19.7746 L 24.9590,19.7606 L 24.9590,19.7465 L 24.9590,19.7325 L 24.9590,19.7045 L 24.9590,19.6765 L 24.9590,19.6344 L 24.9590,19.5924 L 24.9590,19.5503 L 24.9590,19.4943 L 24.9590,19.4522 L 24.9590,19.3962 L 24.9590,19.3401 L 24.9590,19.2700 L 24.9590,19.2140 L 24.9590,19.1439 L 24.9590,19.0879 L 24.9590,19.0318 L 24.9590,18.9617 L 24.9590,18.9057 L 24.9590,18.8356 L 24.9590,18.7795 L 24.9590,18.7235 L 24.9590,18.6814 L 24.9590,18.6254 L 24.9590,18.5833 L 24.9590,18.5413 L 24.9590,18.4992 L 24.9590,18.4712 L 24.9590,18.4432 L 24.9590,18.4292 L 24.9590,18.4152 L 24.9590,18.4011 L 24.9590,18.3871 L 24.9731,18.3871 L 24.9731,18.3731 L 24.9871,18.3731 L 24.9871,18.3591 L 25.0012,18.3451 L 25.0152,18.3451 L 25.0152,18.3311 L 25.0293,18.3311 L 25.0434,18.3311 L 25.0574,18.3311 L 25.0855,18.3311 L 25.1136,18.3311 L 25.1417,18.3311 L 25.1979,18.3311 L 25.2401,18.3311 L 25.2963,18.3311 L 25.3525,18.3311 L 25.4087,18.3311 L 25.4790,18.3311 L 25.5493,18.3311 L 25.6195,18.3311 L 25.6898,18.3311 L 25.7741,18.3311 L 25.8444,18.3311 L 25.9147,18.3311 L 25.9990,18.3311 L 26.0693,18.3311 L 26.1395,18.3311 L 26.2098,18.3311 L 26.2801,18.3311 L 26.3363,18.3311 L 26.3925,18.3311 L 26.4487,18.3311 L 26.4909,18.3311 L 26.5471,18.3311 L 26.5752,18.3311 L 26.6033,18.3311 L 26.6314,18.3311 L 26.6455,18.3311 L 26.6595,18.3311 L 26.6736,18.3311 L 26.6736,18.3451 L 26.6876,18.3451 L 26.7017,18.3591 L 26.7017,18.3731 L 26.7157,18.3731 L 26.7157,18.3871 L 26.7298,18.3871 L 26.7298,18.4011 L 26.7298,18.4152 L 26.7298,18.4292 L 26.7298,18.4432 L 26.7298,18.4572 L 26.7298,18.4712 L 26.7298,18.4852 L 26.7298,18.4992 L 26.7298,18.5133 L 26.7298,18.5273 L 26.7298,18.5413 L 26.7298,18.5553 L 26.7298,18.5693 L 26.7298,18.5833 L 26.7298,18.5973 L 26.7298,18.6114 L 26.7298,18.6254 L 26.7298,18.6394 L 26.7298,18.6534 L 26.7298,18.6674 L 26.7298,18.6814 L 26.7298,18.6954 L 26.7298,18.6814 L 26.7157,18.6674 L 26.7157,18.6534 L 26.7017,18.6534 L 26.6876,18.6534 L 26.6876,18.6394 L 26.6736,18.6394 L 26.6595,18.6394 L 26.6455,18.6394 L 26.6314,18.6394 L 26.6033,18.6394 L 26.5752,18.6394 L 26.5471,18.6394 L 26.5049,18.6394 L 26.4628,18.6394 L 26.4206,18.6394 L 26.3644,18.6394 L 26.3082,18.6394 L 26.2660,18.6394 L 26.2098,18.6394 L 26.1395,18.6394 L 26.0833,18.6394 L 26.0271,18.6394 L 25.9709,18.6394 L 25.9147,18.6394 L 25.8444,18.6394 L 25.7882,18.6394 L 25.7460,18.6394 L 25.6898,18.6394 L 25.6336,18.6394 L 25.5914,18.6394 L 25.5493,18.6394 L 25.5071,18.6394 L 25.4790,18.6394 L 25.4509,18.6394 L 25.4228,18.6394 L 25.4087,18.6394 L 25.3947,18.6394 L 25.3806,18.6394 L 25.3666,18.6394 L 25.3525,18.6394 L 25.3385,18.6394 L 25.3385,18.6534 L 25.3244,18.6534 L 25.3104,18.6674 L 25.3104,18.6814 L 25.3104,18.6954 L 25.3104,18.7095 L 25.3104,18.7235 L 25.3104,18.7375 L 25.3104,18.7515 L 25.3104,18.7655 L 25.3104,18.7795 L 25.3104,18.8076 L 25.3104,18.8216 L 25.3104,18.8496 L 25.3104,18.8776 L 25.3104,18.9057 L 25.3104,18.9337 L 25.3104,18.9617 L 25.3104,19.0038 L 25.3104,19.0318 L 25.3104,19.0598 L 25.3104,19.1019 L 25.3104,19.1299 L 25.3104,19.1719 L 25.3104,19.2000 L 25.3104,19.2420 L 25.3104,19.2700 L 25.3104,19.3121 L 25.3104,19.3401 L 25.3104,19.3822 L 25.3104,19.4102 L 25.3104,19.4382 L 25.3104,19.4803 L 25.3104,19.5083 L 25.3104,19.5363 L 25.3244,19.5363 L 25.3385,19.5363 L 25.3666,19.5363 L 25.3947,19.5363 L 25.4369,19.5363 L 25.4790,19.5363 L 25.5212,19.5363 L 25.5774,19.5363 L 25.6195,19.5363 L 25.6758,19.5363 L 25.7320,19.5363 L 25.8022,19.5363 L 25.8585,19.5363 L 25.9287,19.5363 L 25.9849,19.5363 L 26.0412,19.5363 L 26.1114,19.5363 L 26.1676,19.5363 L 26.2379,19.5363 L 26.2941,19.5363 L 26.3503,19.5363 L 26.3925,19.5363 L 26.4487,19.5363 L 26.4909,19.5363 L 26.5330,19.5363 L 26.5752,19.5363 L 26.6033,19.5363 L 26.6314,19.5363 L 26.6455,19.5363 L 26.6595,19.5363 Z" stroke="#7F7F7F" stroke-width="0.1198" stroke-linecap="round" stroke-linejoin="round" fill="#7F7F7F"/>
        <path d="M 17.1031,19.3962 L 17.1031,19.8446 L 17.6653,19.8446 L 17.6653,19.3962 L 17.1031,19.3962 Z" stroke="#7F7F7F" stroke-width="0.1198" stroke-linecap="round" stroke-linejoin="round" fill="#7F7F7F"/>
        <path d="M 16.4848,18.8636 L 16.9907,18.8636 L 16.9907,19.3121 L 16.4848,19.3121 L 16.4848,18.8636 Z" stroke="#7F7F7F" stroke-width="0.1198" stroke-linecap="round" stroke-linejoin="round" fill="#7F7F7F"/>
        <path d="M 17.7496,19.4102 L 17.7496,19.4242 L 17.7496,19.4382 L 17.7496,19.4522 L 17.7496,19.4663 L 17.7496,19.4803 L 17.7496,19.4943 L 17.7496,19.5083 L 17.7496,19.5363 L 17.7496,19.5503 L 17.7496,19.5784 L 17.7496,19.5924 L 17.7496,19.6204 L 17.7496,19.6344 L 17.7496,19.6484 L 17.7496,19.6765 L 17.7496,19.6905 L 17.7496,19.7185 L 17.7496,19.7325 L 17.7496,19.7606 L 17.7496,19.7746 L 17.7496,19.7886 L 17.7496,19.8026 L 17.7496,19.8166 L 17.7496,19.8306 L 17.7496,19.8446 L 17.7496,19.8587 L 17.7777,19.8587 L 17.7917,19.8587 L 17.8198,19.8587 L 17.8480,19.8587 L 17.8620,19.8587 L 17.8901,19.8587 L 17.9182,19.8587 L 17.9323,19.8587 L 17.9604,19.8446 L 17.9744,19.8446 L 18.0025,19.8446 L 18.0166,19.8306 L 18.0447,19.8306 L 18.0588,19.8166 L 18.0728,19.8166 L 18.1009,19.8026 L 18.1150,19.7886 L 18.1290,19.7746 L 18.1431,19.7606 L 18.1571,19.7465 L 18.1712,19.7325 L 18.1852,19.7185 L 18.1993,19.6905 L 18.2133,19.6765 L 18.2274,19.6484 L 18.2274,19.6204 L 18.2415,19.5924 L 18.2415,19.5644 L 18.2555,19.5223 L 18.2555,19.4943 L 18.2555,19.4522 L 18.2555,19.4102 L 18.2415,19.4102 L 18.2274,19.4102 L 18.2133,19.4102 L 18.1993,19.4102 L 18.1712,19.4102 L 18.1571,19.4102 L 18.1431,19.4102 L 18.1150,19.4102 L 18.1009,19.4102 L 18.0728,19.4102 L 18.0447,19.4102 L 18.0307,19.4102 L 18.0025,19.4102 L 17.9744,19.4102 L 17.9604,19.4102 L 17.9323,19.4102 L 17.9042,19.4102 L 17.8901,19.4102 L 17.8620,19.4102 L 17.8480,19.4102 L 17.8339,19.4102 L 17.8058,19.4102 L 17.7917,19.4102 L 17.7777,19.4102 L 17.7636,19.4102 L 17.7496,19.4102 Z" stroke="#7F7F7F" stroke-width="0.1198" stroke-linecap="round" stroke-linejoin="round" fill="#7F7F7F"/>
        <path d="M 17.7496,18.8636 L 18.2555,18.8636 L 18.2555,19.3121 L 17.7496,19.3121 L 17.7496,18.8636 Z" stroke="#7F7F7F" stroke-width="0.1198" stroke-linecap="round" stroke-linejoin="round" fill="#7F7F7F"/>
        <path d="M 16.9907,19.4102 L 16.9907,19.4242 L 16.9907,19.4382 L 16.9907,19.4522 L 16.9907,19.4663 L 16.9907,19.4803 L 16.9907,19.4943 L 16.9907,19.5083 L 16.9907,19.5363 L 16.9907,19.5503 L 16.9907,19.5784 L 16.9907,19.5924 L 16.9907,19.6204 L 16.9907,19.6344 L 16.9907,19.6484 L 16.9907,19.6765 L 16.9907,19.6905 L 16.9907,19.7185 L 16.9907,19.7325 L 16.9907,19.7606 L 16.9907,19.7746 L 16.9907,19.7886 L 16.9907,19.8026 L 16.9907,19.8166 L 16.9907,19.8306 L 16.9907,19.8446 L 16.9907,19.8587 L 16.9626,19.8587 L 16.9485,19.8587 L 16.9204,19.8587 L 16.9064,19.8587 L 16.8783,19.8587 L 16.8642,19.8587 L 16.8361,19.8587 L 16.8080,19.8587 L 16.7939,19.8446 L 16.7799,19.8446 L 16.7518,19.8446 L 16.7377,19.8306 L 16.7096,19.8306 L 16.6956,19.8166 L 16.6815,19.8166 L 16.6534,19.8026 L 16.6394,19.7886 L 16.6253,19.7746 L 16.6112,19.7606 L 16.5972,19.7465 L 16.5831,19.7325 L 16.5691,19.7185 L 16.5550,19.6905 L 16.5410,19.6765 L 16.5269,19.6484 L 16.5269,19.6204 L 16.5129,19.5924 L 16.4988,19.5644 L 16.4988,19.5223 L 16.4988,19.4943 L 16.4848,19.4522 L 16.4848,19.4102 L 16.4988,19.4102 L 16.5129,19.4102 L 16.5269,19.4102 L 16.5410,19.4102 L 16.5691,19.4102 L 16.5831,19.4102 L 16.5972,19.4102 L 16.6253,19.4102 L 16.6394,19.4102 L 16.6675,19.4102 L 16.6956,19.4102 L 16.7096,19.4102 L 16.7377,19.4102 L 16.7658,19.4102 L 16.7799,19.4102 L 16.8080,19.4102 L 16.8361,19.4102 L 16.8502,19.4102 L 16.8783,19.4102 L 16.8923,19.4102 L 16.9064,19.4102 L 16.9345,19.4102 L 16.9485,19.4102 L 16.9626,19.4102 L 16.9766,19.4102 L 16.9907,19.4102 Z" stroke="#7F7F7F" stroke-width="0.1198" stroke-linecap="round" stroke-linejoin="round" fill="#7F7F7F"/>
        <path d="M 17.1031,18.3171 L 17.1031,18.7655 L 17.6653,18.7655 L 17.6653,18.3171 L 17.1031,18.3171 Z" stroke="#7F7F7F" stroke-width="0.1198" stroke-linecap="round" stroke-linejoin="round" fill="#7F7F7F"/>
        <path d="M 17.7496,18.7655 L 17.7496,18.7515 L 17.7496,18.7375 L 17.7496,18.7235 L 17.7496,18.7095 L 17.7496,18.6954 L 17.7496,18.6814 L 17.7496,18.6674 L 17.7496,18.6394 L 17.7496,18.6254 L 17.7496,18.5973 L 17.7496,18.5833 L 17.7496,18.5553 L 17.7496,18.5413 L 17.7496,18.5273 L 17.7496,18.4992 L 17.7496,18.4852 L 17.7496,18.4572 L 17.7496,18.4432 L 17.7496,18.4152 L 17.7496,18.4011 L 17.7496,18.3871 L 17.7496,18.3731 L 17.7496,18.3591 L 17.7496,18.3451 L 17.7496,18.3311 L 17.7496,18.3171 L 17.7777,18.3171 L 17.7917,18.3171 L 17.8198,18.3171 L 17.8480,18.3171 L 17.8620,18.3171 L 17.8901,18.3171 L 17.9182,18.3171 L 17.9323,18.3311 L 17.9604,18.3311 L 17.9744,18.3311 L 18.0025,18.3311 L 18.0166,18.3451 L 18.0447,18.3451 L 18.0588,18.3591 L 18.0728,18.3591 L 18.1009,18.3731 L 18.1150,18.3871 L 18.1290,18.4011 L 18.1431,18.4152 L 18.1571,18.4292 L 18.1712,18.4432 L 18.1852,18.4572 L 18.1993,18.4852 L 18.2133,18.5133 L 18.2274,18.5273 L 18.2274,18.5553 L 18.2415,18.5833 L 18.2415,18.6114 L 18.2555,18.6534 L 18.2555,18.6814 L 18.2555,18.7235 L 18.2555,18.7655 L 18.2415,18.7655 L 18.2274,18.7655 L 18.2133,18.7655 L 18.1993,18.7655 L 18.1712,18.7655 L 18.1571,18.7655 L 18.1431,18.7655 L 18.1150,18.7655 L 18.1009,18.7655 L 18.0728,18.7655 L 18.0447,18.7655 L 18.0307,18.7655 L 18.0025,18.7655 L 17.9744,18.7655 L 17.9604,18.7655 L 17.9323,18.7655 L 17.9042,18.7655 L 17.8901,18.7655 L 17.8620,18.7655 L 17.8480,18.7655 L 17.8339,18.7655 L 17.8058,18.7655 L 17.7917,18.7655 L 17.7777,18.7655 L 17.7636,18.7655 L 17.7496,18.7655 Z" stroke="#7F7F7F" stroke-width="0.1198" stroke-linecap="round" stroke-linejoin="round" fill="#7F7F7F"/>
        <path d="M 16.9907,18.7655 L 16.9907,18.7515 L 16.9907,18.7375 L 16.9907,18.7235 L 16.9907,18.7095 L 16.9907,18.6954 L 16.9907,18.6814 L 16.9907,18.6674 L 16.9907,18.6394 L 16.9907,18.6254 L 16.9907,18.5973 L 16.9907,18.5833 L 16.9907,18.5553 L 16.9907,18.5413 L 16.9907,18.5273 L 16.9907,18.4992 L 16.9907,18.4852 L 16.9907,18.4572 L 16.9907,18.4432 L 16.9907,18.4152 L 16.9907,18.4011 L 16.9907,18.3871 L 16.9907,18.3731 L 16.9907,18.3591 L 16.9907,18.3451 L 16.9907,18.3311 L 16.9907,18.3171 L 16.9626,18.3171 L 16.9485,18.3171 L 16.9204,18.3171 L 16.9064,18.3171 L 16.8783,18.3171 L 16.8642,18.3171 L 16.8361,18.3171 L 16.8080,18.3311 L 16.7939,18.3311 L 16.7799,18.3311 L 16.7518,18.3311 L 16.7377,18.3451 L 16.7096,18.3451 L 16.6956,18.3591 L 16.6815,18.3591 L 16.6534,18.3731 L 16.6394,18.3871 L 16.6253,18.4011 L 16.6112,18.4152 L 16.5972,18.4292 L 16.5831,18.4432 L 16.5691,18.4572 L 16.5550,18.4852 L 16.5410,18.5133 L 16.5269,18.5273 L 16.5269,18.5553 L 16.5129,18.5833 L 16.4988,18.6114 L 16.4988,18.6534 L 16.4988,18.6814 L 16.4848,18.7235 L 16.4848,18.7655 L 16.4988,18.7655 L 16.5129,18.7655 L 16.5269,18.7655 L 16.5410,18.7655 L 16.5691,18.7655 L 16.5831,18.7655 L 16.5972,18.7655 L 16.6253,18.7655 L 16.6394,18.7655 L 16.6675,18.7655 L 16.6956,18.7655 L 16.7096,18.7655 L 16.7377,18.7655 L 16.7658,18.7655 L 16.7799,18.7655 L 16.8080,18.7655 L 16.8361,18.7655 L 16.8502,18.7655 L 16.8783,18.7655 L 16.8923,18.7655 L 16.9064,18.7655 L 16.9345,18.7655 L 16.9485,18.7655 L 16.9626,18.7655 L 16.9766,18.7655 L 16.9907,18.7655 Z" stroke="#7F7F7F" stroke-width="0.1198" stroke-linecap="round" stroke-linejoin="round" fill="#7F7F7F"/>
        <path d="M 29.3016,37.8674 L 29.3016,37.8113 L 29.2735,37.7693 L 29.2594,37.7272 L 29.2172,37.6852 L 29.1751,37.6432 L 29.1329,37.6291 L 29.0908,37.6011 L 29.0345,37.6011 L 14.1940,37.6011 L 14.1378,37.6011 L 14.0957,37.6291 L 14.0535,37.6432 L 14.0113,37.6852 L 13.9692,37.7272 L 13.9551,37.7693 L 13.9270,37.8113 L 13.9270,37.8674 L 13.9270,37.8814 L 13.9270,37.9375 L 13.9551,37.9795 L 13.9692,38.0216 L 14.0113,38.0636 L 14.0535,38.1056 L 14.0957,38.1197 L 14.1378,38.1477 L 14.1940,38.1477 L 29.0345,38.1477 L 29.0908,38.1477 L 29.1329,38.1197 L 29.1751,38.1056 L 29.2172,38.0636 L 29.2594,38.0216 L 29.2735,37.9795 L 29.3016,37.9375 L 29.3016,37.8814 L 29.3016,37.8674 Z" stroke="#000000" stroke-width="0.1198" stroke-linecap="round" stroke-linejoin="round" fill="#494949"/>
        <path d="M 43.2005,6.1244 L 43.1864,5.8161 L 43.1724,5.5077 L 43.1302,5.1994 L 43.0740,4.8911 L 43.0037,4.5968 L 42.9194,4.3165 L 42.8351,4.0362 L 42.7227,3.7559 L 42.5962,3.4896 L 42.4556,3.2234 L 42.3151,2.9711 L 42.1605,2.7188 L 41.9919,2.4806 L 41.8092,2.2423 L 41.6124,2.0321 L 41.4157,1.8219 L 41.1908,1.6117 L 40.9800,1.4155 L 40.7411,1.2333 L 40.5022,1.0651 L 40.2492,0.9109 L 39.9963,0.7708 L 39.7293,0.6307 L 39.4623,0.5045 L 39.1812,0.3924 L 38.9001,0.3083 L 38.6190,0.2242 L 38.3239,0.1542 L 38.0147,0.0981 L 37.7056,0.0561 L 37.3964,0.0420 L 37.0872,0.0280 L 6.1414,0.0280 L 5.8322,0.0420 L 5.5230,0.0561 L 5.2139,0.0981 L 4.9047,0.1542 L 4.6096,0.2242 L 4.3285,0.3083 L 4.0474,0.3924 L 3.7663,0.5045 L 3.4993,0.6307 L 3.2323,0.7708 L 2.9793,0.9109 L 2.7264,1.0651 L 2.4875,1.2333 L 2.2486,1.4155 L 2.0378,1.6117 L 1.8270,1.8219 L 1.6162,2.0321 L 1.4194,2.2423 L 1.2367,2.4806 L 1.0681,2.7188 L 0.9135,2.9711 L 0.7729,3.2234 L 0.6324,3.4896 L 0.5059,3.7559 L 0.3935,4.0362 L 0.3092,4.3165 L 0.2249,4.5968 L 0.1546,4.8911 L 0.0984,5.1994 L 0.0562,5.5077 L 0.0422,5.8161 L 0.0281,6.1244 L 0.0281,36.9845 L 0.0422,37.2928 L 0.0562,37.6011 L 0.0984,37.9094 L 0.1546,38.2178 L 0.2249,38.5121 L 0.3092,38.7924 L 0.3935,39.0726 L 0.5059,39.3529 L 0.6324,39.6192 L 0.7729,39.8855 L 0.9135,40.1378 L 1.0681,40.3900 L 1.2367,40.6283 L 1.4194,40.8665 L 1.6162,41.0767 L 1.8270,41.3010 L 2.0378,41.4972 L 2.2486,41.6934 L 2.4875,41.8756 L 2.7264,42.0437 L 2.9793,42.1979 L 3.2323,42.3380 L 3.4993,42.4782 L 3.7663,42.6043 L 4.0474,42.7164 L 4.3285,42.8005 L 4.6096,42.8846 L 4.9047,42.9547 L 5.2139,43.0107 L 5.5230,43.0528 L 5.8322,43.0668 L 6.1414,43.0808 L 37.0872,43.0808 L 37.3964,43.0668 L 37.7056,43.0528 L 38.0147,43.0107 L 38.3239,42.9547 L 38.6190,42.8846 L 38.9001,42.8005 L 39.1812,42.7164 L 39.4623,42.6043 L 39.7293,42.4782 L 39.9963,42.3380 L 40.2492,42.1979 L 40.5022,42.0437 L 40.7411,41.8756 L 40.9800,41.6934 L 41.1908,41.4972 L 41.4157,41.3010 L 41.6124,41.0767 L 41.8092,40.8665 L 41.9919,40.6283 L 42.1605,40.3900 L 42.3151,40.1378 L 42.4556,39.8855 L 42.5962,39.6192 L 42.7227,39.3529 L 42.8351,39.0726 L 42.9194,38.7924 L 43.0037,38.5121 L 43.0740,38.2178 L 43.1302,37.9094 L 43.1724,37.6011 L 43.1864,37.2928 L 43.2005,36.9845 L 43.2005,6.1244 Z" stroke="#000000" stroke-width="0.1198" stroke-linecap="round" stroke-linejoin="round" fill="none"/>
        <path d="M 19.4641,38.5821 L 19.4641,38.9886 L 19.6749,38.9886 " stroke="#7F7F7F" stroke-width="0.1198" stroke-linecap="round" stroke-linejoin="round" fill="none"/>
        <path d="M 22.2467,38.6102 L 22.3591,38.9886 L 22.5418,38.6102 L 22.7245,38.9886 L 22.8370,38.6102 " stroke="#7F7F7F" stroke-width="0.1198" stroke-linecap="round" stroke-linejoin="round" fill="none"/>
        <path d="M 16.1615,38.6802 L 16.0772,38.6802 L 16.0772,39.1287 L 16.1615,39.1287 L 16.1615,38.6802 Z" stroke="#7F7F7F" stroke-width="0.1198" stroke-linecap="round" stroke-linejoin="round" fill="#7F7F7F"/>
        <path d="M 16.4004,39.1147 L 16.4004,39.1007 L 16.4004,39.0867 L 16.4004,39.0726 L 16.4004,39.0586 L 16.3864,39.0586 L 16.3864,39.0446 L 16.3864,39.0306 L 16.3723,39.0166 L 16.3723,39.0026 L 16.3583,38.9886 L 16.3583,38.9745 L 16.3442,38.9605 L 16.3302,38.9465 L 16.3161,38.9325 L 16.3161,38.9185 L 16.3021,38.9185 L 16.3021,38.9045 L 16.2880,38.9045 L 16.2740,38.8905 L 16.2880,38.8764 L 16.3021,38.8764 L 16.3021,38.8624 L 16.3161,38.8484 L 16.3302,38.8484 L 16.3302,38.8624 L 16.3442,38.8624 L 16.3442,38.8764 L 16.3583,38.8764 L 16.3723,38.8905 L 16.3723,38.9045 L 16.3864,38.9045 L 16.3864,38.9185 L 16.4004,38.9185 L 16.4004,38.9325 L 16.4145,38.9325 L 16.4145,38.9465 L 16.4145,38.9605 L 16.4286,38.9605 L 16.4286,38.9745 L 16.4286,38.9886 L 16.4426,38.9886 L 16.4426,39.0026 L 16.4426,39.0166 L 16.4567,39.0166 L 16.4567,39.0306 L 16.4567,39.0446 L 16.4567,39.0586 L 16.4707,39.0726 L 16.4707,39.0867 L 16.4707,39.1007 L 16.4707,39.1147 L 16.4707,39.1287 L 16.4707,39.1427 L 16.4707,39.1567 L 16.4707,39.1707 L 16.4707,39.1988 L 16.4567,39.2128 L 16.4567,39.2268 L 16.4567,39.2408 L 16.4426,39.2548 L 16.4426,39.2689 L 16.4286,39.2829 L 16.4286,39.3109 L 16.4145,39.3249 L 16.4145,39.3389 L 16.4004,39.3529 L 16.3864,39.3670 L 16.3723,39.3670 L 16.3583,39.3810 L 16.3442,39.3950 L 16.3442,39.4090 L 16.3302,39.4230 L 16.3161,39.4370 L 16.3021,39.4370 L 16.2880,39.4510 L 16.2599,39.4510 L 16.2459,39.4651 L 16.2318,39.4651 L 16.2177,39.4791 L 16.2037,39.4791 L 16.1896,39.4791 L 16.1756,39.4931 L 16.1475,39.4931 L 16.1334,39.4931 L 16.1194,39.4931 L 16.1053,39.4931 L 16.0913,39.4931 L 16.0632,39.4931 L 16.0491,39.4791 L 16.0351,39.4791 L 16.0210,39.4791 L 16.0069,39.4651 L 15.9929,39.4651 L 15.9788,39.4510 L 15.9507,39.4510 L 15.9367,39.4370 L 15.9226,39.4370 L 15.9086,39.4230 L 15.8945,39.4090 L 15.8945,39.3950 L 15.8805,39.3810 L 15.8664,39.3670 L 15.8524,39.3670 L 15.8383,39.3529 L 15.8243,39.3389 L 15.8243,39.3249 L 15.8102,39.3109 L 15.8102,39.2829 L 15.7961,39.2689 L 15.7961,39.2548 L 15.7821,39.2408 L 15.7821,39.2268 L 15.7821,39.2128 L 15.7680,39.1988 L 15.7680,39.1707 L 15.7680,39.1567 L 15.7680,39.1427 L 15.7680,39.1287 L 15.7680,39.1147 L 15.7680,39.1007 L 15.7680,39.0867 L 15.7680,39.0726 L 15.7821,39.0586 L 15.7821,39.0446 L 15.7821,39.0306 L 15.7821,39.0166 L 15.7961,39.0166 L 15.7961,39.0026 L 15.7961,38.9886 L 15.8102,38.9886 L 15.8102,38.9745 L 15.8102,38.9605 L 15.8243,38.9605 L 15.8243,38.9465 L 15.8243,38.9325 L 15.8383,38.9325 L 15.8383,38.9185 L 15.8524,38.9185 L 15.8524,38.9045 L 15.8664,38.9045 L 15.8664,38.8905 L 15.8805,38.8764 L 15.8945,38.8764 L 15.8945,38.8624 L 15.9086,38.8624 L 15.9086,38.8484 L 15.9226,38.8484 L 15.9367,38.8624 L 15.9507,38.8764 L 15.9648,38.8905 L 15.9507,38.9045 L 15.9367,38.9045 L 15.9367,38.9185 L 15.9226,38.9185 L 15.9226,38.9325 L 15.9086,38.9465 L 15.8945,38.9605 L 15.8805,38.9745 L 15.8805,38.9886 L 15.8664,39.0026 L 15.8664,39.0166 L 15.8524,39.0306 L 15.8524,39.0446 L 15.8524,39.0586 L 15.8383,39.0586 L 15.8383,39.0726 L 15.8383,39.0867 L 15.8383,39.1007 L 15.8383,39.1147 L 15.8383,39.1287 L 15.8383,39.1427 L 15.8383,39.1707 L 15.8383,39.1848 L 15.8524,39.1988 L 15.8524,39.2128 L 15.8524,39.2268 L 15.8664,39.2408 L 15.8664,39.2548 L 15.8664,39.2689 L 15.8805,39.2829 L 15.8945,39.2969 L 15.9086,39.3109 L 15.9086,39.3249 L 15.9226,39.3249 L 15.9367,39.3389 L 15.9367,39.3529 L 15.9507,39.3529 L 15.9648,39.3670 L 15.9788,39.3670 L 15.9788,39.3810 L 15.9929,39.3810 L 16.0069,39.3950 L 16.0210,39.3950 L 16.0351,39.3950 L 16.0491,39.3950 L 16.0632,39.4090 L 16.0772,39.4090 L 16.0913,39.4090 L 16.1053,39.4090 L 16.1194,39.4090 L 16.1334,39.4090 L 16.1475,39.4090 L 16.1615,39.4090 L 16.1756,39.4090 L 16.1896,39.3950 L 16.2037,39.3950 L 16.2177,39.3950 L 16.2318,39.3950 L 16.2459,39.3810 L 16.2599,39.3810 L 16.2599,39.3670 L 16.2740,39.3670 L 16.2880,39.3529 L 16.3021,39.3529 L 16.3021,39.3389 L 16.3161,39.3249 L 16.3302,39.3249 L 16.3302,39.3109 L 16.3442,39.2969 L 16.3583,39.2829 L 16.3723,39.2689 L 16.3723,39.2548 L 16.3723,39.2408 L 16.3864,39.2268 L 16.3864,39.2128 L 16.3864,39.1988 L 16.4004,39.1848 L 16.4004,39.1707 L 16.4004,39.1427 L 16.4004,39.1287 L 16.4004,39.1147 Z" stroke="#7F7F7F" stroke-width="0.1198" stroke-linecap="round" stroke-linejoin="round" fill="#7F7F7F"/>
        <path d="M 27.0249,38.8764 L 27.4465,39.2969 L 27.2357,39.5351 L 27.2357,38.6382 L 27.4465,38.8764 L 27.0249,39.2969 " stroke="#7F7F7F" stroke-width="0.1198" stroke-linecap="round" stroke-linejoin="round" fill="none"/>
        <path d="M 18.4804,39.0867 L 19.3095,39.0867 " stroke="#7F7F7F" stroke-width="0.1198" stroke-linecap="round" stroke-linejoin="round" fill="none"/>
        <path d="M 18.8879,38.9325 L 18.8879,39.0867 " stroke="#7F7F7F" stroke-width="0.1198" stroke-linecap="round" stroke-linejoin="round" fill="none"/>
        <path d="M 19.1409,39.0867 L 19.1409,39.2408 " stroke="#7F7F7F" stroke-width="0.1198" stroke-linecap="round" stroke-linejoin="round" fill="none"/>
        <path d="M 18.6350,39.0867 L 18.6350,39.2408 " stroke="#7F7F7F" stroke-width="0.1198" stroke-linecap="round" stroke-linejoin="round" fill="none"/>
        <path d="M 18.9722,38.7223 L 18.7895,38.7223 L 18.7895,38.9045 L 18.9722,38.9045 L 18.9722,38.7223 Z" stroke="#7F7F7F" stroke-width="0.1198" stroke-linecap="round" stroke-linejoin="round" fill="#7F7F7F"/>
        <path d="M 18.7333,39.2829 L 18.5506,39.2829 L 18.5506,39.4651 L 18.7333,39.4651 L 18.7333,39.2829 Z" stroke="#7F7F7F" stroke-width="0.1198" stroke-linecap="round" stroke-linejoin="round" fill="#7F7F7F"/>
        <path d="M 19.2393,39.2829 L 19.0566,39.2829 L 19.0566,39.4651 L 19.2393,39.4651 L 19.2393,39.2829 Z" stroke="#7F7F7F" stroke-width="0.1198" stroke-linecap="round" stroke-linejoin="round" fill="#7F7F7F"/>
        <path d="M 21.3332,39.0867 L 22.1624,39.0867 " stroke="#7F7F7F" stroke-width="0.1198" stroke-linecap="round" stroke-linejoin="round" fill="none"/>
        <path d="M 21.7408,38.9325 L 21.7408,39.0867 " stroke="#7F7F7F" stroke-width="0.1198" stroke-linecap="round" stroke-linejoin="round" fill="none"/>
        <path d="M 21.9937,39.0867 L 21.9937,39.2408 " stroke="#7F7F7F" stroke-width="0.1198" stroke-linecap="round" stroke-linejoin="round" fill="none"/>
        <path d="M 21.4878,39.0867 L 21.4878,39.2408 " stroke="#7F7F7F" stroke-width="0.1198" stroke-linecap="round" stroke-linejoin="round" fill="none"/>
        <path d="M 21.8251,38.7223 L 21.6424,38.7223 L 21.6424,38.9045 L 21.8251,38.9045 L 21.8251,38.7223 Z" stroke="#7F7F7F" stroke-width="0.1198" stroke-linecap="round" stroke-linejoin="round" fill="#7F7F7F"/>
        <path d="M 21.5862,39.2829 L 21.4035,39.2829 L 21.4035,39.4651 L 21.5862,39.4651 L 21.5862,39.2829 Z" stroke="#7F7F7F" stroke-width="0.1198" stroke-linecap="round" stroke-linejoin="round" fill="#7F7F7F"/>
        <path d="M 22.0921,39.2829 L 21.9094,39.2829 L 21.9094,39.4651 L 22.0921,39.4651 L 22.0921,39.2829 Z" stroke="#7F7F7F" stroke-width="0.1198" stroke-linecap="round" stroke-linejoin="round" fill="#7F7F7F"/>
        <path d="M 24.5515,39.4931 L 24.5936,39.4931 L 24.5936,38.9605 L 24.5515,38.9605 L 24.5515,39.4931 Z" stroke="#7F7F7F" stroke-width="0.1198" stroke-linecap="round" stroke-linejoin="round" fill="#7F7F7F"/>
        <path d="M 24.3126,39.2268 L 24.2985,39.2128 L 24.2985,39.1988 L 24.2845,39.1988 L 24.2845,39.1848 L 24.2704,39.1848 L 24.2704,39.1707 L 24.2564,39.1567 L 24.2564,39.1427 L 24.2423,39.1427 L 24.2423,39.1287 L 24.2423,39.1147 L 24.2282,39.1007 L 24.2282,39.0867 L 24.2142,39.0726 L 24.2142,39.0586 L 24.2142,39.0446 L 24.2142,39.0306 L 24.2001,39.0166 L 24.2001,39.0026 L 24.2001,38.9886 L 24.2001,38.9745 L 24.2001,38.9605 L 24.2001,38.9465 L 24.2001,38.9325 L 24.2001,38.9185 L 24.2001,38.9045 L 24.2001,38.8905 L 24.2142,38.8905 L 24.2142,38.8764 L 24.2142,38.8624 L 24.2142,38.8484 L 24.2282,38.8344 L 24.2282,38.8204 L 24.2423,38.8064 L 24.2423,38.7924 L 24.2564,38.7783 L 24.2564,38.7643 L 24.2704,38.7503 L 24.2845,38.7363 L 24.2985,38.7223 L 24.3126,38.7083 L 24.3266,38.7083 L 24.3407,38.6943 L 24.3547,38.6943 " stroke="#7F7F7F" stroke-width="0.1198" stroke-linecap="round" stroke-linejoin="round" fill="none"/>
        <path d="M 24.8466,39.2268 L 24.8607,39.2128 L 24.8747,39.1988 L 24.8747,39.1848 L 24.8888,39.1848 L 24.8888,39.1707 L 24.9028,39.1567 L 24.9169,39.1427 L 24.9169,39.1287 L 24.9309,39.1287 L 24.9309,39.1147 L 24.9309,39.1007 L 24.9450,39.1007 L 24.9450,39.0867 L 24.9450,39.0726 L 24.9590,39.0586 L 24.9590,39.0446 L 24.9590,39.0306 L 24.9731,39.0166 L 24.9731,39.0026 L 24.9731,38.9886 L 24.9731,38.9745 L 24.9731,38.9605 L 24.9731,38.9465 L 24.9731,38.9325 L 24.9731,38.9185 L 24.9731,38.9045 L 24.9590,38.8905 L 24.9590,38.8764 L 24.9590,38.8624 L 24.9590,38.8484 L 24.9450,38.8484 L 24.9450,38.8344 L 24.9450,38.8204 L 24.9309,38.8204 L 24.9309,38.8064 L 24.9309,38.7924 L 24.9169,38.7924 L 24.9169,38.7783 L 24.9169,38.7643 L 24.9028,38.7643 L 24.9028,38.7503 L 24.8888,38.7503 L 24.8888,38.7363 L 24.8747,38.7363 L 24.8747,38.7223 L 24.8607,38.7223 L 24.8607,38.7083 L 24.8466,38.7083 L 24.8326,38.6943 L 24.8185,38.6943 " stroke="#7F7F7F" stroke-width="0.1198" stroke-linecap="round" stroke-linejoin="round" fill="none"/>
        <path d="M 24.3969,39.0726 L 24.3828,39.0726 L 24.3828,39.0586 L 24.3688,39.0586 L 24.3688,39.0446 L 24.3547,39.0446 L 24.3547,39.0306 L 24.3547,39.0166 L 24.3407,39.0166 L 24.3407,39.0026 L 24.3407,38.9886 L 24.3407,38.9745 L 24.3407,38.9605 L 24.3407,38.9465 L 24.3407,38.9325 L 24.3407,38.9185 L 24.3407,38.9045 L 24.3547,38.9045 L 24.3547,38.8905 L 24.3547,38.8764 L 24.3688,38.8764 L 24.3688,38.8624 L 24.3828,38.8624 L 24.3828,38.8484 L 24.3969,38.8484 " stroke="#7F7F7F" stroke-width="0.1198" stroke-linecap="round" stroke-linejoin="round" fill="none"/>
        <path d="M 24.7342,39.0726 L 24.7482,39.0726 L 24.7482,39.0586 L 24.7623,39.0586 L 24.7623,39.0446 L 24.7763,39.0446 L 24.7763,39.0306 L 24.7763,39.0166 L 24.7904,39.0166 L 24.7904,39.0026 L 24.7904,38.9886 L 24.7904,38.9745 L 24.7904,38.9605 L 24.7904,38.9465 L 24.7904,38.9325 L 24.7904,38.9185 L 24.7904,38.9045 L 24.7763,38.9045 L 24.7763,38.8905 L 24.7763,38.8764 L 24.7623,38.8764 L 24.7623,38.8624 L 24.7482,38.8624 L 24.7482,38.8484 L 24.7342,38.8484 " stroke="#7F7F7F" stroke-width="0.1198" stroke-linecap="round" stroke-linejoin="round" fill="none"/>
        <ellipse cx="24.5023" cy="38.9115" rx="0.0351" ry="0.0350" fill="#7F7F7F" stroke="#000000" stroke-width="0.1198" stroke-linecap="round" stroke-linejoin="round"/>
        <ellipse cx="24.5023" cy="38.9115" rx="0.0351" ry="0.0350" fill="none" stroke="#7F7F7F" stroke-width="0.1198" stroke-linecap="round" stroke-linejoin="round"/>
        <path d="M 24.7904,39.5071 L 24.7904,39.4510 L 24.3407,39.4510 L 24.3407,39.5071 L 24.7904,39.5071 Z" stroke="#7F7F7F" stroke-width="0.1198" stroke-linecap="round" stroke-linejoin="round" fill="#7F7F7F"/>
        <path d="M 0.2128,15.4827 L 0.0000,15.4827 L 0.0000,15.6950 L 0.2128,15.6950 L 0.2128,15.4827 Z" stroke="#000000" stroke-width="0.1198" stroke-linecap="round" stroke-linejoin="round" fill="none"/>
        <path d="M 30.4798,0.0000 L 30.2669,0.0000 L 30.2669,0.2123 L 30.4798,0.2123 L 30.4798,0.0000 Z" stroke="#000000" stroke-width="0.1198" stroke-linecap="round" stroke-linejoin="round" fill="none"/>
        <path d="M 24.7937,0.0000 L 24.5808,0.0000 L 24.5808,0.2123 L 24.7937,0.2123 L 24.7937,0.0000 Z" stroke="#000000" stroke-width="0.1198" stroke-linecap="round" stroke-linejoin="round" fill="none"/>
        <path d="M 18.8887,0.0000 L 18.6759,0.0000 L 18.6759,0.2123 L 18.8887,0.2123 L 18.8887,0.0000 Z" stroke="#000000" stroke-width="0.1198" stroke-linecap="round" stroke-linejoin="round" fill="none"/>
        <path d="M 11.8039,0.0000 L 11.5911,0.0000 L 11.5911,0.2123 L 11.8039,0.2123 L 11.8039,0.0000 Z" stroke="#000000" stroke-width="0.1198" stroke-linecap="round" stroke-linejoin="round" fill="none"/>
        <text font-family="Arial" fill="#808080" style="white-space:pre;" font-weight="400" text-anchor="start" x="13.5675" y="2.7778" font-size="0.1216"><![CDATA[FortiBranchSASE 10F-WiFi]]></text>
        <text font-family="Symbol" fill="#7F7F7F" style="white-space:pre;" text-anchor="start" x="28.1793" y="19.7796" font-size="0.4820"><![CDATA[]]></text>
      </g>
      <!--emf-blob end-->
    </g>
  </g>
</svg>
