<svg xmlns="http://www.w3.org/2000/svg" xmlns:xlink="http://www.w3.org/1999/xlink" version="1.1" width="3.0972000000" height="2.4720000000" viewBox="0 0 55.7518 44.4971">
  <title><![CDATA[FEX-101F (R)]]></title>
  <g transform=" scale(4.000000) ">
    <!--converted by libvisio2svg-->
    <g transform=" translate(5.014500,0.375000) ">
      <!--emf-blob start-->
      <g transform="translate(-0.0000, -0.0000)">
        <path d="M 42.2854,0.0280 L 0.0280,0.0280 L 0.0280,8.8058 L 42.2854,8.8058 L 42.2854,0.0280 Z" stroke="#000000" stroke-width="0.1195" stroke-linecap="round" stroke-linejoin="round" fill="#EFEFEF"/>
        <path d="M 41.7257,8.8058 L 0.5877,8.8058 L 0.5877,9.8294 L 41.7257,9.8294 L 41.7257,8.8058 Z" stroke="#000000" stroke-width="0.1195" stroke-linecap="round" stroke-linejoin="round" fill="#EFEFEF"/>
        <path d="M 36.6464,9.8294 L 36.6464,10.2080 L 36.8983,10.4604 L 39.6688,10.4604 L 39.9207,10.2080 L 39.9207,9.8294 L 36.6464,9.8294 Z" stroke="#000000" stroke-width="0.1195" stroke-linecap="round" stroke-linejoin="round" fill="#333333"/>
        <path d="M 2.3787,9.8294 L 2.3787,10.2080 L 2.6306,10.4604 L 5.4011,10.4604 L 5.6530,10.2080 L 5.6530,9.8294 L 2.3787,9.8294 Z" stroke="#000000" stroke-width="0.1195" stroke-linecap="round" stroke-linejoin="round" fill="#333333"/>
        <path d="M 30.3218,10.4604 L 30.5737,10.2080 L 30.5737,9.8294 L 27.7612,9.8294 L 27.7612,10.2080 L 28.0130,10.4604 L 30.3218,10.4604 Z" stroke="#000000" stroke-width="0.1195" stroke-linecap="round" stroke-linejoin="round" fill="#333333"/>
        <path d="M 0.0280,0.0280 L 42.2854,0.0280 L 42.2854,0.6170 L 0.0280,0.6170 L 0.0280,0.0280 Z" stroke="#000000" stroke-width="0.1195" stroke-linecap="round" stroke-linejoin="round" fill="none"/>
        <path d="M 38.1996,2.1454 L 38.1996,2.0893 L 38.1856,2.0332 L 38.1716,1.9771 L 38.1576,1.9210 L 38.1296,1.8649 L 38.1016,1.8229 L 38.0737,1.7808 L 38.0317,1.7387 L 37.9897,1.6967 L 37.9477,1.6686 L 37.9057,1.6406 L 37.8498,1.6125 L 37.7938,1.5985 L 37.7378,1.5845 L 37.6819,1.5705 L 37.6259,1.5705 L 4.6875,1.5705 L 4.6315,1.5705 L 4.5756,1.5845 L 4.5196,1.5985 L 4.4636,1.6125 L 4.4076,1.6406 L 4.3657,1.6686 L 4.3237,1.6967 L 4.2817,1.7387 L 4.2397,1.7808 L 4.2117,1.8229 L 4.1838,1.8649 L 4.1558,1.9210 L 4.1418,1.9771 L 4.1278,2.0332 L 4.1138,2.0893 L 4.1138,2.1454 L 4.1138,7.2634 L 4.1138,7.3195 L 4.1278,7.3756 L 4.1418,7.4317 L 4.1558,7.4877 L 4.1838,7.5438 L 4.2117,7.5859 L 4.2397,7.6280 L 4.2817,7.6700 L 4.3237,7.7121 L 4.3657,7.7401 L 4.4076,7.7682 L 4.4636,7.7962 L 4.5196,7.8103 L 4.5756,7.8243 L 4.6315,7.8383 L 4.6875,7.8383 L 37.6259,7.8383 L 37.6819,7.8383 L 37.7378,7.8243 L 37.7938,7.8103 L 37.8498,7.7962 L 37.9057,7.7682 L 37.9477,7.7401 L 37.9897,7.7121 L 38.0317,7.6700 L 38.0737,7.6280 L 38.1016,7.5859 L 38.1296,7.5438 L 38.1576,7.4877 L 38.1716,7.4317 L 38.1856,7.3756 L 38.1996,7.3195 L 38.1996,7.2634 L 38.1996,2.1454 Z" stroke="#7F7F7F" stroke-width="0.1195" stroke-linecap="round" stroke-linejoin="round" fill="#EAEAEA"/>
        <path d="M 9.7388,2.5520 L 5.4851,2.5520 L 5.4851,6.1837 L 9.7388,6.1837 L 9.7388,2.5520 Z" stroke="#000000" stroke-width="0.1195" stroke-linecap="round" stroke-linejoin="round" fill="#1B99E8"/>
        <path d="M 32.6306,2.5520 L 13.2369,2.5520 L 13.2369,6.1837 L 32.6306,6.1837 L 32.6306,2.5520 Z" stroke="#000000" stroke-width="0.1195" stroke-linecap="round" stroke-linejoin="round" fill="#BFBFBF"/>
        <path d="M 36.5625,3.2251 L 34.1837,3.2251 L 34.1837,6.1837 L 36.5625,6.1837 L 36.5625,3.2251 Z" stroke="#000000" stroke-width="0.1195" stroke-linecap="round" stroke-linejoin="round" fill="#494949"/>
        <path d="M 31.8050,1.7387 L 29.4263,1.7387 L 29.4263,2.4118 L 31.8050,2.4118 L 31.8050,1.7387 Z" stroke="#7F7F7F" stroke-width="0.1195" stroke-linecap="round" stroke-linejoin="round" fill="#848484"/>
        <path d="M 32.6306,2.5520 L 13.2369,2.5520 L 13.2369,6.1837 L 32.6306,6.1837 L 32.6306,2.5520 Z" stroke="#000000" stroke-width="0.1195" stroke-linecap="round" stroke-linejoin="round" fill="#BFBFBF"/>
        <text font-family="Arial" fill="#000000" style="white-space:pre;" font-weight="400" text-anchor="start" x="2.5326" y="2.2375" font-size="0.1959"><![CDATA[CONSOLE]]></text>
        <text font-family="Arial" fill="#000000" style="white-space:pre;" font-weight="400" text-anchor="start" x="4.7295" y="2.2375" font-size="0.1959"><![CDATA[WAN]]></text>
        <path d="M 15.7630,6.4657 L 15.0060,6.4657 L 15.0060,6.7773 L 15.7630,6.7773 L 15.7630,6.4657 Z" stroke="#000000" stroke-width="0.1195" stroke-linecap="round" stroke-linejoin="round" fill="#83FF00"/>
        <text font-family="Arial" fill="#000000" style="white-space:pre;" font-weight="400" text-anchor="start" x="20.6434" y="8.5446" font-size="0.1893"><![CDATA[1]]></text>
        <path d="M 19.5754,6.4657 L 18.8183,6.4657 L 18.8183,6.7773 L 19.5754,6.7773 L 19.5754,6.4657 Z" stroke="#000000" stroke-width="0.1195" stroke-linecap="round" stroke-linejoin="round" fill="#83FF00"/>
        <text font-family="Arial" fill="#000000" style="white-space:pre;" font-weight="400" text-anchor="start" x="25.3615" y="8.5446" font-size="0.1893"><![CDATA[2]]></text>
        <path d="M 23.3336,6.4657 L 22.5766,6.4657 L 22.5766,6.7773 L 23.3336,6.7773 L 23.3336,6.4657 Z" stroke="#000000" stroke-width="0.1195" stroke-linecap="round" stroke-linejoin="round" fill="#83FF00"/>
        <text font-family="Arial" fill="#000000" style="white-space:pre;" font-weight="400" text-anchor="start" x="30.9448" y="8.5446" font-size="0.1893"><![CDATA[4]]></text>
        <path d="M 30.8907,6.4657 L 30.1336,6.4657 L 30.1336,6.7773 L 30.8907,6.7773 L 30.8907,6.4657 Z" stroke="#000000" stroke-width="0.1195" stroke-linecap="round" stroke-linejoin="round" fill="#83FF00"/>
        <text font-family="Arial" fill="#000000" style="white-space:pre;" font-weight="400" text-anchor="start" x="37.5961" y="8.5446" font-size="0.1893"><![CDATA[3]]></text>
        <path d="M 27.1324,6.4657 L 26.3754,6.4657 L 26.3754,6.7773 L 27.1324,6.7773 L 27.1324,6.4657 Z" stroke="#000000" stroke-width="0.1195" stroke-linecap="round" stroke-linejoin="round" fill="#83FF00"/>
        <text font-family="Arial" fill="#FFFFFF" style="white-space:pre;" font-weight="400" text-anchor="start" x="34.5678" y="7.3006" font-size="0.1487"><![CDATA[POE PD]]></text>
        <text font-family="Arial" fill="#000000" style="white-space:pre;" font-weight="400" text-anchor="start" x="35.6764" y="8.5446" font-size="0.1893"><![CDATA[12VDC]]></text>
        <ellipse cx="10.7978" cy="7.1906" rx="0.0811" ry="0.0708" fill="#000000" stroke="#000000" stroke-width="0.1195" stroke-linecap="round" stroke-linejoin="round"/>
        <ellipse cx="10.7978" cy="7.1906" rx="0.0811" ry="0.0708" fill="none" stroke="#000000" stroke-width="0.1195" stroke-linecap="round" stroke-linejoin="round"/>
        <path d="M 10.9832,7.2505 L 12.0607,7.2505 " stroke="#000000" stroke-width="0.1195" stroke-linecap="round" stroke-linejoin="round" fill="none"/>
        <path d="M 11.1222,7.2505 L 11.3540,7.0328 L 11.6320,7.0328 " stroke="#000000" stroke-width="0.1195" stroke-linecap="round" stroke-linejoin="round" fill="none"/>
        <path d="M 11.3192,7.2505 L 11.5509,7.4682 L 11.7247,7.4682 " stroke="#000000" stroke-width="0.1195" stroke-linecap="round" stroke-linejoin="round" fill="none"/>
        <ellipse cx="11.6552" cy="6.9729" rx="0.0348" ry="0.0272" fill="#000000" stroke="#000000" stroke-width="0.1195" stroke-linecap="round" stroke-linejoin="round"/>
        <ellipse cx="11.6552" cy="6.9729" rx="0.0348" ry="0.0272" fill="none" stroke="#000000" stroke-width="0.1195" stroke-linecap="round" stroke-linejoin="round"/>
        <path d="M 11.8985,7.3920 L 11.7247,7.3920 L 11.7247,7.5553 L 11.8985,7.5553 L 11.8985,7.3920 Z" stroke="#000000" stroke-width="0.1195" stroke-linecap="round" stroke-linejoin="round" fill="#000000"/>
        <path d="M 12.3271,7.2505 L 12.0607,7.1634 L 12.0607,7.3376 L 12.3271,7.2505 Z" stroke="#000000" stroke-width="0.1195" stroke-linecap="round" stroke-linejoin="round" fill="#000000"/>
        <path d="M 5.9940,5.7133 L 5.9940,3.4381 L 6.8137,3.4381 L 6.8137,3.1347 L 7.1467,3.1347 L 7.1467,2.8693 L 8.1201,2.8693 L 8.1201,3.1347 L 8.4531,3.1347 L 8.4531,3.4381 L 9.2728,3.4381 L 9.2728,5.7133 L 8.8374,5.7133 L 8.8374,5.3215 L 6.4295,5.3215 L 6.4295,5.7133 L 5.9940,5.7133 Z" stroke="#161616" stroke-width="0.1195" stroke-linecap="round" stroke-linejoin="round" fill="#1E82B5"/>
        <path d="M 6.6216,5.2456 L 6.5064,5.2456 L 6.5064,5.3088 L 6.6216,5.3088 L 6.6216,5.2456 Z" stroke="#000000" stroke-width="0.1195" stroke-linecap="round" stroke-linejoin="round" fill="#D6D6B1"/>
        <path d="M 6.9162,5.2456 L 6.8009,5.2456 L 6.8009,5.3088 L 6.9162,5.3088 L 6.9162,5.2456 Z" stroke="#000000" stroke-width="0.1195" stroke-linecap="round" stroke-linejoin="round" fill="#D6D6B1"/>
        <path d="M 7.2236,5.2456 L 7.1083,5.2456 L 7.1083,5.3088 L 7.2236,5.3088 L 7.2236,5.2456 Z" stroke="#000000" stroke-width="0.1195" stroke-linecap="round" stroke-linejoin="round" fill="#D6D6B1"/>
        <path d="M 7.5310,5.2456 L 7.4157,5.2456 L 7.4157,5.3088 L 7.5310,5.3088 L 7.5310,5.2456 Z" stroke="#000000" stroke-width="0.1195" stroke-linecap="round" stroke-linejoin="round" fill="#D6D6B1"/>
        <path d="M 7.8384,5.2456 L 7.7231,5.2456 L 7.7231,5.3088 L 7.8384,5.3088 L 7.8384,5.2456 Z" stroke="#000000" stroke-width="0.1195" stroke-linecap="round" stroke-linejoin="round" fill="#D6D6B1"/>
        <path d="M 8.1457,5.2456 L 8.0305,5.2456 L 8.0305,5.3088 L 8.1457,5.3088 L 8.1457,5.2456 Z" stroke="#000000" stroke-width="0.1195" stroke-linecap="round" stroke-linejoin="round" fill="#D6D6B1"/>
        <path d="M 8.4531,5.2456 L 8.3379,5.2456 L 8.3379,5.3088 L 8.4531,5.3088 L 8.4531,5.2456 Z" stroke="#000000" stroke-width="0.1195" stroke-linecap="round" stroke-linejoin="round" fill="#D6D6B1"/>
        <path d="M 8.7733,5.2456 L 8.6581,5.2456 L 8.6581,5.3088 L 8.7733,5.3088 L 8.7733,5.2456 Z" stroke="#000000" stroke-width="0.1195" stroke-linecap="round" stroke-linejoin="round" fill="#D6D6B1"/>
        <path d="M 10.7576,6.1032 L 10.7576,6.1172 L 10.7576,6.1311 L 10.7576,6.1451 L 10.7712,6.1451 L 10.7712,6.1591 L 10.7712,6.1730 L 10.7849,6.1870 L 10.7849,6.2010 L 10.7986,6.2010 L 10.7986,6.2149 L 10.8122,6.2149 L 10.8122,6.2289 L 10.8259,6.2289 L 10.8396,6.2429 L 10.8532,6.2429 L 10.8669,6.2429 L 10.8669,6.2568 L 10.8806,6.2568 L 10.8942,6.2568 L 10.9079,6.2568 L 10.9216,6.2568 L 10.9353,6.2568 L 10.9626,6.2568 L 10.9899,6.2568 L 11.0173,6.2568 L 11.0583,6.2568 L 11.0993,6.2568 L 11.1540,6.2568 L 11.1950,6.2568 L 11.2496,6.2568 L 11.3043,6.2568 L 11.3590,6.2568 L 11.4137,6.2568 L 11.4820,6.2568 L 11.5367,6.2568 L 11.5914,6.2568 L 11.6597,6.2568 L 11.7144,6.2568 L 11.7691,6.2568 L 11.8237,6.2568 L 11.8784,6.2568 L 11.9194,6.2568 L 11.9741,6.2568 L 12.0151,6.2568 L 12.0561,6.2568 L 12.0835,6.2568 L 12.1108,6.2568 L 12.1381,6.2568 L 12.1518,6.2568 L 12.1655,6.2568 L 12.1791,6.2568 L 12.1928,6.2568 L 12.2065,6.2568 L 12.2065,6.2429 L 12.2201,6.2429 L 12.2338,6.2429 L 12.2475,6.2289 L 12.2612,6.2289 L 12.2612,6.2149 L 12.2748,6.2149 L 12.2748,6.2010 L 12.2885,6.2010 L 12.2885,6.1870 L 12.3022,6.1730 L 12.3022,6.1591 L 12.3022,6.1451 L 12.3158,6.1451 L 12.3158,6.1311 L 12.3158,6.1172 L 12.3158,6.1032 L 12.3158,6.0892 L 12.3158,6.0613 L 12.3158,6.0194 L 12.3158,5.9635 L 12.3158,5.8797 L 12.3158,5.7820 L 12.3158,5.6842 L 12.3158,5.5725 L 12.3158,5.4468 L 12.3158,5.3071 L 12.3158,5.1675 L 12.3158,5.0278 L 12.3158,4.8742 L 12.3158,4.7206 L 12.3158,4.5530 L 12.3158,4.3993 L 12.3158,4.2457 L 12.3158,4.0781 L 12.3158,3.9245 L 12.3158,3.7709 L 12.3158,3.6312 L 12.3158,3.4915 L 12.3158,3.3519 L 12.3158,3.2262 L 12.3158,3.1144 L 12.3158,3.0167 L 12.3158,2.9189 L 12.3158,2.8351 L 12.3158,2.7793 L 12.3158,2.7374 L 12.3158,2.7094 L 12.3158,2.6955 L 12.3158,2.6815 L 12.3158,2.6675 L 12.3158,2.6536 L 12.3022,2.6536 L 12.3022,2.6396 L 12.3022,2.6256 L 12.2885,2.6117 L 12.2885,2.5977 L 12.2748,2.5977 L 12.2748,2.5837 L 12.2612,2.5837 L 12.2612,2.5698 L 12.2475,2.5698 L 12.2338,2.5558 L 12.2201,2.5558 L 12.2065,2.5558 L 12.2065,2.5418 L 12.1928,2.5418 L 12.1791,2.5418 L 12.1655,2.5418 L 12.1518,2.5418 L 12.1381,2.5418 L 12.1108,2.5418 L 12.0835,2.5418 L 12.0561,2.5418 L 12.0151,2.5418 L 11.9741,2.5418 L 11.9194,2.5418 L 11.8784,2.5418 L 11.8237,2.5418 L 11.7691,2.5418 L 11.7144,2.5418 L 11.6597,2.5418 L 11.5914,2.5418 L 11.5367,2.5418 L 11.4820,2.5418 L 11.4137,2.5418 L 11.3590,2.5418 L 11.3043,2.5418 L 11.2496,2.5418 L 11.1950,2.5418 L 11.1540,2.5418 L 11.0993,2.5418 L 11.0583,2.5418 L 11.0173,2.5418 L 10.9899,2.5418 L 10.9626,2.5418 L 10.9353,2.5418 L 10.9216,2.5418 L 10.9079,2.5418 L 10.8942,2.5418 L 10.8806,2.5418 L 10.8669,2.5418 L 10.8669,2.5558 L 10.8532,2.5558 L 10.8396,2.5558 L 10.8259,2.5698 L 10.8122,2.5698 L 10.8122,2.5837 L 10.7986,2.5837 L 10.7986,2.5977 L 10.7849,2.5977 L 10.7849,2.6117 L 10.7712,2.6256 L 10.7712,2.6396 L 10.7712,2.6536 L 10.7576,2.6536 L 10.7576,2.6675 L 10.7576,2.6815 L 10.7576,2.6955 L 10.7576,2.7094 L 10.7576,2.7374 L 10.7576,2.7793 L 10.7576,2.8351 L 10.7576,2.9189 L 10.7576,3.0167 L 10.7576,3.1144 L 10.7576,3.2262 L 10.7576,3.3519 L 10.7576,3.4915 L 10.7576,3.6312 L 10.7576,3.7709 L 10.7576,3.9245 L 10.7576,4.0781 L 10.7576,4.2457 L 10.7576,4.3993 L 10.7576,4.5530 L 10.7576,4.7206 L 10.7576,4.8742 L 10.7576,5.0278 L 10.7576,5.1675 L 10.7576,5.3071 L 10.7576,5.4468 L 10.7576,5.5725 L 10.7576,5.6842 L 10.7576,5.7820 L 10.7576,5.8797 L 10.7576,5.9635 L 10.7576,6.0194 L 10.7576,6.0613 L 10.7576,6.0892 L 10.7576,6.1032 Z" stroke="#7F7F7F" stroke-width="0.1195" stroke-linecap="round" stroke-linejoin="round" fill="#BFBFBF"/>
        <path d="M 10.8806,6.0473 L 10.8806,6.0613 L 10.8806,6.0753 L 10.8806,6.0892 L 10.8942,6.0892 L 10.8942,6.1032 L 10.9079,6.1172 L 10.9216,6.1172 L 10.9216,6.1311 L 10.9353,6.1311 L 10.9489,6.1311 L 10.9626,6.1311 L 10.9763,6.1311 L 10.9899,6.1311 L 11.0173,6.1311 L 11.0446,6.1311 L 11.0719,6.1311 L 11.0993,6.1311 L 11.1403,6.1311 L 11.1813,6.1311 L 11.2360,6.1311 L 11.2770,6.1311 L 11.3317,6.1311 L 11.3863,6.1311 L 11.4410,6.1311 L 11.4957,6.1311 L 11.5504,6.1311 L 11.5914,6.1311 L 11.6460,6.1311 L 11.7007,6.1311 L 11.7554,6.1311 L 11.8101,6.1311 L 11.8511,6.1311 L 11.9058,6.1311 L 11.9468,6.1311 L 11.9878,6.1311 L 12.0151,6.1311 L 12.0424,6.1311 L 12.0698,6.1311 L 12.0971,6.1311 L 12.1108,6.1311 L 12.1245,6.1311 L 12.1381,6.1311 L 12.1518,6.1311 L 12.1655,6.1172 L 12.1791,6.1172 L 12.1791,6.1032 L 12.1928,6.1032 L 12.1928,6.0892 L 12.2065,6.0753 L 12.2065,6.0613 L 12.2065,6.0473 L 12.2065,6.0334 L 12.2065,6.0054 L 12.2065,5.9635 L 12.2065,5.9077 L 12.2065,5.8239 L 12.2065,5.7401 L 12.2065,5.6423 L 12.2065,5.5306 L 12.2065,5.4049 L 12.2065,5.2792 L 12.2065,5.1395 L 12.2065,4.9999 L 12.2065,4.8462 L 12.2065,4.7066 L 12.2065,4.5530 L 12.2065,4.3993 L 12.2065,4.2317 L 12.2065,4.0781 L 12.2065,3.9385 L 12.2065,3.7848 L 12.2065,3.6452 L 12.2065,3.5055 L 12.2065,3.3798 L 12.2065,3.2541 L 12.2065,3.1424 L 12.2065,3.0446 L 12.2065,2.9608 L 12.2065,2.8770 L 12.2065,2.8212 L 12.2065,2.7793 L 12.2065,2.7513 L 12.2065,2.7374 L 12.2065,2.7234 L 12.2065,2.7094 L 12.1928,2.7094 L 12.1928,2.6955 L 12.1791,2.6955 L 12.1791,2.6815 L 12.1655,2.6815 L 12.1518,2.6675 L 12.1381,2.6675 L 12.1245,2.6675 L 12.1108,2.6675 L 12.0971,2.6675 L 12.0698,2.6675 L 12.0424,2.6675 L 12.0151,2.6675 L 11.9878,2.6675 L 11.9468,2.6675 L 11.9058,2.6675 L 11.8511,2.6675 L 11.8101,2.6675 L 11.7554,2.6675 L 11.7007,2.6675 L 11.6460,2.6675 L 11.5914,2.6675 L 11.5504,2.6675 L 11.4957,2.6675 L 11.4410,2.6675 L 11.3863,2.6675 L 11.3317,2.6675 L 11.2770,2.6675 L 11.2360,2.6675 L 11.1813,2.6675 L 11.1403,2.6675 L 11.0993,2.6675 L 11.0719,2.6675 L 11.0446,2.6675 L 11.0173,2.6675 L 10.9899,2.6675 L 10.9763,2.6675 L 10.9626,2.6675 L 10.9489,2.6675 L 10.9353,2.6675 L 10.9216,2.6675 L 10.9216,2.6815 L 10.9079,2.6815 L 10.8942,2.6955 L 10.8942,2.7094 L 10.8806,2.7094 L 10.8806,2.7234 L 10.8806,2.7374 L 10.8806,2.7513 L 10.8806,2.7793 L 10.8806,2.8212 L 10.8806,2.8770 L 10.8806,2.9608 L 10.8806,3.0446 L 10.8806,3.1424 L 10.8806,3.2541 L 10.8806,3.3798 L 10.8806,3.5055 L 10.8806,3.6452 L 10.8806,3.7848 L 10.8806,3.9385 L 10.8806,4.0781 L 10.8806,4.2317 L 10.8806,4.3993 L 10.8806,4.5530 L 10.8806,4.7066 L 10.8806,4.8462 L 10.8806,4.9999 L 10.8806,5.1395 L 10.8806,5.2792 L 10.8806,5.4049 L 10.8806,5.5306 L 10.8806,5.6423 L 10.8806,5.7401 L 10.8806,5.8239 L 10.8806,5.9077 L 10.8806,5.9635 L 10.8806,6.0054 L 10.8806,6.0334 L 10.8806,6.0473 Z" stroke="#BFBFBF" stroke-width="0.1195" stroke-linecap="round" stroke-linejoin="round" fill="#7F7F7F"/>
        <path d="M 11.6187,5.3071 L 11.6187,5.6144 L 11.5504,5.6144 L 11.5504,5.3071 L 11.6187,5.3071 Z" stroke="#BFBFBF" stroke-width="0.1195" stroke-linecap="round" stroke-linejoin="round" fill="#BFBFBF"/>
        <path d="M 11.6187,4.6088 L 11.6187,4.9161 L 11.5504,4.9161 L 11.5504,4.6088 L 11.6187,4.6088 Z" stroke="#BFBFBF" stroke-width="0.1195" stroke-linecap="round" stroke-linejoin="round" fill="#BFBFBF"/>
        <path d="M 11.6187,3.9245 L 11.6187,4.2317 L 11.5504,4.2317 L 11.5504,3.9245 L 11.6187,3.9245 Z" stroke="#BFBFBF" stroke-width="0.1195" stroke-linecap="round" stroke-linejoin="round" fill="#BFBFBF"/>
        <path d="M 11.6187,3.2122 L 11.6187,3.5195 L 11.5504,3.5195 L 11.5504,3.2122 L 11.6187,3.2122 Z" stroke="#BFBFBF" stroke-width="0.1195" stroke-linecap="round" stroke-linejoin="round" fill="#BFBFBF"/>
        <path d="M 11.1950,2.8770 L 11.1676,2.8770 L 11.1403,2.8910 L 11.1266,2.9189 L 11.1266,2.9469 L 11.1266,5.8518 L 11.1266,5.8797 L 11.1403,5.9077 L 11.1676,5.9216 L 11.1950,5.9216 L 11.4820,5.9216 L 11.5094,5.9216 L 11.5367,5.9077 L 11.5504,5.8797 L 11.5504,5.8518 L 11.5504,2.9469 L 11.5504,2.9189 L 11.5367,2.8910 L 11.5094,2.8770 L 11.4820,2.8770 L 11.1950,2.8770 Z" stroke="#BFBFBF" stroke-width="0.1195" stroke-linecap="round" stroke-linejoin="round" fill="#BFBFBF"/>
        <path d="M 11.3317,2.9888 L 11.2770,3.0027 L 11.2496,3.0307 L 11.2223,3.0586 L 11.2086,3.1144 L 11.2086,5.6842 L 11.2223,5.7401 L 11.2496,5.7680 L 11.2770,5.7959 L 11.3317,5.8099 L 11.3863,5.7959 L 11.4137,5.7680 L 11.4410,5.7401 L 11.4547,5.6842 L 11.4547,3.1144 L 11.4410,3.0586 L 11.4137,3.0307 L 11.3863,3.0027 L 11.3317,2.9888 Z" stroke="#BFBFBF" stroke-width="0.1195" stroke-linecap="round" stroke-linejoin="round" fill="#BFBFBF"/>
        <path d="M 11.0036,6.1311 L 11.0036,6.1451 L 11.0036,6.1591 L 11.0036,6.1730 L 11.0036,6.1870 L 11.0036,6.2010 L 11.0036,6.2149 L 11.0036,6.2289 L 11.0036,6.2429 L 11.0036,6.2568 L 11.0036,6.2708 L 11.0036,6.2848 L 11.0173,6.2848 L 11.0173,6.2987 L 11.0309,6.2987 L 11.0309,6.3127 L 11.0446,6.3127 L 11.0583,6.3267 L 11.0719,6.3267 L 11.0856,6.3267 L 11.0993,6.3267 L 11.1130,6.3267 L 11.1266,6.3267 L 11.1403,6.3267 L 11.1676,6.3267 L 11.1950,6.3267 L 11.2223,6.3267 L 11.2633,6.3267 L 11.2906,6.3267 L 11.3317,6.3267 L 11.3727,6.3267 L 11.4137,6.3267 L 11.4547,6.3267 L 11.4957,6.3267 L 11.5367,6.3267 L 11.5777,6.3267 L 11.6187,6.3267 L 11.6597,6.3267 L 11.7007,6.3267 L 11.7417,6.3267 L 11.7827,6.3267 L 11.8101,6.3267 L 11.8511,6.3267 L 11.8784,6.3267 L 11.9058,6.3267 L 11.9331,6.3267 L 11.9468,6.3267 L 11.9604,6.3267 L 11.9741,6.3267 L 11.9878,6.3267 L 12.0014,6.3267 L 12.0151,6.3267 L 12.0288,6.3127 L 12.0424,6.3127 L 12.0424,6.2987 L 12.0561,6.2987 L 12.0561,6.2848 L 12.0698,6.2848 L 12.0698,6.2708 L 12.0698,6.2568 L 12.0698,6.2429 L 12.0698,6.2289 L 12.0698,6.2149 L 12.0698,6.2010 L 12.0698,6.1870 L 12.0698,6.1730 L 12.0698,6.1591 L 12.0698,6.1451 L 12.0698,6.1311 L 12.0561,6.1311 L 12.0424,6.1311 L 12.0288,6.1311 L 12.0014,6.1311 L 11.9741,6.1311 L 11.9331,6.1311 L 11.9058,6.1311 L 11.8648,6.1311 L 11.8237,6.1311 L 11.7827,6.1311 L 11.7281,6.1311 L 11.6871,6.1311 L 11.6324,6.1311 L 11.5914,6.1311 L 11.5367,6.1311 L 11.4820,6.1311 L 11.4410,6.1311 L 11.3863,6.1311 L 11.3453,6.1311 L 11.2906,6.1311 L 11.2496,6.1311 L 11.2086,6.1311 L 11.1676,6.1311 L 11.1403,6.1311 L 11.0993,6.1311 L 11.0719,6.1311 L 11.0446,6.1311 L 11.0309,6.1311 L 11.0173,6.1311 L 11.0036,6.1311 Z" stroke="#7F7F7F" stroke-width="0.1195" stroke-linecap="round" stroke-linejoin="round" fill="#EAEAEA"/>
        <path d="M 11.0036,2.6675 L 11.0036,2.6536 L 11.0036,2.6396 L 11.0036,2.6256 L 11.0036,2.6117 L 11.0036,2.5977 L 11.0036,2.5837 L 11.0036,2.5698 L 11.0036,2.5558 L 11.0036,2.5418 L 11.0036,2.5279 L 11.0036,2.5139 L 11.0173,2.5139 L 11.0173,2.4999 L 11.0309,2.4999 L 11.0309,2.4860 L 11.0446,2.4860 L 11.0583,2.4720 L 11.0719,2.4720 L 11.0856,2.4720 L 11.0993,2.4720 L 11.1130,2.4720 L 11.1266,2.4720 L 11.1403,2.4720 L 11.1676,2.4720 L 11.1950,2.4720 L 11.2223,2.4720 L 11.2633,2.4720 L 11.2906,2.4720 L 11.3317,2.4720 L 11.3727,2.4720 L 11.4137,2.4720 L 11.4547,2.4720 L 11.4957,2.4720 L 11.5367,2.4720 L 11.5777,2.4720 L 11.6187,2.4720 L 11.6597,2.4720 L 11.7007,2.4720 L 11.7417,2.4720 L 11.7827,2.4720 L 11.8101,2.4720 L 11.8511,2.4720 L 11.8784,2.4720 L 11.9058,2.4720 L 11.9331,2.4720 L 11.9468,2.4720 L 11.9604,2.4720 L 11.9741,2.4720 L 11.9878,2.4720 L 12.0014,2.4720 L 12.0151,2.4720 L 12.0288,2.4860 L 12.0424,2.4860 L 12.0424,2.4999 L 12.0561,2.4999 L 12.0561,2.5139 L 12.0698,2.5139 L 12.0698,2.5279 L 12.0698,2.5418 L 12.0698,2.5558 L 12.0698,2.5698 L 12.0698,2.5837 L 12.0698,2.5977 L 12.0698,2.6117 L 12.0698,2.6256 L 12.0698,2.6396 L 12.0698,2.6536 L 12.0698,2.6675 L 12.0561,2.6675 L 12.0424,2.6675 L 12.0288,2.6675 L 12.0014,2.6675 L 11.9741,2.6675 L 11.9331,2.6675 L 11.9058,2.6675 L 11.8648,2.6675 L 11.8237,2.6675 L 11.7827,2.6675 L 11.7281,2.6675 L 11.6871,2.6675 L 11.6324,2.6675 L 11.5914,2.6675 L 11.5367,2.6675 L 11.4820,2.6675 L 11.4410,2.6675 L 11.3863,2.6675 L 11.3453,2.6675 L 11.2906,2.6675 L 11.2496,2.6675 L 11.2086,2.6675 L 11.1676,2.6675 L 11.1403,2.6675 L 11.0993,2.6675 L 11.0719,2.6675 L 11.0446,2.6675 L 11.0309,2.6675 L 11.0173,2.6675 L 11.0036,2.6675 Z" stroke="#7F7F7F" stroke-width="0.1195" stroke-linecap="round" stroke-linejoin="round" fill="#EAEAEA"/>
        <path d="M 10.8806,5.9356 L 10.8669,5.9356 L 10.8532,5.9356 L 10.8396,5.9356 L 10.8259,5.9356 L 10.8122,5.9356 L 10.7986,5.9356 L 10.7849,5.9356 L 10.7712,5.9356 L 10.7576,5.9356 L 10.7439,5.9356 L 10.7302,5.9356 L 10.7302,5.9216 L 10.7165,5.9216 L 10.7029,5.9216 L 10.7029,5.9077 L 10.7029,5.8937 L 10.6892,5.8937 L 10.6892,5.8797 L 10.6892,5.8658 L 10.6892,5.8518 L 10.6892,5.8378 L 10.6892,5.8239 L 10.6892,5.7820 L 10.6892,5.7261 L 10.6892,5.6563 L 10.6892,5.5865 L 10.6892,5.5027 L 10.6892,5.4049 L 10.6892,5.2932 L 10.6892,5.1814 L 10.6892,5.0697 L 10.6892,4.9440 L 10.6892,4.8183 L 10.6892,4.6787 L 10.6892,4.5530 L 10.6892,4.4133 L 10.6892,4.2736 L 10.6892,4.1479 L 10.6892,4.0083 L 10.6892,3.8826 L 10.6892,3.7569 L 10.6892,3.6452 L 10.6892,3.5334 L 10.6892,3.4217 L 10.6892,3.3239 L 10.6892,3.2401 L 10.6892,3.1703 L 10.6892,3.1005 L 10.6892,3.0446 L 10.6892,3.0027 L 10.6892,2.9888 L 10.6892,2.9748 L 10.6892,2.9608 L 10.6892,2.9469 L 10.6892,2.9329 L 10.7029,2.9329 L 10.7029,2.9189 L 10.7165,2.9050 L 10.7302,2.9050 L 10.7302,2.8910 L 10.7439,2.8910 L 10.7576,2.8910 L 10.7712,2.8910 L 10.7849,2.8910 L 10.7986,2.8910 L 10.8122,2.8910 L 10.8259,2.8910 L 10.8396,2.8910 L 10.8532,2.8910 L 10.8669,2.8910 L 10.8806,2.8910 L 10.8806,2.9050 L 10.8806,2.9189 L 10.8806,2.9608 L 10.8806,3.0167 L 10.8806,3.0865 L 10.8806,3.1703 L 10.8806,3.2681 L 10.8806,3.3658 L 10.8806,3.4776 L 10.8806,3.6033 L 10.8806,3.7290 L 10.8806,3.8547 L 10.8806,3.9943 L 10.8806,4.1340 L 10.8806,4.2736 L 10.8806,4.4133 L 10.8806,4.5530 L 10.8806,4.6926 L 10.8806,4.8323 L 10.8806,4.9719 L 10.8806,5.0976 L 10.8806,5.2233 L 10.8806,5.3490 L 10.8806,5.4608 L 10.8806,5.5585 L 10.8806,5.6563 L 10.8806,5.7401 L 10.8806,5.8099 L 10.8806,5.8658 L 10.8806,5.9077 L 10.8806,5.9216 L 10.8806,5.9356 Z" stroke="#7F7F7F" stroke-width="0.1195" stroke-linecap="round" stroke-linejoin="round" fill="#EAEAEA"/>
        <path d="M 12.2065,5.9356 L 12.2201,5.9356 L 12.2338,5.9356 L 12.2475,5.9356 L 12.2612,5.9356 L 12.2748,5.9356 L 12.2885,5.9356 L 12.3022,5.9356 L 12.3158,5.9356 L 12.3295,5.9356 L 12.3432,5.9356 L 12.3568,5.9356 L 12.3568,5.9216 L 12.3705,5.9216 L 12.3842,5.9216 L 12.3842,5.9077 L 12.3842,5.8937 L 12.3978,5.8937 L 12.3978,5.8797 L 12.3978,5.8658 L 12.3978,5.8518 L 12.3978,5.8378 L 12.3978,5.8239 L 12.3978,5.7820 L 12.3978,5.7261 L 12.3978,5.6563 L 12.3978,5.5865 L 12.3978,5.5027 L 12.3978,5.4049 L 12.3978,5.2932 L 12.3978,5.1814 L 12.3978,5.0697 L 12.3978,4.9440 L 12.3978,4.8183 L 12.3978,4.6787 L 12.3978,4.5530 L 12.3978,4.4133 L 12.3978,4.2736 L 12.3978,4.1479 L 12.3978,4.0083 L 12.3978,3.8826 L 12.3978,3.7569 L 12.3978,3.6452 L 12.3978,3.5334 L 12.3978,3.4217 L 12.3978,3.3239 L 12.3978,3.2401 L 12.3978,3.1703 L 12.3978,3.1005 L 12.3978,3.0446 L 12.3978,3.0027 L 12.3978,2.9888 L 12.3978,2.9748 L 12.3978,2.9608 L 12.3978,2.9469 L 12.3978,2.9329 L 12.3842,2.9329 L 12.3842,2.9189 L 12.3705,2.9050 L 12.3568,2.9050 L 12.3568,2.8910 L 12.3432,2.8910 L 12.3295,2.8910 L 12.3158,2.8910 L 12.3022,2.8910 L 12.2885,2.8910 L 12.2748,2.8910 L 12.2612,2.8910 L 12.2475,2.8910 L 12.2338,2.8910 L 12.2201,2.8910 L 12.2065,2.8910 L 12.2065,2.9050 L 12.2065,2.9189 L 12.2065,2.9608 L 12.2065,3.0167 L 12.2065,3.0865 L 12.2065,3.1703 L 12.2065,3.2681 L 12.2065,3.3658 L 12.2065,3.4776 L 12.2065,3.6033 L 12.2065,3.7290 L 12.2065,3.8547 L 12.2065,3.9943 L 12.2065,4.1340 L 12.2065,4.2736 L 12.2065,4.4133 L 12.2065,4.5530 L 12.2065,4.6926 L 12.2065,4.8323 L 12.2065,4.9719 L 12.2065,5.0976 L 12.2065,5.2233 L 12.2065,5.3490 L 12.2065,5.4608 L 12.2065,5.5585 L 12.2065,5.6563 L 12.2065,5.7401 L 12.2065,5.8099 L 12.2065,5.8658 L 12.2065,5.9077 L 12.2065,5.9216 L 12.2065,5.9356 Z" stroke="#7F7F7F" stroke-width="0.1195" stroke-linecap="round" stroke-linejoin="round" fill="#EAEAEA"/>
        <path d="M 13.7800,5.7133 L 13.7800,4.7021 L 13.6134,4.7021 L 13.6134,4.0195 L 13.7800,4.0195 L 13.7800,3.4381 L 14.6004,3.4381 L 14.6004,3.1347 L 14.9337,3.1347 L 14.9337,2.8693 L 15.9079,2.8693 L 15.9079,3.1347 L 16.2412,3.1347 L 16.2412,3.4381 L 17.0616,3.4381 L 17.0616,4.0195 L 17.2282,4.0195 L 17.2282,4.7021 L 17.0616,4.7021 L 17.0616,5.7133 L 16.6257,5.7133 L 16.6257,5.3215 L 14.2158,5.3215 L 14.2158,5.7133 L 13.7800,5.7133 Z" stroke="#161616" stroke-width="0.1195" stroke-linecap="round" stroke-linejoin="round" fill="#7F7F7F"/>
        <path d="M 14.4081,5.2456 L 14.2927,5.2456 L 14.2927,5.3088 L 14.4081,5.3088 L 14.4081,5.2456 Z" stroke="#000000" stroke-width="0.1195" stroke-linecap="round" stroke-linejoin="round" fill="#D6D6B1"/>
        <path d="M 14.7029,5.2456 L 14.5876,5.2456 L 14.5876,5.3088 L 14.7029,5.3088 L 14.7029,5.2456 Z" stroke="#000000" stroke-width="0.1195" stroke-linecap="round" stroke-linejoin="round" fill="#D6D6B1"/>
        <path d="M 15.0106,5.2456 L 14.8952,5.2456 L 14.8952,5.3088 L 15.0106,5.3088 L 15.0106,5.2456 Z" stroke="#000000" stroke-width="0.1195" stroke-linecap="round" stroke-linejoin="round" fill="#D6D6B1"/>
        <path d="M 15.3182,5.2456 L 15.2029,5.2456 L 15.2029,5.3088 L 15.3182,5.3088 L 15.3182,5.2456 Z" stroke="#000000" stroke-width="0.1195" stroke-linecap="round" stroke-linejoin="round" fill="#D6D6B1"/>
        <path d="M 15.6259,5.2456 L 15.5105,5.2456 L 15.5105,5.3088 L 15.6259,5.3088 L 15.6259,5.2456 Z" stroke="#000000" stroke-width="0.1195" stroke-linecap="round" stroke-linejoin="round" fill="#D6D6B1"/>
        <path d="M 15.9335,5.2456 L 15.8182,5.2456 L 15.8182,5.3088 L 15.9335,5.3088 L 15.9335,5.2456 Z" stroke="#000000" stroke-width="0.1195" stroke-linecap="round" stroke-linejoin="round" fill="#D6D6B1"/>
        <path d="M 16.2412,5.2456 L 16.1258,5.2456 L 16.1258,5.3088 L 16.2412,5.3088 L 16.2412,5.2456 Z" stroke="#000000" stroke-width="0.1195" stroke-linecap="round" stroke-linejoin="round" fill="#D6D6B1"/>
        <path d="M 16.5616,5.2456 L 16.4463,5.2456 L 16.4463,5.3088 L 16.5616,5.3088 L 16.5616,5.2456 Z" stroke="#000000" stroke-width="0.1195" stroke-linecap="round" stroke-linejoin="round" fill="#D6D6B1"/>
        <path d="M 17.5871,5.7133 L 17.5871,4.7021 L 17.4205,4.7021 L 17.4205,4.0195 L 17.5871,4.0195 L 17.5871,3.4381 L 18.4075,3.4381 L 18.4075,3.1347 L 18.7408,3.1347 L 18.7408,2.8693 L 19.7150,2.8693 L 19.7150,3.1347 L 20.0483,3.1347 L 20.0483,3.4381 L 20.8687,3.4381 L 20.8687,4.0195 L 21.0353,4.0195 L 21.0353,4.7021 L 20.8687,4.7021 L 20.8687,5.7133 L 20.4328,5.7133 L 20.4328,5.3215 L 18.0230,5.3215 L 18.0230,5.7133 L 17.5871,5.7133 Z" stroke="#161616" stroke-width="0.1195" stroke-linecap="round" stroke-linejoin="round" fill="#7F7F7F"/>
        <path d="M 18.2152,5.2456 L 18.0999,5.2456 L 18.0999,5.3088 L 18.2152,5.3088 L 18.2152,5.2456 Z" stroke="#000000" stroke-width="0.1195" stroke-linecap="round" stroke-linejoin="round" fill="#D6D6B1"/>
        <path d="M 18.5101,5.2456 L 18.3947,5.2456 L 18.3947,5.3088 L 18.5101,5.3088 L 18.5101,5.2456 Z" stroke="#000000" stroke-width="0.1195" stroke-linecap="round" stroke-linejoin="round" fill="#D6D6B1"/>
        <path d="M 18.8177,5.2456 L 18.7023,5.2456 L 18.7023,5.3088 L 18.8177,5.3088 L 18.8177,5.2456 Z" stroke="#000000" stroke-width="0.1195" stroke-linecap="round" stroke-linejoin="round" fill="#D6D6B1"/>
        <path d="M 19.1254,5.2456 L 19.0100,5.2456 L 19.0100,5.3088 L 19.1254,5.3088 L 19.1254,5.2456 Z" stroke="#000000" stroke-width="0.1195" stroke-linecap="round" stroke-linejoin="round" fill="#D6D6B1"/>
        <path d="M 19.4330,5.2456 L 19.3176,5.2456 L 19.3176,5.3088 L 19.4330,5.3088 L 19.4330,5.2456 Z" stroke="#000000" stroke-width="0.1195" stroke-linecap="round" stroke-linejoin="round" fill="#D6D6B1"/>
        <path d="M 19.7406,5.2456 L 19.6253,5.2456 L 19.6253,5.3088 L 19.7406,5.3088 L 19.7406,5.2456 Z" stroke="#000000" stroke-width="0.1195" stroke-linecap="round" stroke-linejoin="round" fill="#D6D6B1"/>
        <path d="M 20.0483,5.2456 L 19.9329,5.2456 L 19.9329,5.3088 L 20.0483,5.3088 L 20.0483,5.2456 Z" stroke="#000000" stroke-width="0.1195" stroke-linecap="round" stroke-linejoin="round" fill="#D6D6B1"/>
        <path d="M 20.3688,5.2456 L 20.2534,5.2456 L 20.2534,5.3088 L 20.3688,5.3088 L 20.3688,5.2456 Z" stroke="#000000" stroke-width="0.1195" stroke-linecap="round" stroke-linejoin="round" fill="#D6D6B1"/>
        <path d="M 21.3430,5.7133 L 21.3430,4.7021 L 21.1763,4.7021 L 21.1763,4.0195 L 21.3430,4.0195 L 21.3430,3.4381 L 22.1634,3.4381 L 22.1634,3.1347 L 22.4966,3.1347 L 22.4966,2.8693 L 23.4709,2.8693 L 23.4709,3.1347 L 23.8041,3.1347 L 23.8041,3.4381 L 24.6245,3.4381 L 24.6245,4.0195 L 24.7912,4.0195 L 24.7912,4.7021 L 24.6245,4.7021 L 24.6245,5.7133 L 24.1887,5.7133 L 24.1887,5.3215 L 21.7788,5.3215 L 21.7788,5.7133 L 21.3430,5.7133 Z" stroke="#161616" stroke-width="0.1195" stroke-linecap="round" stroke-linejoin="round" fill="#7F7F7F"/>
        <path d="M 21.9711,5.2456 L 21.8557,5.2456 L 21.8557,5.3088 L 21.9711,5.3088 L 21.9711,5.2456 Z" stroke="#000000" stroke-width="0.1195" stroke-linecap="round" stroke-linejoin="round" fill="#D6D6B1"/>
        <path d="M 22.2659,5.2456 L 22.1505,5.2456 L 22.1505,5.3088 L 22.2659,5.3088 L 22.2659,5.2456 Z" stroke="#000000" stroke-width="0.1195" stroke-linecap="round" stroke-linejoin="round" fill="#D6D6B1"/>
        <path d="M 22.5736,5.2456 L 22.4582,5.2456 L 22.4582,5.3088 L 22.5736,5.3088 L 22.5736,5.2456 Z" stroke="#000000" stroke-width="0.1195" stroke-linecap="round" stroke-linejoin="round" fill="#D6D6B1"/>
        <path d="M 22.8812,5.2456 L 22.7658,5.2456 L 22.7658,5.3088 L 22.8812,5.3088 L 22.8812,5.2456 Z" stroke="#000000" stroke-width="0.1195" stroke-linecap="round" stroke-linejoin="round" fill="#D6D6B1"/>
        <path d="M 23.1888,5.2456 L 23.0735,5.2456 L 23.0735,5.3088 L 23.1888,5.3088 L 23.1888,5.2456 Z" stroke="#000000" stroke-width="0.1195" stroke-linecap="round" stroke-linejoin="round" fill="#D6D6B1"/>
        <path d="M 23.4965,5.2456 L 23.3811,5.2456 L 23.3811,5.3088 L 23.4965,5.3088 L 23.4965,5.2456 Z" stroke="#000000" stroke-width="0.1195" stroke-linecap="round" stroke-linejoin="round" fill="#D6D6B1"/>
        <path d="M 23.8041,5.2456 L 23.6888,5.2456 L 23.6888,5.3088 L 23.8041,5.3088 L 23.8041,5.2456 Z" stroke="#000000" stroke-width="0.1195" stroke-linecap="round" stroke-linejoin="round" fill="#D6D6B1"/>
        <path d="M 24.1246,5.2456 L 24.0092,5.2456 L 24.0092,5.3088 L 24.1246,5.3088 L 24.1246,5.2456 Z" stroke="#000000" stroke-width="0.1195" stroke-linecap="round" stroke-linejoin="round" fill="#D6D6B1"/>
        <path d="M 25.1501,5.7133 L 25.1501,4.7021 L 24.9835,4.7021 L 24.9835,4.0195 L 25.1501,4.0195 L 25.1501,3.4381 L 25.9705,3.4381 L 25.9705,3.1347 L 26.3038,3.1347 L 26.3038,2.8693 L 27.2780,2.8693 L 27.2780,3.1347 L 27.6113,3.1347 L 27.6113,3.4381 L 28.4317,3.4381 L 28.4317,4.0195 L 28.5983,4.0195 L 28.5983,4.7021 L 28.4317,4.7021 L 28.4317,5.7133 L 27.9958,5.7133 L 27.9958,5.3215 L 25.5859,5.3215 L 25.5859,5.7133 L 25.1501,5.7133 Z" stroke="#161616" stroke-width="0.1195" stroke-linecap="round" stroke-linejoin="round" fill="#7F7F7F"/>
        <path d="M 25.7782,5.2456 L 25.6628,5.2456 L 25.6628,5.3088 L 25.7782,5.3088 L 25.7782,5.2456 Z" stroke="#000000" stroke-width="0.1195" stroke-linecap="round" stroke-linejoin="round" fill="#D6D6B1"/>
        <path d="M 26.0730,5.2456 L 25.9577,5.2456 L 25.9577,5.3088 L 26.0730,5.3088 L 26.0730,5.2456 Z" stroke="#000000" stroke-width="0.1195" stroke-linecap="round" stroke-linejoin="round" fill="#D6D6B1"/>
        <path d="M 26.3807,5.2456 L 26.2653,5.2456 L 26.2653,5.3088 L 26.3807,5.3088 L 26.3807,5.2456 Z" stroke="#000000" stroke-width="0.1195" stroke-linecap="round" stroke-linejoin="round" fill="#D6D6B1"/>
        <path d="M 26.6883,5.2456 L 26.5730,5.2456 L 26.5730,5.3088 L 26.6883,5.3088 L 26.6883,5.2456 Z" stroke="#000000" stroke-width="0.1195" stroke-linecap="round" stroke-linejoin="round" fill="#D6D6B1"/>
        <path d="M 26.9960,5.2456 L 26.8806,5.2456 L 26.8806,5.3088 L 26.9960,5.3088 L 26.9960,5.2456 Z" stroke="#000000" stroke-width="0.1195" stroke-linecap="round" stroke-linejoin="round" fill="#D6D6B1"/>
        <path d="M 27.3036,5.2456 L 27.1882,5.2456 L 27.1882,5.3088 L 27.3036,5.3088 L 27.3036,5.2456 Z" stroke="#000000" stroke-width="0.1195" stroke-linecap="round" stroke-linejoin="round" fill="#D6D6B1"/>
        <path d="M 27.6113,5.2456 L 27.4959,5.2456 L 27.4959,5.3088 L 27.6113,5.3088 L 27.6113,5.2456 Z" stroke="#000000" stroke-width="0.1195" stroke-linecap="round" stroke-linejoin="round" fill="#D6D6B1"/>
        <path d="M 27.9317,5.2456 L 27.8164,5.2456 L 27.8164,5.3088 L 27.9317,5.3088 L 27.9317,5.2456 Z" stroke="#000000" stroke-width="0.1195" stroke-linecap="round" stroke-linejoin="round" fill="#D6D6B1"/>
        <path d="M 28.8931,5.7133 L 28.8931,4.7021 L 28.7265,4.7021 L 28.7265,4.0195 L 28.8931,4.0195 L 28.8931,3.4381 L 29.7135,3.4381 L 29.7135,3.1347 L 30.0468,3.1347 L 30.0468,2.8693 L 31.0210,2.8693 L 31.0210,3.1347 L 31.3543,3.1347 L 31.3543,3.4381 L 32.1747,3.4381 L 32.1747,4.0195 L 32.3413,4.0195 L 32.3413,4.7021 L 32.1747,4.7021 L 32.1747,5.7133 L 31.7389,5.7133 L 31.7389,5.3215 L 29.3290,5.3215 L 29.3290,5.7133 L 28.8931,5.7133 Z" stroke="#161616" stroke-width="0.1195" stroke-linecap="round" stroke-linejoin="round" fill="#7F7F7F"/>
        <path d="M 29.5212,5.2456 L 29.4059,5.2456 L 29.4059,5.3088 L 29.5212,5.3088 L 29.5212,5.2456 Z" stroke="#000000" stroke-width="0.1195" stroke-linecap="round" stroke-linejoin="round" fill="#D6D6B1"/>
        <path d="M 29.8161,5.2456 L 29.7007,5.2456 L 29.7007,5.3088 L 29.8161,5.3088 L 29.8161,5.2456 Z" stroke="#000000" stroke-width="0.1195" stroke-linecap="round" stroke-linejoin="round" fill="#D6D6B1"/>
        <path d="M 30.1237,5.2456 L 30.0083,5.2456 L 30.0083,5.3088 L 30.1237,5.3088 L 30.1237,5.2456 Z" stroke="#000000" stroke-width="0.1195" stroke-linecap="round" stroke-linejoin="round" fill="#D6D6B1"/>
        <path d="M 30.4314,5.2456 L 30.3160,5.2456 L 30.3160,5.3088 L 30.4314,5.3088 L 30.4314,5.2456 Z" stroke="#000000" stroke-width="0.1195" stroke-linecap="round" stroke-linejoin="round" fill="#D6D6B1"/>
        <path d="M 30.7390,5.2456 L 30.6236,5.2456 L 30.6236,5.3088 L 30.7390,5.3088 L 30.7390,5.2456 Z" stroke="#000000" stroke-width="0.1195" stroke-linecap="round" stroke-linejoin="round" fill="#D6D6B1"/>
        <path d="M 31.0466,5.2456 L 30.9313,5.2456 L 30.9313,5.3088 L 31.0466,5.3088 L 31.0466,5.2456 Z" stroke="#000000" stroke-width="0.1195" stroke-linecap="round" stroke-linejoin="round" fill="#D6D6B1"/>
        <path d="M 31.3543,5.2456 L 31.2389,5.2456 L 31.2389,5.3088 L 31.3543,5.3088 L 31.3543,5.2456 Z" stroke="#000000" stroke-width="0.1195" stroke-linecap="round" stroke-linejoin="round" fill="#D6D6B1"/>
        <path d="M 31.6748,5.2456 L 31.5594,5.2456 L 31.5594,5.3088 L 31.6748,5.3088 L 31.6748,5.2456 Z" stroke="#000000" stroke-width="0.1195" stroke-linecap="round" stroke-linejoin="round" fill="#D6D6B1"/>
        <ellipse cx="35.3528" cy="4.5061" rx="0.9661" ry="0.9631" fill="#000000" stroke="#000000" stroke-width="0.1195" stroke-linecap="round" stroke-linejoin="round"/>
        <ellipse cx="35.3528" cy="4.5061" rx="0.9661" ry="0.9631" fill="none" stroke="#000000" stroke-width="0.1195" stroke-linecap="round" stroke-linejoin="round"/>
        <ellipse cx="35.3458" cy="4.5061" rx="0.3570" ry="0.3585" fill="#DDDDDD" stroke="#000000" stroke-width="0.1195" stroke-linecap="round" stroke-linejoin="round"/>
        <ellipse cx="35.3458" cy="4.5061" rx="0.3570" ry="0.3585" fill="none" stroke="#000000" stroke-width="0.1195" stroke-linecap="round" stroke-linejoin="round"/>
        <ellipse cx="35.3458" cy="4.5061" rx="0.2450" ry="0.2460" fill="#000000" stroke="#000000" stroke-width="0.1195" stroke-linecap="round" stroke-linejoin="round"/>
        <ellipse cx="35.3458" cy="4.5061" rx="0.2450" ry="0.2460" fill="none" stroke="#000000" stroke-width="0.1195" stroke-linecap="round" stroke-linejoin="round"/>
        <ellipse cx="35.3458" cy="4.5061" rx="0.2170" ry="0.2179" fill="#DDDDDD" stroke="#000000" stroke-width="0.1195" stroke-linecap="round" stroke-linejoin="round"/>
        <ellipse cx="35.3458" cy="4.5061" rx="0.2170" ry="0.2179" fill="none" stroke="#000000" stroke-width="0.1195" stroke-linecap="round" stroke-linejoin="round"/>
        <path d="M 45.5099,4.0540 L 45.5099,5.7105 L 43.2947,5.7105 L 43.2947,4.0540 L 45.5099,4.0540 Z" stroke="#000000" stroke-width="0.1195" stroke-linecap="round" stroke-linejoin="round" fill="#D6D6B1"/>
        <path d="M 42.8169,3.8252 L 42.8169,3.8143 L 42.8169,3.7925 L 42.8169,3.7816 L 42.8169,3.7707 L 42.8169,3.7489 L 42.8169,3.7380 L 42.8169,3.7271 L 42.8169,3.7162 L 42.8061,3.6944 L 42.8061,3.6835 L 42.8061,3.6726 L 42.8061,3.6617 L 42.8061,3.6508 L 42.8061,3.6399 L 42.7952,3.6181 L 42.7952,3.6072 L 42.7952,3.5963 L 42.7952,3.5854 L 42.7952,3.5745 L 42.7843,3.5636 L 42.7843,3.5527 L 42.7843,3.5418 L 42.7843,3.5309 L 42.7735,3.5200 L 42.7735,3.5091 L 42.7735,3.4982 L 42.7626,3.4982 L 42.7626,3.4873 L 42.7518,3.4873 L 42.7409,3.4873 L 42.7301,3.4873 L 42.7192,3.4873 L 42.7083,3.4873 L 42.6866,3.4873 L 42.6758,3.4873 L 42.6649,3.4873 L 42.6432,3.4873 L 42.6323,3.4873 L 42.6106,3.4873 L 42.5997,3.4873 L 42.5780,3.4873 L 42.5563,3.4873 L 42.5454,3.4873 L 42.5237,3.4873 L 42.5129,3.4873 L 42.4912,3.4873 L 42.4803,3.4873 L 42.4694,3.4873 L 42.4477,3.4873 L 42.4369,3.4873 L 42.4260,3.4873 L 42.4151,3.4873 L 42.4043,3.4873 L 42.3934,3.4873 L 42.3934,3.4982 L 42.3826,3.4982 L 42.3826,3.5091 L 42.3826,3.5200 L 42.3717,3.5309 L 42.3717,3.5418 L 42.3717,3.5527 L 42.3717,3.5636 L 42.3608,3.5745 L 42.3608,3.5854 L 42.3608,3.5963 L 42.3608,3.6072 L 42.3608,3.6181 L 42.3500,3.6399 L 42.3500,3.6508 L 42.3500,3.6617 L 42.3500,3.6726 L 42.3500,3.6835 L 42.3500,3.6944 L 42.3500,3.7162 L 42.3391,3.7271 L 42.3391,3.7380 L 42.3391,3.7489 L 42.3391,3.7707 L 42.3391,3.7816 L 42.3391,3.7925 L 42.3391,3.8143 L 42.3391,3.8252 L 42.3391,3.8361 L 42.3391,3.8470 L 42.3391,3.8797 L 42.3391,3.9124 L 42.3391,3.9668 L 42.3391,4.0213 L 42.3391,4.0867 L 42.3391,4.1521 L 42.3391,4.2284 L 42.3391,4.3156 L 42.3391,4.4028 L 42.3391,4.4899 L 42.3391,4.5880 L 42.3391,4.6861 L 42.3391,4.7842 L 42.3391,4.8823 L 42.3391,4.9804 L 42.3391,5.0784 L 42.3391,5.1765 L 42.3391,5.2746 L 42.3391,5.3618 L 42.3391,5.4490 L 42.3391,5.5361 L 42.3391,5.6124 L 42.3391,5.6778 L 42.3391,5.7432 L 42.3391,5.7977 L 42.3391,5.8522 L 42.3391,5.8849 L 42.3391,5.9176 L 42.3391,5.9285 L 42.3391,5.9394 L 42.3391,5.9503 L 42.3391,5.9721 L 42.3391,5.9830 L 42.3391,5.9939 L 42.3391,6.0157 L 42.3391,6.0266 L 42.3391,6.0375 L 42.3500,6.0483 L 42.3500,6.0701 L 42.3500,6.0810 L 42.3500,6.0919 L 42.3500,6.1028 L 42.3500,6.1137 L 42.3500,6.1246 L 42.3608,6.1464 L 42.3608,6.1573 L 42.3608,6.1682 L 42.3608,6.1791 L 42.3608,6.1900 L 42.3717,6.2009 L 42.3717,6.2118 L 42.3717,6.2227 L 42.3717,6.2336 L 42.3826,6.2445 L 42.3826,6.2554 L 42.3826,6.2663 L 42.3934,6.2663 L 42.3934,6.2772 L 42.4043,6.2772 L 42.4151,6.2772 L 42.4260,6.2772 L 42.4369,6.2772 L 42.4477,6.2772 L 42.4694,6.2772 L 42.4803,6.2772 L 42.4912,6.2772 L 42.5129,6.2772 L 42.5237,6.2772 L 42.5454,6.2772 L 42.5563,6.2772 L 42.5780,6.2772 L 42.5997,6.2772 L 42.6106,6.2772 L 42.6323,6.2772 L 42.6432,6.2772 L 42.6649,6.2772 L 42.6758,6.2772 L 42.6866,6.2772 L 42.7083,6.2772 L 42.7192,6.2772 L 42.7301,6.2772 L 42.7409,6.2772 L 42.7518,6.2772 L 42.7626,6.2772 L 42.7626,6.2663 L 42.7735,6.2663 L 42.7735,6.2554 L 42.7735,6.2445 L 42.7843,6.2336 L 42.7843,6.2227 L 42.7843,6.2118 L 42.7843,6.2009 L 42.7952,6.1900 L 42.7952,6.1791 L 42.7952,6.1682 L 42.7952,6.1573 L 42.7952,6.1464 L 42.8061,6.1246 L 42.8061,6.1137 L 42.8061,6.1028 L 42.8061,6.0919 L 42.8061,6.0810 L 42.8061,6.0701 L 42.8169,6.0483 L 42.8169,6.0375 L 42.8169,6.0266 L 42.8169,6.0157 L 42.8169,5.9939 L 42.8169,5.9830 L 42.8169,5.9721 L 42.8169,5.9503 L 42.8169,5.9394 L 42.8169,5.9285 L 42.8169,5.9176 L 42.8169,5.8849 L 42.8169,5.8522 L 42.8169,5.7977 L 42.8169,5.7432 L 42.8169,5.6778 L 42.8169,5.6124 L 42.8169,5.5361 L 42.8169,5.4490 L 42.8169,5.3618 L 42.8169,5.2746 L 42.8169,5.1765 L 42.8169,5.0784 L 42.8169,4.9804 L 42.8169,4.8823 L 42.8169,4.7842 L 42.8169,4.6861 L 42.8169,4.5880 L 42.8169,4.4899 L 42.8169,4.4028 L 42.8169,4.3156 L 42.8169,4.2284 L 42.8169,4.1521 L 42.8169,4.0867 L 42.8169,4.0213 L 42.8169,3.9668 L 42.8169,3.9124 L 42.8169,3.8797 L 42.8169,3.8470 L 42.8169,3.8361 L 42.8169,3.8252 Z" stroke="#000000" stroke-width="0.1195" stroke-linecap="round" stroke-linejoin="round" fill="#BCBC7E"/>
        <path d="M 42.7626,6.2772 L 42.7626,6.2663 L 42.7735,6.2663 L 42.7735,6.2554 L 42.7735,6.2445 L 42.7843,6.2336 L 42.7843,6.2227 L 42.7843,6.2118 L 42.7843,6.2009 L 42.7952,6.1900 L 42.7952,6.1791 L 42.7952,6.1682 L 42.7952,6.1573 L 42.7952,6.1464 L 42.8061,6.1246 L 42.8061,6.1137 L 42.8061,6.1028 L 42.8061,6.0919 L 42.8061,6.0810 L 42.8061,6.0701 L 42.8169,6.0483 L 42.8169,6.0375 L 42.8169,6.0266 L 42.8169,6.0157 L 42.8169,5.9939 L 42.8169,5.9830 L 42.8169,5.9721 L 42.8169,5.9503 L 42.8169,5.9394 L 42.8169,5.9285 L 42.8169,5.9176 L 42.8061,5.9067 L 42.8061,5.8958 L 42.8061,5.8849 L 42.8061,5.8740 L 42.8061,5.8631 L 42.8061,5.8522 L 42.8061,5.8413 L 42.8061,5.8304 L 42.7952,5.8195 L 42.7952,5.8086 L 42.7952,5.7977 L 42.7952,5.7868 L 42.7952,5.7759 L 42.7952,5.7650 L 42.7952,5.7541 L 42.7952,5.7432 L 42.7952,5.7323 L 42.7843,5.7214 L 42.7843,5.7105 L 42.7843,5.6996 L 42.7843,5.6887 L 42.7843,5.6778 L 42.7843,5.6669 L 42.7735,5.6560 L 42.7735,5.6342 L 42.7735,5.6233 L 42.7735,5.6124 L 42.7735,5.6015 L 42.7626,5.5906 L 42.7626,5.5797 L 42.7626,5.5579 L 42.7735,5.5470 L 42.7735,5.5252 L 42.7735,5.5035 L 42.7735,5.4817 L 42.7843,5.4599 L 42.7843,5.4381 L 42.7843,5.4163 L 42.7843,5.3945 L 42.7843,5.3727 L 42.7952,5.3509 L 42.7952,5.3291 L 42.7952,5.3073 L 42.7952,5.2855 L 42.7952,5.2637 L 42.8061,5.2419 L 42.8061,5.2201 L 42.8061,5.1983 L 42.8061,5.1656 L 42.8061,5.1438 L 42.8061,5.1220 L 42.8061,5.1002 L 42.8169,5.0784 L 42.8169,5.0566 L 42.8169,5.0348 L 42.8169,5.0130 L 42.8169,4.9913 L 42.8169,4.9695 L 42.8169,4.9477 L 42.8169,4.9259 L 42.8169,4.9041 L 42.8169,4.8823 L 42.8169,4.8605 L 42.8169,4.8387 L 42.8169,4.8169 L 42.8169,4.7951 L 42.8169,4.7733 L 42.8169,4.7515 L 42.8169,4.7297 L 42.8169,4.7079 L 42.8169,4.6861 L 42.8061,4.6643 L 42.8061,4.6425 L 42.8061,4.6207 L 42.8061,4.5989 L 42.8061,4.5662 L 42.8061,4.5444 L 42.8061,4.5226 L 42.7952,4.5008 L 42.7952,4.4790 L 42.7952,4.4573 L 42.7952,4.4355 L 42.7952,4.4137 L 42.7843,4.3919 L 42.7843,4.3701 L 42.7843,4.3483 L 42.7843,4.3265 L 42.7843,4.3047 L 42.7735,4.2829 L 42.7735,4.2611 L 42.7735,4.2393 L 42.7735,4.2175 L 42.7626,4.2066 L 42.7626,4.1848 L 42.7626,4.1739 L 42.7735,4.1630 L 42.7735,4.1521 L 42.7735,4.1412 L 42.7735,4.1303 L 42.7735,4.1085 L 42.7843,4.0976 L 42.7843,4.0867 L 42.7843,4.0758 L 42.7843,4.0649 L 42.7843,4.0540 L 42.7843,4.0431 L 42.7952,4.0322 L 42.7952,4.0213 L 42.7952,4.0104 L 42.7952,3.9995 L 42.7952,3.9886 L 42.7952,3.9777 L 42.7952,3.9668 L 42.7952,3.9559 L 42.7952,3.9450 L 42.8061,3.9342 L 42.8061,3.9233 L 42.8061,3.9124 L 42.8061,3.9015 L 42.8061,3.8906 L 42.8061,3.8797 L 42.8061,3.8688 L 42.8061,3.8579 L 42.8169,3.8470 L 42.8169,3.8361 L 42.8169,3.8252 L 42.8169,3.8143 L 42.8169,3.7925 L 42.8169,3.7816 L 42.8169,3.7707 L 42.8169,3.7489 L 42.8169,3.7380 L 42.8169,3.7271 L 42.8169,3.7162 L 42.8061,3.6944 L 42.8061,3.6835 L 42.8061,3.6726 L 42.8061,3.6617 L 42.8061,3.6508 L 42.8061,3.6399 L 42.7952,3.6181 L 42.7952,3.6072 L 42.7952,3.5963 L 42.7952,3.5854 L 42.7952,3.5745 L 42.7843,3.5636 L 42.7843,3.5527 L 42.7843,3.5418 L 42.7843,3.5309 L 42.7735,3.5200 L 42.7735,3.5091 L 42.7735,3.4982 L 42.7626,3.4982 L 42.7626,3.4873 L 42.7518,3.4873 L 42.7409,3.4873 L 42.7301,3.4873 L 42.7192,3.4873 L 42.7083,3.4873 L 42.6866,3.4873 L 42.6758,3.4873 L 42.6649,3.4873 L 42.6432,3.4873 L 42.6323,3.4873 L 42.6106,3.4873 L 42.5997,3.4873 L 42.5780,3.4873 L 42.5563,3.4873 L 42.5454,3.4873 L 42.5237,3.4873 L 42.5129,3.4873 L 42.4912,3.4873 L 42.4803,3.4873 L 42.4694,3.4873 L 42.4477,3.4873 L 42.4369,3.4873 L 42.4260,3.4873 L 42.4151,3.4873 L 42.4043,3.4873 L 42.3934,3.4873 L 42.3934,3.4982 L 42.3826,3.4982 L 42.3826,3.5091 L 42.3826,3.5200 L 42.3717,3.5309 L 42.3717,3.5418 L 42.3717,3.5527 L 42.3717,3.5636 L 42.3608,3.5745 L 42.3608,3.5854 L 42.3608,3.5963 L 42.3608,3.6072 L 42.3608,3.6181 L 42.3500,3.6399 L 42.3500,3.6508 L 42.3500,3.6617 L 42.3500,3.6726 L 42.3500,3.6835 L 42.3500,3.6944 L 42.3500,3.7162 L 42.3391,3.7271 L 42.3391,3.7380 L 42.3391,3.7489 L 42.3391,3.7707 L 42.3391,3.7816 L 42.3391,3.7925 L 42.3391,3.8143 L 42.3391,3.8252 L 42.3391,3.8361 L 42.3391,3.8470 L 42.3500,3.8579 L 42.3500,3.8688 L 42.3500,3.8797 L 42.3500,3.8906 L 42.3500,3.9015 L 42.3500,3.9124 L 42.3500,3.9233 L 42.3500,3.9342 L 42.3608,3.9450 L 42.3608,3.9559 L 42.3608,3.9668 L 42.3608,3.9777 L 42.3608,3.9886 L 42.3608,3.9995 L 42.3608,4.0104 L 42.3608,4.0213 L 42.3608,4.0322 L 42.3717,4.0431 L 42.3717,4.0540 L 42.3717,4.0649 L 42.3717,4.0758 L 42.3717,4.0867 L 42.3717,4.0976 L 42.3826,4.1085 L 42.3826,4.1303 L 42.3826,4.1412 L 42.3826,4.1521 L 42.3826,4.1630 L 42.3934,4.1739 L 42.3934,4.1848 L 42.3934,4.2066 L 42.3826,4.2175 L 42.3826,4.2393 L 42.3826,4.2611 L 42.3826,4.2829 L 42.3717,4.3047 L 42.3717,4.3265 L 42.3717,4.3483 L 42.3717,4.3701 L 42.3717,4.3919 L 42.3608,4.4137 L 42.3608,4.4355 L 42.3608,4.4573 L 42.3608,4.4790 L 42.3608,4.5008 L 42.3500,4.5226 L 42.3500,4.5444 L 42.3500,4.5662 L 42.3500,4.5989 L 42.3500,4.6207 L 42.3500,4.6425 L 42.3500,4.6643 L 42.3391,4.6861 L 42.3391,4.7079 L 42.3391,4.7297 L 42.3391,4.7515 L 42.3391,4.7733 L 42.3391,4.7951 L 42.3391,4.8169 L 42.3391,4.8387 L 42.3391,4.8605 L 42.3391,4.8823 L 42.3391,4.9041 L 42.3391,4.9259 L 42.3391,4.9477 L 42.3391,4.9695 L 42.3391,4.9913 L 42.3391,5.0130 L 42.3391,5.0348 L 42.3391,5.0566 L 42.3391,5.0784 L 42.3500,5.1002 L 42.3500,5.1220 L 42.3500,5.1438 L 42.3500,5.1656 L 42.3500,5.1983 L 42.3500,5.2201 L 42.3500,5.2419 L 42.3608,5.2637 L 42.3608,5.2855 L 42.3608,5.3073 L 42.3608,5.3291 L 42.3608,5.3509 L 42.3717,5.3727 L 42.3717,5.3945 L 42.3717,5.4163 L 42.3717,5.4381 L 42.3717,5.4599 L 42.3826,5.4817 L 42.3826,5.5035 L 42.3826,5.5252 L 42.3826,5.5470 L 42.3934,5.5579 L 42.3934,5.5797 L 42.3934,5.5906 L 42.3826,5.6015 L 42.3826,5.6124 L 42.3826,5.6233 L 42.3826,5.6342 L 42.3826,5.6560 L 42.3717,5.6669 L 42.3717,5.6778 L 42.3717,5.6887 L 42.3717,5.6996 L 42.3717,5.7105 L 42.3717,5.7214 L 42.3608,5.7323 L 42.3608,5.7432 L 42.3608,5.7541 L 42.3608,5.7650 L 42.3608,5.7759 L 42.3608,5.7868 L 42.3608,5.7977 L 42.3608,5.8086 L 42.3608,5.8195 L 42.3500,5.8304 L 42.3500,5.8413 L 42.3500,5.8522 L 42.3500,5.8631 L 42.3500,5.8740 L 42.3500,5.8849 L 42.3500,5.8958 L 42.3500,5.9067 L 42.3391,5.9176 L 42.3391,5.9285 L 42.3391,5.9394 L 42.3391,5.9503 L 42.3391,5.9721 L 42.3391,5.9830 L 42.3391,5.9939 L 42.3391,6.0157 L 42.3391,6.0266 L 42.3391,6.0375 L 42.3500,6.0483 L 42.3500,6.0701 L 42.3500,6.0810 L 42.3500,6.0919 L 42.3500,6.1028 L 42.3500,6.1137 L 42.3500,6.1246 L 42.3608,6.1464 L 42.3608,6.1573 L 42.3608,6.1682 L 42.3608,6.1791 L 42.3608,6.1900 L 42.3717,6.2009 L 42.3717,6.2118 L 42.3717,6.2227 L 42.3717,6.2336 L 42.3826,6.2445 L 42.3826,6.2554 L 42.3826,6.2663 L 42.3934,6.2663 L 42.3934,6.2772 L 42.4043,6.2772 L 42.4151,6.2772 L 42.4260,6.2772 L 42.4369,6.2772 L 42.4477,6.2772 L 42.4694,6.2772 L 42.4803,6.2772 L 42.4912,6.2772 L 42.5129,6.2772 L 42.5237,6.2772 L 42.5454,6.2772 L 42.5563,6.2772 L 42.5780,6.2772 L 42.5997,6.2772 L 42.6106,6.2772 L 42.6323,6.2772 L 42.6432,6.2772 L 42.6649,6.2772 L 42.6758,6.2772 L 42.6866,6.2772 L 42.7083,6.2772 L 42.7192,6.2772 L 42.7301,6.2772 L 42.7409,6.2772 L 42.7518,6.2772 L 42.7626,6.2772 Z" stroke="#A5A54C" stroke-width="0.1195" stroke-linecap="round" stroke-linejoin="round" fill="#CCCC9B"/>
        <path d="M 42.3934,4.1848 L 42.3934,4.2066 L 42.3826,4.2175 L 42.3826,4.2393 L 42.3826,4.2611 L 42.3826,4.2829 L 42.3717,4.3047 L 42.3717,4.3265 L 42.3717,4.3483 L 42.3717,4.3701 L 42.3717,4.3919 L 42.3608,4.4137 L 42.3608,4.4355 L 42.3608,4.4573 L 42.3608,4.4790 L 42.3608,4.5008 L 42.3500,4.5226 L 42.3500,4.5444 L 42.3500,4.5662 L 42.3500,4.5989 L 42.3500,4.6207 L 42.3500,4.6425 L 42.3500,4.6643 L 42.3391,4.6861 L 42.3391,4.7079 L 42.3391,4.7297 L 42.3391,4.7515 L 42.3391,4.7733 L 42.3391,4.7951 L 42.3391,4.8169 L 42.3391,4.8387 L 42.3391,4.8605 L 42.3391,4.8823 L 42.3391,4.9041 L 42.3391,4.9259 L 42.3391,4.9477 L 42.3391,4.9695 L 42.3391,4.9913 L 42.3391,5.0130 L 42.3391,5.0348 L 42.3391,5.0566 L 42.3391,5.0784 L 42.3500,5.1002 L 42.3500,5.1220 L 42.3500,5.1438 L 42.3500,5.1656 L 42.3500,5.1983 L 42.3500,5.2201 L 42.3500,5.2419 L 42.3608,5.2637 L 42.3608,5.2855 L 42.3608,5.3073 L 42.3608,5.3291 L 42.3608,5.3509 L 42.3717,5.3727 L 42.3717,5.3945 L 42.3717,5.4163 L 42.3717,5.4381 L 42.3717,5.4599 L 42.3826,5.4817 L 42.3826,5.5035 L 42.3826,5.5252 L 42.3826,5.5470 L 42.3934,5.5579 L 42.3934,5.5797 L 42.4043,5.5797 L 42.4151,5.5797 L 42.4260,5.5797 L 42.4369,5.5797 L 42.4477,5.5797 L 42.4694,5.5797 L 42.4803,5.5797 L 42.4912,5.5797 L 42.5129,5.5797 L 42.5237,5.5797 L 42.5454,5.5797 L 42.5563,5.5797 L 42.5780,5.5797 L 42.5997,5.5797 L 42.6106,5.5797 L 42.6323,5.5797 L 42.6432,5.5797 L 42.6649,5.5797 L 42.6758,5.5797 L 42.6866,5.5797 L 42.7083,5.5797 L 42.7192,5.5797 L 42.7301,5.5797 L 42.7409,5.5797 L 42.7518,5.5797 L 42.7626,5.5797 L 42.7626,5.5579 L 42.7735,5.5470 L 42.7735,5.5252 L 42.7735,5.5035 L 42.7735,5.4817 L 42.7843,5.4599 L 42.7843,5.4381 L 42.7843,5.4163 L 42.7843,5.3945 L 42.7843,5.3727 L 42.7952,5.3509 L 42.7952,5.3291 L 42.7952,5.3073 L 42.7952,5.2855 L 42.7952,5.2637 L 42.8061,5.2419 L 42.8061,5.2201 L 42.8061,5.1983 L 42.8061,5.1656 L 42.8061,5.1438 L 42.8061,5.1220 L 42.8061,5.1002 L 42.8169,5.0784 L 42.8169,5.0566 L 42.8169,5.0348 L 42.8169,5.0130 L 42.8169,4.9913 L 42.8169,4.9695 L 42.8169,4.9477 L 42.8169,4.9259 L 42.8169,4.9041 L 42.8169,4.8823 L 42.8169,4.8605 L 42.8169,4.8387 L 42.8169,4.8169 L 42.8169,4.7951 L 42.8169,4.7733 L 42.8169,4.7515 L 42.8169,4.7297 L 42.8169,4.7079 L 42.8169,4.6861 L 42.8061,4.6643 L 42.8061,4.6425 L 42.8061,4.6207 L 42.8061,4.5989 L 42.8061,4.5662 L 42.8061,4.5444 L 42.8061,4.5226 L 42.7952,4.5008 L 42.7952,4.4790 L 42.7952,4.4573 L 42.7952,4.4355 L 42.7952,4.4137 L 42.7843,4.3919 L 42.7843,4.3701 L 42.7843,4.3483 L 42.7843,4.3265 L 42.7843,4.3047 L 42.7735,4.2829 L 42.7735,4.2611 L 42.7735,4.2393 L 42.7735,4.2175 L 42.7626,4.2066 L 42.7626,4.1848 L 42.7518,4.1848 L 42.7409,4.1848 L 42.7301,4.1848 L 42.7192,4.1848 L 42.7083,4.1848 L 42.6866,4.1848 L 42.6758,4.1848 L 42.6649,4.1848 L 42.6432,4.1848 L 42.6323,4.1848 L 42.6106,4.1848 L 42.5997,4.1848 L 42.5780,4.1848 L 42.5563,4.1848 L 42.5454,4.1848 L 42.5237,4.1848 L 42.5129,4.1848 L 42.4912,4.1848 L 42.4803,4.1848 L 42.4694,4.1848 L 42.4477,4.1848 L 42.4369,4.1848 L 42.4260,4.1848 L 42.4151,4.1848 L 42.4043,4.1848 L 42.3934,4.1848 Z" stroke="#A5A54C" stroke-width="0.1195" stroke-linecap="round" stroke-linejoin="round" fill="#E2E2CC"/>
        <path d="M 42.8169,3.8252 L 42.8169,3.8143 L 42.8169,3.7925 L 42.8169,3.7816 L 42.8169,3.7707 L 42.8169,3.7489 L 42.8169,3.7380 L 42.8169,3.7271 L 42.8169,3.7162 L 42.8061,3.6944 L 42.8061,3.6835 L 42.8061,3.6726 L 42.8061,3.6617 L 42.8061,3.6508 L 42.8061,3.6399 L 42.7952,3.6181 L 42.7952,3.6072 L 42.7952,3.5963 L 42.7952,3.5854 L 42.7952,3.5745 L 42.7843,3.5636 L 42.7843,3.5527 L 42.7843,3.5418 L 42.7843,3.5309 L 42.7735,3.5200 L 42.7735,3.5091 L 42.7735,3.4982 L 42.7626,3.4982 L 42.7626,3.4873 L 42.7518,3.4873 L 42.7409,3.4873 L 42.7301,3.4873 L 42.7192,3.4873 L 42.7083,3.4873 L 42.6866,3.4873 L 42.6758,3.4873 L 42.6649,3.4873 L 42.6432,3.4873 L 42.6323,3.4873 L 42.6106,3.4873 L 42.5997,3.4873 L 42.5780,3.4873 L 42.5563,3.4873 L 42.5454,3.4873 L 42.5237,3.4873 L 42.5129,3.4873 L 42.4912,3.4873 L 42.4803,3.4873 L 42.4694,3.4873 L 42.4477,3.4873 L 42.4369,3.4873 L 42.4260,3.4873 L 42.4151,3.4873 L 42.4043,3.4873 L 42.3934,3.4873 L 42.3934,3.4982 L 42.3826,3.4982 L 42.3826,3.5091 L 42.3826,3.5200 L 42.3717,3.5309 L 42.3717,3.5418 L 42.3717,3.5527 L 42.3717,3.5636 L 42.3608,3.5745 L 42.3608,3.5854 L 42.3608,3.5963 L 42.3608,3.6072 L 42.3608,3.6181 L 42.3500,3.6399 L 42.3500,3.6508 L 42.3500,3.6617 L 42.3500,3.6726 L 42.3500,3.6835 L 42.3500,3.6944 L 42.3500,3.7162 L 42.3391,3.7271 L 42.3391,3.7380 L 42.3391,3.7489 L 42.3391,3.7707 L 42.3391,3.7816 L 42.3391,3.7925 L 42.3391,3.8143 L 42.3391,3.8252 L 42.3391,3.8361 L 42.3391,3.8470 L 42.3391,3.8797 L 42.3391,3.9124 L 42.3391,3.9668 L 42.3391,4.0213 L 42.3391,4.0867 L 42.3391,4.1521 L 42.3391,4.2284 L 42.3391,4.3156 L 42.3391,4.4028 L 42.3391,4.4899 L 42.3391,4.5880 L 42.3391,4.6861 L 42.3391,4.7842 L 42.3391,4.8823 L 42.3391,4.9804 L 42.3391,5.0784 L 42.3391,5.1765 L 42.3391,5.2746 L 42.3391,5.3618 L 42.3391,5.4490 L 42.3391,5.5361 L 42.3391,5.6124 L 42.3391,5.6778 L 42.3391,5.7432 L 42.3391,5.7977 L 42.3391,5.8522 L 42.3391,5.8849 L 42.3391,5.9176 L 42.3391,5.9285 L 42.3391,5.9394 L 42.3391,5.9503 L 42.3391,5.9721 L 42.3391,5.9830 L 42.3391,5.9939 L 42.3391,6.0157 L 42.3391,6.0266 L 42.3391,6.0375 L 42.3500,6.0483 L 42.3500,6.0701 L 42.3500,6.0810 L 42.3500,6.0919 L 42.3500,6.1028 L 42.3500,6.1137 L 42.3500,6.1246 L 42.3608,6.1464 L 42.3608,6.1573 L 42.3608,6.1682 L 42.3608,6.1791 L 42.3608,6.1900 L 42.3717,6.2009 L 42.3717,6.2118 L 42.3717,6.2227 L 42.3717,6.2336 L 42.3826,6.2445 L 42.3826,6.2554 L 42.3826,6.2663 L 42.3934,6.2663 L 42.3934,6.2772 L 42.4043,6.2772 L 42.4151,6.2772 L 42.4260,6.2772 L 42.4369,6.2772 L 42.4477,6.2772 L 42.4694,6.2772 L 42.4803,6.2772 L 42.4912,6.2772 L 42.5129,6.2772 L 42.5237,6.2772 L 42.5454,6.2772 L 42.5563,6.2772 L 42.5780,6.2772 L 42.5997,6.2772 L 42.6106,6.2772 L 42.6323,6.2772 L 42.6432,6.2772 L 42.6649,6.2772 L 42.6758,6.2772 L 42.6866,6.2772 L 42.7083,6.2772 L 42.7192,6.2772 L 42.7301,6.2772 L 42.7409,6.2772 L 42.7518,6.2772 L 42.7626,6.2772 L 42.7626,6.2663 L 42.7735,6.2663 L 42.7735,6.2554 L 42.7735,6.2445 L 42.7843,6.2336 L 42.7843,6.2227 L 42.7843,6.2118 L 42.7843,6.2009 L 42.7952,6.1900 L 42.7952,6.1791 L 42.7952,6.1682 L 42.7952,6.1573 L 42.7952,6.1464 L 42.8061,6.1246 L 42.8061,6.1137 L 42.8061,6.1028 L 42.8061,6.0919 L 42.8061,6.0810 L 42.8061,6.0701 L 42.8169,6.0483 L 42.8169,6.0375 L 42.8169,6.0266 L 42.8169,6.0157 L 42.8169,5.9939 L 42.8169,5.9830 L 42.8169,5.9721 L 42.8169,5.9503 L 42.8169,5.9394 L 42.8169,5.9285 L 42.8169,5.9176 L 42.8169,5.8849 L 42.8169,5.8522 L 42.8169,5.7977 L 42.8169,5.7432 L 42.8169,5.6778 L 42.8169,5.6124 L 42.8169,5.5361 L 42.8169,5.4490 L 42.8169,5.3618 L 42.8169,5.2746 L 42.8169,5.1765 L 42.8169,5.0784 L 42.8169,4.9804 L 42.8169,4.8823 L 42.8169,4.7842 L 42.8169,4.6861 L 42.8169,4.5880 L 42.8169,4.4899 L 42.8169,4.4028 L 42.8169,4.3156 L 42.8169,4.2284 L 42.8169,4.1521 L 42.8169,4.0867 L 42.8169,4.0213 L 42.8169,3.9668 L 42.8169,3.9124 L 42.8169,3.8797 L 42.8169,3.8470 L 42.8169,3.8361 L 42.8169,3.8252 Z" stroke="#000000" stroke-width="0.1195" stroke-linecap="round" stroke-linejoin="round" fill="none"/>
        <path d="M 43.3707,3.9450 L 43.3599,3.9342 L 43.3490,3.9233 L 43.3382,3.9342 L 43.3273,3.9450 L 43.3273,5.8195 L 43.3382,5.8304 L 43.3490,5.8413 L 43.3599,5.8304 L 43.3707,5.8195 L 43.3707,3.9450 Z" stroke="#000000" stroke-width="0.1195" stroke-linecap="round" stroke-linejoin="round" fill="#CCCC9B"/>
        <path d="M 43.5336,3.9450 L 43.5228,3.9342 L 43.5119,3.9233 L 43.5010,3.9342 L 43.4902,3.9450 L 43.4902,5.8195 L 43.5010,5.8304 L 43.5119,5.8413 L 43.5228,5.8304 L 43.5336,5.8195 L 43.5336,3.9450 Z" stroke="#000000" stroke-width="0.1195" stroke-linecap="round" stroke-linejoin="round" fill="#CCCC9B"/>
        <path d="M 43.6856,3.9450 L 43.6748,3.9342 L 43.6639,3.9233 L 43.6531,3.9342 L 43.6422,3.9450 L 43.6422,5.8195 L 43.6531,5.8304 L 43.6639,5.8413 L 43.6748,5.8304 L 43.6856,5.8195 L 43.6856,3.9450 Z" stroke="#000000" stroke-width="0.1195" stroke-linecap="round" stroke-linejoin="round" fill="#CCCC9B"/>
        <path d="M 43.8377,3.9450 L 43.8268,3.9342 L 43.8159,3.9233 L 43.8051,3.9342 L 43.7942,3.9450 L 43.7942,5.8195 L 43.8051,5.8304 L 43.8159,5.8413 L 43.8268,5.8304 L 43.8377,5.8195 L 43.8377,3.9450 Z" stroke="#000000" stroke-width="0.1195" stroke-linecap="round" stroke-linejoin="round" fill="#CCCC9B"/>
        <path d="M 43.2947,3.6944 L 43.2947,6.0701 L 42.8061,6.0701 L 42.8061,3.6944 L 43.2947,3.6944 Z" stroke="#000000" stroke-width="0.1195" stroke-linecap="round" stroke-linejoin="round" fill="#D6D6B1"/>
        <path d="M 43.2947,5.3509 L 43.2947,5.5252 L 42.8061,5.5252 L 42.8061,5.3509 L 43.2947,5.3509 Z" stroke="#E2E2CC" stroke-width="0.1195" stroke-linecap="round" stroke-linejoin="round" fill="#E2E2CC"/>
        <path d="M 43.2947,4.2393 L 43.2947,4.4137 L 42.8061,4.4137 L 42.8061,4.2393 L 43.2947,4.2393 Z" stroke="#E2E2CC" stroke-width="0.1195" stroke-linecap="round" stroke-linejoin="round" fill="#E2E2CC"/>
        <path d="M 43.2947,3.6944 L 43.2947,6.0701 L 42.8061,6.0701 L 42.8061,3.6944 L 43.2947,3.6944 Z" stroke="#000000" stroke-width="0.1195" stroke-linecap="round" stroke-linejoin="round" fill="none"/>
        <path d="M 43.9897,3.9450 L 43.9788,3.9342 L 43.9680,3.9233 L 43.9571,3.9342 L 43.9463,3.9450 L 43.9463,5.8195 L 43.9571,5.8304 L 43.9680,5.8413 L 43.9788,5.8304 L 43.9897,5.8195 L 43.9897,3.9450 Z" stroke="#000000" stroke-width="0.1195" stroke-linecap="round" stroke-linejoin="round" fill="#CCCC9B"/>
        <path d="M 44.1417,3.9450 L 44.1309,3.9342 L 44.1200,3.9233 L 44.1091,3.9342 L 44.0983,3.9450 L 44.0983,5.8195 L 44.1091,5.8304 L 44.1200,5.8413 L 44.1309,5.8304 L 44.1417,5.8195 L 44.1417,3.9450 Z" stroke="#000000" stroke-width="0.1195" stroke-linecap="round" stroke-linejoin="round" fill="#CCCC9B"/>
        <path d="M 44.2937,3.9450 L 44.2829,3.9342 L 44.2720,3.9233 L 44.2612,3.9342 L 44.2503,3.9450 L 44.2503,5.8195 L 44.2612,5.8304 L 44.2720,5.8413 L 44.2829,5.8304 L 44.2937,5.8195 L 44.2937,3.9450 Z" stroke="#000000" stroke-width="0.1195" stroke-linecap="round" stroke-linejoin="round" fill="#CCCC9B"/>
        <path d="M 44.4458,3.9450 L 44.4349,3.9342 L 44.4240,3.9233 L 44.4132,3.9342 L 44.4023,3.9450 L 44.4023,5.8195 L 44.4132,5.8304 L 44.4240,5.8413 L 44.4349,5.8304 L 44.4458,5.8195 L 44.4458,3.9450 Z" stroke="#000000" stroke-width="0.1195" stroke-linecap="round" stroke-linejoin="round" fill="#CCCC9B"/>
        <path d="M 44.5978,3.9450 L 44.5869,3.9342 L 44.5761,3.9233 L 44.5652,3.9342 L 44.5544,3.9450 L 44.5544,5.8195 L 44.5652,5.8304 L 44.5761,5.8413 L 44.5869,5.8304 L 44.5978,5.8195 L 44.5978,3.9450 Z" stroke="#000000" stroke-width="0.1195" stroke-linecap="round" stroke-linejoin="round" fill="#CCCC9B"/>
        <path d="M 44.7498,3.9450 L 44.7390,3.9342 L 44.7281,3.9233 L 44.7172,3.9342 L 44.7064,3.9450 L 44.7064,5.8195 L 44.7172,5.8304 L 44.7281,5.8413 L 44.7390,5.8304 L 44.7498,5.8195 L 44.7498,3.9450 Z" stroke="#000000" stroke-width="0.1195" stroke-linecap="round" stroke-linejoin="round" fill="#CCCC9B"/>
        <path d="M 44.8910,3.9450 L 44.8801,3.9342 L 44.8693,3.9233 L 44.8584,3.9342 L 44.8475,3.9450 L 44.8475,5.8195 L 44.8584,5.8304 L 44.8693,5.8413 L 44.8801,5.8304 L 44.8910,5.8195 L 44.8910,3.9450 Z" stroke="#000000" stroke-width="0.1195" stroke-linecap="round" stroke-linejoin="round" fill="#CCCC9B"/>
        <path d="M 45.0430,3.9450 L 45.0322,3.9342 L 45.0213,3.9233 L 45.0104,3.9342 L 44.9996,3.9450 L 44.9996,5.8195 L 45.0104,5.8304 L 45.0213,5.8413 L 45.0322,5.8304 L 45.0430,5.8195 L 45.0430,3.9450 Z" stroke="#000000" stroke-width="0.1195" stroke-linecap="round" stroke-linejoin="round" fill="#CCCC9B"/>
        <path d="M 45.1950,3.9450 L 45.1842,3.9342 L 45.1733,3.9233 L 45.1625,3.9342 L 45.1516,3.9450 L 45.1516,5.8195 L 45.1625,5.8304 L 45.1733,5.8413 L 45.1842,5.8304 L 45.1950,5.8195 L 45.1950,3.9450 Z" stroke="#000000" stroke-width="0.1195" stroke-linecap="round" stroke-linejoin="round" fill="#CCCC9B"/>
        <path d="M 45.3471,3.9450 L 45.3362,3.9342 L 45.3253,3.9233 L 45.3145,3.9342 L 45.3036,3.9450 L 45.3036,5.8195 L 45.3145,5.8304 L 45.3253,5.8413 L 45.3362,5.8304 L 45.3471,5.8195 L 45.3471,3.9450 Z" stroke="#000000" stroke-width="0.1195" stroke-linecap="round" stroke-linejoin="round" fill="#CCCC9B"/>
      </g>
      <!--emf-blob end-->
    </g>
  </g>
</svg>
