<svg xmlns="http://www.w3.org/2000/svg" xmlns:xlink="http://www.w3.org/1999/xlink" version="1.1" width="7.6704000000" height="2.5984000000" viewBox="0 0 138.0699 46.7697">
  <title><![CDATA[FXX-400C, FAZ,FMG 300D (F)]]></title>
  <g transform=" scale(4.000000) ">
    <!--converted by libvisio2svg-->
    <g transform=" translate(0.720000,0.720000) ">
      <!--emf-blob start-->
      <g transform="translate(-0.0000, -0.0000)">
        <path d="M 13.0811,2.0511 L 13.0811,3.0016 L 13.9817,3.0016 " stroke="#000000" stroke-width="0.1197" stroke-linecap="round" stroke-linejoin="round" fill="none"/>
        <path d="M 13.9817,2.0511 L 15.7590,2.0511 " stroke="#000000" stroke-width="0.1197" stroke-linecap="round" stroke-linejoin="round" fill="none"/>
        <path d="M 14.8585,2.0511 L 14.8585,3.0016 " stroke="#000000" stroke-width="0.1197" stroke-linecap="round" stroke-linejoin="round" fill="none"/>
        <path d="M 16.2092,2.0511 L 16.2092,3.0016 " stroke="#000000" stroke-width="0.1197" stroke-linecap="round" stroke-linejoin="round" fill="none"/>
        <path d="M 16.2092,2.0511 L 16.2092,3.0016 " stroke="#000000" stroke-width="0.1197" stroke-linecap="round" stroke-linejoin="round" fill="none"/>
        <path d="M 17.0861,3.0016 L 17.0861,2.0511 L 17.9866,3.0016 L 18.8871,2.0511 L 18.8871,3.0016 " stroke="#000000" stroke-width="0.1197" stroke-linecap="round" stroke-linejoin="round" fill="none"/>
        <path d="M 19.3137,3.0016 L 20.2142,2.0511 L 21.1147,3.0016 " stroke="#000000" stroke-width="0.1197" stroke-linecap="round" stroke-linejoin="round" fill="none"/>
        <path d="M 19.5506,2.7640 L 20.8777,2.7640 " stroke="#000000" stroke-width="0.1197" stroke-linecap="round" stroke-linejoin="round" fill="none"/>
        <path d="M 10.4033,3.0016 L 11.3038,2.0511 L 12.2043,3.0016 " stroke="#000000" stroke-width="0.1197" stroke-linecap="round" stroke-linejoin="round" fill="none"/>
        <path d="M 10.6403,2.7640 L 11.9674,2.7640 " stroke="#000000" stroke-width="0.1197" stroke-linecap="round" stroke-linejoin="round" fill="none"/>
        <path d="M 136.1111,0.0281 L 0.0280,0.0281 L 0.0280,12.3879 L 136.1111,12.3879 L 136.1111,0.0281 Z" stroke="#000000" stroke-width="0.1197" stroke-linecap="round" stroke-linejoin="round" fill="#EFEFEF"/>
        <path d="M 129.3014,0.0281 L 6.8378,0.0281 L 6.8378,12.3879 L 129.3014,12.3879 L 129.3014,0.0281 Z" stroke="#000000" stroke-width="0.1197" stroke-linecap="round" stroke-linejoin="round" fill="#EFEFEF"/>
        <path d="M 135.1303,1.8259 L 135.1303,1.7276 L 135.1163,1.6293 L 135.0883,1.5450 L 135.0602,1.4467 L 135.0182,1.3624 L 134.9762,1.2922 L 134.9201,1.2219 L 134.7800,1.0815 L 134.7099,1.0253 L 134.6399,0.9832 L 134.5558,0.9410 L 134.4577,0.9129 L 134.3737,0.8849 L 134.2756,0.8708 L 132.1177,0.8708 L 132.0197,0.8849 L 131.9356,0.9129 L 131.8375,0.9410 L 131.7534,0.9832 L 131.6834,1.0253 L 131.6133,1.0815 L 131.4732,1.2219 L 131.4172,1.2922 L 131.3751,1.3624 L 131.3331,1.4467 L 131.3051,1.5450 L 131.2770,1.6293 L 131.2630,1.7276 L 131.2630,1.9242 L 131.2770,2.0225 L 131.3051,2.1068 L 131.3331,2.2051 L 131.3751,2.2894 L 131.4172,2.3596 L 131.4732,2.4298 L 131.6133,2.5703 L 131.6834,2.6265 L 131.7534,2.6686 L 131.8375,2.7107 L 131.9356,2.7388 L 132.0197,2.7669 L 132.1177,2.7810 L 134.2756,2.7810 L 134.3737,2.7669 L 134.4577,2.7388 L 134.5558,2.7107 L 134.6399,2.6686 L 134.7099,2.6265 L 134.7800,2.5703 L 134.9201,2.4298 L 134.9762,2.3596 L 135.0182,2.2894 L 135.0602,2.2051 L 135.0883,2.1068 L 135.1163,2.0225 L 135.1303,1.9242 L 135.1303,1.8259 Z" stroke="#000000" stroke-width="0.1197" stroke-linecap="round" stroke-linejoin="round" fill="#FFFFFF"/>
        <path d="M 135.1303,10.5901 L 135.1303,10.4918 L 135.1163,10.3935 L 135.0883,10.3092 L 135.0602,10.2109 L 135.0182,10.1266 L 134.9762,10.0564 L 134.9201,9.9862 L 134.7800,9.8457 L 134.7099,9.7895 L 134.6399,9.7474 L 134.5558,9.7053 L 134.4577,9.6772 L 134.3737,9.6491 L 134.2756,9.6350 L 132.1177,9.6350 L 132.0197,9.6491 L 131.9356,9.6772 L 131.8375,9.7053 L 131.7534,9.7474 L 131.6834,9.7895 L 131.6133,9.8457 L 131.4732,9.9862 L 131.4172,10.0564 L 131.3751,10.1266 L 131.3331,10.2109 L 131.3051,10.3092 L 131.2770,10.3935 L 131.2630,10.4918 L 131.2630,10.6884 L 131.2770,10.7868 L 131.3051,10.8710 L 131.3331,10.9693 L 131.3751,11.0536 L 131.4172,11.1238 L 131.4732,11.1941 L 131.6133,11.3345 L 131.6834,11.3907 L 131.7534,11.4328 L 131.8375,11.4750 L 131.9356,11.5031 L 132.0197,11.5312 L 132.1177,11.5452 L 134.2756,11.5452 L 134.3737,11.5312 L 134.4577,11.5031 L 134.5558,11.4750 L 134.6399,11.4328 L 134.7099,11.3907 L 134.7800,11.3345 L 134.9201,11.1941 L 134.9762,11.1238 L 135.0182,11.0536 L 135.0602,10.9693 L 135.0883,10.8710 L 135.1163,10.7868 L 135.1303,10.6884 L 135.1303,10.5901 Z" stroke="#000000" stroke-width="0.1197" stroke-linecap="round" stroke-linejoin="round" fill="#FFFFFF"/>
        <path d="M 4.8761,1.8259 L 4.8761,1.7276 L 4.8621,1.6293 L 4.8341,1.5450 L 4.8061,1.4467 L 4.7640,1.3624 L 4.7220,1.2922 L 4.6659,1.2219 L 4.5258,1.0815 L 4.4558,1.0253 L 4.3857,0.9832 L 4.3016,0.9410 L 4.2036,0.9129 L 4.1195,0.8849 L 4.0214,0.8708 L 1.8636,0.8708 L 1.7655,0.8849 L 1.6814,0.9129 L 1.5833,0.9410 L 1.4993,0.9832 L 1.4292,1.0253 L 1.3591,1.0815 L 1.2190,1.2219 L 1.1630,1.2922 L 1.1209,1.3624 L 1.0789,1.4467 L 1.0509,1.5450 L 1.0229,1.6293 L 1.0089,1.7276 L 1.0089,1.9242 L 1.0229,2.0225 L 1.0509,2.1068 L 1.0789,2.2051 L 1.1209,2.2894 L 1.1630,2.3596 L 1.2190,2.4298 L 1.3591,2.5703 L 1.4292,2.6265 L 1.4993,2.6686 L 1.5833,2.7107 L 1.6814,2.7388 L 1.7655,2.7669 L 1.8636,2.7810 L 4.0214,2.7810 L 4.1195,2.7669 L 4.2036,2.7388 L 4.3016,2.7107 L 4.3857,2.6686 L 4.4558,2.6265 L 4.5258,2.5703 L 4.6659,2.4298 L 4.7220,2.3596 L 4.7640,2.2894 L 4.8061,2.2051 L 4.8341,2.1068 L 4.8621,2.0225 L 4.8761,1.9242 L 4.8761,1.8259 Z" stroke="#000000" stroke-width="0.1197" stroke-linecap="round" stroke-linejoin="round" fill="#FFFFFF"/>
        <path d="M 4.8761,10.5901 L 4.8761,10.4918 L 4.8621,10.3935 L 4.8341,10.3092 L 4.8061,10.2109 L 4.7640,10.1266 L 4.7220,10.0564 L 4.6659,9.9862 L 4.5258,9.8457 L 4.4558,9.7895 L 4.3857,9.7474 L 4.3016,9.7053 L 4.2036,9.6772 L 4.1195,9.6491 L 4.0214,9.6350 L 1.8636,9.6350 L 1.7655,9.6491 L 1.6814,9.6772 L 1.5833,9.7053 L 1.4993,9.7474 L 1.4292,9.7895 L 1.3591,9.8457 L 1.2190,9.9862 L 1.1630,10.0564 L 1.1209,10.1266 L 1.0789,10.2109 L 1.0509,10.3092 L 1.0229,10.3935 L 1.0089,10.4918 L 1.0089,10.6884 L 1.0229,10.7868 L 1.0509,10.8710 L 1.0789,10.9693 L 1.1209,11.0536 L 1.1630,11.1238 L 1.2190,11.1941 L 1.3591,11.3345 L 1.4292,11.3907 L 1.4993,11.4328 L 1.5833,11.4750 L 1.6814,11.5031 L 1.7655,11.5312 L 1.8636,11.5452 L 4.0214,11.5452 L 4.1195,11.5312 L 4.2036,11.5031 L 4.3016,11.4750 L 4.3857,11.4328 L 4.4558,11.3907 L 4.5258,11.3345 L 4.6659,11.1941 L 4.7220,11.1238 L 4.7640,11.0536 L 4.8061,10.9693 L 4.8341,10.8710 L 4.8621,10.7868 L 4.8761,10.6884 L 4.8761,10.5901 Z" stroke="#000000" stroke-width="0.1197" stroke-linecap="round" stroke-linejoin="round" fill="#FFFFFF"/>
        <path d="M 37.9721,0.8708 L 36.8231,0.9129 L 35.7442,0.9972 L 34.7214,1.1096 L 33.7545,1.2500 L 32.8438,1.4186 L 32.0031,1.6012 L 31.2044,1.8118 L 30.4618,2.0506 L 29.7612,2.2894 L 29.1166,2.5562 L 28.5281,2.8371 L 27.9677,3.1180 L 27.4632,3.4130 L 27.0008,3.7220 L 26.5805,4.0169 L 26.1882,4.3259 L 25.8379,4.6349 L 25.5296,4.9299 L 25.2494,5.2389 L 24.9971,5.5198 L 24.7870,5.8007 L 24.5908,6.0676 L 24.4227,6.3204 L 24.2825,6.5591 L 24.1704,6.7698 L 24.0724,6.9664 L 24.0023,7.1350 L 23.9322,7.2754 L 23.8622,7.4861 L 23.8482,7.5423 L 23.8482,7.5563 L 23.8061,7.6547 L 23.6380,7.9496 L 23.4979,8.1463 L 23.4138,8.2305 L 23.3437,8.3288 L 23.2597,8.4131 L 23.1616,8.4974 L 23.0775,8.5676 L 22.9654,8.6519 L 22.8673,8.7221 L 22.7552,8.8064 L 22.5311,8.9468 L 22.2788,9.0592 L 22.1527,9.1294 L 22.0126,9.1716 L 21.8725,9.2277 L 21.7324,9.2699 L 21.2700,9.3963 L 20.7656,9.4806 L 20.5974,9.4946 L 20.2331,9.5227 L 8.4772,9.5227 L 8.4772,1.1377 L 8.4912,1.1236 L 8.4912,1.0815 L 8.5052,1.0674 L 8.5052,1.0534 L 8.5192,1.0393 L 8.5192,1.0253 L 8.5332,1.0113 L 8.5332,0.9972 L 8.5612,0.9691 L 8.5612,0.9551 L 8.5753,0.9551 L 8.5753,0.9410 L 8.6173,0.8989 L 8.6313,0.8989 L 8.6453,0.8849 L 8.6593,0.8849 L 8.6733,0.8708 L 37.8880,0.8708 L 37.9721,0.8708 Z" stroke="#BFBFBF" stroke-width="0.1197" stroke-linecap="round" stroke-linejoin="round" fill="#EFEFEF"/>
        <path d="M 37.9721,0.8708 L 36.8231,0.9129 L 35.7442,0.9972 L 34.7214,1.1096 L 33.7545,1.2500 L 32.8438,1.4186 L 32.0031,1.6012 L 31.2044,1.8118 L 30.4618,2.0506 L 29.7612,2.2894 L 29.1166,2.5562 L 28.5281,2.8371 L 27.9677,3.1180 L 27.4632,3.4130 L 27.0008,3.7220 L 26.5805,4.0169 L 26.1882,4.3259 L 25.8379,4.6349 L 25.5296,4.9299 L 25.2494,5.2389 L 24.9971,5.5198 L 24.7870,5.8007 L 24.5908,6.0676 L 24.4227,6.3204 L 24.2825,6.5591 L 24.1704,6.7698 L 24.0724,6.9664 L 24.0023,7.1350 L 23.9322,7.2754 L 23.8622,7.4861 L 23.8482,7.5423 L 23.8482,7.5563 L 23.8061,7.6547 L 23.6380,7.9496 L 23.4979,8.1463 L 23.4138,8.2305 L 23.3437,8.3288 L 23.2597,8.4131 L 23.1616,8.4974 L 23.0775,8.5676 L 22.9654,8.6519 L 22.8673,8.7221 L 22.7552,8.8064 L 22.5311,8.9468 L 22.2788,9.0592 L 22.1527,9.1294 L 22.0126,9.1716 L 21.8725,9.2277 L 21.7324,9.2699 L 21.2700,9.3963 L 20.7656,9.4806 L 20.5974,9.4946 L 20.2331,9.5227 L 8.4772,9.5227 L 8.4772,11.2783 L 8.4912,11.2924 L 8.4912,11.3345 L 8.5052,11.3486 L 8.5052,11.3626 L 8.5192,11.3767 L 8.5192,11.3907 L 8.5332,11.4048 L 8.5332,11.4188 L 8.5612,11.4469 L 8.5612,11.4609 L 8.5753,11.4609 L 8.5753,11.4750 L 8.6173,11.5171 L 8.6313,11.5171 L 8.6453,11.5312 L 8.6593,11.5312 L 8.6733,11.5452 L 65.6735,11.5452 L 65.6876,11.5312 L 65.7156,11.5312 L 65.7296,11.5171 L 65.7436,11.5171 L 65.7436,11.5031 L 65.7576,11.5031 L 65.8417,11.4188 L 65.8417,11.4048 L 65.8977,11.3486 L 65.8977,11.3205 L 65.9117,11.3064 L 65.9117,11.2783 L 65.9258,11.2643 L 65.9258,1.1517 L 65.9117,1.1377 L 65.9117,1.1096 L 65.8977,1.0955 L 65.8977,1.0674 L 65.8417,1.0113 L 65.8417,0.9972 L 65.7576,0.9129 L 65.7436,0.9129 L 65.7436,0.8989 L 65.7296,0.8989 L 65.7156,0.8849 L 65.6876,0.8849 L 65.6735,0.8708 L 38.0562,0.8708 L 37.9721,0.8708 Z" stroke="#CCDDCC" stroke-width="0.1197" stroke-linecap="round" stroke-linejoin="round" fill="#CCDDCC"/>
        <path d="M 37.9721,0.8708 L 8.6733,0.8708 L 8.6593,0.8849 L 8.6453,0.8849 L 8.6313,0.8989 L 8.6173,0.8989 L 8.5753,0.9410 L 8.5753,0.9551 L 8.5612,0.9551 L 8.5612,0.9691 L 8.5332,0.9972 L 8.5332,1.0113 L 8.5192,1.0253 L 8.5192,1.0393 L 8.5052,1.0534 L 8.5052,1.0674 L 8.4912,1.0815 L 8.4912,1.1236 L 8.4772,1.1377 L 8.4772,11.2783 L 8.4912,11.2924 L 8.4912,11.3345 L 8.5052,11.3486 L 8.5052,11.3626 L 8.5192,11.3767 L 8.5192,11.3907 L 8.5332,11.4048 L 8.5332,11.4188 L 8.5612,11.4469 L 8.5612,11.4609 L 8.5753,11.4609 L 8.5753,11.4750 L 8.6173,11.5171 L 8.6313,11.5171 L 8.6453,11.5312 L 8.6593,11.5312 L 8.6733,11.5452 L 65.6735,11.5452 L 65.6876,11.5312 L 65.7156,11.5312 L 65.7296,11.5171 L 65.7436,11.5171 L 65.7436,11.5031 L 65.7576,11.5031 L 65.8417,11.4188 L 65.8417,11.4048 L 65.8977,11.3486 L 65.8977,11.3205 L 65.9117,11.3064 L 65.9117,11.2783 L 65.9258,11.2643 L 65.9258,1.1517 L 65.9117,1.1377 L 65.9117,1.1096 L 65.8977,1.0955 L 65.8977,1.0674 L 65.8417,1.0113 L 65.8417,0.9972 L 65.7576,0.9129 L 65.7436,0.9129 L 65.7436,0.8989 L 65.7296,0.8989 L 65.7156,0.8849 L 65.6876,0.8849 L 65.6735,0.8708 L 38.0562,0.8708 L 37.9721,0.8708 " stroke="#BFBFBF" stroke-width="0.1197" stroke-linecap="round" stroke-linejoin="round" fill="none"/>
        <ellipse cx="63.8730" cy="2.0717" rx="0.3993" ry="0.4003" fill="#000000" stroke="#000000" stroke-width="0.1197" stroke-linecap="round" stroke-linejoin="round"/>
        <ellipse cx="63.8730" cy="2.0717" rx="0.3993" ry="0.4003" fill="none" stroke="#161616" stroke-width="0.1197" stroke-linecap="round" stroke-linejoin="round"/>
        <ellipse cx="62.2687" cy="2.0717" rx="0.4063" ry="0.4003" fill="#000000" stroke="#000000" stroke-width="0.1197" stroke-linecap="round" stroke-linejoin="round"/>
        <ellipse cx="62.2687" cy="2.0717" rx="0.4063" ry="0.4003" fill="none" stroke="#161616" stroke-width="0.1197" stroke-linecap="round" stroke-linejoin="round"/>
        <ellipse cx="60.6363" cy="2.0717" rx="0.3993" ry="0.4003" fill="#000000" stroke="#000000" stroke-width="0.1197" stroke-linecap="round" stroke-linejoin="round"/>
        <ellipse cx="60.6363" cy="2.0717" rx="0.3993" ry="0.4003" fill="none" stroke="#161616" stroke-width="0.1197" stroke-linecap="round" stroke-linejoin="round"/>
        <ellipse cx="59.0249" cy="2.0717" rx="0.3993" ry="0.4003" fill="#000000" stroke="#000000" stroke-width="0.1197" stroke-linecap="round" stroke-linejoin="round"/>
        <ellipse cx="59.0249" cy="2.0717" rx="0.3993" ry="0.4003" fill="none" stroke="#161616" stroke-width="0.1197" stroke-linecap="round" stroke-linejoin="round"/>
        <ellipse cx="57.4066" cy="2.0717" rx="0.4063" ry="0.4003" fill="#000000" stroke="#000000" stroke-width="0.1197" stroke-linecap="round" stroke-linejoin="round"/>
        <ellipse cx="57.4066" cy="2.0717" rx="0.4063" ry="0.4003" fill="none" stroke="#161616" stroke-width="0.1197" stroke-linecap="round" stroke-linejoin="round"/>
        <ellipse cx="55.7882" cy="2.0717" rx="0.3993" ry="0.4003" fill="#000000" stroke="#000000" stroke-width="0.1197" stroke-linecap="round" stroke-linejoin="round"/>
        <ellipse cx="55.7882" cy="2.0717" rx="0.3993" ry="0.4003" fill="none" stroke="#161616" stroke-width="0.1197" stroke-linecap="round" stroke-linejoin="round"/>
        <ellipse cx="54.1698" cy="2.0717" rx="0.4063" ry="0.4003" fill="#000000" stroke="#000000" stroke-width="0.1197" stroke-linecap="round" stroke-linejoin="round"/>
        <ellipse cx="54.1698" cy="2.0717" rx="0.4063" ry="0.4003" fill="none" stroke="#161616" stroke-width="0.1197" stroke-linecap="round" stroke-linejoin="round"/>
        <ellipse cx="52.5514" cy="2.0717" rx="0.3993" ry="0.4003" fill="#000000" stroke="#000000" stroke-width="0.1197" stroke-linecap="round" stroke-linejoin="round"/>
        <ellipse cx="52.5514" cy="2.0717" rx="0.3993" ry="0.4003" fill="none" stroke="#161616" stroke-width="0.1197" stroke-linecap="round" stroke-linejoin="round"/>
        <ellipse cx="50.9471" cy="2.0717" rx="0.4063" ry="0.4003" fill="#000000" stroke="#000000" stroke-width="0.1197" stroke-linecap="round" stroke-linejoin="round"/>
        <ellipse cx="50.9471" cy="2.0717" rx="0.4063" ry="0.4003" fill="none" stroke="#161616" stroke-width="0.1197" stroke-linecap="round" stroke-linejoin="round"/>
        <ellipse cx="49.3217" cy="2.0717" rx="0.4063" ry="0.4003" fill="#000000" stroke="#000000" stroke-width="0.1197" stroke-linecap="round" stroke-linejoin="round"/>
        <ellipse cx="49.3217" cy="2.0717" rx="0.4063" ry="0.4003" fill="none" stroke="#161616" stroke-width="0.1197" stroke-linecap="round" stroke-linejoin="round"/>
        <ellipse cx="47.7033" cy="2.0717" rx="0.3993" ry="0.4003" fill="#000000" stroke="#000000" stroke-width="0.1197" stroke-linecap="round" stroke-linejoin="round"/>
        <ellipse cx="47.7033" cy="2.0717" rx="0.3993" ry="0.4003" fill="none" stroke="#161616" stroke-width="0.1197" stroke-linecap="round" stroke-linejoin="round"/>
        <ellipse cx="46.0850" cy="2.0717" rx="0.4063" ry="0.4003" fill="#000000" stroke="#000000" stroke-width="0.1197" stroke-linecap="round" stroke-linejoin="round"/>
        <ellipse cx="46.0850" cy="2.0717" rx="0.4063" ry="0.4003" fill="none" stroke="#161616" stroke-width="0.1197" stroke-linecap="round" stroke-linejoin="round"/>
        <ellipse cx="44.4666" cy="2.0717" rx="0.3993" ry="0.4003" fill="#000000" stroke="#000000" stroke-width="0.1197" stroke-linecap="round" stroke-linejoin="round"/>
        <ellipse cx="44.4666" cy="2.0717" rx="0.3993" ry="0.4003" fill="none" stroke="#161616" stroke-width="0.1197" stroke-linecap="round" stroke-linejoin="round"/>
        <ellipse cx="41.2299" cy="2.0717" rx="0.3993" ry="0.4003" fill="#000000" stroke="#000000" stroke-width="0.1197" stroke-linecap="round" stroke-linejoin="round"/>
        <ellipse cx="41.2299" cy="2.0717" rx="0.3993" ry="0.4003" fill="none" stroke="#161616" stroke-width="0.1197" stroke-linecap="round" stroke-linejoin="round"/>
        <ellipse cx="63.8730" cy="3.7641" rx="0.3993" ry="0.4073" fill="#000000" stroke="#000000" stroke-width="0.1197" stroke-linecap="round" stroke-linejoin="round"/>
        <ellipse cx="63.8730" cy="3.7641" rx="0.3993" ry="0.4073" fill="none" stroke="#161616" stroke-width="0.1197" stroke-linecap="round" stroke-linejoin="round"/>
        <ellipse cx="62.2687" cy="3.7641" rx="0.4063" ry="0.4073" fill="#000000" stroke="#000000" stroke-width="0.1197" stroke-linecap="round" stroke-linejoin="round"/>
        <ellipse cx="62.2687" cy="3.7641" rx="0.4063" ry="0.4073" fill="none" stroke="#161616" stroke-width="0.1197" stroke-linecap="round" stroke-linejoin="round"/>
        <ellipse cx="60.6363" cy="3.7641" rx="0.3993" ry="0.4073" fill="#000000" stroke="#000000" stroke-width="0.1197" stroke-linecap="round" stroke-linejoin="round"/>
        <ellipse cx="60.6363" cy="3.7641" rx="0.3993" ry="0.4073" fill="none" stroke="#161616" stroke-width="0.1197" stroke-linecap="round" stroke-linejoin="round"/>
        <ellipse cx="59.0249" cy="3.7641" rx="0.3993" ry="0.4073" fill="#000000" stroke="#000000" stroke-width="0.1197" stroke-linecap="round" stroke-linejoin="round"/>
        <ellipse cx="59.0249" cy="3.7641" rx="0.3993" ry="0.4073" fill="none" stroke="#161616" stroke-width="0.1197" stroke-linecap="round" stroke-linejoin="round"/>
        <ellipse cx="57.4066" cy="3.7641" rx="0.4063" ry="0.4073" fill="#000000" stroke="#000000" stroke-width="0.1197" stroke-linecap="round" stroke-linejoin="round"/>
        <ellipse cx="57.4066" cy="3.7641" rx="0.4063" ry="0.4073" fill="none" stroke="#161616" stroke-width="0.1197" stroke-linecap="round" stroke-linejoin="round"/>
        <ellipse cx="55.7882" cy="3.7641" rx="0.3993" ry="0.4073" fill="#000000" stroke="#000000" stroke-width="0.1197" stroke-linecap="round" stroke-linejoin="round"/>
        <ellipse cx="55.7882" cy="3.7641" rx="0.3993" ry="0.4073" fill="none" stroke="#161616" stroke-width="0.1197" stroke-linecap="round" stroke-linejoin="round"/>
        <ellipse cx="54.1698" cy="3.7641" rx="0.4063" ry="0.4073" fill="#000000" stroke="#000000" stroke-width="0.1197" stroke-linecap="round" stroke-linejoin="round"/>
        <ellipse cx="54.1698" cy="3.7641" rx="0.4063" ry="0.4073" fill="none" stroke="#161616" stroke-width="0.1197" stroke-linecap="round" stroke-linejoin="round"/>
        <ellipse cx="52.5514" cy="3.7641" rx="0.3993" ry="0.4073" fill="#000000" stroke="#000000" stroke-width="0.1197" stroke-linecap="round" stroke-linejoin="round"/>
        <ellipse cx="52.5514" cy="3.7641" rx="0.3993" ry="0.4073" fill="none" stroke="#161616" stroke-width="0.1197" stroke-linecap="round" stroke-linejoin="round"/>
        <ellipse cx="50.9471" cy="3.7641" rx="0.4063" ry="0.4073" fill="#000000" stroke="#000000" stroke-width="0.1197" stroke-linecap="round" stroke-linejoin="round"/>
        <ellipse cx="50.9471" cy="3.7641" rx="0.4063" ry="0.4073" fill="none" stroke="#161616" stroke-width="0.1197" stroke-linecap="round" stroke-linejoin="round"/>
        <ellipse cx="49.3217" cy="3.7641" rx="0.4063" ry="0.4073" fill="#000000" stroke="#000000" stroke-width="0.1197" stroke-linecap="round" stroke-linejoin="round"/>
        <ellipse cx="49.3217" cy="3.7641" rx="0.4063" ry="0.4073" fill="none" stroke="#161616" stroke-width="0.1197" stroke-linecap="round" stroke-linejoin="round"/>
        <ellipse cx="47.7033" cy="3.7641" rx="0.3993" ry="0.4073" fill="#000000" stroke="#000000" stroke-width="0.1197" stroke-linecap="round" stroke-linejoin="round"/>
        <ellipse cx="47.7033" cy="3.7641" rx="0.3993" ry="0.4073" fill="none" stroke="#161616" stroke-width="0.1197" stroke-linecap="round" stroke-linejoin="round"/>
        <ellipse cx="46.0850" cy="3.7641" rx="0.4063" ry="0.4073" fill="#000000" stroke="#000000" stroke-width="0.1197" stroke-linecap="round" stroke-linejoin="round"/>
        <ellipse cx="46.0850" cy="3.7641" rx="0.4063" ry="0.4073" fill="none" stroke="#161616" stroke-width="0.1197" stroke-linecap="round" stroke-linejoin="round"/>
        <ellipse cx="44.4666" cy="3.7641" rx="0.3993" ry="0.4073" fill="#000000" stroke="#000000" stroke-width="0.1197" stroke-linecap="round" stroke-linejoin="round"/>
        <ellipse cx="44.4666" cy="3.7641" rx="0.3993" ry="0.4073" fill="none" stroke="#161616" stroke-width="0.1197" stroke-linecap="round" stroke-linejoin="round"/>
        <ellipse cx="41.2299" cy="3.7641" rx="0.3993" ry="0.4073" fill="#000000" stroke="#000000" stroke-width="0.1197" stroke-linecap="round" stroke-linejoin="round"/>
        <ellipse cx="41.2299" cy="3.7641" rx="0.3993" ry="0.4073" fill="none" stroke="#161616" stroke-width="0.1197" stroke-linecap="round" stroke-linejoin="round"/>
        <ellipse cx="42.8482" cy="2.0717" rx="0.4063" ry="0.4003" fill="#000000" stroke="#000000" stroke-width="0.1197" stroke-linecap="round" stroke-linejoin="round"/>
        <ellipse cx="42.8482" cy="2.0717" rx="0.4063" ry="0.4003" fill="none" stroke="#161616" stroke-width="0.1197" stroke-linecap="round" stroke-linejoin="round"/>
        <ellipse cx="42.8482" cy="3.7641" rx="0.4063" ry="0.4073" fill="#000000" stroke="#000000" stroke-width="0.1197" stroke-linecap="round" stroke-linejoin="round"/>
        <ellipse cx="42.8482" cy="3.7641" rx="0.4063" ry="0.4073" fill="none" stroke="#161616" stroke-width="0.1197" stroke-linecap="round" stroke-linejoin="round"/>
        <ellipse cx="39.6535" cy="2.0717" rx="0.4063" ry="0.4003" fill="#000000" stroke="#000000" stroke-width="0.1197" stroke-linecap="round" stroke-linejoin="round"/>
        <ellipse cx="39.6535" cy="2.0717" rx="0.4063" ry="0.4003" fill="none" stroke="#161616" stroke-width="0.1197" stroke-linecap="round" stroke-linejoin="round"/>
        <ellipse cx="36.4168" cy="2.0717" rx="0.4063" ry="0.4003" fill="#000000" stroke="#000000" stroke-width="0.1197" stroke-linecap="round" stroke-linejoin="round"/>
        <ellipse cx="36.4168" cy="2.0717" rx="0.4063" ry="0.4003" fill="none" stroke="#161616" stroke-width="0.1197" stroke-linecap="round" stroke-linejoin="round"/>
        <ellipse cx="39.6535" cy="3.7641" rx="0.4063" ry="0.4073" fill="#000000" stroke="#000000" stroke-width="0.1197" stroke-linecap="round" stroke-linejoin="round"/>
        <ellipse cx="39.6535" cy="3.7641" rx="0.4063" ry="0.4073" fill="none" stroke="#161616" stroke-width="0.1197" stroke-linecap="round" stroke-linejoin="round"/>
        <ellipse cx="36.4168" cy="3.7641" rx="0.4063" ry="0.4073" fill="#000000" stroke="#000000" stroke-width="0.1197" stroke-linecap="round" stroke-linejoin="round"/>
        <ellipse cx="36.4168" cy="3.7641" rx="0.4063" ry="0.4073" fill="none" stroke="#161616" stroke-width="0.1197" stroke-linecap="round" stroke-linejoin="round"/>
        <ellipse cx="38.0212" cy="2.0717" rx="0.3993" ry="0.4003" fill="#000000" stroke="#000000" stroke-width="0.1197" stroke-linecap="round" stroke-linejoin="round"/>
        <ellipse cx="38.0212" cy="2.0717" rx="0.3993" ry="0.4003" fill="none" stroke="#161616" stroke-width="0.1197" stroke-linecap="round" stroke-linejoin="round"/>
        <ellipse cx="38.0212" cy="3.7641" rx="0.3993" ry="0.4073" fill="#000000" stroke="#000000" stroke-width="0.1197" stroke-linecap="round" stroke-linejoin="round"/>
        <ellipse cx="38.0212" cy="3.7641" rx="0.3993" ry="0.4073" fill="none" stroke="#161616" stroke-width="0.1197" stroke-linecap="round" stroke-linejoin="round"/>
        <path d="M 33.7125,1.7416 L 32.9559,1.7416 L 32.9559,2.5001 L 33.7125,2.5001 L 33.7125,1.7416 Z" stroke="#000000" stroke-width="0.1197" stroke-linecap="round" stroke-linejoin="round" fill="#00FF00"/>
        <path d="M 31.3025,1.7416 L 30.5458,1.7416 L 30.5458,2.5001 L 31.3025,2.5001 L 31.3025,1.7416 Z" stroke="#000000" stroke-width="0.1197" stroke-linecap="round" stroke-linejoin="round" fill="#00FF00"/>
        <path d="M 28.8924,1.7416 L 28.1358,1.7416 L 28.1358,2.5001 L 28.8924,2.5001 L 28.8924,1.7416 Z" stroke="#000000" stroke-width="0.1197" stroke-linecap="round" stroke-linejoin="round" fill="#00FF00"/>
        <path d="M 30.6019,3.0478 L 30.6299,3.0197 L 30.6439,3.0197 L 30.6719,2.9916 L 30.7000,2.9916 L 30.7140,2.9776 L 30.7560,2.9776 L 30.7700,2.9635 L 30.8121,2.9635 L 30.8401,2.9495 L 30.9662,2.9495 L 30.9942,2.9635 L 31.0363,2.9635 L 31.0643,2.9776 L 31.1063,2.9776 L 31.1203,2.9916 L 31.1343,2.9916 L 31.1624,3.0057 L 31.1764,3.0197 L 31.1904,3.0197 L 31.2184,3.0478 L 31.2184,3.6658 L 31.1904,3.6939 L 31.1764,3.6939 L 31.1624,3.7079 L 31.1343,3.7220 L 31.1203,3.7220 L 31.1063,3.7360 L 31.0643,3.7360 L 31.0363,3.7501 L 30.9942,3.7501 L 30.9662,3.7641 L 30.8401,3.7641 L 30.8121,3.7501 L 30.7700,3.7501 L 30.7560,3.7360 L 30.7140,3.7360 L 30.7000,3.7220 L 30.6719,3.7220 L 30.6439,3.6939 L 30.6299,3.6939 L 30.6019,3.6658 L 30.6019,3.0619 L 30.6019,3.0478 Z" stroke="#000000" stroke-width="0.1197" stroke-linecap="round" stroke-linejoin="round" fill="none"/>
        <path d="M 31.2184,3.0478 L 31.2044,3.0619 L 31.1904,3.0619 L 31.1624,3.0900 L 31.1343,3.0900 L 31.1203,3.1040 L 31.1063,3.1040 L 31.0783,3.1180 L 31.0222,3.1180 L 30.9942,3.1321 L 30.8121,3.1321 L 30.7980,3.1180 L 30.7280,3.1180 L 30.7140,3.1040 L 30.7000,3.1040 L 30.6719,3.0900 L 30.6579,3.0900 L 30.6299,3.0619 L 30.6159,3.0619 L 30.6019,3.0478 " stroke="#000000" stroke-width="0.1197" stroke-linecap="round" stroke-linejoin="round" fill="none"/>
        <path d="M 33.5023,3.1040 L 33.5163,3.1040 L 33.5163,3.1180 L 33.5304,3.1180 L 33.5444,3.1321 L 33.5584,3.1321 L 33.5584,3.1461 L 33.5724,3.1461 L 33.5724,3.1602 L 33.5864,3.1602 L 33.6004,3.1742 L 33.6004,3.1883 L 33.6144,3.1883 L 33.6144,3.2023 L 33.6284,3.2164 L 33.6284,3.2304 L 33.6425,3.2304 L 33.6425,3.2585 L 33.6565,3.2725 L 33.6565,3.2866 L 33.6705,3.3006 L 33.6705,3.3568 L 33.6845,3.3709 L 33.6845,3.4973 L 33.6705,3.5113 L 33.6705,3.5535 L 33.6565,3.5675 L 33.6565,3.5815 L 33.6425,3.5956 L 33.6425,3.6096 L 33.6144,3.6377 L 33.6144,3.6518 L 33.5304,3.7360 L 33.5163,3.7360 L 33.4883,3.7641 L 33.4743,3.7641 L 33.4603,3.7782 L 33.4463,3.7782 L 33.4323,3.7922 L 33.3902,3.7922 L 33.3762,3.8063 L 33.2641,3.8063 L 33.2501,3.7922 L 33.2081,3.7922 L 33.1941,3.7782 L 33.1801,3.7782 L 33.1661,3.7641 L 33.1520,3.7641 L 33.1240,3.7360 L 33.1100,3.7360 L 33.0259,3.6518 L 33.0259,3.6377 L 32.9979,3.6096 L 32.9979,3.5956 L 32.9839,3.5815 L 32.9839,3.5675 L 32.9699,3.5535 L 32.9699,3.5113 L 32.9559,3.4973 L 32.9559,3.3709 L 32.9699,3.3568 L 32.9699,3.3147 L 32.9839,3.3006 L 32.9839,3.2725 L 32.9979,3.2725 L 32.9979,3.2445 L 33.0259,3.2164 L 33.0259,3.2023 L 33.0680,3.1602 L 33.0680,3.1461 L 33.0820,3.1461 L 33.0820,3.1321 L 33.1100,3.1321 L 33.1100,3.1461 L 33.1240,3.1461 L 33.1240,3.1602 L 33.1380,3.1602 L 33.1380,3.1742 L 33.1380,3.1883 L 33.1240,3.1883 L 33.1240,3.2023 L 33.1100,3.2023 L 33.1100,3.2164 L 33.0960,3.2164 L 33.0960,3.2304 L 33.0820,3.2304 L 33.0820,3.2445 L 33.0540,3.2725 L 33.0540,3.2866 L 33.0399,3.3006 L 33.0399,3.3287 L 33.0259,3.3287 L 33.0259,3.3709 L 33.0119,3.3849 L 33.0119,3.4973 L 33.0259,3.5113 L 33.0259,3.5394 L 33.0399,3.5535 L 33.0399,3.5675 L 33.0540,3.5815 L 33.0540,3.5956 L 33.0680,3.6096 L 33.0680,3.6237 L 33.0820,3.6377 L 33.0960,3.6377 L 33.1100,3.6518 L 33.1100,3.6658 L 33.1240,3.6799 L 33.1380,3.6799 L 33.1661,3.7079 L 33.1801,3.7079 L 33.1941,3.7220 L 33.2081,3.7220 L 33.2081,3.7360 L 33.2501,3.7360 L 33.2641,3.7501 L 33.3762,3.7501 L 33.3902,3.7360 L 33.4323,3.7360 L 33.4603,3.7079 L 33.4743,3.7079 L 33.5023,3.6799 L 33.5163,3.6799 L 33.5444,3.6518 L 33.5444,3.6377 L 33.5584,3.6377 L 33.5724,3.6237 L 33.5724,3.6096 L 33.5864,3.5956 L 33.5864,3.5815 L 33.6004,3.5675 L 33.6004,3.5535 L 33.6144,3.5394 L 33.6144,3.5113 L 33.6284,3.4973 L 33.6284,3.3849 L 33.6144,3.3849 L 33.6144,3.3428 L 33.6004,3.3287 L 33.6004,3.3147 L 33.5864,3.3006 L 33.5864,3.2866 L 33.5724,3.2725 L 33.5724,3.2585 L 33.5584,3.2585 L 33.5584,3.2445 L 33.5444,3.2445 L 33.5444,3.2304 L 33.5304,3.2304 L 33.5304,3.2164 L 33.5163,3.2164 L 33.5163,3.2023 L 33.5023,3.2023 L 33.5023,3.1883 L 33.4743,3.1883 L 33.4743,3.1742 L 33.4603,3.1742 L 33.4603,3.1602 L 33.4743,3.1602 L 33.4743,3.1461 L 33.4883,3.1461 L 33.4883,3.1180 L 33.5023,3.1180 L 33.5023,3.1040 Z" stroke="#000000" stroke-width="0.1197" stroke-linecap="round" stroke-linejoin="round" fill="#000000"/>
        <path d="M 33.3622,2.9074 L 33.2641,2.9074 L 33.2641,3.4411 L 33.3622,3.4411 L 33.3622,2.9074 Z" stroke="#000000" stroke-width="0.1197" stroke-linecap="round" stroke-linejoin="round" fill="#000000"/>
        <path d="M 97.2563,0.8849 L 97.2843,0.8849 L 97.2983,0.8989 L 97.3263,0.8989 L 97.3403,0.9129 L 97.3543,0.9129 L 97.3543,0.9270 L 97.3684,0.9270 L 97.4524,1.0113 L 97.4524,1.0253 L 97.5085,1.0815 L 97.5085,1.1096 L 97.5225,1.1236 L 97.5225,1.1517 L 97.5365,1.1658 L 97.5365,11.2503 L 97.5225,11.2643 L 97.5225,11.2924 L 97.5085,11.3064 L 97.5085,11.3345 L 97.4524,11.3907 L 97.4524,11.4048 L 97.3684,11.4890 L 97.3543,11.4890 L 97.3543,11.5031 L 97.3403,11.5031 L 97.3263,11.5171 L 97.2983,11.5171 L 97.2843,11.5312 L 67.4110,11.5312 L 67.3970,11.5171 L 67.3690,11.5171 L 67.3410,11.4890 L 67.3269,11.4890 L 67.2429,11.4048 L 67.2429,11.3907 L 67.1868,11.3345 L 67.1868,11.3064 L 67.1728,11.2924 L 67.1728,11.2643 L 67.1588,11.2503 L 67.1588,1.1658 L 67.1728,1.1517 L 67.1728,1.1236 L 67.1868,1.1096 L 67.1868,1.0815 L 67.2429,1.0253 L 67.2429,1.0113 L 67.3269,0.9270 L 67.3410,0.9270 L 67.3690,0.8989 L 67.3970,0.8989 L 67.4110,0.8849 L 97.1722,0.8849 L 97.2563,0.8849 Z" stroke="#000000" stroke-width="0.1197" stroke-linecap="round" stroke-linejoin="round" fill="#494949"/>
        <path d="M 128.8530,0.8849 L 128.8810,0.8849 L 128.8950,0.8989 L 128.9230,0.8989 L 128.9371,0.9129 L 128.9511,0.9129 L 128.9511,0.9270 L 128.9651,0.9270 L 129.0492,1.0113 L 129.0492,1.0253 L 129.1052,1.0815 L 129.1052,1.1096 L 129.1192,1.1236 L 129.1192,1.1517 L 129.1332,1.1658 L 129.1332,11.2503 L 129.1192,11.2643 L 129.1192,11.2924 L 129.1052,11.3064 L 129.1052,11.3345 L 129.0492,11.3907 L 129.0492,11.4048 L 128.9651,11.4890 L 128.9511,11.4890 L 128.9511,11.5031 L 128.9371,11.5031 L 128.9230,11.5171 L 128.8950,11.5171 L 128.8810,11.5312 L 99.0077,11.5312 L 98.9937,11.5171 L 98.9657,11.5171 L 98.9377,11.4890 L 98.9237,11.4890 L 98.8396,11.4048 L 98.8396,11.3907 L 98.7836,11.3345 L 98.7836,11.3064 L 98.7695,11.2924 L 98.7695,11.2643 L 98.7555,11.2503 L 98.7555,1.1658 L 98.7695,1.1517 L 98.7695,1.1236 L 98.7836,1.1096 L 98.7836,1.0815 L 98.8396,1.0253 L 98.8396,1.0113 L 98.9237,0.9270 L 98.9377,0.9270 L 98.9657,0.8989 L 98.9937,0.8989 L 99.0077,0.8849 L 128.7689,0.8849 L 128.8530,0.8849 Z" stroke="#000000" stroke-width="0.1197" stroke-linecap="round" stroke-linejoin="round" fill="#494949"/>
        <ellipse cx="28.4371" cy="3.2936" rx="0.3293" ry="0.3301" fill="none" stroke="#000000" stroke-width="0.1197" stroke-linecap="round" stroke-linejoin="round"/>
        <path d="M 28.1078,3.3147 L 28.2899,3.3147 L 28.5001,3.7360 L 28.7103,3.3147 L 28.8924,3.3147 " stroke="#000000" stroke-width="0.1197" stroke-linecap="round" stroke-linejoin="round" fill="none"/>
        <path d="M 67.1448,0.8849 L 65.9258,0.8849 L 65.9258,11.5312 L 67.1448,11.5312 L 67.1448,0.8849 Z" stroke="#000000" stroke-width="0.1197" stroke-linecap="round" stroke-linejoin="round" fill="#A5A5A5"/>
        <path d="M 66.7104,0.8849 L 66.3461,0.8849 L 66.3461,11.5312 L 66.7104,11.5312 L 66.7104,0.8849 Z" stroke="#7F7F7F" stroke-width="0.1197" stroke-linecap="round" stroke-linejoin="round" fill="#7F7F7F"/>
        <path d="M 98.7555,0.8849 L 97.5365,0.8849 L 97.5365,11.5312 L 98.7555,11.5312 L 98.7555,0.8849 Z" stroke="#000000" stroke-width="0.1197" stroke-linecap="round" stroke-linejoin="round" fill="#A5A5A5"/>
        <path d="M 98.3212,0.8849 L 97.9569,0.8849 L 97.9569,11.5312 L 98.3212,11.5312 L 98.3212,0.8849 Z" stroke="#7F7F7F" stroke-width="0.1197" stroke-linecap="round" stroke-linejoin="round" fill="#7F7F7F"/>
        <path d="M 10.3362,3.0829 L 10.3175,3.0829 L 10.3082,3.0742 L 10.2989,3.0742 L 10.2710,3.0482 L 10.2710,3.0396 L 10.2617,3.0309 L 10.2617,2.0264 L 10.2710,2.0177 L 10.2710,2.0091 L 10.2803,2.0004 L 10.2896,2.0004 L 10.2896,1.9917 L 10.2989,1.9831 L 10.3082,1.9831 L 10.3175,1.9744 L 11.5839,1.9744 L 11.5933,1.9831 L 11.6026,1.9831 L 11.6305,2.0091 L 11.6305,2.0177 L 11.6398,2.0264 L 11.6398,2.2256 L 11.6305,2.2256 L 11.6305,2.2169 L 11.6212,2.2169 L 11.6212,2.2082 L 11.6119,2.2082 L 11.6119,2.1996 L 11.5933,2.1996 L 11.5933,2.1909 L 10.5689,2.1909 L 10.5689,2.1996 L 10.5503,2.1996 L 10.5503,2.2082 L 10.5410,2.2082 L 10.5410,2.2256 L 10.5317,2.2256 L 10.5317,3.0482 L 10.5410,3.0482 L 10.5410,3.0656 L 10.5503,3.0656 L 10.5503,3.0742 L 10.5596,3.0742 L 10.5596,3.0829 L 10.3455,3.0829 L 10.3362,3.0829 Z" stroke="#000000" stroke-width="0.1197" stroke-linecap="round" stroke-linejoin="round" fill="#000000"/>
        <path d="M 11.5467,2.4421 L 10.6248,2.4421 L 10.6248,2.4334 L 10.6062,2.4334 L 10.6062,2.4247 L 10.5969,2.4247 L 10.5969,2.4074 L 10.5876,2.4074 L 10.5876,2.6239 L 10.5969,2.6239 L 10.5969,2.6412 L 10.6062,2.6412 L 10.6062,2.6499 L 10.6248,2.6499 L 10.6248,2.6586 L 11.5653,2.6586 L 11.5839,2.6412 L 11.5933,2.6412 L 11.6119,2.6239 L 11.6119,2.6153 L 11.6212,2.6066 L 11.6212,2.5979 L 11.6305,2.5893 L 11.6305,2.5720 L 11.6398,2.5633 L 11.6398,2.5373 L 11.6305,2.5287 L 11.6305,2.5027 L 11.6119,2.4854 L 11.6119,2.4767 L 11.6026,2.4680 L 11.5933,2.4680 L 11.5933,2.4594 L 11.5839,2.4594 L 11.5746,2.4507 L 11.5653,2.4507 L 11.5560,2.4421 L 11.5467,2.4421 Z" stroke="#000000" stroke-width="0.1197" stroke-linecap="round" stroke-linejoin="round" fill="#000000"/>
        <path d="M 13.6977,2.6586 L 13.6791,2.6586 L 13.6791,2.6499 L 13.6605,2.6499 L 13.6605,2.6412 L 13.6512,2.6412 L 13.6512,2.6239 L 13.6419,2.6239 L 13.6419,2.4074 L 13.6512,2.4074 L 13.6512,2.4247 L 13.6605,2.4247 L 13.6605,2.4334 L 13.6791,2.4334 L 13.6791,2.4421 L 14.4241,2.4421 L 14.4241,2.1909 L 13.6232,2.1909 L 13.6232,2.1996 L 13.6046,2.1996 L 13.6046,2.2082 L 13.5953,2.2082 L 13.5953,2.2256 L 13.5860,2.2256 L 13.5860,3.0482 L 13.5953,3.0482 L 13.5953,3.0656 L 13.6046,3.0656 L 13.6046,3.0742 L 13.6139,3.0742 L 13.6139,3.0829 L 13.3718,3.0829 L 13.3625,3.0742 L 13.3532,3.0742 L 13.3253,3.0482 L 13.3253,3.0396 L 13.3159,3.0309 L 13.3159,2.0264 L 13.3253,2.0177 L 13.3253,2.0091 L 13.3346,2.0004 L 13.3439,2.0004 L 13.3439,1.9917 L 13.3532,1.9831 L 13.3625,1.9831 L 13.3718,1.9744 L 14.6382,1.9744 L 14.6475,1.9831 L 14.6569,1.9831 L 14.6848,2.0091 L 14.6848,2.0177 L 14.6941,2.0264 L 14.6941,2.5720 L 14.6848,2.5806 L 14.6848,2.5979 L 14.6755,2.5979 L 14.6755,2.6066 L 14.6662,2.6153 L 14.6662,2.6239 L 14.6569,2.6239 L 14.6569,2.6326 L 14.6475,2.6326 L 14.6475,2.6412 L 14.6382,2.6412 L 14.6382,2.6499 L 14.6289,2.6499 L 14.6196,2.6586 L 14.6289,2.6672 L 14.6382,2.6672 L 14.6382,2.6759 L 14.6475,2.6759 L 14.6475,2.6845 L 14.6569,2.6845 L 14.6569,2.6932 L 14.6662,2.6932 L 14.6662,2.7019 L 14.6755,2.7105 L 14.6755,2.7192 L 14.6848,2.7192 L 14.6848,2.7365 L 14.6941,2.7451 L 14.6941,3.0482 L 14.7034,3.0482 L 14.7034,3.0656 L 14.7127,3.0656 L 14.7127,3.0742 L 14.7220,3.0742 L 14.7220,3.0829 L 14.4799,3.0829 L 14.4706,3.0742 L 14.4613,3.0742 L 14.4334,3.0482 L 14.4334,3.0396 L 14.4241,3.0309 L 14.4241,2.6586 L 13.7070,2.6586 L 13.6977,2.6586 Z" stroke="#000000" stroke-width="0.1197" stroke-linecap="round" stroke-linejoin="round" fill="#000000"/>
        <path d="M 15.1783,2.1909 L 14.8990,2.1909 L 14.8896,2.1823 L 14.8803,2.1823 L 14.8524,2.1563 L 14.8524,2.1476 L 14.8431,2.1390 L 14.8431,2.0264 L 14.8524,2.0177 L 14.8524,2.0091 L 14.8617,2.0004 L 14.8710,2.0004 L 14.8710,1.9917 L 14.8803,1.9831 L 14.8896,1.9831 L 14.8990,1.9744 L 16.1654,1.9744 L 16.1747,1.9831 L 16.1840,1.9831 L 16.2119,2.0091 L 16.2119,2.0177 L 16.2212,2.0264 L 16.2212,2.2256 L 16.2119,2.2256 L 16.2119,2.2169 L 16.2026,2.2169 L 16.2026,2.2082 L 16.1933,2.2082 L 16.1933,2.1996 L 16.1747,2.1996 L 16.1747,2.1909 L 15.4856,2.1909 L 15.4856,2.1996 L 15.4670,2.1996 L 15.4670,2.2082 L 15.4577,2.2082 L 15.4577,2.2256 L 15.4484,2.2256 L 15.4484,3.0482 L 15.4577,3.0482 L 15.4577,3.0656 L 15.4670,3.0656 L 15.4670,3.0742 L 15.4763,3.0742 L 15.4763,3.0829 L 15.2342,3.0829 L 15.2249,3.0742 L 15.2156,3.0742 L 15.1876,3.0482 L 15.1876,3.0396 L 15.1783,3.0309 L 15.1783,2.2169 L 15.1783,2.1909 Z" stroke="#000000" stroke-width="0.1197" stroke-linecap="round" stroke-linejoin="round" fill="#000000"/>
        <path d="M 16.6403,3.0223 L 16.6403,3.0482 L 16.6496,3.0482 L 16.6496,3.0656 L 16.6589,3.0656 L 16.6589,3.0742 L 16.6682,3.0742 L 16.6682,3.0829 L 16.4261,3.0829 L 16.4168,3.0742 L 16.4075,3.0742 L 16.3795,3.0482 L 16.3795,3.0396 L 16.3702,3.0309 L 16.3702,2.0091 L 16.3609,2.0091 L 16.3609,1.9917 L 16.3516,1.9917 L 16.3516,1.9831 L 16.3423,1.9831 L 16.3423,1.9744 L 16.5844,1.9744 L 16.5937,1.9831 L 16.6030,1.9831 L 16.6310,2.0091 L 16.6310,2.0177 L 16.6403,2.0264 L 16.6403,3.0136 L 16.6403,3.0223 Z" stroke="#000000" stroke-width="0.1197" stroke-linecap="round" stroke-linejoin="round" fill="#000000"/>
        <path d="M 17.9626,2.1909 L 17.1617,2.1909 L 17.1617,2.1996 L 17.1431,2.1996 L 17.1431,2.2082 L 17.1338,2.2082 L 17.1338,2.2256 L 17.1245,2.2256 L 17.1245,3.0482 L 17.1338,3.0482 L 17.1338,3.0656 L 17.1431,3.0656 L 17.1431,3.0742 L 17.1524,3.0742 L 17.1524,3.0829 L 16.9103,3.0829 L 16.9010,3.0742 L 16.8917,3.0742 L 16.8638,3.0482 L 16.8638,3.0396 L 16.8544,3.0309 L 16.8544,2.0264 L 16.8638,2.0177 L 16.8638,2.0091 L 16.8731,2.0004 L 16.8824,2.0004 L 16.8824,1.9917 L 16.8917,1.9831 L 16.9010,1.9831 L 16.9103,1.9744 L 18.1767,1.9744 L 18.1860,1.9831 L 18.1954,1.9831 L 18.2233,2.0091 L 18.2233,2.0177 L 18.2326,2.0264 L 18.2326,3.0482 L 18.2419,3.0482 L 18.2419,3.0656 L 18.2512,3.0656 L 18.2512,3.0742 L 18.2605,3.0742 L 18.2605,3.0829 L 18.0184,3.0829 L 18.0091,3.0742 L 17.9998,3.0742 L 17.9719,3.0482 L 17.9719,3.0396 L 17.9626,3.0309 L 17.9626,2.2169 L 17.9626,2.1909 Z" stroke="#000000" stroke-width="0.1197" stroke-linecap="round" stroke-linejoin="round" fill="#000000"/>
        <path d="M 19.6014,2.4421 L 18.7448,2.4421 L 18.7354,2.4334 L 18.7261,2.4334 L 18.7261,2.4247 L 18.7168,2.4247 L 18.7168,2.4074 L 18.7075,2.4074 L 18.7075,2.6239 L 18.7168,2.6239 L 18.7168,2.6412 L 18.7261,2.6412 L 18.7261,2.6499 L 18.7354,2.6499 L 18.7448,2.6586 L 19.6108,2.6586 L 19.6294,2.6412 L 19.6387,2.6412 L 19.6573,2.6239 L 19.6573,2.6153 L 19.6666,2.6066 L 19.6666,2.5979 L 19.6759,2.5893 L 19.6759,2.5720 L 19.6852,2.5633 L 19.6852,2.5287 L 19.6759,2.5200 L 19.6759,2.4940 L 19.6666,2.4940 L 19.6666,2.4854 L 19.6387,2.4594 L 19.6294,2.4594 L 19.6294,2.4507 L 19.6201,2.4507 L 19.6108,2.4421 L 19.6014,2.4421 Z" stroke="#000000" stroke-width="0.1197" stroke-linecap="round" stroke-linejoin="round" fill="#000000"/>
        <path d="M 20.2440,2.1909 L 19.9646,2.1909 L 19.9553,2.1823 L 19.9460,2.1823 L 19.9180,2.1563 L 19.9180,2.1476 L 19.9087,2.1390 L 19.9087,2.0264 L 19.9180,2.0177 L 19.9180,2.0091 L 19.9274,2.0004 L 19.9367,2.0004 L 19.9367,1.9917 L 19.9460,1.9831 L 19.9553,1.9831 L 19.9646,1.9744 L 21.2310,1.9744 L 21.2403,1.9831 L 21.2496,1.9831 L 21.2776,2.0091 L 21.2776,2.0177 L 21.2869,2.0264 L 21.2869,2.2256 L 21.2776,2.2256 L 21.2776,2.2169 L 21.2683,2.2169 L 21.2683,2.2082 L 21.2590,2.2082 L 21.2590,2.1996 L 21.2403,2.1996 L 21.2403,2.1909 L 20.5513,2.1909 L 20.5513,2.1996 L 20.5326,2.1996 L 20.5326,2.2082 L 20.5233,2.2082 L 20.5233,2.2256 L 20.5140,2.2256 L 20.5140,3.0482 L 20.5233,3.0482 L 20.5233,3.0656 L 20.5326,3.0656 L 20.5326,3.0742 L 20.5419,3.0742 L 20.5419,3.0829 L 20.2998,3.0829 L 20.2905,3.0742 L 20.2812,3.0742 L 20.2533,3.0482 L 20.2533,3.0396 L 20.2440,3.0309 L 20.2440,2.2169 L 20.2440,2.1909 Z" stroke="#000000" stroke-width="0.1197" stroke-linecap="round" stroke-linejoin="round" fill="#000000"/>
        <path d="M 19.6946,2.8664 L 19.7132,2.8664 L 19.7132,2.8577 L 19.7318,2.8577 L 19.7318,2.8491 L 19.7411,2.8491 L 19.7411,2.8404 L 19.7504,2.8404 L 19.7504,2.8317 L 19.7597,2.8317 L 19.7597,3.0309 L 19.7504,3.0396 L 19.7504,3.0482 L 19.7411,3.0569 L 19.7411,3.0656 L 19.7318,3.0656 L 19.7225,3.0742 L 19.7132,3.0742 L 19.7039,3.0829 L 18.4375,3.0829 L 18.4281,3.0742 L 18.4188,3.0742 L 18.3909,3.0482 L 18.3909,3.0396 L 18.3816,3.0309 L 18.3816,2.0264 L 18.3909,2.0177 L 18.3909,2.0091 L 18.4002,2.0004 L 18.4095,2.0004 L 18.4095,1.9917 L 18.4188,1.9831 L 18.4281,1.9831 L 18.4375,1.9744 L 19.7039,1.9744 L 19.7132,1.9831 L 19.7225,1.9831 L 19.7504,2.0091 L 19.7504,2.0177 L 19.7597,2.0264 L 19.7597,2.2256 L 19.7504,2.2256 L 19.7504,2.2169 L 19.7411,2.2169 L 19.7411,2.2082 L 19.7318,2.2082 L 19.7318,2.1996 L 19.7132,2.1996 L 19.7132,2.1909 L 18.6889,2.1909 L 18.6889,2.1996 L 18.6703,2.1996 L 18.6703,2.2082 L 18.6609,2.2082 L 18.6609,2.2256 L 18.6516,2.2256 L 18.6516,2.8664 L 19.6852,2.8664 L 19.6946,2.8664 Z" stroke="#000000" stroke-width="0.1197" stroke-linecap="round" stroke-linejoin="round" fill="#000000"/>
        <path d="M 12.2544,2.7625 L 12.2544,3.0829 L 12.7014,3.0829 L 12.7014,2.7625 L 12.2544,2.7625 Z" stroke="#ED3440" stroke-width="0.1197" stroke-linecap="round" stroke-linejoin="round" fill="#ED3440"/>
        <path d="M 11.7888,2.3728 L 12.1706,2.3728 L 12.1706,2.6845 L 11.7888,2.6845 L 11.7888,2.3728 Z" stroke="#ED3440" stroke-width="0.1197" stroke-linecap="round" stroke-linejoin="round" fill="#ED3440"/>
        <path d="M 12.7852,2.7625 L 12.7852,3.0829 L 12.9248,3.0829 L 12.9342,3.0742 L 12.9714,3.0742 L 12.9807,3.0656 L 12.9993,3.0656 L 13.0180,3.0569 L 13.0273,3.0482 L 13.0459,3.0396 L 13.0645,3.0223 L 13.0831,3.0136 L 13.0925,3.0049 L 13.1018,2.9876 L 13.1111,2.9790 L 13.1483,2.9097 L 13.1483,2.8924 L 13.1576,2.8664 L 13.1576,2.8404 L 13.1670,2.8144 L 13.1670,2.7625 L 12.7945,2.7625 L 12.7852,2.7625 Z" stroke="#ED3440" stroke-width="0.1197" stroke-linecap="round" stroke-linejoin="round" fill="#ED3440"/>
        <path d="M 12.7852,2.3728 L 13.1670,2.3728 L 13.1670,2.6845 L 12.7852,2.6845 L 12.7852,2.3728 Z" stroke="#ED3440" stroke-width="0.1197" stroke-linecap="round" stroke-linejoin="round" fill="#ED3440"/>
        <path d="M 12.1706,2.7625 L 12.1706,3.0829 L 12.0309,3.0829 L 12.0216,3.0742 L 11.9843,3.0742 L 11.9750,3.0656 L 11.9564,3.0656 L 11.9378,3.0569 L 11.9285,3.0482 L 11.9099,3.0396 L 11.8912,3.0223 L 11.8726,3.0136 L 11.8633,3.0049 L 11.8540,2.9876 L 11.8447,2.9790 L 11.8074,2.9097 L 11.8074,2.8924 L 11.7981,2.8664 L 11.7981,2.8404 L 11.7888,2.8144 L 11.7888,2.7625 L 12.1613,2.7625 L 12.1706,2.7625 Z" stroke="#ED3440" stroke-width="0.1197" stroke-linecap="round" stroke-linejoin="round" fill="#ED3440"/>
        <path d="M 12.2544,1.9744 L 12.2544,2.2948 L 12.7014,2.2948 L 12.7014,1.9744 L 12.2544,1.9744 Z" stroke="#ED3440" stroke-width="0.1197" stroke-linecap="round" stroke-linejoin="round" fill="#ED3440"/>
        <path d="M 12.7852,2.2948 L 12.7852,1.9744 L 12.9248,1.9744 L 12.9342,1.9831 L 12.9714,1.9831 L 12.9807,1.9917 L 12.9993,1.9917 L 13.0180,2.0004 L 13.0273,2.0091 L 13.0459,2.0177 L 13.0645,2.0350 L 13.0831,2.0437 L 13.0925,2.0524 L 13.1018,2.0697 L 13.1111,2.0783 L 13.1483,2.1476 L 13.1483,2.1649 L 13.1576,2.1909 L 13.1576,2.2169 L 13.1670,2.2429 L 13.1670,2.2948 L 12.7945,2.2948 L 12.7852,2.2948 Z" stroke="#ED3440" stroke-width="0.1197" stroke-linecap="round" stroke-linejoin="round" fill="#ED3440"/>
        <path d="M 12.1706,2.2948 L 12.1706,1.9744 L 12.0309,1.9744 L 12.0216,1.9831 L 11.9843,1.9831 L 11.9750,1.9917 L 11.9564,1.9917 L 11.9378,2.0004 L 11.9285,2.0091 L 11.9099,2.0177 L 11.8912,2.0350 L 11.8726,2.0437 L 11.8633,2.0524 L 11.8540,2.0697 L 11.8447,2.0783 L 11.8074,2.1476 L 11.8074,2.1649 L 11.7981,2.1909 L 11.7981,2.2169 L 11.7888,2.2429 L 11.7888,2.2948 L 12.1613,2.2948 L 12.1706,2.2948 Z" stroke="#ED3440" stroke-width="0.1197" stroke-linecap="round" stroke-linejoin="round" fill="#ED3440"/>
        <text font-family="Arial" fill="#000000" style="white-space:pre;" font-weight="400" text-anchor="start" x="16.9383" y="3.6857" font-size="0.1117"><![CDATA[CONSOLE]]></text>
        <path d="M 43.5927,5.5763 L 39.1270,5.5763 L 39.1270,9.1604 L 43.5927,9.1604 L 43.5927,5.5763 Z" stroke="#0A0A0A" stroke-width="0.1197" stroke-linecap="round" stroke-linejoin="round" fill="#FFFFFF"/>
        <text font-family="Arial" fill="#000000" style="white-space:pre;" font-weight="400" text-anchor="start" x="46.9844" y="7.5402" font-size="0.1131"><![CDATA[1]]></text>
        <text font-family="Arial" fill="#000000" style="white-space:pre;" font-weight="400" text-anchor="start" x="47.8418" y="7.5402" font-size="0.1131"><![CDATA[3]]></text>
        <text font-family="Arial" fill="#000000" style="white-space:pre;" font-weight="400" text-anchor="start" x="48.6991" y="7.5402" font-size="0.1131"><![CDATA[3]]></text>
        <text font-family="Arial" fill="#000000" style="white-space:pre;" font-weight="400" text-anchor="start" x="49.5564" y="7.5402" font-size="0.1131"><![CDATA[4]]></text>
        <path d="M 48.6991,5.5763 L 44.2334,5.5763 L 44.2334,9.1604 L 48.6991,9.1604 L 48.6991,5.5763 Z" stroke="#0A0A0A" stroke-width="0.1197" stroke-linecap="round" stroke-linejoin="round" fill="#FFFFFF"/>
        <path d="M 53.7961,5.5763 L 49.3303,5.5763 L 49.3303,9.1604 L 53.7961,9.1604 L 53.7961,5.5763 Z" stroke="#0A0A0A" stroke-width="0.1197" stroke-linecap="round" stroke-linejoin="round" fill="#FFFFFF"/>
        <path d="M 58.8930,5.5763 L 54.4273,5.5763 L 54.4273,9.1604 L 58.8930,9.1604 L 58.8930,5.5763 Z" stroke="#0A0A0A" stroke-width="0.1197" stroke-linecap="round" stroke-linejoin="round" fill="#FFFFFF"/>
        <path d="M 63.9994,5.5763 L 59.5337,5.5763 L 59.5337,9.1604 L 63.9994,9.1604 L 63.9994,5.5763 Z" stroke="#0A0A0A" stroke-width="0.1197" stroke-linecap="round" stroke-linejoin="round" fill="#FFFFFF"/>
        <text font-family="Arial" fill="#000000" style="white-space:pre;" font-weight="400" text-anchor="start" x="64.1690" y="6.9996" font-size="0.1131"><![CDATA[USB MGMT]]></text>
        <text font-family="Arial" fill="#000000" style="white-space:pre;" font-weight="700" text-anchor="start" x="63.1232" y="6.2664" font-size="0.0659"><![CDATA[®]]></text>
        <path d="M 30.5246,7.8831 L 27.1329,7.8831 L 27.1329,11.0082 L 30.5246,11.0082 L 30.5246,7.8831 Z" stroke="#000000" stroke-width="0.1197" stroke-linecap="round" stroke-linejoin="round" fill="#494949"/>
        <path d="M 30.4408,7.9676 L 27.2167,7.9676 L 27.2167,10.9379 L 30.4408,10.9379 L 30.4408,7.9676 Z" stroke="#494949" stroke-width="0.1197" stroke-linecap="round" stroke-linejoin="round" fill="#7F7F7F"/>
        <path d="M 28.1100,8.3336 L 27.5656,8.8967 L 27.5656,10.5578 L 30.1198,10.5578 L 30.1198,8.8826 L 29.5894,8.3336 L 28.1100,8.3336 Z" stroke="#000000" stroke-width="0.1197" stroke-linecap="round" stroke-linejoin="round" fill="#161616"/>
        <path d="M 29.5336,9.8117 L 28.1100,9.8117 L 28.1100,9.1501 L 29.5336,9.1501 L 29.5336,9.8117 Z" stroke="#000000" stroke-width="0.1197" stroke-linecap="round" stroke-linejoin="round" fill="#494949"/>
        <path d="M 29.4498,9.3472 L 29.4359,9.3049 L 29.4219,9.2768 L 29.3801,9.2486 L 29.3382,9.2345 L 28.3054,9.2345 L 28.2635,9.2486 L 28.2077,9.3049 L 28.1937,9.3472 L 28.1937,9.6005 L 28.2077,9.6428 L 28.2356,9.6850 L 28.2635,9.6991 L 28.3054,9.7132 L 29.3382,9.7132 L 29.4219,9.6850 L 29.4498,9.6005 L 29.4498,9.3472 Z" stroke="#494949" stroke-width="0.1197" stroke-linecap="round" stroke-linejoin="round" fill="#666666"/>
        <path d="M 29.2126,9.9102 L 29.0451,9.9102 L 29.0451,9.8117 L 29.2126,9.8117 L 29.2126,9.9102 Z" stroke="#000000" stroke-width="0.1197" stroke-linecap="round" stroke-linejoin="round" fill="#D1CFAD"/>
        <path d="M 28.6124,9.9102 L 28.4449,9.9102 L 28.4449,9.8117 L 28.6124,9.8117 L 28.6124,9.9102 Z" stroke="#000000" stroke-width="0.1197" stroke-linecap="round" stroke-linejoin="round" fill="#D1CFAD"/>
        <path d="M 29.2126,9.1501 L 29.0451,9.1501 L 29.0451,9.0515 L 29.2126,9.0515 L 29.2126,9.1501 Z" stroke="#000000" stroke-width="0.1197" stroke-linecap="round" stroke-linejoin="round" fill="#D1CFAD"/>
        <path d="M 28.6124,9.1501 L 28.4449,9.1501 L 28.4449,9.0515 L 28.6124,9.0515 L 28.6124,9.1501 Z" stroke="#000000" stroke-width="0.1197" stroke-linecap="round" stroke-linejoin="round" fill="#D1CFAD"/>
        <path d="M 39.5764,8.7559 L 39.5764,7.9113 L 39.7015,7.9113 L 39.7015,7.1230 L 39.5764,7.1230 L 39.5764,6.4191 L 40.2021,6.4191 L 40.2021,6.0250 L 40.5081,6.0250 L 40.5081,5.5745 L 42.1907,5.5745 L 42.1907,6.0250 L 42.4966,6.0250 L 42.4966,6.4191 L 43.1363,6.4191 L 43.1363,7.1230 L 42.9972,7.1230 L 42.9972,7.9113 L 43.1363,7.9113 L 43.1363,8.7559 L 39.5764,8.7559 Z" stroke="#000000" stroke-width="0.1197" stroke-linecap="round" stroke-linejoin="round" fill="#000000"/>
        <path d="M 47.1175,5.5693 L 47.1175,5.7221 L 47.3418,5.7221 L 47.3418,6.1526 L 48.2808,6.1526 L 48.2808,6.1943 L 48.5751,6.1943 L 48.5751,5.7221 L 48.5190,5.7221 L 48.5190,6.1526 L 48.2808,6.1526 L 48.2808,7.1109 L 48.1827,7.1109 L 48.1827,7.6109 L 48.2808,7.6109 L 48.2808,8.6942 L 44.6930,8.6942 L 44.6930,7.6109 L 44.7911,7.6109 L 44.7911,7.1109 L 44.6930,7.1109 L 44.6930,6.1526 L 44.4547,6.1526 L 44.4547,5.7221 L 44.3987,5.7221 L 44.3987,6.1943 L 44.6930,6.1943 L 44.6930,6.1526 L 45.6320,6.1526 L 45.6320,5.7221 L 45.8562,5.7221 L 45.8562,5.5693 L 47.1175,5.5693 Z" stroke="#000000" stroke-width="0.1197" stroke-linecap="round" stroke-linejoin="round" fill="#000000"/>
        <path d="M 47.3418,6.1526 L 48.5190,6.1526 L 48.5190,5.7221 L 47.3418,5.7221 L 47.3418,6.1526 Z" stroke="#494949" stroke-width="0.1197" stroke-linecap="round" stroke-linejoin="round" fill="#000000"/>
        <path d="M 44.4547,6.1526 L 45.6320,6.1526 L 45.6320,5.7221 L 44.4547,5.7221 L 44.4547,6.1526 Z" stroke="#494949" stroke-width="0.1197" stroke-linecap="round" stroke-linejoin="round" fill="#000000"/>
        <path d="M 52.2189,5.5693 L 52.2189,5.7221 L 52.4431,5.7221 L 52.4431,6.1526 L 53.3821,6.1526 L 53.3821,6.1943 L 53.6764,6.1943 L 53.6764,5.7221 L 53.6204,5.7221 L 53.6204,6.1526 L 53.3821,6.1526 L 53.3821,7.1109 L 53.2840,7.1109 L 53.2840,7.6109 L 53.3821,7.6109 L 53.3821,8.6942 L 49.7944,8.6942 L 49.7944,7.6109 L 49.8925,7.6109 L 49.8925,7.1109 L 49.7944,7.1109 L 49.7944,6.1526 L 49.5561,6.1526 L 49.5561,5.7221 L 49.5000,5.7221 L 49.5000,6.1943 L 49.7944,6.1943 L 49.7944,6.1526 L 50.7333,6.1526 L 50.7333,5.7221 L 50.9576,5.7221 L 50.9576,5.5693 L 52.2189,5.5693 Z" stroke="#000000" stroke-width="0.1197" stroke-linecap="round" stroke-linejoin="round" fill="#000000"/>
        <path d="M 52.4431,6.1526 L 53.6204,6.1526 L 53.6204,5.7221 L 52.4431,5.7221 L 52.4431,6.1526 Z" stroke="#494949" stroke-width="0.1197" stroke-linecap="round" stroke-linejoin="round" fill="#000000"/>
        <path d="M 49.5561,6.1526 L 50.7333,6.1526 L 50.7333,5.7221 L 49.5561,5.7221 L 49.5561,6.1526 Z" stroke="#494949" stroke-width="0.1197" stroke-linecap="round" stroke-linejoin="round" fill="#000000"/>
        <path d="M 57.3203,5.5693 L 57.3203,5.7221 L 57.5445,5.7221 L 57.5445,6.1526 L 58.4835,6.1526 L 58.4835,6.1943 L 58.7778,6.1943 L 58.7778,5.7221 L 58.7217,5.7221 L 58.7217,6.1526 L 58.4835,6.1526 L 58.4835,7.1109 L 58.3854,7.1109 L 58.3854,7.6109 L 58.4835,7.6109 L 58.4835,8.6942 L 54.8957,8.6942 L 54.8957,7.6109 L 54.9938,7.6109 L 54.9938,7.1109 L 54.8957,7.1109 L 54.8957,6.1526 L 54.6575,6.1526 L 54.6575,5.7221 L 54.6014,5.7221 L 54.6014,6.1943 L 54.8957,6.1943 L 54.8957,6.1526 L 55.8347,6.1526 L 55.8347,5.7221 L 56.0589,5.7221 L 56.0589,5.5693 L 57.3203,5.5693 Z" stroke="#000000" stroke-width="0.1197" stroke-linecap="round" stroke-linejoin="round" fill="#000000"/>
        <path d="M 57.5445,6.1526 L 58.7217,6.1526 L 58.7217,5.7221 L 57.5445,5.7221 L 57.5445,6.1526 Z" stroke="#494949" stroke-width="0.1197" stroke-linecap="round" stroke-linejoin="round" fill="#000000"/>
        <path d="M 54.6575,6.1526 L 55.8347,6.1526 L 55.8347,5.7221 L 54.6575,5.7221 L 54.6575,6.1526 Z" stroke="#494949" stroke-width="0.1197" stroke-linecap="round" stroke-linejoin="round" fill="#000000"/>
        <path d="M 62.4216,5.5693 L 62.4216,5.7221 L 62.6459,5.7221 L 62.6459,6.1526 L 63.5849,6.1526 L 63.5849,6.1943 L 63.8792,6.1943 L 63.8792,5.7221 L 63.8231,5.7221 L 63.8231,6.1526 L 63.5849,6.1526 L 63.5849,7.1109 L 63.4868,7.1109 L 63.4868,7.6109 L 63.5849,7.6109 L 63.5849,8.6942 L 59.9971,8.6942 L 59.9971,7.6109 L 60.0952,7.6109 L 60.0952,7.1109 L 59.9971,7.1109 L 59.9971,6.1526 L 59.7588,6.1526 L 59.7588,5.7221 L 59.7028,5.7221 L 59.7028,6.1943 L 59.9971,6.1943 L 59.9971,6.1526 L 60.9361,6.1526 L 60.9361,5.7221 L 61.1603,5.7221 L 61.1603,5.5693 L 62.4216,5.5693 Z" stroke="#000000" stroke-width="0.1197" stroke-linecap="round" stroke-linejoin="round" fill="#000000"/>
        <path d="M 62.6459,6.1526 L 63.8231,6.1526 L 63.8231,5.7221 L 62.6459,5.7221 L 62.6459,6.1526 Z" stroke="#494949" stroke-width="0.1197" stroke-linecap="round" stroke-linejoin="round" fill="#000000"/>
        <path d="M 59.7588,6.1526 L 60.9361,6.1526 L 60.9361,5.7221 L 59.7588,5.7221 L 59.7588,6.1526 Z" stroke="#494949" stroke-width="0.1197" stroke-linecap="round" stroke-linejoin="round" fill="#000000"/>
        <path d="M 97.2283,0.8446 L 97.2563,0.8446 L 97.2703,0.8587 L 97.2983,0.8587 L 97.3123,0.8728 L 97.3263,0.8728 L 97.3263,0.8869 L 97.3403,0.8869 L 97.4243,0.9713 L 97.4243,0.9854 L 97.4803,1.0417 L 97.4803,1.0699 L 97.4943,1.0839 L 97.4943,1.1121 L 97.5083,1.1262 L 97.5083,11.2335 L 97.4943,11.2476 L 97.4943,11.2757 L 97.4803,11.2898 L 97.4803,11.3179 L 97.4243,11.3742 L 97.4243,11.3883 L 97.3403,11.4728 L 97.3263,11.4728 L 97.3263,11.4869 L 97.3123,11.4869 L 97.2983,11.5009 L 97.2703,11.5009 L 97.2563,11.5150 L 67.4045,11.5150 L 67.3905,11.5009 L 67.3625,11.5009 L 67.3345,11.4728 L 67.3205,11.4728 L 67.2365,11.3883 L 67.2365,11.3742 L 67.1805,11.3179 L 67.1805,11.2898 L 67.1665,11.2757 L 67.1665,11.2476 L 67.1525,11.2335 L 67.1525,1.1262 L 67.1665,1.1121 L 67.1665,1.0839 L 67.1805,1.0699 L 67.1805,1.0417 L 67.2365,0.9854 L 67.2365,0.9713 L 67.3205,0.8869 L 67.3345,0.8869 L 67.3625,0.8587 L 67.3905,0.8587 L 67.4045,0.8446 L 97.1443,0.8446 L 97.2283,0.8446 Z" stroke="#000000" stroke-width="0.1197" stroke-linecap="round" stroke-linejoin="round" fill="none"/>
        <path d="M 97.2283,0.8446 L 97.2563,0.8446 L 97.2703,0.8587 L 97.2983,0.8587 L 97.3123,0.8728 L 97.3263,0.8728 L 97.3263,0.8869 L 97.3403,0.8869 L 97.4243,0.9713 L 97.4243,0.9854 L 97.4803,1.0417 L 97.4803,1.0699 L 97.4943,1.0839 L 97.4943,1.1121 L 97.5083,1.1262 L 97.5083,11.2335 L 97.4943,11.2476 L 97.4943,11.2757 L 97.4803,11.2898 L 97.4803,11.3179 L 97.4243,11.3742 L 97.4243,11.3883 L 97.3403,11.4728 L 97.3263,11.4728 L 97.3263,11.4869 L 97.3123,11.4869 L 97.2983,11.5009 L 97.2703,11.5009 L 97.2563,11.5150 L 67.4045,11.5150 L 67.3905,11.5009 L 67.3625,11.5009 L 67.3345,11.4728 L 67.3205,11.4728 L 67.2365,11.3883 L 67.2365,11.3742 L 67.1805,11.3179 L 67.1805,11.2898 L 67.1665,11.2757 L 67.1665,11.2476 L 67.1525,11.2335 L 67.1525,1.1262 L 67.1665,1.1121 L 67.1665,1.0839 L 67.1805,1.0699 L 67.1805,1.0417 L 67.2365,0.9854 L 67.2365,0.9713 L 67.3205,0.8869 L 67.3345,0.8869 L 67.3625,0.8587 L 67.3905,0.8587 L 67.4045,0.8446 L 97.1443,0.8446 L 97.2283,0.8446 Z" stroke="#000000" stroke-width="0.1197" stroke-linecap="round" stroke-linejoin="round" fill="#CCDDCC"/>
        <ellipse cx="93.5808" cy="2.0412" rx="0.3991" ry="0.4082" fill="#000000" stroke="#000000" stroke-width="0.1197" stroke-linecap="round" stroke-linejoin="round"/>
        <ellipse cx="93.5808" cy="2.0412" rx="0.3991" ry="0.4082" fill="none" stroke="#161616" stroke-width="0.1197" stroke-linecap="round" stroke-linejoin="round"/>
        <ellipse cx="91.9706" cy="2.0412" rx="0.3991" ry="0.4082" fill="#000000" stroke="#000000" stroke-width="0.1197" stroke-linecap="round" stroke-linejoin="round"/>
        <ellipse cx="91.9706" cy="2.0412" rx="0.3991" ry="0.4082" fill="none" stroke="#161616" stroke-width="0.1197" stroke-linecap="round" stroke-linejoin="round"/>
        <ellipse cx="90.3464" cy="2.0412" rx="0.3991" ry="0.4082" fill="#000000" stroke="#000000" stroke-width="0.1197" stroke-linecap="round" stroke-linejoin="round"/>
        <ellipse cx="90.3464" cy="2.0412" rx="0.3991" ry="0.4082" fill="none" stroke="#161616" stroke-width="0.1197" stroke-linecap="round" stroke-linejoin="round"/>
        <ellipse cx="88.7362" cy="2.0412" rx="0.3991" ry="0.4082" fill="#000000" stroke="#000000" stroke-width="0.1197" stroke-linecap="round" stroke-linejoin="round"/>
        <ellipse cx="88.7362" cy="2.0412" rx="0.3991" ry="0.4082" fill="none" stroke="#161616" stroke-width="0.1197" stroke-linecap="round" stroke-linejoin="round"/>
        <ellipse cx="87.1120" cy="2.0412" rx="0.3991" ry="0.4082" fill="#000000" stroke="#000000" stroke-width="0.1197" stroke-linecap="round" stroke-linejoin="round"/>
        <ellipse cx="87.1120" cy="2.0412" rx="0.3991" ry="0.4082" fill="none" stroke="#161616" stroke-width="0.1197" stroke-linecap="round" stroke-linejoin="round"/>
        <ellipse cx="85.5018" cy="2.0412" rx="0.3991" ry="0.4082" fill="#000000" stroke="#000000" stroke-width="0.1197" stroke-linecap="round" stroke-linejoin="round"/>
        <ellipse cx="85.5018" cy="2.0412" rx="0.3991" ry="0.4082" fill="none" stroke="#161616" stroke-width="0.1197" stroke-linecap="round" stroke-linejoin="round"/>
        <ellipse cx="83.8776" cy="2.0412" rx="0.3991" ry="0.4082" fill="#000000" stroke="#000000" stroke-width="0.1197" stroke-linecap="round" stroke-linejoin="round"/>
        <ellipse cx="83.8776" cy="2.0412" rx="0.3991" ry="0.4082" fill="none" stroke="#161616" stroke-width="0.1197" stroke-linecap="round" stroke-linejoin="round"/>
        <ellipse cx="82.2674" cy="2.0412" rx="0.3991" ry="0.4082" fill="#000000" stroke="#000000" stroke-width="0.1197" stroke-linecap="round" stroke-linejoin="round"/>
        <ellipse cx="82.2674" cy="2.0412" rx="0.3991" ry="0.4082" fill="none" stroke="#161616" stroke-width="0.1197" stroke-linecap="round" stroke-linejoin="round"/>
        <ellipse cx="80.6502" cy="2.0412" rx="0.4061" ry="0.4082" fill="#000000" stroke="#000000" stroke-width="0.1197" stroke-linecap="round" stroke-linejoin="round"/>
        <ellipse cx="80.6502" cy="2.0412" rx="0.4061" ry="0.4082" fill="none" stroke="#161616" stroke-width="0.1197" stroke-linecap="round" stroke-linejoin="round"/>
        <ellipse cx="79.0330" cy="2.0412" rx="0.3991" ry="0.4082" fill="#000000" stroke="#000000" stroke-width="0.1197" stroke-linecap="round" stroke-linejoin="round"/>
        <ellipse cx="79.0330" cy="2.0412" rx="0.3991" ry="0.4082" fill="none" stroke="#161616" stroke-width="0.1197" stroke-linecap="round" stroke-linejoin="round"/>
        <ellipse cx="77.4228" cy="2.0412" rx="0.3991" ry="0.4082" fill="#000000" stroke="#000000" stroke-width="0.1197" stroke-linecap="round" stroke-linejoin="round"/>
        <ellipse cx="77.4228" cy="2.0412" rx="0.3991" ry="0.4082" fill="none" stroke="#161616" stroke-width="0.1197" stroke-linecap="round" stroke-linejoin="round"/>
        <ellipse cx="75.7986" cy="2.0412" rx="0.3991" ry="0.4082" fill="#000000" stroke="#000000" stroke-width="0.1197" stroke-linecap="round" stroke-linejoin="round"/>
        <ellipse cx="75.7986" cy="2.0412" rx="0.3991" ry="0.4082" fill="none" stroke="#161616" stroke-width="0.1197" stroke-linecap="round" stroke-linejoin="round"/>
        <ellipse cx="74.1814" cy="2.0412" rx="0.4061" ry="0.4082" fill="#000000" stroke="#000000" stroke-width="0.1197" stroke-linecap="round" stroke-linejoin="round"/>
        <ellipse cx="74.1814" cy="2.0412" rx="0.4061" ry="0.4082" fill="none" stroke="#161616" stroke-width="0.1197" stroke-linecap="round" stroke-linejoin="round"/>
        <ellipse cx="70.9539" cy="2.0412" rx="0.3991" ry="0.4082" fill="#000000" stroke="#000000" stroke-width="0.1197" stroke-linecap="round" stroke-linejoin="round"/>
        <ellipse cx="70.9539" cy="2.0412" rx="0.3991" ry="0.4082" fill="none" stroke="#161616" stroke-width="0.1197" stroke-linecap="round" stroke-linejoin="round"/>
        <ellipse cx="93.5808" cy="3.7304" rx="0.3991" ry="0.4082" fill="#000000" stroke="#000000" stroke-width="0.1197" stroke-linecap="round" stroke-linejoin="round"/>
        <ellipse cx="93.5808" cy="3.7304" rx="0.3991" ry="0.4082" fill="none" stroke="#161616" stroke-width="0.1197" stroke-linecap="round" stroke-linejoin="round"/>
        <ellipse cx="91.9706" cy="3.7304" rx="0.3991" ry="0.4082" fill="#000000" stroke="#000000" stroke-width="0.1197" stroke-linecap="round" stroke-linejoin="round"/>
        <ellipse cx="91.9706" cy="3.7304" rx="0.3991" ry="0.4082" fill="none" stroke="#161616" stroke-width="0.1197" stroke-linecap="round" stroke-linejoin="round"/>
        <ellipse cx="90.3464" cy="3.7304" rx="0.3991" ry="0.4082" fill="#000000" stroke="#000000" stroke-width="0.1197" stroke-linecap="round" stroke-linejoin="round"/>
        <ellipse cx="90.3464" cy="3.7304" rx="0.3991" ry="0.4082" fill="none" stroke="#161616" stroke-width="0.1197" stroke-linecap="round" stroke-linejoin="round"/>
        <ellipse cx="88.7362" cy="3.7304" rx="0.3991" ry="0.4082" fill="#000000" stroke="#000000" stroke-width="0.1197" stroke-linecap="round" stroke-linejoin="round"/>
        <ellipse cx="88.7362" cy="3.7304" rx="0.3991" ry="0.4082" fill="none" stroke="#161616" stroke-width="0.1197" stroke-linecap="round" stroke-linejoin="round"/>
        <ellipse cx="87.1120" cy="3.7304" rx="0.3991" ry="0.4082" fill="#000000" stroke="#000000" stroke-width="0.1197" stroke-linecap="round" stroke-linejoin="round"/>
        <ellipse cx="87.1120" cy="3.7304" rx="0.3991" ry="0.4082" fill="none" stroke="#161616" stroke-width="0.1197" stroke-linecap="round" stroke-linejoin="round"/>
        <ellipse cx="85.5018" cy="3.7304" rx="0.3991" ry="0.4082" fill="#000000" stroke="#000000" stroke-width="0.1197" stroke-linecap="round" stroke-linejoin="round"/>
        <ellipse cx="85.5018" cy="3.7304" rx="0.3991" ry="0.4082" fill="none" stroke="#161616" stroke-width="0.1197" stroke-linecap="round" stroke-linejoin="round"/>
        <ellipse cx="83.8776" cy="3.7304" rx="0.3991" ry="0.4082" fill="#000000" stroke="#000000" stroke-width="0.1197" stroke-linecap="round" stroke-linejoin="round"/>
        <ellipse cx="83.8776" cy="3.7304" rx="0.3991" ry="0.4082" fill="none" stroke="#161616" stroke-width="0.1197" stroke-linecap="round" stroke-linejoin="round"/>
        <ellipse cx="82.2674" cy="3.7304" rx="0.3991" ry="0.4082" fill="#000000" stroke="#000000" stroke-width="0.1197" stroke-linecap="round" stroke-linejoin="round"/>
        <ellipse cx="82.2674" cy="3.7304" rx="0.3991" ry="0.4082" fill="none" stroke="#161616" stroke-width="0.1197" stroke-linecap="round" stroke-linejoin="round"/>
        <ellipse cx="80.6502" cy="3.7304" rx="0.4061" ry="0.4082" fill="#000000" stroke="#000000" stroke-width="0.1197" stroke-linecap="round" stroke-linejoin="round"/>
        <ellipse cx="80.6502" cy="3.7304" rx="0.4061" ry="0.4082" fill="none" stroke="#161616" stroke-width="0.1197" stroke-linecap="round" stroke-linejoin="round"/>
        <ellipse cx="79.0330" cy="3.7304" rx="0.3991" ry="0.4082" fill="#000000" stroke="#000000" stroke-width="0.1197" stroke-linecap="round" stroke-linejoin="round"/>
        <ellipse cx="79.0330" cy="3.7304" rx="0.3991" ry="0.4082" fill="none" stroke="#161616" stroke-width="0.1197" stroke-linecap="round" stroke-linejoin="round"/>
        <ellipse cx="77.4228" cy="3.7304" rx="0.3991" ry="0.4082" fill="#000000" stroke="#000000" stroke-width="0.1197" stroke-linecap="round" stroke-linejoin="round"/>
        <ellipse cx="77.4228" cy="3.7304" rx="0.3991" ry="0.4082" fill="none" stroke="#161616" stroke-width="0.1197" stroke-linecap="round" stroke-linejoin="round"/>
        <ellipse cx="75.7986" cy="3.7304" rx="0.3991" ry="0.4082" fill="#000000" stroke="#000000" stroke-width="0.1197" stroke-linecap="round" stroke-linejoin="round"/>
        <ellipse cx="75.7986" cy="3.7304" rx="0.3991" ry="0.4082" fill="none" stroke="#161616" stroke-width="0.1197" stroke-linecap="round" stroke-linejoin="round"/>
        <ellipse cx="74.1814" cy="3.7304" rx="0.4061" ry="0.4082" fill="#000000" stroke="#000000" stroke-width="0.1197" stroke-linecap="round" stroke-linejoin="round"/>
        <ellipse cx="74.1814" cy="3.7304" rx="0.4061" ry="0.4082" fill="none" stroke="#161616" stroke-width="0.1197" stroke-linecap="round" stroke-linejoin="round"/>
        <ellipse cx="70.9539" cy="3.7304" rx="0.3991" ry="0.4082" fill="#000000" stroke="#000000" stroke-width="0.1197" stroke-linecap="round" stroke-linejoin="round"/>
        <ellipse cx="70.9539" cy="3.7304" rx="0.3991" ry="0.4082" fill="none" stroke="#161616" stroke-width="0.1197" stroke-linecap="round" stroke-linejoin="round"/>
        <ellipse cx="72.5642" cy="2.0412" rx="0.3991" ry="0.4082" fill="#000000" stroke="#000000" stroke-width="0.1197" stroke-linecap="round" stroke-linejoin="round"/>
        <ellipse cx="72.5642" cy="2.0412" rx="0.3991" ry="0.4082" fill="none" stroke="#161616" stroke-width="0.1197" stroke-linecap="round" stroke-linejoin="round"/>
        <ellipse cx="72.5642" cy="3.7304" rx="0.3991" ry="0.4082" fill="#000000" stroke="#000000" stroke-width="0.1197" stroke-linecap="round" stroke-linejoin="round"/>
        <ellipse cx="72.5642" cy="3.7304" rx="0.3991" ry="0.4082" fill="none" stroke="#161616" stroke-width="0.1197" stroke-linecap="round" stroke-linejoin="round"/>
        <path d="M 67.4885,2.3086 L 67.1525,2.3086 L 67.1525,10.0510 L 67.4885,10.0510 L 67.4885,2.3086 Z" stroke="#EAEAEA" stroke-width="0.1197" stroke-linecap="round" stroke-linejoin="round" fill="#EAEAEA"/>
        <path d="M 97.5083,2.3086 L 97.1723,2.3086 L 97.1723,10.0510 L 97.5083,10.0510 L 97.5083,2.3086 Z" stroke="#EAEAEA" stroke-width="0.1197" stroke-linecap="round" stroke-linejoin="round" fill="#EAEAEA"/>
        <path d="M 71.9131,0.8446 L 71.9131,1.1825 L 92.7617,1.1825 L 92.7617,0.8446 L 71.9131,0.8446 Z" stroke="#EAEAEA" stroke-width="0.1197" stroke-linecap="round" stroke-linejoin="round" fill="#EAEAEA"/>
        <path d="M 97.2283,0.8446 L 97.2563,0.8446 L 97.2703,0.8587 L 97.2983,0.8587 L 97.3123,0.8728 L 97.3263,0.8728 L 97.3263,0.8869 L 97.3403,0.8869 L 97.4243,0.9713 L 97.4243,0.9854 L 97.4803,1.0417 L 97.4803,1.0699 L 97.4943,1.0839 L 97.4943,1.1121 L 97.5083,1.1262 L 97.5083,11.2335 L 97.4943,11.2476 L 97.4943,11.2757 L 97.4803,11.2898 L 97.4803,11.3179 L 97.4243,11.3742 L 97.4243,11.3883 L 97.3403,11.4728 L 97.3263,11.4728 L 97.3263,11.4869 L 97.3123,11.4869 L 97.2983,11.5009 L 97.2703,11.5009 L 97.2563,11.5150 L 67.4045,11.5150 L 67.3905,11.5009 L 67.3625,11.5009 L 67.3345,11.4728 L 67.3205,11.4728 L 67.2365,11.3883 L 67.2365,11.3742 L 67.1805,11.3179 L 67.1805,11.2898 L 67.1665,11.2757 L 67.1665,11.2476 L 67.1525,11.2335 L 67.1525,1.1262 L 67.1665,1.1121 L 67.1665,1.0839 L 67.1805,1.0699 L 67.1805,1.0417 L 67.2365,0.9854 L 67.2365,0.9713 L 67.3205,0.8869 L 67.3345,0.8869 L 67.3625,0.8587 L 67.3905,0.8587 L 67.4045,0.8446 L 97.1443,0.8446 L 97.2283,0.8446 Z" stroke="#000000" stroke-width="0.1197" stroke-linecap="round" stroke-linejoin="round" fill="none"/>
        <path d="M 128.9143,0.8446 L 128.9423,0.8446 L 128.9563,0.8587 L 128.9843,0.8587 L 128.9983,0.8728 L 129.0123,0.8728 L 129.0123,0.8869 L 129.0263,0.8869 L 129.1103,0.9713 L 129.1103,0.9854 L 129.1663,1.0417 L 129.1663,1.0699 L 129.1803,1.0839 L 129.1803,1.1121 L 129.1943,1.1262 L 129.1943,11.2335 L 129.1803,11.2476 L 129.1803,11.2757 L 129.1663,11.2898 L 129.1663,11.3179 L 129.1103,11.3742 L 129.1103,11.3883 L 129.0263,11.4728 L 129.0123,11.4728 L 129.0123,11.4869 L 128.9983,11.4869 L 128.9843,11.5009 L 128.9563,11.5009 L 128.9423,11.5150 L 99.0905,11.5150 L 99.0765,11.5009 L 99.0485,11.5009 L 99.0205,11.4728 L 99.0065,11.4728 L 98.9225,11.3883 L 98.9225,11.3742 L 98.8665,11.3179 L 98.8665,11.2898 L 98.8525,11.2757 L 98.8525,11.2476 L 98.8385,11.2335 L 98.8385,1.1262 L 98.8525,1.1121 L 98.8525,1.0839 L 98.8665,1.0699 L 98.8665,1.0417 L 98.9225,0.9854 L 98.9225,0.9713 L 99.0065,0.8869 L 99.0205,0.8869 L 99.0485,0.8587 L 99.0765,0.8587 L 99.0905,0.8446 L 128.8302,0.8446 L 128.9143,0.8446 Z" stroke="#000000" stroke-width="0.1197" stroke-linecap="round" stroke-linejoin="round" fill="none"/>
        <path d="M 128.9143,0.8446 L 128.9423,0.8446 L 128.9563,0.8587 L 128.9843,0.8587 L 128.9983,0.8728 L 129.0123,0.8728 L 129.0123,0.8869 L 129.0263,0.8869 L 129.1103,0.9713 L 129.1103,0.9854 L 129.1663,1.0417 L 129.1663,1.0699 L 129.1803,1.0839 L 129.1803,1.1121 L 129.1943,1.1262 L 129.1943,11.2335 L 129.1803,11.2476 L 129.1803,11.2757 L 129.1663,11.2898 L 129.1663,11.3179 L 129.1103,11.3742 L 129.1103,11.3883 L 129.0263,11.4728 L 129.0123,11.4728 L 129.0123,11.4869 L 128.9983,11.4869 L 128.9843,11.5009 L 128.9563,11.5009 L 128.9423,11.5150 L 99.0905,11.5150 L 99.0765,11.5009 L 99.0485,11.5009 L 99.0205,11.4728 L 99.0065,11.4728 L 98.9225,11.3883 L 98.9225,11.3742 L 98.8665,11.3179 L 98.8665,11.2898 L 98.8525,11.2757 L 98.8525,11.2476 L 98.8385,11.2335 L 98.8385,1.1262 L 98.8525,1.1121 L 98.8525,1.0839 L 98.8665,1.0699 L 98.8665,1.0417 L 98.9225,0.9854 L 98.9225,0.9713 L 99.0065,0.8869 L 99.0205,0.8869 L 99.0485,0.8587 L 99.0765,0.8587 L 99.0905,0.8446 L 128.8302,0.8446 L 128.9143,0.8446 Z" stroke="#000000" stroke-width="0.1197" stroke-linecap="round" stroke-linejoin="round" fill="#CCDDCC"/>
        <ellipse cx="125.2668" cy="2.0412" rx="0.3991" ry="0.4082" fill="#000000" stroke="#000000" stroke-width="0.1197" stroke-linecap="round" stroke-linejoin="round"/>
        <ellipse cx="125.2668" cy="2.0412" rx="0.3991" ry="0.4082" fill="none" stroke="#161616" stroke-width="0.1197" stroke-linecap="round" stroke-linejoin="round"/>
        <ellipse cx="123.6566" cy="2.0412" rx="0.3991" ry="0.4082" fill="#000000" stroke="#000000" stroke-width="0.1197" stroke-linecap="round" stroke-linejoin="round"/>
        <ellipse cx="123.6566" cy="2.0412" rx="0.3991" ry="0.4082" fill="none" stroke="#161616" stroke-width="0.1197" stroke-linecap="round" stroke-linejoin="round"/>
        <ellipse cx="122.0324" cy="2.0412" rx="0.3991" ry="0.4082" fill="#000000" stroke="#000000" stroke-width="0.1197" stroke-linecap="round" stroke-linejoin="round"/>
        <ellipse cx="122.0324" cy="2.0412" rx="0.3991" ry="0.4082" fill="none" stroke="#161616" stroke-width="0.1197" stroke-linecap="round" stroke-linejoin="round"/>
        <ellipse cx="120.4222" cy="2.0412" rx="0.3991" ry="0.4082" fill="#000000" stroke="#000000" stroke-width="0.1197" stroke-linecap="round" stroke-linejoin="round"/>
        <ellipse cx="120.4222" cy="2.0412" rx="0.3991" ry="0.4082" fill="none" stroke="#161616" stroke-width="0.1197" stroke-linecap="round" stroke-linejoin="round"/>
        <ellipse cx="118.7980" cy="2.0412" rx="0.3991" ry="0.4082" fill="#000000" stroke="#000000" stroke-width="0.1197" stroke-linecap="round" stroke-linejoin="round"/>
        <ellipse cx="118.7980" cy="2.0412" rx="0.3991" ry="0.4082" fill="none" stroke="#161616" stroke-width="0.1197" stroke-linecap="round" stroke-linejoin="round"/>
        <ellipse cx="117.1878" cy="2.0412" rx="0.3991" ry="0.4082" fill="#000000" stroke="#000000" stroke-width="0.1197" stroke-linecap="round" stroke-linejoin="round"/>
        <ellipse cx="117.1878" cy="2.0412" rx="0.3991" ry="0.4082" fill="none" stroke="#161616" stroke-width="0.1197" stroke-linecap="round" stroke-linejoin="round"/>
        <ellipse cx="115.5636" cy="2.0412" rx="0.3991" ry="0.4082" fill="#000000" stroke="#000000" stroke-width="0.1197" stroke-linecap="round" stroke-linejoin="round"/>
        <ellipse cx="115.5636" cy="2.0412" rx="0.3991" ry="0.4082" fill="none" stroke="#161616" stroke-width="0.1197" stroke-linecap="round" stroke-linejoin="round"/>
        <ellipse cx="113.9534" cy="2.0412" rx="0.3991" ry="0.4082" fill="#000000" stroke="#000000" stroke-width="0.1197" stroke-linecap="round" stroke-linejoin="round"/>
        <ellipse cx="113.9534" cy="2.0412" rx="0.3991" ry="0.4082" fill="none" stroke="#161616" stroke-width="0.1197" stroke-linecap="round" stroke-linejoin="round"/>
        <ellipse cx="112.3362" cy="2.0412" rx="0.4061" ry="0.4082" fill="#000000" stroke="#000000" stroke-width="0.1197" stroke-linecap="round" stroke-linejoin="round"/>
        <ellipse cx="112.3362" cy="2.0412" rx="0.4061" ry="0.4082" fill="none" stroke="#161616" stroke-width="0.1197" stroke-linecap="round" stroke-linejoin="round"/>
        <ellipse cx="110.7190" cy="2.0412" rx="0.3991" ry="0.4082" fill="#000000" stroke="#000000" stroke-width="0.1197" stroke-linecap="round" stroke-linejoin="round"/>
        <ellipse cx="110.7190" cy="2.0412" rx="0.3991" ry="0.4082" fill="none" stroke="#161616" stroke-width="0.1197" stroke-linecap="round" stroke-linejoin="round"/>
        <ellipse cx="109.1088" cy="2.0412" rx="0.3991" ry="0.4082" fill="#000000" stroke="#000000" stroke-width="0.1197" stroke-linecap="round" stroke-linejoin="round"/>
        <ellipse cx="109.1088" cy="2.0412" rx="0.3991" ry="0.4082" fill="none" stroke="#161616" stroke-width="0.1197" stroke-linecap="round" stroke-linejoin="round"/>
        <ellipse cx="107.4846" cy="2.0412" rx="0.3991" ry="0.4082" fill="#000000" stroke="#000000" stroke-width="0.1197" stroke-linecap="round" stroke-linejoin="round"/>
        <ellipse cx="107.4846" cy="2.0412" rx="0.3991" ry="0.4082" fill="none" stroke="#161616" stroke-width="0.1197" stroke-linecap="round" stroke-linejoin="round"/>
        <ellipse cx="105.8674" cy="2.0412" rx="0.4061" ry="0.4082" fill="#000000" stroke="#000000" stroke-width="0.1197" stroke-linecap="round" stroke-linejoin="round"/>
        <ellipse cx="105.8674" cy="2.0412" rx="0.4061" ry="0.4082" fill="none" stroke="#161616" stroke-width="0.1197" stroke-linecap="round" stroke-linejoin="round"/>
        <ellipse cx="102.6399" cy="2.0412" rx="0.3991" ry="0.4082" fill="#000000" stroke="#000000" stroke-width="0.1197" stroke-linecap="round" stroke-linejoin="round"/>
        <ellipse cx="102.6399" cy="2.0412" rx="0.3991" ry="0.4082" fill="none" stroke="#161616" stroke-width="0.1197" stroke-linecap="round" stroke-linejoin="round"/>
        <ellipse cx="125.2668" cy="3.7304" rx="0.3991" ry="0.4082" fill="#000000" stroke="#000000" stroke-width="0.1197" stroke-linecap="round" stroke-linejoin="round"/>
        <ellipse cx="125.2668" cy="3.7304" rx="0.3991" ry="0.4082" fill="none" stroke="#161616" stroke-width="0.1197" stroke-linecap="round" stroke-linejoin="round"/>
        <ellipse cx="123.6566" cy="3.7304" rx="0.3991" ry="0.4082" fill="#000000" stroke="#000000" stroke-width="0.1197" stroke-linecap="round" stroke-linejoin="round"/>
        <ellipse cx="123.6566" cy="3.7304" rx="0.3991" ry="0.4082" fill="none" stroke="#161616" stroke-width="0.1197" stroke-linecap="round" stroke-linejoin="round"/>
        <ellipse cx="122.0324" cy="3.7304" rx="0.3991" ry="0.4082" fill="#000000" stroke="#000000" stroke-width="0.1197" stroke-linecap="round" stroke-linejoin="round"/>
        <ellipse cx="122.0324" cy="3.7304" rx="0.3991" ry="0.4082" fill="none" stroke="#161616" stroke-width="0.1197" stroke-linecap="round" stroke-linejoin="round"/>
        <ellipse cx="120.4222" cy="3.7304" rx="0.3991" ry="0.4082" fill="#000000" stroke="#000000" stroke-width="0.1197" stroke-linecap="round" stroke-linejoin="round"/>
        <ellipse cx="120.4222" cy="3.7304" rx="0.3991" ry="0.4082" fill="none" stroke="#161616" stroke-width="0.1197" stroke-linecap="round" stroke-linejoin="round"/>
        <ellipse cx="118.7980" cy="3.7304" rx="0.3991" ry="0.4082" fill="#000000" stroke="#000000" stroke-width="0.1197" stroke-linecap="round" stroke-linejoin="round"/>
        <ellipse cx="118.7980" cy="3.7304" rx="0.3991" ry="0.4082" fill="none" stroke="#161616" stroke-width="0.1197" stroke-linecap="round" stroke-linejoin="round"/>
        <ellipse cx="117.1878" cy="3.7304" rx="0.3991" ry="0.4082" fill="#000000" stroke="#000000" stroke-width="0.1197" stroke-linecap="round" stroke-linejoin="round"/>
        <ellipse cx="117.1878" cy="3.7304" rx="0.3991" ry="0.4082" fill="none" stroke="#161616" stroke-width="0.1197" stroke-linecap="round" stroke-linejoin="round"/>
        <ellipse cx="115.5636" cy="3.7304" rx="0.3991" ry="0.4082" fill="#000000" stroke="#000000" stroke-width="0.1197" stroke-linecap="round" stroke-linejoin="round"/>
        <ellipse cx="115.5636" cy="3.7304" rx="0.3991" ry="0.4082" fill="none" stroke="#161616" stroke-width="0.1197" stroke-linecap="round" stroke-linejoin="round"/>
        <ellipse cx="113.9534" cy="3.7304" rx="0.3991" ry="0.4082" fill="#000000" stroke="#000000" stroke-width="0.1197" stroke-linecap="round" stroke-linejoin="round"/>
        <ellipse cx="113.9534" cy="3.7304" rx="0.3991" ry="0.4082" fill="none" stroke="#161616" stroke-width="0.1197" stroke-linecap="round" stroke-linejoin="round"/>
        <ellipse cx="112.3362" cy="3.7304" rx="0.4061" ry="0.4082" fill="#000000" stroke="#000000" stroke-width="0.1197" stroke-linecap="round" stroke-linejoin="round"/>
        <ellipse cx="112.3362" cy="3.7304" rx="0.4061" ry="0.4082" fill="none" stroke="#161616" stroke-width="0.1197" stroke-linecap="round" stroke-linejoin="round"/>
        <ellipse cx="110.7190" cy="3.7304" rx="0.3991" ry="0.4082" fill="#000000" stroke="#000000" stroke-width="0.1197" stroke-linecap="round" stroke-linejoin="round"/>
        <ellipse cx="110.7190" cy="3.7304" rx="0.3991" ry="0.4082" fill="none" stroke="#161616" stroke-width="0.1197" stroke-linecap="round" stroke-linejoin="round"/>
        <ellipse cx="109.1088" cy="3.7304" rx="0.3991" ry="0.4082" fill="#000000" stroke="#000000" stroke-width="0.1197" stroke-linecap="round" stroke-linejoin="round"/>
        <ellipse cx="109.1088" cy="3.7304" rx="0.3991" ry="0.4082" fill="none" stroke="#161616" stroke-width="0.1197" stroke-linecap="round" stroke-linejoin="round"/>
        <ellipse cx="107.4846" cy="3.7304" rx="0.3991" ry="0.4082" fill="#000000" stroke="#000000" stroke-width="0.1197" stroke-linecap="round" stroke-linejoin="round"/>
        <ellipse cx="107.4846" cy="3.7304" rx="0.3991" ry="0.4082" fill="none" stroke="#161616" stroke-width="0.1197" stroke-linecap="round" stroke-linejoin="round"/>
        <ellipse cx="105.8674" cy="3.7304" rx="0.4061" ry="0.4082" fill="#000000" stroke="#000000" stroke-width="0.1197" stroke-linecap="round" stroke-linejoin="round"/>
        <ellipse cx="105.8674" cy="3.7304" rx="0.4061" ry="0.4082" fill="none" stroke="#161616" stroke-width="0.1197" stroke-linecap="round" stroke-linejoin="round"/>
        <ellipse cx="102.6399" cy="3.7304" rx="0.3991" ry="0.4082" fill="#000000" stroke="#000000" stroke-width="0.1197" stroke-linecap="round" stroke-linejoin="round"/>
        <ellipse cx="102.6399" cy="3.7304" rx="0.3991" ry="0.4082" fill="none" stroke="#161616" stroke-width="0.1197" stroke-linecap="round" stroke-linejoin="round"/>
        <ellipse cx="104.2501" cy="2.0412" rx="0.3991" ry="0.4082" fill="#000000" stroke="#000000" stroke-width="0.1197" stroke-linecap="round" stroke-linejoin="round"/>
        <ellipse cx="104.2501" cy="2.0412" rx="0.3991" ry="0.4082" fill="none" stroke="#161616" stroke-width="0.1197" stroke-linecap="round" stroke-linejoin="round"/>
        <ellipse cx="104.2501" cy="3.7304" rx="0.3991" ry="0.4082" fill="#000000" stroke="#000000" stroke-width="0.1197" stroke-linecap="round" stroke-linejoin="round"/>
        <ellipse cx="104.2501" cy="3.7304" rx="0.3991" ry="0.4082" fill="none" stroke="#161616" stroke-width="0.1197" stroke-linecap="round" stroke-linejoin="round"/>
        <path d="M 99.1745,2.3086 L 98.8385,2.3086 L 98.8385,10.0510 L 99.1745,10.0510 L 99.1745,2.3086 Z" stroke="#EAEAEA" stroke-width="0.1197" stroke-linecap="round" stroke-linejoin="round" fill="#EAEAEA"/>
        <path d="M 129.1943,2.3086 L 128.8582,2.3086 L 128.8582,10.0510 L 129.1943,10.0510 L 129.1943,2.3086 Z" stroke="#EAEAEA" stroke-width="0.1197" stroke-linecap="round" stroke-linejoin="round" fill="#EAEAEA"/>
        <path d="M 103.5991,0.8446 L 103.5991,1.1825 L 124.4477,1.1825 L 124.4477,0.8446 L 103.5991,0.8446 Z" stroke="#EAEAEA" stroke-width="0.1197" stroke-linecap="round" stroke-linejoin="round" fill="#EAEAEA"/>
        <path d="M 124.1817,7.7846 L 124.1817,10.0088 L 127.1780,10.0088 L 127.1780,7.7846 L 124.1817,7.7846 Z" stroke="#D6D5D4" stroke-width="0.1197" stroke-linecap="round" stroke-linejoin="round" fill="#EFEFEF"/>
        <path d="M 121.1013,5.0677 L 123.6496,5.0677 L 123.6496,7.2919 L 121.1013,7.2919 L 121.1013,5.0677 Z" stroke="#D6D5D4" stroke-width="0.1197" stroke-linecap="round" stroke-linejoin="round" fill="#EFEFEF"/>
        <path d="M 127.7941,7.2919 L 129.1943,7.2919 L 129.1943,5.0677 L 127.7941,5.0677 L 127.7941,7.2919 Z" stroke="#D6D5D4" stroke-width="0.1197" stroke-linecap="round" stroke-linejoin="round" fill="#EFEFEF"/>
        <path d="M 123.6496,7.8409 L 123.6496,10.0651 L 123.2995,10.0651 L 123.1875,10.0510 L 123.0755,10.0510 L 122.9635,10.0369 L 122.8515,10.0369 L 122.7395,10.0228 L 122.6275,9.9947 L 122.5295,9.9806 L 122.4174,9.9525 L 122.3194,9.9243 L 122.2214,9.8821 L 122.1234,9.8539 L 122.0254,9.7976 L 121.9414,9.7554 L 121.8434,9.6991 L 121.7594,9.6287 L 121.6053,9.4738 L 121.4653,9.3049 L 121.2973,8.9671 L 121.2553,8.8404 L 121.2133,8.6996 L 121.1713,8.5448 L 121.1433,8.3899 L 121.1293,8.2210 L 121.1153,8.0380 L 121.1013,7.8409 L 123.6356,7.8409 L 123.6496,7.8409 Z" stroke="#D6D5D4" stroke-width="0.1197" stroke-linecap="round" stroke-linejoin="round" fill="#EFEFEF"/>
        <path d="M 124.1817,2.3509 L 124.1817,4.5750 L 127.1780,4.5750 L 127.1780,2.3509 L 124.1817,2.3509 Z" stroke="#D6D5D4" stroke-width="0.1197" stroke-linecap="round" stroke-linejoin="round" fill="#EFEFEF"/>
        <path d="M 123.6496,4.5187 L 123.6496,2.2946 L 123.2995,2.2946 L 123.1875,2.3086 L 123.0755,2.3086 L 122.9635,2.3227 L 122.8515,2.3227 L 122.7395,2.3368 L 122.6275,2.3649 L 122.5295,2.3790 L 122.4174,2.4072 L 122.3194,2.4353 L 122.2214,2.4776 L 122.1234,2.5057 L 122.0254,2.5620 L 121.9414,2.6043 L 121.8434,2.6606 L 121.7594,2.7309 L 121.6053,2.8858 L 121.4653,3.0547 L 121.2973,3.3926 L 121.2553,3.5193 L 121.2133,3.6600 L 121.1713,3.8149 L 121.1433,3.9697 L 121.1293,4.1386 L 121.1153,4.3217 L 121.1013,4.5187 L 123.6356,4.5187 L 123.6496,4.5187 Z" stroke="#D6D5D4" stroke-width="0.1197" stroke-linecap="round" stroke-linejoin="round" fill="#EFEFEF"/>
        <path d="M 127.7941,7.7846 L 127.7941,10.0088 L 129.1943,10.0088 L 129.1943,7.7846 L 127.7941,7.7846 Z" stroke="#D6D5D4" stroke-width="0.1197" stroke-linecap="round" stroke-linejoin="round" fill="#EFEFEF"/>
        <path d="M 127.7941,2.3509 L 127.7941,4.5750 L 129.1943,4.5750 L 129.1943,2.3509 L 127.7941,2.3509 Z" stroke="#D6D5D4" stroke-width="0.1197" stroke-linecap="round" stroke-linejoin="round" fill="#EFEFEF"/>
        <ellipse cx="125.2668" cy="2.0412" rx="0.3991" ry="0.4082" fill="#000000" stroke="#000000" stroke-width="0.1197" stroke-linecap="round" stroke-linejoin="round"/>
        <ellipse cx="125.2668" cy="2.0412" rx="0.3991" ry="0.4082" fill="none" stroke="#161616" stroke-width="0.1197" stroke-linecap="round" stroke-linejoin="round"/>
        <ellipse cx="123.6566" cy="2.0412" rx="0.3991" ry="0.4082" fill="#000000" stroke="#000000" stroke-width="0.1197" stroke-linecap="round" stroke-linejoin="round"/>
        <ellipse cx="123.6566" cy="2.0412" rx="0.3991" ry="0.4082" fill="none" stroke="#161616" stroke-width="0.1197" stroke-linecap="round" stroke-linejoin="round"/>
        <ellipse cx="122.0324" cy="2.0412" rx="0.3991" ry="0.4082" fill="#000000" stroke="#000000" stroke-width="0.1197" stroke-linecap="round" stroke-linejoin="round"/>
        <ellipse cx="122.0324" cy="2.0412" rx="0.3991" ry="0.4082" fill="none" stroke="#161616" stroke-width="0.1197" stroke-linecap="round" stroke-linejoin="round"/>
        <ellipse cx="120.4222" cy="2.0412" rx="0.3991" ry="0.4082" fill="#000000" stroke="#000000" stroke-width="0.1197" stroke-linecap="round" stroke-linejoin="round"/>
        <ellipse cx="120.4222" cy="2.0412" rx="0.3991" ry="0.4082" fill="none" stroke="#161616" stroke-width="0.1197" stroke-linecap="round" stroke-linejoin="round"/>
        <ellipse cx="118.7980" cy="2.0412" rx="0.3991" ry="0.4082" fill="#000000" stroke="#000000" stroke-width="0.1197" stroke-linecap="round" stroke-linejoin="round"/>
        <ellipse cx="118.7980" cy="2.0412" rx="0.3991" ry="0.4082" fill="none" stroke="#161616" stroke-width="0.1197" stroke-linecap="round" stroke-linejoin="round"/>
        <ellipse cx="117.1878" cy="2.0412" rx="0.3991" ry="0.4082" fill="#000000" stroke="#000000" stroke-width="0.1197" stroke-linecap="round" stroke-linejoin="round"/>
        <ellipse cx="117.1878" cy="2.0412" rx="0.3991" ry="0.4082" fill="none" stroke="#161616" stroke-width="0.1197" stroke-linecap="round" stroke-linejoin="round"/>
        <ellipse cx="115.5636" cy="2.0412" rx="0.3991" ry="0.4082" fill="#000000" stroke="#000000" stroke-width="0.1197" stroke-linecap="round" stroke-linejoin="round"/>
        <ellipse cx="115.5636" cy="2.0412" rx="0.3991" ry="0.4082" fill="none" stroke="#161616" stroke-width="0.1197" stroke-linecap="round" stroke-linejoin="round"/>
        <ellipse cx="113.9534" cy="2.0412" rx="0.3991" ry="0.4082" fill="#000000" stroke="#000000" stroke-width="0.1197" stroke-linecap="round" stroke-linejoin="round"/>
        <ellipse cx="113.9534" cy="2.0412" rx="0.3991" ry="0.4082" fill="none" stroke="#161616" stroke-width="0.1197" stroke-linecap="round" stroke-linejoin="round"/>
        <ellipse cx="112.3362" cy="2.0412" rx="0.4061" ry="0.4082" fill="#000000" stroke="#000000" stroke-width="0.1197" stroke-linecap="round" stroke-linejoin="round"/>
        <ellipse cx="112.3362" cy="2.0412" rx="0.4061" ry="0.4082" fill="none" stroke="#161616" stroke-width="0.1197" stroke-linecap="round" stroke-linejoin="round"/>
        <ellipse cx="110.7190" cy="2.0412" rx="0.3991" ry="0.4082" fill="#000000" stroke="#000000" stroke-width="0.1197" stroke-linecap="round" stroke-linejoin="round"/>
        <ellipse cx="110.7190" cy="2.0412" rx="0.3991" ry="0.4082" fill="none" stroke="#161616" stroke-width="0.1197" stroke-linecap="round" stroke-linejoin="round"/>
        <ellipse cx="109.1088" cy="2.0412" rx="0.3991" ry="0.4082" fill="#000000" stroke="#000000" stroke-width="0.1197" stroke-linecap="round" stroke-linejoin="round"/>
        <ellipse cx="109.1088" cy="2.0412" rx="0.3991" ry="0.4082" fill="none" stroke="#161616" stroke-width="0.1197" stroke-linecap="round" stroke-linejoin="round"/>
        <ellipse cx="107.4846" cy="2.0412" rx="0.3991" ry="0.4082" fill="#000000" stroke="#000000" stroke-width="0.1197" stroke-linecap="round" stroke-linejoin="round"/>
        <ellipse cx="107.4846" cy="2.0412" rx="0.3991" ry="0.4082" fill="none" stroke="#161616" stroke-width="0.1197" stroke-linecap="round" stroke-linejoin="round"/>
        <ellipse cx="105.8674" cy="2.0412" rx="0.4061" ry="0.4082" fill="#000000" stroke="#000000" stroke-width="0.1197" stroke-linecap="round" stroke-linejoin="round"/>
        <ellipse cx="105.8674" cy="2.0412" rx="0.4061" ry="0.4082" fill="none" stroke="#161616" stroke-width="0.1197" stroke-linecap="round" stroke-linejoin="round"/>
        <ellipse cx="102.6399" cy="2.0412" rx="0.3991" ry="0.4082" fill="#000000" stroke="#000000" stroke-width="0.1197" stroke-linecap="round" stroke-linejoin="round"/>
        <ellipse cx="102.6399" cy="2.0412" rx="0.3991" ry="0.4082" fill="none" stroke="#161616" stroke-width="0.1197" stroke-linecap="round" stroke-linejoin="round"/>
        <ellipse cx="125.2668" cy="3.7304" rx="0.3991" ry="0.4082" fill="#000000" stroke="#000000" stroke-width="0.1197" stroke-linecap="round" stroke-linejoin="round"/>
        <ellipse cx="125.2668" cy="3.7304" rx="0.3991" ry="0.4082" fill="none" stroke="#161616" stroke-width="0.1197" stroke-linecap="round" stroke-linejoin="round"/>
        <ellipse cx="123.6566" cy="3.7304" rx="0.3991" ry="0.4082" fill="#000000" stroke="#000000" stroke-width="0.1197" stroke-linecap="round" stroke-linejoin="round"/>
        <ellipse cx="123.6566" cy="3.7304" rx="0.3991" ry="0.4082" fill="none" stroke="#161616" stroke-width="0.1197" stroke-linecap="round" stroke-linejoin="round"/>
        <ellipse cx="122.0324" cy="3.7304" rx="0.3991" ry="0.4082" fill="#000000" stroke="#000000" stroke-width="0.1197" stroke-linecap="round" stroke-linejoin="round"/>
        <ellipse cx="122.0324" cy="3.7304" rx="0.3991" ry="0.4082" fill="none" stroke="#161616" stroke-width="0.1197" stroke-linecap="round" stroke-linejoin="round"/>
        <ellipse cx="120.4222" cy="3.7304" rx="0.3991" ry="0.4082" fill="#000000" stroke="#000000" stroke-width="0.1197" stroke-linecap="round" stroke-linejoin="round"/>
        <ellipse cx="120.4222" cy="3.7304" rx="0.3991" ry="0.4082" fill="none" stroke="#161616" stroke-width="0.1197" stroke-linecap="round" stroke-linejoin="round"/>
        <ellipse cx="118.7980" cy="3.7304" rx="0.3991" ry="0.4082" fill="#000000" stroke="#000000" stroke-width="0.1197" stroke-linecap="round" stroke-linejoin="round"/>
        <ellipse cx="118.7980" cy="3.7304" rx="0.3991" ry="0.4082" fill="none" stroke="#161616" stroke-width="0.1197" stroke-linecap="round" stroke-linejoin="round"/>
        <ellipse cx="117.1878" cy="3.7304" rx="0.3991" ry="0.4082" fill="#000000" stroke="#000000" stroke-width="0.1197" stroke-linecap="round" stroke-linejoin="round"/>
        <ellipse cx="117.1878" cy="3.7304" rx="0.3991" ry="0.4082" fill="none" stroke="#161616" stroke-width="0.1197" stroke-linecap="round" stroke-linejoin="round"/>
        <ellipse cx="115.5636" cy="3.7304" rx="0.3991" ry="0.4082" fill="#000000" stroke="#000000" stroke-width="0.1197" stroke-linecap="round" stroke-linejoin="round"/>
        <ellipse cx="115.5636" cy="3.7304" rx="0.3991" ry="0.4082" fill="none" stroke="#161616" stroke-width="0.1197" stroke-linecap="round" stroke-linejoin="round"/>
        <ellipse cx="113.9534" cy="3.7304" rx="0.3991" ry="0.4082" fill="#000000" stroke="#000000" stroke-width="0.1197" stroke-linecap="round" stroke-linejoin="round"/>
        <ellipse cx="113.9534" cy="3.7304" rx="0.3991" ry="0.4082" fill="none" stroke="#161616" stroke-width="0.1197" stroke-linecap="round" stroke-linejoin="round"/>
        <ellipse cx="112.3362" cy="3.7304" rx="0.4061" ry="0.4082" fill="#000000" stroke="#000000" stroke-width="0.1197" stroke-linecap="round" stroke-linejoin="round"/>
        <ellipse cx="112.3362" cy="3.7304" rx="0.4061" ry="0.4082" fill="none" stroke="#161616" stroke-width="0.1197" stroke-linecap="round" stroke-linejoin="round"/>
        <ellipse cx="110.7190" cy="3.7304" rx="0.3991" ry="0.4082" fill="#000000" stroke="#000000" stroke-width="0.1197" stroke-linecap="round" stroke-linejoin="round"/>
        <ellipse cx="110.7190" cy="3.7304" rx="0.3991" ry="0.4082" fill="none" stroke="#161616" stroke-width="0.1197" stroke-linecap="round" stroke-linejoin="round"/>
        <ellipse cx="109.1088" cy="3.7304" rx="0.3991" ry="0.4082" fill="#000000" stroke="#000000" stroke-width="0.1197" stroke-linecap="round" stroke-linejoin="round"/>
        <ellipse cx="109.1088" cy="3.7304" rx="0.3991" ry="0.4082" fill="none" stroke="#161616" stroke-width="0.1197" stroke-linecap="round" stroke-linejoin="round"/>
        <ellipse cx="107.4846" cy="3.7304" rx="0.3991" ry="0.4082" fill="#000000" stroke="#000000" stroke-width="0.1197" stroke-linecap="round" stroke-linejoin="round"/>
        <ellipse cx="107.4846" cy="3.7304" rx="0.3991" ry="0.4082" fill="none" stroke="#161616" stroke-width="0.1197" stroke-linecap="round" stroke-linejoin="round"/>
        <ellipse cx="105.8674" cy="3.7304" rx="0.4061" ry="0.4082" fill="#000000" stroke="#000000" stroke-width="0.1197" stroke-linecap="round" stroke-linejoin="round"/>
        <ellipse cx="105.8674" cy="3.7304" rx="0.4061" ry="0.4082" fill="none" stroke="#161616" stroke-width="0.1197" stroke-linecap="round" stroke-linejoin="round"/>
        <ellipse cx="102.6399" cy="3.7304" rx="0.3991" ry="0.4082" fill="#000000" stroke="#000000" stroke-width="0.1197" stroke-linecap="round" stroke-linejoin="round"/>
        <ellipse cx="102.6399" cy="3.7304" rx="0.3991" ry="0.4082" fill="none" stroke="#161616" stroke-width="0.1197" stroke-linecap="round" stroke-linejoin="round"/>
        <ellipse cx="104.2501" cy="2.0412" rx="0.3991" ry="0.4082" fill="#000000" stroke="#000000" stroke-width="0.1197" stroke-linecap="round" stroke-linejoin="round"/>
        <ellipse cx="104.2501" cy="2.0412" rx="0.3991" ry="0.4082" fill="none" stroke="#161616" stroke-width="0.1197" stroke-linecap="round" stroke-linejoin="round"/>
        <ellipse cx="104.2501" cy="3.7304" rx="0.3991" ry="0.4082" fill="#000000" stroke="#000000" stroke-width="0.1197" stroke-linecap="round" stroke-linejoin="round"/>
        <ellipse cx="104.2501" cy="3.7304" rx="0.3991" ry="0.4082" fill="none" stroke="#161616" stroke-width="0.1197" stroke-linecap="round" stroke-linejoin="round"/>
        <path d="M 128.9143,0.8446 L 128.9423,0.8446 L 128.9563,0.8587 L 128.9843,0.8587 L 128.9983,0.8728 L 129.0123,0.8728 L 129.0123,0.8869 L 129.0263,0.8869 L 129.1103,0.9713 L 129.1103,0.9854 L 129.1663,1.0417 L 129.1663,1.0699 L 129.1803,1.0839 L 129.1803,1.1121 L 129.1943,1.1262 L 129.1943,11.2335 L 129.1803,11.2476 L 129.1803,11.2757 L 129.1663,11.2898 L 129.1663,11.3179 L 129.1103,11.3742 L 129.1103,11.3883 L 129.0263,11.4728 L 129.0123,11.4728 L 129.0123,11.4869 L 128.9983,11.4869 L 128.9843,11.5009 L 128.9563,11.5009 L 128.9423,11.5150 L 99.0905,11.5150 L 99.0765,11.5009 L 99.0485,11.5009 L 99.0205,11.4728 L 99.0065,11.4728 L 98.9225,11.3883 L 98.9225,11.3742 L 98.8665,11.3179 L 98.8665,11.2898 L 98.8525,11.2757 L 98.8525,11.2476 L 98.8385,11.2335 L 98.8385,1.1262 L 98.8525,1.1121 L 98.8525,1.0839 L 98.8665,1.0699 L 98.8665,1.0417 L 98.9225,0.9854 L 98.9225,0.9713 L 99.0065,0.8869 L 99.0205,0.8869 L 99.0485,0.8587 L 99.0765,0.8587 L 99.0905,0.8446 L 128.8302,0.8446 L 128.9143,0.8446 Z" stroke="#000000" stroke-width="0.1197" stroke-linecap="round" stroke-linejoin="round" fill="none"/>
        <path d="M 45.6410,5.8052 L 44.3961,5.8052 L 44.3961,6.1690 L 45.6410,6.1690 L 45.6410,5.8052 Z" stroke="#000000" stroke-width="0.1197" stroke-linecap="round" stroke-linejoin="round" fill="#FFFF00"/>
        <path d="M 48.5533,5.8052 L 47.3084,5.8052 L 47.3084,6.1690 L 48.5533,6.1690 L 48.5533,5.8052 Z" stroke="#000000" stroke-width="0.1197" stroke-linecap="round" stroke-linejoin="round" fill="#83FF00"/>
        <path d="M 50.7542,5.8052 L 49.5093,5.8052 L 49.5093,6.1690 L 50.7542,6.1690 L 50.7542,5.8052 Z" stroke="#000000" stroke-width="0.1197" stroke-linecap="round" stroke-linejoin="round" fill="#FFFF00"/>
        <path d="M 53.6665,5.8052 L 52.4216,5.8052 L 52.4216,6.1690 L 53.6665,6.1690 L 53.6665,5.8052 Z" stroke="#000000" stroke-width="0.1197" stroke-linecap="round" stroke-linejoin="round" fill="#83FF00"/>
        <path d="M 55.8452,5.8052 L 54.6003,5.8052 L 54.6003,6.1690 L 55.8452,6.1690 L 55.8452,5.8052 Z" stroke="#000000" stroke-width="0.1197" stroke-linecap="round" stroke-linejoin="round" fill="#FFFF00"/>
        <path d="M 58.7575,5.8052 L 57.5126,5.8052 L 57.5126,6.1690 L 58.7575,6.1690 L 58.7575,5.8052 Z" stroke="#000000" stroke-width="0.1197" stroke-linecap="round" stroke-linejoin="round" fill="#83FF00"/>
        <path d="M 60.9584,5.8052 L 59.7135,5.8052 L 59.7135,6.1690 L 60.9584,6.1690 L 60.9584,5.8052 Z" stroke="#000000" stroke-width="0.1197" stroke-linecap="round" stroke-linejoin="round" fill="#FFFF00"/>
        <path d="M 63.8707,5.8052 L 62.6258,5.8052 L 62.6258,6.1690 L 63.8707,6.1690 L 63.8707,5.8052 Z" stroke="#000000" stroke-width="0.1197" stroke-linecap="round" stroke-linejoin="round" fill="#83FF00"/>
      </g>
      <!--emf-blob end-->
    </g>
  </g>
</svg>
