<svg xmlns="http://www.w3.org/2000/svg" xmlns:xlink="http://www.w3.org/1999/xlink" version="1.1" width="3.8576000000" height="2.6976000000" viewBox="0 0 69.4394 48.5555">
  <title><![CDATA[FGV-70D4 (R)]]></title>
  <g transform=" scale(4.000000) ">
    <!--converted by libvisio2svg-->
    <g transform=" translate(4.091400,0.720000) ">
      <!--emf-blob start-->
      <g transform="translate(-0.0000, -0.0000)">
        <path d="M 48.4968,13.7709 L 48.4968,13.8404 L 48.5034,13.8543 L 48.5034,13.8961 L 48.5100,13.9239 L 48.5100,13.9378 L 48.5166,13.9517 L 48.5232,13.9795 L 48.5298,13.9934 L 48.5298,14.0073 L 48.5363,14.0213 L 48.5429,14.0491 L 48.5693,14.1047 L 48.5825,14.1186 L 48.5891,14.1325 L 48.5957,14.1325 L 48.6023,14.1464 L 48.6155,14.1604 L 48.6221,14.1743 L 48.6287,14.1743 L 48.6418,14.1882 L 48.6616,14.1882 L 48.6682,14.2021 L 52.6245,14.2021 L 52.6310,14.1882 L 52.6508,14.1882 L 52.6640,14.1743 L 52.6706,14.1743 L 52.6772,14.1604 L 52.6904,14.1464 L 52.6970,14.1325 L 52.7036,14.1325 L 52.7102,14.1186 L 52.7234,14.1047 L 52.7497,14.0491 L 52.7563,14.0213 L 52.7629,14.0073 L 52.7629,13.9934 L 52.7695,13.9795 L 52.7761,13.9517 L 52.7827,13.9378 L 52.7827,13.9239 L 52.7893,13.8961 L 52.7893,13.8543 L 52.7959,13.8404 L 52.7959,12.8806 L 48.4968,12.8806 L 48.4968,13.7570 L 48.4968,13.7709 Z" stroke="#000000" stroke-width="0.1196" stroke-linecap="round" stroke-linejoin="round" fill="#333333"/>
        <path d="M 48.5759,13.0058 L 48.5759,14.0908 " stroke="#000000" stroke-width="0.1196" stroke-linecap="round" stroke-linejoin="round" fill="none"/>
        <path d="M 48.6418,13.0058 L 48.6418,14.0908 " stroke="#000000" stroke-width="0.1196" stroke-linecap="round" stroke-linejoin="round" fill="none"/>
        <path d="M 48.7012,13.0058 L 48.7012,14.0908 " stroke="#000000" stroke-width="0.1196" stroke-linecap="round" stroke-linejoin="round" fill="none"/>
        <path d="M 48.7012,13.0058 L 48.7012,14.0908 " stroke="#000000" stroke-width="0.1196" stroke-linecap="round" stroke-linejoin="round" fill="none"/>
        <path d="M 48.7671,13.0058 L 48.7671,14.0908 " stroke="#000000" stroke-width="0.1196" stroke-linecap="round" stroke-linejoin="round" fill="none"/>
        <path d="M 48.8331,13.0058 L 48.8331,14.0908 " stroke="#000000" stroke-width="0.1196" stroke-linecap="round" stroke-linejoin="round" fill="none"/>
        <path d="M 48.8924,13.0058 L 48.8924,14.0908 " stroke="#000000" stroke-width="0.1196" stroke-linecap="round" stroke-linejoin="round" fill="none"/>
        <path d="M 48.9583,13.0058 L 48.9583,14.0908 " stroke="#000000" stroke-width="0.1196" stroke-linecap="round" stroke-linejoin="round" fill="none"/>
        <path d="M 49.0507,13.0058 L 49.0507,14.0908 " stroke="#494949" stroke-width="0.1196" stroke-linecap="round" stroke-linejoin="round" fill="none"/>
        <path d="M 49.1166,13.0058 L 49.1166,14.0908 " stroke="#494949" stroke-width="0.1196" stroke-linecap="round" stroke-linejoin="round" fill="none"/>
        <path d="M 49.1759,13.0058 L 49.1759,14.0908 " stroke="#494949" stroke-width="0.1196" stroke-linecap="round" stroke-linejoin="round" fill="none"/>
        <path d="M 49.2419,13.0058 L 49.2419,14.0908 " stroke="#494949" stroke-width="0.1196" stroke-linecap="round" stroke-linejoin="round" fill="none"/>
        <path d="M 49.3078,13.0058 L 49.3078,14.0908 " stroke="#494949" stroke-width="0.1196" stroke-linecap="round" stroke-linejoin="round" fill="none"/>
        <path d="M 49.3672,13.0058 L 49.3672,14.0908 " stroke="#494949" stroke-width="0.1196" stroke-linecap="round" stroke-linejoin="round" fill="none"/>
        <path d="M 49.4331,13.0058 L 49.4331,14.0908 " stroke="#494949" stroke-width="0.1196" stroke-linecap="round" stroke-linejoin="round" fill="none"/>
        <path d="M 49.5188,13.0058 L 49.5188,14.0908 " stroke="#666666" stroke-width="0.1196" stroke-linecap="round" stroke-linejoin="round" fill="none"/>
        <path d="M 49.5847,13.0058 L 49.5847,14.0908 " stroke="#666666" stroke-width="0.1196" stroke-linecap="round" stroke-linejoin="round" fill="none"/>
        <path d="M 49.6441,13.0058 L 49.6441,14.0908 " stroke="#666666" stroke-width="0.1196" stroke-linecap="round" stroke-linejoin="round" fill="none"/>
        <path d="M 49.7100,13.0058 L 49.7100,14.0908 " stroke="#666666" stroke-width="0.1196" stroke-linecap="round" stroke-linejoin="round" fill="none"/>
        <path d="M 49.7760,13.0058 L 49.7760,14.0908 " stroke="#666666" stroke-width="0.1196" stroke-linecap="round" stroke-linejoin="round" fill="none"/>
        <path d="M 49.8353,13.0058 L 49.8353,14.0908 " stroke="#666666" stroke-width="0.1196" stroke-linecap="round" stroke-linejoin="round" fill="none"/>
        <path d="M 49.9012,13.0058 L 49.9012,14.0908 " stroke="#666666" stroke-width="0.1196" stroke-linecap="round" stroke-linejoin="round" fill="none"/>
        <path d="M 49.9936,13.0058 L 49.9936,14.0908 " stroke="#7C7C7C" stroke-width="0.1196" stroke-linecap="round" stroke-linejoin="round" fill="none"/>
        <path d="M 50.0595,13.0058 L 50.0595,14.0908 " stroke="#7C7C7C" stroke-width="0.1196" stroke-linecap="round" stroke-linejoin="round" fill="none"/>
        <path d="M 50.1188,13.0058 L 50.1188,14.0908 " stroke="#7C7C7C" stroke-width="0.1196" stroke-linecap="round" stroke-linejoin="round" fill="none"/>
        <path d="M 50.1848,13.0058 L 50.1848,14.0908 " stroke="#7C7C7C" stroke-width="0.1196" stroke-linecap="round" stroke-linejoin="round" fill="none"/>
        <path d="M 50.2507,13.0058 L 50.2507,14.0908 " stroke="#7C7C7C" stroke-width="0.1196" stroke-linecap="round" stroke-linejoin="round" fill="none"/>
        <path d="M 50.3101,13.0058 L 50.3101,14.0908 " stroke="#7C7C7C" stroke-width="0.1196" stroke-linecap="round" stroke-linejoin="round" fill="none"/>
        <path d="M 50.3760,13.0058 L 50.3760,14.0908 " stroke="#7C7C7C" stroke-width="0.1196" stroke-linecap="round" stroke-linejoin="round" fill="none"/>
        <path d="M 50.4617,13.0058 L 50.4617,14.0908 " stroke="#999999" stroke-width="0.1196" stroke-linecap="round" stroke-linejoin="round" fill="none"/>
        <path d="M 50.5277,13.0058 L 50.5277,14.0908 " stroke="#999999" stroke-width="0.1196" stroke-linecap="round" stroke-linejoin="round" fill="none"/>
        <path d="M 50.5870,13.0058 L 50.5870,14.0908 " stroke="#999999" stroke-width="0.1196" stroke-linecap="round" stroke-linejoin="round" fill="none"/>
        <path d="M 50.6529,13.0058 L 50.6529,14.0908 " stroke="#999999" stroke-width="0.1196" stroke-linecap="round" stroke-linejoin="round" fill="none"/>
        <path d="M 50.7189,13.0058 L 50.7189,14.0908 " stroke="#999999" stroke-width="0.1196" stroke-linecap="round" stroke-linejoin="round" fill="none"/>
        <path d="M 50.7782,13.0058 L 50.7782,14.0908 " stroke="#999999" stroke-width="0.1196" stroke-linecap="round" stroke-linejoin="round" fill="none"/>
        <path d="M 50.8441,13.0058 L 50.8441,14.0908 " stroke="#999999" stroke-width="0.1196" stroke-linecap="round" stroke-linejoin="round" fill="none"/>
        <path d="M 50.9365,13.0058 L 50.9365,14.0908 " stroke="#7C7C7C" stroke-width="0.1196" stroke-linecap="round" stroke-linejoin="round" fill="none"/>
        <path d="M 51.0024,13.0058 L 51.0024,14.0908 " stroke="#7C7C7C" stroke-width="0.1196" stroke-linecap="round" stroke-linejoin="round" fill="none"/>
        <path d="M 51.0617,13.0058 L 51.0617,14.0908 " stroke="#7C7C7C" stroke-width="0.1196" stroke-linecap="round" stroke-linejoin="round" fill="none"/>
        <path d="M 51.1277,13.0058 L 51.1277,14.0908 " stroke="#7C7C7C" stroke-width="0.1196" stroke-linecap="round" stroke-linejoin="round" fill="none"/>
        <path d="M 51.1936,13.0058 L 51.1936,14.0908 " stroke="#7C7C7C" stroke-width="0.1196" stroke-linecap="round" stroke-linejoin="round" fill="none"/>
        <path d="M 51.2530,13.0058 L 51.2530,14.0908 " stroke="#7C7C7C" stroke-width="0.1196" stroke-linecap="round" stroke-linejoin="round" fill="none"/>
        <path d="M 51.3189,13.0058 L 51.3189,14.0908 " stroke="#7C7C7C" stroke-width="0.1196" stroke-linecap="round" stroke-linejoin="round" fill="none"/>
        <path d="M 51.4046,13.0058 L 51.4046,14.0908 " stroke="#666666" stroke-width="0.1196" stroke-linecap="round" stroke-linejoin="round" fill="none"/>
        <path d="M 51.4706,13.0058 L 51.4706,14.0908 " stroke="#666666" stroke-width="0.1196" stroke-linecap="round" stroke-linejoin="round" fill="none"/>
        <path d="M 51.5299,13.0058 L 51.5299,14.0908 " stroke="#666666" stroke-width="0.1196" stroke-linecap="round" stroke-linejoin="round" fill="none"/>
        <path d="M 51.5958,13.0058 L 51.5958,14.0908 " stroke="#666666" stroke-width="0.1196" stroke-linecap="round" stroke-linejoin="round" fill="none"/>
        <path d="M 51.6618,13.0058 L 51.6618,14.0908 " stroke="#666666" stroke-width="0.1196" stroke-linecap="round" stroke-linejoin="round" fill="none"/>
        <path d="M 51.7211,13.0058 L 51.7211,14.0908 " stroke="#666666" stroke-width="0.1196" stroke-linecap="round" stroke-linejoin="round" fill="none"/>
        <path d="M 51.7871,13.0058 L 51.7871,14.0908 " stroke="#666666" stroke-width="0.1196" stroke-linecap="round" stroke-linejoin="round" fill="none"/>
        <path d="M 51.8794,13.0058 L 51.8794,14.0908 " stroke="#494949" stroke-width="0.1196" stroke-linecap="round" stroke-linejoin="round" fill="none"/>
        <path d="M 51.9453,13.0058 L 51.9453,14.0908 " stroke="#494949" stroke-width="0.1196" stroke-linecap="round" stroke-linejoin="round" fill="none"/>
        <path d="M 52.0046,13.0058 L 52.0046,14.0908 " stroke="#494949" stroke-width="0.1196" stroke-linecap="round" stroke-linejoin="round" fill="none"/>
        <path d="M 52.0706,13.0058 L 52.0706,14.0908 " stroke="#494949" stroke-width="0.1196" stroke-linecap="round" stroke-linejoin="round" fill="none"/>
        <path d="M 52.1365,13.0058 L 52.1365,14.0908 " stroke="#494949" stroke-width="0.1196" stroke-linecap="round" stroke-linejoin="round" fill="none"/>
        <path d="M 52.1959,13.0058 L 52.1959,14.0908 " stroke="#494949" stroke-width="0.1196" stroke-linecap="round" stroke-linejoin="round" fill="none"/>
        <path d="M 52.2618,13.0058 L 52.2618,14.0908 " stroke="#494949" stroke-width="0.1196" stroke-linecap="round" stroke-linejoin="round" fill="none"/>
        <path d="M 52.3475,13.0058 L 52.3475,14.0908 " stroke="#000000" stroke-width="0.1196" stroke-linecap="round" stroke-linejoin="round" fill="none"/>
        <path d="M 52.4135,13.0058 L 52.4135,14.0908 " stroke="#000000" stroke-width="0.1196" stroke-linecap="round" stroke-linejoin="round" fill="none"/>
        <path d="M 52.4728,13.0058 L 52.4728,14.0908 " stroke="#000000" stroke-width="0.1196" stroke-linecap="round" stroke-linejoin="round" fill="none"/>
        <path d="M 52.5387,13.0058 L 52.5387,14.0908 " stroke="#000000" stroke-width="0.1196" stroke-linecap="round" stroke-linejoin="round" fill="none"/>
        <path d="M 52.6047,13.0058 L 52.6047,14.0908 " stroke="#000000" stroke-width="0.1196" stroke-linecap="round" stroke-linejoin="round" fill="none"/>
        <path d="M 52.6640,13.0058 L 52.6640,14.0908 " stroke="#000000" stroke-width="0.1196" stroke-linecap="round" stroke-linejoin="round" fill="none"/>
        <path d="M 52.7300,13.0058 L 52.7300,14.0908 " stroke="#000000" stroke-width="0.1196" stroke-linecap="round" stroke-linejoin="round" fill="none"/>
        <path d="M 8.1235,13.7709 L 8.1235,13.8404 L 8.1301,13.8543 L 8.1301,13.8961 L 8.1366,13.9239 L 8.1366,13.9378 L 8.1432,13.9517 L 8.1498,13.9795 L 8.1564,13.9934 L 8.1564,14.0073 L 8.1630,14.0213 L 8.1696,14.0491 L 8.1960,14.1047 L 8.2092,14.1186 L 8.2158,14.1325 L 8.2224,14.1325 L 8.2290,14.1464 L 8.2421,14.1604 L 8.2487,14.1743 L 8.2553,14.1743 L 8.2685,14.1882 L 8.2883,14.1882 L 8.2949,14.2021 L 12.2511,14.2021 L 12.2577,14.1882 L 12.2775,14.1882 L 12.2907,14.1743 L 12.2973,14.1743 L 12.3039,14.1604 L 12.3171,14.1464 L 12.3237,14.1325 L 12.3303,14.1325 L 12.3368,14.1186 L 12.3500,14.1047 L 12.3764,14.0491 L 12.3830,14.0213 L 12.3896,14.0073 L 12.3896,13.9934 L 12.3962,13.9795 L 12.4028,13.9517 L 12.4094,13.9378 L 12.4094,13.9239 L 12.4160,13.8961 L 12.4160,13.8543 L 12.4226,13.8404 L 12.4226,12.8806 L 8.1235,12.8806 L 8.1235,13.7570 L 8.1235,13.7709 Z" stroke="#000000" stroke-width="0.1196" stroke-linecap="round" stroke-linejoin="round" fill="#333333"/>
        <path d="M 8.2026,13.0058 L 8.2026,14.0908 " stroke="#000000" stroke-width="0.1196" stroke-linecap="round" stroke-linejoin="round" fill="none"/>
        <path d="M 8.2685,13.0058 L 8.2685,14.0908 " stroke="#000000" stroke-width="0.1196" stroke-linecap="round" stroke-linejoin="round" fill="none"/>
        <path d="M 8.3279,13.0058 L 8.3279,14.0908 " stroke="#000000" stroke-width="0.1196" stroke-linecap="round" stroke-linejoin="round" fill="none"/>
        <path d="M 8.3279,13.0058 L 8.3279,14.0908 " stroke="#000000" stroke-width="0.1196" stroke-linecap="round" stroke-linejoin="round" fill="none"/>
        <path d="M 8.3938,13.0058 L 8.3938,14.0908 " stroke="#000000" stroke-width="0.1196" stroke-linecap="round" stroke-linejoin="round" fill="none"/>
        <path d="M 8.4597,13.0058 L 8.4597,14.0908 " stroke="#000000" stroke-width="0.1196" stroke-linecap="round" stroke-linejoin="round" fill="none"/>
        <path d="M 8.5191,13.0058 L 8.5191,14.0908 " stroke="#000000" stroke-width="0.1196" stroke-linecap="round" stroke-linejoin="round" fill="none"/>
        <path d="M 8.5850,13.0058 L 8.5850,14.0908 " stroke="#000000" stroke-width="0.1196" stroke-linecap="round" stroke-linejoin="round" fill="none"/>
        <path d="M 8.6773,13.0058 L 8.6773,14.0908 " stroke="#494949" stroke-width="0.1196" stroke-linecap="round" stroke-linejoin="round" fill="none"/>
        <path d="M 8.7433,13.0058 L 8.7433,14.0908 " stroke="#494949" stroke-width="0.1196" stroke-linecap="round" stroke-linejoin="round" fill="none"/>
        <path d="M 8.8026,13.0058 L 8.8026,14.0908 " stroke="#494949" stroke-width="0.1196" stroke-linecap="round" stroke-linejoin="round" fill="none"/>
        <path d="M 8.8685,13.0058 L 8.8685,14.0908 " stroke="#494949" stroke-width="0.1196" stroke-linecap="round" stroke-linejoin="round" fill="none"/>
        <path d="M 8.9345,13.0058 L 8.9345,14.0908 " stroke="#494949" stroke-width="0.1196" stroke-linecap="round" stroke-linejoin="round" fill="none"/>
        <path d="M 8.9938,13.0058 L 8.9938,14.0908 " stroke="#494949" stroke-width="0.1196" stroke-linecap="round" stroke-linejoin="round" fill="none"/>
        <path d="M 9.0598,13.0058 L 9.0598,14.0908 " stroke="#494949" stroke-width="0.1196" stroke-linecap="round" stroke-linejoin="round" fill="none"/>
        <path d="M 9.1455,13.0058 L 9.1455,14.0908 " stroke="#666666" stroke-width="0.1196" stroke-linecap="round" stroke-linejoin="round" fill="none"/>
        <path d="M 9.2114,13.0058 L 9.2114,14.0908 " stroke="#666666" stroke-width="0.1196" stroke-linecap="round" stroke-linejoin="round" fill="none"/>
        <path d="M 9.2708,13.0058 L 9.2708,14.0908 " stroke="#666666" stroke-width="0.1196" stroke-linecap="round" stroke-linejoin="round" fill="none"/>
        <path d="M 9.3367,13.0058 L 9.3367,14.0908 " stroke="#666666" stroke-width="0.1196" stroke-linecap="round" stroke-linejoin="round" fill="none"/>
        <path d="M 9.4026,13.0058 L 9.4026,14.0908 " stroke="#666666" stroke-width="0.1196" stroke-linecap="round" stroke-linejoin="round" fill="none"/>
        <path d="M 9.4620,13.0058 L 9.4620,14.0908 " stroke="#666666" stroke-width="0.1196" stroke-linecap="round" stroke-linejoin="round" fill="none"/>
        <path d="M 9.5279,13.0058 L 9.5279,14.0908 " stroke="#666666" stroke-width="0.1196" stroke-linecap="round" stroke-linejoin="round" fill="none"/>
        <path d="M 9.6202,13.0058 L 9.6202,14.0908 " stroke="#7C7C7C" stroke-width="0.1196" stroke-linecap="round" stroke-linejoin="round" fill="none"/>
        <path d="M 9.6862,13.0058 L 9.6862,14.0908 " stroke="#7C7C7C" stroke-width="0.1196" stroke-linecap="round" stroke-linejoin="round" fill="none"/>
        <path d="M 9.7455,13.0058 L 9.7455,14.0908 " stroke="#7C7C7C" stroke-width="0.1196" stroke-linecap="round" stroke-linejoin="round" fill="none"/>
        <path d="M 9.8115,13.0058 L 9.8115,14.0908 " stroke="#7C7C7C" stroke-width="0.1196" stroke-linecap="round" stroke-linejoin="round" fill="none"/>
        <path d="M 9.8774,13.0058 L 9.8774,14.0908 " stroke="#7C7C7C" stroke-width="0.1196" stroke-linecap="round" stroke-linejoin="round" fill="none"/>
        <path d="M 9.9367,13.0058 L 9.9367,14.0908 " stroke="#7C7C7C" stroke-width="0.1196" stroke-linecap="round" stroke-linejoin="round" fill="none"/>
        <path d="M 10.0027,13.0058 L 10.0027,14.0908 " stroke="#7C7C7C" stroke-width="0.1196" stroke-linecap="round" stroke-linejoin="round" fill="none"/>
        <path d="M 10.0884,13.0058 L 10.0884,14.0908 " stroke="#999999" stroke-width="0.1196" stroke-linecap="round" stroke-linejoin="round" fill="none"/>
        <path d="M 10.1543,13.0058 L 10.1543,14.0908 " stroke="#999999" stroke-width="0.1196" stroke-linecap="round" stroke-linejoin="round" fill="none"/>
        <path d="M 10.2137,13.0058 L 10.2137,14.0908 " stroke="#999999" stroke-width="0.1196" stroke-linecap="round" stroke-linejoin="round" fill="none"/>
        <path d="M 10.2796,13.0058 L 10.2796,14.0908 " stroke="#999999" stroke-width="0.1196" stroke-linecap="round" stroke-linejoin="round" fill="none"/>
        <path d="M 10.3455,13.0058 L 10.3455,14.0908 " stroke="#999999" stroke-width="0.1196" stroke-linecap="round" stroke-linejoin="round" fill="none"/>
        <path d="M 10.4049,13.0058 L 10.4049,14.0908 " stroke="#999999" stroke-width="0.1196" stroke-linecap="round" stroke-linejoin="round" fill="none"/>
        <path d="M 10.4708,13.0058 L 10.4708,14.0908 " stroke="#999999" stroke-width="0.1196" stroke-linecap="round" stroke-linejoin="round" fill="none"/>
        <path d="M 10.5631,13.0058 L 10.5631,14.0908 " stroke="#7C7C7C" stroke-width="0.1196" stroke-linecap="round" stroke-linejoin="round" fill="none"/>
        <path d="M 10.6291,13.0058 L 10.6291,14.0908 " stroke="#7C7C7C" stroke-width="0.1196" stroke-linecap="round" stroke-linejoin="round" fill="none"/>
        <path d="M 10.6884,13.0058 L 10.6884,14.0908 " stroke="#7C7C7C" stroke-width="0.1196" stroke-linecap="round" stroke-linejoin="round" fill="none"/>
        <path d="M 10.7544,13.0058 L 10.7544,14.0908 " stroke="#7C7C7C" stroke-width="0.1196" stroke-linecap="round" stroke-linejoin="round" fill="none"/>
        <path d="M 10.8203,13.0058 L 10.8203,14.0908 " stroke="#7C7C7C" stroke-width="0.1196" stroke-linecap="round" stroke-linejoin="round" fill="none"/>
        <path d="M 10.8796,13.0058 L 10.8796,14.0908 " stroke="#7C7C7C" stroke-width="0.1196" stroke-linecap="round" stroke-linejoin="round" fill="none"/>
        <path d="M 10.9456,13.0058 L 10.9456,14.0908 " stroke="#7C7C7C" stroke-width="0.1196" stroke-linecap="round" stroke-linejoin="round" fill="none"/>
        <path d="M 11.0313,13.0058 L 11.0313,14.0908 " stroke="#666666" stroke-width="0.1196" stroke-linecap="round" stroke-linejoin="round" fill="none"/>
        <path d="M 11.0972,13.0058 L 11.0972,14.0908 " stroke="#666666" stroke-width="0.1196" stroke-linecap="round" stroke-linejoin="round" fill="none"/>
        <path d="M 11.1566,13.0058 L 11.1566,14.0908 " stroke="#666666" stroke-width="0.1196" stroke-linecap="round" stroke-linejoin="round" fill="none"/>
        <path d="M 11.2225,13.0058 L 11.2225,14.0908 " stroke="#666666" stroke-width="0.1196" stroke-linecap="round" stroke-linejoin="round" fill="none"/>
        <path d="M 11.2884,13.0058 L 11.2884,14.0908 " stroke="#666666" stroke-width="0.1196" stroke-linecap="round" stroke-linejoin="round" fill="none"/>
        <path d="M 11.3478,13.0058 L 11.3478,14.0908 " stroke="#666666" stroke-width="0.1196" stroke-linecap="round" stroke-linejoin="round" fill="none"/>
        <path d="M 11.4137,13.0058 L 11.4137,14.0908 " stroke="#666666" stroke-width="0.1196" stroke-linecap="round" stroke-linejoin="round" fill="none"/>
        <path d="M 11.5060,13.0058 L 11.5060,14.0908 " stroke="#494949" stroke-width="0.1196" stroke-linecap="round" stroke-linejoin="round" fill="none"/>
        <path d="M 11.5720,13.0058 L 11.5720,14.0908 " stroke="#494949" stroke-width="0.1196" stroke-linecap="round" stroke-linejoin="round" fill="none"/>
        <path d="M 11.6313,13.0058 L 11.6313,14.0908 " stroke="#494949" stroke-width="0.1196" stroke-linecap="round" stroke-linejoin="round" fill="none"/>
        <path d="M 11.6973,13.0058 L 11.6973,14.0908 " stroke="#494949" stroke-width="0.1196" stroke-linecap="round" stroke-linejoin="round" fill="none"/>
        <path d="M 11.7632,13.0058 L 11.7632,14.0908 " stroke="#494949" stroke-width="0.1196" stroke-linecap="round" stroke-linejoin="round" fill="none"/>
        <path d="M 11.8225,13.0058 L 11.8225,14.0908 " stroke="#494949" stroke-width="0.1196" stroke-linecap="round" stroke-linejoin="round" fill="none"/>
        <path d="M 11.8885,13.0058 L 11.8885,14.0908 " stroke="#494949" stroke-width="0.1196" stroke-linecap="round" stroke-linejoin="round" fill="none"/>
        <path d="M 11.9742,13.0058 L 11.9742,14.0908 " stroke="#000000" stroke-width="0.1196" stroke-linecap="round" stroke-linejoin="round" fill="none"/>
        <path d="M 12.0401,13.0058 L 12.0401,14.0908 " stroke="#000000" stroke-width="0.1196" stroke-linecap="round" stroke-linejoin="round" fill="none"/>
        <path d="M 12.0995,13.0058 L 12.0995,14.0908 " stroke="#000000" stroke-width="0.1196" stroke-linecap="round" stroke-linejoin="round" fill="none"/>
        <path d="M 12.1654,13.0058 L 12.1654,14.0908 " stroke="#000000" stroke-width="0.1196" stroke-linecap="round" stroke-linejoin="round" fill="none"/>
        <path d="M 12.2313,13.0058 L 12.2313,14.0908 " stroke="#000000" stroke-width="0.1196" stroke-linecap="round" stroke-linejoin="round" fill="none"/>
        <path d="M 12.2907,13.0058 L 12.2907,14.0908 " stroke="#000000" stroke-width="0.1196" stroke-linecap="round" stroke-linejoin="round" fill="none"/>
        <path d="M 12.3566,13.0058 L 12.3566,14.0908 " stroke="#000000" stroke-width="0.1196" stroke-linecap="round" stroke-linejoin="round" fill="none"/>
        <path d="M 60.9293,0.0281 L 0.0280,0.0281 L 0.0280,12.9388 L 60.9293,12.9388 L 60.9293,0.0281 Z" stroke="#000000" stroke-width="0.1196" stroke-linecap="round" stroke-linejoin="round" fill="#EAEAEA"/>
        <path d="M 60.5655,0.4210 L 0.3918,0.4210 L 0.3918,12.9388 L 60.5655,12.9388 L 60.5655,0.4210 Z" stroke="#000000" stroke-width="0.1196" stroke-linecap="round" stroke-linejoin="round" fill="#EAEAEA"/>
        <path d="M 60.9293,0.0281 L 0.0280,0.0281 L 0.0280,12.9388 L 60.9293,12.9388 L 60.9293,0.0281 Z" stroke="#000000" stroke-width="0.1196" stroke-linecap="round" stroke-linejoin="round" fill="none"/>
        <ellipse cx="6.6254" cy="5.3598" rx="0.7428" ry="0.7458" fill="none" stroke="#0A0A0A" stroke-width="0.1196" stroke-linecap="round" stroke-linejoin="round"/>
        <path d="M 6.6848,4.8328 L 6.6848,5.5587 " stroke="#000000" stroke-width="0.1196" stroke-linecap="round" stroke-linejoin="round" fill="none"/>
        <path d="M 6.1896,5.6979 L 7.1800,5.6979 " stroke="#000000" stroke-width="0.1196" stroke-linecap="round" stroke-linejoin="round" fill="none"/>
        <path d="M 6.2986,5.8670 L 7.0710,5.8670 " stroke="#000000" stroke-width="0.1196" stroke-linecap="round" stroke-linejoin="round" fill="none"/>
        <path d="M 6.2986,5.8670 L 7.0710,5.8670 " stroke="#000000" stroke-width="0.1196" stroke-linecap="round" stroke-linejoin="round" fill="none"/>
        <path d="M 6.4372,6.0360 L 6.9324,6.0360 " stroke="#000000" stroke-width="0.1196" stroke-linecap="round" stroke-linejoin="round" fill="none"/>
        <ellipse cx="6.2609" cy="11.4570" rx="0.2688" ry="0.2643" fill="#000000" stroke="#000000" stroke-width="0.1196" stroke-linecap="round" stroke-linejoin="round"/>
        <ellipse cx="6.2609" cy="11.4570" rx="0.2688" ry="0.2643" fill="none" stroke="#0A0A0A" stroke-width="0.1196" stroke-linecap="round" stroke-linejoin="round"/>
        <text font-family="Arial" fill="#000000" style="white-space:pre;" font-weight="400" text-anchor="start" x="6.5969" y="13.6658" font-size="0.1232"><![CDATA[DC+12V]]></text>
        <path d="M 47.0822,2.5873 L 42.2860,2.5873 L 42.2860,10.3059 L 47.0822,10.3059 L 47.0822,2.5873 Z" stroke="#0A0A0A" stroke-width="0.1196" stroke-linecap="round" stroke-linejoin="round" fill="#FFFFFF"/>
        <path d="M 52.5160,2.5873 L 47.7197,2.5873 L 47.7197,10.3059 L 52.5160,10.3059 L 52.5160,2.5873 Z" stroke="#0A0A0A" stroke-width="0.1196" stroke-linecap="round" stroke-linejoin="round" fill="#FFFFFF"/>
        <ellipse cx="59.2864" cy="9.1915" rx="0.6970" ry="0.7104" fill="#666666" stroke="#000000" stroke-width="0.1196" stroke-linecap="round" stroke-linejoin="round"/>
        <ellipse cx="59.2864" cy="9.1915" rx="0.6970" ry="0.7104" fill="none" stroke="#000000" stroke-width="0.1196" stroke-linecap="round" stroke-linejoin="round"/>
        <ellipse cx="59.2864" cy="9.1915" rx="0.6316" ry="0.6448" fill="#7F7F7F" stroke="#000000" stroke-width="0.1196" stroke-linecap="round" stroke-linejoin="round"/>
        <ellipse cx="59.2864" cy="9.1915" rx="0.6316" ry="0.6448" fill="none" stroke="#7F7F7F" stroke-width="0.1196" stroke-linecap="round" stroke-linejoin="round"/>
        <path d="M 58.8072,9.1369 L 58.7855,9.1369 L 58.7637,9.1587 L 58.7637,9.1806 L 58.7419,9.1806 L 58.7419,9.3117 L 58.7637,9.3117 L 58.7637,9.3336 L 58.7855,9.3554 L 59.2428,9.3554 L 59.2428,9.8363 L 59.2646,9.8363 L 59.2646,9.8582 L 59.2864,9.8582 L 59.2864,9.8801 L 59.4171,9.8801 L 59.4171,9.8582 L 59.4389,9.8582 L 59.4389,9.8363 L 59.4607,9.8363 L 59.4607,9.3554 L 59.9398,9.3554 L 59.9398,9.3336 L 59.9616,9.3336 L 59.9616,9.3117 L 59.9834,9.3117 L 59.9834,9.1806 L 59.9616,9.1806 L 59.9616,9.1587 L 59.9398,9.1587 L 59.9398,9.1369 L 59.4607,9.1369 L 59.4607,8.6778 L 59.4389,8.6560 L 59.4171,8.6560 L 59.4171,8.6341 L 59.2864,8.6341 L 59.2864,8.6560 L 59.2646,8.6560 L 59.2428,8.6778 L 59.2428,9.1369 L 58.8290,9.1369 L 58.8072,9.1369 Z" stroke="#161616" stroke-width="0.1196" stroke-linecap="round" stroke-linejoin="round" fill="#494949"/>
        <path d="M 58.7201,9.2024 L 58.7201,9.3117 L 58.7419,9.3336 L 58.7637,9.3336 L 58.7637,9.3554 L 59.2428,9.3554 L 59.2428,9.8582 L 59.2646,9.8801 L 59.2864,9.8801 L 59.2864,9.9019 L 59.3518,9.9019 L 59.3735,9.9019 " stroke="#BFBFBF" stroke-width="0.1196" stroke-linecap="round" stroke-linejoin="round" fill="none"/>
        <path d="M 59.2428,8.6778 L 59.2428,9.1150 L 59.2428,9.1369 " stroke="#BFBFBF" stroke-width="0.1196" stroke-linecap="round" stroke-linejoin="round" fill="none"/>
        <text font-family="Arial" fill="#000000" style="white-space:pre;" font-weight="400" text-anchor="start" x="73.2259" y="13.2870" font-size="0.2396"><![CDATA[WAN 2]]></text>
        <text font-family="Arial" fill="#000000" style="white-space:pre;" font-weight="400" text-anchor="start" x="76.0791" y="13.2870" font-size="0.2396"><![CDATA[EXT 2]]></text>
        <text font-family="Arial" fill="#000000" style="white-space:pre;" font-weight="400" text-anchor="start" x="78.1701" y="13.2870" font-size="0.2396"><![CDATA[LINE 4]]></text>
        <text font-family="Arial" fill="#000000" style="white-space:pre;" font-weight="400" text-anchor="start" x="78.1701" y="9.6148" font-size="0.2396"><![CDATA[LINE 3]]></text>
        <text font-family="Arial" fill="#000000" style="white-space:pre;" font-weight="400" text-anchor="start" x="73.2259" y="9.6148" font-size="0.2396"><![CDATA[WAN 1]]></text>
        <text font-family="Arial" fill="#000000" style="white-space:pre;" font-weight="400" text-anchor="start" x="76.0791" y="9.6148" font-size="0.2396"><![CDATA[EXT 1]]></text>
        <text font-family="Arial" fill="#000000" style="white-space:pre;" font-weight="400" text-anchor="start" x="62.5970" y="13.2870" font-size="0.2396"><![CDATA[USB]]></text>
        <path d="M 57.8384,2.5873 L 53.0421,2.5873 L 53.0421,10.3059 L 57.8384,10.3059 L 57.8384,2.5873 Z" stroke="#0A0A0A" stroke-width="0.1196" stroke-linecap="round" stroke-linejoin="round" fill="#FFFFFF"/>
        <text font-family="Arial" fill="#000000" style="white-space:pre;" font-weight="400" text-anchor="start" x="63.1001" y="7.2151" font-size="0.1113"><![CDATA[LINE 2]]></text>
        <text font-family="Arial" fill="#000000" style="white-space:pre;" font-weight="400" text-anchor="start" x="63.1001" y="3.5930" font-size="0.1113"><![CDATA[LINE 1]]></text>
        <ellipse cx="41.1542" cy="9.1915" rx="0.7079" ry="0.7104" fill="#666666" stroke="#000000" stroke-width="0.1196" stroke-linecap="round" stroke-linejoin="round"/>
        <ellipse cx="41.1542" cy="9.1915" rx="0.7079" ry="0.7104" fill="none" stroke="#000000" stroke-width="0.1196" stroke-linecap="round" stroke-linejoin="round"/>
        <ellipse cx="41.1433" cy="9.1915" rx="0.6316" ry="0.6448" fill="#7F7F7F" stroke="#000000" stroke-width="0.1196" stroke-linecap="round" stroke-linejoin="round"/>
        <ellipse cx="41.1433" cy="9.1915" rx="0.6316" ry="0.6448" fill="none" stroke="#7F7F7F" stroke-width="0.1196" stroke-linecap="round" stroke-linejoin="round"/>
        <path d="M 40.6641,9.1369 L 40.6423,9.1369 L 40.6206,9.1587 L 40.6206,9.1806 L 40.5988,9.1806 L 40.5988,9.3117 L 40.6206,9.3117 L 40.6206,9.3336 L 40.6423,9.3554 L 41.0997,9.3554 L 41.0997,9.8363 L 41.1215,9.8363 L 41.1215,9.8582 L 41.1433,9.8582 L 41.1433,9.8801 L 41.2740,9.8801 L 41.2740,9.8582 L 41.2958,9.8582 L 41.2958,9.8363 L 41.3175,9.8363 L 41.3175,9.3554 L 41.7967,9.3554 L 41.7967,9.3336 L 41.8185,9.3336 L 41.8185,9.3117 L 41.8403,9.3117 L 41.8403,9.1806 L 41.8185,9.1806 L 41.8185,9.1587 L 41.7967,9.1587 L 41.7967,9.1369 L 41.3175,9.1369 L 41.3175,8.6778 L 41.2958,8.6560 L 41.2740,8.6560 L 41.2740,8.6341 L 41.1433,8.6341 L 41.1433,8.6560 L 41.1215,8.6560 L 41.0997,8.6778 L 41.0997,9.1369 L 40.6859,9.1369 L 40.6641,9.1369 Z" stroke="#161616" stroke-width="0.1196" stroke-linecap="round" stroke-linejoin="round" fill="#494949"/>
        <path d="M 40.5770,9.2024 L 40.5770,9.3117 L 40.5988,9.3336 L 40.6206,9.3336 L 40.6206,9.3554 L 41.0997,9.3554 L 41.0997,9.8582 L 41.1215,9.8801 L 41.1433,9.8801 L 41.1433,9.9019 L 41.2086,9.9019 L 41.2304,9.9019 " stroke="#BFBFBF" stroke-width="0.1196" stroke-linecap="round" stroke-linejoin="round" fill="none"/>
        <path d="M 41.0997,8.6778 L 41.0997,9.1150 L 41.0997,9.1369 " stroke="#BFBFBF" stroke-width="0.1196" stroke-linecap="round" stroke-linejoin="round" fill="none"/>
        <path d="M 39.9421,2.5873 L 22.7150,2.5873 L 22.7150,10.3059 L 39.9421,10.3059 L 39.9421,2.5873 Z" stroke="#0A0A0A" stroke-width="0.1196" stroke-linecap="round" stroke-linejoin="round" fill="#FFFFFF"/>
        <text font-family="Arial" fill="#000000" style="white-space:pre;" font-weight="400" text-anchor="start" x="44.9939" y="3.8526" font-size="0.3998"><![CDATA[1]]></text>
        <text font-family="Arial" fill="#000000" style="white-space:pre;" font-weight="400" text-anchor="start" x="44.9939" y="7.4748" font-size="0.3998"><![CDATA[2]]></text>
        <text font-family="Arial" fill="#000000" style="white-space:pre;" font-weight="400" text-anchor="start" x="42.3408" y="3.8526" font-size="0.3998"><![CDATA[3]]></text>
        <text font-family="Arial" fill="#000000" style="white-space:pre;" font-weight="400" text-anchor="start" x="42.3408" y="7.4748" font-size="0.3998"><![CDATA[4]]></text>
        <text font-family="Arial" fill="#000000" style="white-space:pre;" font-weight="400" text-anchor="start" x="39.6877" y="3.8526" font-size="0.3998"><![CDATA[5]]></text>
        <text font-family="Arial" fill="#000000" style="white-space:pre;" font-weight="400" text-anchor="start" x="39.6877" y="7.4748" font-size="0.3998"><![CDATA[6]]></text>
        <text font-family="Arial" fill="#000000" style="white-space:pre;" font-weight="400" text-anchor="start" x="36.0533" y="7.4748" font-size="0.3998"><![CDATA[8]]></text>
        <text font-family="Arial" fill="#000000" style="white-space:pre;" font-weight="400" text-anchor="start" x="36.0533" y="3.8526" font-size="0.3998"><![CDATA[7]]></text>
        <text font-family="Arial" fill="#000000" style="white-space:pre;" font-weight="400" text-anchor="start" x="33.4002" y="3.8526" font-size="0.3998"><![CDATA[9]]></text>
        <text font-family="Arial" fill="#000000" style="white-space:pre;" font-weight="400" text-anchor="start" x="33.2911" y="7.4748" font-size="0.3998"><![CDATA[10]]></text>
        <path d="M 21.8685,2.5873 L 13.2805,2.5873 L 13.2805,10.3059 L 21.8685,10.3059 L 21.8685,2.5873 Z" stroke="#0A0A0A" stroke-width="0.1196" stroke-linecap="round" stroke-linejoin="round" fill="#FFFFFF"/>
        <ellipse cx="6.6231" cy="2.9323" rx="0.9587" ry="0.9627" fill="#999999" stroke="#000000" stroke-width="0.1196" stroke-linecap="round" stroke-linejoin="round"/>
        <ellipse cx="6.6231" cy="2.9323" rx="0.9587" ry="0.9627" fill="none" stroke="#000000" stroke-width="0.1196" stroke-linecap="round" stroke-linejoin="round"/>
        <ellipse cx="6.6231" cy="2.9323" rx="0.7163" ry="0.7192" fill="#666666" stroke="#000000" stroke-width="0.1196" stroke-linecap="round" stroke-linejoin="round"/>
        <ellipse cx="6.6231" cy="2.9323" rx="0.7163" ry="0.7192" fill="none" stroke="#000000" stroke-width="0.1196" stroke-linecap="round" stroke-linejoin="round"/>
        <ellipse cx="6.6231" cy="2.9323" rx="0.6502" ry="0.6528" fill="#7F7F7F" stroke="#000000" stroke-width="0.1196" stroke-linecap="round" stroke-linejoin="round"/>
        <ellipse cx="6.6231" cy="2.9323" rx="0.6502" ry="0.6528" fill="none" stroke="#7F7F7F" stroke-width="0.1196" stroke-linecap="round" stroke-linejoin="round"/>
        <path d="M 6.1272,2.8770 L 6.1051,2.8770 L 6.0831,2.8991 L 6.0831,2.9212 L 6.0611,2.9212 L 6.0611,3.0540 L 6.0831,3.0540 L 6.0831,3.0761 L 6.1051,3.0983 L 6.5680,3.0983 L 6.5680,3.5851 L 6.5900,3.5851 L 6.5900,3.6073 L 6.6121,3.6073 L 6.6121,3.6294 L 6.7443,3.6294 L 6.7443,3.6073 L 6.7663,3.6073 L 6.7663,3.5851 L 6.7884,3.5851 L 6.7884,3.0983 L 7.2733,3.0983 L 7.2733,3.0761 L 7.2953,3.0761 L 7.2953,3.0540 L 7.3174,3.0540 L 7.3174,2.9212 L 7.2953,2.9212 L 7.2953,2.8991 L 7.2733,2.8991 L 7.2733,2.8770 L 6.7884,2.8770 L 6.7884,2.4122 L 6.7663,2.3901 L 6.7443,2.3901 L 6.7443,2.3680 L 6.6121,2.3680 L 6.6121,2.3901 L 6.5900,2.3901 L 6.5680,2.4122 L 6.5680,2.8770 L 6.1492,2.8770 L 6.1272,2.8770 Z" stroke="#161616" stroke-width="0.1196" stroke-linecap="round" stroke-linejoin="round" fill="#494949"/>
        <path d="M 6.0390,2.9434 L 6.0390,3.0540 L 6.0611,3.0761 L 6.0831,3.0761 L 6.0831,3.0983 L 6.5680,3.0983 L 6.5680,3.6073 L 6.5900,3.6294 L 6.6121,3.6294 L 6.6121,3.6515 L 6.6782,3.6515 L 6.7002,3.6515 " stroke="#BFBFBF" stroke-width="0.1196" stroke-linecap="round" stroke-linejoin="round" fill="none"/>
        <path d="M 6.5680,2.4122 L 6.5680,2.8548 L 6.5680,2.8770 " stroke="#BFBFBF" stroke-width="0.1196" stroke-linecap="round" stroke-linejoin="round" fill="none"/>
        <path d="M 4.0583,5.4515 L 4.0583,10.2042 L 2.1258,10.2042 L 2.1258,5.4515 L 2.4985,5.4515 L 2.4985,5.8289 L 3.6856,5.8289 L 3.6856,5.4515 L 4.0583,5.4515 Z" stroke="#000000" stroke-width="0.1196" stroke-linecap="round" stroke-linejoin="round" fill="#000000"/>
        <path d="M 4.0031,5.9687 L 2.1810,5.9687 L 2.1810,10.1343 L 4.0031,10.1343 L 4.0031,5.9687 Z" stroke="#000000" stroke-width="0.1196" stroke-linecap="round" stroke-linejoin="round" fill="#666666"/>
        <path d="M 3.8099,8.2192 L 2.3743,8.2192 L 2.3743,9.6730 L 3.8099,9.6730 L 3.8099,8.2192 Z" stroke="#000000" stroke-width="0.1196" stroke-linecap="round" stroke-linejoin="round" fill="#000000"/>
        <ellipse cx="3.0299" cy="8.8832" rx="0.1173" ry="0.1188" fill="#BFBFBF" stroke="#000000" stroke-width="0.1196" stroke-linecap="round" stroke-linejoin="round"/>
        <ellipse cx="3.0299" cy="8.8832" rx="0.1173" ry="0.1188" fill="none" stroke="#000000" stroke-width="0.1196" stroke-linecap="round" stroke-linejoin="round"/>
        <path d="M 3.8099,6.4580 L 2.3743,6.4580 L 2.3743,7.5483 L 2.7332,7.9117 L 3.4786,7.9117 L 3.8099,7.5762 L 3.8099,6.4580 Z" stroke="#000000" stroke-width="0.1196" stroke-linecap="round" stroke-linejoin="round" fill="#000000"/>
        <ellipse cx="3.0299" cy="7.1219" rx="0.1173" ry="0.1188" fill="#BFBFBF" stroke="#000000" stroke-width="0.1196" stroke-linecap="round" stroke-linejoin="round"/>
        <ellipse cx="3.0299" cy="7.1219" rx="0.1173" ry="0.1188" fill="none" stroke="#000000" stroke-width="0.1196" stroke-linecap="round" stroke-linejoin="round"/>
        <path d="M 9.0911,9.9847 L 9.0911,10.0266 L 9.1047,10.0266 L 9.1047,10.0545 L 9.1184,10.0685 L 9.1184,10.0824 L 9.1321,10.0824 L 9.1321,10.0964 L 9.1457,10.0964 L 9.1457,10.1104 L 9.1594,10.1104 L 9.1731,10.1243 L 9.2004,10.1243 L 9.2004,10.1383 L 10.5402,10.1383 L 10.5402,10.1243 L 10.5675,10.1243 L 10.5812,10.1104 L 10.5948,10.1104 L 10.5948,10.0964 L 10.6085,10.0964 L 10.6085,10.0824 L 10.6222,10.0824 L 10.6222,10.0685 L 10.6359,10.0545 L 10.6359,10.0266 L 10.6495,10.0266 L 10.6495,6.5354 L 10.6359,6.5354 L 10.6359,6.5075 L 10.6222,6.4935 L 10.6222,6.4796 L 10.6085,6.4796 L 10.6085,6.4656 L 10.5948,6.4656 L 10.5948,6.4516 L 10.5812,6.4516 L 10.5675,6.4377 L 10.5402,6.4377 L 10.5402,6.4237 L 9.2004,6.4237 L 9.2004,6.4377 L 9.1731,6.4377 L 9.1594,6.4516 L 9.1457,6.4516 L 9.1457,6.4656 L 9.1321,6.4656 L 9.1321,6.4796 L 9.1184,6.4796 L 9.1184,6.4935 L 9.1047,6.5075 L 9.1047,6.5354 L 9.0911,6.5354 L 9.0911,9.9707 L 9.0911,9.9847 Z" stroke="#000000" stroke-width="0.1196" stroke-linecap="round" stroke-linejoin="round" fill="#494949"/>
        <path d="M 9.2141,9.9288 L 9.2141,9.9707 L 9.2278,9.9707 L 9.2278,9.9847 L 9.2414,9.9986 L 9.2551,9.9986 L 9.2551,10.0126 L 10.4855,10.0126 L 10.4991,9.9986 L 10.5128,9.9986 L 10.5128,9.9847 L 10.5265,9.9847 L 10.5265,9.9707 L 10.5402,9.9567 L 10.5402,6.5913 L 10.5265,6.5913 L 10.5265,6.5773 L 10.5128,6.5773 L 10.5128,6.5633 L 10.4991,6.5633 L 10.4855,6.5494 L 9.2551,6.5494 L 9.2551,6.5633 L 9.2414,6.5633 L 9.2278,6.5773 L 9.2278,6.5913 L 9.2141,6.5913 L 9.2141,9.9148 L 9.2141,9.9288 Z" stroke="#494949" stroke-width="0.1196" stroke-linecap="round" stroke-linejoin="round" fill="#000000"/>
        <path d="M 9.9523,9.1887 L 9.9523,9.4959 L 9.8840,9.4959 L 9.8840,9.1887 L 9.9523,9.1887 Z" stroke="#494949" stroke-width="0.1196" stroke-linecap="round" stroke-linejoin="round" fill="#494949"/>
        <path d="M 9.9523,8.4905 L 9.9523,8.7977 L 9.8840,8.7977 L 9.8840,8.4905 L 9.9523,8.4905 Z" stroke="#494949" stroke-width="0.1196" stroke-linecap="round" stroke-linejoin="round" fill="#494949"/>
        <path d="M 9.9523,7.8062 L 9.9523,8.1134 L 9.8840,8.1134 L 9.8840,7.8062 L 9.9523,7.8062 Z" stroke="#494949" stroke-width="0.1196" stroke-linecap="round" stroke-linejoin="round" fill="#494949"/>
        <path d="M 9.9523,7.0940 L 9.9523,7.4012 L 9.8840,7.4012 L 9.8840,7.0940 L 9.9523,7.0940 Z" stroke="#494949" stroke-width="0.1196" stroke-linecap="round" stroke-linejoin="round" fill="#494949"/>
        <path d="M 9.5285,6.7589 L 9.5012,6.7589 L 9.4738,6.7728 L 9.4602,6.8007 L 9.4602,9.7612 L 9.4738,9.7892 L 9.5012,9.8031 L 9.8430,9.8031 L 9.8703,9.7892 L 9.8840,9.7612 L 9.8840,6.8007 L 9.8703,6.7728 L 9.8430,6.7589 L 9.8156,6.7589 L 9.5285,6.7589 Z" stroke="#494949" stroke-width="0.1196" stroke-linecap="round" stroke-linejoin="round" fill="#494949"/>
        <path d="M 9.6652,6.8706 L 9.6105,6.8845 L 9.5559,6.9404 L 9.5422,6.9963 L 9.5422,9.5657 L 9.5559,9.6216 L 9.6105,9.6774 L 9.6652,9.6914 L 9.7199,9.6774 L 9.7746,9.6216 L 9.7883,9.5657 L 9.7883,6.9963 L 9.7746,6.9404 L 9.7199,6.8845 L 9.6652,6.8706 Z" stroke="#333333" stroke-width="0.1196" stroke-linecap="round" stroke-linejoin="round" fill="#333333"/>
        <path d="M 9.3371,10.0126 L 9.3371,10.1662 L 9.3508,10.1662 L 9.3508,10.1802 L 9.3645,10.1802 L 9.3645,10.1941 L 9.3781,10.1941 L 9.3918,10.2081 L 10.3488,10.2081 L 10.3624,10.1941 L 10.3761,10.1941 L 10.3761,10.1802 L 10.3898,10.1802 L 10.3898,10.1662 L 10.4035,10.1662 L 10.4035,10.0126 L 9.3508,10.0126 L 9.3371,10.0126 Z" stroke="#000000" stroke-width="0.1196" stroke-linecap="round" stroke-linejoin="round" fill="#EAEAEA"/>
        <path d="M 9.3371,6.5494 L 9.3371,6.3958 L 9.3508,6.3958 L 9.3508,6.3818 L 9.3645,6.3818 L 9.3645,6.3678 L 9.3781,6.3678 L 9.3918,6.3539 L 10.3488,6.3539 L 10.3624,6.3678 L 10.3761,6.3678 L 10.3761,6.3818 L 10.3898,6.3818 L 10.3898,6.3958 L 10.4035,6.3958 L 10.4035,6.5494 L 9.3508,6.5494 L 9.3371,6.5494 Z" stroke="#000000" stroke-width="0.1196" stroke-linecap="round" stroke-linejoin="round" fill="#EAEAEA"/>
        <path d="M 9.2141,9.8171 L 9.0637,9.8171 L 9.0637,9.8031 L 9.0364,9.8031 L 9.0364,9.7752 L 9.0227,9.7752 L 9.0227,6.8147 L 9.0364,6.8147 L 9.0364,6.8007 L 9.0500,6.7868 L 9.0637,6.7868 L 9.0637,6.7728 L 9.2141,6.7728 L 9.2141,9.8031 L 9.2141,9.8171 Z" stroke="#000000" stroke-width="0.1196" stroke-linecap="round" stroke-linejoin="round" fill="#EAEAEA"/>
        <path d="M 10.5402,9.8171 L 10.6905,9.8171 L 10.6905,9.8031 L 10.7179,9.8031 L 10.7179,9.7752 L 10.7316,9.7752 L 10.7316,6.8147 L 10.7179,6.8147 L 10.7179,6.8007 L 10.7042,6.7868 L 10.6905,6.7868 L 10.6905,6.7728 L 10.5402,6.7728 L 10.5402,9.8031 L 10.5402,9.8171 Z" stroke="#000000" stroke-width="0.1196" stroke-linecap="round" stroke-linejoin="round" fill="#EAEAEA"/>
        <path d="M 35.7299,5.8251 L 35.7299,3.7031 L 36.6190,3.7031 L 36.6190,3.2038 L 36.9801,3.2038 L 36.9801,2.7045 L 38.0359,2.7045 L 38.0359,3.2038 L 38.3971,3.2038 L 38.3971,3.7031 L 39.2862,3.7031 L 39.2862,5.8251 L 35.7299,5.8251 Z" stroke="#161616" stroke-width="0.1196" stroke-linecap="round" stroke-linejoin="round" fill="#000000"/>
        <path d="M 35.7299,7.1427 L 35.7299,9.2647 L 36.6190,9.2647 L 36.6190,9.7640 L 36.9801,9.7640 L 36.9801,10.2633 L 38.0359,10.2633 L 38.0359,9.7640 L 38.3971,9.7640 L 38.3971,9.2647 L 39.2862,9.2647 L 39.2862,7.1427 L 35.7299,7.1427 Z" stroke="#161616" stroke-width="0.1196" stroke-linecap="round" stroke-linejoin="round" fill="#000000"/>
        <path d="M 31.6457,5.8251 L 31.6457,3.7031 L 32.5347,3.7031 L 32.5347,3.2038 L 32.8959,3.2038 L 32.8959,2.7045 L 33.9517,2.7045 L 33.9517,3.2038 L 34.3129,3.2038 L 34.3129,3.7031 L 35.2020,3.7031 L 35.2020,5.8251 L 31.6457,5.8251 Z" stroke="#161616" stroke-width="0.1196" stroke-linecap="round" stroke-linejoin="round" fill="#000000"/>
        <path d="M 31.6457,7.1427 L 31.6457,9.2647 L 32.5347,9.2647 L 32.5347,9.7640 L 32.8959,9.7640 L 32.8959,10.2633 L 33.9517,10.2633 L 33.9517,9.7640 L 34.3129,9.7640 L 34.3129,9.2647 L 35.2020,9.2647 L 35.2020,7.1427 L 31.6457,7.1427 Z" stroke="#161616" stroke-width="0.1196" stroke-linecap="round" stroke-linejoin="round" fill="#000000"/>
        <path d="M 27.5476,5.8251 L 27.5476,3.7031 L 28.4366,3.7031 L 28.4366,3.2038 L 28.7978,3.2038 L 28.7978,2.7045 L 29.8536,2.7045 L 29.8536,3.2038 L 30.2148,3.2038 L 30.2148,3.7031 L 31.1039,3.7031 L 31.1039,5.8251 L 27.5476,5.8251 Z" stroke="#161616" stroke-width="0.1196" stroke-linecap="round" stroke-linejoin="round" fill="#000000"/>
        <path d="M 27.5476,7.1427 L 27.5476,9.2647 L 28.4366,9.2647 L 28.4366,9.7640 L 28.7978,9.7640 L 28.7978,10.2633 L 29.8536,10.2633 L 29.8536,9.7640 L 30.2148,9.7640 L 30.2148,9.2647 L 31.1039,9.2647 L 31.1039,7.1427 L 27.5476,7.1427 Z" stroke="#161616" stroke-width="0.1196" stroke-linecap="round" stroke-linejoin="round" fill="#000000"/>
        <path d="M 23.4634,5.8251 L 23.4634,3.7031 L 24.3524,3.7031 L 24.3524,3.2038 L 24.7136,3.2038 L 24.7136,2.7045 L 25.7694,2.7045 L 25.7694,3.2038 L 26.1306,3.2038 L 26.1306,3.7031 L 27.0197,3.7031 L 27.0197,5.8251 L 23.4634,5.8251 Z" stroke="#161616" stroke-width="0.1196" stroke-linecap="round" stroke-linejoin="round" fill="#000000"/>
        <path d="M 23.4634,7.1427 L 23.4634,9.2647 L 24.3524,9.2647 L 24.3524,9.7640 L 24.7136,9.7640 L 24.7136,10.2633 L 25.7694,10.2633 L 25.7694,9.7640 L 26.1306,9.7640 L 26.1306,9.2647 L 27.0197,9.2647 L 27.0197,7.1427 L 23.4634,7.1427 Z" stroke="#161616" stroke-width="0.1196" stroke-linecap="round" stroke-linejoin="round" fill="#000000"/>
        <path d="M 17.8649,5.8251 L 17.8649,3.7031 L 18.7540,3.7031 L 18.7540,3.2038 L 19.1152,3.2038 L 19.1152,2.7045 L 20.1710,2.7045 L 20.1710,3.2038 L 20.5322,3.2038 L 20.5322,3.7031 L 21.4213,3.7031 L 21.4213,5.8251 L 17.8649,5.8251 Z" stroke="#161616" stroke-width="0.1196" stroke-linecap="round" stroke-linejoin="round" fill="#000000"/>
        <path d="M 17.8649,7.1427 L 17.8649,9.2647 L 18.7540,9.2647 L 18.7540,9.7640 L 19.1152,9.7640 L 19.1152,10.2633 L 20.1710,10.2633 L 20.1710,9.7640 L 20.5322,9.7640 L 20.5322,9.2647 L 21.4213,9.2647 L 21.4213,7.1427 L 17.8649,7.1427 Z" stroke="#161616" stroke-width="0.1196" stroke-linecap="round" stroke-linejoin="round" fill="#000000"/>
        <path d="M 13.7807,5.8251 L 13.7807,3.7031 L 14.6698,3.7031 L 14.6698,3.2038 L 15.0310,3.2038 L 15.0310,2.7045 L 16.0868,2.7045 L 16.0868,3.2038 L 16.4480,3.2038 L 16.4480,3.7031 L 17.3370,3.7031 L 17.3370,5.8251 L 13.7807,5.8251 Z" stroke="#161616" stroke-width="0.1196" stroke-linecap="round" stroke-linejoin="round" fill="#000000"/>
        <path d="M 13.7807,7.1427 L 13.7807,9.2647 L 14.6698,9.2647 L 14.6698,9.7640 L 15.0310,9.7640 L 15.0310,10.2633 L 16.0868,10.2633 L 16.0868,9.7640 L 16.4480,9.7640 L 16.4480,9.2647 L 17.3370,9.2647 L 17.3370,7.1427 L 13.7807,7.1427 Z" stroke="#161616" stroke-width="0.1196" stroke-linecap="round" stroke-linejoin="round" fill="#000000"/>
        <path d="M 43.1208,5.8251 L 43.1208,3.6892 L 43.6182,3.6892 L 43.6182,3.1899 L 44.1017,3.1899 L 44.1017,2.7045 L 45.2485,2.7045 L 45.2485,3.1899 L 45.7459,3.1899 L 45.7459,3.6892 L 46.2294,3.6892 L 46.2294,5.8251 L 43.1208,5.8251 Z" stroke="#161616" stroke-width="0.1196" stroke-linecap="round" stroke-linejoin="round" fill="#000000"/>
        <path d="M 43.1208,7.1427 L 43.1208,9.2786 L 43.6182,9.2786 L 43.6182,9.7779 L 44.1017,9.7779 L 44.1017,10.2633 L 45.2485,10.2633 L 45.2485,9.7779 L 45.7459,9.7779 L 45.7459,9.2786 L 46.2294,9.2786 L 46.2294,7.1427 L 43.1208,7.1427 Z" stroke="#161616" stroke-width="0.1196" stroke-linecap="round" stroke-linejoin="round" fill="#000000"/>
        <path d="M 53.8837,5.8251 L 53.8837,3.6892 L 54.3811,3.6892 L 54.3811,3.1899 L 54.8647,3.1899 L 54.8647,2.7045 L 56.0114,2.7045 L 56.0114,3.1899 L 56.5088,3.1899 L 56.5088,3.6892 L 56.9924,3.6892 L 56.9924,5.8251 L 53.8837,5.8251 Z" stroke="#161616" stroke-width="0.1196" stroke-linecap="round" stroke-linejoin="round" fill="#000000"/>
        <path d="M 53.8837,7.1427 L 53.8837,9.2786 L 54.3811,9.2786 L 54.3811,9.7779 L 54.8647,9.7779 L 54.8647,10.2633 L 56.0114,10.2633 L 56.0114,9.7779 L 56.5088,9.7779 L 56.5088,9.2786 L 56.9924,9.2786 L 56.9924,7.1427 L 53.8837,7.1427 Z" stroke="#161616" stroke-width="0.1196" stroke-linecap="round" stroke-linejoin="round" fill="#000000"/>
        <path d="M 48.5506,5.8251 L 48.5506,3.6892 L 49.0480,3.6892 L 49.0480,3.1899 L 49.5315,3.1899 L 49.5315,2.7045 L 50.6783,2.7045 L 50.6783,3.1899 L 51.1757,3.1899 L 51.1757,3.6892 L 51.6593,3.6892 L 51.6593,5.8251 L 48.5506,5.8251 Z" stroke="#161616" stroke-width="0.1196" stroke-linecap="round" stroke-linejoin="round" fill="#000000"/>
        <path d="M 48.5506,7.1427 L 48.5506,9.2786 L 49.0480,9.2786 L 49.0480,9.7779 L 49.5315,9.7779 L 49.5315,10.2633 L 50.6783,10.2633 L 50.6783,9.7779 L 51.1757,9.7779 L 51.1757,9.2786 L 51.6593,9.2786 L 51.6593,7.1427 L 48.5506,7.1427 Z" stroke="#161616" stroke-width="0.1196" stroke-linecap="round" stroke-linejoin="round" fill="#000000"/>
      </g>
      <!--emf-blob end-->
    </g>
  </g>
</svg>
